<svg width="364" height="364" viewBox="0 0 364 364" fill="none" xmlns="http://www.w3.org/2000/svg">
<mask id="mask0_2341_708" style="mask-type:alpha" maskUnits="userSpaceOnUse" x="0" y="0" width="364" height="364">
<rect width="364" height="364" fill="#D9D9D9"/>
</mask>
<g mask="url(#mask0_2341_708)">
<mask id="mask1_2341_708" style="mask-type:alpha" maskUnits="userSpaceOnUse" x="-7" y="-7" width="380" height="378">
<rect x="-7" y="-7" width="380" height="378" fill="#D9D9D9"/>
</mask>
<g mask="url(#mask1_2341_708)">
<path d="M102.861 322.089C191.78 297.521 257.254 263.71 292.371 224.186C324.17 188.386 324.493 156.647 319.164 136.326C311.883 108.556 289.39 85.1175 260.465 75.1578C236.296 66.8358 211.652 69.2349 191.073 81.9132L184.076 86.2236L181.216 78.5194C172.805 55.8587 154.862 38.7957 130.693 30.4737C101.771 20.5149 69.6178 25.1382 46.7812 42.5392C30.0699 55.2729 10.7827 80.4822 13.8002 128.265C17.1389 181.032 47.9169 247.985 102.861 322.089ZM100.205 329.804C36.2334 244.491 10.1887 177.949 7.0719 128.691C-1.26399 -3.31042 155.095 -11.2259 187.537 76.1733C266.909 27.2749 385.249 129.777 297.412 228.663C264.629 265.56 203.139 301.961 100.205 329.804Z" fill="black"/>
<path d="M183.084 284.021C182.961 282.869 182.824 281.777 182.732 280.678C182.595 279.068 182.496 277.45 182.374 275.831C182.114 272.45 181.885 269.069 181.588 265.696C181.359 263.078 180.977 260.467 180.779 257.849C180.519 254.354 180.313 250.85 180.191 247.347C180.069 243.699 180.061 240.05 180.023 236.402C180 234.647 180.061 232.891 180.015 231.136C179.954 228.686 179.863 226.228 179.718 223.778C179.473 219.702 179.145 215.634 178.901 211.558C178.771 209.421 178.802 207.269 178.664 205.132C178.519 202.789 178.306 200.453 178.046 198.118C177.665 194.637 177.367 191.142 176.764 187.692C176.245 184.746 175.329 181.876 174.634 178.96C173.703 175.045 173.108 171.068 172.787 167.054C172.719 166.214 172.619 165.382 172.734 164.481C173.512 165.764 174.245 167.076 175.077 168.328C175.695 169.259 176.443 170.107 177.115 171C177.519 171.534 177.947 171.526 178.443 171.152C178.939 170.778 179.435 170.404 179.977 170C182.168 173.098 184.427 176.09 187.976 177.846C186.885 179.204 187.808 180.487 188.037 181.761C188.373 183.647 188.877 185.509 189.235 187.394C189.747 190.088 190.22 192.798 190.663 195.507C191.121 198.324 191.495 201.155 191.937 203.979C192.097 204.995 192.388 205.994 192.555 207.01C192.807 208.528 193.006 210.055 193.227 211.574C193.479 213.306 193.769 215.039 193.99 216.779C194.265 218.931 194.502 221.099 194.754 223.259C194.799 223.648 194.845 224.045 194.914 224.434C195.624 228.472 196.303 232.51 197.066 236.54C197.379 238.211 197.868 239.844 198.28 241.501C199.043 244.615 199.852 247.721 200.562 250.85C201.34 254.277 202.05 257.727 202.76 261.169C203.058 262.62 203.363 264.085 203.47 265.558C203.531 266.428 203.31 267.367 202.997 268.191C202.829 268.634 202.203 268.901 201.775 269.237C201.455 269.489 201.096 269.71 200.791 269.977C199.554 271.084 198.348 272.237 197.089 273.32C194.983 275.145 192.845 276.923 190.724 278.724C189.556 279.716 188.35 280.678 187.228 281.724C186.083 282.792 184.862 283.662 183.091 284.013L183.084 284.021Z" fill="white"/>
<path d="M101.377 47.8731L97.8588 35.4856C97.5917 34.5392 97.1719 33.6462 96.6224 32.8295L94.6684 29.9444L93.9434 24.5483L95.7904 15.1756L98.1641 10.2069L104.827 5.37555L108.72 3.96355L113.276 3.16214L123.908 1.87988L132.243 5.66558L138.349 14.7558L141.081 24.8841L139.937 35.1269L138.815 39.1874L137.242 41.5839L130.976 42.164L135.395 52.2465L123.038 68.1526L118.482 55.3453L113.177 56.7726L106.148 52.8189L101.362 47.8807L101.377 47.8731Z" fill="white"/>
<path d="M148.615 68.1455L145.348 56.3991L142.929 50.8198L141.593 46.9578H138.823L136.823 44.5536L134.693 41.5769L138.609 38.3789L145.348 46.1716L151.737 51.6441L157.133 56.7655L161.247 66.4435V74.2515L148.615 68.1455Z" fill="white"/>
<path d="M116.948 101.377L121.916 72.9768L124.473 58.2538L132.251 52.2471L141.089 54.1781L155.431 65.0238L166.078 80.7085L177.862 115.154L196.745 151.645L197.814 156.049L200.867 162.719V170.588L208.957 164.856L211.796 164.49L212.651 166.452L203.469 176.923L192.761 178.625L185.388 175.076L177.717 170.153L144.348 292.227L128.87 286.976L112.826 279.305L120.497 194.104L127.168 136.876L126.175 134.319L127.168 129.556L117.513 114.299C115.91 109.697 115.406 105.323 116.948 101.377Z" fill="white"/>
<path d="M143.745 341.951C141.47 341.142 139.318 340.448 137.226 339.608C136.043 339.135 134.731 338.822 133.975 337.586C133.258 336.425 133.082 335.197 133.197 333.869C133.357 332.136 133.387 330.388 133.555 328.656C133.708 327.053 133.983 325.465 134.181 323.862C134.311 322.779 134.395 321.687 134.509 320.603C134.815 317.535 135.135 314.474 135.425 311.406C135.57 309.91 135.669 308.407 135.792 306.903C135.891 305.728 136.013 304.552 136.089 303.377C136.204 301.599 136.272 299.82 136.402 298.042C136.517 296.416 136.616 294.775 136.868 293.172C136.975 292.478 136.738 292.081 136.257 291.814C134.837 291.035 133.395 290.287 131.937 289.577C129.686 288.486 127.426 287.41 125.144 286.395C123.488 285.662 121.755 285.089 120.107 284.357C117.68 283.273 115.253 282.182 112.894 280.945C111.787 280.365 111.475 278.976 111.742 277.732C111.902 276.976 111.948 276.19 112.009 275.412C112.131 273.755 112.23 272.099 112.322 270.443C112.375 269.466 112.352 268.481 112.413 267.512C112.543 265.299 112.703 263.093 112.833 260.879C113.001 258.078 113.115 255.277 113.314 252.476C113.535 249.4 113.802 246.324 114.092 243.248C114.413 239.86 114.802 236.471 115.108 233.082C115.482 229.037 115.764 224.984 116.161 220.939C116.451 217.985 116.825 215.031 117.206 212.085C117.672 208.521 118.229 204.956 118.695 201.392C119.199 197.538 119.687 193.683 120.114 189.821C120.496 186.379 120.763 182.921 121.107 179.479C121.389 176.67 121.717 173.877 122.023 171.068C122.381 167.733 122.702 164.39 123.099 161.054C123.32 159.223 123.671 157.406 123.954 155.582C124.534 151.781 125.114 147.972 125.671 144.171C125.984 142.05 126.281 139.92 126.495 137.783C126.541 137.302 126.205 136.783 126.045 136.287C125.839 135.638 125.45 134.982 125.465 134.333C125.488 133.127 125.602 131.883 125.953 130.738C126.236 129.838 125.961 129.151 125.686 128.395C124.984 126.495 123.641 125.014 122.511 123.388C120.259 120.137 118.099 116.824 116.313 113.268C115.535 111.726 115.352 110.161 115.321 108.528C115.245 104.368 115.474 100.224 116.306 96.1326C117.313 91.1639 118.344 86.1952 119.359 81.2264C120.008 78.0513 120.649 74.8762 121.297 71.7088C121.412 71.144 121.45 70.541 121.679 70.0373C122.229 68.8542 121.824 67.8009 121.427 66.7095C120.435 64.0076 119.466 61.2981 118.496 58.5886C118.115 57.52 117.68 57.3521 116.573 57.5811C114.352 58.0467 112.177 58.3291 110.154 56.7568C108.841 55.734 107.269 55.0547 105.933 54.0625C103.499 52.2384 101.323 50.1089 100.293 47.1704C99.6137 45.2318 99.2549 43.1786 98.7894 41.1713C98.5451 40.1027 98.3314 39.0266 98.194 37.9428C98.1559 37.6069 98.4306 37.2253 98.5604 36.8666C98.8962 37.1337 99.4229 37.3474 99.5373 37.6832C99.9495 38.9502 100.201 40.2707 100.545 41.5605C101.026 43.3465 101.377 45.186 102.064 46.888C102.919 48.9869 104.346 50.7806 106.262 52.0246C108.33 53.368 110.505 54.551 112.65 55.7645C113.642 56.3217 114.711 56.2836 115.726 55.8103C118.023 54.7494 120.198 53.5053 122.045 51.7193C123.374 50.4371 124.847 49.3075 126.22 48.071C126.602 47.7276 126.984 47.6512 127.197 48.071C127.396 48.4603 127.579 49.2235 127.381 49.4067C125.327 51.2919 123.206 53.0932 121.091 54.9097C120.611 55.3219 120.076 55.6806 119.634 56.1309C119.481 56.2836 119.412 56.6804 119.496 56.8865C120.435 59.2831 121.412 61.6644 122.358 64.0534C122.496 64.4045 122.549 64.7938 122.641 65.1601C122.725 65.1754 122.809 65.183 122.9 65.1983C123.076 64.6182 123.213 64.0229 123.427 63.4581C123.9 62.1987 124.358 60.9317 124.931 59.7182C125.144 59.2678 125.679 58.9168 126.236 59.3365C126.755 59.7258 126.427 60.1303 126.251 60.6112C125.709 62.069 125.19 63.5497 124.816 65.0609C123.893 68.8008 123.03 72.5483 122.206 76.3035C121.618 78.9901 121.175 81.7149 120.603 84.4015C120.122 86.6684 119.481 88.9047 119.038 91.1792C118.68 93.0339 118.504 94.9267 118.237 96.8043C118.008 98.4529 117.703 100.094 117.558 101.75C117.268 105.101 116.565 108.497 117.764 111.779C118.328 113.321 119.267 114.741 120.153 116.145C121.381 118.107 122.725 119.984 123.992 121.923C124.694 122.999 125.335 124.113 126.022 125.205C126.289 125.632 126.572 126.067 126.884 126.456C128.037 127.899 127.777 129.548 127.64 131.196C127.548 132.257 127.541 133.326 127.556 134.387C127.556 134.661 127.724 134.997 127.922 135.188C128.823 136.058 128.815 137.111 128.701 138.233C128.594 139.287 128.632 140.355 128.487 141.401C128.342 142.492 128.052 143.568 127.831 144.66C127.503 146.301 127.113 147.942 126.862 149.598C126.449 152.33 126.121 155.071 125.762 157.811C125.556 159.39 125.335 160.978 125.16 162.566C124.847 165.42 124.549 168.275 124.259 171.129C123.915 174.533 123.587 177.937 123.251 181.334C122.984 184.104 122.725 186.875 122.442 189.646C122.175 192.317 121.916 194.988 121.603 197.652C121.397 199.423 121.076 201.186 120.84 202.949C120.656 204.3 120.542 205.666 120.351 207.017C120.114 208.696 119.794 210.368 119.565 212.047C119.237 214.436 118.947 216.832 118.664 219.229C118.428 221.175 118.199 223.122 118.008 225.068C117.863 226.579 117.794 228.09 117.68 229.602C117.504 231.868 117.313 234.135 117.138 236.402C117.016 237.944 116.924 239.486 116.779 241.027C116.672 242.134 116.489 243.241 116.375 244.347C116.222 245.843 116.1 247.347 115.978 248.851C115.711 252.056 115.436 255.262 115.199 258.467C115.047 260.46 114.94 262.452 114.833 264.451C114.581 269.1 114.344 273.755 114.085 278.403C114.054 279.014 114.169 279.403 114.81 279.686C117.252 280.754 119.649 281.93 122.084 283.006C124.839 284.219 127.64 285.326 130.38 286.57C132.693 287.616 135.005 288.692 137.196 289.959C138.608 290.768 140.066 290.829 141.493 290.623C142.126 290.531 142.676 289.6 143.195 288.99C144.057 287.967 143.752 286.692 143.79 285.525C143.867 282.96 143.912 280.38 143.844 277.816C143.79 275.663 143.508 273.519 143.416 271.359C143.34 269.596 143.416 267.817 143.401 266.054C143.378 263.658 143.317 261.253 143.31 258.857C143.31 257.437 143.386 256.025 143.409 254.605C143.439 252.43 143.523 250.255 143.455 248.08C143.363 245.195 143.264 242.302 142.936 239.432C142.737 237.654 142.684 235.898 142.676 234.12C142.676 232.25 142.31 230.388 142.256 228.51C142.172 225.511 142.241 222.511 142.203 219.504C142.18 217.901 142.043 216.298 142.02 214.695C141.974 211.093 142.004 207.483 141.92 203.88C141.875 201.827 141.592 199.774 141.554 197.713C141.516 195.133 141.646 192.546 141.661 189.959C141.669 188.31 141.592 186.654 141.577 185.005C141.562 183.288 141.6 181.563 141.577 179.845C141.546 177.922 141.493 176.006 141.401 174.091C141.317 172.404 140.997 170.709 141.066 169.03C141.203 165.916 141.546 162.81 141.821 159.703C142.111 156.421 142.378 153.14 142.745 149.865C143.157 146.171 143.752 142.492 144.119 138.79C144.439 135.531 144.485 132.257 144.004 128.983C143.699 126.891 143.607 124.77 143.409 122.655C143.393 122.51 143.332 122.373 143.294 122.228C142.707 119.664 141.043 118.023 138.783 116.824C136.303 115.511 134.128 113.794 131.96 111.985C129.678 110.077 129.411 107.558 128.892 105.047C128.388 102.582 127.961 100.102 127.61 97.6057C127.342 95.7129 127.281 93.7971 127.068 91.8966C126.77 89.2482 126.411 86.6073 126.075 83.9665C125.694 80.9135 124.824 77.9369 124.854 74.8075C124.885 71.1211 125.305 67.5033 126.014 63.9084C126.121 63.3741 126.075 62.7864 126.289 62.2979C126.442 61.9545 126.907 61.756 127.236 61.4965C127.426 61.84 127.785 62.1911 127.77 62.5269C127.701 63.855 127.526 65.1754 127.373 66.4958C127.236 67.6865 126.968 68.8695 126.953 70.0602C126.923 72.6018 126.946 75.151 127.106 77.685C127.205 79.2496 127.64 80.7914 127.869 82.356C128.197 84.6534 128.518 86.9508 128.762 89.2634C129.098 92.3927 129.518 95.5297 129.594 98.6742C129.647 100.918 130.235 103.025 130.601 105.185C130.815 106.467 131.044 107.795 131.586 108.948C131.998 109.833 132.8 110.634 133.609 111.214C136.288 113.13 139.051 114.924 141.791 116.756C142.432 117.183 143.119 117.542 143.729 118C144.096 118.274 144.37 118.687 144.737 119.099C145.172 118.9 145.233 118.587 144.95 118.122C144.241 116.954 143.462 115.824 142.874 114.603C140.608 109.917 138.333 105.231 136.188 100.491C134.761 97.3309 133.517 94.0795 132.265 90.8433C131.93 89.9809 131.807 89.0192 131.716 88.088C131.685 87.7598 132.044 87.3858 132.227 87.0347C132.517 87.2561 132.922 87.424 133.067 87.7217C133.418 88.4239 133.639 89.1871 133.922 89.9198C134.402 91.1639 134.906 92.408 135.379 93.6521C135.914 95.0794 136.402 96.5295 136.959 97.9492C137.234 98.6514 137.616 99.3077 137.952 99.987C139.157 102.468 140.302 104.971 141.569 107.413C143.241 110.627 144.973 113.817 146.759 116.969C148.874 120.709 151.041 124.419 153.255 128.097C155.995 132.646 158.819 137.149 161.574 141.691C163.887 145.492 166.146 149.323 168.436 153.14C170.512 156.605 172.557 160.085 174.687 163.52C175.671 165.107 176.793 166.611 177.9 168.122C178.007 168.267 178.533 168.298 178.717 168.168C179.8 167.412 180.793 166.534 181.892 165.809C184.021 164.397 186.189 163.046 188.349 161.68C189.158 161.169 189.287 160.726 188.845 159.818C187.814 157.696 186.776 155.574 185.777 153.437C184.571 150.865 183.388 148.278 182.197 145.698C181.411 143.996 180.579 142.324 179.861 140.592C178.327 136.882 176.839 133.15 175.381 129.41C174.931 128.258 174.687 127.036 174.297 125.853C173.549 123.579 172.786 121.305 172.008 119.038C171.588 117.809 171.137 116.588 170.718 115.351C170.649 115.153 170.557 114.916 170.611 114.733C170.68 114.504 170.84 114.206 171.031 114.13C171.183 114.069 171.55 114.214 171.656 114.382C172.076 114.992 172.519 115.611 172.809 116.29C174.931 121.274 176.48 126.472 178.213 131.601C179.083 134.18 180.342 136.623 181.472 139.111C182.83 142.111 184.22 145.095 185.647 148.064C186.746 150.354 187.982 152.575 189.028 154.887C189.959 156.948 190.791 159.062 191.509 161.207C191.814 162.123 191.287 162.993 190.47 163.565C189.959 163.924 189.417 164.252 188.875 164.603C190.471 165.909 192.127 166.252 194.035 165.626C195.241 165.229 196.5 164.97 197.76 164.802C198.691 164.672 199.652 164.779 200.645 164.779C199.958 161.39 198.607 158.284 196.439 155.452C195.531 156.086 194.691 156.75 193.775 157.284C193.34 157.536 192.753 157.658 192.256 157.62C191.982 157.597 191.585 157.139 191.539 156.834C191.493 156.536 191.745 156.07 192.005 155.872C192.852 155.246 193.768 154.712 194.653 154.139C195.439 153.628 195.737 152.933 195.34 152.063C194.348 149.903 193.378 147.728 192.302 145.606C190.852 142.759 189.249 139.989 187.83 137.127C185.624 132.677 183.51 128.174 181.365 123.693C181.144 123.228 181.029 122.717 180.77 122.274C180.182 121.259 179.51 120.297 178.938 119.282C178.136 117.832 177.266 116.404 176.648 114.87C175.328 111.596 174.152 108.261 172.901 104.956C172.275 103.315 171.557 101.704 170.985 100.048C170.389 98.3308 169.954 96.5677 169.405 94.8351C168.596 92.324 167.84 89.7977 166.894 87.34C165.886 84.7297 164.925 82.0508 163.467 79.6923C162.62 78.3261 162.307 76.853 161.62 75.4868C160.872 74.0061 160.238 72.4644 159.46 70.9989C158.941 70.0144 158.277 69.1061 157.636 68.1978C157.269 67.6712 157.04 67.0911 157.567 66.6484C158.116 66.1981 158.567 66.6255 158.926 67.1064C159.765 68.2284 160.62 69.3427 161.406 70.3807C160.879 67.2209 159.834 64.061 158.323 61.1378C156.804 58.2069 155.201 55.2379 152.522 53.0856C150.644 51.5743 148.774 50.0555 146.927 48.4984C145.706 47.4757 144.531 46.3843 143.21 45.2165C142.737 45.7202 142.157 46.3461 141.592 46.9567C142.371 48.2771 143.142 49.567 143.89 50.8721C144.607 52.1391 145.416 53.368 145.958 54.7036C146.798 56.7873 148.309 58.268 149.904 59.7182C150.705 60.4585 151.522 61.1836 152.27 61.9774C152.484 62.2064 152.468 62.649 152.56 62.9925C152.148 62.9467 151.652 63.0307 151.347 62.8246C150.599 62.3208 149.957 61.6415 149.232 61.0996C147.248 59.6266 145.294 58.0848 143.21 56.7644C141.699 55.8027 140.035 55.0089 138.356 54.3831C136.578 53.7267 134.792 53.7725 133.021 54.8105C131.342 55.7951 129.617 56.6575 128.251 58.0848C128.083 58.2527 127.61 58.1306 127.281 58.1382C127.32 57.7566 127.213 57.1918 127.426 57.0163C128.724 55.9325 130.09 54.925 131.449 53.9099C132.082 53.4367 132.777 53.0474 133.403 52.5589C134.097 52.0094 133.861 51.3301 133.555 50.6661C132.853 49.1548 132.158 47.6512 131.456 46.14C130.922 44.9875 130.357 43.8503 129.876 42.6749C129.731 42.3162 129.747 41.8506 129.831 41.4613C130.082 40.2478 130.403 39.0418 130.701 37.8359C130.769 37.5688 130.785 37.2558 130.937 37.0574C131.105 36.8513 131.418 36.63 131.647 36.6452C131.868 36.6605 132.181 36.9276 132.258 37.1566C132.41 37.5688 132.418 38.0343 132.487 38.4847C135.463 37.5459 137.387 34.3097 135.585 31.6307C134.7 30.3103 132.975 30.2416 131.975 31.501C131.807 31.7147 131.624 31.9131 131.426 32.1344C130.8 31.8978 130.479 31.6078 130.815 30.898C131.059 30.3713 130.922 30.0126 130.273 29.715C128.48 28.9059 126.755 27.9519 124.984 27.097C124.686 26.952 124.267 27.0741 123.923 26.9902C123.366 26.8528 122.725 26.7688 122.29 26.4406C120.633 25.2042 118.748 24.6088 116.764 24.2425C116.634 24.2196 116.497 24.2883 116.359 24.3188C116.321 24.418 116.275 24.5096 116.237 24.6088C117.245 25.166 118.237 25.7537 119.267 26.2651C119.687 26.4712 120.229 26.4406 120.641 26.6543C120.969 26.8223 121.198 27.1962 121.465 27.4786C121.107 27.6847 120.74 28.0816 120.382 28.074C118.183 28.0282 115.337 26.6009 113.871 24.8912C113.543 24.9752 113.192 25.1355 112.848 25.1202C112.604 25.1126 112.299 24.9141 112.154 24.7157C112.032 24.5554 111.986 24.128 112.1 24.0288C112.742 23.4563 112.154 23.0289 111.902 22.6931C110.345 20.6247 109.292 18.2968 108.452 15.8849C108.063 14.763 108.025 13.5036 107.925 12.3053C107.903 12.0076 108.261 11.6795 108.452 11.3589C108.734 11.6337 109.231 11.8932 109.253 12.1908C109.475 14.7324 110.665 16.8924 111.871 19.0371C112.551 20.2507 113.406 21.3727 114.253 22.4794C114.428 22.7084 114.955 22.8076 115.291 22.7694C117.107 22.5328 118.764 22.9755 120.351 23.8074C120.824 24.0517 121.297 24.2806 121.9 24.5783C121.145 23.5785 120.45 22.7465 119.847 21.8612C118.626 20.0599 117.55 18.1518 116.222 16.4345C115.344 15.3049 114.115 14.45 113.077 13.4426C112.65 13.0228 111.688 12.7098 112.314 11.8855C112.917 11.0918 113.581 11.771 114.123 12.1374C116.459 13.7326 118.138 15.9536 119.55 18.3273C121.649 21.8688 124.404 24.7081 127.869 26.8757C128.709 27.4023 129.777 27.5702 130.586 28.1274C131.8 28.9593 133.143 29.0128 134.486 29.0967C135.326 29.1502 135.982 29.4784 136.417 30.1424C138.791 33.7449 137.99 37.897 134.158 40.0722C133.822 40.263 133.41 40.3164 133.021 40.3851C132.235 40.5149 131.838 40.9576 131.8 41.8582C132.059 41.9345 132.357 42.1101 132.655 42.1024C134.364 42.049 136.097 41.7819 137.509 40.8736C138.181 40.4386 138.761 39.141 138.638 38.3549C138.455 37.1719 138.875 36.1797 139.02 35.1187C139.333 32.9359 140.165 30.7911 140.195 28.6235C140.234 25.6316 140.195 22.6015 139.386 19.6401C138.486 16.3505 137.097 13.3281 135.189 10.5041C133.509 8.00824 131.235 6.36726 128.571 5.01631C124.412 2.90975 120.122 3.07767 115.741 3.673C114.963 3.77985 114.222 4.13095 113.451 4.2378C113.054 4.29123 112.368 4.19964 112.238 3.9554C111.955 3.40586 112.49 3.03187 112.97 2.92502C114.741 2.52813 116.52 2.05492 118.321 1.87174C120.183 1.68856 122.114 1.55881 123.938 1.87174C126.007 2.22283 128.037 2.95555 129.991 3.75696C133.158 5.05448 135.166 7.63425 137.051 10.3819C139.76 14.3432 141.073 18.7624 141.699 23.4334C142.271 27.6847 141.585 31.8215 140.486 35.9278C140.211 36.9429 140.356 38.0725 140.325 39.1487C140.325 39.2937 140.371 39.4692 140.47 39.5761C142.165 41.4995 143.767 43.5297 145.615 45.2928C147.179 46.7888 149.019 48.01 150.759 49.3075C153.926 51.6659 156.666 54.3754 158.59 57.9016C160.215 60.8859 161.635 63.9237 162.322 67.259C162.749 69.358 163.314 71.4798 163.383 73.6016C163.452 75.8685 164.673 77.5552 165.543 79.4404C166.016 80.4556 166.466 81.4859 166.901 82.5163C167.352 83.562 167.81 84.6153 168.214 85.6762C169.138 88.1109 170.054 90.5533 170.931 93.0033C171.58 94.8275 172.183 96.6669 172.786 98.5063C173.633 101.094 174.404 103.704 175.305 106.269C176.236 108.917 177.182 111.565 178.304 114.13C178.915 115.534 179.884 116.786 180.701 118.107C180.938 118.496 181.243 118.847 181.434 119.251C182.991 122.686 184.426 126.174 186.082 129.563C188.013 133.501 190.104 137.363 192.173 141.24C193.356 143.454 194.615 145.629 195.828 147.827C196.599 149.224 197.34 150.644 198.103 152.048C198.37 152.544 198.538 153.002 198.164 153.567C198.027 153.773 198.08 154.216 198.21 154.475C199.149 156.33 200.179 158.139 201.087 160.009C202.133 162.176 202.69 164.436 201.95 166.847C201.881 167.076 201.866 167.328 201.843 167.565C201.843 167.611 201.889 167.664 202.003 167.863C202.179 167.305 202.263 166.832 202.469 166.42C202.957 165.458 203.446 164.497 204.041 163.596C204.423 163.024 205.01 162.596 205.468 162.069C206.071 161.367 206.835 161.238 207.697 161.337C208.422 161.421 208.758 162.36 208.598 163.52C208.544 163.932 208.369 164.321 208.247 164.718C209.201 164.336 210.078 163.878 211.009 163.649C211.46 163.543 212.07 163.779 212.521 164.016C213.696 164.634 213.826 166.122 213.009 167.137C212.002 168.382 211.193 169.778 210.193 171.03C209.124 172.373 207.979 173.656 206.773 174.877C206.544 175.113 205.903 174.953 205.461 174.968C205.522 174.564 205.461 174.068 205.674 173.77C207.499 171.244 209.384 168.756 211.223 166.244C211.368 166.046 211.33 165.718 211.376 165.451C211.093 165.428 210.689 165.267 210.544 165.39C209.804 166.038 209.086 166.725 208.453 167.473C207.995 168.023 207.682 168.687 207.3 169.297C207.193 169.473 207.086 169.74 206.934 169.786C206.071 170.03 205.896 170.809 205.529 171.45C205.369 171.74 205.239 172.083 205.003 172.297C204.568 172.679 204.102 172.877 203.621 172.266C203.446 172.037 203.011 171.786 202.797 171.854C200.713 172.534 198.599 172.556 196.439 172.389C194.989 172.274 194.012 171.747 193.149 170.534C192.547 169.687 191.44 169.221 190.593 168.534C189.723 167.832 188.852 167.115 188.066 166.321C187.028 165.283 185.891 165.55 184.861 166.099C183.578 166.794 182.411 167.71 181.136 168.572C183.12 171.061 184.899 173.396 187.341 175.167C189.104 176.449 191.02 177.243 193.127 177.663C193.356 177.708 193.623 177.731 193.829 177.663C195.699 176.96 197.653 176.793 199.614 176.579C200.95 176.434 202.247 175.938 203.553 175.556C204.537 175.266 205.132 175.548 205.087 176.396C205.071 176.663 204.858 177.052 204.636 177.144C202.728 177.945 200.759 178.464 198.668 178.54C197.439 178.586 196.172 178.708 194.997 179.052C193.378 179.525 191.905 179.128 190.394 178.708C190.005 178.601 189.616 178.464 189.104 178.304C189.6 180.609 190.104 182.769 190.532 184.944C191.509 189.928 192.447 194.92 193.409 199.904C193.814 202.018 194.279 204.117 194.645 206.231C195.103 208.91 195.477 211.612 195.897 214.298C196.325 217.054 196.76 219.801 197.202 222.557C197.63 225.205 198.034 227.846 198.507 230.487C198.775 231.99 199.164 233.464 199.484 234.959C200.103 237.829 200.706 240.699 201.324 243.569C201.438 244.118 201.614 244.653 201.721 245.202C202.133 247.24 202.515 249.293 202.934 251.331C203.27 252.957 203.598 254.59 204.018 256.201C204.774 259.093 205.651 261.956 206.354 264.863C206.735 266.466 206.773 268.145 207.109 269.764C207.384 271.092 207.75 272.427 208.277 273.671C209.3 276.083 210.468 278.434 211.559 280.823C211.704 281.151 211.742 281.525 211.834 281.876C212.505 284.319 213.238 286.738 213.826 289.196C214.207 290.814 214.322 292.493 214.665 294.119C215.017 295.76 215.52 297.363 215.925 298.988C216.627 301.835 217.344 304.674 217.955 307.544C218.054 307.995 217.604 308.559 217.436 309.078C217.36 309.307 217.268 309.597 217.352 309.788C217.703 310.658 218.115 311.505 218.512 312.36C219.046 313.505 218.688 314.276 217.596 314.879C216.894 315.268 216.39 315.986 215.734 316.474C214.933 317.07 214.062 317.581 213.124 318.191C213.673 319.245 214.261 320.298 214.795 321.382C215.375 322.557 215.841 323.786 216.482 324.923C217.1 326.022 217.818 327.099 218.619 328.068C219.237 328.823 219.26 329.442 218.734 330.19C216.948 332.724 215.169 335.258 213.383 337.792C212.643 338.837 212.124 338.883 211.177 338.013C211.055 337.899 210.849 337.738 210.742 337.776C209.201 338.257 208.521 336.975 207.605 336.235C207.239 335.945 206.995 335.502 206.644 335.052C205.728 336.021 204.865 336.952 203.98 337.868C203.514 338.349 203.049 338.837 202.522 339.242C201.24 340.234 200.828 341.631 200.507 343.119C200.339 343.905 200.141 344.752 199.698 345.386C198.752 346.752 197.706 348.08 196.569 349.294C195.409 350.53 193.699 350.607 192.165 350.767C189.829 351.011 187.471 350.988 185.12 351.042C184.097 351.064 183.067 350.927 182.052 351.011C180.396 351.156 179.732 349.66 179.64 348.393C179.594 347.676 179.442 346.806 180.503 346.5C180.129 345.6 180.533 345.035 181.273 344.6C182.655 343.791 184.166 343.134 185.372 342.112C186.799 340.89 188.356 339.639 188.7 337.578C188.906 336.357 188.997 335.12 189.219 333.907C189.654 331.48 190.142 329.068 190.6 326.648C190.844 325.374 191.073 324.099 191.295 322.908C189.806 323.008 188.326 323.107 186.784 323.214C186.784 325.023 186.769 326.885 186.784 328.747C186.799 330.35 186.868 331.953 186.876 333.556C186.876 334.494 186.822 335.433 186.746 336.364C186.647 337.517 186.013 338.395 185.006 338.868C184.204 339.242 183.304 339.463 182.426 339.639C181.25 339.875 180.06 340.005 178.877 340.165C177.869 340.303 176.862 340.417 175.854 340.547C174.954 340.661 174.465 341.173 174.427 342.081C174.267 345.424 174.29 348.752 174.61 352.095C174.778 353.805 174.29 355.446 173.633 357.048C172.901 358.85 171.199 359.269 169.68 359.636C167.184 360.246 164.635 360.804 162.009 360.33C161.75 360.285 161.467 360.384 161.2 360.43C160.017 360.636 159.383 360.086 159.452 358.873C159.49 358.216 159.559 357.56 159.628 356.774C158.643 356.72 157.743 356.606 156.85 356.644C154.148 356.743 151.453 356.888 148.751 357.025C146.21 357.155 143.775 357.743 141.394 358.666C139.814 359.277 138.02 359.392 136.517 360.117C134.67 361.01 133.006 360.33 131.296 360.033C129.479 359.712 127.678 359.246 125.9 358.72C123.534 358.01 121.687 356.537 120.443 354.415C120.031 353.713 119.863 352.805 119.817 351.98C119.771 351.141 120.488 350.683 121.236 350.53C124.488 349.889 127.755 349.332 131.006 348.676C133.464 348.179 135.891 347.706 137.883 345.859C139.18 344.653 140.867 343.875 142.378 342.905C142.829 342.615 143.264 342.302 143.813 341.928L143.745 341.951ZM183.082 284.013C184.853 283.662 186.082 282.792 187.219 281.724C188.341 280.67 189.539 279.716 190.715 278.724C192.837 276.923 194.974 275.137 197.08 273.32C198.34 272.229 199.545 271.084 200.782 269.977C201.087 269.702 201.446 269.489 201.767 269.237C202.194 268.901 202.82 268.626 202.988 268.191C203.301 267.367 203.522 266.428 203.461 265.558C203.362 264.085 203.049 262.62 202.751 261.169C202.049 257.727 201.332 254.277 200.553 250.85C199.843 247.721 199.034 244.615 198.271 241.501C197.866 239.852 197.378 238.211 197.057 236.539C196.294 232.517 195.615 228.472 194.905 224.434C194.836 224.045 194.79 223.656 194.745 223.259C194.493 221.099 194.264 218.939 193.981 216.779C193.76 215.039 193.47 213.306 193.218 211.574C192.997 210.055 192.798 208.528 192.547 207.009C192.379 205.994 192.089 204.994 191.928 203.979C191.486 201.155 191.104 198.324 190.654 195.507C190.219 192.798 189.745 190.088 189.226 187.394C188.868 185.509 188.356 183.654 188.028 181.761C187.807 180.487 186.876 179.204 187.967 177.846C184.418 176.09 182.159 173.098 179.968 170C179.426 170.404 178.93 170.778 178.434 171.152C177.938 171.526 177.511 171.534 177.106 170.999C176.434 170.099 175.686 169.259 175.068 168.328C174.236 167.076 173.504 165.764 172.725 164.481C172.603 165.382 172.71 166.222 172.778 167.053C173.099 171.068 173.694 175.045 174.626 178.96C175.32 181.876 176.236 184.746 176.755 187.692C177.358 191.134 177.656 194.637 178.037 198.118C178.289 200.453 178.503 202.789 178.655 205.132C178.793 207.269 178.762 209.421 178.892 211.558C179.136 215.634 179.464 219.702 179.709 223.778C179.854 226.228 179.945 228.678 180.006 231.136C180.052 232.891 179.999 234.647 180.014 236.402C180.052 240.05 180.06 243.699 180.182 247.347C180.304 250.85 180.51 254.354 180.77 257.849C180.968 260.467 181.35 263.077 181.579 265.695C181.876 269.069 182.113 272.458 182.365 275.831C182.487 277.449 182.586 279.067 182.724 280.678C182.815 281.777 182.953 282.868 183.075 284.021L183.082 284.013ZM172.504 340.86C171.84 341.081 171.298 341.257 170.771 341.44C169.26 341.982 167.787 342.661 166.237 343.043C163.436 343.722 160.597 343.501 157.758 343.15C156.231 342.959 154.674 343.05 153.148 342.882C151.331 342.684 149.538 342.318 147.721 342.066C147.095 341.982 146.355 341.829 145.828 342.066C145.111 342.394 144.569 343.096 143.905 343.577C141.936 345.004 139.974 346.439 137.952 347.798C136.906 348.5 135.814 349.286 134.631 349.599C132.441 350.172 130.159 350.408 127.922 350.82C126.068 351.164 124.228 351.568 122.381 351.927C121.42 352.11 121.29 352.469 121.687 353.408C123.022 356.606 126.236 356.964 128.877 358.102C130.151 358.651 131.67 358.682 133.09 358.857C133.731 358.941 134.441 358.934 135.059 358.75C137.791 357.934 140.47 356.957 143.218 356.186C147.378 355.018 151.675 354.949 155.949 354.698C158.17 354.568 160.376 355.094 162.643 354.415C165.024 353.705 167.634 353.736 169.703 352.064C169.817 351.973 169.985 351.95 170.13 351.912C170.901 351.729 171.71 352.469 171.595 353.255C171.443 354.301 170.535 354.461 169.779 354.652C167.008 355.377 164.215 356.033 161.421 356.682C160.75 356.835 160.826 357.27 160.872 357.72C160.91 358.163 160.979 358.506 161.605 358.521C164.23 358.582 166.818 358.3 169.382 357.712C170.443 357.468 171.29 356.819 171.733 355.926C172.153 355.087 172.321 354.056 172.351 353.11C172.466 349.653 172.473 346.195 172.527 342.73C172.534 342.165 172.527 341.593 172.527 340.852L172.504 340.86ZM180.808 347.149C180.808 347.149 180.854 347.416 180.915 347.645C181.281 349.111 181.281 349.088 182.754 349.126C184.387 349.164 186.021 349.172 187.646 349.332C189.15 349.477 190.562 349.546 192.111 349.202C194.165 348.752 195.516 347.706 196.668 346.103C197.531 344.897 198.439 343.821 198.576 342.18C198.721 340.471 199.607 338.975 200.95 337.776C201.828 336.998 202.568 336.067 203.423 335.25C205.674 333.082 207.926 330.922 210.216 328.801C211.452 327.656 212.597 326.45 213.177 324.855C213.345 324.389 213.345 323.756 213.169 323.305C212.643 321.954 211.948 320.664 211.399 319.313C211.124 318.642 210.788 318.672 210.216 318.871C209.017 319.291 207.811 319.81 206.567 319.97C203.873 320.321 201.148 320.413 198.454 320.741C196.813 320.947 195.21 321.42 193.585 321.741C193.05 321.847 192.943 322.191 192.882 322.641C192.669 324.114 192.432 325.58 192.203 327.053C191.73 330.052 191.264 333.052 190.761 336.044C190.463 337.815 190.432 339.646 189.028 341.104C187.593 342.585 186.418 344.317 184.365 345.081C183.754 345.31 183.212 345.729 182.64 346.073C182.067 346.409 181.495 346.76 180.815 347.164L180.808 347.149ZM164.001 149.88C162.971 148.087 161.94 146.286 160.902 144.492C159.177 141.508 157.46 138.523 155.72 135.554C155.125 134.539 154.43 133.578 153.819 132.57C153.438 131.929 152.98 131.853 152.385 132.227C150.965 133.112 149.599 134.089 148.11 134.837C146.767 135.509 146.408 136.646 146.263 137.913C146.08 139.531 146.05 141.172 145.897 142.798C145.637 145.499 145.324 148.194 145.042 150.896C144.859 152.628 144.683 154.353 144.493 156.086C144.37 157.192 144.218 158.291 144.05 159.65C150.537 155.582 157.162 152.506 164.001 149.88ZM144.264 55.3371C144.325 55.2837 144.393 55.2226 144.454 55.1692C144.141 54.551 143.867 53.9022 143.5 53.3222C142.485 51.7346 141.409 50.1852 140.409 48.59C140.028 47.9871 139.615 47.6589 138.867 47.7505C138.577 47.781 138.226 47.6207 137.952 47.4604C136.814 46.8117 136.791 45.4455 136.104 44.499C136.066 44.4456 136.44 43.9266 136.562 43.9495C138.318 44.2701 139.234 43.2244 140.081 41.9498C140.539 41.2629 140.44 40.8049 139.745 40.4004C139.692 40.4615 139.623 40.5225 139.57 40.5912C137.226 44.0793 136.746 43.7129 132.868 43.545C132.7 43.545 132.54 43.5679 132.258 43.5908C132.662 44.4074 133.029 45.1325 133.387 45.8576C134.196 47.5139 134.967 49.193 135.822 50.8263C136.12 51.3835 136.517 52.0628 137.043 52.2994C138.829 53.0856 140.692 53.6809 142.508 54.3907C143.119 54.6349 143.676 55.0166 144.256 55.3295L144.264 55.3371ZM144.92 121.137C145.569 125.281 146.202 129.296 146.836 133.295C148.019 132.478 149.125 131.738 150.209 130.96C151.927 129.731 151.881 129.754 150.85 128.021C149.675 126.052 148.66 123.976 147.439 122.037C146.233 120.129 146.401 120.48 144.928 121.137H144.92ZM211.208 336.922C211.17 336.96 211.109 336.983 211.208 336.922C213.124 334.426 215.039 331.93 216.94 329.419C217.024 329.312 217.093 329.106 217.047 329.007C216.566 328.076 216.055 327.16 215.619 326.351C212.971 328.938 210.361 331.487 207.621 334.166C208.819 335.082 209.987 335.983 211.216 336.922H211.208ZM192.768 167.901C193.821 169.099 195.592 169.526 197.012 168.969C198.332 168.458 199.202 167.405 199.187 166.435C197.088 166.916 194.974 167.397 192.776 167.901H192.768ZM207.063 163.398C204.568 165.008 203.713 167.473 203.026 170.045C203.346 170.076 203.652 170.168 203.942 170.122C204.186 170.084 204.522 169.931 204.606 169.74C205.316 168.084 205.995 166.405 206.659 164.726C206.827 164.298 206.934 163.84 207.063 163.398ZM137.776 45.6668V45.995C138.112 46.0484 138.539 46.2545 138.776 46.1171C139.814 45.5371 140.837 44.8959 141.798 44.1861C142.371 43.7663 142.134 43.3236 141.524 42.9267C140.714 44.4838 139.241 45.0715 137.776 45.6592V45.6668ZM200.126 168.694C199.385 169.236 198.645 169.786 197.813 170.389C200.11 170.77 200.164 170.725 200.126 168.694Z" fill="black"/>
<path d="M156.765 81.5761C157.086 81.7211 157.498 81.8662 157.864 82.0951C158.635 82.5683 159.36 83.1102 160.124 83.5911C161.459 84.4154 161.337 85.7969 161.498 87.0791C161.62 88.0332 161.627 89.0254 161.933 89.9184C162.223 90.7809 162.169 91.5594 161.994 92.399C161.917 92.7729 161.948 93.2538 162.123 93.582C164.352 97.5814 166.428 101.657 168.13 105.916C168.817 107.641 169.519 109.358 170.214 111.076C170.267 111.213 170.389 111.396 170.351 111.495C170.214 111.846 170.076 112.251 169.802 112.465C169.68 112.564 169.077 112.327 168.962 112.106C168.13 110.473 167.352 108.816 166.588 107.153C165.329 104.39 164.108 101.611 162.856 98.8484C162.116 97.2227 161.269 95.6351 160.605 93.9789C160.261 93.1164 160.292 92.1089 160.032 91.2007C159.574 89.5749 159.383 87.9721 159.818 86.3006C159.902 85.9953 159.528 85.4534 159.223 85.1786C158.483 84.5222 157.658 83.9575 156.742 83.2553C156.811 83.6369 156.758 84.0338 156.918 84.1559C157.979 84.9344 157.384 85.8808 156.933 86.4685C155.399 88.4911 154.567 90.8267 153.56 93.1011C152.858 94.6887 152.01 96.2076 151.239 97.7646C151.11 98.0317 151.079 98.3523 150.965 98.627C150.675 99.2911 149.973 99.5811 149.354 99.23C148.828 98.9247 148.835 98.4133 149.087 97.9172C150.079 95.9175 151.049 93.9025 152.079 91.9181C152.995 90.155 153.987 88.4224 154.926 86.6746C155.01 86.5143 155.002 86.2854 154.979 86.0945C154.735 84.0643 154.483 82.0264 154.216 79.9962C153.896 77.5385 153.56 75.0733 153.216 72.6156C153.064 71.5089 152.858 70.4098 152.72 69.3031C152.506 67.6392 151.224 66.647 150.278 65.4716C147.568 62.1362 143.867 60.2129 140.043 58.4803C139.989 58.4574 139.905 58.4498 139.875 58.4116C139.524 57.9002 139.173 57.3888 138.829 56.8698C139.348 56.8393 139.905 56.679 140.386 56.8088C141.073 56.992 141.722 57.3507 142.355 57.6789C143.561 58.3124 144.843 58.8466 145.927 59.6481C147.706 60.9608 149.4 62.411 151.041 63.8993C151.98 64.7542 152.789 65.7617 153.575 66.7615C153.888 67.1584 154.094 67.7079 154.193 68.2193C155.071 72.6614 155.911 77.1111 156.765 81.5685V81.5761Z" fill="black"/>
<path d="M96.1871 31.9825C96.1642 32.2344 96.21 32.4633 96.1108 32.5778C95.8818 32.8679 95.6223 33.2495 95.3094 33.3105C95.1109 33.3563 94.653 32.9518 94.569 32.6694C94.1569 31.1887 93.6913 29.708 93.4852 28.1892C92.8212 23.4265 93.4776 18.7707 95.1949 14.3057C96.8816 9.9323 99.8965 6.68087 104.155 4.67353C105.102 4.22322 106.102 3.84159 107.117 3.58972C107.697 3.44471 108.376 3.52866 108.964 3.68131C109.223 3.75001 109.452 4.25375 109.506 4.59721C109.529 4.73459 109.04 5.13911 108.819 5.10858C106.499 4.79565 104.766 6.08554 102.957 7.17698C100.11 8.89429 98.431 11.5351 97.0954 14.4965C95.6299 17.7556 94.9201 21.152 94.7293 24.6935C94.6224 26.6932 95.0346 28.5937 95.7978 30.4484C95.7978 30.2575 95.8055 30.0591 95.7978 29.8683C95.5689 26.4184 96.0115 23.0601 97.5686 19.9537C98.8508 17.3892 100.576 15.1224 102.942 13.4356C103.339 13.1532 104.003 13.1456 104.537 13.1914C105.033 13.2295 105.697 13.3745 105.926 13.718C106.132 14.0233 105.796 14.6568 105.766 15.1453C105.628 17.2976 105.392 19.45 105.422 21.5947C105.453 23.77 106.399 25.7162 107.529 27.548C107.834 28.0365 108.223 28.5021 108.414 29.0287C108.529 29.3493 108.353 29.7767 108.307 30.1583C107.926 30.1125 107.392 30.2041 107.201 29.9904C106.392 29.0593 105.69 28.0441 104.964 27.0824C104.484 27.0824 103.949 27.113 103.43 27.0824C101.904 26.9832 100.66 27.5251 99.5988 28.5937C99.3775 28.8226 98.9806 28.8761 98.6676 29.0135C98.6982 28.6471 98.599 28.2044 98.7745 27.9373C99.7362 26.449 101.934 25.6094 103.659 25.9986C103.911 26.0597 104.171 26.1131 104.659 26.2276C102.705 22.2511 103.392 18.3433 103.987 14.2904C103.56 14.6797 103.102 15.0384 102.713 15.4582C100.171 18.1906 98.3623 21.3047 97.9426 25.0827C97.7289 27.0366 97.4541 28.9906 97.8815 30.9674C98.1105 32.0512 97.332 32.4862 96.1566 31.9672L96.1871 31.9825Z" fill="black"/>
<path d="M131.478 143.149C130.333 142.241 130.615 141.318 130.921 140.486C131.592 138.684 132.233 136.853 133.119 135.166C134.951 131.678 136.943 128.266 138.874 124.831C139.049 124.518 139.156 124.099 139.416 123.938C139.713 123.755 140.156 123.816 140.538 123.771C140.56 124.122 140.721 124.549 140.583 124.824C139.469 126.991 138.255 129.113 137.156 131.296C136.294 133.013 135.515 134.777 134.745 136.532C133.997 138.242 133.333 139.982 132.569 141.676C132.325 142.211 131.867 142.638 131.478 143.165V143.149Z" fill="black"/>
<path d="M127.374 53.4748C127.816 52.162 128.145 50.8187 128.717 49.5975C129.953 46.9567 129.137 46.2927 127.419 44.8959C126.107 43.8274 125.74 42.5222 125.84 41.0492C126.007 38.5075 127.168 36.2865 128.435 34.1341C128.786 33.5388 129.213 32.9816 129.625 32.4168C129.923 32.0047 130.305 31.7376 130.77 32.1344C131.205 32.5084 130.892 32.8214 130.679 33.2335C129.931 34.6455 129.19 36.0728 128.602 37.5611C128.099 38.8357 127.771 40.1867 127.435 41.5224C127.229 42.3543 127.641 43.0031 128.312 43.4839C130.946 45.3462 131.419 47.636 130.06 50.3226C129.579 51.2614 129.274 52.2918 128.87 53.2764C128.77 53.513 128.61 53.7496 128.419 53.9175C128.259 54.0625 127.931 54.238 127.816 54.1617C127.626 54.0396 127.542 53.7419 127.389 53.4748H127.374Z" fill="black"/>
<path d="M92.6608 57.6335C93.5538 55.8246 94.4239 54.1607 95.1948 52.4587C95.8053 51.1153 95.3703 50.3063 93.9278 49.8407C92.5081 49.3828 91.722 48.0395 91.9052 46.284C92.3097 42.4983 93.6835 39.079 95.958 36.0336C96.3015 35.5757 96.6602 34.8277 97.4463 35.2398C97.515 35.278 97.141 36.2168 96.9197 36.7129C96.248 38.2089 95.5687 39.6896 94.8589 41.1703C94.0728 42.8112 93.4317 44.4827 93.3324 46.3374C93.279 47.2991 93.5003 47.9631 94.3857 48.4211C94.9963 48.734 95.5993 49.1233 96.0877 49.5965C96.8434 50.3368 97.0571 51.2985 96.6449 52.2831C96.1641 53.428 95.6222 54.55 95.0574 55.6567C94.7139 56.3283 94.3246 56.9847 93.882 57.5877C93.4927 58.1219 93.0119 58.2517 92.6608 57.6335Z" fill="black"/>
<path d="M115.711 48.3682C113.994 48.5895 112.177 47.9789 110.33 49.0475C111.086 49.5817 111.658 50.0702 112.314 50.4137C112.704 50.6121 113.154 50.7648 112.849 51.2074C112.658 51.4898 112.093 51.6883 111.742 51.6349C111.261 51.5662 110.742 51.3067 110.376 50.9708C109.574 50.2457 108.788 49.4825 108.117 48.6353C107.613 48.0094 107.987 47.3607 108.788 47.2996C111.658 47.0783 114.528 46.8493 117.398 46.6661C117.749 46.6432 118.283 46.7501 118.428 46.9791C118.573 47.2233 118.481 47.8034 118.268 48.0476C117.352 49.1238 116.367 50.1465 115.367 51.1387C115.161 51.3372 114.749 51.4211 114.451 51.3906C114.207 51.3677 113.864 51.1387 113.787 50.9174C113.726 50.7495 113.963 50.4137 114.154 50.2381C114.726 49.7038 115.344 49.2154 115.94 48.704C115.863 48.5895 115.795 48.4827 115.718 48.3682H115.711Z" fill="black"/>
<path d="M130.699 129.555C130.364 129.357 129.936 129.25 129.822 128.99C129.707 128.738 129.791 128.25 129.974 128.021C131.852 125.693 134.096 123.732 136.493 121.961C136.805 121.732 137.401 121.74 137.805 121.846C138.011 121.9 138.195 122.426 138.195 122.739C138.195 122.984 137.935 123.266 137.729 123.457C135.661 125.327 133.577 127.189 131.486 129.036C131.28 129.219 131.012 129.349 130.707 129.548L130.699 129.555Z" fill="black"/>
<path d="M138.356 57.3062C137.997 57.5581 137.608 58.0084 137.127 58.1534C134.929 58.8098 132.708 59.3746 130.502 59.9776C130.326 60.0234 130.143 60.1226 129.975 60.0997C129.708 60.0615 129.273 60.0081 129.227 59.8554C129.143 59.5959 129.212 59.1762 129.38 58.9777C129.601 58.7258 129.983 58.5579 130.326 58.4587C132.608 57.7718 134.891 57.0849 137.188 56.4437C137.661 56.314 138.172 56.375 138.356 57.2986V57.3062Z" fill="black"/>
<path d="M104.591 42.049C104.675 41.965 104.843 41.6369 105.087 41.5834C105.285 41.5376 105.621 41.7513 105.797 41.9345C106.392 42.568 106.972 43.2168 107.491 43.9037C107.667 44.1403 107.819 44.6822 107.705 44.7891C107.445 45.0409 106.957 45.3004 106.659 45.2165C105.507 44.9035 104.591 43.5144 104.591 42.049Z" fill="black"/>
<path d="M119.152 34.0585C118.465 34.0356 117.901 33.3258 117.924 32.5091C117.946 31.8222 118.267 31.4177 118.977 31.4024C119.648 31.3948 120.312 32.1656 120.297 32.8907C120.282 33.5471 119.763 34.0738 119.152 34.0509V34.0585Z" fill="black"/>
<path d="M102.521 34.0425C102.544 33.5158 102.705 32.9892 103.468 32.951C104.117 32.9205 104.857 33.7219 104.819 34.4012C104.788 34.9736 104.101 35.6835 103.59 35.6758C102.956 35.6682 102.506 35.0271 102.514 34.0348L102.521 34.0425Z" fill="black"/>
<path d="M172.505 340.867C172.505 341.608 172.505 342.172 172.505 342.745C172.459 346.202 172.444 349.667 172.329 353.125C172.299 354.079 172.123 355.102 171.711 355.941C171.268 356.834 170.421 357.483 169.36 357.727C166.803 358.315 164.216 358.597 161.583 358.536C160.957 358.521 160.888 358.178 160.85 357.735C160.812 357.277 160.735 356.85 161.399 356.697C164.193 356.056 166.986 355.392 169.757 354.667C170.505 354.468 171.421 354.316 171.573 353.27C171.688 352.484 170.879 351.743 170.108 351.927C169.963 351.965 169.795 351.988 169.681 352.079C167.612 353.751 165.002 353.713 162.621 354.43C160.354 355.109 158.156 354.583 155.927 354.712C151.653 354.964 147.348 355.033 143.196 356.201C140.456 356.972 137.769 357.949 135.037 358.765C134.426 358.948 133.716 358.948 133.068 358.872C131.648 358.697 130.137 358.666 128.855 358.117C126.214 356.979 123.001 356.613 121.665 353.423C121.276 352.484 121.398 352.133 122.359 351.942C124.206 351.583 126.053 351.179 127.901 350.835C130.137 350.423 132.419 350.186 134.609 349.614C135.793 349.301 136.884 348.515 137.93 347.813C139.945 346.454 141.914 345.019 143.883 343.592C144.547 343.111 145.081 342.409 145.806 342.081C146.333 341.844 147.073 341.989 147.699 342.081C149.508 342.325 151.309 342.691 153.126 342.897C154.652 343.065 156.217 342.974 157.736 343.165C160.575 343.523 163.414 343.745 166.216 343.058C167.765 342.684 169.238 341.997 170.749 341.455C171.276 341.264 171.818 341.096 172.482 340.875L172.505 340.867ZM142.257 350.324C142.334 350.438 142.402 350.553 142.479 350.667C142.73 350.324 143.12 350.011 143.204 349.629C143.326 349.095 142.929 348.79 142.379 348.828C140.54 348.965 138.693 349.11 136.861 349.309C136.663 349.332 136.365 349.69 136.357 349.904C136.357 350.095 136.647 350.408 136.869 350.476C137.235 350.583 137.647 350.56 138.044 350.545C139.456 350.484 140.86 350.4 142.272 350.324H142.257Z" fill="white"/>
<path d="M180.801 347.157C181.48 346.753 182.052 346.409 182.625 346.066C183.197 345.73 183.739 345.302 184.35 345.073C186.403 344.318 187.578 342.585 189.013 341.097C190.418 339.639 190.448 337.807 190.746 336.037C191.249 333.045 191.715 330.045 192.188 327.046C192.425 325.58 192.654 324.107 192.868 322.634C192.936 322.184 193.035 321.84 193.57 321.733C195.195 321.413 196.798 320.94 198.439 320.733C201.133 320.398 203.858 320.314 206.553 319.963C207.797 319.802 209.003 319.283 210.201 318.864C210.773 318.665 211.109 318.635 211.384 319.306C211.933 320.65 212.628 321.939 213.155 323.298C213.33 323.756 213.33 324.389 213.162 324.847C212.582 326.45 211.437 327.656 210.201 328.793C207.911 330.915 205.652 333.075 203.408 335.243C202.561 336.059 201.813 336.991 200.935 337.769C199.599 338.96 198.706 340.463 198.561 342.173C198.424 343.814 197.523 344.89 196.653 346.096C195.501 347.699 194.15 348.737 192.097 349.195C190.547 349.538 189.135 349.47 187.632 349.325C186.014 349.164 184.373 349.157 182.739 349.119C181.266 349.088 181.266 349.111 180.9 347.638C180.846 347.409 180.801 347.172 180.793 347.142L180.801 347.157Z" fill="white"/>
<path d="M163.994 149.887C157.156 152.513 150.531 155.588 144.043 159.657C144.211 158.298 144.364 157.199 144.486 156.092C144.676 154.367 144.852 152.635 145.035 150.902C145.325 148.2 145.631 145.506 145.89 142.804C146.043 141.178 146.073 139.537 146.256 137.919C146.401 136.652 146.76 135.515 148.103 134.843C149.592 134.095 150.958 133.119 152.378 132.233C152.973 131.859 153.431 131.935 153.813 132.577C154.423 133.584 155.118 134.546 155.713 135.561C157.453 138.53 159.171 141.514 160.895 144.499C161.933 146.292 162.964 148.093 163.994 149.887Z" fill="white"/>
<path d="M144.912 121.144C146.385 120.488 146.217 120.144 147.423 122.045C148.652 123.984 149.659 126.052 150.835 128.029C151.865 129.761 151.911 129.746 150.194 130.967C149.11 131.738 148.011 132.478 146.82 133.303C146.194 129.311 145.561 125.289 144.904 121.144H144.912Z" fill="white"/>
<path d="M211.199 336.929C209.978 335.991 208.803 335.098 207.604 334.174C210.352 331.495 212.955 328.946 215.603 326.358C216.038 327.167 216.55 328.083 217.031 329.015C217.076 329.106 217.008 329.32 216.924 329.427C215.016 331.93 213.108 334.426 211.192 336.929C211.161 336.975 211.093 336.99 211.192 336.929H211.199Z" fill="white"/>
<path d="M192.761 167.908C194.959 167.404 197.073 166.923 199.172 166.442C199.187 167.419 198.317 168.465 196.997 168.976C195.577 169.526 193.814 169.106 192.753 167.908H192.761Z" fill="white"/>
<path d="M207.056 163.405C206.926 163.848 206.82 164.306 206.652 164.733C205.988 166.412 205.316 168.084 204.598 169.748C204.515 169.939 204.179 170.091 203.934 170.129C203.652 170.175 203.339 170.084 203.019 170.053C203.705 167.481 204.56 165.016 207.056 163.405Z" fill="white"/>
<path d="M137.775 45.667C139.241 45.0793 140.714 44.4916 141.523 42.9346C142.126 43.3315 142.37 43.7665 141.798 44.1939C140.836 44.9037 139.821 45.5372 138.775 46.1249C138.538 46.2623 138.103 46.0486 137.768 46.0028V45.6746L137.775 45.667Z" fill="white"/>
<path d="M200.124 168.694C200.162 170.732 200.109 170.778 197.812 170.389C198.643 169.778 199.376 169.236 200.124 168.694Z" fill="white"/>
<path d="M142.255 350.323C140.843 350.399 139.439 350.483 138.027 350.544C137.638 350.559 137.218 350.582 136.851 350.475C136.63 350.414 136.332 350.094 136.34 349.903C136.34 349.689 136.645 349.331 136.844 349.308C138.683 349.109 140.523 348.972 142.362 348.827C142.912 348.781 143.308 349.086 143.186 349.628C143.102 350.01 142.713 350.323 142.461 350.666C142.385 350.552 142.316 350.437 142.24 350.323H142.255Z" fill="black"/>
<path d="M268.93 58.4844L263.5 57.6178L265.859 42.6075L256.527 53.794L253.919 53.3778L248.517 40.1696L246.174 54.8527L240.743 53.986L244.734 28.9784L249.521 29.7424L256.401 46.7766L268.099 32.7071L272.85 33.4654L268.93 58.4844Z" fill="black"/>
<path d="M279.934 63.622C274.249 61.1831 271.733 55.5769 274.043 50.1908C276.354 44.8048 282.15 42.7642 287.835 45.2031C293.521 47.642 296.003 53.234 293.693 58.6201C291.382 64.0061 285.619 66.0609 279.934 63.622ZM281.759 59.3664C284.353 60.4789 287.113 59.4585 288.439 56.3666C289.766 53.2746 288.603 50.5712 286.01 49.4588C283.416 48.3463 280.623 49.3524 279.297 52.4443C277.97 55.5363 279.166 58.2539 281.759 59.3664Z" fill="black"/>
<path d="M311.176 72.2715C310.904 72.6096 310.462 73.0434 310.139 73.3871L298.668 64.1548C297.571 66.3832 298.248 68.8317 300.559 70.6918C302.165 71.9847 303.706 72.4357 305.543 72.2886L305.84 76.7077C303.138 77.18 300.344 76.3241 297.61 74.1238C292.368 69.9046 291.612 63.8626 295.242 59.3534C298.894 54.8161 304.992 54.337 309.613 58.0571C314.066 61.6412 315.1 67.3959 311.176 72.2715ZM306.965 61.4053C304.964 59.7948 302.551 59.8498 300.676 61.5448L308.144 67.556C309.377 65.3901 308.938 62.9932 306.965 61.4053Z" fill="black"/>
<path d="M328.493 78.2779C331.358 81.8695 331.431 86.254 326.793 89.954L318.083 96.9027L314.563 92.4909L322.595 86.0836C325.055 84.1208 325.284 82.0872 323.727 80.1358C322.035 78.0147 319.516 77.5254 316.716 79.7589L309.194 85.7601L305.674 81.3483L320.889 69.2105L324.251 73.4244L322.469 74.8457C324.718 74.9957 326.846 76.2134 328.493 78.2779Z" fill="black"/>
<path d="M323.447 107.319C320.767 101.743 322.558 95.8647 327.841 93.3262C333.123 90.7876 338.832 93.0615 341.511 98.6374C344.191 104.213 342.384 110.059 337.102 112.597C331.819 115.136 326.126 112.894 323.447 107.319ZM327.621 105.313C328.843 107.856 331.593 108.903 334.626 107.445C337.658 105.988 338.56 103.187 337.338 100.643C336.115 98.0998 333.349 97.0208 330.317 98.4782C327.284 99.9355 326.398 102.769 327.621 105.313Z" fill="black"/>
<path d="M334.256 130.584L358.986 125.13L360.248 130.854L335.518 136.307L334.256 130.584Z" fill="black"/>
<path d="M336.757 147.138C336.465 143.859 337.071 140.463 338.1 138.556L342.303 140.071C341.34 141.9 340.817 144.598 341.028 146.976C341.259 149.571 342.03 150.483 343.111 150.386C346.282 150.104 341.998 138.681 349.745 137.992C353.421 137.665 356.31 140.75 356.813 146.407C357.051 149.074 356.701 152.083 355.783 154.017L351.617 152.499C352.528 150.493 352.718 148.551 352.561 146.786C352.337 144.263 351.448 143.253 350.439 143.342C347.124 143.637 351.373 155.063 343.733 155.743C340.13 156.063 337.273 152.94 336.757 147.138Z" fill="black"/>
<path d="M336.803 166.719C337.381 160.56 341.946 156.447 347.781 156.995C353.616 157.543 357.335 162.434 356.757 168.594C356.178 174.753 351.617 178.83 345.782 178.282C339.947 177.734 336.224 172.879 336.803 166.719ZM341.413 167.152C341.149 169.962 342.967 172.276 346.316 172.591C349.666 172.906 351.883 170.97 352.146 168.16C352.41 165.351 350.596 163 347.247 162.686C343.897 162.371 341.677 164.343 341.413 167.152Z" fill="black"/>
<path d="M356.568 200.719L354.725 206.054L329.353 197.289L331.113 192.194L333.233 192.926C332.087 191.037 331.974 188.816 332.824 186.354C334.62 181.157 339.695 178.432 345.474 180.428C351.253 182.425 353.564 187.701 351.768 192.899C350.988 195.156 349.609 196.822 347.644 197.636L356.568 200.719ZM336.882 188.79C335.973 191.423 337.179 194.136 340.359 195.235C343.539 196.333 346.163 194.943 347.072 192.31C347.994 189.643 346.787 186.93 343.607 185.831C340.427 184.732 337.804 186.123 336.882 188.79Z" fill="black"/>
<path d="M340.536 216.605C337.321 221.592 333.148 222.99 328.192 219.794L318.858 213.775L321.721 209.336L323.758 210.65C322.836 208.807 323.144 206.595 324.693 204.193C327.163 200.362 330.762 199.454 333.589 201.278C336.478 203.14 337.171 206.471 333.955 211.457L331.524 215.228C333.561 216.541 335.531 216.09 337.178 213.536C338.296 211.803 338.875 209.636 338.697 207.843L343.109 208.277C343.229 210.895 342.223 213.991 340.536 216.605ZM327.12 207.437C326.101 209.018 325.948 210.857 327.085 212.365L328.757 213.443L330.855 210.19C332.287 207.971 331.917 206.742 330.822 206.036C329.636 205.272 328.199 205.765 327.12 207.437Z" fill="black"/>
<path d="M16.3032 54.2873L8.74734 49.186L10.8972 46.0018C12.5369 43.5731 15.1846 42.9565 17.4298 44.4723C19.6749 45.9881 20.0927 48.6744 18.453 51.1031L16.3032 54.2873ZM16.0929 52.5739L17.4702 50.5338C18.7309 48.6664 18.3957 46.6958 16.701 45.5517C15.0064 44.4075 13.0533 44.8332 11.7925 46.7006L10.4152 48.7407L16.0929 52.5739Z" fill="black"/>
<path d="M23.5367 39.1087C23.6158 39.1765 23.7261 39.288 23.8066 39.3742L20.1632 43.6272C21.1847 44.2965 22.4334 44.08 23.3231 43.0415C23.8484 42.4283 24.0813 41.736 23.9865 40.9859L25.0487 40.9871C25.1959 41.9363 24.8741 42.9125 24.1285 43.7829C22.6796 45.4742 20.596 45.6443 19.0333 44.3056C17.4804 42.9753 17.3202 40.9002 18.6166 39.3869C19.913 37.8736 21.9245 37.7276 23.5367 39.1087ZM19.4177 40.0732C18.6382 40.9832 18.6753 42.1811 19.4807 43.0426L22.3616 39.6797C21.3966 39.0245 20.2057 39.1534 19.4177 40.0732Z" fill="black"/>
<path d="M28.9167 38.6146C28.0993 39.418 27.0447 39.9614 26.3165 40.038L25.9942 38.9669C26.7043 38.8534 27.5831 38.4097 28.224 37.7798C29.0507 36.9672 29.1478 36.3787 28.737 35.9607C27.6506 34.8554 25.4793 38.8704 23.553 36.9105C22.6857 36.0281 22.891 34.6577 24.1542 33.4161C24.7951 32.7862 25.6839 32.2413 26.3851 32.1L26.6981 33.1802C25.9692 33.3305 25.3765 33.7122 24.8935 34.1869C24.1133 34.9537 24.0155 35.616 24.3989 36.0061C25.5401 37.1672 27.7298 33.1523 29.6104 35.0657C30.4869 35.9574 30.2264 37.3274 28.9167 38.6146Z" fill="black"/>
<path d="M27.5505 28.5364C27.1857 28.8512 26.6798 28.8232 26.3821 28.4781C26.0843 28.133 26.1222 27.6187 26.487 27.3039C26.8518 26.9891 27.3577 27.0171 27.6469 27.3523C27.9532 27.7073 27.9252 28.2131 27.5505 28.5364ZM32.4543 35.1767L27.945 29.9506L28.8916 29.1338L33.401 34.36L32.4543 35.1767Z" fill="black"/>
<path d="M35.827 23.7387L36.7854 23.0415L40.2943 27.8651C41.7271 29.8346 41.3777 31.4577 39.482 32.8367C38.4604 33.5799 37.2214 34.0464 36.2122 33.9431L36.1297 32.8113C36.9675 32.8782 37.9854 32.5726 38.8068 31.975C40.1233 31.0173 40.2793 29.9698 39.3599 28.706L39.0381 28.2636C38.975 29.1953 38.4552 30.0083 37.6548 30.5906C36.0434 31.7628 34.0249 31.5562 32.8527 29.9448C31.6805 28.3335 32.113 26.3599 33.7244 25.1877C34.5564 24.5825 35.5369 24.3363 36.4552 24.6023L35.827 23.7387ZM37.127 29.6216C38.2434 28.8095 38.4999 27.4795 37.7184 26.4052C36.9293 25.3204 35.6002 25.176 34.4838 25.9881C33.3569 26.8079 33.0851 28.1169 33.8743 29.2017C34.6557 30.2759 36.0001 30.4414 37.127 29.6216Z" fill="black"/>
<path d="M42.3199 19.6496C43.7898 18.8358 45.2934 19.1049 46.2775 20.8824L48.2016 24.3576L47.1077 24.9632L45.2531 21.6133C44.597 20.4283 43.6828 20.1753 42.6459 20.7493C41.4837 21.3928 41.1165 22.5042 41.842 23.8145L43.5642 26.9251L42.4703 27.5307L39.1269 21.4918L40.1752 20.9114L40.6799 21.8229C40.7836 20.9616 41.3628 20.1795 42.3199 19.6496Z" fill="black"/>
<path d="M54.9694 17.8844C55.0068 17.9817 55.0508 18.1322 55.0807 18.2463L49.8541 20.2576C50.435 21.3319 51.6366 21.7347 52.9129 21.2435C53.6665 20.9535 54.2003 20.455 54.4732 19.75L55.4074 20.2557C55.0859 21.1609 54.3389 21.867 53.2693 22.2786C51.1908 23.0784 49.2766 22.2382 48.5376 20.3177C47.8032 18.4094 48.6481 16.5073 50.5078 15.7917C52.3675 15.076 54.2069 15.9032 54.9694 17.8844ZM50.8867 16.7762C49.7685 17.2065 49.2319 18.2782 49.5314 19.4189L53.664 17.8286C53.1262 16.7936 52.0171 16.3412 50.8867 16.7762Z" fill="black"/>
<path d="M57.673 14.7363C57.9044 13.8449 58.6357 13.2302 59.8099 12.9334L60.1068 14.1076C60.0026 14.1205 59.9142 14.1429 59.8258 14.1652C58.5253 14.494 57.9182 15.4937 58.2885 16.9584L59.1311 20.2919L57.919 20.5983L56.2273 13.9061L57.389 13.6125L57.673 14.7363Z" fill="black"/>
</g>
</g>
</svg>
