<svg width="364" height="364" viewBox="0 0 364 364" fill="none" xmlns="http://www.w3.org/2000/svg">
<mask id="mask0_2341_702" style="mask-type:alpha" maskUnits="userSpaceOnUse" x="0" y="0" width="364" height="364">
<rect width="364" height="364" fill="#D9D9D9"/>
</mask>
<g mask="url(#mask0_2341_702)">
<path d="M178.802 16.5059L130.441 120.939L17.5942 135.331L100.551 214.269L79.1713 327.598L178.802 271.949L278.432 327.598L257.052 214.269L340.009 135.331L227.163 120.939L178.802 16.5059ZM178.802 2L231.243 115.244L353.605 130.85L263.653 216.444L286.836 339.333L178.802 278.989L70.7671 339.333L93.9502 216.444L3.99805 130.85L126.361 115.244L178.802 2Z" fill="black"/>
<path d="M160.009 63.1668V59.0134L157.67 54.8026L154.61 53.9003L152.278 50.4592V48.1009L149.263 42.1036L150.896 27.5132L155.01 22.0659L157.735 19.0101L166.927 15.6387H177.568L187.661 19.7502L191.866 29.835L191.237 42.1307L193.373 42.7745V46.7868L191.552 51.1209L188.536 51.5692L185.669 59.3205C184.888 61.4248 184.578 63.6786 184.762 65.9191V66.0363L187.967 70.0516L185.832 75.2763L170.296 81.2046L159.19 75.2763L160.009 63.1668Z" fill="white"/>
<path d="M223.885 194.207L224.111 197.296L221.092 209.432L227.05 213.288L228.507 219.62L233.761 220.477L240.19 218.667L243.757 208.813L242.96 206.109L236.391 190.248L223.885 194.207Z" fill="white"/>
<path d="M172.621 330.018C172.704 331.017 171.289 345.497 171.289 345.497L171.675 348.322L160.015 354.803L139.05 359.107L129.326 356.367L126.797 353.759L128.084 348.67L130.528 346.321L140.312 343.117L150.77 333.832L155.358 333.101L156.513 330.018L172.621 330.018Z" fill="white"/>
<path d="M176.147 328.888L174.777 340.281L174.991 347.193L191.624 357.369L204.947 358.767L212.761 355.152L213.061 351.281L208.002 344.565L197.969 332.497L193.919 326.409L176.147 328.888Z" fill="white"/>
<path d="M210.615 162.669C210.582 163.74 210.523 164.811 210.526 165.882C210.526 167.833 210.609 169.791 210.583 171.74C210.556 174.041 210.461 176.345 210.375 178.658C210.394 179.041 210.322 179.422 210.168 179.771C210.013 180.12 209.78 180.427 209.486 180.667C209.37 180.792 209.281 180.939 209.223 181.1C209.164 181.261 209.139 181.432 209.148 181.603C209.186 185.303 209.263 189.003 209.317 192.704C209.355 195.447 209.409 198.192 209.388 200.939C209.373 203.246 209.26 205.553 209.195 207.857C209.145 209.704 209.109 211.553 209.053 213.4C208.979 216.033 208.871 218.667 208.819 221.302C208.768 223.859 208.843 226.415 208.742 228.972C208.573 233.285 208.316 237.595 208.073 241.905C208.037 242.54 207.839 243.163 207.776 243.797C207.669 245.031 207.616 246.264 207.533 247.503C207.411 249.292 207.302 251.086 207.168 252.875C207.026 254.797 206.919 256.722 206.697 258.632C206.43 260.903 206.062 263.162 205.73 265.424C205.114 269.381 204.801 273.381 204.793 277.388C204.808 279.999 204.728 282.618 204.55 285.208C204.441 286.847 204.028 288.462 203.844 290.098C203.601 292.246 203.479 294.408 203.251 296.562C202.919 299.819 202.551 303.077 202.199 306.331C202.077 307.42 201.982 308.512 201.84 309.595C201.618 311.291 201.315 312.978 201.137 314.68C200.986 316.139 200.93 317.61 200.879 319.078C200.811 321.074 200.811 323.072 200.734 325.066C200.74 325.409 200.632 325.744 200.427 326.017C200.222 326.29 199.932 326.485 199.604 326.57C198.009 327.088 196.396 327.572 194.862 328.219C193.234 328.897 191.502 328.874 189.821 329.043C187.562 329.271 185.254 329.025 182.968 328.998H178.973C178.635 330.438 178.588 331.834 179.611 332.992C180.087 333.46 180.631 333.852 181.224 334.153C181.357 334.232 181.69 334.087 181.867 333.958C184.71 331.879 188.151 330.814 191.653 330.929C193.074 330.959 194.492 331.128 195.832 331.23C195.491 330.478 195.064 329.527 194.616 328.523C195.304 328.436 195.802 328.393 196.22 329.103C196.879 330.249 197.673 331.311 198.424 332.412C200.203 334.972 202.614 336.923 204.651 339.242C205.988 340.863 207.228 342.563 208.363 344.334C208.442 344.531 208.47 344.744 208.446 344.955C208.421 345.165 208.343 345.366 208.221 345.537C207.8 345.943 207.394 345.537 207.106 345.143C206.513 344.307 205.937 343.441 205.297 342.641C203.743 340.701 202.154 338.791 200.585 336.863C200.259 336.466 199.942 336.061 199.642 335.639C198.96 334.682 197.879 334.436 196.899 333.969C193.92 332.534 190.545 332.179 187.339 332.965C185.755 333.453 184.208 334.056 182.71 334.769C182.64 334.82 182.582 334.887 182.542 334.964C182.501 335.041 182.479 335.127 182.476 335.215C182.476 336.016 181.996 336.15 181.408 335.985C179.315 335.405 177.073 333.07 177.335 330.691C177.406 330.241 177.5 329.794 177.616 329.353C176.982 329.212 176.754 329.542 176.578 330.075C176.042 331.783 175.784 333.568 175.817 335.36C175.817 338.067 175.582 340.774 175.452 343.459V343.547C175.873 343.792 176.27 344.077 176.638 344.398C177.892 345.772 178.945 347.405 180.389 348.525C182.258 349.872 184.236 351.056 186.302 352.065C187.762 352.843 189.351 353.376 190.845 354.095C191.445 354.448 192.014 354.85 192.548 355.298C193.422 355.989 194.499 356.365 195.608 356.365C197.052 356.32 198.502 356.365 199.932 356.206C201.311 356.05 202.66 355.668 204.027 355.4C205.182 355.171 206.337 354.937 207.505 354.753C207.93 354.669 208.368 354.684 208.786 354.798C210.284 355.319 211.366 354.528 212.419 353.674C212.509 353.571 212.575 353.449 212.613 353.317C212.651 353.184 212.66 353.045 212.638 352.909C212.303 351.454 211.628 350.102 210.67 348.966C210.373 348.587 210.169 348.136 209.879 347.763C209.59 347.39 209.191 346.957 208.865 346.539C208.733 346.343 208.617 346.137 208.518 345.922C208.761 345.811 209.111 345.534 209.23 345.621C209.773 345.947 210.272 346.343 210.713 346.8C211.335 347.468 211.858 348.229 212.451 348.927C213.45 350.211 214.098 351.739 214.33 353.357C214.476 354.103 214.749 354.822 214.878 355.568C215.243 357.673 213.395 360.053 211.26 360.218C207.378 360.519 203.494 360.804 199.615 361.143C198.132 361.276 196.649 361.624 195.167 361.72C193.36 361.829 191.577 361.265 190.152 360.132C189.075 359.376 187.955 358.683 186.798 358.057C186.691 358.002 186.573 357.973 186.453 357.973C186.333 357.973 186.215 358.002 186.108 358.057C185.903 358.219 185.647 358.3 185.387 358.287C185.128 358.274 184.882 358.167 184.694 357.985C183.988 357.426 183.359 356.764 182.653 356.204C181.619 355.386 180.497 354.676 179.501 353.814C177.721 352.264 175.91 350.713 174.605 348.7C174.312 348.121 174.173 347.474 174.202 346.823C174.157 345.019 174.202 343.235 174.202 341.44C174.202 339.782 174.033 338.131 174.137 336.468C174.276 334.26 174.602 332.065 174.849 329.851C173.769 329.637 173.108 329.799 173.054 331.508C172.983 333.805 172.707 336.103 172.722 338.399C172.74 341.482 172.948 344.566 173.093 347.645C173.112 347.836 173.086 348.03 173.017 348.21C172.949 348.389 172.84 348.55 172.699 348.68C171.216 350.283 169.167 350.896 167.361 351.919C165.427 353.011 163.402 353.949 161.504 355.098C160.365 355.787 159.133 355.823 157.925 356.034C153.284 356.843 148.622 357.564 143.987 358.377C142.564 358.624 141.179 359.096 139.764 359.412C139.204 359.535 138.578 359.62 138.374 359.129C137.763 359.308 137.133 359.409 136.497 359.43C133.947 359.188 131.483 358.372 129.282 357.043C128.982 356.862 128.712 356.633 128.485 356.364C128.363 356.214 128.381 355.94 128.336 355.723C128.542 355.655 128.758 355.627 128.974 355.639C131.453 356.31 133.929 357.004 136.405 357.693L138.412 358.248C139.366 357.984 140.487 357.599 141.644 357.364C145.116 356.66 148.601 356.01 152.082 355.352C154.099 354.969 156.106 354.47 158.14 354.29C159.893 354.131 161.26 353.365 162.704 352.485C164.563 351.333 166.609 350.497 168.558 349.478C169.435 349.082 170.26 348.577 171.013 347.973C171.378 347.637 171.366 346.866 171.523 346.292L171.345 346.163C170.702 346.506 170.04 346.821 169.415 347.198C167.161 348.554 164.801 349.766 162.719 351.354C161.313 352.428 159.833 352.575 158.271 352.773C154.765 353.212 151.254 353.603 147.761 354.129C146.265 354.429 144.786 354.809 143.33 355.27C143.253 355.291 143.171 355.363 143.105 355.345C142.657 355.234 142.029 355.603 141.803 354.903C141.688 354.55 142.396 353.736 142.826 353.608C144.997 352.976 147.153 352.296 149.332 351.712C150.204 351.522 151.09 351.399 151.98 351.342C155.177 350.982 158.385 350.696 161.567 350.235C162.276 350.133 162.899 349.423 163.56 348.993C165.636 347.643 167.712 346.247 169.829 344.975C170.094 344.868 170.321 344.683 170.48 344.443C170.639 344.203 170.722 343.92 170.719 343.631C170.796 341.676 170.926 339.721 171.084 337.772C171.253 335.712 171.478 333.654 171.677 331.594C171.677 331.471 171.677 331.336 171.7 331.035C171.389 331.195 171.092 331.38 170.811 331.59C169.257 333.03 167.626 334.402 166.206 335.972C165.506 336.741 164.56 337.234 163.537 337.364C162.786 337.496 162.033 337.855 161.301 337.319C160.99 337.132 160.709 336.898 160.468 336.624C158.985 334.624 157.124 333.418 154.596 333.617C153.867 333.668 153.146 334.134 152.423 334.134C150.83 334.134 149.849 335.151 148.751 336.05C147.34 337.211 145.854 338.279 144.458 339.455C143.061 340.631 141.712 341.94 140.306 343.161C139.377 344.074 138.216 344.706 136.952 344.986C135.316 345.308 133.803 346.295 132.237 346.995C131.751 347.215 131.264 347.449 130.773 347.669C130.18 347.93 129.67 347.813 129.456 347.203C129.242 346.592 129.598 346.228 130.138 346.023C131.405 345.46 132.707 344.985 134.038 344.601C136.89 343.963 139.034 342.242 141.154 340.363C143.189 338.558 145.365 336.922 147.462 335.189C148.036 334.709 148.584 334.197 149.104 333.656C150.162 332.607 151.529 332.576 152.87 332.452L154.972 332.242C155.058 331.8 155.135 331.412 155.245 330.858C154.529 330.619 153.834 330.317 153.169 329.956C152.818 329.659 152.584 329.243 152.511 328.784C151.758 324.815 150.761 320.897 149.525 317.054C148.84 314.973 148.161 312.885 147.574 310.774C146.957 308.563 146.465 306.316 145.901 304.091C144.982 300.463 144 296.854 143.146 293.215C142.396 290.02 141.69 286.811 141.153 283.59C140.836 281.689 139.828 280.221 138.941 278.627C138.295 277.472 137.064 276.6 137.103 275.093C137.126 274.164 137.254 273.237 137.281 272.308C137.319 271.087 137.298 269.863 137.317 268.642C137.346 266.113 137.367 263.592 137.426 261.065C137.497 257.949 137.663 254.833 137.684 251.714C137.705 248.234 137.562 244.754 137.568 241.274C137.573 238.165 137.268 235.063 136.656 232.016C136.481 230.669 136.382 229.314 136.36 227.956C136.208 226.235 136.244 224.515 135.725 222.806C135.299 221.405 135.351 219.853 135.167 218.373C134.889 216.144 134.536 213.925 134.316 211.69C134.141 209.939 134.114 208.175 134.019 206.414C133.911 204.22 133.806 202.028 133.705 199.836C133.613 197.782 133.572 195.725 133.444 193.669C133.323 191.777 133.124 189.891 132.958 188.002C132.894 187.766 132.862 187.523 132.86 187.278C133.157 185.726 132.207 184.873 131.122 184.117C130.562 183.726 129.957 183.395 129.391 183.01C128.974 182.754 128.621 182.403 128.359 181.986C128.098 181.569 127.935 181.096 127.884 180.605C127.836 180.135 127.65 179.68 127.587 179.209C127.439 178.117 127.329 177.019 127.199 175.865C124.827 175.317 124.687 175.07 125.153 172.346C125.196 171.917 125.079 171.487 124.824 171.143C122.929 168.737 120.987 166.394 119.059 164.029C119.042 164.008 119.026 163.986 119.012 163.963C118.417 163.11 117.565 162.477 116.583 162.159C115.747 161.891 115.341 160.471 115.587 159.26C115.876 157.86 116.074 156.442 116.18 155.016C116.295 153.319 116.18 151.605 116.31 149.903C116.432 148.152 116.713 146.414 116.903 144.667C117.099 142.723 117.2 140.757 117.446 138.835C117.743 136.553 118.105 134.278 118.552 132.022C119.305 128.235 120.194 124.478 120.923 120.689C121.356 118.481 121.516 116.219 121.976 114.017C122.507 111.47 123.253 108.97 123.861 106.441C124.258 104.798 124.673 103.153 124.922 101.487C125.515 97.4622 125.946 93.405 126.633 89.3958C127.265 85.7055 128.199 82.0658 128.908 78.3872C129.338 76.1554 129.489 73.8933 129.931 71.7041C130.334 69.6949 130.918 68.8198 133.223 68.546C135.319 68.2896 137.399 67.9059 139.45 67.3971C142.733 66.5954 146.009 65.7431 149.236 64.7354C151.469 64.0373 153.596 63 155.798 62.194C156.959 61.7786 158.148 61.4528 159.357 61.2196C160.247 61.0346 160.659 61.3639 160.858 62.2452C161.378 64.5533 161.88 66.8642 162.364 69.1781C162.371 69.412 162.353 69.6461 162.311 69.8762C162.29 70.565 162.338 71.26 162.254 71.9396C162.145 72.8419 162.823 73.1114 163.328 73.5727C165.801 75.7846 168.953 77.06 172.248 77.1822C174.191 77.3117 176.159 77.5522 178.046 76.9115C180.065 76.2257 182.046 75.4073 184.021 74.5982C184.149 74.5026 184.252 74.3766 184.321 74.2314C184.389 74.0862 184.422 73.9261 184.416 73.7651C184.119 72.0118 183.76 70.2672 183.395 68.5287C183.289 68.1105 183.148 67.702 182.974 67.3076C182.798 66.9108 182.736 66.4711 182.797 66.0401C182.858 65.6092 183.039 65.2047 183.318 64.8742C183.456 64.7641 183.615 64.6833 183.785 64.6368C183.954 64.5903 184.132 64.5789 184.306 64.6034C185.708 64.7477 186.705 65.6833 187.6 66.6385C188.962 68.0884 190.729 68.8944 192.39 69.8145C194.445 70.9517 196.71 71.688 198.83 72.7198C200.346 73.4567 201.749 74.4249 203.234 75.2285C204.572 75.9531 205.975 76.5667 207.321 77.2796C208.762 78.0437 210.174 78.8614 211.591 79.6675C213.074 80.5216 214.541 81.4028 216.333 81.4719C216.682 81.4821 217.024 81.5737 217.333 81.7396C217.641 81.9055 217.908 82.1412 218.112 82.4284C218.471 82.8977 219.189 83.0753 219.725 83.4207C219.916 83.5579 220.069 83.7421 220.17 83.956C220.883 85.2661 221.225 86.7504 221.158 88.2451C221.066 89.7492 221.345 91.3162 221.075 92.784C220.508 95.8847 221.143 98.8806 221.451 101.915C221.573 103.053 221.712 104.186 221.816 105.326C222.174 109.318 222.513 113.309 222.88 117.297C223.029 118.894 223.236 120.482 223.4 122.076C223.471 122.775 223.494 123.475 223.554 124.182C223.764 126.622 223.978 129.061 224.197 131.496C224.237 132.037 224.32 132.573 224.447 133.1C224.535 133.343 224.708 133.545 224.933 133.668C225.221 133.794 225.518 133.895 225.823 133.969C226.735 134.315 227.631 135.251 226.946 136.628L226.875 136.772C226.223 138.09 226.223 138.09 227.43 138.851C228.275 139.383 228.281 139.894 227.551 140.577C227.316 140.886 227.131 141.231 227.004 141.6C228.329 142.469 228.38 142.938 227.597 144.334C227.309 144.903 227.17 145.538 227.191 146.178C227.191 148.653 228.412 150.834 228.919 153.195C229.364 155.265 229.91 157.319 230.494 159.355C231.037 161.256 231.68 163.13 232.303 165.01C232.733 166.321 233.222 167.611 233.622 168.919C234.512 171.903 235.38 174.901 236.262 177.886C236.908 180.075 237.559 182.263 238.216 184.448C238.465 185.279 238.723 186.114 239.019 186.927C239.512 188.281 239.316 188.93 238.107 189.664C234.206 191.953 229.876 193.387 225.395 193.875C224.627 193.965 223.912 194.368 223.087 194.221C222.769 194.209 222.464 194.091 222.219 193.884C221.975 193.677 221.806 193.393 221.738 193.078C221.242 191.234 220.792 189.366 220.133 187.579C219.229 185.137 218.099 182.769 217.168 180.361C216.533 178.722 216.083 177.007 215.516 175.338C214.395 172.03 213.26 168.721 212.111 165.412C211.835 164.624 211.503 163.857 211.186 163.084C211.108 162.924 211.02 162.77 210.922 162.621L210.615 162.669ZM162.418 74.5433L162.184 74.5884C162.154 76.8171 162.106 79.0489 162.1 81.2777C162.094 83.5064 162.172 85.6661 162.133 87.8584C162.106 89.2663 161.926 90.6675 161.837 92.0692C161.667 94.4034 161.54 96.7401 161.344 99.0712C161.148 101.516 160.887 103.956 160.698 106.398C160.448 109.649 160.217 112.901 160.022 116.156C159.832 119.307 159.622 122.472 159.562 125.615C159.501 129.095 159.6 132.584 159.627 136.064V139.229C160.042 139.081 160.357 138.982 160.671 138.859C163.248 137.839 165.813 136.777 168.408 135.803C171.144 134.777 173.924 133.875 176.649 132.828C178.488 132.124 180.276 131.273 182.075 130.47C183.392 129.883 184.685 129.239 186.014 128.686C186.676 128.433 187.36 128.24 188.056 128.109C188.155 128.107 188.252 128.132 188.338 128.18C188.425 128.228 188.497 128.298 188.549 128.383C188.587 128.611 188.537 128.846 188.41 129.038C188.261 129.193 188.077 129.307 187.873 129.369C186.921 129.801 185.963 130.217 185.011 130.638C181.675 132.115 178.374 133.673 174.997 135.038C172.571 136.019 170.03 136.695 167.583 137.586C165.137 138.476 162.791 139.451 160.383 140.344C160.151 140.402 159.949 140.547 159.818 140.75C159.687 140.953 159.637 141.199 159.677 141.438C159.728 143.826 159.755 146.211 159.781 148.597V151.372C161.264 150.283 162.533 149.337 163.814 148.395C166.469 146.445 169.124 144.498 171.779 142.553C173.6 141.221 175.412 139.879 177.256 138.586C178.739 137.538 180.278 136.551 181.799 135.548C182.451 135.074 183.139 134.653 183.858 134.291C184.115 134.177 184.557 134.476 184.916 134.592C184.821 134.799 184.783 135.091 184.619 135.193C183.662 135.855 182.659 136.453 181.701 137.109C179.886 138.348 178.06 139.57 176.29 140.875C174.214 142.403 172.203 144.012 170.163 145.582C168.384 146.95 166.605 148.325 164.826 149.679C163.221 150.882 161.623 152.121 159.968 153.264C159.488 153.595 159.161 153.791 159.232 154.467C159.476 156.846 159.668 159.229 159.825 161.613C159.864 162.137 160.03 162.312 160.549 162.338C161.863 162.4 163.173 162.516 164.484 162.639C166.972 162.868 169.466 163.06 171.942 163.376C174.943 163.758 177.872 163.229 180.796 162.775C182.771 162.474 184.737 162.11 186.712 161.818C186.955 161.811 187.188 161.716 187.369 161.55C187.55 161.385 187.667 161.16 187.7 160.916C187.892 160.101 188.171 159.307 188.385 158.511C188.658 157.668 188.857 156.803 188.978 155.924C189.182 153.136 189.325 150.342 189.428 147.548C189.526 144.862 189.526 142.17 189.606 139.484C189.667 137.449 189.746 135.417 189.888 133.387C190.036 131.242 190.24 129.101 190.481 126.962C190.801 123.955 190.305 120.998 190.051 118.032C189.855 115.74 189.395 113.472 189.114 111.187C188.859 109.112 188.699 107.03 188.482 104.951C188.185 102.1 187.868 99.2519 187.57 96.4003C187.327 94.1185 187.123 91.8367 186.87 89.555C186.781 88.7761 186.574 88.0132 186.461 87.2362C186.304 86.1927 186.164 85.1308 186.031 84.096C185.826 82.5647 185.634 81.0279 185.415 79.4973C185.246 78.3391 185.044 77.1871 184.86 76.0623C183.312 76.6635 181.942 77.25 180.543 77.765C179.467 78.2353 178.345 78.5902 177.196 78.8238C174.693 79.1712 172.148 79.0406 169.693 78.439C167.393 77.9841 165.242 76.9498 163.439 75.4314C163.087 75.1465 162.747 74.8527 162.419 74.5501L162.418 74.5433ZM166.394 259.606C167.056 259.606 167.506 259.57 167.948 259.606C169.544 259.766 169.885 260.523 168.982 261.862C168.896 261.996 168.831 262.143 168.789 262.298C168.531 263.173 168.282 264.051 168.03 264.93C167.855 265.531 167.529 266.07 167.78 266.795C168.413 268.526 168.952 270.291 169.397 272.082C170.215 275.597 170.9 279.145 171.662 282.673C171.944 283.978 172.362 285.257 172.584 286.583C173.121 289.728 173.652 292.873 174.041 296.037C174.456 299.428 174.702 302.846 175.028 306.263C175.135 307.385 175.259 308.51 175.378 309.632C175.5 308.617 175.546 307.593 175.514 306.57C175.485 304.535 175.41 302.495 175.407 300.456C175.407 298.744 175.535 297.033 175.511 295.321C175.494 294.187 175.262 293.056 175.215 291.919C175.004 288.199 174.776 284.481 174.657 280.757C174.568 277.975 174.624 275.187 174.636 272.402C174.636 270.636 174.697 268.87 174.722 267.102C174.749 265.089 174.82 263.077 174.773 261.068C174.687 257.434 174.476 253.807 174.408 250.174C174.357 247.75 174.387 245.323 174.464 242.901C174.545 240.324 174.761 237.752 174.847 235.177C174.921 232.867 174.883 230.558 174.908 228.259C174.934 225.792 174.961 223.326 175.012 220.854C175.056 218.577 175.16 216.303 175.194 214.026C175.238 211.356 175.244 208.685 175.232 206.014C175.235 205.859 175.205 205.704 175.145 205.562C175.085 205.419 174.995 205.291 174.882 205.187C173.729 204.387 172.39 203.908 170.997 203.797C170.555 203.797 170.268 203.821 170.25 204.363C170.228 204.794 170.18 205.223 170.105 205.647C169.915 207.127 169.675 208.608 169.538 210.099C169.242 213.407 169.028 216.716 168.69 220.024C168.393 222.828 167.978 225.616 167.643 228.411C167.348 230.852 167.077 233.295 166.828 235.742C166.481 239.228 166.113 242.71 165.855 246.203C165.635 249.177 165.558 252.158 165.419 255.138C165.381 255.962 165.65 256.303 166.436 256.417C166.674 256.446 166.91 256.492 167.142 256.555C167.304 256.576 167.457 256.645 167.582 256.752C167.707 256.859 167.799 257 167.847 257.159C167.895 257.317 167.897 257.487 167.852 257.646C167.807 257.806 167.718 257.949 167.596 258.059C167.236 258.476 166.891 258.948 166.394 259.604V259.606ZM189.29 70.7667C188.655 71.0676 188.347 71.2687 188.652 71.8465C190.025 74.4274 191.363 77.0268 192.73 79.6169C193.642 81.3436 194.622 83.0396 195.502 84.7873C196.205 86.1829 196.798 87.6358 197.492 89.1819H194.037C193.222 89.991 193.406 90.7039 193.833 91.447C194.129 91.9823 194.399 92.5509 194.669 93.1121C195.813 95.4843 196.956 97.8583 198.097 100.234C198.924 101.973 199.671 103.756 200.589 105.447C201.055 106.301 201.497 106.999 200.675 107.852C200.589 107.939 200.583 108.105 200.53 108.228C199.406 110.851 199.64 113.716 199.106 116.448C198.792 118.084 198.786 119.778 198.593 121.438C198.439 122.773 198.181 124.094 198.033 125.426C197.84 127.161 197.736 128.906 197.549 130.644C197.357 132.488 197.128 134.329 196.9 136.167C196.642 138.272 196.393 140.377 196.096 142.457C195.785 144.665 195.461 146.869 195.07 149.074C194.739 150.924 194.287 152.753 193.915 154.597C193.543 156.441 193.186 158.284 192.86 160.137C192.768 160.666 192.931 161.211 193.542 161.277C194.23 161.349 194.36 160.82 194.497 160.228C195.036 157.855 195.683 155.5 196.214 153.127C196.648 151.24 197.044 149.344 197.4 147.439C197.658 146.013 197.8 144.567 198.019 143.132C198.221 141.8 198.503 140.48 198.66 139.144C198.917 136.986 199.069 134.813 199.321 132.656C199.71 129.326 200.172 126 200.552 122.666C200.985 118.864 201.323 115.05 201.776 111.237C201.898 110.184 202.013 109.071 202.734 108.19C203.454 107.308 203.238 106.385 202.787 105.468C201.705 103.247 200.652 101.016 199.579 98.7931C198.566 96.6897 197.547 94.5892 196.524 92.4917C196.335 92.0976 196.159 91.6949 195.91 91.1503H198.281C198.504 91.1721 198.727 91.1328 198.929 91.0365C199.132 90.9402 199.304 90.7905 199.43 90.6031C199.555 90.4157 199.628 90.1976 199.641 89.9716C199.655 89.7456 199.608 89.5201 199.506 89.3188C198.549 87.0544 197.46 84.85 196.244 82.717C194.649 80.0794 193.246 77.324 191.715 74.6439C190.954 73.3266 190.114 72.0784 189.29 70.7698L189.29 70.7667ZM152.519 85.3997C151.661 86.4221 150.877 87.2948 150.164 88.221C148.741 90.0767 147.359 91.9625 145.953 93.833C145.728 94.1009 145.573 94.4215 145.503 94.7657C145.432 95.1099 145.447 95.4666 145.547 95.8033C145.726 96.3409 145.863 96.8921 145.956 97.4517C146.351 100.659 146.727 103.877 147.082 107.107C147.305 109.071 147.447 111.044 147.702 113.002C148.117 116.22 148.592 119.433 149.04 122.644C149.336 124.726 149.633 126.81 149.944 128.888C150.161 130.307 150.475 131.716 150.65 133.139C150.976 135.765 151.208 138.402 151.54 141.025C151.722 142.499 151.993 143.96 152.29 145.413C152.338 145.645 152.732 145.804 152.966 145.994C153.141 145.738 153.432 145.494 153.464 145.221C153.487 144.762 153.451 144.302 153.357 143.853C153.102 142.006 152.814 140.162 152.574 138.312C152.236 135.722 151.948 133.121 151.604 130.528C151.37 128.775 151.05 127.03 150.819 125.273C150.362 121.796 149.925 118.317 149.508 114.836C149.066 111.122 148.669 107.401 148.236 103.687C147.939 101.035 147.574 98.383 147.278 95.7312C147.244 95.3594 147.336 94.9869 147.539 94.6754C148.563 93.2718 149.617 91.8982 150.701 90.5546C151.856 89.114 153.002 87.6494 154.259 86.3136C155.001 85.5316 155.057 84.7133 154.073 84.244C153.049 83.738 151.996 83.295 150.92 82.9175C149.643 82.4932 148.328 82.1984 146.875 81.8074C147.391 81.1549 147.809 80.6042 148.24 80.0837C149.426 78.6401 150.611 77.205 151.783 75.7613C153.607 73.5202 155.431 71.2829 157.231 69.0208C157.287 68.9184 157.318 68.8038 157.322 68.6867C157.326 68.5695 157.301 68.4531 157.252 68.3474C156.995 68.1973 156.696 68.1401 156.403 68.1852C156.208 68.2216 156.051 68.4861 155.887 68.6786C153.538 71.2921 151.157 73.8761 148.856 76.5291C147.412 78.1892 146.077 79.9339 144.743 81.6816C144.614 81.8224 144.525 81.996 144.485 82.184C144.445 82.372 144.456 82.5674 144.517 82.7496C144.578 82.9317 144.686 83.0938 144.83 83.2187C144.974 83.3435 145.149 83.4266 145.336 83.4589C145.883 83.6365 146.457 83.7414 147.014 83.8906C148.799 84.3778 150.59 84.8711 152.518 85.4003L152.519 85.3997ZM175.542 345.169C175.285 345.739 175.233 346.383 175.396 346.987C175.558 347.592 175.925 348.119 176.432 348.478C176.838 348.818 177.262 349.13 177.653 349.486C179.346 351.007 181.035 352.534 182.721 354.066C183.201 354.415 183.64 354.819 184.029 355.27C184.702 356.229 185.292 357.221 186.698 356.939C186.803 356.942 186.906 356.973 186.995 357.029C188.362 357.569 189.7 358.18 191.004 358.861C192.587 359.786 194.438 360.126 196.241 359.823C198.934 359.441 201.647 359.207 204.343 358.851C206.747 358.536 209.212 358.962 211.581 358.132C212.178 357.909 212.684 357.488 213.016 356.938C213.348 356.387 213.487 355.738 213.411 355.098C212.022 356.132 210.581 356.938 208.79 356.37C208.737 356.358 208.682 356.358 208.63 356.37C207.506 356.599 206.38 356.824 205.255 357.056C203.58 357.405 201.916 357.865 200.214 358.081C198.697 358.246 197.169 358.293 195.644 358.222C194.41 358.227 193.205 357.834 192.204 357.101C191.464 356.529 190.67 356.033 189.833 355.62C187.98 354.718 186.04 353.999 184.225 353.03C182.716 352.287 181.306 351.351 180.03 350.245C178.417 348.712 177.032 346.868 175.544 345.171L175.542 345.169ZM156.507 332.28C159.144 332.62 160.956 334.157 162.643 335.986C162.939 335.908 163.271 335.827 163.6 335.725C164.042 335.586 164.608 335.559 164.893 335.258C165.83 334.275 166.672 333.186 167.562 332.106C166.186 332.106 164.875 332.155 163.568 332.106C161.871 332.031 160.181 331.805 158.485 331.785C157.877 331.764 157.091 331.384 156.51 332.278L156.507 332.28Z" fill="black"/>
<path d="M232.739 219.763C232.813 219.86 232.906 219.94 233.013 219.998C233.119 220.057 233.236 220.092 233.357 220.102C233.477 220.112 233.598 220.096 233.713 220.056C233.827 220.016 233.932 219.952 234.02 219.868C234.957 219.285 235.933 218.752 236.822 218.097C237.376 217.675 237.861 217.168 238.258 216.592C239.696 214.547 241.087 212.466 242.49 210.396C242.561 210.268 242.622 210.134 242.672 209.996C241.526 210.009 240.411 210.375 239.475 211.045C239.169 211.286 238.8 211.433 238.414 211.469C238.028 211.504 237.639 211.426 237.295 211.243C236.703 210.913 236.302 211.288 235.869 211.601C235.237 212.091 234.58 212.549 233.903 212.972C233.162 213.404 232.383 212.987 231.933 212.155C231.821 211.95 231.948 211.616 231.966 211.339C232.224 211.373 232.559 211.312 232.725 211.457C232.802 211.542 232.896 211.611 233 211.656C233.105 211.702 233.219 211.724 233.333 211.72C233.447 211.717 233.559 211.689 233.662 211.638C233.764 211.586 233.854 211.513 233.926 211.423C234.457 210.975 234.967 210.498 235.515 210.073C235.782 209.832 236.102 209.659 236.448 209.568C236.794 209.477 237.156 209.47 237.505 209.549C237.736 209.603 237.978 209.589 238.202 209.51C239.557 209.017 240.9 208.475 242.256 207.982C242.828 207.772 243.006 207.636 242.552 207.013C242.194 206.538 242.208 205.786 241.989 205.185C241.773 204.671 241.532 204.169 241.265 203.681C240.556 202.225 239.758 200.808 239.169 199.302C238.457 197.498 237.929 195.624 237.319 193.777C236.548 194.227 235.751 194.629 234.931 194.98C233.277 195.54 231.572 195.94 229.908 196.484C228.398 196.969 226.796 197.083 225.234 196.816C225.208 196.817 225.181 196.817 225.154 196.816C224.416 196.692 223.627 196.027 223.772 195.588C224.069 194.686 224.78 195.245 225.329 195.209C226.558 195.227 227.785 195.119 228.991 194.884C230.811 194.387 232.594 193.764 234.329 193.019C235.488 192.507 236.597 191.888 237.644 191.169C238.261 190.766 238.8 190.642 239.243 191.226C239.744 191.882 239.186 192.318 238.736 192.73L238.409 193.012C239.83 196.204 241.303 199.426 242.7 202.685C243.225 203.96 243.671 205.266 244.038 206.596C244.123 206.897 243.855 207.296 243.596 207.624C243.622 207.7 243.628 207.826 243.676 207.844C245.111 208.352 244.396 209.414 244.15 210.187C243.198 213.129 242.149 216.037 241.122 218.955C240.826 219.776 240.067 219.996 239.378 220.209C238.367 220.525 237.303 220.964 236.289 220.883C235.491 220.826 234.693 220.973 233.967 221.31C233.419 221.533 232.662 221.248 232 221.169C230.978 221.043 229.958 220.904 228.94 220.754C228.347 220.664 227.807 220.534 227.686 219.752C227.52 218.694 227.277 217.647 227.022 216.607C226.948 216.306 226.684 216.069 226.556 215.777C226.307 215.215 226.096 214.637 225.934 214.228L224.403 213.503C223.461 213.137 222.548 212.698 221.672 212.189C220.944 211.758 220.353 211.125 219.969 210.363C219.74 209.693 219.664 208.979 219.748 208.275C219.832 207.571 220.073 206.895 220.453 206.3C221.887 203.595 223.034 200.744 223.875 197.794C224.053 197.216 224.373 196.816 224.93 197.018C225.414 197.192 225.499 197.722 225.339 198.245C224.396 201.635 223.194 204.944 221.742 208.144C221.522 208.574 221.371 209.037 221.294 209.515C221.307 209.655 221.351 209.791 221.424 209.91C221.498 210.03 221.597 210.131 221.716 210.204C222.457 210.607 223.236 210.95 224.011 211.284C224.604 211.543 225.221 211.753 225.79 211.976C225.624 210.532 225.425 209.028 225.294 207.518C225.329 207.229 225.457 206.959 225.659 206.751C226.048 206.862 226.685 207.028 226.73 207.275C227.115 209.317 227.359 211.389 227.711 213.442C228.008 215.126 228.384 216.795 228.735 218.468C228.747 218.569 228.778 218.667 228.827 218.756C228.876 218.845 228.942 218.923 229.022 218.986C229.101 219.049 229.191 219.096 229.288 219.123C229.385 219.151 229.486 219.158 229.586 219.146C230.067 219.149 230.543 219.252 230.984 219.447C231.531 219.709 231.782 219.447 232.025 219.053C232.823 217.745 233.6 216.427 234.427 215.143C234.549 214.954 234.893 214.914 235.136 214.803C235.214 215.059 235.433 215.381 235.341 215.561C234.974 216.339 234.56 217.094 234.102 217.82C233.691 218.473 233.196 219.117 232.739 219.763ZM240.746 215.416L238.163 219.026C240.23 218.695 240.135 216.779 240.758 215.416H240.746Z" fill="black"/>
<path d="M192.351 43.0558C192.217 43.0978 192.12 43.1218 192.022 43.1551C191.429 43.3568 190.75 43.6275 190.4 42.9565C190.273 42.4507 190.273 41.9207 190.4 41.4148C190.504 40.4435 190.724 39.4808 190.762 38.5095C190.851 36.2568 190.958 33.9978 190.874 31.7481C190.779 29.2511 190.154 26.8043 189.042 24.5747C188.34 23.0288 187.286 21.6742 185.966 20.6223C185.8 20.4989 185.56 20.4416 185.436 20.2886C185.223 19.9908 185.03 19.6793 184.857 19.3562C185.222 19.2329 185.617 18.9745 185.96 19.025C187.366 19.2329 188.303 20.2042 189.222 21.2026C190.513 22.5803 191.001 24.3428 191.672 26.0332C193.104 29.6717 193.202 33.4952 193.179 37.3242C193.115 38.5281 192.964 39.7256 192.725 40.9066C192.657 41.3605 192.621 41.6886 193.101 42.0044C193.416 42.2537 193.677 42.5656 193.869 42.921C194.061 43.2763 194.179 43.6676 194.217 44.0709C194.733 46.6037 193.902 48.796 192.532 50.7812C191.782 51.8672 190.753 52.8866 189.249 52.7756C188.83 52.7149 188.403 52.8164 188.054 53.0598C187.705 53.3033 187.459 53.6709 187.364 54.0897C186.922 55.3231 186.629 56.6182 186.178 57.8553C186.11 58.0608 186.001 58.2496 185.857 58.4096C185.713 58.5697 185.538 58.6974 185.342 58.7847C184.699 58.9351 184.283 58.2796 184.521 57.5513C185.09 55.7887 185.707 54.0324 186.3 52.2816C186.559 51.487 186.869 50.7104 187.228 49.9567C187.313 49.7906 187.433 49.6457 187.58 49.5324C187.726 49.419 187.896 49.3401 188.076 49.3011C188.495 49.2832 188.732 49.6711 188.711 50.1645C188.678 50.8231 189.008 51.0667 189.623 50.8428C189.908 50.7792 190.179 50.6619 190.421 50.4969C192.265 48.8429 193.443 46.1837 192.538 43.4949C192.484 43.3455 192.424 43.1989 192.355 43.0558H192.351Z" fill="black"/>
<path d="M153.019 48.7264L152.515 48.5309C152.5 48.9063 152.538 49.282 152.628 49.6465C153.337 51.3276 154.244 52.8496 156.248 53.5866C156.125 53.131 156.026 52.6691 155.952 52.2027C155.952 51.8806 155.982 51.5592 156.043 51.2431C156.358 51.3424 156.797 51.3424 156.96 51.5589C157.321 52.0899 157.629 52.6561 157.879 53.2492C158.472 54.5394 159.048 55.848 159.642 57.1412C159.986 57.7742 160.298 58.4246 160.576 59.09C160.629 59.2694 160.64 59.459 160.608 59.6435C160.575 59.828 160.501 60.0021 160.39 60.1519C160.037 60.4319 159.586 60.1969 159.356 59.7819C158.511 58.2778 157.683 56.7379 156.821 55.1567C154.674 55.6679 153.402 54.1854 152.233 52.6208C151.733 52.0194 151.371 51.3123 151.174 50.5512C150.977 49.79 150.95 48.9939 151.094 48.2207C151.101 48.1235 151.073 48.027 151.014 47.95C149.676 46.2473 149.172 44.2202 148.897 42.1388C148.489 39.3182 148.531 36.4495 149.019 33.642C149.315 32.0842 149.566 30.5227 149.908 28.9767C150.516 26.1313 152.279 24.077 154.472 22.3595C154.625 22.2064 154.819 22.1018 155.029 22.0586C155.25 22.0749 155.455 22.1759 155.605 22.341C155.658 22.4027 155.53 22.7203 155.409 22.8406C153.84 24.2358 152.631 25.9995 151.889 27.9776C150.898 30.9433 150.646 34.0145 150.456 37.1121C150.291 39.788 150.541 42.4736 151.198 45.0706C151.376 45.7712 151.663 46.4421 151.91 47.1248C151.945 47.2179 152.031 47.3536 152.108 47.3592C152.926 47.4363 152.887 48.1004 153.019 48.7264Z" fill="black"/>
<path d="M184.673 46.9396C185.964 46.3167 187.182 45.6852 188.443 45.1561C188.624 45.095 188.817 45.08 189.005 45.1123C189.194 45.1445 189.371 45.2231 189.522 45.3411C189.786 45.7111 189.583 46.1471 189.08 46.3574C187.725 46.9291 186.393 47.5606 185.024 48.0928C184.817 48.1659 184.635 48.2973 184.5 48.4715C184.364 48.6457 184.281 48.8556 184.259 49.0764C184.093 49.88 183.813 50.6551 183.428 51.3773C183.088 51.9016 182.616 52.324 182.061 52.6006C181.505 52.8772 180.887 52.998 180.27 52.9505C178.787 52.9505 177.322 52.9055 175.861 52.7729C174.447 52.6434 173.72 51.8343 173.423 50.3678H168.599C168.475 50.346 168.349 50.3502 168.227 50.3799C168.105 50.4097 167.99 50.4644 167.89 50.5408C167.789 50.6172 167.706 50.7135 167.643 50.824C167.581 50.9344 167.542 51.0566 167.528 51.183C167.321 52.2265 166.454 52.6267 165.547 52.8481C163.955 53.328 162.273 53.4126 160.642 53.0948C160.118 52.981 159.639 52.7095 159.269 52.3157C158.898 51.9219 158.654 51.424 158.567 50.887C158.558 50.7536 158.522 50.6234 158.462 50.5048C158.401 50.3862 158.316 50.2819 158.213 50.1986C158.11 50.1153 157.99 50.0548 157.863 50.0211C157.735 49.9873 157.602 49.9811 157.472 50.0027C157.047 50.0301 156.62 49.9977 156.203 49.9065C155.972 49.8405 155.812 49.5272 155.61 49.3262C155.815 49.1368 155.996 48.8328 156.227 48.7909C156.648 48.7545 157.072 48.7646 157.491 48.8211C157.879 48.839 158.235 48.8754 158.281 48.2889C158.299 48.0872 158.629 47.9127 158.815 47.7265C158.964 47.9398 159.198 48.1322 159.248 48.3672C159.399 49.0456 159.43 49.7535 159.592 50.4307C159.889 51.6338 160.826 51.9884 161.878 51.9619C163.017 51.9076 164.152 51.784 165.277 51.5919C166.371 51.4297 166.638 50.4523 166.741 49.0234C166.774 48.6176 166.877 48.2217 166.946 47.8202L167.267 47.7092L168.233 49.0265C169.309 49.0265 170.605 49.0505 171.904 49.0265C172.402 49.0193 172.895 48.9289 173.364 48.7588C173.55 48.6867 173.601 48.2778 173.74 48.0367C173.912 47.7357 174.111 47.465 174.298 47.1794L174.662 47.3028C174.695 47.9374 174.743 48.5689 174.757 49.2034C174.799 51.1676 175.015 51.4174 177.04 51.6086C178.401 51.6826 179.765 51.6634 181.124 51.5512C181.549 51.4935 181.947 51.3057 182.265 51.0129C182.583 50.7201 182.805 50.3361 182.903 49.912C183.034 48.9827 183.057 48.0379 183.14 47.0999C183.138 46.8559 183.19 46.6145 183.291 46.3932C183.413 46.1946 183.656 45.9615 183.846 45.9541C184.036 45.9467 184.243 46.2008 184.406 46.3722C184.518 46.5494 184.608 46.7399 184.673 46.9396Z" fill="black"/>
<path d="M184.021 42.2174L183.514 43.0505C183.821 43.0826 184.12 43.1616 184.404 43.2849C184.655 43.5022 184.881 43.7487 185.077 44.0194C184.798 44.1846 184.498 44.5127 184.244 44.4856C182.168 44.2327 180.072 43.9984 178.108 43.1289C177.637 42.9989 177.138 43.0105 176.673 43.1622C176.029 43.3095 175.421 43.6401 174.775 43.7634C174.478 43.8251 174.123 43.5951 173.794 43.4989C173.972 43.1659 174.17 42.8444 174.387 42.5362C174.472 42.4221 174.683 42.4129 174.802 42.3709C172.99 41.3275 171.119 40.4098 169.423 39.2338C166.62 37.3826 164.172 35.0316 162.196 32.2947C162.033 32.0573 161.748 31.8495 161.701 31.5942C161.683 31.2336 161.715 30.8722 161.796 30.5205C162.063 30.605 162.404 30.6075 162.586 30.7789C163.942 32.0992 165.201 33.5312 166.616 34.7763C168.757 36.7409 171.199 38.3388 173.846 39.5076C175.47 40.1879 177.144 40.7401 178.852 41.1591C179.882 41.3035 180.925 41.3407 181.962 41.2701C182.357 41.2309 182.756 41.2977 183.117 41.464C183.478 41.6303 183.79 41.8901 184.021 42.2174Z" fill="black"/>
<path d="M166.255 43.0291C163.15 40.3039 160.324 37.3352 158.545 33.4944H158.287C158.077 34.129 157.818 34.7549 157.664 35.4061C156.812 38.9761 156.231 42.6072 155.927 46.2674C155.85 47.0405 155.701 47.8046 155.482 48.5492C155.434 48.6958 155.355 48.8297 155.25 48.9411C155.144 49.0526 155.016 49.1386 154.874 49.193C154.691 49.238 154.281 48.9463 154.218 48.7299C154.043 48.2045 153.965 47.6509 153.987 47.0968C154.252 42.5837 155.159 38.1332 156.68 33.8835C156.972 33.104 157.317 32.3463 157.714 31.6159C157.862 31.3483 158.233 31.2071 158.499 31.0146C158.644 31.2521 158.796 31.4926 158.935 31.7275C159.842 33.1891 160.658 34.7173 161.678 36.0888C163.188 38.1106 164.952 39.9246 166.924 41.4849C167.89 42.2552 168.884 42.989 169.833 43.7858C170.032 44.0273 170.191 44.3007 170.302 44.5949C169.952 44.709 169.525 45.013 169.268 44.8959C168.577 44.5579 167.913 44.1662 167.281 43.7241C166.926 43.5015 166.575 43.261 166.226 43.0291H166.255Z" fill="black"/>
<path d="M170.739 14.4277C172.923 14.4997 175.101 14.7005 177.263 15.029C178.746 15.33 180.101 16.1841 181.509 16.7977C181.887 16.9337 182.247 17.1144 182.583 17.3361C182.983 17.637 183.404 18.0366 183.078 18.6416C182.751 19.2466 182.253 19.0807 181.801 18.9154C180.912 18.5935 180.087 18.1754 179.209 17.8627C177.933 17.3533 176.624 16.9331 175.292 16.6053C171.95 16.0045 168.526 16.0688 165.209 16.7946C163.156 17.1698 161.199 17.9651 159.459 19.1319C159.162 19.3397 158.912 19.6252 158.626 19.8596C158.34 20.0939 157.971 20.4609 157.592 20.0699C157.263 19.7178 157.471 19.3718 157.747 19.0049C158.526 18.0008 159.571 17.2432 160.76 16.8211C162.868 16.0089 164.947 15.0438 167.26 14.902C168.41 14.8298 169.555 14.6855 170.705 14.5739L170.739 14.4277Z" fill="black"/>
<path d="M129.308 352.516C130.281 352.676 131.147 352.772 131.977 352.959C134.446 353.488 136.967 353.715 139.489 353.637C139.857 353.61 140.228 353.659 140.577 353.781C140.716 353.823 140.839 353.909 140.927 354.025C141.015 354.142 141.065 354.285 141.068 354.432C141.071 354.579 141.028 354.724 140.946 354.845C140.863 354.966 140.744 355.057 140.607 355.105C139.246 355.757 137.784 355.568 136.351 355.504C135.455 355.435 134.564 355.315 133.682 355.147C132.053 354.924 130.51 354.278 129.201 353.27C128.558 353.847 128.078 353.463 127.644 352.838L127.462 352.938C127.628 353.758 127.791 354.577 127.957 355.404C127.84 355.45 127.716 355.471 127.591 355.465C127.466 355.459 127.344 355.427 127.232 355.37C127.121 355.314 127.022 355.234 126.942 355.136C126.863 355.039 126.804 354.925 126.77 354.803C126.134 353.339 126.078 351.683 126.613 350.178C126.845 349.456 127.156 348.763 127.539 348.111C127.836 347.576 128.295 347.233 128.912 347.66C128.999 347.726 129.07 347.812 129.117 347.912C129.164 348.012 129.186 348.121 129.182 348.232C128.904 348.915 128.772 349.649 128.794 350.388C128.816 351.126 128.991 351.851 129.308 352.516Z" fill="black"/>
<path d="M173.102 66.881C173.728 66.9291 174.424 66.9951 175.124 67.0284C175.316 67.0463 175.508 67.0009 175.672 66.8989C176.638 66.1077 177.572 65.2689 178.551 64.4938C179.482 63.7537 180.443 63.0501 181.425 62.3884C181.632 62.2502 181.997 62.3551 182.287 62.3464C182.252 62.6955 182.344 63.1673 182.154 63.3689C181.531 63.9999 180.865 64.5858 180.162 65.1222C178.869 66.1416 177.573 67.1678 176.23 68.1298C175.805 68.3742 175.324 68.4988 174.836 68.4906C172.974 68.5522 171.111 68.5899 169.249 68.5522C169.055 68.5344 168.867 68.4682 168.704 68.3596C168.54 68.2509 168.406 68.1032 168.312 67.9294C168.235 67.4299 168.701 67.1622 169.202 67.1277C170.475 67.0191 171.75 66.9501 173.102 66.881Z" fill="black"/>
<path d="M173.254 62.1228C171.338 62.2523 169.424 62.3842 167.507 62.502C167.196 62.541 166.88 62.5186 166.576 62.436C166.366 62.3608 166.039 62.0272 166.078 61.9334C166.185 61.6534 166.429 61.2477 166.651 61.2236C169.083 60.9769 171.519 60.8178 173.947 60.5681C174.727 60.4548 175.496 60.2726 176.245 60.0235C176.731 59.8854 177.17 59.9964 177.256 60.4416C177.246 60.6234 177.19 60.7995 177.094 60.9536C176.998 61.1077 176.866 61.2347 176.709 61.3229C175.603 61.741 174.455 62.0389 173.325 62.3818L173.254 62.1228Z" fill="black"/>
<path d="M166.234 43.0099L166.43 43.7228C166.053 44.7305 165.27 44.4807 164.553 44.3241C162.539 43.9152 160.54 43.4545 158.45 43.7074C158.213 43.7376 157.931 43.4064 157.67 43.2319C157.852 43.0185 157.996 42.7083 158.227 42.609C159.607 42.1 161.093 41.9673 162.539 42.2242C163.79 42.4232 165.03 42.6873 166.254 43.0154L166.234 43.0099Z" fill="black"/>
<path d="M170.68 59.0119C169.805 58.7109 169.001 58.4883 168.239 58.1664C168.136 58.0894 168.054 57.9863 168.002 57.8673C167.95 57.7483 167.929 57.6175 167.942 57.488C168.085 57.2321 168.435 56.8867 168.669 56.9225C169.444 56.985 170.207 57.153 170.937 57.422C171.101 57.531 171.238 57.6778 171.335 57.8503C171.433 58.0228 171.488 58.2163 171.498 58.4149C171.513 58.5956 170.975 58.8077 170.68 59.0119Z" fill="black"/>
<path d="M169.433 64.6155C169.251 63.9538 169.513 63.635 170.095 63.5776C170.743 63.4965 171.396 63.4602 172.049 63.4691C172.168 63.5005 172.276 63.5633 172.363 63.651C172.45 63.7388 172.512 63.8484 172.544 63.9686C172.522 64.1 172.471 64.2248 172.396 64.3339C172.32 64.4431 172.222 64.534 172.108 64.6001C171.694 64.8132 171.237 64.9255 170.772 64.9282C170.308 64.9309 169.85 64.8238 169.433 64.6155Z" fill="black"/>
<path d="M162.305 48.4342C162.308 48.3203 162.334 48.2083 162.381 48.1047C162.428 48.0012 162.495 47.9082 162.578 47.8314C162.661 47.7545 162.758 47.6954 162.864 47.6574C162.97 47.6194 163.082 47.6034 163.194 47.6103C163.514 47.5887 163.829 47.6887 164.08 47.8908C164.33 48.093 164.497 48.3826 164.548 48.7031C164.566 49.2834 164.077 49.6713 163.412 49.6837C162.748 49.696 162.311 49.3198 162.305 48.4342Z" fill="black"/>
<path d="M178.746 48.8C178.597 48.8194 178.445 48.8061 178.302 48.7611C178.158 48.716 178.025 48.6401 177.913 48.5387C177.8 48.4372 177.711 48.3125 177.65 48.1729C177.589 48.0333 177.558 47.8821 177.56 47.7294C177.53 47.0708 177.999 46.7939 178.609 46.7853C179.22 46.7766 179.796 47.2848 179.734 47.7775C179.725 48.0423 179.619 48.2942 179.436 48.4835C179.253 48.6727 179.007 48.7857 178.746 48.8Z" fill="black"/>
<path d="M162.418 74.5469C162.746 74.8437 163.076 75.1445 163.408 75.4491C165.206 76.975 167.359 78.0102 169.662 78.4567C172.117 79.0584 174.662 79.1889 177.164 78.8415C178.312 78.6024 179.434 78.2476 180.512 77.7827C181.91 77.2684 183.281 76.6936 184.829 76.08C185.011 77.2048 185.214 78.3568 185.383 79.515C185.603 81.0462 185.796 82.583 186 84.1137C186.142 85.1621 186.273 86.2191 186.43 87.2539C186.551 88.0297 186.75 88.7956 186.839 89.5727C187.091 91.8545 187.299 94.1362 187.539 96.418C187.835 99.2696 188.155 102.118 188.451 104.969C188.667 107.047 188.827 109.129 189.083 111.205C189.379 113.486 189.824 115.755 190.019 118.05C190.274 121.016 190.77 123.978 190.449 126.98C190.221 129.119 190.016 131.26 189.857 133.405C189.714 135.435 189.634 137.468 189.575 139.502C189.495 142.187 189.495 144.88 189.397 147.566C189.293 150.36 189.154 153.154 188.946 155.942C188.825 156.82 188.627 157.686 188.354 158.529C188.14 159.341 187.861 160.132 187.668 160.934C187.635 161.178 187.518 161.403 187.338 161.568C187.157 161.733 186.924 161.828 186.681 161.836C184.706 162.137 182.74 162.485 180.765 162.792C177.832 163.247 174.911 163.776 171.91 163.394C169.434 163.093 166.941 162.885 164.453 162.657C163.142 162.533 161.831 162.422 160.517 162.356C159.998 162.329 159.832 162.154 159.794 161.631C159.625 159.246 159.435 156.864 159.201 154.485C159.13 153.799 159.456 153.604 159.937 153.282C161.592 152.139 163.199 150.912 164.794 149.696C166.573 148.343 168.353 146.968 170.132 145.599C172.172 144.029 174.186 142.42 176.258 140.892C178.037 139.587 179.852 138.364 181.67 137.127C182.63 136.471 183.633 135.872 184.588 135.211C184.748 135.102 184.787 134.81 184.885 134.609C184.526 134.498 184.084 134.197 183.826 134.308C183.108 134.671 182.42 135.091 181.768 135.566C180.248 136.57 178.717 137.557 177.225 138.604C175.38 139.899 173.568 141.238 171.748 142.571C169.097 144.506 166.445 146.446 163.792 148.391C162.511 149.333 161.233 150.28 159.759 151.369V148.594C159.732 146.208 159.705 143.823 159.655 141.435C159.617 141.196 159.668 140.951 159.799 140.749C159.929 140.546 160.13 140.401 160.361 140.34C162.768 139.438 165.144 138.454 167.561 137.582C169.978 136.71 172.563 136.015 174.974 135.035C178.352 133.67 181.653 132.111 184.988 130.635C185.94 130.214 186.898 129.795 187.85 129.366C188.054 129.303 188.239 129.189 188.387 129.034C188.515 128.842 188.565 128.607 188.526 128.379C188.474 128.294 188.402 128.224 188.316 128.176C188.229 128.128 188.132 128.104 188.034 128.105C187.337 128.236 186.654 128.429 185.991 128.682C184.662 129.237 183.37 129.885 182.053 130.466C180.253 131.267 178.465 132.12 176.626 132.824C173.901 133.872 171.119 134.773 168.385 135.799C165.79 136.773 163.226 137.834 160.648 138.855C160.352 138.978 160.02 139.08 159.604 139.225V136.06C159.578 132.577 159.477 129.092 159.539 125.611C159.6 122.456 159.809 119.295 159.999 116.152C160.195 112.897 160.424 109.646 160.675 106.394C160.865 103.952 161.126 101.513 161.321 99.0673C161.508 96.7362 161.645 94.3996 161.814 92.0654C161.912 90.6605 162.092 89.2594 162.11 87.8546C162.149 85.6616 162.072 83.4661 162.078 81.2738C162.083 79.0814 162.131 76.8132 162.161 74.5845L162.418 74.5469Z" fill="white"/>
<path d="M189.29 70.7666C190.109 72.0752 190.954 73.3234 191.698 74.6284C193.228 77.3085 194.631 80.0633 196.226 82.7015C197.442 84.835 198.531 87.0396 199.488 89.3039C199.59 89.5053 199.636 89.7305 199.622 89.9562C199.608 90.1819 199.535 90.3996 199.41 90.5867C199.285 90.7739 199.112 90.9235 198.911 91.02C198.709 91.1165 198.486 91.1564 198.264 91.1355H195.893C196.142 91.68 196.318 92.0827 196.507 92.4768C197.525 94.5801 198.543 96.6806 199.561 98.7782C200.635 100.998 201.689 103.233 202.77 105.453C203.22 106.382 203.452 107.273 202.716 108.175C201.981 109.077 201.883 110.169 201.759 111.222C201.305 115.024 200.968 118.837 200.534 122.651C200.158 125.981 199.692 129.307 199.304 132.642C199.051 134.8 198.901 136.97 198.642 139.129C198.485 140.464 198.203 141.785 198.001 143.117C197.782 144.552 197.636 145.999 197.382 147.424C197.036 149.329 196.641 151.225 196.195 153.112C195.648 155.485 195.009 157.84 194.478 160.213C194.342 160.815 194.212 161.335 193.524 161.262C192.916 161.196 192.75 160.661 192.842 160.122C193.168 158.272 193.527 156.426 193.897 154.582C194.267 152.738 194.719 150.909 195.052 149.059C195.444 146.864 195.767 144.659 196.079 142.442C196.375 140.337 196.626 138.252 196.883 136.152C197.111 134.314 197.339 132.473 197.532 130.629C197.714 128.891 197.829 127.146 198.015 125.411C198.164 124.078 198.421 122.759 198.576 121.423C198.769 119.762 198.775 118.069 199.089 116.433C199.611 113.702 199.386 110.836 200.512 108.213C200.566 108.09 200.573 107.912 200.658 107.837C201.479 106.994 201.037 106.295 200.572 105.432C199.656 103.741 198.908 101.958 198.079 100.219C196.954 97.8451 195.817 95.4749 194.669 93.1089C194.399 92.5495 194.141 91.981 193.833 91.4438C193.407 90.7038 193.225 89.9878 194.037 89.1787H197.495C196.801 87.6326 196.208 86.171 195.505 84.7841C194.615 83.0364 193.645 81.3429 192.732 79.6137C191.365 77.0273 190.028 74.4255 188.655 71.8434C188.338 71.2686 188.659 71.0675 189.29 70.7666Z" fill="white"/>
<path d="M152.522 85.3993C150.595 84.8702 148.804 84.3769 147.009 83.8952C146.452 83.7447 145.88 83.6393 145.331 83.4635C145.144 83.4306 144.97 83.3473 144.826 83.2223C144.682 83.0974 144.574 82.9354 144.514 82.7535C144.453 82.5716 144.442 82.3765 144.481 82.1886C144.521 82.0008 144.609 81.8272 144.738 81.6862C146.075 79.9385 147.422 78.1945 148.863 76.5337C151.164 73.8819 153.544 71.2974 155.894 68.6832C156.057 68.5025 156.214 68.2262 156.41 68.1898C156.702 68.1447 157.002 68.2019 157.258 68.352C157.356 68.4137 157.356 68.8787 157.237 69.0254C155.438 71.2875 153.614 73.5372 151.79 75.7659C150.604 77.2096 149.419 78.644 148.247 80.0883C147.817 80.6175 147.398 81.1589 146.882 81.812C148.335 82.2061 149.652 82.5009 150.927 82.9221C152.003 83.2996 153.056 83.7426 154.08 84.2486C155.064 84.7179 155.008 85.5356 154.267 86.3182C152.998 87.6534 151.853 89.1186 150.708 90.5592C149.622 91.9106 148.568 93.2842 147.546 94.68C147.343 94.9915 147.251 95.364 147.285 95.7358C147.582 98.3876 147.935 101.039 148.243 103.691C148.676 107.406 149.073 111.127 149.515 114.841C149.93 118.324 150.367 121.803 150.826 125.278C151.057 127.034 151.377 128.779 151.611 130.533C151.955 133.123 152.243 135.724 152.581 138.317C152.824 140.167 153.109 142.01 153.364 143.857C153.458 144.307 153.494 144.767 153.471 145.226C153.438 145.499 153.148 145.743 152.973 145.998C152.739 145.809 152.345 145.649 152.297 145.418C152 143.965 151.731 142.504 151.547 141.03C151.223 138.407 150.992 135.769 150.657 133.143C150.482 131.721 150.171 130.313 149.951 128.894C149.634 126.815 149.343 124.731 149.047 122.65C148.602 119.431 148.121 116.207 147.712 113.001C147.46 111.043 147.315 109.069 147.093 107.106C146.735 103.899 146.359 100.681 145.966 97.4508C145.873 96.8912 145.736 96.3399 145.557 95.8024C145.457 95.4657 145.442 95.109 145.513 94.7648C145.584 94.4206 145.738 94.0999 145.963 93.832C147.369 91.961 148.751 90.0751 150.174 88.2201C150.879 87.2914 151.665 86.428 152.522 85.3993Z" fill="white"/>
<path d="M175.545 345.169C177.028 346.865 178.419 348.694 180.061 350.231C181.336 351.338 182.746 352.274 184.257 353.016C186.072 353.984 188.011 354.706 189.864 355.606C190.701 356.018 191.496 356.514 192.236 357.086C193.236 357.82 194.441 358.213 195.676 358.208C197.2 358.278 198.728 358.231 200.246 358.067C201.939 357.85 203.603 357.388 205.287 357.041C206.411 356.81 207.536 356.584 208.661 356.355C208.714 356.343 208.768 356.343 208.821 356.355C210.6 356.924 212.053 356.118 213.442 355.083C213.519 355.724 213.38 356.372 213.048 356.923C212.716 357.474 212.21 357.895 211.612 358.118C209.241 358.948 206.779 358.52 204.374 358.836C201.679 359.188 198.963 359.438 196.272 359.807C194.469 360.111 192.619 359.77 191.036 358.845C189.732 358.163 188.394 357.552 187.026 357.013C186.937 356.957 186.835 356.926 186.73 356.923C185.324 357.206 184.734 356.213 184.061 355.254C183.666 354.809 183.228 354.406 182.753 354.051L177.685 349.473C177.294 349.118 176.87 348.805 176.464 348.465C175.332 347.556 175.082 346.569 175.545 345.169Z" fill="white"/>
<path d="M156.511 332.28C157.104 331.377 157.875 331.762 158.495 331.775C160.191 331.802 161.881 332.021 163.578 332.097C164.886 332.154 166.196 332.097 167.572 332.097C166.683 333.176 165.835 334.265 164.903 335.248C164.606 335.549 164.052 335.577 163.611 335.715C163.282 335.817 162.947 335.9 162.653 335.976C160.967 334.156 159.147 332.619 156.511 332.28Z" fill="white"/>
<path d="M240.759 215.416C240.136 216.778 240.245 218.694 238.176 219.026L240.759 215.416Z" fill="white"/>
<path d="M4.48273 102.588L4.01955 98.7624L22.0387 96.5183L22.5019 100.344L15.7849 101.181L17.9788 119.304L13.3936 119.875L11.1997 101.752L4.48273 102.588ZM30.0684 118.114C29.0186 118.245 28.0609 118.179 27.1955 117.917C26.3292 117.648 25.6131 117.182 25.0472 116.52C24.4876 115.85 24.1421 114.972 24.0106 113.886C23.8999 112.971 23.9748 112.182 24.2352 111.519C24.4956 110.855 24.8922 110.298 25.4248 109.848C25.9575 109.397 26.5799 109.029 27.2922 108.745C28.0116 108.459 28.7736 108.227 29.5783 108.047C30.5232 107.827 31.2833 107.638 31.8586 107.48C32.433 107.314 32.8415 107.125 33.0841 106.914C33.3267 106.702 33.4269 106.421 33.3845 106.071L33.3767 106.007C33.2945 105.328 33.0167 104.83 32.5432 104.512C32.0768 104.193 31.4544 104.082 30.676 104.178C29.8546 104.281 29.2232 104.544 28.7817 104.969C28.3393 105.387 28.0724 105.877 27.981 106.44L23.7186 106.622C23.8117 105.595 24.1284 104.678 24.6687 103.871C25.2081 103.057 25.9504 102.392 26.8956 101.875C27.847 101.35 28.9798 101.006 30.2939 100.843C31.2081 100.729 32.0959 100.727 32.9575 100.837C33.8262 100.947 34.6127 101.186 35.3171 101.555C36.0287 101.924 36.6165 102.438 37.0807 103.098C37.544 103.751 37.8349 104.567 37.9534 105.546L39.2975 116.649L34.9695 117.188L34.6931 114.905L34.5646 114.921C34.3626 115.469 34.064 115.966 33.6687 116.415C33.2727 116.855 32.7773 117.225 32.1828 117.524C31.5874 117.816 30.8826 118.013 30.0684 118.114ZM30.994 114.8C31.6653 114.717 32.2421 114.511 32.7243 114.182C33.2057 113.847 33.5651 113.432 33.8025 112.938C34.04 112.445 34.1237 111.908 34.0536 111.33L33.8422 109.583C33.7106 109.693 33.5245 109.804 33.2841 109.913C33.0499 110.015 32.7832 110.117 32.4838 110.22C32.1837 110.315 31.883 110.407 31.582 110.495C31.2801 110.576 31.0063 110.65 30.7607 110.717C30.2345 110.862 29.7819 111.046 29.4027 111.267C29.0235 111.488 28.7409 111.759 28.555 112.08C28.3682 112.393 28.3007 112.764 28.3526 113.193C28.4279 113.814 28.7104 114.261 29.2001 114.534C29.6961 114.799 30.2941 114.887 30.994 114.8ZM46.3998 110.956L45.7476 105.478L46.4118 105.395L50.9261 98.4907L56.1648 97.8383L50.0851 106.994L49.0031 107.129L46.3998 110.956ZM42.8381 116.208L40.181 94.2589L44.7447 93.6905L47.4018 115.64L42.8381 116.208ZM53.1225 114.927L47.4123 108.36L50.0642 104.756L58.4682 114.262L53.1225 114.927ZM70.1003 105.698L68.956 96.2453L73.5197 95.677L75.5125 112.139L71.1309 112.685L70.7689 109.694L70.5975 109.716C70.3429 110.727 69.819 111.579 69.0257 112.272C68.2396 112.965 67.2288 113.388 65.9932 113.542C64.8934 113.679 63.8954 113.549 62.9992 113.153C62.1031 112.757 61.3635 112.128 60.7806 111.265C60.2048 110.401 59.8354 109.326 59.6726 108.041L58.4037 97.5595L62.9675 96.9911L64.1377 106.658C64.2625 107.629 64.6161 108.365 65.1987 108.865C65.7812 109.366 66.5046 109.562 67.3688 109.454C67.9187 109.386 68.4178 109.197 68.866 108.887C69.3134 108.57 69.6532 108.144 69.8855 107.607C70.1249 107.069 70.1965 106.433 70.1003 105.698ZM82.7277 117.507C82.1492 117.579 81.6008 117.6 81.0825 117.57C80.5722 117.547 80.1445 117.488 79.7996 117.393L80.4154 113.856C80.971 113.954 81.4639 113.983 81.8941 113.944C82.3315 113.904 82.6944 113.758 82.9826 113.504C83.2781 113.25 83.4947 112.853 83.6324 112.314L83.8158 111.584L75.8631 95.3851L80.6625 94.7874L85.5327 106.452L85.7041 106.431L87.6795 93.9136L92.511 93.3118L88.3236 112.349C88.1237 113.274 87.7993 114.097 87.3504 114.82C86.9095 115.55 86.3107 116.143 85.554 116.6C84.7983 117.064 83.8562 117.366 82.7277 117.507ZM101.127 109.264C100.077 109.395 99.1197 109.33 98.2543 109.067C97.388 108.798 96.6719 108.333 96.106 107.67C95.5464 107 95.2009 106.122 95.0694 105.036C94.9587 104.122 95.0335 103.333 95.294 102.669C95.5544 102.006 95.9509 101.449 96.4836 100.998C97.0162 100.547 97.6387 100.18 98.351 99.8952C99.0704 99.6098 99.8324 99.3771 100.637 99.1971C101.582 98.9779 102.342 98.789 102.917 98.6303C103.492 98.4645 103.9 98.2758 104.143 98.0643C104.386 97.8527 104.486 97.5719 104.443 97.2218L104.435 97.1575C104.353 96.4787 104.075 95.9803 103.602 95.6621C103.136 95.343 102.513 95.232 101.735 95.3289C100.913 95.4312 100.282 95.6948 99.8404 96.1197C99.398 96.5374 99.1311 97.0276 99.0398 97.5901L94.7773 97.7728C94.8705 96.7459 95.1872 95.8289 95.7275 95.0218C96.2669 94.2076 97.0092 93.5422 97.9543 93.0256C98.9058 92.5009 100.039 92.1568 101.353 91.9931C102.267 91.8793 103.155 91.8775 104.016 91.9878C104.885 92.0972 105.672 92.3365 106.376 92.7057C107.087 93.074 107.675 93.5882 108.139 94.2484C108.603 94.9015 108.894 95.7175 109.012 96.6963L110.356 107.8L106.028 108.339L105.752 106.056L105.623 106.072C105.421 106.619 105.123 107.117 104.728 107.565C104.331 108.006 103.836 108.376 103.242 108.675C102.646 108.966 101.941 109.163 101.127 109.264ZM102.053 105.951C102.724 105.867 103.301 105.661 103.783 105.333C104.264 104.997 104.624 104.583 104.861 104.089C105.099 103.595 105.182 103.059 105.112 102.48L104.901 100.733C104.769 100.844 104.583 100.954 104.343 101.064C104.109 101.165 103.842 101.268 103.543 101.37C103.242 101.465 102.942 101.557 102.641 101.646C102.339 101.727 102.065 101.801 101.819 101.868C101.293 102.013 100.841 102.196 100.461 102.417C100.082 102.639 99.7997 102.91 99.6138 103.23C99.427 103.544 99.3595 103.915 99.4114 104.343C99.4866 104.965 99.7691 105.412 100.259 105.685C100.755 105.949 101.353 106.038 102.053 105.951Z" fill="black"/>
<path d="M241.4 85.0244L238.743 106.974L234.104 106.396L236.761 84.4467L241.4 85.0244ZM245.72 107.843L243.235 90.8229L247.852 91.398L249.063 102.776L249.213 102.795L253.208 92.0651L257.74 92.6294L259.108 103.962L259.248 103.979L263.086 93.2952L267.692 93.8688L261.232 109.774L256.401 109.173L254.826 98.4675L254.622 98.4422L250.541 108.443L245.72 107.843ZM272.789 111.529C271.739 111.398 270.825 111.1 270.048 110.633C269.272 110.159 268.688 109.532 268.297 108.75C267.913 107.963 267.788 107.026 267.919 105.94C268.03 105.026 268.291 104.278 268.702 103.699C269.112 103.119 269.63 102.676 270.254 102.369C270.879 102.062 271.57 101.858 272.329 101.757C273.096 101.657 273.89 101.618 274.714 101.641C275.683 101.66 276.466 101.663 277.062 101.65C277.659 101.63 278.1 101.547 278.386 101.402C278.672 101.256 278.836 101.008 278.878 100.658L278.886 100.594C278.968 99.9149 278.818 99.363 278.434 98.9381C278.058 98.5141 277.48 98.2536 276.702 98.1567C275.881 98.0544 275.205 98.1552 274.675 98.4591C274.146 98.7559 273.77 99.166 273.548 99.6894L269.368 98.8208C269.704 97.8472 270.23 97.0351 270.946 96.3846C271.664 95.727 272.543 95.2635 273.583 94.9941C274.631 94.7185 275.813 94.6626 277.127 94.8262C278.041 94.9401 278.903 95.1562 279.712 95.4746C280.529 95.7939 281.235 96.2191 281.831 96.7502C282.433 97.2821 282.881 97.9254 283.174 98.6799C283.468 99.4272 283.555 100.29 283.437 101.269L282.093 112.372L277.765 111.833L278.041 109.551L277.913 109.535C277.586 110.016 277.178 110.426 276.687 110.764C276.198 111.094 275.629 111.332 274.981 111.476C274.333 111.613 273.603 111.631 272.789 111.529ZM274.477 108.541C275.148 108.625 275.757 108.566 276.303 108.366C276.85 108.158 277.298 107.844 277.646 107.424C277.994 107.003 278.203 106.503 278.274 105.924L278.485 104.177C278.331 104.252 278.124 104.314 277.865 104.361C277.613 104.402 277.33 104.436 277.015 104.462C276.701 104.481 276.387 104.496 276.074 104.508C275.762 104.513 275.479 104.517 275.224 104.522C274.679 104.534 274.196 104.601 273.776 104.722C273.355 104.844 273.016 105.037 272.759 105.303C272.503 105.561 272.349 105.904 272.297 106.333C272.222 106.955 272.39 107.458 272.8 107.843C273.218 108.221 273.777 108.454 274.477 108.541ZM285.633 112.813L287.626 96.3514L291.976 96.8931L291.624 99.7975L291.817 99.8215C292.276 98.8996 292.94 98.2098 293.807 97.7522C294.675 97.2945 295.665 97.135 296.78 97.2738C297.908 97.4143 298.834 97.8161 299.559 98.4793C300.284 99.1354 300.721 99.9585 300.869 100.949L301.041 100.97C301.491 100.069 302.189 99.3907 303.136 98.9357C304.09 98.4743 305.171 98.3189 306.378 98.4692C307.914 98.6604 309.101 99.305 309.939 100.403C310.786 101.495 311.101 102.934 310.885 104.72L309.545 115.791L304.992 115.224L306.223 105.053C306.334 104.139 306.174 103.423 305.744 102.905C305.313 102.387 304.734 102.083 304.005 101.992C303.177 101.889 302.499 102.073 301.97 102.544C301.443 103.008 301.127 103.668 301.024 104.526L299.807 114.578L295.382 114.027L296.625 103.76C296.723 102.953 296.569 102.281 296.162 101.744C295.763 101.209 295.189 100.894 294.439 100.801C293.932 100.738 293.459 100.809 293.021 101.016C292.591 101.216 292.23 101.53 291.939 101.958C291.649 102.379 291.467 102.893 291.393 103.5L290.197 113.382L285.633 112.813ZM320.545 117.488C318.881 117.28 317.485 116.747 316.357 115.889C315.236 115.024 314.424 113.915 313.921 112.561C313.419 111.2 313.27 109.677 313.474 107.991C313.68 106.29 314.188 104.845 314.999 103.655C315.811 102.458 316.863 101.581 318.156 101.024C319.457 100.461 320.939 100.283 322.603 100.49C324.267 100.697 325.659 101.233 326.78 102.098C327.908 102.956 328.724 104.066 329.226 105.427C329.729 106.78 329.878 108.308 329.672 110.008C329.468 111.694 328.96 113.136 328.148 114.333C327.337 115.523 326.281 116.4 324.98 116.963C323.688 117.52 322.209 117.695 320.545 117.488ZM320.995 113.954C321.752 114.048 322.41 113.912 322.969 113.547C323.529 113.174 323.983 112.628 324.331 111.91C324.686 111.193 324.921 110.356 325.037 109.398C325.153 108.441 325.124 107.57 324.951 106.787C324.785 106.005 324.474 105.365 324.02 104.866C323.566 104.367 322.96 104.07 322.203 103.976C321.439 103.88 320.77 104.018 320.195 104.389C319.628 104.761 319.167 105.306 318.812 106.023C318.464 106.741 318.232 107.579 318.117 108.536C318.001 109.494 318.026 110.364 318.192 111.146C318.366 111.929 318.683 112.57 319.144 113.07C319.614 113.564 320.231 113.858 320.995 113.954ZM342.396 103.172L341.981 106.602L332.071 105.368L332.487 101.938L342.396 103.172ZM335.214 98.2744L339.777 98.8427L337.92 114.19C337.869 114.612 337.893 114.948 337.993 115.2C338.094 115.445 338.253 115.628 338.47 115.749C338.695 115.871 338.96 115.952 339.268 115.99C339.482 116.017 339.698 116.025 339.917 116.016C340.136 116 340.304 115.988 340.421 115.981L340.728 119.468C340.491 119.511 340.159 119.553 339.734 119.594C339.307 119.643 338.797 119.641 338.201 119.589C337.096 119.494 336.15 119.228 335.362 118.789C334.581 118.351 334.005 117.75 333.634 116.985C333.262 116.221 333.145 115.3 333.283 114.222L335.214 98.2744ZM350.595 121.23C348.931 121.023 347.535 120.49 346.406 119.631C345.286 118.766 344.474 117.657 343.971 116.304C343.469 114.943 343.32 113.419 343.524 111.733C343.73 110.033 344.238 108.587 345.049 107.397C345.861 106.2 346.913 105.323 348.206 104.766C349.506 104.203 350.989 104.025 352.653 104.232C354.317 104.439 355.709 104.975 356.83 105.84C357.958 106.699 358.774 107.808 359.276 109.169C359.779 110.523 359.927 112.05 359.722 113.75C359.518 115.437 359.01 116.878 358.198 118.075C357.387 119.265 356.331 120.142 355.03 120.705C353.738 121.262 352.259 121.437 350.595 121.23ZM351.045 117.696C351.802 117.79 352.46 117.655 353.019 117.289C353.579 116.916 354.032 116.371 354.38 115.653C354.735 114.935 354.971 114.098 355.087 113.141C355.203 112.183 355.174 111.313 355.001 110.53C354.834 109.747 354.524 109.107 354.07 108.608C353.615 108.109 353.01 107.812 352.253 107.718C351.488 107.623 350.819 107.761 350.245 108.132C349.678 108.503 349.217 109.048 348.862 109.765C348.514 110.483 348.282 111.321 348.166 112.279C348.05 113.236 348.076 114.106 348.242 114.888C348.415 115.671 348.733 116.313 349.194 116.813C349.664 117.306 350.281 117.601 351.045 117.696Z" fill="black"/>
<path d="M280.235 217.55L278.422 219.206L273.138 213.254L275.032 211.524C275.602 211.004 276.195 210.677 276.813 210.545C277.428 210.411 278.041 210.467 278.651 210.713C279.259 210.958 279.837 211.388 280.384 212.004C280.934 212.624 281.299 213.258 281.478 213.904C281.656 214.549 281.643 215.182 281.439 215.803C281.234 216.423 280.832 217.005 280.235 217.55ZM278.566 217.917L279.622 216.953C280.108 216.509 280.426 216.046 280.577 215.564C280.728 215.083 280.726 214.595 280.572 214.101C280.418 213.607 280.125 213.118 279.695 212.633C279.269 212.153 278.824 211.81 278.361 211.604C277.896 211.397 277.428 211.341 276.954 211.437C276.48 211.53 276.013 211.786 275.553 212.206L274.417 213.243L278.566 217.917ZM286.069 212.391C285.644 212.779 285.194 213.018 284.717 213.11C284.241 213.197 283.767 213.146 283.296 212.955C282.825 212.76 282.387 212.434 281.981 211.977C281.575 211.52 281.3 211.042 281.155 210.543C281.01 210.04 280.999 209.555 281.122 209.089C281.245 208.619 281.505 208.202 281.903 207.838C282.133 207.629 282.394 207.46 282.686 207.333C282.979 207.206 283.294 207.146 283.633 207.153C283.97 207.158 284.319 207.253 284.681 207.438C285.043 207.623 285.409 207.924 285.779 208.341L286.037 208.631L282.639 211.734L282.112 211.141L284.821 208.667C284.598 208.416 284.349 208.236 284.074 208.129C283.801 208.021 283.522 207.992 283.239 208.044C282.958 208.094 282.695 208.231 282.45 208.454C282.18 208.701 282.007 208.982 281.93 209.297C281.854 209.609 281.858 209.921 281.944 210.232C282.03 210.543 282.182 210.822 282.4 211.068L282.751 211.463C283.051 211.8 283.362 212.034 283.685 212.163C284.008 212.289 284.327 212.319 284.642 212.252C284.955 212.184 285.248 212.024 285.522 211.775C285.7 211.612 285.838 211.44 285.937 211.259C286.036 211.074 286.093 210.882 286.107 210.683C286.119 210.482 286.085 210.278 286.005 210.071L286.824 209.659C286.955 209.947 287.015 210.25 287.003 210.569C286.99 210.886 286.906 211.201 286.752 211.515C286.595 211.826 286.367 212.118 286.069 212.391ZM288.889 203.374L288.435 204.104C288.306 204.036 288.161 203.988 288 203.959C287.84 203.927 287.668 203.936 287.485 203.988C287.302 204.039 287.112 204.155 286.915 204.335C286.645 204.581 286.476 204.849 286.408 205.14C286.34 205.426 286.391 205.665 286.562 205.857C286.713 206.028 286.894 206.106 287.104 206.093C287.314 206.08 287.579 205.988 287.897 205.816L288.696 205.381C289.176 205.118 289.601 204.998 289.972 205.022C290.341 205.043 290.663 205.209 290.94 205.521C291.167 205.777 291.298 206.072 291.331 206.406C291.366 206.739 291.307 207.081 291.152 207.433C290.996 207.785 290.748 208.118 290.405 208.431C289.956 208.841 289.496 209.082 289.026 209.154C288.556 209.225 288.113 209.107 287.697 208.799L288.196 208.049C288.47 208.233 288.746 208.308 289.023 208.272C289.302 208.235 289.58 208.09 289.857 207.837C290.173 207.548 290.363 207.252 290.428 206.947C290.494 206.638 290.441 206.387 290.271 206.196C290.133 206.041 289.965 205.96 289.765 205.953C289.563 205.944 289.328 206.015 289.059 206.165L288.17 206.662C287.68 206.934 287.25 207.054 286.88 207.024C286.511 206.99 286.189 206.819 285.915 206.511C285.692 206.259 285.564 205.972 285.531 205.651C285.501 205.328 285.558 205 285.703 204.668C285.85 204.334 286.078 204.025 286.388 203.742C286.825 203.344 287.253 203.128 287.674 203.094C288.096 203.059 288.501 203.152 288.889 203.374ZM293.064 205.834L289.101 201.37L289.778 200.751L293.741 205.216L293.064 205.834ZM288.785 200.311C288.653 200.432 288.499 200.49 288.322 200.487C288.147 200.481 288.003 200.414 287.89 200.287C287.776 200.159 287.726 200.006 287.739 199.83C287.754 199.651 287.827 199.502 287.959 199.381C288.091 199.261 288.245 199.203 288.419 199.209C288.596 199.212 288.741 199.278 288.854 199.406C288.968 199.534 289.017 199.687 289.002 199.865C288.989 200.042 288.917 200.191 288.785 200.311ZM298.33 204.225C298.003 204.524 297.684 204.738 297.372 204.868C297.063 204.999 296.769 205.068 296.49 205.074C296.215 205.079 295.962 205.047 295.733 204.976L295.932 204.099C296.065 204.125 296.225 204.147 296.412 204.166C296.6 204.187 296.81 204.162 297.042 204.091C297.277 204.02 297.527 203.863 297.793 203.62C298.149 203.295 298.365 202.94 298.442 202.554C298.519 202.168 298.392 201.789 298.062 201.417L297.257 200.511L297.199 200.563C297.222 200.69 297.24 200.855 297.255 201.059C297.27 201.26 297.234 201.484 297.146 201.733C297.059 201.977 296.871 202.231 296.584 202.493C296.228 202.818 295.833 203.024 295.399 203.112C294.966 203.199 294.523 203.154 294.07 202.979C293.618 202.802 293.186 202.481 292.773 202.016C292.367 201.559 292.093 201.088 291.951 200.604C291.807 200.118 291.794 199.653 291.912 199.208C292.028 198.761 292.272 198.369 292.643 198.03C292.93 197.768 293.201 197.608 293.455 197.551C293.71 197.491 293.936 197.48 294.134 197.52C294.333 197.557 294.491 197.591 294.61 197.623L294.679 197.56L294.049 196.851L294.703 196.253L298.78 200.845C299.121 201.229 299.311 201.62 299.353 202.017C299.397 202.415 299.325 202.802 299.136 203.178C298.951 203.554 298.682 203.903 298.33 204.225ZM296.129 201.793C296.401 201.545 296.575 201.272 296.65 200.975C296.726 200.678 296.708 200.366 296.595 200.041C296.483 199.715 296.281 199.388 295.988 199.059C295.703 198.737 295.403 198.497 295.089 198.338C294.775 198.179 294.462 198.116 294.151 198.148C293.839 198.179 293.546 198.321 293.27 198.573C292.983 198.835 292.81 199.127 292.749 199.449C292.69 199.769 292.723 200.097 292.848 200.432C292.974 200.766 293.172 201.084 293.44 201.386C293.715 201.696 294.006 201.926 294.314 202.077C294.621 202.225 294.93 202.28 295.239 202.242C295.549 202.201 295.846 202.051 296.129 201.793ZM298.2 196.281L300.584 198.967L299.906 199.585L295.943 195.121L296.598 194.523L297.217 195.221L297.274 195.169C297.176 194.848 297.171 194.522 297.26 194.192C297.346 193.861 297.556 193.543 297.889 193.239C298.187 192.966 298.504 192.79 298.838 192.709C299.17 192.627 299.509 192.654 299.855 192.79C300.2 192.925 300.541 193.182 300.878 193.562L303.396 196.398L302.719 197.017L300.242 194.227C299.93 193.876 299.598 193.685 299.244 193.653C298.889 193.62 298.555 193.747 298.241 194.033C298.025 194.231 297.874 194.455 297.788 194.705C297.703 194.954 297.693 195.214 297.758 195.485C297.822 195.756 297.969 196.022 298.2 196.281ZM306.564 193.673C306.139 194.061 305.689 194.301 305.212 194.392C304.736 194.48 304.262 194.428 303.791 194.237C303.321 194.043 302.882 193.717 302.476 193.26C302.07 192.802 301.795 192.324 301.65 191.825C301.505 191.322 301.494 190.838 301.617 190.371C301.74 189.901 302 189.484 302.398 189.121C302.628 188.911 302.889 188.743 303.181 188.616C303.474 188.489 303.79 188.429 304.128 188.436C304.465 188.44 304.814 188.535 305.176 188.72C305.538 188.906 305.904 189.207 306.274 189.623L306.532 189.914L303.134 193.017L302.608 192.424L305.317 189.95C305.093 189.698 304.844 189.519 304.569 189.412C304.296 189.303 304.018 189.275 303.734 189.327C303.453 189.377 303.19 189.513 302.945 189.737C302.675 189.983 302.502 190.264 302.425 190.58C302.349 190.892 302.354 191.203 302.439 191.515C302.525 191.826 302.677 192.104 302.896 192.35L303.246 192.746C303.546 193.083 303.857 193.316 304.18 193.446C304.503 193.572 304.822 193.601 305.137 193.535C305.45 193.466 305.744 193.307 306.017 193.057C306.195 192.895 306.333 192.723 306.432 192.541C306.531 192.356 306.588 192.164 306.602 191.965C306.614 191.765 306.58 191.561 306.5 191.353L307.319 190.942C307.45 191.229 307.51 191.533 307.499 191.852C307.486 192.169 307.402 192.484 307.247 192.797C307.09 193.109 306.863 193.401 306.564 193.673ZM309.337 190.973L305.374 186.508L306.028 185.911L306.627 186.585L306.673 186.543C306.557 186.249 306.543 185.937 306.632 185.607C306.72 185.277 306.896 184.992 307.16 184.751C307.21 184.705 307.273 184.649 307.349 184.583C307.426 184.517 307.485 184.468 307.526 184.437L308.146 185.135C308.117 185.15 308.057 185.189 307.965 185.253C307.872 185.313 307.781 185.384 307.691 185.466C307.477 185.661 307.326 185.882 307.238 186.127C307.151 186.368 307.129 186.612 307.173 186.86C307.216 187.105 307.328 187.327 307.506 187.529L310.014 190.354L309.337 190.973Z" fill="black"/>
</g>
</svg>
