<svg width="364" height="364" viewBox="0 0 364 364" fill="none" xmlns="http://www.w3.org/2000/svg">
<mask id="mask0_2341_705" style="mask-type:alpha" maskUnits="userSpaceOnUse" x="0" y="0" width="364" height="364">
<rect width="364" height="364" fill="#D9D9D9"/>
</mask>
<g mask="url(#mask0_2341_705)">
<mask id="mask1_2341_705" style="mask-type:alpha" maskUnits="userSpaceOnUse" x="3" y="-6" width="343" height="384">
<rect x="3" y="-6" width="343" height="384" fill="#D9D9D9"/>
</mask>
<g mask="url(#mask1_2341_705)">
<path d="M135.262 170.422L153.61 166.281H173.861L187.382 166.857L188.727 169.711L189.342 173.345L196.115 188.135L195.346 199.176L196.096 218.902L198.278 235.284L209.482 340.073L194.481 347.74L202.699 349.111L201.894 353.507L198.197 358.575L192.587 360.998L182.559 361.702L173.679 357.293L174.25 348.759L176.529 345.001L170.958 340.937L168.992 340.873L163.981 343.165C163.981 343.165 164.602 352.089 164.653 352.543C164.704 352.996 164.717 358.592 164.717 358.592L155.983 361.318L148.465 362.041L131.491 361.318L128.282 345.857L122.83 343.744L117.281 337.932L114.128 335.072L127.747 254.57L132.116 207.75L130.9 191.018L133.454 174.108L135.262 170.422Z" fill="white"/>
<path d="M186.229 138.56L183.077 152.845L179.54 159.776L135.691 163.07V169.886C135.691 169.886 177.705 166.347 177.803 166.61C177.9 166.872 188.155 170.999 188.155 170.999L198.03 148.52L200.131 135.938L186.229 138.56Z" fill="white"/>
<path d="M153.132 85.4165H158.062V81.0474L148.423 80.7113L146.772 77.5151L145.727 72.1369L146.303 68.1032L143.328 65.3238L144 62.2448C144.666 59.2806 145.705 56.413 147.093 53.7108L147.368 53.18L153.243 45.6249L158.063 42.3749L162.386 40.4119C164.417 39.4885 166.609 38.9723 168.839 38.8925L173.242 38.7344C177.611 39.5309 181.762 41.6117 185.795 44.5057L192.18 57.3378L190.346 68.3785L180.427 80.4283L178.128 81.5679L174.71 81.0403L175.409 84.9126L185.19 86.1157L163.894 94.4391L153.132 85.4165Z" fill="white"/>
<path d="M188.011 225.228C188.619 226.572 189.227 227.917 189.832 229.241C190.04 229.576 190.186 229.944 190.266 230.329C190.296 230.824 190.384 231.362 189.503 231.469C188.981 231.53 188.494 232.165 188.064 232.605C187.232 233.437 186.783 233.432 186.135 232.477C184.226 229.671 182.323 226.854 180.257 224.098C180.442 224.994 180.559 225.913 180.818 226.787C181.389 228.726 182.048 230.639 182.633 232.572C182.788 233.079 182.801 233.607 182.052 233.728C181.829 233.77 181.621 233.871 181.45 234.021C180.351 234.981 179.114 234.905 178.425 233.594C177.504 231.829 176.795 229.944 176.018 228.108C175.453 226.764 174.926 225.44 174.381 224.102L174.142 224.166C174.288 225.972 174.433 227.777 174.579 229.581C174.69 230.983 174.784 232.384 174.915 233.779C174.996 234.579 174.646 234.868 173.891 234.825C172.711 234.758 172.68 234.845 172.68 235.977C172.68 237.55 172.566 239.124 172.536 240.683C172.506 242.313 172.536 243.948 172.509 245.576C172.449 248.47 172.331 251.361 172.28 254.254C172.21 258.435 172.176 262.613 172.122 266.794C172.079 269.987 172.011 273.18 171.984 276.37C171.958 279.731 171.984 283.093 171.954 286.473C171.935 288.225 171.857 289.979 171.723 291.727C171.696 292.093 171.306 292.431 171.082 292.779C170.767 292.443 170.219 292.107 170.175 291.73C169.983 290.113 169.89 288.476 169.839 286.846C169.765 283.7 169.738 280.554 169.721 277.408C169.721 275.838 169.769 274.271 169.785 272.703C169.812 270.373 169.785 268.041 169.866 265.712C169.96 262.546 170.122 259.379 170.242 256.213C170.356 253.171 170.4 250.123 170.578 247.085C170.804 242.994 171.136 238.91 171.385 234.82C171.33 234.428 171.204 234.05 171.012 233.704C170.564 232.633 170.174 231.539 169.842 230.427C169.202 227.785 168.669 225.123 168.071 222.36C167.247 223.099 166.447 223.724 165.766 224.457C165.332 224.921 164.811 225.234 164.344 224.931C164.137 224.769 163.967 224.566 163.844 224.334C163.721 224.103 163.647 223.848 163.628 223.586C163.56 222.295 163.643 221 163.876 219.727C164.323 217.353 164.507 214.936 164.424 212.521C164.367 210.266 164.878 208.033 165.91 206.028C166.064 205.667 166.286 205.339 166.565 205.063C166.777 204.891 167.167 204.945 167.476 204.898C167.515 205.176 167.515 205.457 167.476 205.735C167.046 207.272 166.381 208.76 166.186 210.337C165.984 211.97 166.303 213.666 166.253 215.331C166.186 217.616 165.987 219.898 165.839 222.295C166.115 221.982 166.387 221.713 166.612 221.411C167.045 220.84 167.409 220.208 167.879 219.673C168.719 218.722 168.464 217.629 168.407 216.547C168.418 216.272 168.457 215.998 168.521 215.73C168.787 215.808 169.059 215.866 169.334 215.902C170.114 216.002 170.903 216.021 171.687 215.959C173.791 215.623 175.223 214.14 176.728 212.833C177.222 212.406 177.635 211.909 178.557 212.134C178.516 212.49 178.621 213.03 178.406 213.226C176.695 214.799 174.984 216.427 172.643 217.018C171.743 217.18 170.832 217.275 169.918 217.303C169.703 218.076 169.441 218.957 169.219 219.845C169.171 220.08 169.182 220.324 169.252 220.554C170.035 223.397 170.818 226.241 171.625 229.078C171.904 230.056 172.246 231.014 172.552 231.985C172.677 232.465 172.861 232.927 173.1 233.36C172.972 229.726 172.839 226.097 172.716 222.638L171.56 221.885C171.846 221.579 172.077 221.112 172.427 220.994C174.366 220.322 176.336 219.774 178.285 219.159C179.294 218.844 180.262 218.464 181.257 218.151C181.785 217.958 182.337 217.834 182.897 217.782C183.311 217.753 183.719 217.89 184.033 218.161C184.225 218.43 183.939 218.911 183.868 219.301L183.532 219.439C185.028 220.783 186.517 222.128 188.019 223.472C188.178 223.616 188.378 223.706 188.59 223.728C188.825 223.728 189.212 223.698 189.279 223.557C189.321 223.431 189.334 223.297 189.317 223.166C189.299 223.034 189.252 222.908 189.179 222.797C186.92 220.001 184.594 217.255 182.379 214.422C181.765 213.494 181.238 212.512 180.806 211.487C180.47 210.842 180.184 210.177 179.855 209.531C179.626 209.083 179.518 208.584 178.816 208.482C178.523 208.439 178.144 207.81 178.1 207.437C177.908 205.151 177.811 202.856 177.667 200.567C177.698 200.341 177.665 200.11 177.572 199.901C177.479 199.693 177.329 199.514 177.139 199.387C176.958 199.164 176.831 198.902 176.767 198.621C176.703 198.341 176.704 198.05 176.77 197.77C177.196 196.295 177.699 194.844 178.276 193.421C178.916 191.703 179.573 189.992 180.293 188.315C181.217 186.174 182.266 184.09 183.174 181.93C183.846 180.363 184.306 178.71 184.975 177.144C186.205 174.266 187.52 171.43 188.807 168.569C189.543 166.929 190.302 165.296 191.035 163.652C191.525 162.546 192.013 161.437 192.443 160.308C192.474 160.018 192.415 159.726 192.276 159.471C192.128 159.081 191.735 158.671 191.802 158.342C191.869 158.012 192.39 157.814 192.826 157.457C192.877 156.389 193.684 155.592 194.661 154.933C194.167 153.485 194.154 153.065 195.972 151.078C194.385 149.959 195.024 148.005 197.653 146.847L197.122 146.511C195.569 145.502 195.532 143.95 197.192 143.149C198.641 142.437 198.829 141.133 199.38 139.711C195.313 141.056 191.313 141.008 187.279 140.837C187.01 142.155 186.751 143.432 186.499 144.656C187.169 144.584 187.843 144.554 188.516 144.565C188.93 144.602 189.319 144.776 189.624 145.059C189.928 145.342 190.129 145.718 190.197 146.128C190.282 146.455 190.247 146.803 190.1 147.107C189.952 147.411 189.7 147.653 189.39 147.788C188.223 148.48 187.081 149.206 185.925 149.913C185.31 150.289 184.691 150.655 184.379 150.847C184.043 152.191 183.821 153.263 183.528 154.322C182.984 156.295 182.412 158.258 181.848 160.224C181.774 160.48 181.656 160.896 181.512 160.928C179.979 161.154 180.312 162.529 180.07 163.412C179.357 165.99 178.89 168.635 178.235 171.233C177.307 174.907 176.314 178.56 175.321 182.218C174.985 183.508 174.581 184.781 174.111 186.029C173.976 186.365 173.412 186.546 173.042 186.797C172.861 186.461 172.471 186.082 172.53 185.789C172.829 184.252 173.202 182.723 173.618 181.205C174.718 177.014 175.84 172.826 176.959 168.638C177.087 168.147 177.261 167.666 177.386 167.276L168.117 166.604C168.17 167.545 168.291 168.597 168.251 169.629C168.251 170.026 167.885 170.688 167.611 170.732C167.07 170.816 166.754 170.359 166.72 169.724C166.579 167.273 166.384 164.83 166.266 162.38C166.266 162.161 166.559 161.926 166.714 161.707C166.94 161.892 167.306 162.044 167.37 162.275C167.639 163.284 167.824 164.329 168.042 165.337C171.276 165.209 174.563 164.766 177.766 165.872C178.102 164.746 178.47 163.539 178.854 162.343C179.036 161.778 178.918 161.529 178.287 161.415C177.16 161.207 176.068 160.83 174.942 160.632C174.163 160.523 173.375 160.488 172.59 160.527C170.909 160.561 169.228 160.554 167.548 160.709C164.375 161.002 161.216 161.382 158.053 161.751C156.335 161.943 154.605 162.044 152.91 162.353C148.995 163.065 145.099 163.872 141.2 164.672C141.093 164.722 141 164.797 140.929 164.892C140.858 164.986 140.812 165.096 140.793 165.213C140.753 166.12 140.793 167.028 140.793 168.198C143.422 167.724 145.929 167.267 148.437 166.823C150.599 166.445 152.762 166.073 154.924 165.707C155.162 165.65 155.411 165.665 155.64 165.751C155.943 165.947 156.227 166.172 156.487 166.423C156.258 166.652 156.064 167.025 155.798 167.095C154.47 167.381 153.126 167.566 151.792 167.814C148.995 168.339 146.213 168.927 143.413 169.407C141.077 169.807 138.707 170.08 136.378 170.456C136.106 170.5 135.847 170.893 135.666 171.179C134.512 173.067 133.759 175.172 133.454 177.363C132.95 180.483 132.314 183.588 131.989 186.727C131.864 188.917 131.864 191.112 131.989 193.301C131.989 193.788 131.925 194.185 131.377 194.232C131.069 194.253 130.765 194.153 130.528 193.955C130.291 193.756 130.14 193.474 130.107 193.167C130.039 192.534 130.018 191.897 130.043 191.261C129.861 187.24 130.315 183.215 131.387 179.335C131.932 177.188 132.439 175.016 133.165 172.929C133.695 171.741 134.331 170.603 135.068 169.531C133.925 168.482 134.604 167.178 134.637 165.891C133.4 165.74 132.802 164.715 132.136 163.76C131.74 163.189 131.337 162.614 130.886 162.079C130.697 161.9 130.447 161.8 130.187 161.797C126.521 161.73 122.854 161.677 119.186 161.639C117.841 161.639 116.864 160.994 116.759 160.015C116.356 159.962 115.99 159.754 115.738 159.434C115.487 159.114 115.371 158.709 115.415 158.304C115.566 155.588 115.62 152.853 116.01 150.167C116.567 146.342 117.401 142.558 118.08 138.739C118.089 138.596 118.063 138.452 118.005 138.32C117.946 138.189 117.857 138.073 117.744 137.983C116.912 137.516 116.003 137.19 115.186 136.699C114.503 136.258 113.855 135.764 113.25 135.22C112.195 134.333 111.193 133.385 110.121 132.531C108.655 131.358 107.251 130.128 107.019 128.142C106.942 127.438 107.1 126.729 107.467 126.125C109.111 123.772 110.889 121.515 112.583 119.201C114.462 116.633 116.31 114.048 118.153 111.471C119.589 109.454 121.044 107.437 122.412 105.37C125.293 101.001 128.337 96.7791 131.463 92.5982C133.214 90.2452 135.53 88.8738 137.94 87.4857C139.917 86.3895 142.044 85.5867 144.252 85.1026C144.568 85.0478 144.887 85.0129 145.207 84.9983C145.008 84.3427 145.254 83.9899 145.949 83.9194C147.437 83.6727 148.935 83.5017 150.44 83.4072C152.073 83.4072 153.377 84.4457 154.409 85.538C156.964 88.2271 160.197 89.4199 163.686 90.025C165.468 90.3409 167.283 90.4313 169.087 90.2939C170.571 90.0776 172.021 89.6734 173.403 89.0908C175.259 88.4186 177.056 87.6118 178.898 86.9063C180.366 86.3089 181.863 85.7884 183.385 85.3466C185.498 84.7851 187.419 85.3901 189.284 86.4824C192.699 88.4992 194.594 91.7966 196.506 95.053C198.645 98.6113 200.973 102.052 203.481 105.361C205.274 107.781 207.121 110.163 208.885 112.604C209.582 113.617 210.216 114.671 210.784 115.76C211.521 117.105 212.257 118.449 212.875 119.854C213.083 120.41 213.125 121.015 212.996 121.595C212.526 124.216 211.655 126.748 210.414 129.104C209.379 131.143 208.108 133.053 206.626 134.795C205.242 136.314 203.332 137.349 201.693 138.65C200.998 139.293 200.552 140.161 200.432 141.1C200.407 141.389 200.442 141.679 200.536 141.953C200.899 142.906 201.199 143.882 201.433 144.874C201.455 145.644 201.381 146.413 201.211 147.163C202.108 147.98 202.371 148.793 200.596 150.493C202.027 153.403 199.759 154.19 197.85 155.161C198.034 155.819 197.987 156.521 197.716 157.148C197.444 157.775 196.966 158.29 196.361 158.607C194.461 159.444 193.698 160.896 193.084 162.751C191.961 166.132 190.576 169.43 189.279 172.835C190.559 174.125 191.295 175.86 192.018 177.617C192.918 179.788 193.893 181.926 194.81 184.087C195.259 185.133 195.668 186.191 196.054 187.26C196.161 187.548 196.172 187.862 196.087 188.157C195.922 188.49 195.715 188.8 195.472 189.081C195.193 188.856 194.78 188.685 194.655 188.392C193.589 185.858 192.571 183.304 191.553 180.749C191.254 180.003 190.995 179.243 190.72 178.503H187.632C187.427 178.466 187.215 178.508 187.039 178.621C186.864 178.734 186.738 178.909 186.687 179.112C185.571 181.908 184.406 184.688 183.218 187.458C182.398 189.37 181.451 191.235 180.674 193.171C179.975 194.858 179.395 196.592 178.94 198.361C178.751 199.124 179.121 200.041 179.232 200.868C179.498 202.912 179.753 204.958 180.032 207.002C180.088 207.249 180.186 207.484 180.321 207.698C181.358 209.674 182.401 211.649 183.45 213.621C183.534 213.812 183.639 213.995 183.762 214.165C186.014 216.764 188.271 219.358 190.532 221.946C190.756 222.151 190.97 222.368 191.172 222.594C191.556 223.146 191.135 223.479 190.883 223.966C190.788 224.222 190.641 224.456 190.451 224.652C190.261 224.848 190.032 225.002 189.779 225.104C189.526 225.207 189.254 225.255 188.981 225.247C188.708 225.238 188.44 225.173 188.194 225.054L188.011 225.228ZM181.147 156.443C181.503 155.505 181.863 154.56 182.22 153.613C182.512 152.83 183.033 152.05 183.043 151.26C183.043 150.019 183.291 149.32 184.388 148.816C185.376 148.359 186.357 147.892 187.328 147.408C187.731 147.212 188.111 146.974 188.464 146.698C188.82 146.406 188.848 146.066 188.336 145.888C187.696 145.673 186.41 146.337 185.879 146.702C185.017 147.217 184.11 147.656 183.17 148.012C183.141 148.016 183.11 148.013 183.082 148.002C183.054 147.992 183.029 147.975 183.009 147.952C182.471 147.172 181.957 147.731 181.449 147.982C179.433 148.991 177.433 150.022 175.4 151.007C175.083 151.102 174.745 151.102 174.428 151.007C173.376 150.815 172.341 150.517 171.282 150.372C169.847 150.18 168.391 150.144 166.963 149.936C164.842 149.626 162.751 149.096 160.624 148.887C157.014 148.527 153.389 148.247 149.768 148.114C145.503 147.959 141.228 148.023 136.956 147.95C134.502 147.906 132.045 147.788 129.593 147.664C129.436 147.645 129.285 147.593 129.151 147.51C129.017 147.427 128.902 147.315 128.816 147.183C128.739 147.035 129.051 146.679 129.209 146.427C129.273 146.323 129.451 146.259 129.478 146.155C129.838 144.682 130.182 143.201 130.506 141.801C128.873 141.438 127.305 141.152 125.774 140.739C123.868 140.227 121.983 139.63 120.104 139.015C119.482 138.81 119.277 139.015 119.197 139.579C118.713 143.078 118.138 146.57 117.761 150.08C117.469 152.816 117.425 155.578 117.271 158.328C117.231 159.107 117.476 159.672 118.444 159.608C118.847 159.581 119.261 159.786 119.671 159.78C121.66 159.76 123.647 159.675 125.637 159.662C127.29 159.662 128.947 159.746 130.604 159.712C133.065 159.662 135.522 159.561 137.999 159.44C141.434 159.269 144.872 159.104 148.307 158.864C150.817 158.696 153.321 158.444 155.829 158.232C159.046 157.957 162.259 157.656 165.476 157.419C168.165 157.217 170.884 157.083 173.586 156.935L175.603 156.814C175.48 156.308 175.432 155.787 175.462 155.268C175.495 155.113 176.102 154.932 176.382 155.006C177.927 155.432 179.481 155.923 181.147 156.441V156.443ZM183.81 108.828C183.495 108.318 183.225 107.783 183 107.228C182.925 106.948 182.758 106.702 182.527 106.529C182.295 106.356 182.012 106.266 181.723 106.273C180.76 106.22 179.794 106.248 178.836 106.357C175.576 106.82 172.319 107.345 169.065 107.869C168.265 107.997 167.485 108.253 166.682 108.356C164.84 108.602 162.968 108.672 161.149 109.029C157.281 109.771 153.419 110.635 149.587 111.492C149.252 111.627 148.984 111.888 148.841 112.218C148.684 112.634 148.584 113.07 148.545 113.512C147.873 117.741 147.215 121.97 146.572 126.2C146.297 127.993 145.984 129.786 145.813 131.579C145.578 134.005 145.501 136.449 145.286 138.878C145.178 140.081 145.816 140.894 147.014 140.817C147.468 140.757 147.918 140.665 148.359 140.542C149.757 140.243 151.145 139.869 152.557 139.657C155.323 139.273 158.109 139.039 160.876 138.649C165.057 138.057 169.228 137.388 173.403 136.74C174.293 136.602 175.177 136.438 176.058 136.259C177.604 135.95 179.146 135.614 180.693 135.299C181.08 135.224 181.433 135.025 181.698 134.733C181.964 134.441 182.127 134.071 182.165 133.679C182.288 132.966 182.362 132.247 182.387 131.524C182.467 129.783 182.501 128.039 182.588 126.298C182.653 124.953 182.793 123.609 182.874 122.241C183.028 119.68 183.14 117.115 183.315 114.558C183.422 112.743 183.617 110.945 183.809 108.813L183.81 108.828ZM187.608 231.034C187.743 230.972 187.862 230.879 187.955 230.762C188.048 230.645 188.113 230.509 188.144 230.363C188.175 230.217 188.172 230.066 188.134 229.922C188.097 229.778 188.026 229.644 187.928 229.532C187.81 229.333 187.8 229.075 187.7 228.859C186.739 226.819 185.821 224.762 184.795 222.753C184.214 221.61 183.451 220.555 182.735 219.391L179.542 220.558L187.608 231.034ZM174.893 221.687L180.059 233.275C180.732 233.12 180.796 232.734 180.654 232.166C180.066 229.813 179.502 227.424 178.947 225.047C178.611 223.673 178.325 222.294 178.005 220.876L174.893 221.687ZM135.692 169.169L139.574 168.262V165.156L135.692 165.697V169.169ZM200.585 148.277C200.006 147.929 199.324 147.792 198.656 147.888C197.987 147.984 197.372 148.308 196.914 148.804C196.666 149.097 196.366 149.439 196.914 149.759C198.05 150.391 200.131 149.571 200.585 148.277ZM199.405 151.342C198.793 151.355 198.193 151.51 197.652 151.796C197.111 152.082 196.644 152.491 196.289 152.989C195.994 153.325 196.064 153.772 196.569 153.757C197.756 153.737 198.892 153.269 199.748 152.447C199.838 152.315 199.898 152.165 199.927 152.009C199.955 151.852 199.95 151.691 199.913 151.536C199.892 151.399 199.459 151.359 199.408 151.342L199.405 151.342ZM199.657 146.173C200.297 145.285 200.286 144.274 199.728 143.86C199.169 143.447 198.175 143.911 197.442 144.949L199.657 146.173ZM188.653 174.097C188.176 175.175 187.782 176.073 187.383 176.974H189.998C189.766 176.382 189.591 175.875 189.369 175.387C189.197 175.008 188.965 174.651 188.653 174.097ZM196.538 155.273C194.985 155.743 193.896 157.011 194.105 158.052C195.997 157.387 196.696 156.61 196.538 155.256V155.273Z" fill="black"/>
<path d="M196.497 225.784V228.406C196.52 228.678 196.499 228.953 196.436 229.219C196.272 229.709 196.006 230.325 195.401 230.051C195.185 229.929 195 229.76 194.86 229.555C194.72 229.351 194.629 229.117 194.594 228.871C194.483 224.613 194.44 220.356 194.409 216.099C194.393 213.41 194.446 210.721 194.436 208.032C194.436 205.679 194.366 203.294 194.352 200.925C194.336 198.276 194.352 195.628 194.352 193.097C193.589 194.179 192.746 195.423 191.855 196.633C191.226 197.484 190.541 198.293 189.865 199.107C189.778 199.234 189.665 199.34 189.532 199.418C189.399 199.495 189.25 199.542 189.097 199.555C188.944 199.568 188.789 199.547 188.645 199.492C188.501 199.438 188.371 199.353 188.265 199.242C187.743 198.798 187.831 198.26 188.265 197.752C189.548 196.27 190.819 194.781 192.093 193.296C192.623 192.677 193.172 192.072 193.682 191.439C193.866 191.203 194.124 191.036 194.414 190.963C194.703 190.89 195.009 190.915 195.283 191.035C195.432 191.107 195.562 191.213 195.662 191.344C195.762 191.476 195.83 191.629 195.859 191.792C195.97 196.094 196.037 200.396 196.105 204.698C196.124 205.975 196.041 207.259 196.142 208.53C196.334 211.007 196.559 213.488 196.888 215.951C197.442 220.075 198.202 224.173 198.673 228.308C199.241 233.323 199.614 238.36 200.041 243.393C200.361 247.124 200.612 250.858 200.932 254.589C201.17 257.358 201.469 260.124 201.745 262.887C202.138 266.846 202.513 270.803 202.938 274.755C203.338 278.486 203.788 282.21 204.215 285.937C204.706 290.249 205.224 294.561 205.684 298.877C205.946 301.28 206.171 303.69 206.41 306.1C206.649 308.51 206.871 310.947 207.123 313.367C207.586 317.817 208.083 322.267 208.531 326.717C208.75 328.878 208.894 331.046 209.103 333.211C209.274 335.016 209.492 336.814 209.697 338.703C210.534 339.12 210.736 339.92 210.117 340.88C209.109 342.443 207.603 343.431 206.044 344.345C204.699 345.131 204.565 345.448 204.774 347.003C204.968 347.814 204.997 348.655 204.858 349.477C204.496 350.73 203.944 351.919 203.22 353.003C201.832 355 200.269 356.872 198.747 358.774C198.579 358.986 198.206 359.036 197.927 359.158L197.671 358.983C197.731 358.555 197.861 358.14 198.055 357.753C198.956 356.543 199.944 355.4 200.865 354.201C201.096 353.861 201.234 353.467 201.265 353.058C199.921 354.493 198.576 355.945 197.192 357.34C196.936 357.596 196.423 357.596 196.039 357.724C195.644 357.822 195.26 357.96 194.893 358.138C194.272 358.501 193.741 359.055 192.903 358.769C192.785 358.729 192.601 358.921 192.44 358.981C191.642 359.232 190.863 359.538 190.107 359.896C189.714 360.114 189.489 360.638 189.133 361.092C190.891 361.149 192.235 360.388 193.606 359.731C194.531 359.283 195.431 358.787 196.366 358.363C196.485 358.319 196.614 358.304 196.74 358.32C196.866 358.336 196.987 358.382 197.092 358.454C197.267 358.632 197.428 359.065 197.32 359.23C197.061 359.735 196.688 360.173 196.232 360.511C192.962 362.528 189.453 363.684 185.55 363.096C184.052 362.87 182.566 362.564 181.077 362.289C180.93 362.273 180.791 362.21 180.681 362.111C179.82 361.103 178.563 360.989 177.42 360.626C175.666 360.068 174.647 358.676 173.676 357.264C173.607 357.077 173.588 356.876 173.62 356.679C173.652 356.483 173.733 356.298 173.857 356.142C174.254 355.833 174.462 356.334 174.701 356.636C175.03 356.996 175.382 357.333 175.756 357.645C176.072 356.505 176.876 355.564 175.662 354.643C175.606 354.546 175.575 354.437 175.571 354.325C175.568 354.214 175.592 354.103 175.642 354.003C175.9 353.856 176.179 353.75 176.469 353.69C177.054 351.364 177.662 348.961 178.244 346.555C178.252 346.45 178.236 346.344 178.196 346.247C178.157 346.149 178.095 346.062 178.015 345.993C177.633 345.747 177.237 345.522 176.829 345.321C176.253 347.217 174.994 348.911 175.007 351.011C175.007 352.019 175.058 352.996 175.037 353.985C174.994 354.311 174.912 354.631 174.792 354.937C174.448 354.863 174.122 354.723 173.832 354.523C173.6 354.249 173.462 353.907 173.439 353.549C173.234 351.018 173.439 348.575 174.975 346.396C175.812 345.22 175.597 344.632 174.399 343.855C173.055 342.992 171.777 342.054 170.557 341.206C170.137 341.347 169.637 341.683 169.193 341.623C168.501 341.526 168.333 340.867 168.326 340.219C168.272 336.441 168.134 332.66 168.202 328.881C168.256 326.048 168.656 323.225 168.763 320.395C168.905 316.809 168.922 313.219 168.965 309.638C169.013 305.585 169.025 301.531 169.056 297.478C169.029 296.82 169.052 296.162 169.126 295.508C169.177 295.202 169.533 294.951 169.751 294.672C169.956 294.928 170.276 295.152 170.346 295.44C170.45 295.978 170.499 296.525 170.491 297.073C170.576 300.195 170.654 303.317 170.723 306.441C170.797 309.533 170.871 312.625 170.924 315.714C170.958 317.872 171.015 320.034 170.958 322.191C170.905 324.147 170.683 326.1 170.589 328.057C170.508 329.737 170.508 331.445 170.468 333.135C170.451 333.754 170.397 334.369 170.39 334.988C170.426 335.616 170.426 336.245 170.39 336.873C170.054 339.404 171.846 340.571 173.583 341.599C175.759 342.892 177.999 344.073 180.295 345.138C181.416 345.588 182.58 345.92 183.77 346.129C185.39 346.502 187.035 346.761 188.65 347.157C190.643 347.675 192.748 347.546 194.663 346.788C196.007 346.27 197.473 346.115 198.76 345.51C200.697 344.614 202.532 343.493 204.384 342.437C205.472 341.812 206.538 341.136 207.56 340.42C207.711 340.298 207.833 340.144 207.92 339.97C208.006 339.796 208.054 339.606 208.061 339.412C207.923 337.422 207.725 335.439 207.503 333.457C207.167 330.59 206.757 327.744 206.435 324.866C206.178 322.571 206.038 320.256 205.762 317.959C205.48 315.502 205.07 313.059 204.794 310.602C204.479 307.785 204.273 304.948 203.977 302.129C203.593 298.411 203.184 294.696 202.751 290.983C202.243 286.684 201.675 282.389 201.161 278.09C200.816 275.177 200.494 272.256 200.196 269.327C199.917 266.605 199.702 263.876 199.433 261.15C199.164 258.424 198.817 255.695 198.572 252.959C198.384 250.862 198.28 248.754 198.166 246.654C198.038 244.281 197.974 241.901 197.829 239.532C197.621 236.117 197.386 232.704 197.125 229.294C197.034 228.127 196.829 226.968 196.677 225.805L196.497 225.784ZM194.551 354.434C197.219 353.291 196.749 350.888 197.159 348.457C193.415 350.041 189.86 350.397 186.152 348.538V355.933C187.001 355.875 187.844 355.748 188.672 355.553C190.091 355.109 191.483 354.544 192.854 353.984C193.61 353.657 194.168 353.691 194.551 354.434H194.551ZM184.586 355.989C184.703 353.616 184.791 351.431 184.922 349.25C184.955 348.733 185.009 348.383 184.34 348.285C183.632 348.173 182.935 348.004 182.253 347.781C181.285 347.475 180.332 347.109 179.272 346.743C178.795 349.432 178.331 352.063 177.85 354.772L184.586 355.989ZM188.932 357.545C188.687 357.527 188.441 357.527 188.195 357.545C186.045 357.939 183.833 357.824 181.735 357.209C180.616 356.906 179.507 356.537 178.374 356.268C178.108 356.201 177.541 356.315 177.53 356.409C177.37 357.14 177.332 357.892 177.419 358.634C177.466 358.89 178.229 359.004 178.656 359.211C179.012 359.373 179.356 359.56 179.684 359.772C180.021 359.98 180.261 360.334 180.609 360.464C182.777 361.274 185.066 361.22 187.332 361.311C187.433 361.31 187.533 361.285 187.623 361.238C187.713 361.19 187.791 361.122 187.849 361.039C188.222 359.926 188.548 358.806 188.932 357.543V357.545ZM200.433 350.379C199.526 351.526 198.265 352.108 197.983 353.526C197.907 353.748 197.758 353.937 197.56 354.064C197.056 354.434 196.487 354.736 196.007 355.116C195.405 355.616 194.841 355.82 194.357 355.324L189.893 357.341C189.937 357.711 189.991 358.168 190.038 358.558C191.093 358.319 192.253 358.312 193.124 357.805C195.004 356.741 196.781 355.503 198.431 354.107C199.421 353.271 200.481 352.202 200.433 350.377V350.379ZM198.192 348.443C198.26 349.18 198.321 349.872 198.401 350.776L201.278 347.398L201.164 347.297L198.192 348.443ZM201.89 346.988C202.048 347.425 202.179 347.801 202.354 348.292C202.857 347.566 203.95 347.264 203.318 346.124L201.89 346.988Z" fill="black"/>
<path d="M125.128 346.433C124.066 345.796 123.041 345.098 122.059 344.343C120.322 342.864 118.641 341.318 117.018 339.705C116.44 339.041 115.953 338.304 115.569 337.513C115.445 337.292 115.569 336.937 115.569 336.649C115.905 336.767 116.349 336.787 116.577 337.019C117.183 337.81 117.829 338.57 118.513 339.294C121.948 342.269 125.498 345.008 130.328 345.377C132.146 345.511 133.918 346.187 135.736 346.385C138.682 346.824 141.684 346.726 144.596 346.096C146.723 345.569 148.915 345.324 151.059 344.859C153.006 344.439 154.925 343.895 156.854 343.397C159.71 342.654 162.544 341.787 165.536 341.761C166.084 341.761 166.712 341.777 166.705 342.412C166.705 342.749 166.111 343.064 165.794 343.4C165.626 343.578 165.351 343.777 165.351 343.965C165.351 346.375 165.391 348.785 165.428 351.195C165.428 351.272 165.522 351.346 165.589 351.447C166.346 351.024 166.698 351.366 166.9 352.119C167.456 354.03 167.261 356.081 166.356 357.854C165.771 359.02 164.675 359.534 163.667 360.207C160.765 362.061 157.316 362.867 153.892 362.492C153.322 362.425 152.768 362.261 152.252 362.008C152.047 361.917 151.967 361.545 151.829 361.296C152.091 361.168 152.356 360.916 152.615 360.926C153.486 360.953 154.35 361.135 155.216 361.141C156.083 361.148 156.702 360.839 156.537 359.646L141.647 360.698V360.872C142.242 360.899 142.837 360.906 143.429 360.956C145.606 361.148 147.778 361.34 149.949 361.578C150.164 361.602 150.345 361.914 150.544 362.086C150.235 362.247 149.925 362.549 149.616 362.546C147.771 362.529 145.919 362.375 144.077 362.401C142.131 362.432 140.185 362.704 138.239 362.704C135.16 362.704 132.029 362.868 129.01 362.411C125.706 361.907 122.388 361.09 119.891 358.428C119.289 357.788 118.436 357.382 118.211 356.438C118.129 355.902 118.077 355.363 118.056 354.821C117.965 353.904 117.841 352.993 117.787 352.075C117.73 351.66 117.791 351.237 117.962 350.855C118.394 350.038 118.984 349.315 119.699 348.729C120.413 348.143 121.238 347.706 122.124 347.444C123.162 347.169 124.17 346.762 125.128 346.433ZM148.542 357.333L145.897 357.874C144.344 358.183 142.788 358.486 141.232 358.792L141.262 359.04C146.435 358.811 151.604 358.304 156.868 358.61C156.895 358.304 156.928 357.937 156.968 357.487C155.748 357.575 154.639 357.612 153.543 357.74C151.836 357.938 150.139 358.167 148.502 357.347C148.653 356.849 148.599 356.19 149.346 356.123C149.786 356.086 150.237 356.123 150.69 356.123C153.555 356.119 156.41 355.803 159.206 355.182C160.086 351.71 159.502 348.395 159.078 344.984L154.826 346.308C155.011 346.913 155.04 347.554 154.909 348.173C154.779 348.791 154.493 349.366 154.08 349.845C153.031 350.984 152.262 352.55 150.134 352.066C148.198 351.626 146.817 350.187 146.961 348.225C146.95 348.138 146.926 348.054 146.887 347.976L146.508 348.04C143.509 348.595 140.508 349.049 137.433 348.736C136.481 348.636 135.523 348.464 134.77 349.428C134.572 349.685 133.853 349.66 133.409 349.58C132.3 349.375 131.104 349.747 130.048 349.095C130.048 349.095 129.961 349.156 129.913 349.186C130.021 350.117 129.721 350.595 128.962 350.692C128.203 350.79 127.759 350.256 127.517 349.143C126.576 349.079 125.809 348.78 125.762 347.392L124.563 348.096C124.331 348.234 124.105 348.469 123.867 348.489C123.035 348.547 122.232 348.811 121.528 349.258C120.825 349.704 120.244 350.32 119.838 351.048C119.502 351.596 119.307 351.928 119.922 352.368C120.339 351.551 120.833 351.948 121.347 352.261C122.399 353 123.517 353.639 124.688 354.17C126.07 354.597 127.481 354.923 128.909 355.149C129.649 355.3 130.499 355.652 131.124 355.424C131.5 355.288 131.902 355.24 132.3 355.282C132.698 355.325 133.08 355.457 133.419 355.669C133.894 355.864 134.379 356.033 134.872 356.177C137.352 357.157 140.065 357.39 142.676 356.849C144.073 356.631 145.482 356.494 146.894 356.439C147.23 356.375 147.577 356.43 147.877 356.593C148.177 356.756 148.412 357.017 148.542 357.333ZM134.52 358.293L134.55 358.068C133.898 357.88 133.239 357.732 132.604 357.497C132.137 357.232 131.649 357.008 131.145 356.825C129.028 356.469 126.903 356.152 124.759 355.914C122.511 355.679 120.994 354.398 119.522 352.532C119.496 353.023 119.348 353.433 119.479 353.699C120.188 355.117 121.13 356.358 122.773 356.747C124.36 357.124 125.974 357.376 127.559 357.756C127.912 357.843 128.181 358.277 128.487 358.552C128.151 358.717 127.783 359.033 127.445 359.016C126.37 358.972 125.3 358.849 124.244 358.647C123.175 358.435 122.131 358.082 120.882 357.743C121.234 358.069 121.626 358.349 122.049 358.575C123.027 358.911 124.039 359.173 125.04 359.449C126.513 359.853 127.968 360.458 129.467 360.592C132.657 360.864 135.853 360.885 139.067 360.999C139.317 360.989 139.566 360.96 139.812 360.912V360.68C137.9 360.401 135.977 360.155 134.072 359.829C133.143 359.663 132.23 359.418 131.342 359.097C131.157 359.033 131.124 358.536 131.022 358.24C131.279 358.133 131.549 358.067 131.826 358.041C132.744 358.106 133.631 358.204 134.522 358.291L134.52 358.293ZM163.908 343.733L160.161 344.61C160.527 347.034 160.89 349.387 161.226 351.743C161.273 352.079 161.31 352.674 161.156 352.751C160.339 353.148 160.742 353.921 160.483 354.496C161.49 354 162.458 353.43 163.38 352.792C163.546 352.653 163.683 352.483 163.783 352.292C163.882 352.1 163.943 351.891 163.962 351.676C164.009 350.446 163.921 349.212 163.908 347.979C163.898 346.604 163.908 345.23 163.908 343.734V343.733ZM158.194 357.544C158.103 358.381 157.982 359.504 157.858 360.603C158.02 360.657 158.077 360.7 158.13 360.694C160.051 360.532 161.515 359.299 163.172 358.526C163.315 358.41 163.41 358.244 163.437 358.062C163.774 356.717 164.078 355.373 164.372 354.132L158.194 357.544ZM153.802 346.66C152.121 346.945 150.679 347.204 149.22 347.446C148.73 347.527 148.316 347.624 148.111 348.192C147.987 348.456 147.956 348.755 148.023 349.039C148.09 349.324 148.252 349.577 148.481 349.758C149.153 350.32 149.879 351.059 150.884 350.659C151.514 350.397 152.086 350.013 152.566 349.528C153.046 349.044 153.425 348.468 153.68 347.835C153.775 347.451 153.814 347.055 153.794 346.659L153.802 346.66ZM132.26 348.303C130.26 347.494 128.357 346.942 126.331 347.535C127.296 348.419 128.478 348.1 129.596 348.16C130.121 348.226 130.638 348.339 131.143 348.496L131.119 348.752L132.26 348.303ZM165.276 355.597L165.632 355.641C165.686 354.844 165.743 354.048 165.797 353.248L165.461 353.224L165.276 355.597Z" fill="black"/>
<path d="M131.564 206.834C130.875 206.773 130.757 206.199 130.757 205.613C130.757 203.086 130.757 200.572 130.821 198.041C130.821 197.721 131.177 197.184 131.416 197.154C131.893 197.097 132.048 197.527 132.056 198.024C132.1 200.713 132.335 203.402 132.184 206.064C132.107 207.446 132.437 208.803 132.157 210.188C131.869 211.643 131.821 213.142 131.645 214.621C131.469 216.1 131.325 217.562 131.161 219.031C130.657 223.48 130.112 227.93 129.662 232.381C129.353 235.406 129.226 238.431 128.926 241.435C128.375 246.971 127.831 252.507 127.138 258.023C126.603 262.261 125.877 266.479 125.178 270.694C124.479 274.909 123.689 279.201 122.937 283.466C122.285 287.163 121.616 290.86 120.991 294.585C120.542 297.274 120.164 299.963 119.73 302.652C119.361 304.974 118.907 307.284 118.578 309.613C118.065 313.256 117.64 316.912 117.149 320.557C116.843 322.833 116.445 325.095 116.168 327.37C115.831 330.032 115.633 332.711 115.301 335.373C115.268 335.611 115.181 335.837 115.046 336.036C114.911 336.234 114.733 336.398 114.524 336.516C113.852 336.688 113.445 336.086 113.425 335.488C113.409 334.52 113.461 333.552 113.583 332.591C113.818 330.305 114.064 328.023 114.356 325.744C114.635 323.568 115.004 321.405 115.297 319.23C115.818 315.392 116.262 311.543 116.83 307.712C117.502 303.102 118.285 298.503 119.028 293.898C119.636 290.12 120.238 286.349 120.88 282.577C121.283 280.191 121.787 277.818 122.184 275.428C122.638 272.712 122.991 269.98 123.438 267.264C123.774 265.22 124.221 263.194 124.557 261.147C124.933 258.855 125.296 256.559 125.565 254.253C125.901 251.346 126.1 248.427 126.386 245.514C126.913 240.17 127.394 234.822 128.023 229.492C128.379 226.41 128.991 223.358 129.431 220.282C130.023 216.145 130.557 212.001 131.136 207.847C131.238 207.493 131.382 207.153 131.564 206.834Z" fill="black"/>
<path d="M172.57 66.5987C173.054 65.315 173.461 64.2457 173.854 63.1771C174.029 62.6931 174.298 62.1924 174.863 62.4728C175.098 62.5939 175.199 63.2527 175.138 63.6189C174.945 64.3505 174.703 65.0679 174.412 65.7664C174.557 65.7874 174.704 65.7874 174.849 65.7664C176.315 65.1901 177.602 65.8502 178.114 67.7512C178.746 70.1041 177.822 71.9423 176.024 73.4284C175.91 73.5257 175.768 73.5897 175.644 73.6806C175.221 73.9963 174.505 74.2652 174.434 74.6487C174.327 75.6535 174.308 76.6658 174.377 77.674C176.418 77.0222 176.774 77.2136 177.554 79.0185C177.859 79.6087 178.195 80.1821 178.562 80.7363C178.807 81.1595 179.056 81.7447 178.538 81.9836C178.314 82.0763 178.071 82.1131 177.83 82.0908C177.589 82.0685 177.356 81.9877 177.153 81.8555C176.519 81.0413 175.948 80.1795 175.446 79.2778C175.503 79.2778 175.446 79.2573 175.392 79.2778C173.563 80.1044 172.959 79.7414 172.939 77.7412C172.939 76.8672 173.016 75.9901 173.06 75.0521C172.051 74.8907 170.993 74.796 169.986 74.5347C169.566 74.4772 169.171 74.3016 168.847 74.0285C168.523 73.7554 168.283 73.3958 168.155 72.9917C168.115 72.8183 168.114 72.6384 168.15 72.4643C168.187 72.2903 168.261 72.1262 168.366 71.9833C168.683 71.8175 169.052 71.7814 169.395 71.8828C170.363 72.0749 171.315 72.5551 172.272 72.5346C174.416 72.5179 176.52 70.4608 176.345 68.4305C176.308 67.9938 175.932 67.2473 175.673 67.237C175.087 67.2166 174.516 67.4183 174.072 67.8017C173.471 68.4036 172.368 68.8102 171.72 68.3325C170.405 67.3984 169.084 66.4706 167.827 65.4654C166.139 64.1845 164.692 62.6141 163.552 60.8274C163.36 60.4912 162.92 60.3433 162.611 60.0879C162.295 59.8685 162.01 59.6072 161.764 59.3112C161.38 58.7568 161.092 58.128 160.756 57.5601C160.115 56.5517 159.287 55.9735 158.003 56.3705C157.588 56.4803 157.155 56.4997 156.732 56.4275C156.476 56.3904 156.036 56.1253 156.06 55.9972C156.087 55.7046 156.292 55.2443 156.514 55.1873C157.609 54.9017 158.736 54.7238 159.875 54.515C158.608 51.0326 157.613 47.4132 158.45 43.4001C158.108 43.4872 157.772 43.5971 157.445 43.7292C154.141 45.4736 151.408 48.1299 149.57 51.3822C149.476 51.5468 149.338 51.7517 149.368 51.913C149.479 52.5853 149.368 52.9617 148.564 52.9752C148.333 52.9752 148.144 53.4656 147.872 53.6155C147.536 53.8037 147.015 54.0726 146.784 53.9516C146.647 53.8083 146.543 53.6379 146.477 53.4515C146.41 53.2651 146.384 53.0668 146.4 52.8696C146.496 52.4029 146.653 51.9508 146.867 51.525C146.321 51.022 145.802 50.4913 145.311 49.9352C145.133 49.7201 145.146 49.3436 145.072 49.0389C145.395 48.9827 145.726 49.0022 146.04 49.0958C146.659 49.5097 147.253 49.9586 147.821 50.4404C149.854 46.948 152.96 44.2051 156.677 42.6196C154.788 42.1893 153.212 42.7304 151.652 43.2445C148.939 44.0573 146.36 45.267 144 46.8344C143.849 46.8903 143.688 46.9087 143.528 46.8882C143.369 46.8677 143.217 46.8088 143.086 46.7166C142.997 46.5292 142.949 46.3254 142.944 46.1183C142.939 45.9111 142.977 45.7052 143.056 45.5136C143.487 44.9716 144.016 44.5155 144.615 44.169C147.459 42.5054 150.602 41.415 153.865 40.9594C155.157 40.8821 156.452 41.0416 157.687 41.43C158.375 41.6796 159.001 42.0724 159.526 42.5825C159.684 42.7105 159.63 43.1587 159.599 43.4462C159.31 45.6807 159.458 47.9501 160.036 50.1279C161.063 53.6004 162.719 56.8544 164.923 59.7274C167.021 62.5138 169.683 64.5006 172.57 66.5987Z" fill="black"/>
<path d="M191.207 60.0133C191.382 56.3158 190.01 53.1536 188.316 50.0073C187.304 47.9235 185.939 46.0301 184.282 44.4108C182.696 42.9888 180.982 41.5571 178.874 40.8612C177.17 40.2778 175.436 39.782 173.681 39.3758C172.683 39.2489 171.675 39.2197 170.672 39.2887C170.585 39.2887 170.483 39.3694 170.41 39.3425C169.969 39.1843 169.193 39.0633 169.159 38.8303C169.042 38.1112 169.754 38.158 170.248 38.0844C174.484 37.4514 178.806 38.3813 182.407 40.7005C184.722 42.0195 186.728 43.8175 188.292 45.9743C189.623 47.9818 190.789 50.0939 191.778 52.2899C192.431 53.741 192.899 55.2682 193.173 56.8357C193.583 59.2629 193.402 61.7533 192.646 64.0957C191.389 68.3137 188.948 71.8499 186.239 75.2145C184.646 77.1807 182.989 79.0964 181.332 81.0088C181.079 81.3374 180.724 81.5736 180.324 81.6811C180.118 81.7028 179.909 81.6781 179.714 81.6088C179.518 81.5396 179.341 81.4276 179.194 81.2809C179.122 81.0976 179.096 80.8995 179.119 80.7038C179.141 80.5082 179.211 80.321 179.322 80.1586C181.584 77.3414 184.095 74.7035 186.125 71.7359C188.041 68.9431 190.132 66.1432 190.682 62.6205C190.81 61.7472 191.025 60.8835 191.207 60.0133Z" fill="black"/>
<path d="M166.61 250.838C166.358 251.315 166.153 251.786 165.878 252.206C164.641 254.095 163.333 255.944 162.14 257.86C160.843 259.944 159.616 262.075 158.406 264.209C157.397 265.987 156.493 267.826 155.485 269.588C154.043 272.132 152.54 274.629 151.079 277.173C150.081 278.897 149.101 280.63 148.138 282.373C147.924 282.835 147.734 283.309 147.57 283.791C147.495 284.022 147.381 284.238 147.234 284.431C146.86 284.825 146.36 285.322 145.873 284.865C145.689 284.675 145.555 284.443 145.48 284.19C145.406 283.936 145.394 283.669 145.446 283.41C146.092 281.945 146.828 280.52 147.647 279.144C148.944 276.912 150.336 274.741 151.65 272.519C153.955 268.617 156.126 264.634 158.533 260.795C160.439 257.77 162.614 254.88 164.667 251.932C165.02 251.42 165.339 250.887 165.722 250.407C165.809 250.337 165.91 250.289 166.019 250.266C166.127 250.243 166.239 250.245 166.347 250.272C166.462 250.324 166.519 250.616 166.61 250.838Z" fill="black"/>
<path d="M170.445 176.574C170.076 174.642 169.722 172.877 169.41 171.092C169.373 170.88 169.534 170.452 169.655 170.42C169.792 170.395 169.932 170.402 170.066 170.441C170.199 170.479 170.321 170.548 170.424 170.642C170.779 171.135 171.039 171.69 171.192 172.279C171.612 174.406 171.951 176.55 172.311 178.688C172.359 178.865 172.352 179.053 172.291 179.226C172.106 179.586 171.911 180.14 171.618 180.204C170.997 180.339 170.771 179.808 170.698 179.25C170.654 178.894 170.59 178.54 170.55 178.271C168.809 178.073 167.131 177.858 165.454 177.69C163.498 177.498 161.542 177.294 159.579 177.178C155.795 176.946 152.168 177.995 148.488 178.7C147.905 178.84 147.34 179.049 146.807 179.322C146.343 179.534 145.829 179.642 145.644 179.134C145.56 178.905 145.96 178.28 146.266 178.159C147.626 177.607 149.019 177.139 150.437 176.758C152.082 176.305 153.757 175.969 155.448 175.749C157.525 175.49 159.618 175.391 161.71 175.454C164.265 175.571 166.805 175.978 169.354 176.271C169.725 176.35 170.091 176.453 170.449 176.577L170.445 176.574Z" fill="black"/>
<path d="M139.181 270.549C139.604 269.786 140.1 269.065 140.663 268.398C143.271 265.891 145.915 263.426 148.595 261.004C150.464 259.307 152.375 257.655 154.329 256.046C157.082 253.781 159.9 251.596 162.678 249.354C163.351 248.806 163.945 248.144 164.628 247.593C164.976 247.371 165.351 247.195 165.744 247.068C165.623 247.453 165.616 247.953 165.36 248.201C163.679 249.831 161.998 251.438 160.268 252.991C158.347 254.709 156.365 256.352 154.423 258.032C152.114 260.049 149.785 262.029 147.532 264.103C145.599 265.881 143.755 267.752 141.902 269.609C141.536 269.923 141.275 270.342 141.153 270.809C141.153 270.921 141.128 271.032 141.078 271.132C141.028 271.233 140.955 271.32 140.865 271.387C140.775 271.454 140.67 271.499 140.56 271.518C140.449 271.537 140.335 271.53 140.228 271.498C139.847 271.39 139.574 270.93 139.181 270.549Z" fill="black"/>
<path d="M156.914 82.2136C154.83 82.2136 152.806 82.1163 150.793 82.2476C149.974 82.3319 149.149 82.1482 148.442 81.7239C147.735 81.2997 147.185 80.6578 146.874 79.8946C146.631 79.2153 146.443 78.5172 146.313 77.8073C146.265 77.5416 146.464 77.2311 146.552 76.9404C146.84 77.0313 147.14 77.1018 147.419 77.2196C147.502 77.2535 147.57 77.4078 147.59 77.5154C148.004 80.0163 149.711 80.2749 151.816 80.1001C153.624 79.949 155.453 80.0495 157.271 80.0028C157.929 79.9606 158.584 79.8833 159.234 79.771C159.874 79.684 160.501 79.8216 160.616 80.4804C160.646 80.6175 160.644 80.7596 160.611 80.896C160.578 81.0324 160.515 81.1595 160.425 81.2677C160.336 81.3758 160.223 81.4622 160.095 81.5203C159.968 81.5783 159.828 81.6066 159.688 81.6028C159.228 81.6691 158.773 81.769 158.327 81.9018L158.898 84.2548C158.982 84.5156 159.048 84.7817 159.096 85.0513C159.12 85.1817 159.117 85.3155 159.088 85.4449C159.06 85.5743 159.006 85.6968 158.93 85.8055C158.854 85.9141 158.758 86.0067 158.646 86.078C158.535 86.1493 158.41 86.1979 158.279 86.221C158.014 86.255 157.489 85.737 157.405 85.3887C157.156 84.3444 157.069 83.279 156.914 82.2136Z" fill="black"/>
<path d="M167.813 202.706C168.187 201.463 168.532 200.401 168.822 199.322C169.642 196.296 170.432 193.272 171.255 190.247C171.452 189.486 171.699 188.739 171.994 188.011C172.105 187.746 172.462 187.581 172.707 187.371C172.861 187.684 173.194 188.027 173.147 188.305C172.922 189.583 172.583 190.839 172.304 192.106C171.652 195.078 171.03 198.056 170.351 201.023C170.162 201.739 169.9 202.434 169.571 203.097C169.535 203.207 169.474 203.307 169.393 203.389C169.312 203.471 169.213 203.533 169.103 203.57C168.994 203.607 168.877 203.618 168.763 203.601C168.649 203.585 168.54 203.543 168.445 203.477C168.194 203.256 167.981 202.995 167.816 202.704L167.813 202.706Z" fill="black"/>
<path d="M145.117 185.325C145.129 185.241 145.155 185.159 145.195 185.083C145.387 184.798 145.601 184.518 145.806 184.239C146.018 184.522 146.354 184.777 146.425 185.09C146.809 186.854 147.14 188.629 147.47 190.404C147.801 192.465 148.584 194.428 149.762 196.151C150.098 196.608 150.403 197.16 149.813 197.596C149.223 198.033 148.724 197.596 148.324 197.163C147.156 195.856 146.411 194.227 146.186 192.489C145.782 190.207 145.514 187.898 145.194 185.599C145.174 185.506 145.148 185.415 145.117 185.325Z" fill="black"/>
<path d="M161.999 166.379H158.944C158.447 166.379 157.906 166.285 158.043 165.687C158.129 165.493 158.259 165.321 158.421 165.184C158.584 165.047 158.775 164.949 158.981 164.897C159.821 164.743 160.67 164.642 161.522 164.595C161.522 163.654 160.69 162.777 161.442 161.906C162.286 161.882 162.541 162.474 162.816 163.122C163.121 163.761 163.457 164.384 163.825 164.988C163.892 165.109 164.034 165.267 164 165.348C163.499 166.508 164.154 167.607 164.14 168.736C164.178 169.064 164.156 169.395 164.076 169.715C163.889 170.06 163.664 170.384 163.404 170.679C163.115 170.37 162.661 170.103 162.572 169.749C162.315 168.668 162.191 167.563 161.999 166.379Z" fill="black"/>
<path d="M157.882 201.076C157.384 201.016 156.892 200.917 156.409 200.78C156.307 200.713 156.223 200.623 156.165 200.516C156.106 200.41 156.075 200.29 156.073 200.168C156.073 199.967 156.386 199.607 156.51 199.627C158.255 199.92 159.175 198.549 160.392 197.765C161.514 197.046 162.678 196.391 163.817 195.695C164.338 195.375 164.845 195.473 165.037 195.98C165.065 196.174 165.046 196.371 164.98 196.555C164.915 196.739 164.805 196.904 164.66 197.036C162.832 198.319 160.963 199.553 159.081 200.756C158.699 200.921 158.295 201.028 157.882 201.076Z" fill="black"/>
<path d="M150.587 74.7329C149.001 74.3231 147.405 73.9563 145.842 73.469C145.482 73.3615 144.975 72.7968 145.018 72.5278C145.105 71.9159 145.388 71.3486 145.825 70.9112C146.228 70.5552 146.561 71.0488 146.497 71.4791C146.403 72.1514 146.702 72.3499 147.28 72.4036C148.746 72.5483 150.211 72.6789 151.649 72.8845C152.073 73.0102 152.477 73.1947 152.849 73.4325C152.558 73.7967 152.219 74.1197 151.841 74.3929C151.447 74.53 151.034 74.6016 150.617 74.6049L150.587 74.7329Z" fill="black"/>
<path d="M161.36 37C162.818 37.2721 164.136 37.484 165.434 37.7798C165.81 37.8733 166.138 38.1033 166.354 38.4252C166.424 38.5901 166.459 38.7672 166.459 38.9461C166.459 39.125 166.424 39.302 166.354 39.4669C166.3 39.595 165.783 39.6552 165.534 39.5745C163.764 38.893 161.873 38.5797 159.978 38.6538C159.712 38.6775 159.44 38.8459 159.195 38.8049C158.95 38.7639 158.58 38.5968 158.523 38.3983C158.521 38.2639 158.554 38.1312 158.618 38.0134C158.683 37.8956 158.777 37.7965 158.892 37.7261C159.709 37.4303 160.573 37.2215 161.36 37Z" fill="black"/>
<path d="M181.188 194.844C181.753 195.127 182.289 195.465 182.788 195.852C183.721 196.884 184.878 197.689 186.169 198.205C186.442 198.302 186.586 198.77 186.791 199.066C186.455 199.214 186.119 199.509 185.81 199.486C185.114 199.431 184.439 199.219 183.837 198.865C183.236 198.511 182.723 198.024 182.337 197.442C182.085 197.026 181.766 196.655 181.393 196.343C180.838 195.993 180.764 195.607 181.188 194.844Z" fill="black"/>
<path d="M176.442 85.2177C176.257 85.4565 176.068 85.9271 175.746 86.0546C175.198 86.2729 174.778 85.8625 174.707 85.3355C174.539 84.0921 174.435 82.8347 174.371 81.581C174.371 81.3998 174.707 81.1175 174.956 81.0432C175.084 81.0029 175.443 81.2654 175.493 81.4466C175.83 82.6298 176.102 83.8399 176.442 85.2177Z" fill="black"/>
<path d="M146.242 68.6916C145.066 68.5943 143.19 66.6044 143.217 65.6497C143.222 65.5337 143.253 65.4203 143.307 65.3175C143.361 65.2147 143.437 65.125 143.53 65.0549C143.646 65.0098 143.772 64.9921 143.896 65.0032C144.021 65.0143 144.142 65.0539 144.249 65.119C145.096 65.8687 145.929 66.6485 146.699 67.4719C146.784 67.5825 146.841 67.7124 146.865 67.8502C146.888 67.9879 146.877 68.1294 146.833 68.262C146.726 68.4906 146.37 68.6109 146.242 68.6916Z" fill="black"/>
<path d="M158.541 64.0091C158.388 63.9893 158.242 63.9398 158.108 63.8632C157.975 63.7866 157.859 63.6846 157.765 63.5628C157.671 63.4411 157.602 63.3021 157.563 63.1538C157.523 63.0055 157.512 62.8508 157.532 62.6985C157.578 62.388 157.722 62.1003 157.942 61.8772C158.163 61.6541 158.449 61.5073 158.759 61.4583C158.902 61.4409 159.046 61.4555 159.182 61.5009C159.319 61.5463 159.443 61.6214 159.547 61.7208C159.65 61.8202 159.73 61.9414 159.781 62.0756C159.832 62.2098 159.853 62.3537 159.841 62.4968C159.838 62.862 159.706 63.2144 159.468 63.4913C159.23 63.7682 158.901 63.9517 158.541 64.0091Z" fill="black"/>
<path d="M147.816 56.4105C147.816 57.5866 147.208 58.4273 146.579 58.3697C145.95 58.3121 145.708 57.8959 145.725 57.2908C145.742 56.5917 146.398 55.6102 146.845 55.7414C147.205 55.9068 147.533 56.1332 147.816 56.4105Z" fill="black"/>
<path d="M181.147 156.441C179.466 155.937 177.927 155.432 176.354 155.012C176.074 154.938 175.466 155.12 175.433 155.274C175.404 155.794 175.451 156.314 175.574 156.82L173.557 156.941C170.868 157.099 168.149 157.224 165.447 157.425C162.23 157.66 159.017 157.963 155.801 158.238C153.293 158.45 150.789 158.702 148.278 158.87C144.843 159.099 141.405 159.277 137.97 159.447C135.509 159.568 133.053 159.668 130.575 159.719C128.918 159.753 127.261 159.655 125.608 159.668C123.618 159.668 121.632 159.765 119.642 159.786C119.232 159.786 118.818 159.587 118.415 159.614C117.447 159.678 117.198 159.114 117.242 158.334C117.38 155.585 117.44 152.822 117.732 150.086C118.109 146.577 118.684 143.085 119.168 139.586C119.249 139.031 119.453 138.817 120.075 139.021C121.954 139.636 123.84 140.231 125.745 140.745C127.278 141.159 128.844 141.444 130.478 141.807C130.141 143.206 129.805 144.685 129.449 146.161C129.422 146.266 129.248 146.329 129.18 146.433C129.022 146.686 128.71 147.042 128.787 147.189C128.874 147.321 128.988 147.433 129.122 147.516C129.256 147.599 129.407 147.652 129.564 147.67C132.017 147.794 134.475 147.912 136.927 147.956C141.199 148.029 145.474 147.956 149.739 148.12C153.362 148.248 156.986 148.534 160.595 148.893C162.72 149.101 164.81 149.633 166.934 149.942C168.362 150.151 169.815 150.184 171.253 150.379C172.312 150.523 173.348 150.819 174.4 151.014C174.716 151.108 175.054 151.108 175.371 151.014C177.388 150.032 179.404 148.997 181.421 147.988C181.928 147.736 182.429 147.179 182.98 147.958C183 147.981 183.025 147.998 183.053 148.009C183.082 148.019 183.112 148.023 183.142 148.019C184.081 147.662 184.988 147.224 185.851 146.708C186.381 146.342 187.669 145.68 188.307 145.895C188.825 146.073 188.795 146.412 188.435 146.705C188.083 146.98 187.702 147.218 187.3 147.414C186.328 147.901 185.347 148.369 184.359 148.823C183.27 149.327 183.041 150.026 183.014 151.266C183.014 152.052 182.483 152.832 182.191 153.619C181.863 154.545 181.503 155.49 181.147 156.441Z" fill="white"/>
<path d="M183.81 108.817C183.618 110.948 183.426 112.747 183.302 114.551C183.127 117.109 183.017 119.674 182.862 122.235C182.781 123.579 182.643 124.924 182.576 126.291C182.488 128.032 182.455 129.777 182.374 131.518C182.35 132.24 182.276 132.96 182.153 133.672C182.115 134.065 181.951 134.435 181.686 134.727C181.42 135.019 181.068 135.217 180.68 135.292C179.134 135.605 177.592 135.941 176.045 136.253C175.165 136.431 174.281 136.589 173.39 136.733C169.216 137.382 165.044 138.051 160.864 138.643C158.098 139.036 155.311 139.268 152.545 139.651C151.136 139.85 149.745 140.236 148.346 140.535C147.905 140.659 147.456 140.751 147.002 140.811C145.805 140.899 145.167 140.075 145.273 138.872C145.488 136.439 145.566 133.998 145.801 131.573C145.972 129.768 146.285 127.977 146.56 126.195C147.21 121.962 147.868 117.733 148.533 113.507C148.572 113.064 148.672 112.628 148.829 112.213C148.972 111.882 149.241 111.621 149.575 111.487C153.42 110.629 157.268 109.766 161.138 109.023C162.956 108.687 164.835 108.603 166.67 108.351C167.474 108.246 168.253 107.991 169.053 107.863C172.307 107.339 175.563 106.815 178.824 106.351C179.782 106.242 180.748 106.214 181.711 106.267C182 106.26 182.283 106.351 182.515 106.524C182.746 106.697 182.913 106.943 182.988 107.222C183.217 107.776 183.492 108.31 183.81 108.817ZM169.384 123.684C171.324 121.845 173.226 120.117 175.038 118.305C177.236 116.114 179.538 114 181.088 111.247C181.118 111.195 181.156 111.147 181.201 111.106C181.645 110.703 182.122 110.33 182.526 109.89C182.748 109.591 182.937 109.269 183.09 108.929C182.623 108.701 182.156 108.284 181.686 108.281C180.206 108.283 178.727 108.363 177.256 108.52C176.821 108.579 176.416 108.777 176.103 109.084C174.301 110.896 172.54 112.748 170.772 114.591C169.717 115.686 168.675 116.792 167.613 117.885C166.883 118.634 166.13 119.357 165.431 120.053C163.936 118.9 162.55 117.876 161.205 116.782C159.757 115.602 158.068 114.669 157.172 112.91C157.106 112.813 157.019 112.732 156.917 112.673C156.815 112.615 156.701 112.581 156.583 112.574C154.718 112.665 152.853 112.762 150.997 112.95C150.712 112.98 150.421 113.437 150.251 113.76C150.204 113.848 150.56 114.187 150.772 114.368C151.32 114.845 151.905 115.279 152.453 115.767C154.362 117.491 156.258 119.236 158.167 120.966C159.28 121.975 160.402 122.983 161.496 123.958C159.708 125.897 157.95 127.803 156.189 129.705C155.699 130.236 155.234 130.798 154.704 131.289C152.983 132.885 151.215 134.435 149.517 136.055C149.389 136.208 149.297 136.388 149.25 136.582C149.203 136.777 149.201 136.979 149.245 137.174C149.353 137.321 149.496 137.439 149.661 137.517C149.826 137.594 150.008 137.629 150.19 137.618C152.294 137.233 154.391 136.781 156.478 136.31C156.793 136.197 157.07 136.001 157.282 135.742C158.422 134.569 159.544 133.389 160.666 132.189C162.235 130.525 163.803 128.859 165.372 127.192C167.577 129.007 169.586 130.637 171.566 132.304C172.319 132.936 173.247 133.346 173.714 134.361C173.846 134.633 174.071 134.85 174.347 134.973C174.624 135.095 174.935 135.117 175.226 135.033C176.699 134.644 178.194 134.318 179.659 133.894C179.764 133.781 179.838 133.644 179.875 133.494C179.912 133.345 179.911 133.189 179.871 133.04C179.536 132.557 179.137 132.122 178.685 131.746C177.034 130.315 175.355 128.92 173.703 127.488C172.231 126.248 170.833 124.974 169.378 123.68L169.384 123.684Z" fill="white"/>
<path d="M187.607 231.024L179.54 220.537L182.733 219.37C183.459 220.546 184.212 221.602 184.793 222.731C185.818 224.748 186.739 226.798 187.698 228.838C187.798 229.05 187.808 229.309 187.926 229.511C188.025 229.623 188.096 229.758 188.134 229.903C188.172 230.048 188.176 230.2 188.145 230.347C188.114 230.493 188.049 230.631 187.956 230.748C187.863 230.866 187.743 230.96 187.607 231.024Z" fill="white"/>
<path d="M174.893 221.673L178.005 220.859C178.325 222.274 178.623 223.656 178.946 225.031C179.504 227.407 180.065 229.783 180.654 232.15C180.795 232.718 180.728 233.104 180.059 233.259L174.893 221.673Z" fill="white"/>
<path d="M135.691 169.169V165.697L139.573 165.156V168.262L135.691 169.169Z" fill="white"/>
<path d="M200.588 148.277C200.131 149.571 198.051 150.389 196.931 149.759C196.369 149.439 196.669 149.087 196.931 148.804C197.388 148.311 198 147.989 198.666 147.893C199.332 147.797 200.01 147.933 200.588 148.277Z" fill="white"/>
<path d="M199.408 151.342C199.459 151.359 199.892 151.406 199.916 151.534C199.953 151.689 199.958 151.85 199.93 152.007C199.902 152.164 199.841 152.313 199.751 152.445C198.895 153.267 197.759 153.736 196.572 153.756C196.068 153.772 195.995 153.322 196.293 152.987C197.065 152.118 197.912 151.332 199.408 151.342Z" fill="white"/>
<path d="M199.66 146.173L197.441 144.946C198.174 143.911 199.193 143.461 199.727 143.858C200.262 144.255 200.298 145.286 199.66 146.173Z" fill="white"/>
<path d="M188.652 174.096C188.965 174.65 189.196 175.007 189.368 175.386C189.589 175.874 189.764 176.395 189.997 176.973H187.382C187.782 176.072 188.175 175.175 188.652 174.096Z" fill="white"/>
<path d="M196.538 155.257C196.699 156.601 196 157.388 194.105 158.036C193.896 156.995 194.985 155.727 196.538 155.257Z" fill="white"/>
<path d="M194.551 354.433C194.167 353.69 193.61 353.657 192.871 353.976C191.499 354.552 190.108 355.102 188.69 355.546C187.861 355.741 187.018 355.868 186.169 355.926V348.534C189.866 350.391 193.432 350.036 197.176 348.453C196.75 350.887 197.221 353.29 194.551 354.433Z" fill="white"/>
<path d="M184.586 355.986L177.863 354.77C178.344 352.061 178.808 349.439 179.285 346.74C180.348 347.114 181.302 347.473 182.266 347.779C182.948 348.002 183.646 348.17 184.354 348.283C185.026 348.38 184.969 348.731 184.935 349.247C184.791 351.426 184.704 353.613 184.586 355.986Z" fill="white"/>
<path d="M188.931 357.542C188.547 358.806 188.222 359.925 187.853 361.034C187.794 361.117 187.717 361.185 187.627 361.233C187.537 361.28 187.437 361.305 187.335 361.306C185.073 361.215 182.784 361.269 180.612 360.459C180.276 360.331 180.011 359.975 179.688 359.767C179.359 359.555 179.016 359.367 178.66 359.205C178.233 359.001 177.47 358.89 177.423 358.629C177.336 357.887 177.373 357.135 177.533 356.404C177.533 356.31 178.11 356.196 178.377 356.263C179.504 356.543 180.612 356.904 181.739 357.205C183.836 357.819 186.049 357.935 188.199 357.541C188.443 357.523 188.688 357.524 188.931 357.542Z" fill="white"/>
<path d="M200.434 350.377C200.485 352.192 199.426 353.258 198.417 354.121C196.768 355.517 194.991 356.755 193.11 357.819C192.239 358.326 191.093 358.331 190.025 358.572C189.978 358.182 189.924 357.725 189.88 357.355L194.343 355.338C194.827 355.833 195.392 355.631 195.994 355.13C196.475 354.733 197.042 354.457 197.546 354.078C197.744 353.951 197.893 353.762 197.97 353.54C198.267 352.118 199.526 351.533 200.434 350.377Z" fill="white"/>
<path d="M198.195 348.451L201.167 347.305L201.281 347.406L198.403 350.784C198.323 349.879 198.263 349.187 198.195 348.451Z" fill="white"/>
<path d="M201.893 346.995L203.321 346.131C203.953 347.271 202.861 347.573 202.356 348.299C202.181 347.808 202.051 347.431 201.893 346.995Z" fill="white"/>
<path d="M148.541 357.334C148.415 357.014 148.182 356.748 147.882 356.581C147.581 356.415 147.232 356.357 146.894 356.419C145.481 356.474 144.073 356.611 142.676 356.829C140.065 357.37 137.352 357.137 134.872 356.157C134.391 355.975 133.864 355.871 133.42 355.649C133.08 355.44 132.697 355.309 132.3 355.266C131.903 355.224 131.501 355.271 131.125 355.404C130.5 355.633 129.652 355.28 128.91 355.129C127.48 354.91 126.069 354.583 124.689 354.15C123.52 353.616 122.402 352.977 121.348 352.241C120.836 351.929 120.339 351.532 119.923 352.349C119.307 351.908 119.499 351.576 119.839 351.028C120.25 350.301 120.836 349.688 121.545 349.245C122.254 348.803 123.062 348.545 123.895 348.494C124.134 348.474 124.359 348.238 124.591 348.101L125.791 347.397C125.838 348.785 126.604 349.078 127.546 349.148C127.788 350.261 128.282 350.785 128.991 350.697C129.699 350.61 130.05 350.121 129.942 349.192C129.989 349.161 130.06 349.087 130.076 349.101C131.118 349.752 132.317 349.38 133.438 349.585C133.882 349.665 134.601 349.689 134.799 349.434C135.552 348.469 136.51 348.64 137.461 348.741C140.527 349.078 143.528 348.6 146.536 348.045L146.916 347.981C146.954 348.059 146.98 348.143 146.99 348.23C146.846 350.189 148.227 351.628 150.163 352.068C152.291 352.552 153.061 350.986 154.109 349.847C154.523 349.368 154.808 348.793 154.939 348.175C155.069 347.556 155.04 346.915 154.855 346.31L159.081 345.003C159.504 348.414 160.089 351.726 159.209 355.2C156.413 355.822 153.558 356.138 150.694 356.142C150.25 356.142 149.797 356.101 149.349 356.142C148.603 356.206 148.657 356.868 148.505 357.365L148.541 357.334Z" fill="white"/>
<path d="M134.522 358.291C133.631 358.204 132.744 358.099 131.833 358.043C131.557 358.068 131.286 358.135 131.029 358.241C131.13 358.537 131.164 359.034 131.35 359.098C132.237 359.419 133.15 359.664 134.079 359.831C135.985 360.167 137.907 360.402 139.82 360.681V360.913C139.574 360.962 139.324 360.991 139.074 361.001C135.872 360.886 132.664 360.866 129.474 360.594C127.975 360.466 126.52 359.855 125.047 359.451C124.039 359.176 123.031 358.921 122.056 358.577C121.635 358.348 121.243 358.069 120.89 357.745C122.13 358.081 123.171 358.437 124.251 358.649C125.307 358.851 126.377 358.974 127.452 359.018C127.788 359.018 128.144 358.719 128.494 358.555C128.188 358.28 127.918 357.846 127.566 357.758C125.983 357.374 124.365 357.118 122.78 356.75C121.137 356.36 120.195 355.12 119.486 353.702C119.358 353.436 119.486 353.029 119.53 352.535C121.002 354.4 122.518 355.681 124.766 355.916C126.897 356.142 129.022 356.471 131.152 356.827C131.656 357.01 132.144 357.235 132.611 357.5C133.246 357.732 133.905 357.884 134.557 358.071L134.522 358.291Z" fill="white"/>
<path d="M163.912 343.731V347.976C163.912 349.206 164.013 350.44 163.965 351.674C163.947 351.889 163.886 352.098 163.786 352.29C163.686 352.482 163.55 352.651 163.384 352.79C162.461 353.428 161.493 353.998 160.487 354.494C160.743 353.917 160.339 353.149 161.159 352.75C161.313 352.676 161.277 352.077 161.229 351.741C160.893 349.388 160.53 347.036 160.164 344.609L163.912 343.731Z" fill="white"/>
<path d="M158.192 357.544L164.373 354.133C164.08 355.373 163.768 356.721 163.439 358.062C163.411 358.244 163.316 358.41 163.173 358.526C161.516 359.298 160.054 360.542 158.131 360.694C158.038 360.672 157.947 360.642 157.859 360.603C157.98 359.503 158.117 358.38 158.192 357.544Z" fill="white"/>
<path d="M153.798 346.655C153.819 347.051 153.778 347.448 153.677 347.831C153.422 348.464 153.043 349.04 152.563 349.524C152.083 350.009 151.511 350.393 150.881 350.655C149.872 351.055 149.163 350.319 148.478 349.754C148.248 349.573 148.087 349.32 148.02 349.036C147.953 348.751 147.984 348.452 148.108 348.188C148.313 347.62 148.727 347.516 149.217 347.442C150.676 347.199 152.131 346.941 153.798 346.655Z" fill="white"/>
<path d="M148.514 357.347C150.138 358.168 151.835 357.939 153.555 357.741C154.651 357.613 155.76 357.576 156.98 357.488C156.94 357.932 156.907 358.305 156.879 358.611C151.615 358.305 146.459 358.812 141.273 359.041L141.243 358.793C142.8 358.486 144.355 358.184 145.908 357.875L148.553 357.334L148.514 357.347Z" fill="white"/>
<path d="M132.257 348.299L131.117 348.756L131.141 348.5C130.636 348.343 130.119 348.231 129.594 348.164C128.475 348.104 127.289 348.42 126.329 347.539C128.354 346.938 130.257 347.489 132.257 348.299Z" fill="white"/>
<path d="M165.272 355.593L165.461 353.22L165.797 353.243C165.743 354.043 165.686 354.84 165.632 355.637L165.272 355.593Z" fill="white"/>
<path d="M169.384 123.684C170.839 124.978 172.248 126.252 173.682 127.495C175.333 128.927 177.012 130.322 178.664 131.754C179.116 132.129 179.515 132.564 179.85 133.048C179.964 133.226 179.79 133.858 179.638 133.901C178.173 134.324 176.68 134.651 175.205 135.041C174.914 135.124 174.603 135.103 174.326 134.98C174.05 134.857 173.825 134.64 173.693 134.369C173.232 133.36 172.297 132.943 171.545 132.311C169.565 130.631 167.556 129.014 165.351 127.199C163.782 128.864 162.214 130.53 160.645 132.197C159.523 133.386 158.4 134.577 157.261 135.75C157.049 136.008 156.772 136.204 156.457 136.318C154.37 136.788 152.273 137.238 150.169 137.625C149.987 137.636 149.805 137.602 149.64 137.524C149.475 137.447 149.332 137.329 149.224 137.181C149.18 136.986 149.182 136.784 149.229 136.59C149.276 136.395 149.368 136.215 149.496 136.062C151.194 134.442 152.962 132.893 154.683 131.296C155.213 130.805 155.691 130.244 156.168 129.713C157.929 127.81 159.689 125.904 161.475 123.965C160.38 122.983 159.257 121.985 158.146 120.974C156.236 119.245 154.341 117.498 152.432 115.774C151.891 115.287 151.306 114.853 150.751 114.376C150.539 114.195 150.183 113.855 150.23 113.767C150.398 113.431 150.691 112.988 150.976 112.958C152.833 112.769 154.697 112.672 156.562 112.581C156.68 112.588 156.794 112.622 156.896 112.681C156.998 112.739 157.085 112.82 157.151 112.917C158.062 114.675 159.752 115.606 161.184 116.789C162.529 117.882 163.914 118.907 165.41 120.06C166.109 119.368 166.862 118.642 167.592 117.892C168.654 116.8 169.695 115.694 170.751 114.598C172.519 112.756 174.28 110.9 176.082 109.092C176.395 108.784 176.8 108.586 177.235 108.527C178.706 108.37 180.185 108.29 181.665 108.288C182.135 108.288 182.603 108.708 183.069 108.937C182.916 109.276 182.727 109.598 182.505 109.897C182.101 110.334 181.624 110.707 181.18 111.114C181.135 111.154 181.097 111.202 181.067 111.254C179.53 114.014 177.225 116.128 175.017 118.313C173.222 120.118 171.323 121.846 169.384 123.684Z" fill="black"/>
<path d="M207.972 67.6524L196.147 46.3186L204.563 41.6533C206.175 40.7602 207.709 40.2863 209.168 40.2314C210.629 40.1657 211.949 40.4917 213.128 41.2093C214.309 41.9161 215.291 42.9743 216.072 44.3841C216.857 45.8008 217.227 47.1889 217.182 48.5485C217.133 49.9012 216.679 51.1697 215.819 52.3543C214.967 53.5349 213.721 54.5795 212.082 55.4879L206.446 58.6116L204.437 54.9865L209.343 52.267C210.205 51.7897 210.854 51.2751 211.293 50.7234C211.732 50.1716 211.959 49.5826 211.975 48.9564C211.998 48.3264 211.815 47.6607 211.426 46.9593C211.034 46.2509 210.56 45.7326 210.006 45.4043C209.459 45.0721 208.828 44.9408 208.113 45.0103C207.401 45.069 206.611 45.3389 205.743 45.8201L202.701 47.5061L212.482 65.1522L207.972 67.6524ZM214.111 51.5579L224.795 58.3275L219.816 61.0874L209.247 54.2543L214.111 51.5579ZM227.139 57.0283L218.27 41.028L222.707 38.5683L231.576 54.5686L227.139 57.0283ZM219.356 37.7299C218.696 38.0955 218.009 38.1905 217.294 38.0147C216.582 37.8282 216.055 37.4259 215.713 36.8078C215.374 36.1967 215.316 35.5434 215.539 34.848C215.765 34.1418 216.208 33.6059 216.867 33.2402C217.527 32.8745 218.213 32.7849 218.924 32.9715C219.639 33.1472 220.166 33.5407 220.505 34.1518C220.847 34.7699 220.905 35.432 220.68 36.1382C220.457 36.8336 220.016 37.3642 219.356 37.7299ZM235.131 52.5983L226.262 36.598L230.564 34.2133L232.112 37.0051L232.278 36.9127C232.02 35.7579 232.094 34.7365 232.5 33.8485C232.903 32.9535 233.552 32.2578 234.448 31.7612C234.67 31.638 234.917 31.5191 235.19 31.4045C235.462 31.2898 235.709 31.2029 235.93 31.1437L238.113 35.0813C237.87 35.1343 237.551 35.2385 237.156 35.3939C236.761 35.5493 236.411 35.7117 236.105 35.881C235.452 36.2429 234.948 36.7086 234.592 37.2782C234.239 37.8369 234.052 38.4491 234.03 39.1146C234.016 39.7763 234.189 40.4335 234.551 41.0863L239.569 50.1386L235.131 52.5983ZM247.134 45.9453L238.265 29.945L242.703 27.4853L251.571 43.4856L247.134 45.9453ZM239.351 26.6468C238.691 27.0125 238.004 27.1074 237.289 26.9317C236.578 26.7451 236.051 26.3428 235.708 25.7248C235.369 25.1136 235.311 24.4604 235.534 23.765C235.76 23.0587 236.203 22.5228 236.862 22.1571C237.522 21.7914 238.208 21.7019 238.92 21.8884C239.634 22.0642 240.161 22.4576 240.5 23.0687C240.842 23.6868 240.901 24.349 240.675 25.0552C240.452 25.7506 240.011 26.2811 239.351 26.6468ZM256.595 34.6822L253.655 29.3534L254.301 28.9955L256.06 20.0817L261.154 17.2582L258.725 29.1166L257.673 29.6998L256.595 34.6822ZM255.126 41.5152L243.301 20.1815L247.739 17.7218L259.564 39.0555L255.126 41.5152ZM265.126 35.9723L256.555 31.6132L257.776 26.8379L270.324 33.0911L265.126 35.9723ZM278.943 28.7224C277.325 29.6193 275.735 30.0511 274.173 30.018C272.615 29.9741 271.174 29.5111 269.849 28.6291C268.522 27.7402 267.403 26.4762 266.495 24.8373C265.579 23.1845 265.098 21.5629 265.051 19.9727C265.001 18.3755 265.372 16.9078 266.165 15.5698C266.961 14.221 268.168 13.0981 269.786 12.2012C271.404 11.3043 272.992 10.8778 274.551 10.9218C276.112 10.9549 277.557 11.416 278.885 12.3049C280.209 13.1869 281.329 14.4543 282.245 16.1071C283.154 17.746 283.633 19.3641 283.683 20.9613C283.729 22.5516 283.355 24.0211 282.559 25.37C281.766 26.708 280.561 27.8255 278.943 28.7224ZM277.059 25.2733C277.795 24.8652 278.294 24.3162 278.556 23.6263C278.814 22.9293 278.866 22.147 278.712 21.2792C278.565 20.4076 278.233 19.5066 277.717 18.576C277.202 17.6454 276.613 16.8867 275.952 16.3C275.298 15.7094 274.607 15.3389 273.879 15.1886C273.151 15.0383 272.419 15.1671 271.683 15.5751C270.94 15.987 270.432 16.5453 270.16 17.2499C269.895 17.9507 269.836 18.7368 269.983 19.6084C270.137 20.4762 270.472 21.3754 270.988 22.3059C271.504 23.2365 272.089 23.9971 272.743 24.5877C273.404 25.1745 274.102 25.5411 274.837 25.6876C275.575 25.8232 276.315 25.6851 277.059 25.2733Z" fill="black"/>
<path d="M303.775 25.7201H310.133L316.847 42.1014H317.133L323.847 25.7201H330.204V50.1016H325.204V34.2322H325.002L318.692 49.9825H315.287L308.978 34.1727H308.775V50.1016H303.775V25.7201Z" fill="black"/>
<path d="M322.123 110.934V114.743H311.111V110.934H322.123ZM313.611 106.553H318.683V123.601C318.683 124.069 318.754 124.434 318.897 124.696C319.04 124.95 319.238 125.128 319.492 125.232C319.754 125.335 320.056 125.386 320.397 125.386C320.635 125.386 320.873 125.366 321.111 125.327C321.349 125.279 321.532 125.243 321.659 125.22L322.457 128.994C322.203 129.073 321.846 129.164 321.385 129.267C320.925 129.378 320.365 129.446 319.707 129.47C318.484 129.517 317.413 129.355 316.492 128.982C315.58 128.609 314.869 128.029 314.361 127.243C313.853 126.458 313.603 125.466 313.611 124.267V106.553Z" fill="black"/>
<path d="M314.258 154.709C313.091 154.709 312.051 154.506 311.139 154.101C310.226 153.689 309.504 153.082 308.972 152.28C308.448 151.47 308.186 150.462 308.186 149.256C308.186 148.24 308.373 147.387 308.746 146.696C309.119 146.006 309.627 145.45 310.27 145.03C310.912 144.609 311.643 144.292 312.46 144.077C313.286 143.863 314.151 143.712 315.055 143.625C316.119 143.514 316.976 143.411 317.627 143.315C318.278 143.212 318.75 143.061 319.044 142.863C319.337 142.665 319.484 142.371 319.484 141.982V141.911C319.484 141.157 319.246 140.573 318.77 140.161C318.302 139.748 317.635 139.542 316.77 139.542C315.857 139.542 315.131 139.744 314.591 140.149C314.051 140.546 313.694 141.046 313.52 141.649L308.829 141.268C309.067 140.157 309.535 139.196 310.234 138.387C310.932 137.569 311.833 136.942 312.936 136.506C314.047 136.061 315.333 135.839 316.794 135.839C317.809 135.839 318.782 135.958 319.71 136.196C320.647 136.434 321.476 136.803 322.198 137.303C322.929 137.803 323.504 138.446 323.925 139.232C324.345 140.01 324.556 140.942 324.556 142.03V154.363H319.746V151.828H319.603C319.309 152.399 318.917 152.903 318.425 153.339C317.932 153.768 317.341 154.105 316.651 154.351C315.96 154.589 315.163 154.709 314.258 154.709ZM315.71 151.208C316.456 151.208 317.115 151.062 317.686 150.768C318.258 150.466 318.706 150.062 319.032 149.554C319.357 149.046 319.52 148.47 319.52 147.827V145.887C319.361 145.99 319.143 146.085 318.865 146.173C318.595 146.252 318.29 146.327 317.948 146.399C317.607 146.462 317.266 146.522 316.924 146.577C316.583 146.625 316.274 146.669 315.996 146.708C315.401 146.796 314.881 146.935 314.436 147.125C313.992 147.316 313.647 147.573 313.401 147.899C313.155 148.216 313.032 148.613 313.032 149.089C313.032 149.78 313.282 150.308 313.782 150.673C314.29 151.03 314.932 151.208 315.71 151.208Z" fill="black"/>
<path d="M316.707 100.41C314.826 100.41 313.207 100.029 311.85 99.267C310.5 98.4971 309.461 97.4098 308.731 96.005C308 94.5923 307.635 92.9216 307.635 90.993C307.635 89.112 308 87.4612 308.731 86.0405C309.461 84.6199 310.489 83.5127 311.814 82.719C313.147 81.9254 314.711 81.5286 316.505 81.5286C317.711 81.5286 318.834 81.723 319.874 82.1119C320.921 82.4929 321.834 83.0683 322.612 83.8381C323.398 84.608 324.009 85.5763 324.445 86.7429C324.882 87.9017 325.1 89.2589 325.1 90.8145V92.2073H309.659V89.0644H320.326C320.326 88.3342 320.167 87.6874 319.85 87.1239C319.532 86.5604 319.092 86.1199 318.528 85.8024C317.973 85.477 317.326 85.3143 316.588 85.3143C315.818 85.3143 315.136 85.4929 314.54 85.8501C313.953 86.1993 313.493 86.6715 313.159 87.2668C312.826 87.8541 312.655 88.5088 312.647 89.2311V92.2192C312.647 93.124 312.814 93.9058 313.147 94.5645C313.489 95.2233 313.969 95.7312 314.588 96.0884C315.207 96.4455 315.941 96.6241 316.79 96.6241C317.354 96.6241 317.87 96.5447 318.338 96.386C318.806 96.2273 319.207 95.9892 319.54 95.6717C319.874 95.3542 320.128 94.9653 320.302 94.505L324.993 94.8145C324.755 95.9415 324.267 96.9257 323.529 97.767C322.798 98.6003 321.854 99.2511 320.695 99.7194C319.544 100.18 318.215 100.41 316.707 100.41Z" fill="black"/>
<path d="M314.258 74.9195C313.091 74.9195 312.051 74.7171 311.139 74.3123C310.226 73.8996 309.504 73.2924 308.972 72.4908C308.448 71.6813 308.186 70.6733 308.186 69.467C308.186 68.4511 308.373 67.5979 308.746 66.9074C309.119 66.2169 309.627 65.6613 310.27 65.2407C310.912 64.8201 311.643 64.5026 312.46 64.2883C313.286 64.074 314.151 63.9232 315.055 63.8359C316.119 63.7248 316.976 63.6216 317.627 63.5264C318.278 63.4232 318.75 63.2724 319.044 63.074C319.337 62.8756 319.484 62.5819 319.484 62.193V62.1216C319.484 61.3676 319.246 60.7843 318.77 60.3716C318.302 59.9588 317.635 59.7525 316.77 59.7525C315.857 59.7525 315.131 59.9549 314.591 60.3596C314.051 60.7565 313.694 61.2565 313.52 61.8597L308.829 61.4787C309.067 60.3676 309.535 59.4072 310.234 58.5977C310.932 57.7802 311.833 57.1532 312.936 56.7167C314.047 56.2723 315.333 56.05 316.794 56.05C317.809 56.05 318.782 56.1691 319.71 56.4072C320.647 56.6453 321.476 57.0143 322.198 57.5143C322.929 58.0144 323.504 58.6572 323.925 59.443C324.345 60.2208 324.556 61.1533 324.556 62.2406V74.5742H319.746V72.0385H319.603C319.309 72.6099 318.917 73.1139 318.425 73.5504C317.932 73.979 317.341 74.3163 316.651 74.5623C315.96 74.8004 315.163 74.9195 314.258 74.9195ZM315.71 71.4194C316.456 71.4194 317.115 71.2726 317.686 70.9789C318.258 70.6773 318.706 70.2725 319.032 69.7646C319.357 69.2567 319.52 68.6812 319.52 68.0384V66.0979C319.361 66.201 319.143 66.2963 318.865 66.3836C318.595 66.4629 318.29 66.5383 317.948 66.6098C317.607 66.6733 317.266 66.7328 316.924 66.7883C316.583 66.836 316.274 66.8796 315.996 66.9193C315.401 67.0066 314.881 67.1455 314.436 67.336C313.992 67.5265 313.647 67.7844 313.401 68.1098C313.155 68.4273 313.032 68.8241 313.032 69.3003C313.032 69.9908 313.282 70.5186 313.782 70.8837C314.29 71.2408 314.932 71.4194 315.71 71.4194Z" fill="black"/>
<path d="M27.1449 167.212L24.7749 168.526L20.5179 160.846L22.9929 159.474C23.738 159.061 24.4607 158.861 25.1611 158.875C25.8602 158.886 26.5097 159.1 27.1095 159.516C27.708 159.929 28.2275 160.533 28.6682 161.328C29.1116 162.128 29.3509 162.896 29.386 163.632C29.4197 164.365 29.25 165.037 28.8768 165.649C28.5022 166.259 27.925 166.78 27.1449 167.212ZM25.2476 167.185L26.6276 166.42C27.2627 166.069 27.721 165.654 28.0027 165.178C28.2844 164.701 28.4024 164.18 28.3566 163.614C28.3107 163.048 28.1146 162.452 27.7682 161.827C27.4245 161.207 27.0274 160.73 26.5769 160.394C26.1249 160.057 25.6312 159.879 25.0956 159.862C24.5587 159.843 23.9902 160 23.3902 160.332L21.9052 161.155L25.2476 167.185ZM34.7266 163.167C34.1716 163.474 33.6249 163.617 33.0866 163.595C32.5494 163.57 32.0494 163.396 31.5867 163.074C31.125 162.748 30.7306 162.29 30.4036 161.7C30.0766 161.11 29.8958 160.53 29.8614 159.961C29.8281 159.388 29.9352 158.868 30.1828 158.401C30.4314 157.929 30.8158 157.55 31.3358 157.261C31.6358 157.095 31.9597 156.981 32.3077 156.919C32.6556 156.857 33.0119 156.872 33.3767 156.964C33.74 157.053 34.0948 157.242 34.441 157.531C34.7872 157.819 35.1093 158.232 35.4072 158.77L35.6151 159.145L31.175 161.606L30.7509 160.841L34.291 158.879C34.1109 158.554 33.8851 158.3 33.6138 158.117C33.3449 157.932 33.0509 157.832 32.7316 157.816C32.4148 157.799 32.0964 157.879 31.7764 158.057C31.4239 158.252 31.1674 158.508 31.0069 158.826C30.8475 159.14 30.776 159.474 30.7923 159.828C30.8086 160.181 30.9048 160.517 31.0808 160.834L31.3635 161.344C31.6046 161.779 31.884 162.107 32.2016 162.326C32.5204 162.541 32.8585 162.653 33.2158 162.661C33.5717 162.666 33.9284 162.57 34.2859 162.372C34.5184 162.243 34.7104 162.094 34.8619 161.925C35.0145 161.752 35.1228 161.561 35.1869 161.353C35.2496 161.141 35.263 160.915 35.2271 160.673L36.2152 160.44C36.2859 160.779 36.276 161.118 36.1854 161.456C36.0935 161.791 35.9252 162.107 35.6806 162.403C35.4346 162.696 35.1166 162.951 34.7266 163.167ZM39.9938 154.247L39.3235 154.913C39.2 154.808 39.0549 154.72 38.8881 154.649C38.7225 154.574 38.5343 154.541 38.3235 154.55C38.1128 154.559 37.8787 154.635 37.6212 154.778C37.2687 154.973 37.0199 155.217 36.875 155.51C36.7312 155.799 36.7279 156.067 36.8651 156.314C36.987 156.534 37.1633 156.664 37.394 156.703C37.6247 156.741 37.9336 156.709 38.3207 156.606L39.2921 156.342C39.8764 156.181 40.3662 156.16 40.7614 156.277C41.1553 156.392 41.4638 156.651 41.6869 157.054C41.8698 157.384 41.9383 157.731 41.8924 158.097C41.849 158.461 41.7001 158.811 41.4458 159.148C41.1914 159.485 40.8405 159.778 40.393 160.026C39.8055 160.352 39.2485 160.494 38.7222 160.452C38.1958 160.41 37.7456 160.173 37.3715 159.74L38.0951 159.064C38.3469 159.33 38.6271 159.479 38.9355 159.51C39.2464 159.54 39.5831 159.455 39.9456 159.254C40.3581 159.026 40.6371 158.757 40.7826 158.447C40.9293 158.134 40.934 157.853 40.7968 157.606C40.6859 157.406 40.5231 157.277 40.3082 157.22C40.092 157.16 39.8202 157.177 39.4928 157.27L38.408 157.577C37.8112 157.744 37.3163 157.765 36.9233 157.64C36.5314 157.511 36.2253 157.247 36.005 156.85C35.8249 156.525 35.7567 156.187 35.8007 155.836C35.8471 155.483 35.9896 155.148 36.2281 154.829C36.4691 154.509 36.7921 154.237 37.1971 154.013C37.7671 153.697 38.2839 153.574 38.7475 153.643C39.2136 153.712 39.629 153.913 39.9938 154.247ZM43.9087 157.92L40.716 152.16L41.601 151.67L44.7937 157.43L43.9087 157.92ZM40.6339 150.951C40.4613 151.046 40.28 151.07 40.0899 151.022C39.9023 150.972 39.7627 150.865 39.6713 150.7C39.5798 150.535 39.5628 150.36 39.6201 150.174C39.68 149.988 39.7962 149.846 39.9687 149.751C40.1412 149.655 40.3213 149.632 40.5089 149.682C40.699 149.73 40.8398 149.837 40.9313 150.002C41.0227 150.167 41.0385 150.342 40.9787 150.529C40.9213 150.715 40.8064 150.855 40.6339 150.951ZM50.0035 157.523C49.576 157.76 49.178 157.908 48.8096 157.969C48.4425 158.032 48.1072 158.031 47.8038 157.967C47.5043 157.905 47.2391 157.806 47.0083 157.673L47.4389 156.787C47.5771 156.848 47.7449 156.912 47.9422 156.979C48.1409 157.048 48.3743 157.074 48.6422 157.057C48.914 157.04 49.2237 156.935 49.5712 156.743C50.0362 156.485 50.3576 156.16 50.5354 155.767C50.7132 155.374 50.669 154.938 50.403 154.458L49.7545 153.288L49.6795 153.329C49.6727 153.47 49.6522 153.652 49.6181 153.873C49.5852 154.091 49.4907 154.321 49.3347 154.565C49.1798 154.804 48.9149 155.028 48.5399 155.236C48.0749 155.493 47.5964 155.615 47.1044 155.6C46.615 155.584 46.1463 155.425 45.6985 155.124C45.2532 154.822 44.8643 154.371 44.5317 153.771C44.2047 153.181 44.0236 152.61 43.9886 152.057C43.9523 151.502 44.0525 151.002 44.2895 150.557C44.5251 150.109 44.8854 149.751 45.3704 149.482C45.7454 149.274 46.0776 149.172 46.3669 149.175C46.6573 149.174 46.9049 149.22 47.1097 149.312C47.3156 149.401 47.4788 149.477 47.5992 149.541L47.6892 149.491L47.182 148.576L48.0371 148.102L51.3213 154.027C51.5956 154.522 51.7062 154.987 51.6531 155.422C51.6038 155.858 51.4306 156.253 51.1334 156.607C50.8402 156.962 50.4636 157.268 50.0035 157.523ZM48.2192 154.374C48.5742 154.177 48.8292 153.93 48.9841 153.632C49.139 153.333 49.1957 152.996 49.1542 152.621C49.1126 152.245 48.974 151.845 48.7385 151.42C48.5084 151.005 48.2429 150.673 47.9419 150.425C47.6409 150.176 47.3181 150.03 46.9733 149.986C46.6285 149.942 46.2761 150.02 45.9161 150.219C45.5411 150.427 45.2812 150.695 45.1365 151.024C44.9944 151.351 44.9495 151.709 45.0018 152.098C45.0567 152.486 45.1922 152.875 45.4084 153.265C45.6301 153.665 45.8887 153.984 46.1841 154.223C46.4807 154.457 46.8012 154.593 47.1458 154.631C47.4914 154.665 47.8492 154.579 48.2192 154.374ZM51.8142 149.009L53.7349 152.474L52.8498 152.964L49.6571 147.204L50.5121 146.73L51.011 147.63L51.086 147.589C51.0588 147.221 51.1336 146.873 51.3102 146.543C51.4854 146.21 51.7906 145.924 52.2256 145.683C52.6156 145.466 53.0012 145.357 53.3824 145.355C53.7622 145.35 54.1227 145.464 54.464 145.697C54.8039 145.927 55.1096 146.287 55.3812 146.777L57.4099 150.437L56.5249 150.927L54.5294 147.327C54.2786 146.875 53.9657 146.587 53.5908 146.465C53.2144 146.34 52.8212 146.392 52.4112 146.619C52.1287 146.776 51.9102 146.977 51.7556 147.223C51.6035 147.467 51.5288 147.742 51.5315 148.048C51.5343 148.353 51.6285 148.674 51.8142 149.009ZM61.5087 148.322C60.9537 148.629 60.407 148.772 59.8687 148.75C59.3315 148.725 58.8315 148.551 58.3688 148.229C57.9071 147.903 57.5127 147.445 57.1857 146.855C56.8587 146.265 56.6779 145.685 56.6435 145.116C56.6102 144.543 56.7173 144.023 56.9649 143.556C57.2135 143.084 57.5979 142.705 58.1179 142.417C58.4179 142.25 58.7418 142.136 59.0898 142.074C59.4377 142.012 59.794 142.027 60.1588 142.119C60.5221 142.208 60.8769 142.397 61.2231 142.686C61.5693 142.974 61.8914 143.387 62.1893 143.925L62.3972 144.3L57.9571 146.761L57.533 145.996L61.0731 144.034C60.893 143.709 60.6672 143.455 60.3959 143.272C60.127 143.087 59.833 142.987 59.5137 142.971C59.1969 142.954 58.8785 143.034 58.5585 143.212C58.206 143.407 57.9495 143.664 57.789 143.981C57.6296 144.295 57.5581 144.629 57.5744 144.983C57.5907 145.336 57.6869 145.672 57.8629 145.989L58.1456 146.499C58.3867 146.934 58.6661 147.262 58.9838 147.481C59.3025 147.696 59.6406 147.808 59.9979 147.816C60.3538 147.821 60.7105 147.725 61.068 147.527C61.3006 147.398 61.4925 147.249 61.644 147.08C61.7966 146.907 61.9049 146.716 61.969 146.508C62.0317 146.297 62.0451 146.07 62.0092 145.829L62.9973 145.595C63.068 145.935 63.0581 146.273 62.9675 146.611C62.8756 146.946 62.7073 147.262 62.4627 147.558C62.2167 147.851 61.8987 148.106 61.5087 148.322ZM65.1735 146.134L61.9808 140.373L62.8358 139.9L63.318 140.77L63.378 140.736C63.3251 140.393 63.3869 140.056 63.5635 139.727C63.7401 139.397 64.0009 139.136 64.3459 138.945C64.4109 138.909 64.4929 138.865 64.5918 138.813C64.6907 138.762 64.7665 138.725 64.8193 138.702L65.3181 139.602C65.284 139.611 65.209 139.638 65.0932 139.683C64.9785 139.723 64.8624 139.776 64.7449 139.841C64.4649 139.997 64.2474 140.194 64.0925 140.433C63.9388 140.669 63.855 140.925 63.8411 141.2C63.8283 141.472 63.894 141.738 64.0381 141.998L66.0585 145.643L65.1735 146.134Z" fill="black"/>
<path d="M289.928 38.9081L30.4112 182.667L284.833 335.539L289.928 38.9081ZM296.832 27.4192L291.337 347.269L17.0003 182.431L296.832 27.4192Z" fill="black"/>
</g>
</g>
</svg>
