<svg width="364" height="364" viewBox="0 0 364 364" fill="none" xmlns="http://www.w3.org/2000/svg">
<mask id="mask0_2341_700" style="mask-type:alpha" maskUnits="userSpaceOnUse" x="0" y="0" width="364" height="364">
<rect width="364" height="364" fill="#D9D9D9"/>
</mask>
<g mask="url(#mask0_2341_700)">
<path d="M306.491 295.184V54.7965L184.297 116.766L62.104 54.7965V295.184L184.297 233.215L306.491 295.184ZM312.465 304.989L184.297 239.989L56.1299 304.988V44.9922L184.297 109.991L312.465 44.9922V304.989Z" fill="black"/>
<path d="M130.762 170.786L131.224 174.272L139.162 169.981L148.275 154.472L143.361 151.783L130.762 170.786Z" fill="white"/>
<path d="M165.136 63.8129L163.508 60.359L160.207 58.117L158.126 54.3693L156.344 57.2693C156.344 57.2693 153.867 60.6184 153.824 60.0791C153.781 59.5398 152.322 53.3107 152.322 53.3107L147.852 45.4335L149.942 41.616L148.969 38.9105L150.061 35.7596L148.269 28.784L154.184 16.7258L160.956 13.1762H164.819L162.178 11.0663L166.613 10.564L171.093 12.3491L175.161 10.564L179.717 8.68555L187.341 9.51266L192.001 13.6555L193.614 19.767L192.837 24.74L197.497 28.089L198.512 29.1403L198.182 32.1543L197.604 37.123L200.591 40.9877L199.928 45.4577L195.635 51.4856L188.041 52.4733L187.382 63.8401L177.585 76.1377L164.8 77.4102C164.8 77.4102 162.241 67.3631 162.159 67.1698C162.076 66.9765 165.136 63.8129 165.136 63.8129Z" fill="white"/>
<path d="M130.85 172.215C130.709 172.025 130.598 171.815 130.52 171.592C130.117 168.913 128.935 166.488 127.945 164.01C127.454 162.796 126.903 161.609 126.294 160.453C126.038 160.048 125.71 159.696 125.327 159.415C123.714 158.042 122.325 156.464 121.794 154.365C121.537 153.04 121.387 151.696 121.345 150.346C121.292 149.706 121.374 149.047 121.285 148.414C120.954 146.069 121.816 144.117 123.091 142.294C123.368 141.895 123.474 141.711 123.18 141.236C122.224 139.675 122.585 138.449 124.17 137.418C124.365 137.284 124.52 137.097 124.616 136.879C125.811 134.24 127.152 131.655 128.123 128.932C128.849 126.89 130.104 125.004 130.223 122.764C130.253 121.996 130.158 121.229 129.942 120.493C129.506 118.963 129.84 117.516 130.216 116.056C130.325 115.628 130.368 115.182 130.5 114.763C130.679 114.2 130.886 113.647 131.121 113.106C131.781 111.555 132.583 110.044 133.148 108.454C133.386 107.496 133.535 106.517 133.593 105.53C133.656 105.145 133.798 104.776 133.892 104.395C134.103 103.517 134.31 102.637 134.513 101.756C134.532 101.668 134.493 101.535 134.542 101.491C135.579 100.614 134.906 99.5689 134.853 98.5739C134.797 97.4354 134.807 96.2901 134.804 95.1516C134.804 93.1992 134.665 91.2336 134.823 89.2945C134.964 86.8536 135.892 84.5272 137.464 82.6734C139.264 80.6005 140.989 78.447 142.929 76.5146C144.466 75.1073 146.085 73.7958 147.779 72.5875C147.894 72.4902 148.028 72.4171 148.171 72.3722C148.315 72.3274 148.466 72.3118 148.615 72.3264C149.549 72.5942 150.266 72.0416 151.019 71.7368C153.694 70.6752 155.757 68.6992 157.999 66.9711C159.974 65.5089 162.02 64.1487 164.13 62.8955C165.002 62.3562 165.863 62.9561 165.966 64.0377C165.965 64.3098 165.947 64.5815 165.914 64.8515C165.778 66.3275 165.74 67.8112 165.801 69.2924C165.877 70.0801 166.534 70.8073 166.927 71.5665C167.042 71.7396 167.135 71.9262 167.205 72.1222C167.285 72.4779 167.482 72.7956 167.763 73.0231C168.044 73.2507 168.393 73.3746 168.753 73.3746C172.029 73.8503 175.026 73.0868 177.968 71.5998C180.794 70.1831 182.492 67.946 183.657 65.1399C184.364 63.6688 184.956 62.1436 185.427 60.5784C185.691 59.2112 185.758 57.8126 185.628 56.4259C185.562 54.865 186.183 53.5392 186.757 52.1928C187.104 51.3856 188.23 51.2281 189.069 51.8577C191.621 53.73 193.992 55.8193 195.563 58.626C196.26 59.8682 197.3 60.0124 198.406 60.0427C200.387 60.1033 202.368 59.9458 204.349 60.0427C205.704 60.133 207.048 60.3427 208.367 60.6693C209.572 60.9407 210.738 61.3758 211.92 61.7442C212.148 61.8145 212.385 62.0054 212.58 61.9684C214.053 61.7072 215.221 62.578 216.44 63.1039C217.613 63.5729 218.692 64.2537 219.626 65.1132C220.303 65.7828 220.617 66.8614 220.98 67.7921C221.393 68.8773 221.667 70.0123 222.007 71.1248C222.469 72.6354 222.932 74.1387 223.413 75.6524C223.895 77.166 224.493 78.6663 224.922 80.2206C225.764 83.1544 226.795 86.0288 228.01 88.8249C228.921 90.9615 229.904 93.0714 230.684 95.2582C231.648 97.9577 232.368 100.75 233.325 103.457C233.959 105.258 234.861 106.963 235.567 108.741C236.297 110.579 236.931 112.455 237.621 114.307C238.281 116.052 238.889 117.807 239.602 119.518C240.409 121.408 240.452 123.544 239.722 125.466C239.498 126.048 239.414 126.675 239.475 127.297C239.536 127.918 239.742 128.516 240.075 129.041C240.816 130.321 241.045 131.841 240.715 133.288C240.197 135.843 239.441 138.355 238.698 140.857C238.265 142.307 237.622 143.693 237.136 145.13C236.527 146.666 236.044 148.251 235.693 149.868C235.591 150.793 235.202 151.662 234.583 152.35C233.963 153.037 233.146 153.508 232.246 153.696C230.85 154.059 229.905 155.009 228.841 155.782C227.418 156.817 226.2 158.126 224.816 159.236C223.433 160.345 223.255 161.888 223.536 163.385C223.978 165.763 224.8 168.074 225.295 170.439C225.804 172.87 226.035 175.358 226.527 177.789C226.999 180.107 227.742 182.364 228.208 184.678C228.753 187.357 229.885 189.839 230.773 192.404C231.457 194.359 231.776 196.426 231.714 198.499C231.635 201.031 231.843 203.57 231.79 206.101C231.743 209.724 232.149 213.339 232.998 216.858C233.638 219.905 234.464 222.91 235.472 225.853C236.955 229.892 237.849 234.075 239.018 238.191C239.631 240.417 240.446 242.58 241.451 244.654C243.215 248.159 244.624 251.836 245.658 255.628C246.318 258.15 247.167 260.625 247.85 263.142C248.454 265.353 248.953 267.593 249.501 269.82C250.161 272.547 250.733 275.306 251.512 278C251.984 279.636 251.089 280.345 249.646 280.214C246.793 279.983 243.937 279.715 241.061 279.628C239.994 279.697 238.942 279.923 237.938 280.298C237.733 280.351 237.532 280.696 237.469 280.944C236.865 283.453 236.293 285.967 235.709 288.479C234.986 291.59 234.388 294.72 233.285 297.746C232.295 300.495 231.672 303.381 230.896 306.215C230.565 307.404 230.271 308.599 229.955 309.79C229.552 311.314 228.304 311.85 227.036 312.389C225.687 312.925 224.239 313.153 222.794 313.058C221.473 313.018 220.113 313.393 218.502 313.621C219.492 314.643 220.249 315.688 221.437 316.217C222.787 316.819 224.151 317.388 225.534 317.891C226.997 318.436 227.159 318.818 226.799 320.365C226.591 321.256 226.211 322.137 226.938 323.142C227.552 323.982 227.208 325.151 226.769 326.076C226.33 327 226.502 327.576 226.905 328.473C227.915 330.715 229.976 331.382 231.857 332.261C234.499 333.5 237.249 334.564 239.571 336.424C240.812 337.429 242.176 338.323 243.16 339.539C243.821 340.431 244.151 341.532 244.091 342.646C243.955 344.253 243.212 345.745 242.018 346.809C240.584 348.199 238.907 348.484 237.266 348.688C234.226 349.096 231.135 349.146 228.061 349.271C227.283 349.223 226.51 349.111 225.75 348.936C223.504 348.58 221.23 348.359 219.024 347.845C216.911 347.349 214.867 346.549 212.79 345.889C212.202 345.707 211.611 345.554 210.931 345.333C210.833 345.477 210.749 345.629 210.68 345.789C210.642 345.966 210.567 346.133 210.461 346.279C210.355 346.425 210.219 346.546 210.063 346.634C209.907 346.723 209.734 346.776 209.555 346.792C209.377 346.807 209.198 346.784 209.029 346.723C208.161 346.519 207.302 346.268 206.437 346.054C204.928 345.696 203.416 345.344 201.9 345.012C200.579 344.721 200.127 344.272 199.889 342.946C199.393 340.005 199.309 337.009 199.642 334.045C199.734 333.13 199.499 332.185 199.553 331.265C199.691 328.397 200.253 325.565 201.22 322.866C201.996 320.569 202.367 318.151 202.316 315.723C202.346 315.307 202.412 314.894 202.514 314.49C202.072 314.058 201.618 313.636 201.194 313.194C199.873 311.854 198.552 310.478 197.215 309.122C195.772 307.652 194.28 306.225 192.899 304.695C192.038 303.838 191.337 302.83 190.829 301.721C190.449 300.74 190.605 299.539 190.568 298.432C190.525 297.092 190.525 295.753 190.512 294.414C190.492 292.498 190.443 290.582 190.466 288.667C190.509 285.167 190.645 281.668 190.645 278.165C190.645 275.983 190.526 273.811 190.332 271.62C190.167 270.305 189.922 269.001 189.598 267.716C188.938 264.675 188.278 261.635 187.617 258.596C187.382 257.379 187.064 256.179 186.666 255.006C186.459 255.82 186.308 256.66 186.026 257.447C185.329 259.367 185.392 261.336 185.514 263.318C185.693 266.195 185.769 269.085 186.062 271.949C186.415 275.418 187 278.861 187.383 282.33C187.574 284.052 187.531 285.8 187.631 287.535C187.71 288.875 187.855 290.214 187.961 291.553C188.205 294.688 188.473 297.823 188.664 300.961C188.713 302.239 188.695 303.519 188.612 304.795C188.593 305.118 188.477 305.428 188.281 305.683C187.423 306.784 186.469 307.816 185.64 308.951C184.624 310.351 183.685 311.811 182.787 313.288C182.627 313.702 182.571 314.149 182.623 314.591C182.623 315.89 182.418 316.067 180.945 315.88C181.005 317.143 181.018 318.385 181.14 319.618C181.244 321.041 181.444 322.455 181.737 323.851C182.042 324.736 182.425 325.591 182.883 326.406C183.106 326.826 183.267 327.278 183.361 327.746C183.641 329.181 183.667 330.655 183.437 332.099C183.138 333.473 183.572 334.99 183.526 336.453C183.479 337.916 183.493 339.394 182.988 340.673C182.678 341.467 181.526 342.013 180.644 342.465C178.564 343.506 176.438 344.474 174.291 345.355C173.715 345.537 173.104 345.581 172.508 345.482C171.494 345.453 170.499 345.765 169.678 346.37C167.697 347.582 165.862 349.049 163.818 350.117C162.131 351.005 160.226 351.457 158.429 352.126C155.273 353.312 151.994 353.001 148.755 352.84C147.679 352.789 146.622 352.24 145.575 351.862C144.849 351.6 144.159 351.228 143.446 350.931C141.527 350.127 141.065 348.975 140.725 346.976C140.385 344.977 141.362 343.292 141.689 341.467C141.815 340.77 142.585 340.04 143.248 339.628C144.493 338.928 145.774 338.294 147.084 337.729C148.735 336.932 149.941 335.602 151.192 334.323C152.904 332.437 154.922 330.861 157.158 329.665C155.887 328.635 155.893 328.64 156.498 327.046C156.669 326.59 156.775 326.112 156.983 325.401C156.254 325.974 155.702 326.359 155.207 326.811C155.091 326.93 154.952 327.022 154.8 327.084C154.647 327.145 154.483 327.174 154.319 327.168C154.155 327.162 153.993 327.122 153.845 327.051C153.697 326.979 153.565 326.877 153.457 326.751C153.127 326.479 152.879 326.135 152.566 325.853C150.915 324.357 151.05 322.876 152.896 321.651C154.95 320.284 157.113 319.085 159.229 317.806C159.813 317.471 160.391 317.082 161.21 316.577C160.254 316.335 159.499 316.148 158.753 315.954C158.007 315.76 157.221 315.75 156.917 314.789C156.841 314.551 156.257 314.531 156.026 314.287C155.227 313.449 154.484 312.558 153.715 311.685C153.427 311.35 153.153 311.015 152.873 310.68C151.433 308.956 150.076 307.153 148.534 305.53C147.096 303.979 145.819 302.283 144.721 300.469C143.988 299.291 143.167 298.158 142.45 296.966C142.221 296.581 142.119 296.132 142.16 295.684C142.877 290.814 142.857 285.901 143.108 281.002C143.161 280.658 143.104 280.305 142.947 279.996C142.79 279.686 142.539 279.436 142.232 279.28C140.361 277.893 138.593 276.367 136.943 274.716C135.662 273.48 134.668 271.939 133.377 270.72C132.096 269.554 130.512 268.786 128.814 268.507C127.612 268.182 126.378 267.994 125.136 267.947C122.584 268.061 120.038 268.399 117.492 268.68C116.536 268.788 115.352 268.663 115.478 267.294C115.566 265.599 115.769 263.911 116.086 262.244C117.007 258.333 118.146 254.471 119.093 250.563C119.595 248.497 119.754 246.347 120.282 244.287C121.052 241.212 122.079 238.209 122.845 235.137C123.67 231.812 124.36 228.439 125.031 225.09C125.433 223.048 125.691 220.975 125.998 218.91C126.434 215.926 126.834 212.932 127.262 209.948C127.781 206.358 128.338 202.775 128.834 199.184C129.227 196.344 129.617 193.489 129.898 190.655C130.132 188.291 130.165 185.912 130.356 183.548C130.595 180.564 130.918 177.59 131.185 174.61C131.163 174.255 131.237 173.901 131.398 173.586C131.559 173.27 131.802 173.005 132.1 172.818C133.17 171.998 134.098 171.003 134.848 169.874C137.096 166.83 139.259 163.722 141.452 160.645C142.61 159.024 143.781 157.413 144.942 155.797C145.032 155.677 145.11 155.548 145.176 155.412C145.254 155.284 145.304 155.14 145.321 154.991C145.337 154.841 145.321 154.69 145.272 154.548C145.224 154.406 145.145 154.276 145.04 154.169C144.936 154.062 144.81 153.98 144.67 153.928C144.454 153.919 144.238 153.962 144.042 154.055C143.845 154.148 143.673 154.287 143.541 154.461C142.201 156.376 140.946 158.352 139.642 160.298C138.519 161.972 137.406 163.667 136.225 165.301C134.653 167.468 133.022 169.591 131.407 171.724C131.235 171.906 131.047 172.072 130.846 172.22L130.85 172.215ZM194.119 96.1932C194.492 95.913 194.896 95.679 195.324 95.4964C197.061 95.0443 198.808 94.6153 200.564 94.2439C201.538 94.0397 202.562 94.0397 203.535 93.7918C203.731 93.6987 203.901 93.5585 204.03 93.3833C204.16 93.2082 204.245 93.0035 204.279 92.7872C204.27 92.0924 204.151 91.4036 203.926 90.7476C203.179 88.2323 202.4 85.7243 201.614 83.226C201.126 81.6506 200.594 80.0879 200.121 78.5076C199.21 75.47 198.308 72.4257 197.443 69.3718C197.192 68.4811 197.113 67.5431 196.889 66.636C196.778 66.3265 196.633 66.031 196.456 65.7549C196.175 66.0494 195.68 66.3312 195.657 66.6426C195.605 67.4863 195.672 68.3332 195.855 69.1579C196.208 70.6982 196.687 72.2088 197.097 73.7358C197.876 76.6294 198.646 79.5229 199.408 82.4165C199.867 84.141 200.304 85.8758 200.805 87.5906C201.174 88.8534 201.63 90.0926 202.056 91.3414C202.208 91.7934 202.185 92.0685 201.607 92.1552C200.699 92.2927 199.811 92.5636 198.903 92.7042C196.959 92.9436 195.076 93.5501 193.352 94.4923C193.005 94.6337 192.725 94.9069 192.573 95.2538C192.421 95.6008 192.408 95.9942 192.537 96.3507C192.843 97.3587 193.267 98.3257 193.801 99.2308C194.722 100.746 195.782 102.168 196.773 103.648C197.123 104.181 197.218 104.76 196.565 105.179C195.141 106.124 194.089 107.546 193.593 109.197C192.603 112.238 191.586 115.299 190.83 118.414C189.509 123.822 188.347 129.271 187.198 134.72C186.573 137.683 186.122 140.684 185.589 143.671C184.929 147.393 184.269 151.116 183.608 154.84C183.571 154.963 183.561 155.092 183.578 155.219C183.595 155.347 183.64 155.469 183.708 155.577C183.776 155.685 183.866 155.777 183.973 155.846C184.08 155.916 184.2 155.961 184.325 155.978C184.985 156.156 185.221 155.7 185.346 155.242C185.639 154.136 185.874 153.015 186.089 151.893C186.634 149.029 187.155 146.159 187.68 143.292C188.172 140.613 188.636 137.954 189.146 135.294C189.879 131.477 190.569 127.655 191.416 123.864C192.133 120.646 193.014 117.461 193.893 114.283C194.343 112.661 194.875 111.063 195.487 109.496C196.078 107.972 197.25 106.87 198.459 105.812C198.727 105.59 198.916 105.285 198.994 104.943C199.072 104.601 199.036 104.242 198.891 103.923C198.594 103.234 198.234 102.575 197.816 101.954C196.603 100.088 195.387 98.2098 194.119 96.1932ZM155.052 98.5376C154.197 100.47 153.361 102.191 152.671 103.973C151.681 106.498 150.836 109.073 149.904 111.615C149.781 112.006 149.747 112.42 149.805 112.826C149.862 113.232 150.009 113.619 150.235 113.959C150.674 114.817 151.139 115.668 151.493 116.561C152.418 118.906 153.365 121.266 154.157 123.668C155.6 128.048 156.965 132.454 158.307 136.866C159.176 139.722 159.892 142.63 160.781 145.479C161.441 147.653 162.27 149.781 163.092 151.909C163.503 152.972 163.994 154.001 164.561 154.987C164.706 155.239 165.221 155.262 165.591 155.389C165.705 155.067 165.763 154.727 165.762 154.384C165.629 153.836 165.449 153.3 165.225 152.783C164.687 151.357 164.053 149.957 163.612 148.5C162.684 145.446 161.858 142.361 160.971 139.294C160.396 137.284 159.836 135.255 159.217 133.266C158.321 130.369 157.435 127.472 156.447 124.609C155.67 122.367 154.71 120.191 153.891 117.961C153.277 116.287 152.864 114.539 151.854 113.021C151.68 112.587 151.673 112.101 151.834 111.662C153.331 106.863 155.173 102.182 157.345 97.6565C157.416 97.4899 157.45 97.3097 157.446 97.1283C157.442 96.9469 157.4 96.7685 157.322 96.6052C157.198 96.4914 157.049 96.4098 156.887 96.3676C156.726 96.3253 156.556 96.3237 156.394 96.3628C154.694 96.8985 152.983 97.4281 151.342 98.1201C150.478 98.5751 149.658 99.1111 148.893 99.721C149.678 96.0641 150.428 92.3533 151.282 88.6395C151.867 86.1279 152.573 83.6429 153.263 81.158C154.036 78.4185 154.881 75.699 155.657 72.9596C155.674 72.638 155.63 72.3161 155.525 72.0119L155.227 71.9919C154.971 72.3013 154.75 72.6382 154.566 72.9965C153.79 75.0325 152.972 77.0563 152.315 79.1384C151.413 81.9863 150.611 84.8748 149.832 87.7621C149.35 89.5539 149.01 91.3826 148.567 93.1804C147.907 95.8593 147.177 98.5388 146.586 101.218C146.541 101.474 146.558 101.737 146.634 101.985C146.711 102.233 146.845 102.459 147.025 102.644C147.539 102.761 148.077 102.69 148.544 102.443C148.95 102.253 149.308 101.971 149.591 101.619C150.984 99.9827 152.853 99.195 155.049 98.5242L155.052 98.5376ZM181.777 76.0996H181.75C181.789 75.6769 181.781 75.2511 181.727 74.8301C181.596 74.5343 181.414 74.2645 181.189 74.0333C181.024 74.2842 180.753 74.5223 180.711 74.7938C180.622 75.4633 180.668 76.1335 180.609 76.7861C180.401 79.0566 180.054 81.324 179.978 83.5981C179.859 87.0108 179.939 90.4301 179.909 93.8427C179.876 97.9419 179.814 102.041 179.777 106.137C179.747 109.591 179.678 113.052 179.734 116.518C179.81 121.334 179.973 126.147 180.13 130.959C180.203 133.179 180.364 135.393 180.461 137.614C180.609 141.153 180.699 144.696 180.883 148.236C180.952 149.017 181.145 149.782 181.454 150.5C181.55 150.742 182.055 150.908 182.379 150.919C182.517 150.919 182.805 150.427 182.792 150.172C182.666 147.63 182.461 145.088 182.336 142.546C182.171 138.862 182.081 135.205 181.936 131.538C181.774 127.351 181.514 123.165 181.431 118.983C181.358 115.319 181.5 111.651 181.497 107.985C181.497 104.502 181.421 101.016 181.395 97.5396C181.378 94.9674 181.395 92.3988 181.395 89.8369C181.395 87.1241 181.332 84.4113 181.395 81.7021C181.425 79.7934 181.634 77.9344 181.771 76.0723L181.777 76.0996ZM223.069 165.852C222.503 164.951 221.89 164.082 221.23 163.25C220.24 162.141 219.147 161.133 218.087 160.095C216.35 158.391 214.676 156.616 212.85 155.015C210.644 153.08 208.452 151.15 206.801 148.682C206.54 148.294 206.336 147.765 205.81 148.183C205.713 148.34 205.657 148.52 205.646 148.706C205.636 148.892 205.672 149.077 205.751 149.245C206.613 150.643 207.577 151.975 208.633 153.23C209.855 154.603 211.321 155.745 212.595 157.064C214.213 158.722 215.781 160.433 217.315 162.171C218.513 163.531 219.593 164.994 220.801 166.341C221.163 166.67 221.636 166.845 222.122 166.83C222.416 166.833 222.669 166.31 223.07 165.852H223.069ZM160.603 319.145C160.53 319.075 160.46 319.004 160.391 318.931C158.053 320.627 155.293 321.683 153.222 323.79C154.104 324.989 154.569 325.046 155.58 324.101C156.947 322.829 158.313 321.552 159.661 320.26C159.995 319.906 160.311 319.534 160.605 319.145H160.603ZM158.192 327.758C158.255 327.842 158.321 327.923 158.387 328.001C158.7 327.88 159.137 327.85 159.298 327.619C159.617 327.136 159.861 326.607 160.021 326.049C160.173 325.5 160.283 324.94 160.351 324.374C160.437 323.845 160.5 323.313 160.569 322.784L160.285 322.707L158.192 327.758ZM167.526 328.053C168.018 327.47 168.298 326.811 167.797 326.134C167.658 325.943 166.991 325.862 166.886 325.996C166.551 326.368 166.34 326.836 166.282 327.336C166.292 328.113 166.926 328.15 167.527 328.046L167.526 328.053ZM217.733 323.616C217.584 323.167 217.613 322.484 216.837 322.487C216.7 322.481 216.563 322.505 216.436 322.558C216.309 322.61 216.195 322.69 216.101 322.791C216.007 322.893 215.935 323.013 215.892 323.145C215.848 323.277 215.832 323.417 215.846 323.555C215.863 324.011 215.886 324.706 216.683 324.694C217.357 324.695 217.668 324.32 217.734 323.613L217.733 323.616ZM168.642 321.499C168.437 321.322 168.094 320.786 167.746 320.786C167.604 320.781 167.464 320.811 167.335 320.872C167.207 320.933 167.095 321.023 167.007 321.137C166.92 321.25 166.86 321.382 166.833 321.523C166.805 321.664 166.811 321.81 166.85 321.948C166.945 322.33 167.306 322.882 167.602 322.922C168.279 323.023 168.604 322.481 168.643 321.497L168.642 321.499ZM166.413 330.33C166.19 330.076 165.921 329.868 165.621 329.718C165.188 329.57 164.498 330.387 164.63 330.97C164.697 331.305 165.126 331.841 165.377 331.83C166.001 331.802 166.417 331.34 166.414 330.328L166.413 330.33ZM222.656 334.168C222.824 334.986 223.181 335.421 223.731 335.319C224.061 335.259 224.593 334.71 224.563 334.425C224.516 334.203 224.415 333.996 224.269 333.823C224.123 333.651 223.936 333.518 223.727 333.437C223.416 333.385 223.016 333.898 222.657 334.166L222.656 334.168ZM228.704 337.484C228.483 336.696 228.295 336.107 227.634 336.214C227.321 336.265 226.812 336.884 226.871 337.095C226.951 337.316 227.073 337.519 227.231 337.691C227.388 337.864 227.578 338.003 227.789 338.1C227.968 338.167 228.404 337.701 228.704 337.484ZM160.273 336.717C159.788 336.252 159.49 335.73 159.193 335.73C159.062 335.736 158.933 335.77 158.815 335.827C158.696 335.885 158.59 335.966 158.503 336.066C158.415 336.166 158.349 336.282 158.306 336.409C158.264 336.535 158.246 336.668 158.255 336.802C158.275 337.096 158.777 337.619 158.991 337.582C159.398 337.521 159.727 337.12 160.272 336.718L160.273 336.717ZM222.654 321.396L222.415 321.554L224.63 325.164C225.343 323.067 223.303 322.659 222.656 321.396H222.654ZM163.597 333.324C163.422 333.173 163.165 332.785 162.851 332.731C162.22 332.624 161.973 333.156 161.91 333.689C161.848 334.223 162.188 334.45 162.67 334.463C163.267 334.48 163.525 334.128 163.597 333.325V333.324ZM215.994 317.873H215.558C215.366 318.228 215.026 318.589 215.036 318.941C215.036 319.226 215.472 319.496 215.713 319.775C216.012 319.503 216.522 319.259 216.558 318.954C216.595 318.649 216.189 318.237 215.994 317.873ZM221.699 331.232C221.446 330.767 221.162 330.319 220.851 329.892C220.562 329.929 220.297 330.073 220.108 330.297C220.05 330.451 220.026 330.616 220.036 330.78C220.047 330.944 220.093 331.104 220.17 331.249C220.519 331.829 221.022 331.749 221.699 331.232V331.232ZM217.354 327.796L218.345 328.705C218.569 328.444 218.903 328.216 219.005 327.917C219.18 327.325 218.674 327.09 218.245 327.083C217.988 327.08 217.744 327.462 217.354 327.796ZM224.985 319.604L223.42 318.975L223.344 319.096L224.727 320.392C224.826 320.09 224.899 319.872 224.984 319.605L224.985 319.604Z" fill="black"/>
<path d="M198.847 29.5467C198.29 29.4668 197.743 29.3246 197.216 29.1225C195.727 28.3657 194.271 27.5349 192.815 26.7078C192.42 26.5056 192.103 26.1748 191.915 25.7684C191.727 25.3619 191.679 24.9033 191.779 24.4659C192.07 22.599 192.265 20.7181 192.363 18.8306C192.475 15.0932 190.527 12.5415 187.374 10.9534C183.683 9.0913 179.889 9.27915 176.122 10.8091C175.726 10.9697 175.428 11.3684 175.036 11.566C174.733 11.6677 174.417 11.7241 174.098 11.7332C174.098 11.3981 173.999 10.9158 174.164 10.7819C174.793 10.2029 175.511 9.73215 176.29 9.38821C178.842 8.4793 181.428 7.81762 184.214 8.38356C187.443 9.05313 190.343 10.2014 192.356 13.0117C193.848 15.0537 194.506 17.5998 194.195 20.1213C194.05 21.461 193.938 22.8001 193.793 24.1399C193.745 24.4059 193.796 24.6803 193.934 24.9111C194.073 25.1419 194.291 25.3132 194.545 25.3923C195.82 26.0189 197.054 26.7321 198.276 27.4653C198.996 27.9088 199.095 28.3142 198.847 29.5467Z" fill="black"/>
<path d="M148.254 29.0817C148.433 26.8653 149.004 24.6996 149.938 22.6878C150.849 20.5949 151.784 18.5116 153.319 16.7805C155.611 14.1949 158.332 12.4704 161.851 12.3632C162.788 12.3349 163.725 12.3958 164.651 12.5449C164.95 12.5916 165.189 13.0339 165.45 13.2951C165.146 13.4827 164.81 13.6088 164.459 13.6665C162.508 13.5024 160.548 13.8411 158.761 14.6512C156.301 15.8381 154.275 17.7857 152.976 20.2137C151.978 22.0914 151.081 24.0221 150.287 25.9974C149.941 26.9258 149.705 27.8926 149.584 28.8775C149.505 29.3695 149.584 30.013 148.98 29.9524C148.66 29.9252 148.393 29.2623 148.254 29.0817Z" fill="black"/>
<path d="M150.945 51.5021C150.79 50.0054 151.704 48.9335 152.558 48.0125C154.453 45.9632 154.255 43.8763 153.245 41.5422C152.887 40.721 152.788 39.8075 152.961 38.927C153.675 36.1239 154.662 33.4129 156.56 31.1643C156.876 30.7626 157.246 30.4075 157.659 30.1093C157.867 29.9754 158.244 30.1093 158.544 30.1093C158.488 30.3771 158.521 30.7322 158.365 30.897C156.961 32.4641 155.918 34.329 155.314 36.356C155.08 37.0625 154.836 37.769 154.591 38.4725C154.261 39.4202 154.565 40.2807 154.835 41.195C155.238 42.5644 155.74 44.0017 155.677 45.3845C155.631 46.4564 154.822 47.5113 154.271 48.5293C153.941 49.1559 153.28 49.6346 153.046 50.2811C152.85 51.0509 152.712 51.8346 152.633 52.6255C152.512 52.9791 152.35 53.3165 152.148 53.6301C151.818 53.3878 151.372 53.2151 151.204 52.8903C151.043 52.4451 150.955 51.9761 150.945 51.5021Z" fill="black"/>
<path d="M173.413 25.3008C174.687 25.3466 175.924 25.7499 176.986 26.4659C178.048 27.1818 178.893 28.1823 179.429 29.3563C180.175 31.2148 180.852 33.1041 181.639 34.9425C182.069 35.9351 182.582 36.8879 183.174 37.7904C184.373 39.6258 186.161 39.6155 188.031 39.2605C188.233 39.2205 188.457 39.0787 188.626 39.1296C188.939 39.2302 189.425 39.4041 189.458 39.6143C189.467 39.7925 189.433 39.9701 189.358 40.1318C189.284 40.2934 189.172 40.4343 189.032 40.542C187.849 41.2051 186.465 41.3959 185.151 41.0768C183.837 40.7577 182.688 39.9519 181.93 38.8175C180.517 36.6361 179.728 34.2027 178.863 31.785C178.371 30.4052 177.945 28.9449 176.78 27.9506C176.107 27.3783 175.315 26.9668 174.464 26.7465C173.614 26.5263 172.725 26.5029 171.864 26.6781C171.52 26.657 171.183 26.5683 170.873 26.4169C171.117 26.1691 171.319 25.8043 171.613 25.7001C172.203 25.5246 172.804 25.3912 173.413 25.3008Z" fill="black"/>
<path d="M199.637 42.1829C199.7 41.6696 199.589 41.1499 199.322 40.7089C199.056 40.2678 198.65 39.9315 198.171 39.7548C196.166 38.7805 195.45 37.6341 196.606 34.9994C196.707 34.7815 196.796 34.558 196.873 34.3299C197.052 33.7403 197.533 32.9901 197.316 32.595C196.816 31.8997 196.21 31.2903 195.519 30.7899C195.217 30.5751 194.927 30.3424 194.651 30.0931C194.585 29.9963 194.544 29.8841 194.533 29.767C194.521 29.6499 194.539 29.5318 194.585 29.4235C194.66 29.3261 194.758 29.2489 194.869 29.1987C194.981 29.1485 195.103 29.1269 195.225 29.1357C196.817 29.6085 198.16 30.7018 198.959 32.1763C199.481 33.181 198.959 34.159 198.629 35.1236C198.406 35.6397 198.252 36.1839 198.173 36.7415C198.173 37.0093 198.539 37.3511 198.81 37.5722C199.385 38.0376 200.065 38.3757 200.586 38.8883C201.986 40.2547 202.121 41.8575 201.458 43.5771C201.21 44.22 200.887 44.8363 200.593 45.4592C200.325 46.0318 199.801 46.3735 199.302 46.0784C199.14 45.9086 199.019 45.7027 198.949 45.4772C198.879 45.2517 198.862 45.0127 198.899 44.7793C199.094 43.8987 199.341 43.0308 199.639 42.1804L199.637 42.1829Z" fill="black"/>
<path d="M186.403 47.1795C185.832 50.686 184.976 53.8539 182.819 56.5564C181.568 58.1544 180.031 59.4976 178.287 60.515C178.003 60.7202 177.665 60.8367 177.316 60.8501C177.062 60.8198 176.656 60.4617 176.656 60.2575C176.669 60.0722 176.718 59.8915 176.801 59.7258C176.884 59.5601 176.999 59.4129 177.138 59.2928C177.915 58.6833 178.875 58.2882 179.549 57.5847C180.67 56.5225 181.637 55.3048 182.421 53.9678C183.326 52.0293 184.129 50.044 184.828 48.0199C184.958 47.6568 185.145 47.3175 185.383 47.0153C185.473 46.921 185.584 46.8493 185.707 46.8057C185.83 46.7622 185.96 46.7481 186.089 46.7644C186.271 46.7808 186.37 47.1255 186.403 47.1795Z" fill="black"/>
<path d="M194.658 40.1656C194.268 42.51 193.667 44.4823 191.686 45.6191C191.41 45.7807 191.102 45.8767 190.784 45.8999C190.466 45.923 190.147 45.8728 189.851 45.7528C189.555 45.6329 189.29 45.4464 189.075 45.2075C188.861 44.9685 188.703 44.6833 188.612 44.3733C188.52 44.0382 188.764 43.5928 188.857 43.2014C189.227 43.302 189.685 43.2983 189.949 43.5365C190.61 44.1091 191.128 44.1424 191.729 43.4795C192.356 42.8083 192.777 41.9658 192.939 41.0555C193.101 40.1453 192.997 39.2069 192.64 38.3557C192.29 37.351 191.257 37.2268 190.549 37.9873C190.351 38.1981 189.965 38.2296 189.667 38.3454C189.615 38.0103 189.449 37.6552 189.535 37.3759C189.627 36.9994 189.838 36.6641 190.137 36.4219C190.435 36.1797 190.804 36.0441 191.186 36.0361C192.177 36.0361 193.223 36.3143 193.699 37.2989C194.09 38.2282 194.411 39.1866 194.658 40.1656Z" fill="black"/>
<path d="M155.376 49.172L155.898 48.3115C156.136 48.563 156.472 48.7739 156.591 49.072C157.417 51.1249 158.07 53.2584 159.031 55.2374C159.911 56.9202 161.223 58.3306 162.828 59.3197C162.851 59.3197 162.894 59.3197 162.908 59.3566C163.146 59.7584 163.385 60.1637 163.624 60.5685C163.171 60.6774 162.702 60.6979 162.241 60.6291C159.774 59.6778 158.374 57.6151 157.367 55.3144C156.651 53.477 156.03 51.6026 155.508 49.6991C155.486 49.5492 155.486 49.397 155.508 49.2471L155.376 49.172Z" fill="black"/>
<path d="M164.267 22.3428C165.033 22.5906 165.821 22.7881 166.552 23.1063C166.855 23.287 167.082 23.5742 167.19 23.9134C167.374 24.4424 166.995 24.7908 166.457 24.6502C162.947 23.7358 161.029 24.503 159.024 27.6108C158.882 27.8768 158.681 28.1058 158.437 28.2804C158.111 28.4169 157.77 28.5113 157.421 28.5615C157.398 28.1665 157.21 27.6708 157.378 27.3994C157.968 26.368 158.661 25.4016 159.448 24.5157C160.058 23.8337 160.802 23.2883 161.632 22.9142C162.462 22.54 163.359 22.3454 164.267 22.3428Z" fill="black"/>
<path d="M147.413 45.4406C147.291 45.2936 147.203 45.1217 147.153 44.9366C147.104 44.7515 147.094 44.5578 147.126 44.3687C147.157 44.1795 147.228 43.9996 147.335 43.8412C147.442 43.6828 147.581 43.5498 147.743 43.4513C148.81 42.5806 148.753 41.482 148.242 40.4676C147.406 38.8098 148.384 36.3618 149.487 35.2499C149.652 35.1292 149.844 35.0521 150.046 35.0258C150.248 34.9994 150.453 35.0246 150.642 35.099C151.111 35.402 150.642 35.7286 150.431 36.0437C149.51 37.3531 149.11 38.7225 149.813 40.3137C150.998 42.9926 150.028 43.9106 148.252 45.2703C148.034 45.4376 147.657 45.3939 147.413 45.4406Z" fill="black"/>
<path d="M166.034 9.51958C167.521 9.51407 168.976 9.95446 170.216 10.7854C171.013 11.2822 171.741 11.8834 172.382 12.5735C172.681 12.9086 172.94 13.766 172.772 13.9363C172.277 14.4422 171.712 14.0266 171.219 13.6515C170.419 13.0389 169.591 12.4626 168.782 11.8634C167.028 10.5673 165.15 11.0799 163.238 11.3641C162.867 11.3387 162.504 11.2433 162.168 11.0829C162.432 10.8018 162.65 10.3631 162.967 10.2655C164.073 9.91829 165.212 9.70682 166.034 9.51958Z" fill="black"/>
<path d="M169.303 22.568C169.897 19.7916 170.755 17.1431 173.425 15.6124C173.728 15.4385 174.214 15.6124 174.62 15.6124C174.527 16.0178 174.57 16.5868 174.321 16.7983C172.827 18.0544 172.135 19.8122 171.287 21.4871C171.135 21.875 171.059 22.289 171.062 22.7062C171.012 23.3291 170.89 24.0459 170.203 24.0459C169.455 24.0078 169.246 23.3249 169.303 22.568Z" fill="black"/>
<path d="M171.753 53.6959C172.836 53.4245 173.915 53.1263 175.008 52.9082C175.328 52.9094 175.645 52.9711 175.942 53.09C175.771 53.5257 175.698 54.2255 175.405 54.3394C174.432 54.7068 173.424 54.9663 172.397 55.1132C170.656 55.3877 168.904 55.5756 167.153 55.7828C166.663 55.863 166.165 55.8833 165.67 55.8434C165.462 55.8131 165.221 55.5083 165.139 55.2508C165.102 55.1472 165.413 54.8054 165.611 54.7587C166.905 54.4558 168.216 54.2195 169.516 53.9383" fill="black"/>
<path d="M191.835 48.7934H194.276C194.68 48.8083 195.07 48.9486 195.394 49.1952C195.717 49.4419 195.959 49.7832 196.085 50.1731C196.185 50.5433 196.169 50.9361 196.038 51.2964C195.907 51.6567 195.669 51.9665 195.356 52.1824C195.197 52.2993 195.018 52.3829 194.827 52.4284C194.637 52.4738 194.439 52.4802 194.246 52.4472C194.084 52.4169 193.916 51.8176 193.952 51.4995C194.015 50.9202 193.84 50.7294 193.292 50.7494C192.669 50.8214 192.04 50.7988 191.423 50.6821C190.971 50.5548 190.334 50.1228 190.281 49.7514C190.282 49.1328 190.447 48.5258 190.759 47.9941C190.857 47.8957 190.978 47.8241 191.111 47.786C191.244 47.748 191.384 47.7447 191.518 47.7766C191.699 47.9323 191.702 48.3177 191.835 48.7934Z" fill="black"/>
<path d="M177.722 32.8658C177.914 32.9967 178.27 33.1573 178.254 33.2476C178.198 33.5827 178.095 34.008 177.861 34.1516C176.726 34.8448 175.549 35.4611 174.374 36.101C173.971 36.3569 173.546 36.5742 173.103 36.7499C172.759 36.8019 172.41 36.8019 172.066 36.7499C172.159 36.4148 172.139 35.8895 172.365 35.7453C173.437 34.9948 174.548 34.3028 175.693 33.6723C176.351 33.3548 177.029 33.0851 177.724 32.8652L177.722 32.8658Z" fill="black"/>
<path d="M163.229 37.6384C162.473 37.4172 161.882 37.23 161.288 37.0658C160.433 36.8313 159.555 36.6537 158.723 36.3659C158.475 36.2787 158.327 35.9036 158.135 35.6624C158.409 35.4849 158.716 35.1171 158.947 35.1631C160.381 35.4346 161.806 35.766 163.21 36.1678C163.36 36.2443 163.491 36.3563 163.59 36.4944C163.69 36.6325 163.755 36.7927 163.781 36.9616C163.796 37.1724 163.413 37.4239 163.229 37.6384Z" fill="black"/>
<path d="M169.319 51.5466C168.157 51.1915 167.127 50.9237 166.133 50.5419C166.009 50.442 165.911 50.3119 165.85 50.1636C165.788 50.0153 165.764 49.8537 165.78 49.6936C165.856 49.5562 165.965 49.4408 166.098 49.3587C166.23 49.2765 166.381 49.2304 166.537 49.2246C167.505 49.3325 168.462 49.5332 169.393 49.8239C169.58 49.9279 169.743 50.0714 169.872 50.2447C170 50.4179 170.09 50.617 170.136 50.8285C170.171 50.994 169.61 51.3054 169.319 51.5466Z" fill="black"/>
<path d="M155.654 56.1309C155.878 56.4054 156.212 56.6502 156.314 56.9646C156.644 58.0662 155.455 60.3773 154.382 60.759C154.05 60.8123 153.71 60.7408 153.426 60.5579C153.385 60.437 153.372 60.3082 153.387 60.1813C153.402 60.0543 153.445 59.9324 153.512 59.8247C154.581 58.9218 155.259 57.6309 155.401 56.2278L155.654 56.1309Z" fill="black"/>
<path d="M170.759 62.6076L170.24 63.2772C169.946 63.0257 169.438 62.8051 169.399 62.5203C169.261 61.3759 169.199 60.2235 169.21 59.0707C169.21 58.8598 169.541 58.6465 169.738 58.4375C169.963 58.6453 170.349 58.8259 170.399 59.064C170.555 60.1293 170.624 61.2145 170.759 62.6076Z" fill="black"/>
<path d="M168.558 62.6783C168.519 62.7183 168.403 62.9498 168.228 63.0134C168.053 63.077 167.673 62.9965 167.65 62.9062C167.449 62.1627 167.297 61.4064 167.194 60.6424C167.194 60.5418 167.571 60.2788 167.769 60.2843C167.967 60.2897 168.119 60.5588 168.254 60.743C168.331 60.8716 168.376 61.017 168.386 61.1671C168.448 61.6034 168.49 62.0451 168.558 62.6783Z" fill="black"/>
<path d="M173.361 61.8877C172.932 62.2797 172.701 62.6681 172.417 62.7117C171.859 62.7954 171.327 61.8277 171.426 60.8667C171.456 60.5885 171.816 60.3474 172.023 60.0898L173.361 61.8877Z" fill="black"/>
<path d="M177.653 40.6621C177.731 40.7163 177.795 40.7876 177.841 40.8708C177.887 40.954 177.914 41.0467 177.919 41.142C177.925 41.2373 177.909 41.3326 177.872 41.4206C177.836 41.5086 177.78 41.587 177.709 41.6498C177.481 41.8923 177.203 42.0799 176.894 42.1988C176.699 42.2521 176.117 41.6898 176.091 41.3783C176.055 40.8657 176.299 40.227 177.016 40.3404C177.249 40.3993 177.467 40.5091 177.654 40.6621H177.653Z" fill="black"/>
<path d="M173.041 60.159C173.239 59.8845 173.371 59.4895 173.629 59.4089C173.794 59.3483 174.207 59.667 174.329 59.9112C174.52 60.3131 174.632 60.7487 174.659 61.194C174.649 61.3125 174.609 61.4264 174.544 61.5253C174.479 61.6242 174.39 61.7049 174.286 61.7599C174.17 61.7766 174.051 61.7639 173.94 61.723C173.83 61.6821 173.731 61.6143 173.652 61.5254C173.416 61.0856 173.212 60.629 173.041 60.159Z" fill="black"/>
<path d="M166.275 61.6132C166.054 61.8677 165.833 62.3403 165.615 62.3403C164.843 62.3403 164.843 61.6132 164.826 61.0945C164.826 60.7594 165.137 60.1535 165.325 60.1498C166.19 60.1292 166.041 60.8764 166.275 61.6132Z" fill="black"/>
<path d="M163.3 42.5126C162.365 42.5126 162.224 42.0236 162.17 41.5079C162.158 41.3943 162.173 41.2792 162.215 41.173C162.256 41.0667 162.323 40.9726 162.41 40.899C162.496 40.8254 162.599 40.7746 162.709 40.7511C162.819 40.7276 162.934 40.7322 163.042 40.7644C163.242 40.8496 163.42 40.9797 163.563 41.1451C163.706 41.3104 163.81 41.5066 163.868 41.7188C163.917 41.9508 163.448 42.3144 163.3 42.5126Z" fill="black"/>
<path d="M194.12 96.1937C195.398 98.203 196.603 100.089 197.785 101.984C198.203 102.605 198.563 103.264 198.86 103.953C199.005 104.272 199.041 104.631 198.963 104.973C198.885 105.315 198.696 105.621 198.428 105.842C197.226 106.89 196.054 107.992 195.456 109.526C194.844 111.093 194.312 112.691 193.862 114.313C192.983 117.491 192.105 120.676 191.385 123.894C190.54 127.685 189.85 131.51 189.115 135.324C188.607 137.987 188.141 140.656 187.649 143.323C187.124 146.189 186.602 149.059 186.058 151.923C185.843 153.048 185.608 154.17 185.314 155.272C185.195 155.73 184.941 156.186 184.294 156.009C184.169 155.991 184.049 155.946 183.942 155.877C183.835 155.807 183.745 155.715 183.677 155.607C183.608 155.499 183.564 155.377 183.547 155.25C183.53 155.122 183.54 154.993 183.577 154.87C184.238 151.146 184.898 147.423 185.558 143.701C186.09 140.714 186.549 137.713 187.166 134.75C188.315 129.301 189.478 123.853 190.799 118.444C191.555 115.329 192.555 112.269 193.562 109.228C194.058 107.576 195.11 106.154 196.534 105.209C197.194 104.79 197.092 104.204 196.742 103.678C195.751 102.198 194.698 100.778 193.77 99.261C193.236 98.3559 192.812 97.389 192.505 96.3809C192.377 96.0244 192.39 95.631 192.542 95.284C192.694 94.9371 192.973 94.6639 193.321 94.5225C195.046 93.5833 196.928 92.977 198.871 92.7344C199.78 92.5938 200.668 92.3224 201.576 92.1854C202.154 92.0982 202.177 91.8218 202.025 91.3716C201.599 90.1222 201.143 88.8836 200.774 87.6209C200.272 85.906 199.836 84.1712 199.377 82.4467C198.604 79.5531 197.834 76.6596 197.066 73.766C196.656 72.239 196.177 70.7284 195.824 69.1881C195.641 68.3634 195.574 67.5166 195.626 66.6729C195.645 66.3614 196.144 66.0802 196.425 65.7852C196.601 66.0612 196.746 66.3568 196.857 66.6662C197.069 67.5751 197.161 68.5113 197.411 69.402C198.276 72.456 199.178 75.5002 200.089 78.5378C200.561 80.1187 201.08 81.6826 201.583 83.2563C202.359 85.7612 203.141 88.2632 203.894 90.7778C204.12 91.4339 204.239 92.1227 204.247 92.8174C204.213 93.0337 204.128 93.2384 203.999 93.4135C203.869 93.5887 203.699 93.729 203.504 93.8221C202.543 94.0699 201.523 94.0699 200.532 94.2741C198.776 94.6461 197.029 95.0745 195.292 95.5266C194.873 95.6936 194.479 95.9181 194.12 96.1937Z" fill="white"/>
<path d="M155.053 98.525C152.857 99.1946 150.99 99.9684 149.575 101.6C149.293 101.952 148.935 102.234 148.529 102.424C148.046 102.611 147.373 102.832 147.01 102.625C146.822 102.445 146.683 102.22 146.606 101.97C146.53 101.72 146.517 101.454 146.571 101.198C147.178 98.5195 147.892 95.8401 148.552 93.1612C148.995 91.3628 149.334 89.534 149.817 87.7429C150.593 84.8562 151.398 81.9695 152.299 79.1191C152.96 77.0395 153.775 75.0133 154.551 72.9773C154.734 72.619 154.956 72.2821 155.211 71.9727L155.51 71.9927C155.559 72.3277 155.721 72.6622 155.642 72.9403C154.865 75.6798 154.021 78.3993 153.248 81.1387C152.548 83.6231 151.842 86.1074 151.267 88.6203C150.412 92.3208 149.662 96.0449 148.877 99.7017C149.643 99.0919 150.463 98.5559 151.327 98.1008C152.977 97.4076 154.678 96.8787 156.379 96.3436C156.541 96.3045 156.71 96.3061 156.872 96.3483C157.034 96.3906 157.183 96.4721 157.306 96.586C157.384 96.7492 157.427 96.9276 157.431 97.1091C157.435 97.2905 157.4 97.4707 157.33 97.6373C155.157 102.163 153.315 106.844 151.819 111.642C151.657 112.082 151.665 112.567 151.839 113.002C152.849 114.517 153.262 116.268 153.876 117.942C154.695 120.172 155.652 122.349 156.432 124.59C157.422 127.453 158.307 130.35 159.202 133.247C159.82 135.256 160.381 137.265 160.955 139.275C161.83 142.342 162.655 145.427 163.596 148.481C164.039 149.935 164.672 151.337 165.209 152.764C165.433 153.281 165.613 153.817 165.747 154.365C165.747 154.707 165.689 155.047 165.576 155.37C165.223 155.242 164.691 155.219 164.546 154.968C163.979 153.982 163.488 152.953 163.077 151.89C162.261 149.763 161.449 147.634 160.765 145.46C159.877 142.612 159.161 139.704 158.292 136.847C156.948 132.433 155.585 128.029 154.142 123.649C153.35 121.247 152.402 118.9 151.477 116.542C151.124 115.648 150.658 114.798 150.219 113.94C149.999 113.598 149.855 113.21 149.797 112.805C149.74 112.4 149.772 111.987 149.889 111.596C150.82 109.054 151.681 106.479 152.656 103.954C153.362 102.179 154.197 100.457 155.053 98.525Z" fill="white"/>
<path d="M181.777 76.0732C181.641 77.9352 181.431 79.7937 181.388 81.6557C181.325 84.3649 181.388 87.0777 181.388 89.7905V97.4932C181.414 100.973 181.49 104.455 181.49 107.938C181.49 111.622 181.351 115.27 181.423 118.936C181.506 123.123 181.754 127.309 181.929 131.491C182.074 135.159 182.163 138.832 182.328 142.499C182.444 145.041 182.659 147.583 182.784 150.125C182.784 150.38 182.51 150.875 182.371 150.872C182.041 150.872 181.543 150.694 181.447 150.453C181.137 149.735 180.944 148.97 180.876 148.189C180.696 144.649 180.601 141.106 180.453 137.567C180.364 135.346 180.202 133.132 180.123 130.912C179.967 126.1 179.792 121.287 179.727 116.471C179.671 113.017 179.727 109.559 179.77 106.09C179.806 101.994 179.869 97.895 179.902 93.7958C179.932 90.3831 179.852 86.9638 179.971 83.5511C180.047 81.277 180.393 79.0102 180.602 76.7391C180.662 76.0696 180.602 75.3994 180.704 74.7468C180.744 74.4753 181.015 74.2378 181.182 73.9863C181.406 74.2175 181.588 74.4873 181.72 74.7831C181.774 75.2041 181.782 75.6299 181.743 76.0526L181.777 76.0732Z" fill="white"/>
<path d="M223.07 165.849C222.667 166.308 222.409 166.831 222.148 166.854C221.662 166.87 221.189 166.695 220.827 166.365C219.619 165.025 218.539 163.555 217.341 162.196C215.809 160.458 214.24 158.746 212.621 157.089C211.337 155.769 209.868 154.627 208.659 153.254C207.608 151.995 206.649 150.658 205.792 149.255C205.713 149.087 205.677 148.902 205.687 148.717C205.698 148.531 205.754 148.351 205.852 148.194C206.364 147.775 206.568 148.304 206.842 148.692C208.493 151.16 210.685 153.09 212.891 155.025C214.717 156.626 216.39 158.401 218.128 160.105C219.188 161.143 220.287 162.151 221.271 163.26C221.907 164.006 222.418 164.917 223.07 165.849Z" fill="white"/>
<path d="M160.603 319.144C160.308 319.533 159.993 319.905 159.658 320.259C158.311 321.552 156.944 322.828 155.577 324.1C154.567 325.045 154.101 324.988 153.22 323.789C155.293 321.682 158.053 320.628 160.389 318.93C160.46 319.002 160.53 319.074 160.603 319.144Z" fill="white"/>
<path d="M158.193 327.757L160.28 322.733L160.564 322.81C160.495 323.339 160.432 323.872 160.346 324.401C160.278 324.967 160.168 325.527 160.015 326.076C159.855 326.634 159.612 327.164 159.293 327.646C159.131 327.877 158.695 327.908 158.382 328.028C158.325 327.933 158.263 327.842 158.193 327.757Z" fill="white"/>
<path d="M167.526 328.045C166.925 328.142 166.291 328.106 166.281 327.342C166.339 326.842 166.55 326.373 166.885 326.002C166.991 325.868 167.658 325.949 167.796 326.139C168.312 326.809 168.018 327.469 167.526 328.045Z" fill="white"/>
<path d="M217.734 323.614C217.668 324.321 217.358 324.683 216.694 324.693C215.898 324.693 215.875 324.023 215.858 323.554C215.844 323.416 215.859 323.276 215.903 323.144C215.947 323.013 216.018 322.892 216.112 322.791C216.206 322.689 216.32 322.61 216.447 322.557C216.574 322.505 216.711 322.48 216.848 322.486C217.615 322.483 217.585 323.165 217.734 323.614Z" fill="white"/>
<path d="M168.643 321.5C168.604 322.484 168.28 323.015 167.603 322.923C167.304 322.883 166.943 322.331 166.85 321.949C166.812 321.81 166.806 321.665 166.833 321.524C166.861 321.383 166.92 321.25 167.008 321.137C167.095 321.024 167.207 320.933 167.336 320.872C167.464 320.811 167.605 320.782 167.746 320.787C168.095 320.784 168.439 321.318 168.643 321.5Z" fill="white"/>
<path d="M166.415 330.329C166.415 331.333 166.002 331.802 165.364 331.829C165.113 331.829 164.684 331.307 164.618 330.968C164.499 330.372 165.189 329.569 165.609 329.716C165.914 329.865 166.188 330.073 166.415 330.329Z" fill="white"/>
<path d="M222.656 334.169C223.015 333.901 223.416 333.386 223.726 333.436C223.936 333.517 224.122 333.649 224.268 333.822C224.414 333.995 224.515 334.201 224.563 334.424C224.592 334.708 224.074 335.254 223.73 335.318C223.181 335.413 222.825 334.984 222.656 334.169Z" fill="white"/>
<path d="M228.706 337.483C228.376 337.701 227.973 338.153 227.792 338.086C227.581 337.988 227.391 337.849 227.233 337.677C227.076 337.505 226.954 337.302 226.874 337.081C226.814 336.857 227.323 336.251 227.637 336.2C228.297 336.106 228.485 336.696 228.706 337.483Z" fill="white"/>
<path d="M160.273 336.719C159.719 337.12 159.382 337.522 158.992 337.583C158.778 337.62 158.275 337.098 158.256 336.802C158.247 336.669 158.264 336.536 158.307 336.409C158.349 336.283 158.416 336.167 158.504 336.067C158.591 335.967 158.697 335.886 158.816 335.828C158.934 335.77 159.063 335.737 159.194 335.73C159.488 335.747 159.787 336.253 160.273 336.719Z" fill="white"/>
<path d="M222.653 321.397C223.313 322.66 225.341 323.072 224.634 325.165L222.419 321.555L222.653 321.397Z" fill="white"/>
<path d="M163.598 333.323C163.525 334.126 163.267 334.478 162.67 334.461C162.188 334.461 161.844 334.21 161.911 333.687C161.977 333.165 162.221 332.622 162.851 332.73C163.166 332.783 163.423 333.171 163.598 333.323Z" fill="white"/>
<path d="M215.994 317.874C216.202 318.238 216.598 318.624 216.558 318.956C216.519 319.287 216.013 319.505 215.713 319.776C215.474 319.498 215.053 319.227 215.036 318.942C215.036 318.591 215.366 318.229 215.558 317.874H215.994Z" fill="white"/>
<path d="M221.698 331.233C221.022 331.748 220.516 331.829 220.17 331.263C220.092 331.118 220.047 330.958 220.036 330.794C220.025 330.63 220.049 330.465 220.107 330.312C220.296 330.088 220.561 329.943 220.85 329.906C221.161 330.329 221.444 330.772 221.698 331.233Z" fill="white"/>
<path d="M217.354 327.797C217.743 327.462 217.987 327.08 218.225 327.084C218.654 327.084 219.159 327.326 218.984 327.918C218.895 328.221 218.562 328.447 218.324 328.706L217.354 327.797Z" fill="white"/>
<path d="M224.985 319.605C224.899 319.873 224.827 320.09 224.727 320.393L223.344 319.097L223.42 318.976L224.985 319.605Z" fill="white"/>
<path d="M50 290.481H42.4726V287.309C42.4726 284.889 43.9996 283.244 46.2363 283.244C48.473 283.244 50 284.889 50 287.309V290.481ZM49.0645 289.406V287.374C49.0645 285.513 47.9246 284.32 46.2363 284.32C44.548 284.32 43.4082 285.513 43.4082 287.374V289.406L49.0645 289.406ZM47.1826 276.597C47.2686 276.597 47.3977 276.608 47.4945 276.618V281.242C48.4945 281.113 49.1612 280.307 49.1612 279.178C49.1612 278.511 48.9354 277.952 48.473 277.532L49.1397 276.962C49.7419 277.479 50.0645 278.264 50.0645 279.21C50.0645 281.049 48.8494 282.275 47.1504 282.275C45.4621 282.275 44.2469 281.059 44.2469 279.414C44.2469 277.769 45.4298 276.597 47.1826 276.597ZM45.118 279.414C45.118 280.403 45.7847 281.135 46.7525 281.242V277.586C45.7954 277.694 45.118 278.414 45.118 279.414ZM50.0645 273.529C50.0645 274.475 49.7742 275.411 49.3978 275.884L48.5806 275.454C48.9247 274.97 49.172 274.196 49.172 273.454C49.172 272.496 48.8816 272.099 48.3977 272.099C47.1181 272.099 48.2257 275.701 45.9567 275.701C44.9352 275.701 44.2469 274.787 44.2469 273.325C44.2469 272.583 44.4405 271.744 44.7631 271.249L45.5804 271.69C45.247 272.206 45.1287 272.776 45.1287 273.335C45.1287 274.239 45.4621 274.679 45.9137 274.679C47.2579 274.679 46.161 271.066 48.3762 271.066C49.4086 271.066 50.0645 272.013 50.0645 273.529ZM43.2039 269.26C43.2039 269.658 42.9135 269.959 42.5372 269.959C42.1608 269.959 41.8597 269.658 41.8597 269.26C41.8597 268.862 42.15 268.561 42.5157 268.561C42.9028 268.561 43.2039 268.851 43.2039 269.26ZM50 269.776H44.3007V268.744H50V269.776ZM44.3007 262.299V261.321H49.2258C51.2366 261.321 52.1507 262.342 52.1507 264.278C52.1507 265.321 51.8603 266.375 51.3012 266.999L50.5054 266.504C50.957 265.977 51.2474 265.149 51.2474 264.31C51.2474 262.966 50.6237 262.353 49.3333 262.353H48.8816C49.4731 262.848 49.7634 263.59 49.7634 264.407C49.7634 266.052 48.6451 267.3 46.9998 267.3C45.3545 267.3 44.2469 266.052 44.2469 264.407C44.2469 263.558 44.5588 262.783 45.1825 262.299H44.3007ZM48.8601 264.289C48.8601 263.149 48.0967 262.332 46.9998 262.332C45.8922 262.332 45.1502 263.149 45.1502 264.289C45.1502 265.439 45.8922 266.257 46.9998 266.257C48.0967 266.257 48.8601 265.439 48.8601 264.289ZM44.2469 256.305C44.2469 254.918 45.0427 253.939 46.7202 253.939H50V254.972H46.8385C45.7202 254.972 45.1717 255.531 45.1717 256.509C45.1717 257.606 45.8277 258.316 47.0643 258.316H50V259.348H44.3007V258.359H45.161C44.5803 257.94 44.2469 257.208 44.2469 256.305ZM50.086 246.797C50.086 247.947 49.6989 249.077 49.1397 249.679L48.301 249.281C48.8064 248.722 49.172 247.765 49.172 246.797C49.172 245.496 48.6666 244.936 48.0106 244.936C46.1718 244.936 47.3332 249.496 44.5373 249.496C43.3759 249.496 42.3866 248.593 42.3866 246.614C42.3866 245.732 42.6232 244.818 43.0533 244.194L43.9136 244.549C43.4942 245.205 43.3007 245.947 43.3007 246.614C43.3007 247.894 43.8383 248.442 44.4943 248.442C46.3331 248.442 45.1825 243.883 47.9461 243.883C49.0967 243.883 50.086 244.807 50.086 246.797ZM48.9247 239.58L49.6666 239.258C49.9355 239.57 50.0645 240.043 50.0645 240.505C50.0645 241.656 49.4301 242.312 48.2795 242.312H45.1502V243.279H44.3007V242.312H43.0533V241.279H44.3007V239.645H45.1502V241.279H48.2364C48.8494 241.279 49.1935 240.957 49.1935 240.387C49.1935 240.086 49.0967 239.795 48.9247 239.58ZM45.2578 237.02C44.5911 236.655 44.2469 235.945 44.2469 234.945H45.247C45.2363 235.031 45.2363 235.106 45.2363 235.181C45.2363 236.289 45.9137 236.977 47.1611 236.977H50V238.01H44.3007V237.02H45.2578ZM44.2469 231.608C44.2469 230.048 44.9997 229.167 46.5589 229.167H50V230.145H49.2473C49.7634 230.489 50.0645 231.124 50.0645 232.016C50.0645 233.307 49.3763 234.124 48.387 234.124C47.473 234.124 46.7202 233.533 46.7202 231.833V230.199H46.5159C45.6449 230.199 45.1395 230.704 45.1395 231.726C45.1395 232.403 45.3761 233.092 45.7524 233.533L44.9782 233.963C44.505 233.371 44.2469 232.522 44.2469 231.608ZM49.2688 231.844C49.2688 231.07 48.9139 230.457 48.258 230.199H47.4622V231.79C47.4622 232.812 47.8601 233.102 48.344 233.102C48.9139 233.102 49.2688 232.629 49.2688 231.844ZM48.9247 224.374L49.6666 224.052C49.9355 224.364 50.0645 224.837 50.0645 225.299C50.0645 226.45 49.4301 227.106 48.2795 227.106H45.1502V228.074H44.3007V227.106H43.0533V226.073H44.3007L44.3007 224.439H45.1502L45.1502 226.073H48.2364C48.8494 226.073 49.1935 225.751 49.1935 225.181C49.1935 224.88 49.0967 224.589 48.9247 224.374ZM47.1826 217.842C47.2686 217.842 47.3977 217.853 47.4945 217.863V222.487C48.4945 222.358 49.1612 221.552 49.1612 220.423C49.1612 219.756 48.9354 219.197 48.473 218.777L49.1397 218.207C49.7419 218.724 50.0645 219.509 50.0645 220.455C50.0645 222.294 48.8494 223.52 47.1504 223.52C45.4621 223.52 44.2469 222.304 44.2469 220.659C44.2469 219.014 45.4298 217.842 47.1826 217.842ZM45.118 220.659C45.118 221.649 45.7847 222.38 46.7525 222.487V218.831C45.7954 218.939 45.118 219.659 45.118 220.659ZM44.3007 211.935V210.956H49.2258C51.2366 210.956 52.1507 211.978 52.1507 213.914C52.1507 214.957 51.8603 216.01 51.3012 216.634L50.5054 216.14C50.957 215.613 51.2474 214.785 51.2474 213.946C51.2474 212.602 50.6237 211.989 49.3333 211.989H48.8816C49.4731 212.483 49.7634 213.225 49.7634 214.043C49.7634 215.688 48.6451 216.935 46.9998 216.935C45.3545 216.935 44.2469 215.688 44.2469 214.043C44.2469 213.193 44.5588 212.419 45.1825 211.935H44.3007ZM48.8601 213.924C48.8601 212.784 48.0967 211.967 46.9998 211.967C45.8922 211.967 45.1502 212.784 45.1502 213.924C45.1502 215.075 45.8922 215.892 46.9998 215.892C48.0967 215.892 48.8601 215.075 48.8601 213.924ZM43.2039 208.468C43.2039 208.866 42.9135 209.167 42.5372 209.167C42.1608 209.167 41.8597 208.866 41.8597 208.468C41.8597 208.07 42.15 207.769 42.5157 207.769C42.9028 207.769 43.2039 208.059 43.2039 208.468ZM50 208.984H44.3007V207.952H50V208.984ZM50.0645 204.346C50.0645 205.292 49.7742 206.228 49.3978 206.701L48.5806 206.271C48.9247 205.787 49.172 205.013 49.172 204.271C49.172 203.314 48.8816 202.916 48.3977 202.916C47.1181 202.916 48.2257 206.518 45.9567 206.518C44.9352 206.518 44.2469 205.604 44.2469 204.142C44.2469 203.4 44.4405 202.561 44.7631 202.066L45.5804 202.507C45.247 203.023 45.1287 203.593 45.1287 204.152C45.1287 205.056 45.4621 205.497 45.9137 205.497C47.2579 205.497 46.161 201.884 48.3762 201.884C49.4086 201.884 50.0645 202.83 50.0645 204.346ZM48.9247 197.711L49.6666 197.389C49.9355 197.701 50.0645 198.174 50.0645 198.636C50.0645 199.787 49.4301 200.443 48.2795 200.443H45.1502V201.411H44.3007V200.443H43.0533V199.41H44.3007V197.776H45.1502V199.41H48.2364C48.8494 199.41 49.1935 199.088 49.1935 198.518C49.1935 198.217 49.0967 197.927 48.9247 197.711Z" fill="black"/>
<path d="M237.448 53.4893L236.135 69.2708L239.395 75.9228L235.074 78.1013L231.788 71.3957L218.644 62.97L223.232 60.6569L232.308 66.484L233.207 55.6275L237.448 53.4893ZM250.45 52.3529L254.611 50.255L261.683 64.6855L257.735 66.6758L256.894 64.9591C256.418 66.7711 255.147 68.2486 253.386 69.1361C249.786 70.9516 246.253 70.1906 244.071 65.7381L240.074 57.5841L244.235 55.4862L247.929 63.0233C249.112 65.4373 250.705 65.9723 252.545 65.0444C254.466 64.0762 255.248 62.1431 253.946 59.4876L250.45 52.3529ZM270.47 60.5225C268.043 61.7463 265.261 62.3129 263.493 62.1001L263.408 58.3967C265.096 58.5827 267.319 58.1643 269.079 57.2768C271 56.3085 271.47 55.4358 271.076 54.6312C269.919 52.2708 262.434 59.0553 259.607 53.2885C258.266 50.5526 259.774 47.3842 263.961 45.2729C265.935 44.2778 268.346 43.631 270.1 43.7499L270.173 47.4264C268.365 47.3345 266.819 47.779 265.513 48.4379C263.645 49.3793 263.135 50.3728 263.503 51.1238C264.712 53.5915 272.21 46.8338 274.997 52.5201C276.312 55.2024 274.765 58.3574 270.47 60.5225ZM282.93 35.9765L287.091 33.8787L294.163 48.3092L290.216 50.2994L289.375 48.5828C288.899 50.3948 287.627 51.8722 285.867 52.7598C282.266 54.5752 278.733 53.8143 276.551 49.3617L272.555 41.2077L276.716 39.1099L280.41 46.647C281.593 49.061 283.185 49.596 285.026 48.6681C286.946 47.6999 287.728 45.7667 286.427 43.1113L282.93 35.9765ZM308.714 40.9731L301.406 37.5997L300.378 40.5931L302.179 44.2678L298.018 46.3657L288.264 26.4634L292.425 24.3656L297.946 35.631L301.188 26.7712L306.149 24.27L303.172 33.3978L313.755 38.4315L308.714 40.9731ZM325.547 23.5546C325.705 23.8765 325.875 24.3594 326.019 24.7215L315.164 30.1948C316.445 31.7902 318.504 32.1234 320.691 31.0206C322.211 30.2541 323.081 29.2468 323.608 27.8104L327.005 29.1083C326.421 31.3095 324.815 33.1228 322.227 34.4272C317.266 36.9285 312.501 35.4175 310.398 31.1259C308.281 26.8075 310.037 22.042 314.411 19.8366C318.626 17.7118 323.273 18.9144 325.547 23.5546ZM315.989 22.9882C314.096 23.9429 313.301 25.7822 313.914 27.7808L320.982 24.2172C319.795 22.5412 317.856 22.0468 315.989 22.9882Z" fill="black"/>
<path d="M328.608 68.2911C322.007 68.2911 317.168 63.691 317.168 57.478C317.168 51.2649 322.007 46.6649 328.608 46.6649C335.18 46.6649 340.049 51.235 340.049 57.478C340.049 63.7209 335.18 68.2911 328.608 68.2911ZM328.608 64.1689C332.342 64.1689 335.15 61.4507 335.15 57.478C335.15 53.5052 332.342 50.787 328.608 50.787C324.874 50.787 322.067 53.5052 322.067 57.478C322.067 61.4507 324.874 64.1689 328.608 64.1689Z" fill="black"/>
<path d="M328.339 135.431C325.621 135.431 322.873 134.685 321.38 133.699L322.933 130.353C324.367 131.279 326.547 131.907 328.519 131.907C330.669 131.907 331.476 131.339 331.476 130.443C331.476 127.814 321.768 130.503 321.768 124.081C321.768 121.034 324.516 118.883 329.206 118.883C331.416 118.883 333.865 119.391 335.389 120.287L333.836 123.603C332.252 122.707 330.669 122.408 329.206 122.408C327.115 122.408 326.219 123.065 326.219 123.901C326.219 126.649 335.927 123.991 335.927 130.323C335.927 133.311 333.149 135.431 328.339 135.431Z" fill="black"/>
<path d="M336.883 147.82C336.883 148.178 336.823 148.686 336.793 149.074H324.636C325.084 151.075 326.786 152.3 329.236 152.3C330.938 152.3 332.163 151.792 333.268 150.747L335.748 153.435C334.254 155.138 332.014 156.034 329.116 156.034C323.56 156.034 319.946 152.539 319.946 147.76C319.946 142.951 323.62 139.486 328.519 139.486C333.238 139.486 336.883 142.652 336.883 147.82ZM328.549 143.01C326.428 143.01 324.905 144.295 324.576 146.356H332.492C332.163 144.325 330.64 143.01 328.549 143.01Z" fill="black"/>
<path d="M328.788 114.829C323.68 114.829 319.946 111.394 319.946 106.555C319.946 101.716 323.68 98.2806 328.788 98.2806C333.896 98.2806 337.6 101.716 337.6 106.555C337.6 111.394 333.896 114.829 328.788 114.829ZM328.788 111.005C331.118 111.005 332.88 109.333 332.88 106.555C332.88 103.777 331.118 102.104 328.788 102.104C326.458 102.104 324.666 103.777 324.666 106.555C324.666 109.333 326.458 111.005 328.788 111.005Z" fill="black"/>
<path d="M332.701 71.8584H337.121V85.2404C337.121 91.2145 333.895 93.9625 328.1 93.9625C325.054 93.9625 322.097 93.2158 320.215 91.7521L322.067 88.4066C323.441 89.5118 325.681 90.2287 327.742 90.2287C331.028 90.2287 332.462 88.7352 332.462 85.8378V85.1508C331.237 86.4949 329.475 87.1521 327.384 87.1521C322.933 87.1521 319.348 84.0754 319.348 79.3858C319.348 74.6961 322.933 71.6194 327.384 71.6194C329.624 71.6194 331.476 72.3662 332.701 73.9195V71.8584ZM328.31 83.3287C330.759 83.3287 332.521 81.7455 332.521 79.3858C332.521 77.026 330.759 75.4429 328.31 75.4429C325.86 75.4429 324.068 77.026 324.068 79.3858C324.068 81.7455 325.86 83.3287 328.31 83.3287Z" fill="black"/>
</g>
</svg>
