<svg width="364" height="364" viewBox="0 0 364 364" fill="none" xmlns="http://www.w3.org/2000/svg">
<mask id="mask0_2341_704" style="mask-type:alpha" maskUnits="userSpaceOnUse" x="0" y="0" width="364" height="364">
<rect width="364" height="364" fill="#D9D9D9"/>
</mask>
<g mask="url(#mask0_2341_704)">
<path d="M224.314 48.1562H219.111L215.075 42.326H214.836H210.62V48.1562H205.777V27.2271H214.836C220.427 27.2271 223.925 30.1273 223.925 34.8214C223.925 37.9608 222.34 40.263 219.62 41.429L224.314 48.1562ZM219.022 34.8214C219.022 32.5192 217.527 31.1737 214.567 31.1737H210.62V38.469H214.567C217.527 38.469 219.022 37.0937 219.022 34.8214ZM240.41 32.0707L244.895 32.0707L237.629 49.1429C236.075 53.0298 233.862 54.1958 230.962 54.1958C229.317 54.1958 227.523 53.6576 226.477 52.7308L228.181 49.412C228.899 50.0399 229.885 50.4286 230.812 50.4286C232.098 50.4286 232.816 49.8605 233.443 48.4253L233.503 48.2758L226.537 32.0707H231.351L235.865 42.9838L240.41 32.0707ZM259.834 32.0707H264.498V48.1563H260.073V46.2427C258.847 47.648 257.053 48.3954 255.08 48.3954C251.044 48.3954 248.203 46.1231 248.203 41.1599V32.0707H252.867V40.4723C252.867 43.1631 254.063 44.3591 256.126 44.3591C258.279 44.3591 259.834 42.9838 259.834 40.0238V32.0707ZM282.483 32.0707H286.908V45.4654C286.908 51.4451 283.679 54.1958 277.878 54.1958C274.829 54.1958 271.869 53.4483 269.985 51.9833L271.839 48.6346C273.214 49.7409 275.457 50.4585 277.52 50.4585C280.809 50.4585 282.244 48.9635 282.244 46.0633V45.3757C281.018 46.7211 279.254 47.3789 277.161 47.3789C272.706 47.3789 269.118 44.2993 269.118 39.6052C269.118 34.9111 272.706 31.8315 277.161 31.8315C279.403 31.8315 281.257 32.579 282.483 34.1337V32.0707ZM278.088 43.5518C280.539 43.5518 282.303 41.9672 282.303 39.6052C282.303 37.2432 280.539 35.6585 278.088 35.6585C275.636 35.6585 273.842 37.2432 273.842 39.6052C273.842 41.9672 275.636 43.5518 278.088 43.5518ZM300.398 48.3954C295.285 48.3954 291.548 44.9571 291.548 40.1135C291.548 35.2699 295.285 31.8315 300.398 31.8315C305.511 31.8315 309.218 35.2699 309.218 40.1135C309.218 44.9571 305.511 48.3954 300.398 48.3954ZM300.398 44.5684C302.73 44.5684 304.494 42.8941 304.494 40.1135C304.494 37.3329 302.73 35.6585 300.398 35.6585C298.066 35.6585 296.272 37.3329 296.272 40.1135C296.272 42.8941 298.066 44.5684 300.398 44.5684Z" fill="black"/>
<path d="M316.572 78.6582V61.6727H309.874V57.7254H328.115V61.6727H321.416V78.6582H316.572Z" fill="black"/>
<path d="M325.161 130.691L320.078 124.382L317.835 126.595V130.691H313.17V108.503H317.835V121.062L324.653 114.603H330.215L323.516 121.421L330.813 130.691H325.161Z" fill="black"/>
<path d="M319.63 137.688C324.534 137.688 327.375 139.961 327.375 144.835V154.016H323.009V152.012C322.142 153.477 320.467 154.255 318.104 154.255C314.337 154.255 312.094 152.162 312.094 149.38C312.094 146.54 314.097 144.566 319.002 144.566H322.71C322.71 142.562 321.514 141.396 319.002 141.396C317.297 141.396 315.533 141.964 314.366 142.891L312.692 139.632C314.456 138.376 317.058 137.688 319.63 137.688ZM319.271 151.115C320.826 151.115 322.171 150.397 322.71 148.932V147.287H319.51C317.327 147.287 316.639 148.095 316.639 149.171C316.639 150.337 317.626 151.115 319.271 151.115Z" fill="black"/>
<path d="M324.793 162.449H329.219V175.846C329.219 181.827 325.989 184.578 320.188 184.578C317.137 184.578 314.177 183.83 312.293 182.365L314.147 179.016C315.523 180.122 317.765 180.84 319.829 180.84C323.118 180.84 324.554 179.345 324.554 176.444V175.756C323.327 177.102 321.563 177.76 319.47 177.76C315.014 177.76 311.426 174.679 311.426 169.985C311.426 165.29 315.014 162.21 319.47 162.21C321.713 162.21 323.567 162.957 324.793 164.512V162.449ZM320.397 173.932C322.849 173.932 324.613 172.347 324.613 169.985C324.613 167.622 322.849 166.037 320.397 166.037C317.945 166.037 316.151 167.622 316.151 169.985C316.151 172.347 317.945 173.932 320.397 173.932Z" fill="black"/>
<path d="M326.692 225.489L322.551 225.744C322.48 225.39 322.328 225.072 322.094 224.789C321.86 224.498 321.552 224.268 321.17 224.098C320.795 223.921 320.345 223.833 319.822 223.833C319.121 223.833 318.529 223.981 318.048 224.279C317.567 224.569 317.326 224.958 317.326 225.447C317.326 225.836 317.482 226.165 317.793 226.435C318.105 226.704 318.639 226.919 319.397 227.082L322.349 227.677C323.935 228.003 325.117 228.527 325.896 229.249C326.675 229.971 327.064 230.919 327.064 232.095C327.064 233.164 326.749 234.102 326.119 234.909C325.496 235.716 324.639 236.346 323.549 236.799C322.466 237.245 321.216 237.468 319.8 237.468C317.641 237.468 315.921 237.018 314.639 236.119C313.365 235.213 312.618 233.981 312.399 232.424L316.848 232.19C316.983 232.849 317.308 233.351 317.825 233.698C318.342 234.038 319.004 234.208 319.811 234.208C320.604 234.208 321.241 234.056 321.722 233.751C322.211 233.44 322.459 233.04 322.466 232.551C322.459 232.141 322.285 231.804 321.945 231.542C321.606 231.273 321.082 231.068 320.374 230.926L317.549 230.364C315.956 230.045 314.77 229.493 313.992 228.707C313.22 227.921 312.834 226.919 312.834 225.702C312.834 224.654 313.117 223.751 313.684 222.994C314.257 222.236 315.061 221.652 316.094 221.242C317.135 220.831 318.353 220.626 319.747 220.626C321.807 220.626 323.429 221.061 324.611 221.932C325.8 222.803 326.494 223.989 326.692 225.489Z" fill="black"/>
<path d="M316.966 255.829V265.259H312.442V243.51H316.838V251.825H317.03C317.398 250.863 317.992 250.109 318.814 249.563C319.635 249.011 320.665 248.735 321.904 248.735C323.037 248.735 324.024 248.983 324.867 249.478C325.716 249.967 326.375 250.671 326.842 251.592C327.316 252.505 327.55 253.599 327.543 254.873V265.259H323.019V255.68C323.026 254.675 322.771 253.893 322.254 253.333C321.745 252.774 321.03 252.494 320.109 252.494C319.493 252.494 318.948 252.625 318.474 252.887C318.007 253.149 317.638 253.532 317.369 254.034C317.107 254.53 316.973 255.128 316.966 255.829Z" fill="black"/>
<path d="M316.844 293.369V277.058H321.368V293.369H316.844ZM319.117 274.955C318.444 274.955 317.867 274.732 317.386 274.286C316.912 273.833 316.674 273.292 316.674 272.661C316.674 272.038 316.912 271.504 317.386 271.058C317.867 270.605 318.444 270.378 319.117 270.378C319.789 270.378 320.363 270.605 320.837 271.058C321.319 271.504 321.559 272.038 321.559 272.661C321.559 273.292 321.319 273.833 320.837 274.286C320.363 274.732 319.789 274.955 319.117 274.955Z" fill="black"/>
<path d="M319.525 196.091C317.79 196.091 316.624 194.954 316.624 193.489C316.624 192.024 317.79 190.887 319.525 190.887C321.259 190.887 322.425 191.964 322.425 193.399C322.425 194.954 321.259 196.091 319.525 196.091ZM317.192 214.422V198.334H321.857V214.422H317.192Z" fill="black"/>
<path d="M319.63 85.0572C324.534 85.0572 327.375 87.3299 327.375 92.2042V101.385H323.009V99.3812C322.142 100.846 320.467 101.624 318.104 101.624C314.337 101.624 312.094 99.5307 312.094 96.7496C312.094 93.9088 314.097 91.9351 319.002 91.9351H322.71C322.71 89.9315 321.514 88.7653 319.002 88.7653C317.297 88.7653 315.533 89.3334 314.366 90.2605L312.692 87.0009C314.456 85.745 317.058 85.0572 319.63 85.0572ZM319.271 98.4841C320.826 98.4841 322.171 97.7664 322.71 96.3011V94.6564H319.51C317.327 94.6564 316.639 95.4638 316.639 96.5403C316.639 97.7066 317.626 98.4841 319.271 98.4841Z" fill="black"/>
<path d="M47.2279 51.2852V43.7454H50.2977C52.7104 43.7454 54.3368 45.2964 54.3368 47.5153C54.3368 49.7341 52.7104 51.2852 50.2977 51.2852H47.2279ZM48.025 50.5958H50.2546C52.258 50.5958 53.5505 49.3248 53.5505 47.5153C53.5505 45.7057 52.258 44.4348 50.2546 44.4348H48.025V50.5958ZM60.909 48.4524C60.909 48.517 60.8983 48.6032 60.8983 48.6893H56.159C56.2451 49.8741 57.1499 50.6604 58.3886 50.6604C59.0779 50.6604 59.6919 50.4127 60.1227 49.9172L60.5536 50.4127C60.0473 51.0159 59.261 51.339 58.367 51.339C56.6006 51.339 55.3942 50.1327 55.3942 48.4524C55.3942 46.7721 56.5683 45.5765 58.1624 45.5765C59.7565 45.5765 60.909 46.7505 60.909 48.4524ZM58.1624 46.2335C57.0637 46.2335 56.2559 47.009 56.159 48.1185H60.1766C60.0796 47.009 59.2718 46.2335 58.1624 46.2335ZM63.9843 51.339C63.0472 51.339 62.1425 51.0374 61.6793 50.6389L62.024 50.0357C62.4764 50.3912 63.2411 50.6712 64.0382 50.6712C65.1153 50.6712 65.5569 50.305 65.5569 49.7449C65.5569 48.2693 61.884 49.4325 61.884 47.1921C61.884 46.2658 62.681 45.5765 64.1244 45.5765C64.8568 45.5765 65.6539 45.7811 66.1278 46.1043L65.7939 46.7182C65.2984 46.3735 64.706 46.2335 64.1244 46.2335C63.1011 46.2335 62.6487 46.6321 62.6487 47.1706C62.6487 48.7001 66.3217 47.5476 66.3217 49.7233C66.3217 50.7035 65.46 51.339 63.9843 51.339ZM68.1232 44.3809C67.8108 44.3809 67.5631 44.1332 67.5631 43.8316C67.5631 43.5408 67.8108 43.293 68.1232 43.293C68.4356 43.293 68.6833 43.53 68.6833 43.8208C68.6833 44.1332 68.4463 44.3809 68.1232 44.3809ZM67.7354 51.2852V45.6196H68.5002V51.2852H67.7354ZM75.1411 45.6196H75.8736V50.5958C75.8736 52.5454 74.915 53.4286 73.0408 53.4286C72.0068 53.4286 70.9943 53.1162 70.4019 52.5561L70.7896 51.9745C71.3282 52.4592 72.1468 52.75 73.0192 52.75C74.4518 52.75 75.1088 52.093 75.1088 50.6927V49.9711C74.6349 50.6927 73.8271 51.0697 72.9008 51.0697C71.2851 51.0697 70.0572 49.9388 70.0572 48.3123C70.0572 46.6859 71.2851 45.5765 72.9008 45.5765C73.8486 45.5765 74.6672 45.9642 75.1411 46.7074V45.6196ZM72.9762 50.3912C74.2256 50.3912 75.1304 49.5402 75.1304 48.3123C75.1304 47.0844 74.2256 46.2443 72.9762 46.2443C71.7267 46.2443 70.8327 47.0844 70.8327 48.3123C70.8327 49.5402 71.7267 50.3912 72.9762 50.3912ZM80.8988 45.5765C82.2775 45.5765 83.2253 46.3735 83.2253 48V51.2852H82.4606V48.0754C82.4606 46.8798 81.8359 46.2658 80.7588 46.2658C79.5416 46.2658 78.7769 47.0198 78.7769 48.3123V51.2852H78.0121V45.6196H78.7446V46.6644C79.1539 45.975 79.9186 45.5765 80.8988 45.5765ZM90.2665 48.4524C90.2665 48.517 90.2557 48.6032 90.2557 48.6893H85.5165C85.6026 49.8741 86.5074 50.6604 87.7461 50.6604C88.4354 50.6604 89.0494 50.4127 89.4802 49.9172L89.9111 50.4127C89.4048 51.0159 88.6185 51.339 87.7245 51.339C85.9581 51.339 84.7517 50.1327 84.7517 48.4524C84.7517 46.7721 85.9258 45.5765 87.5199 45.5765C89.114 45.5765 90.2665 46.7505 90.2665 48.4524ZM87.5199 46.2335C86.4212 46.2335 85.6134 47.009 85.5165 48.1185H89.5341C89.4371 47.009 88.6293 46.2335 87.5199 46.2335ZM92.5555 46.729C92.911 45.975 93.6326 45.5765 94.6774 45.5765V46.3197C94.6128 46.3197 94.5482 46.3089 94.4943 46.3089C93.3095 46.3089 92.5879 47.0629 92.5879 48.3985V51.2852H91.8231V45.6196H92.5555V46.729Z" fill="black"/>
<path d="M301.38 59.8252H48.9902V312.215H301.38V59.8252Z" stroke="black" stroke-width="5.98081"/>
<path d="M143.39 310.626C143.305 310.985 144.227 319.866 144.227 319.866L144.72 323.408L141.755 325.975L141.632 331.172L140.84 335.979L141.199 343.327L143.388 351.132L144.126 354.197L146.794 355.317L156.807 356.963C156.807 356.963 169.917 359.088 169.958 359.088C169.999 359.088 173.392 359.965 173.392 359.965L188.079 356.427L192.097 355.392L197.105 351.132L195.617 344.194L192.079 342.545L185.141 342.441L178.834 338.54L179.761 335.282L174.04 331.662L170.256 331.16L167.733 327.297L161.573 326.117L158.905 326.067L159.264 313.747L143.39 310.626Z" fill="white"/>
<path d="M168.979 170.141L179.14 167.221L180.534 166.524L178.446 150.799L174.757 138.137L170.875 129.928L170.79 110.444L168.538 94.1904L165.122 84.8992L161.634 79.0584L160.492 76.3969L163.838 67.8031L169.316 69.3234L173.349 66.4694L175.4 64.208L178.595 57.5597L179.138 54.6363L180.532 53.6495L183.689 46.0425L184.604 40.1861L182.398 32.7334L177.736 25.6814L166.121 21.5547L151.897 23.7215L146.968 25.2383L140.027 38.3625L139.57 46.5024L143.146 56.4682L143.374 58.2188L145.814 57.5609L145.657 61.525L148.624 60.7242L146.112 67.8013L137.524 69.5674L136.518 70.687L133.484 90.2401L154.327 161.591L164.501 170.797L168.979 170.141Z" fill="white"/>
<path d="M166.05 337.237C164.315 338.814 162.366 339.445 160.373 339.959C160.108 340.029 159.758 339.78 159.446 339.685C159.584 339.369 159.644 338.924 159.877 338.798C160.543 338.439 161.294 338.237 161.99 337.931C162.888 337.537 163.76 337.079 164.661 336.692C165.144 336.516 165.636 336.367 166.135 336.244C166.254 335.535 166.405 334.651 166.598 333.522C165.765 333.923 165.109 334.174 164.526 334.539C163.943 334.903 163.565 335.077 163.142 334.3C162.783 333.637 162.164 333.12 161.739 332.489C161.392 332.006 161.131 331.466 160.969 330.893C160.942 330.703 160.96 330.508 161.02 330.325C161.08 330.142 161.181 329.975 161.316 329.837C162.379 328.973 163.505 328.194 164.98 328.229C165.81 328.248 166.642 328.229 167.503 328.229C167.058 327.568 166.406 327.075 165.648 326.827C164.891 326.58 164.073 326.593 163.324 326.864C162.893 326.915 162.455 326.868 162.044 326.728C161.745 326.674 161.454 326.557 161.157 326.482C160.088 326.211 159.404 326.832 158.678 327.472C158.241 327.786 157.766 328.045 157.266 328.242C156.727 328.51 156.465 328.873 156.862 329.438C157.909 330.962 158.943 332.498 160.016 334.005C160.434 334.591 160.154 335.846 159.353 336.033C157.96 336.319 156.548 336.51 155.127 336.603C154.897 336.625 154.405 336.212 154.434 336.09C154.465 335.92 154.533 335.759 154.633 335.618C154.734 335.478 154.863 335.361 155.014 335.276C155.785 335.08 156.567 334.934 157.357 334.838C157.656 334.788 157.95 334.762 158.417 334.709C157.808 333.618 157.237 332.652 156.73 331.658C156.222 330.664 155.468 329.745 155.516 328.46C155.506 328.185 155.565 327.912 155.686 327.664C155.807 327.417 155.986 327.203 156.209 327.041C156.927 326.499 157.669 325.978 158.417 325.464C158.732 325.246 158.846 325.114 158.688 324.66C158.536 324.057 158.48 323.434 158.524 322.815C158.508 320.648 158.524 318.478 158.524 316.157C155.645 316.353 152.683 316.542 149.952 314.993L149.747 315.182C149.845 315.977 149.921 316.76 150.046 317.56C150.38 319.594 150.775 321.619 151.063 323.661C151.144 324.363 151.11 325.073 150.962 325.764C150.902 326.079 150.504 326.329 150.261 326.609C150.041 326.351 149.713 326.127 149.63 325.832C149.488 325.284 149.396 324.725 149.356 324.16C149.088 321.852 148.839 319.54 148.568 317.222C148.467 316.358 148.583 315.305 148.123 314.7C147.663 314.095 146.628 313.892 145.824 313.558C145.316 313.379 144.8 313.226 144.276 313.101C144.686 315.772 145.099 318.304 145.449 320.843C145.553 321.593 145.449 322.369 145.497 323.129C145.514 323.461 145.623 323.782 145.812 324.056C146.152 324.51 146.625 324.861 146.963 325.318C147.25 325.709 147.461 326.188 146.919 326.579C146.376 326.97 146.036 326.698 145.73 326.264C145.222 325.563 144.73 324.854 144.153 324.056C143.395 325.002 142.639 325.882 141.964 326.822C141.831 327.005 141.964 327.453 142.065 327.719C142.58 329.069 142.759 330.525 142.585 331.96C142.55 332.387 142.386 332.793 142.115 333.124C141.836 333.428 141.629 333.79 141.508 334.184C141.387 334.578 141.355 334.993 141.415 335.401C141.594 337.52 141.856 339.637 142.023 341.756C142.09 342.588 142.108 343.399 142.755 344.028C143.14 344.403 143.528 344.776 143.9 345.136C144.079 344.969 144.114 344.95 144.114 344.93C144.156 342.524 144.212 340.118 144.209 337.712C144.209 337.396 143.83 337.106 143.736 336.765C143.159 334.722 143.105 332.694 144.18 330.773C144.623 329.945 145.152 329.165 145.757 328.446C146.224 328.084 146.747 327.801 147.306 327.609C147.255 326.843 147.904 326.325 148.545 325.83C148.681 325.726 149.125 325.754 149.176 325.858C149.248 325.975 149.293 326.107 149.309 326.244C149.325 326.38 149.311 326.519 149.267 326.649C148.878 327.132 148.457 327.589 148.006 328.015C149.492 329.964 150.996 331.947 152.516 333.925C152.755 334.24 153.121 334.474 153.254 334.811C153.339 335.196 153.365 335.592 153.33 335.985C152.912 335.985 152.302 336.152 152.101 335.938C150.745 334.618 149.664 333.042 148.922 331.302C148.563 330.356 148.089 329.627 147.083 329.637C146.721 330.447 146.425 331.236 146.02 331.955C145.85 332.27 145.317 332.346 145.147 332.643C144.901 333.139 144.813 333.699 144.895 334.247C144.976 334.795 145.224 335.305 145.604 335.708C148.742 338.663 152.363 340.631 156.712 341.101C157.266 341.142 157.818 341.214 158.364 341.319C158.476 341.36 158.577 341.426 158.661 341.511C158.745 341.596 158.809 341.698 158.85 341.811C158.894 341.94 158.718 342.237 158.563 342.319C157.856 342.703 157.121 343.041 156.403 343.395C157.147 344.341 158.049 345.414 158.882 346.549C159.49 347.376 160.046 348.241 160.547 349.138C160.862 349.721 160.522 350.15 159.829 350.522C161.128 350.951 162.292 351.352 163.471 351.719C164.306 351.995 165.154 352.227 166.013 352.412C166.959 352.598 167.959 352.671 168.934 352.794C169.407 352.851 169.942 352.973 169.82 353.551C169.763 353.816 169.262 354.103 168.923 354.182C166.898 354.57 164.987 353.902 163.079 353.39C161.663 353.012 160.291 352.46 158.892 352.025C158.261 351.829 157.728 351.507 157.83 350.823C157.931 350.139 158.587 350.193 159.138 350.211C159.247 350.182 159.353 350.142 159.453 350.092C158.98 349.427 158.529 348.799 158.084 348.165C157.327 347.088 156.564 346.005 155.812 344.92C155.44 344.352 154.91 343.904 154.288 343.633C153.666 343.361 152.978 343.277 152.308 343.39C150.441 343.598 148.823 342.902 147.247 342.037C146.783 341.782 146.335 341.499 145.805 341.186C145.673 342.132 145.733 343.04 145.395 343.762C144.988 344.642 145.241 345.424 145.36 346.232C145.41 346.391 145.496 346.538 145.611 346.658C145.727 346.779 145.869 346.872 146.026 346.929C148.773 347.711 151.542 348.424 154.288 349.215C154.673 349.326 155.336 349.414 155.137 350.132C154.938 350.851 154.393 350.804 153.876 350.688C151.723 350.205 149.58 349.679 147.427 349.208C146.893 349.13 146.354 349.09 145.815 349.089C145.297 349.986 144.846 350.007 144.181 349.171C144.33 350.188 144.531 351.199 144.61 352.221C144.651 352.769 145.121 353.609 144.213 353.817C143.358 354.009 143.239 353.159 143.017 352.574C142.897 352.259 142.812 351.943 142.702 351.543C142.071 352.021 141.565 351.776 141.04 351.335C140.739 351.121 140.389 350.988 140.023 350.946C139.684 350.894 139.371 350.731 139.135 350.482C138.899 350.233 138.752 349.912 138.717 349.571C138.559 348.826 138.508 348.063 138.566 347.304C138.686 346.017 138.951 344.74 139.143 343.456C139.146 343.305 139.18 343.157 139.242 343.019C139.304 342.882 139.393 342.758 139.503 342.656C139.614 342.553 139.744 342.474 139.886 342.423C140.028 342.372 140.179 342.35 140.329 342.359C140.21 341.05 140.052 339.77 139.982 338.482C139.853 336.917 140.002 335.341 140.421 333.828C140.951 332.064 141.282 330.147 140.623 328.35C140.125 326.984 140.68 326.095 141.484 325.196C142.187 324.419 142.96 323.71 143.673 322.944C143.795 322.758 143.844 322.534 143.812 322.313C143.619 320.141 143.38 317.971 143.219 315.798C143.143 314.795 143.219 313.786 143.219 312.511L141.642 312.366C141.561 312.372 141.48 312.363 141.403 312.338C140.714 311.93 140.048 311.483 139.409 311.001C139.2 310.744 139.099 310.416 139.125 310.086C139.175 307.778 139.321 305.469 139.324 303.148C139.324 299.326 139.302 295.501 139.178 291.681C139.099 289.289 138.721 286.9 138.658 284.504C138.589 281.963 138.747 279.414 138.787 276.869C138.815 275.049 138.879 273.221 138.809 271.407C138.664 267.591 138.431 263.782 138.251 259.969C138.147 257.707 138.021 255.443 138.012 253.182C138.012 251.806 138.274 250.431 138.311 249.05C138.358 247.275 138.368 245.493 138.257 243.724C138.147 241.955 137.882 240.255 137.659 238.501C137.325 235.858 137.001 233.212 136.622 230.576C136.227 227.842 135.675 225.123 135.36 222.376C135.023 219.352 134.887 216.302 134.657 213.265C134.528 211.562 134.386 209.862 134.244 208.159C134.18 207.052 134.019 205.953 133.765 204.873C133.557 205.283 133.364 205.696 133.134 206.097C132.644 207.07 131.855 207.862 130.882 208.355C129.965 208.806 129.274 209.714 128.36 210.184C127.266 210.68 126.133 211.085 124.973 211.395C124.184 211.663 123.376 211.874 122.557 212.026C120.464 212.373 118.371 212.752 116.265 212.95C114.459 213.117 112.658 213.265 110.823 212.701C109.672 212.357 108.341 212.659 107.102 212.555C106.197 212.479 105.313 212.193 104.414 212.035C103.584 211.854 102.74 211.736 101.892 211.682C99.2045 211.612 97.4766 210.051 95.8301 208.149C94.5143 206.623 94.4013 204.898 94.4545 203.059C94.5586 199.309 94.6627 195.556 94.7255 191.807C94.7883 187.947 94.741 184.087 94.8672 180.23C94.9557 177.486 95.2805 174.748 95.4414 172.005C95.6806 167.905 95.86 163.805 96.0723 159.705C96.2207 157.003 96.476 154.3 96.555 151.594C96.6399 148.592 96.5299 145.586 96.5992 142.581C96.7003 138.185 96.9144 133.789 97.0281 129.392C97.0819 127.516 96.9778 125.63 97.0562 123.754C97.1806 121.088 97.5951 118.444 98.2924 115.869C99.5538 111.138 101.679 106.767 104.048 102.504C104.706 101.321 105.139 100.016 105.735 98.7956C106.483 97.2753 107.258 95.7652 108.084 94.2861C109.237 92.2119 109.808 89.8649 109.737 87.4931C109.661 82.4692 109.617 77.4483 109.557 72.4245C109.532 70.2612 109.513 68.1009 109.453 65.9371C109.33 61.5059 109.138 57.0783 109.062 52.6471C108.999 48.5802 109.062 44.5132 109.062 40.4463C109.062 37.6078 108.974 34.7537 108.971 31.9093C108.968 29.0648 108.971 26.2736 109.062 23.4572C109.119 21.3789 109.213 19.2975 109.441 17.2372C109.513 16.1462 109.824 15.0844 110.352 14.1271C110.612 13.6646 110.963 13.2601 111.385 12.9385C111.807 12.6169 112.29 12.3849 112.804 12.2569C115.428 11.6798 117.979 10.7779 120.607 10.2199C122.566 9.83589 124.592 9.95628 126.492 10.5697C126.732 10.6491 126.949 10.7868 127.123 10.9705C128.384 12.3078 129.216 13.7551 129.047 15.7294C129.007 17.2275 129.047 18.7266 129.167 20.2204C129.208 22.084 129.217 23.9512 129.258 25.8184C129.381 27.0391 129.409 28.2674 129.343 29.4924C128.865 32.9236 129.289 36.3201 129.457 39.7328C129.611 42.8326 129.674 45.9391 129.744 49.0425C129.805 51.824 129.839 54.6056 129.848 57.3875C129.848 59.3648 129.791 61.339 129.794 63.3163C129.794 66.47 129.908 69.6524 129.841 72.8186C129.769 76.3473 129.504 79.8759 129.409 83.3992C129.362 85.2126 129.507 87.029 129.548 88.846C129.539 89.8433 129.585 90.8404 129.684 91.8328C130.141 90.9183 130.674 90.032 131.037 89.0816C131.695 87.3567 132.298 85.6127 132.831 83.84C133.297 82.2629 133.601 80.6361 134.023 79.0398C134.607 76.8323 135.234 74.6248 135.833 72.4173C135.944 72.007 135.966 71.5722 136.098 71.1715C136.168 70.9699 136.388 70.818 136.54 70.6416C136.729 70.815 137.063 70.9759 137.078 71.1649C137.122 71.6995 137.091 72.2375 136.986 72.7636C136.488 75.2677 135.952 77.7653 135.438 80.2665C135.388 80.5123 135.391 80.7713 135.356 81.1558C138.254 78.5291 141.784 77.9388 145.337 77.4788C146.089 77.4151 146.846 77.4554 147.586 77.5985C149.22 77.8479 150.929 77.9358 152.449 78.5069C154.291 79.2037 155.603 80.7587 156.94 82.2001C157.133 82.4082 157.344 82.5972 157.527 82.8149C158.028 83.413 158.527 84.0111 159.013 84.6217C159.328 84.9973 159.574 85.41 159.883 85.779C160.472 86.5206 160.774 87.4504 160.731 88.3968C160.805 89.8659 161.046 91.3218 161.449 92.7365C162.275 95.5497 162.477 98.5095 162.039 101.409C162.01 101.563 162.001 101.784 161.9 101.853C160.91 102.547 160.73 103.587 160.764 104.657C160.818 106.366 160.972 108.072 161.079 109.778C161.261 112.393 161.087 115.021 160.562 117.59C160.338 118.643 159.764 118.946 159.136 118.447C158.966 118.312 158.925 118.022 158.799 117.816C158.673 117.611 158.484 117.381 158.329 117.167L158.039 117.236C157.849 118.313 157.661 119.387 157.474 120.459C156.944 123.481 156.402 126.5 155.897 129.523C155.582 131.416 155.339 133.308 154.967 135.162C154.718 136.102 154.401 137.023 154.02 137.918C154.828 140.353 155.66 143.018 156.592 145.645C157.478 148.14 158.484 150.593 159.431 153.079C160.556 156.122 162.458 158.809 163.378 161.95C163.782 163.322 164.46 164.611 164.955 165.957C165.067 166.401 165.151 166.852 165.207 167.307C165.269 167.516 165.352 167.719 165.453 167.912C165.936 168.032 166.513 168.067 166.538 168.205C166.539 168.641 166.469 169.073 166.33 169.486C166.642 169.358 166.942 169.204 167.227 169.025C168.364 168.23 169.697 167.763 171.081 167.675C173.163 167.448 175.213 166.953 177.279 166.59C178.029 166.458 178.786 166.373 179.515 166.275C179.31 164.254 179.143 162.242 178.884 160.242C178.569 157.72 178.2 155.196 177.814 152.674C177.499 150.576 177.228 148.46 176.742 146.401C176.319 144.616 175.553 142.913 175.064 141.138C174.433 138.798 173.172 136.758 172.134 134.603C170.955 132.149 170.261 129.49 170.09 126.773C169.813 122.526 169.57 118.258 169.239 114.029C169.053 111.594 168.725 109.166 168.456 106.738C168.097 103.495 167.844 100.241 167.352 97.0211C166.671 92.5774 165.901 88.1372 163.599 84.154C163.47 83.9333 163.562 83.5864 163.552 83.2964C163.817 83.3939 164.21 83.41 164.33 83.5954C165.023 84.6959 165.667 85.8316 166.31 86.9668C167.571 89.206 168.079 91.6976 168.539 94.1856C169.189 97.6988 169.706 101.238 170.239 104.772C170.678 107.68 171.151 110.587 171.431 113.511C171.683 116.138 171.636 118.79 171.832 121.426C172.011 123.845 172.34 126.255 172.585 128.68C172.901 131.717 174.421 134.274 175.724 136.933C176.327 138.259 176.824 139.63 177.212 141.033C177.862 143.171 178.528 145.313 179.006 147.493C179.564 150.015 179.984 152.592 180.353 155.162C180.688 157.483 180.861 159.827 181.131 162.16C181.197 163.011 181.334 163.855 181.54 164.683C181.74 165.512 181.708 166.379 181.449 167.19C181.386 167.436 180.851 167.66 180.503 167.717C179.396 167.906 178.273 167.982 177.169 168.171C177.042 168.221 176.929 168.302 176.841 168.406C176.753 168.511 176.692 168.636 176.664 168.769C176.598 173.566 176.535 178.363 176.554 183.16C176.612 184.06 176.802 184.947 177.118 185.791C177.668 187.522 177.891 189.34 177.776 191.152C177.571 194.391 177.461 197.633 177.253 200.869C177.124 202.808 176.849 204.732 176.663 206.67C176.405 209.348 176.155 212.031 175.932 214.706C175.676 217.79 175.474 220.881 175.219 223.963C174.963 227.044 174.667 230.043 174.402 233.083C174.118 236.335 173.864 239.586 173.564 242.832C173.359 245.081 173.076 247.326 172.861 249.578C172.707 251.173 172.634 252.779 172.48 254.378C172.227 257.024 171.896 259.664 171.679 262.313C171.533 264.101 171.524 265.901 171.461 267.695C171.494 269.057 171.336 270.417 170.991 271.735C170.813 272.637 170.768 273.559 170.855 274.473C170.836 277.069 170.855 279.667 170.805 282.263C170.78 283.291 170.53 284.313 170.446 285.344C170.345 286.571 170.267 287.804 170.25 289.037C170.181 293.79 170.146 298.54 170.087 303.292C170.049 306.13 169.986 309 169.92 311.854C169.895 312.876 169.579 313.043 168.614 313.305C167.793 313.605 167.007 313.992 166.268 314.459C165.098 315.09 163.969 315.667 162.54 315.601C161.635 315.659 160.741 315.835 159.882 316.124C160.017 318.928 160.153 321.801 160.3 324.822C161.556 324.973 162.82 325.042 164.085 325.03C165.801 324.926 166.983 325.85 168.185 326.787C169.332 327.632 170.222 328.778 170.756 330.099C171.072 330.887 171.889 330.756 172.371 330.67C174.014 330.371 175.339 331.073 176.642 331.806C177.519 332.328 178.346 332.931 179.111 333.607C180.487 334.771 180.606 336.303 179.41 337.853C180.987 338.718 182.494 339.632 184.081 340.402C185.141 340.869 186.234 341.26 187.351 341.572C187.744 341.689 188.094 341.921 188.354 342.239C188.615 342.556 188.774 342.944 188.813 343.353C188.885 345.875 187.365 347.85 184.566 347.793C183.773 347.802 182.982 347.737 182.201 347.6C181.902 347.537 181.693 347.067 181.444 346.783C181.745 346.606 182.072 346.474 182.412 346.392C183.415 346.301 184.43 346.354 185.427 346.231C186.975 346.042 187.262 344.796 187.59 343.633C187.628 343.503 187.335 343.191 187.136 343.103C186.729 342.917 186.25 342.885 185.856 342.684C185.451 342.471 184.999 342.362 184.542 342.367C184.085 342.371 183.636 342.489 183.235 342.709C182.124 343.139 180.954 343.397 179.766 343.475C179.547 343.498 179.325 343.474 179.116 343.405C178.906 343.336 178.714 343.223 178.552 343.074C178.389 342.925 178.26 342.743 178.173 342.54C178.086 342.338 178.043 342.119 178.047 341.899C178.139 341.47 178.308 341.062 178.545 340.694L176.42 340.933C176.151 340.986 175.874 340.977 175.61 340.906C175.346 340.836 175.101 340.706 174.895 340.526C174.688 340.347 174.525 340.123 174.419 339.871C174.312 339.619 174.264 339.346 174.279 339.073C173.943 339.11 173.603 339.08 173.279 338.984C173.011 338.839 172.89 338.47 172.617 338.215C172.579 339.208 172.67 340.296 171.519 340.624C170.563 340.818 169.59 340.923 168.615 340.939C168.766 341.97 168.93 343.084 169.11 344.191C169.132 344.323 169.381 344.402 169.492 344.535C169.671 344.753 169.962 345.002 169.949 345.219C169.937 345.436 169.634 345.698 169.422 345.881C168.962 346.266 168.448 346.591 167.99 346.982C167.044 347.783 166.155 348.637 165.193 349.41C165.058 349.49 164.905 349.535 164.748 349.54C164.591 349.545 164.436 349.51 164.296 349.438C164.204 349.307 164.142 349.158 164.116 349C164.09 348.842 164.1 348.68 164.145 348.527C164.264 348.213 164.472 347.941 164.743 347.744C166.783 346.076 166.723 346.089 166.449 343.528C166.266 341.816 166.307 340.081 166.228 338.356C166.193 337.979 166.133 337.606 166.05 337.237ZM158.922 116.051C159.042 114.66 159.237 113.336 159.237 112.014C159.237 108.138 159.153 104.259 159.124 100.383C159.124 98.5851 158.95 96.8979 157.575 95.4853C156.349 94.2239 155.4 92.6743 154.129 91.4614C153.046 90.4603 151.825 89.621 150.502 88.9698C149.37 88.4341 148.165 88.0712 146.925 87.8932C145.929 87.7454 144.915 87.7764 143.93 87.9847C142.835 88.2084 141.817 88.7856 140.729 89.0613C139.758 89.2574 138.848 89.6806 138.072 90.2962C137.296 90.9118 136.678 91.7024 136.266 92.6031C135.797 93.7451 135.207 94.834 134.507 95.8513C133.633 97.0026 132.678 98.0403 132.614 99.5887C132.564 100.24 132.469 100.887 132.33 101.525C132.015 103.159 131.699 104.793 131.403 106.426C131.012 108.479 130.735 110.563 130.177 112.569C129.921 113.484 129.631 114.537 128.71 115.187C128.568 115.288 128.688 115.818 128.764 116.156C128.84 116.493 129.104 116.758 129.123 117.064C129.224 118.972 129.35 120.88 129.331 122.785C129.264 125.723 129.475 128.66 129.962 131.558C130.451 134.28 130.744 137.033 131.088 139.777C131.267 141.2 131.362 142.616 131.506 144.192C132.326 142.325 133.023 140.588 133.834 138.91C135.395 135.68 137.038 132.483 138.605 129.253C139.09 128.404 139.435 127.482 139.627 126.523C139.942 123.902 140.093 121.26 140.324 118.638C140.415 117.595 140.551 116.554 140.674 115.421C140.457 115.469 140.246 115.537 140.043 115.626C139.141 116.172 138.248 116.73 137.355 117.288C136.867 117.603 136.451 118.02 135.757 117.815C135.598 117.789 135.446 117.732 135.309 117.647C135.173 117.561 135.054 117.45 134.96 117.319C134.867 117.188 134.8 117.04 134.763 116.884C134.727 116.727 134.721 116.564 134.748 116.406C134.773 115.873 134.663 115.333 134.675 114.8C134.72 112.489 134.767 110.177 134.871 107.863C134.871 107.547 135.186 107.232 135.376 106.916C135.586 107.212 135.741 107.543 135.833 107.894C135.922 108.825 135.925 109.764 135.934 110.698V115.227C136.426 115.017 136.904 114.775 137.363 114.501C138.913 113.441 140.719 112.817 142.592 112.694C143.733 112.582 144.881 112.557 146.026 112.618C147.534 112.649 149.037 112.807 150.517 113.092C152.105 113.52 153.667 114.039 155.194 114.647C156.403 115.08 157.613 115.556 158.922 116.051ZM155.674 173.706C155.615 173.533 155.546 173.364 155.469 173.198C154.387 171.148 153.227 169.131 152.23 167.042C151.034 164.535 150.023 161.942 148.84 159.426C147.578 156.735 146.184 154.112 144.952 151.412C143.495 148.217 142.141 144.978 140.766 141.749C140.419 140.932 140.16 140.074 139.861 139.226L139.618 139.201C138.492 141.607 137.41 144.036 136.224 146.414C135.548 147.871 134.736 149.262 133.799 150.567C132.989 151.506 132.517 152.69 132.459 153.929C132.459 157.165 132.617 160.4 132.727 163.633C132.758 163.827 132.847 164.007 132.982 164.15C133.823 165.181 134.679 166.205 135.549 167.222C136.303 168.108 137.126 168.941 137.798 169.878C137.93 170.072 138.015 170.294 138.046 170.527C138.077 170.76 138.053 170.997 137.976 171.218C137.689 171.657 137.093 171.641 136.66 171.168C136.275 170.75 135.83 170.383 135.493 169.932C134.108 168.078 132.756 166.207 131.393 164.34C131.064 163.994 130.787 163.602 130.57 163.177C130.464 162.669 130.414 162.15 130.422 161.631C130.233 161.812 130.114 162.053 130.085 162.312C130.062 164.52 129.542 166.671 130.186 168.935C130.719 170.808 130.612 172.871 130.735 174.851C130.936 178.131 131.104 181.414 131.268 184.7C131.369 186.785 131.431 188.87 131.507 190.801C132.768 191.504 133.348 190.801 133.899 190.015C134.092 189.735 134.397 189.537 134.602 189.265C135.707 187.818 137.072 186.534 137.441 184.626C137.486 184.267 137.623 183.926 137.84 183.637C138.057 183.348 138.346 183.12 138.677 182.976C139.485 182.636 140.254 182.199 141.09 181.929C144.004 180.983 146.532 179.289 149.157 177.802C151.358 176.556 153.452 175.119 155.676 173.709L155.674 173.706ZM141.94 114.946C141.839 117.976 141.681 120.938 141.656 123.886C141.628 127.213 141.718 130.541 141.75 133.865C141.766 135.584 142.119 137.334 141.223 138.965C141.191 139.1 141.211 139.244 141.28 139.365C141.495 139.917 141.712 140.466 141.942 141.012C142.636 142.649 143.276 144.307 144.046 145.906C144.752 147.373 145.607 148.77 146.386 150.205C147.283 151.857 148.231 153.485 149.035 155.178C150.41 158.08 151.633 161.054 153.021 163.949C154.314 166.64 155.746 169.263 157.102 171.925C157.717 173.133 158.298 174.357 158.9 175.573L159.281 176.351C159.511 176.176 159.722 175.978 159.912 175.761C161.427 173.658 162.93 171.543 164.422 169.416C164.467 169.31 164.491 169.196 164.491 169.081C164.491 168.967 164.467 168.853 164.422 168.747C163.955 167.561 163.471 166.382 162.971 165.209C162.062 163.071 161.132 160.942 160.219 158.809C158.743 155.341 157.192 151.903 155.836 148.403C155.148 146.624 154.874 144.691 154.312 142.859C153.609 140.569 152.786 138.317 152.063 136.034C152.01 135.863 152.401 135.353 152.464 135.376C153.062 135.575 153.026 135.193 153.095 134.811C153.366 133.137 153.6 131.456 153.959 129.8C154.836 125.728 155.766 121.67 156.7 117.614C156.839 117.009 156.797 116.668 156.069 116.538C155.089 116.362 154.126 116.099 153.193 115.752C149.568 114.291 145.784 114.525 141.939 114.944L141.94 114.946ZM120.207 163.781H119.939C119.939 165.553 120.002 167.329 119.924 169.104C119.766 172.674 119.637 176.247 119.293 179.804C119.02 183.028 118.939 186.265 119.05 189.499C119.05 190.01 119.164 190.618 119.854 190.599C120.545 190.58 120.595 190.01 120.602 189.413C120.63 186.931 120.634 184.449 120.781 181.974C121.037 177.691 121.447 173.415 121.693 169.129C121.819 166.921 121.718 164.714 121.74 162.506C121.768 159.755 121.819 157 121.86 154.253C121.91 150.68 121.986 147.11 122.008 143.53C122.03 139.594 121.993 135.646 122.008 131.723C122.008 130.146 122.058 128.544 122.052 126.954C122.052 126.541 122.018 125.977 121.447 126.043C121.261 126.065 121.043 126.674 121.021 127.046C120.939 128.282 120.952 129.525 120.898 130.764C120.753 134.06 120.551 137.356 120.457 140.654C120.397 142.653 120.539 144.661 120.507 146.646C120.475 148.702 120.324 150.746 120.264 152.812C120.217 154.493 120.223 156.177 120.217 157.858C120.201 159.841 120.207 161.812 120.207 163.78V163.781ZM121.958 33.0528C121.958 31.1389 121.958 29.1736 121.939 27.206C121.939 26.9913 121.674 26.7771 121.535 26.575C121.38 26.7922 121.237 27.0174 121.106 27.2496C121.059 27.3381 121.106 27.4733 121.106 27.5869C121.075 29.6874 120.98 31.7908 121.03 33.8943C121.131 38.0916 121.258 42.2926 121.478 46.4839C121.705 50.8547 122.109 55.2159 122.339 59.5878C122.522 63.205 122.551 66.8414 122.655 70.4556C122.711 72.4962 122.793 74.5363 122.816 76.5799C122.838 78.6929 122.85 80.809 122.771 82.9196C122.724 84.1588 122.456 85.3861 122.358 86.6277C122.339 86.8514 122.597 87.2898 122.746 87.2993C123.057 87.2902 123.353 87.1617 123.573 86.9405C123.748 86.718 123.85 86.4461 123.863 86.163C124.055 84.1893 124.329 82.221 124.371 80.242C124.412 78.2629 124.178 76.2181 124.147 74.2055C124.093 70.8467 124.147 67.4879 124.071 64.1297C124.005 61.3923 123.832 58.6578 123.635 55.93C123.371 52.1962 123.005 48.4683 122.746 44.7345C122.447 40.847 122.216 36.9822 121.958 33.0528ZM123.85 95.8561C122.904 95.6354 122.762 96.203 122.68 96.7454C122.365 98.7574 122.049 100.769 121.81 102.791C121.255 107.706 120.737 112.625 120.255 117.547C120.198 118.09 119.842 118.964 120.813 119.061C121.702 119.153 121.683 118.26 121.905 117.676C121.92 117.622 121.928 117.566 121.927 117.51C122.144 114.47 122.324 111.423 122.585 108.386C122.845 105.349 123.168 102.394 123.471 99.4146C123.6 98.2412 123.729 97.0654 123.862 95.8543L123.85 95.8561ZM162.057 331.032C162.672 331.663 163.254 332.294 163.89 332.89C163.993 332.954 164.109 332.994 164.229 333.008C164.35 333.022 164.472 333.008 164.587 332.969C165.962 332.439 167.334 331.878 168.687 331.304C169.125 331.121 169.633 330.9 169.418 330.273C169.219 329.692 168.923 329.2 168.134 329.375C167.739 329.426 167.34 329.44 166.943 329.417C165.242 329.46 163.536 329.508 162.057 331.031L162.057 331.032ZM125.284 206.715L126.199 205.731C125.966 205.523 125.726 205.317 125.499 205.1C125.349 204.981 125.221 204.837 125.12 204.674C124.805 203.951 124.462 203.232 124.174 202.488C123.559 200.814 123.004 199.12 122.367 197.442C122.266 197.181 121.875 197.024 121.616 196.811C121.497 197.146 121.206 197.534 121.301 197.802C122.102 200.369 122.954 202.92 123.824 205.462C123.89 205.805 124.071 206.115 124.336 206.343C124.601 206.57 124.935 206.701 125.284 206.715ZM142.538 350.685L142.76 350.523C142.729 350.07 142.729 349.616 142.76 349.164C142.804 348.464 142.959 347.777 143.221 347.127C143.339 346.961 143.392 346.757 143.369 346.555C143.346 346.353 143.248 346.166 143.095 346.032C142.776 345.632 142.486 345.21 142.224 344.771C141.94 344.301 141.088 343.96 140.84 344.25C140.225 344.968 139.799 348.035 140.373 348.736C141.047 349.437 141.771 350.087 142.54 350.682L142.538 350.685ZM121.708 21.1779C121.74 21.2192 121.897 21.572 122.023 21.5565C122.294 21.5284 122.704 21.3771 122.774 21.1749C123.124 20.1815 123.405 19.16 123.666 18.1409C124.089 16.5637 124.366 14.9112 125.772 13.7916C125.984 13.6212 126.047 13.2647 126.176 12.9968C125.801 12.9812 125.312 12.8108 125.076 12.9968C124.457 13.3931 123.936 13.9233 123.549 14.5482C122.981 15.671 122.524 16.8466 122.184 18.0583C121.959 19.0871 121.8 20.129 121.708 21.1779ZM152.614 341.833C150.043 341.079 147.966 339.505 145.831 337.701C145.903 338.591 145.588 339.363 146.369 339.82C147.019 340.202 147.694 340.538 148.369 340.874C149.691 341.536 151.047 342.063 152.615 341.832L152.614 341.833ZM176.374 336.49C177.212 337.707 178.478 337.32 179.386 335.484L178.563 334.767L176.374 336.49ZM169.963 338.193C169.824 336.932 169.688 335.67 169.527 334.186C169.212 334.523 168.896 334.709 168.878 334.914C168.828 335.999 168.853 337.087 168.853 338.191L169.963 338.193ZM172.291 336.881L173.59 336.051C172.978 335.528 172.401 335.035 171.82 334.541L171.685 334.654L172.291 336.881ZM176.671 334.636L173.71 332.838L173.59 333.005L176.078 335.18L176.671 334.636ZM182.871 341.671C181.689 340.581 180.805 341.832 179.761 341.813C179.769 341.912 179.783 342.01 179.802 342.106L182.871 341.671Z" fill="black"/>
<path d="M146.973 62.2116C146.722 62.2816 146.477 62.3691 146.238 62.4736C145.245 62.9969 144.472 62.5681 144.444 61.4568C144.425 60.6435 144.444 59.8325 144.444 58.8773C144.159 59.1654 143.857 59.436 143.539 59.6877C143.022 60.0466 142.675 59.8169 142.551 59.2176C142.154 57.2906 141.794 55.3451 141.255 53.4557C140.549 50.9833 139.514 48.5957 138.953 46.0951C138.606 44.4761 138.591 42.8034 138.909 41.1783C139.373 38.4587 140.139 35.7994 141.193 33.2496C142.351 30.8013 143.812 28.5085 145.542 26.4249C146.57 25.1384 148.282 24.5547 150.023 24.4978C150.147 24.4855 150.271 24.5151 150.376 24.5817C150.481 24.6484 150.56 24.7483 150.602 24.8654C150.643 24.9826 150.644 25.1102 150.604 25.2279C150.564 25.3456 150.486 25.4466 150.382 25.5146C150.153 25.7266 149.882 25.8894 149.587 25.9931C147.629 26.7268 146.028 28.1873 145.118 30.0708C144.465 31.3321 143.573 32.4679 143.015 33.7573C142.309 35.2948 141.772 36.9042 141.413 38.5575C140.991 40.6558 140.78 42.791 140.782 44.9313C140.797 46.2907 141.44 47.6466 141.813 48.9982C142.491 51.4551 143.182 53.9085 143.894 56.4599C144.181 55.9647 144.462 55.473 144.752 54.9838C144.822 54.8271 144.924 54.6865 145.051 54.5705C145.883 54.0215 145.682 53.3092 145.413 52.5646C145.08 51.7226 144.95 50.8137 145.035 49.9121C145.12 49.0105 145.417 48.1417 145.902 47.3768C146.379 46.6488 146.93 45.9715 147.545 45.3553C147.842 45.0627 148.231 44.8801 148.646 44.8377C149.061 44.7953 149.478 44.8956 149.828 45.1221C150.386 45.4534 150.693 46.2512 151.036 46.8816C151.1 47.0012 150.841 47.4522 150.661 47.5126C150.531 47.5134 150.403 47.4821 150.288 47.4216C150.174 47.3611 150.076 47.2732 150.003 47.1657C149.312 45.9767 148.77 45.9044 147.88 46.9576C147.216 47.7769 146.811 48.7758 146.718 49.8265C146.625 50.8772 146.847 51.9318 147.357 52.8552C147.596 53.1425 147.933 53.3304 148.303 53.3822C148.905 53.5143 149.458 53.6124 149.208 54.4354C149.147 54.7249 148.973 54.9784 148.726 55.1408C148.479 55.3033 148.177 55.3614 147.887 55.3026C147.4 55.2114 146.919 55.0934 146.446 54.9491C146.139 55.3029 145.922 55.7261 145.815 56.1821C145.708 56.6382 145.713 57.1134 145.831 57.5669C146.014 58.4832 146.128 59.4121 146.171 60.3456C146.803 60.0327 147.467 59.7904 148.151 59.6231C149.135 59.4969 149.315 59.964 148.989 60.8845C148.408 62.4993 147.967 64.1614 147.446 65.7947C147.207 66.5423 146.923 67.2738 146.617 68.1272C151.644 69.8114 155.857 72.9585 159.843 76.5381C160.474 73.7378 162.019 69.9155 163.296 68.0638C163.155 67.9949 163.01 67.9349 162.861 67.8844C162.366 67.7522 161.981 67.4305 162.152 66.9383C162.257 66.79 162.396 66.6698 162.559 66.5884C162.721 66.5071 162.901 66.467 163.082 66.4718C163.859 66.5994 164.624 66.7914 165.369 67.0459C166.88 67.5124 168.378 68.0112 169.914 68.5094C170.759 67.5788 171.592 66.6171 172.491 65.7182C172.686 65.5196 173.122 65.5603 173.437 65.4909C173.418 65.8282 173.519 66.2481 173.355 66.4843C172.535 67.6578 171.64 68.7803 170.783 69.9281C170.339 70.5261 169.904 70.4203 169.351 70.0417C168.949 69.8109 168.516 69.6389 168.065 69.5309C166.857 69.1464 165.646 68.7803 164.347 68.3796C163.959 69.3449 163.502 70.272 163.205 71.2654C162.663 73.0853 162.199 74.9268 161.732 76.7677C161.524 77.5877 161.489 78.3448 162.39 78.8999C162.636 79.0482 162.705 79.5051 162.8 79.846C162.628 79.9876 162.422 80.081 162.202 80.117C162.02 80.0991 161.849 80.0188 161.719 79.8897C160.268 78.7228 158.849 77.5147 157.367 76.3861C155.094 74.6547 152.898 72.8222 150.243 71.6242C148.202 70.7032 146.263 69.5525 143.916 69.7953C143.106 69.8802 142.318 70.1452 141.513 70.2935C140.46 70.4891 139.394 70.6308 138.343 70.836C137.773 70.9466 137.267 70.7636 137.207 70.2492C137.241 70.0416 137.327 69.8459 137.457 69.6804C137.587 69.515 137.757 69.3852 137.951 69.3031C140.159 68.7827 142.385 68.3569 144.602 67.903C144.702 67.8878 144.798 67.852 144.883 67.7977C144.968 67.7434 145.041 67.6719 145.098 67.5878C145.662 66.1147 146.195 64.6297 146.728 63.141C146.815 62.8611 146.869 62.5878 146.973 62.2116Z" fill="black"/>
<path d="M179.764 54.3274C179.238 56.2197 178.818 58.112 178.187 59.9218C177.513 61.6676 176.456 63.2399 175.093 64.5229C174.756 64.8638 174.207 65.469 173.703 64.9332C173.199 64.3973 173.804 63.987 174.148 63.5803C175.946 61.525 177.242 59.0793 177.933 56.4368C178.172 55.4464 178.333 54.4374 178.564 53.45C178.614 53.2449 178.857 53.0876 179.011 52.9075L179.702 53.5385C179.8 53.2861 179.93 52.9404 180.087 52.5355C178.898 52.2042 179.317 51.2425 179.264 50.4668C179.269 50.1835 179.295 49.901 179.343 49.6217C179.51 48.0135 178.302 47.4686 177.173 46.9507C176.407 46.5918 175.53 46.4776 174.751 46.1433C174.461 46.0201 174.309 45.5817 174.093 45.2856C174.443 45.1403 174.811 44.8347 175.143 44.8723C176.671 45.1005 178.113 45.721 179.33 46.6732C179.699 42.9519 178.831 39.4196 178.15 35.7283C177.842 36.7646 177.465 37.7792 177.021 38.7653C175.627 41.3736 173.889 43.6881 171.092 44.9752C168.197 46.3059 165.315 47.6749 162.4 48.9644C161.708 49.2213 160.978 49.3651 160.24 49.3902C160.051 49.3902 159.702 49.0314 159.647 48.788C159.615 48.3934 159.64 47.9963 159.72 47.6086C158.203 48.9333 156.692 50.2168 155.219 51.5415C154.513 52.1725 153.882 52.901 153.213 53.575C153.117 53.689 152.989 53.7713 152.845 53.8114C152.701 53.8516 152.549 53.8476 152.407 53.8C152.266 53.7524 152.142 53.6635 152.052 53.5447C151.961 53.4258 151.909 53.2826 151.901 53.1336C151.719 52.1839 151.614 51.2211 151.586 50.2545C151.532 48.221 151.542 46.1875 151.545 44.1582C151.542 43.7336 151.589 43.3102 151.686 42.8969C151.731 42.7174 152.002 42.4393 152.1 42.4651C152.215 42.4912 152.322 42.5435 152.413 42.6179C152.505 42.6923 152.578 42.7867 152.627 42.8939C152.692 43.311 152.724 43.7329 152.721 44.1552C152.869 46.3628 153.036 48.5703 153.185 51.0368C154.736 49.7754 156.067 48.6935 157.411 47.6247C158.754 46.5559 160.102 45.4836 161.482 44.4549C161.675 44.3095 162.037 44.3951 162.32 44.3759C162.341 44.6769 162.317 44.9794 162.247 45.273C161.957 45.9824 161.598 46.6636 161.263 47.3544L161.487 47.5248C162.748 46.9381 164.026 46.3484 165.3 45.7683C165.792 45.5446 166.284 45.3233 166.788 45.1373C169.186 44.2605 171.519 43.1756 173.279 41.3341C175.244 39.2779 176.927 36.9681 176.991 33.9005C176.991 33.6075 177.23 33.3204 177.36 33.0303L177.991 33.6141C179.45 34.9669 179.413 36.8909 179.933 38.6098C180.801 41.6243 181.111 44.7715 180.851 47.8974C180.788 48.8753 180.851 49.8591 180.851 50.7802C182.345 48.5485 183.258 45.9786 183.506 43.3042C183.677 41.7672 183.725 40.219 183.648 38.6744C183.424 36.6496 182.815 34.6862 181.854 32.8904C181.776 32.5997 181.751 32.2974 181.781 31.998C182.096 32.1051 182.592 32.1272 182.69 32.3354C183.532 33.9386 184.246 35.6058 184.825 37.3216C186.051 41.6104 185.14 45.7485 183.415 49.7156C182.662 51.2075 181.819 52.6525 180.892 54.0427C180.59 54.5953 180.193 54.6898 179.764 54.3274Z" fill="black"/>
<path d="M154.224 357.765C152.442 357.646 150.664 357.507 148.881 357.418C147.998 357.371 147.506 356.816 146.967 356.229C146.666 355.946 146.318 355.716 145.939 355.551C145.64 355.4 145.233 355.4 144.993 355.189C144.753 354.978 144.795 354.627 144.706 354.337C144.944 354.265 145.189 354.219 145.438 354.198C145.715 354.198 145.99 354.312 146.267 354.324C147.104 354.369 147.917 354.271 148.651 354.955C148.966 355.271 149.723 355.075 150.275 355.141C152.376 355.384 154.479 355.599 156.583 355.908C157.529 356.049 158.437 356.418 159.367 356.643C161.064 357.056 162.761 357.491 164.476 357.815C165.549 358.018 166.659 358.036 167.756 358.131C168.464 358.152 169.171 358.213 169.872 358.314C170.153 358.37 170.367 358.749 170.61 358.982C170.367 359.178 170.144 359.512 169.882 359.544C168.935 359.654 167.961 359.667 166.999 359.705C163.126 359.863 159.496 358.522 155.747 357.908C155.242 357.823 154.73 357.788 154.22 357.737L154.224 357.765Z" fill="black"/>
<path d="M161.473 20.4941C163.365 20.7495 165.276 21.0085 167.178 21.2573C169.233 21.4748 171.241 22.0133 173.129 22.853C175.182 23.8213 177.264 24.7453 178.601 26.7291C178.823 26.9891 179 27.2845 179.124 27.6029C179.191 27.8553 179.033 28.1579 178.976 28.4402C178.711 28.3428 178.329 28.3206 178.198 28.1251C176.65 25.8386 174.307 24.7788 171.847 23.8362C169.753 23.0354 167.561 22.9218 165.387 22.6502C164.187 22.4301 162.969 22.3246 161.748 22.335C158.825 22.5743 155.907 22.9469 153.35 24.6024C152.923 24.8835 152.455 25.0964 151.962 25.2333C151.816 25.2605 151.666 25.2531 151.524 25.2115C151.381 25.17 151.251 25.0955 151.142 24.9941C151.103 24.8582 151.098 24.7144 151.128 24.576C151.158 24.4376 151.223 24.3091 151.316 24.2022C152.737 22.8601 154.482 21.9102 156.381 21.4457C158.058 21.0934 159.751 20.8159 161.473 20.4941Z" fill="black"/>
<path d="M174.481 358.068C176.254 357.784 178.033 357.538 179.795 357.21C181.88 356.819 183.955 356.373 186.024 355.914C186.535 355.8 186.995 355.479 187.503 355.346C187.826 355.315 188.153 355.332 188.471 355.397C188.352 355.755 188.339 356.286 188.096 356.428C187.22 357.011 186.264 357.462 185.257 357.768C181.914 358.572 178.536 359.257 175.165 359.944C174.579 360.035 173.984 360.042 173.396 359.966C172.746 359.909 172.182 359.575 172.242 358.862C172.256 358.724 172.298 358.59 172.367 358.469C172.436 358.348 172.529 358.242 172.64 358.159C172.752 358.076 172.879 358.017 173.015 357.986C173.15 357.955 173.291 357.952 173.428 357.979C173.769 357.982 174.11 357.969 174.449 357.938L174.481 358.068Z" fill="black"/>
<path d="M174.599 355.139C173.968 355.025 173.051 354.893 172.147 354.694C171.576 354.571 171.116 354.215 171.31 353.571C171.353 353.449 171.42 353.338 171.508 353.243C171.595 353.147 171.701 353.071 171.819 353.018C171.937 352.965 172.064 352.936 172.194 352.934C172.323 352.931 172.451 352.955 172.571 353.004C175.255 353.666 177.904 353.07 180.572 352.875C182.61 352.816 184.636 352.535 186.613 352.037C186.721 352.022 186.831 352.041 186.928 352.091C187.307 352.264 187.682 352.45 188.057 352.629C187.734 352.878 187.384 353.09 187.013 353.26C183.092 354.587 178.981 354.694 174.599 355.139Z" fill="black"/>
<path d="M194.72 344.403C195.325 343.685 195.65 343.685 196.161 344.438C197.156 345.922 197.71 347.657 197.76 349.443C197.745 350.352 197.634 351.257 197.428 352.143C197.343 352.381 197.187 352.587 196.98 352.733C196.514 353.184 196.006 353.591 195.464 353.947C194.647 354.417 193.774 354.784 192.912 355.173C192.66 355.287 192.332 355.255 192.099 355.394C191.698 355.633 191.178 355.968 190.992 355.416C190.969 355.166 191.006 354.914 191.101 354.682C191.195 354.449 191.344 354.242 191.534 354.079C192.058 353.801 192.625 353.616 193.212 353.53C193.822 353.351 194.39 353.053 194.884 352.653C195.378 352.252 195.787 351.758 196.088 351.198C196.311 350.565 196.364 349.884 196.239 349.224C196.206 347.505 195.679 345.831 194.72 344.403Z" fill="black"/>
<path d="M194.609 345.005C193.995 347.178 194.174 349.42 192.556 351.076C192.325 351.319 192.064 351.531 191.779 351.707C191.394 351.931 190.855 352.245 190.593 351.707C190.527 351.497 190.512 351.275 190.55 351.059C190.588 350.843 190.677 350.639 190.81 350.464C191.64 349.642 192.249 348.625 192.583 347.506C192.838 346.669 192.974 345.797 193.254 344.983C193.361 344.667 193.727 344.453 193.972 344.194L194.609 345.005Z" fill="black"/>
<path d="M177.321 348.279C175.372 348.121 173.417 347.998 171.475 347.786C170.967 347.73 170.449 347.336 170.664 346.736C170.743 346.513 171.367 346.348 171.721 346.386C173.714 346.598 175.698 346.879 177.684 347.131C177.94 347.117 178.196 347.134 178.448 347.181C178.682 347.316 178.894 347.485 179.079 347.683C178.867 347.837 178.675 348.074 178.448 348.121C178.08 348.166 177.709 348.172 177.341 348.14L177.321 348.279Z" fill="black"/>
<path d="M171.24 57.5594C171.081 57.467 170.945 57.3411 170.84 57.1903C170.803 57.0956 170.787 56.9946 170.791 56.8932C170.794 56.7919 170.819 56.6924 170.862 56.6006C170.989 56.4215 171.147 56.2666 171.328 56.1431C171.807 55.7244 172.274 55.2884 172.77 54.9069C172.984 54.746 173.378 54.5725 173.542 54.664C173.654 54.7573 173.742 54.8756 173.8 55.0094C173.857 55.1431 173.883 55.2885 173.874 55.4338C173.751 56.3793 172.35 57.5432 171.24 57.5594Z" fill="black"/>
<path d="M189.185 342.295C190.449 341.955 191.791 342.045 192.998 342.55C193.256 342.658 193.357 343.208 193.477 343.572C193.505 343.67 193.344 343.887 193.221 343.957C193.098 344.026 192.906 343.925 192.764 343.868C192.365 343.675 191.952 343.513 191.527 343.385C190.978 343.266 190.391 343.316 189.843 343.196C189.541 343.076 189.26 342.907 189.014 342.695C189.069 342.577 189.128 342.428 189.185 342.295Z" fill="black"/>
<path d="M174.927 341.823C174.843 342.591 174.716 343.353 174.549 344.107C174.403 344.487 174.169 344.827 173.867 345.1C173.778 345.155 173.676 345.185 173.571 345.189C173.466 345.192 173.362 345.168 173.269 345.119C173.15 345.028 173.124 344.725 173.159 344.532C173.313 343.678 173.474 342.823 173.692 341.978C173.796 341.559 173.729 340.859 174.42 341.004C174.684 341.06 174.83 341.653 174.927 341.823Z" fill="black"/>
<path d="M167.091 62.5638C167.018 61.7815 167.406 61.4945 168.069 61.5291C168.835 61.5573 169.6 61.63 170.358 61.7468C170.566 61.7815 170.913 62.1757 170.872 62.2893C170.771 62.5668 170.491 62.9735 170.267 62.9831C169.19 63.1321 168.092 62.9872 167.091 62.5638Z" fill="black"/>
<path d="M174.038 49.8887C173.126 49.8887 172.849 49.482 172.849 48.9617C172.849 48.4414 173.041 47.8672 173.725 47.7979C174.011 47.8196 174.276 47.9524 174.465 48.1676C174.653 48.3828 174.75 48.6634 174.734 48.9491C174.687 49.5257 174.385 49.9109 174.038 49.8887Z" fill="black"/>
<path d="M158.922 116.052C157.614 115.556 156.4 115.08 155.179 114.648C153.651 114.04 152.09 113.521 150.502 113.093C149.031 112.814 147.539 112.66 146.043 112.632C144.898 112.571 143.75 112.596 142.608 112.708C140.735 112.829 138.928 113.454 137.379 114.515C136.92 114.789 136.443 115.031 135.951 115.241V110.712C135.968 109.776 135.934 108.84 135.85 107.908C135.754 107.559 135.599 107.228 135.392 106.93C135.213 107.246 134.9 107.561 134.887 107.876C134.783 110.188 134.736 112.5 134.692 114.814C134.692 115.347 134.789 115.887 134.764 116.419C134.713 116.74 134.79 117.068 134.979 117.332C135.168 117.596 135.453 117.774 135.773 117.829C136.467 118.034 136.883 117.611 137.372 117.302C138.264 116.744 139.157 116.186 140.059 115.64C140.262 115.551 140.473 115.483 140.69 115.435C140.567 116.567 140.431 117.608 140.34 118.652C140.11 121.284 139.968 123.928 139.643 126.537C139.452 127.496 139.107 128.418 138.622 129.267C137.045 132.497 135.411 135.691 133.85 138.924C133.04 140.602 132.343 142.34 131.522 144.206C131.378 142.629 131.28 141.201 131.104 139.791C130.76 137.047 130.473 134.294 129.978 131.572C129.49 128.674 129.279 125.737 129.347 122.799C129.366 120.906 129.24 118.986 129.138 117.078C129.123 116.763 128.854 116.48 128.78 116.169C128.705 115.859 128.584 115.302 128.726 115.201C129.647 114.552 129.937 113.498 130.192 112.583C130.75 110.577 131.03 108.484 131.419 106.44C131.734 104.807 132.05 103.173 132.346 101.539C132.484 100.901 132.579 100.254 132.63 99.6026C132.702 98.0542 133.658 97.0165 134.522 95.8652C135.222 94.848 135.812 93.7591 136.282 92.6171C136.693 91.7163 137.312 90.9258 138.088 90.3102C138.863 89.6945 139.774 89.2713 140.744 89.0752C141.832 88.7977 142.851 88.2206 143.945 87.9987C144.93 87.7904 145.945 87.7594 146.941 87.9072C148.177 88.0824 149.381 88.4416 150.511 88.9729C151.834 89.6242 153.055 90.4635 154.138 91.4646C155.399 92.6787 156.345 94.2241 157.584 95.4884C158.96 96.9011 159.117 98.5883 159.133 100.386C159.161 104.262 159.252 108.141 159.246 112.017C159.247 113.336 159.029 114.661 158.922 116.052Z" fill="white"/>
<path d="M155.673 173.704C153.449 175.111 151.356 176.543 149.154 177.804C146.527 179.293 144.001 180.992 141.087 181.931C140.254 182.202 139.481 182.637 138.674 182.978C138.342 183.122 138.054 183.349 137.837 183.639C137.62 183.928 137.482 184.269 137.438 184.627C137.072 186.535 135.706 187.819 134.599 189.267C134.394 189.538 134.088 189.737 133.896 190.017C133.344 190.815 132.773 191.506 131.503 190.803C131.428 188.873 131.365 186.788 131.264 184.702C131.1 181.416 130.933 178.133 130.731 174.853C130.608 172.873 130.731 170.81 130.182 168.937C129.551 166.669 130.059 164.522 130.081 162.314C130.111 162.055 130.23 161.814 130.419 161.633C130.405 162.152 130.455 162.671 130.567 163.178C130.778 163.607 131.056 164 131.39 164.342C132.755 166.21 134.108 168.083 135.49 169.934C135.827 170.385 136.272 170.751 136.657 171.17C137.092 171.643 137.688 171.659 137.972 171.22C138.049 170.998 138.073 170.762 138.041 170.529C138.01 170.296 137.925 170.074 137.793 169.88C137.115 168.934 136.298 168.111 135.544 167.224C134.68 166.209 133.824 165.185 132.977 164.153C132.842 164.01 132.753 163.83 132.722 163.635C132.611 160.406 132.46 157.167 132.454 153.932C132.513 152.693 132.985 151.51 133.794 150.57C134.731 149.263 135.543 147.871 136.219 146.413C137.402 144.035 138.487 141.607 139.613 139.2L139.856 139.225C140.155 140.063 140.414 140.922 140.761 141.749C142.136 144.978 143.488 148.217 144.947 151.412C146.18 154.112 147.583 156.735 148.835 159.426C150.008 161.949 151.027 164.535 152.225 167.042C153.221 169.135 154.382 171.142 155.463 173.198C155.542 173.363 155.612 173.532 155.673 173.704Z" fill="white"/>
<path d="M141.939 114.945C145.796 114.526 149.552 114.291 153.217 115.733C154.15 116.08 155.113 116.343 156.093 116.518C156.811 116.657 156.85 116.991 156.724 117.595C155.778 121.65 154.864 125.712 153.984 129.78C153.625 131.436 153.391 133.117 153.119 134.792C153.057 135.173 153.094 135.555 152.488 135.356C152.426 135.334 152.035 135.845 152.088 136.014C152.81 138.298 153.633 140.55 154.337 142.839C154.898 144.672 155.174 146.607 155.86 148.383C157.216 151.896 158.768 155.337 160.244 158.79C161.155 160.925 162.085 163.054 162.995 165.189C163.493 166.362 163.977 167.542 164.446 168.728C164.491 168.833 164.515 168.947 164.515 169.062C164.515 169.177 164.491 169.291 164.446 169.396C162.961 171.526 161.458 173.641 159.936 175.741C159.747 175.959 159.535 176.156 159.305 176.331L158.924 175.553C158.326 174.336 157.741 173.113 157.126 171.905C155.77 169.243 154.338 166.619 153.045 163.929C151.658 161.034 150.434 158.06 149.059 155.159C148.255 153.465 147.306 151.838 146.41 150.185C145.633 148.75 144.777 147.347 144.07 145.887C143.3 144.288 142.66 142.629 141.966 140.992C141.736 140.447 141.518 139.898 141.304 139.346C141.257 139.219 141.197 139.03 141.248 138.945C142.145 137.318 141.79 135.564 141.774 133.845C141.743 130.521 141.651 127.194 141.68 123.867C141.684 120.93 141.838 117.976 141.939 114.945Z" fill="white"/>
<path d="M120.207 163.78V157.87C120.207 156.186 120.207 154.502 120.255 152.824C120.314 150.768 120.466 148.724 120.497 146.658C120.529 144.659 120.387 142.651 120.447 140.666C120.542 137.367 120.746 134.072 120.889 130.776C120.942 129.537 120.93 128.294 121.012 127.058C121.034 126.699 121.251 126.077 121.438 126.055C122.008 125.989 122.043 126.553 122.043 126.967C122.043 128.544 121.999 130.145 121.999 131.735C121.999 135.671 122.033 139.62 121.999 143.542C121.977 147.112 121.901 150.682 121.85 154.265C121.809 157.016 121.759 159.767 121.731 162.518C121.709 164.726 121.81 166.933 121.683 169.141C121.438 173.427 121.026 177.703 120.772 181.986C120.624 184.461 120.621 186.943 120.593 189.425C120.593 190.023 120.593 190.589 119.845 190.611C119.097 190.634 119.053 190.022 119.041 189.511C118.929 186.278 119.01 183.04 119.283 179.817C119.624 176.259 119.753 172.686 119.914 169.116C119.993 167.344 119.93 165.568 119.93 163.793L120.207 163.78Z" fill="white"/>
<path d="M121.957 33.052C122.216 36.9784 122.45 40.845 122.735 44.7206C123.006 48.4544 123.366 52.1822 123.624 55.9161C123.82 58.6505 123.993 61.3849 124.06 64.1158C124.145 67.4746 124.082 70.8334 124.135 74.1916C124.167 76.2036 124.403 78.2191 124.359 80.228C124.314 82.237 124.043 84.1754 123.851 86.149C123.838 86.4322 123.736 86.704 123.561 86.9265C123.342 87.1478 123.046 87.2762 122.734 87.2854C122.583 87.2854 122.328 86.8374 122.346 86.6137C122.45 85.3745 122.712 84.1473 122.759 82.9056C122.838 80.7956 122.826 78.6796 122.804 76.566C122.781 74.5224 122.7 72.4817 122.643 70.4416C122.545 66.8179 122.517 63.1881 122.328 59.5739C122.104 55.2031 121.697 50.8419 121.466 46.47C121.246 42.2786 121.119 38.0777 121.018 33.8804C120.968 31.7829 121.063 29.6795 121.094 27.573C121.094 27.4594 121.053 27.3236 121.094 27.2357C121.229 27.0077 121.376 26.7869 121.534 26.5742C121.673 26.7889 121.935 27.003 121.938 27.2052C121.97 29.1729 121.957 31.1376 121.957 33.052Z" fill="white"/>
<path d="M123.86 95.8555C123.727 97.0666 123.598 98.243 123.478 99.4159C123.163 102.406 122.847 105.392 122.592 108.387C122.336 111.382 122.153 114.471 121.934 117.511C121.935 117.567 121.927 117.623 121.912 117.678C121.691 118.261 121.71 119.154 120.821 119.062C119.85 118.965 120.206 118.091 120.263 117.548C120.75 112.616 121.268 107.697 121.814 102.792C122.041 100.771 122.369 98.7586 122.684 96.7466C122.762 96.2024 122.926 95.6408 123.86 95.8555Z" fill="white"/>
<path d="M162.057 331.031C163.536 329.508 165.242 329.455 166.948 329.417C167.346 329.439 167.745 329.426 168.14 329.375C168.929 329.202 169.225 329.691 169.424 330.272C169.635 330.903 169.131 331.121 168.692 331.304C167.333 331.878 165.964 332.44 164.592 332.969C164.478 333.008 164.356 333.021 164.235 333.008C164.115 332.994 163.999 332.954 163.896 332.89C163.253 332.306 162.671 331.668 162.057 331.031Z" fill="white"/>
<path d="M125.284 206.717C124.938 206.712 124.605 206.586 124.341 206.363C124.077 206.139 123.899 205.831 123.837 205.49C122.96 202.949 122.108 200.397 121.314 197.83C121.229 197.562 121.522 197.172 121.629 196.84C121.888 197.045 122.279 197.199 122.38 197.471C123.011 199.136 123.572 200.83 124.187 202.517C124.458 203.261 124.789 203.98 125.133 204.702C125.233 204.865 125.362 205.009 125.511 205.128C125.739 205.343 125.978 205.547 126.212 205.759L125.284 206.717Z" fill="white"/>
<path d="M142.542 350.684C141.771 350.092 141.051 349.437 140.389 348.726C139.78 347.985 140.241 344.941 140.855 344.24C141.105 343.95 141.956 344.29 142.24 344.76C142.501 345.2 142.792 345.621 143.11 346.022C143.263 346.156 143.361 346.342 143.384 346.545C143.408 346.747 143.355 346.951 143.236 347.116C142.972 347.765 142.816 348.454 142.776 349.153C142.744 349.606 142.744 350.06 142.776 350.513L142.542 350.684Z" fill="white"/>
<path d="M121.708 21.1774C121.801 20.1277 121.961 19.085 122.186 18.0554C122.523 16.8408 122.977 15.662 123.542 14.5357C123.928 13.9108 124.45 13.3806 125.069 12.9843C125.308 12.8109 125.794 12.9843 126.169 12.9843C126.04 13.2523 125.977 13.6153 125.765 13.7792C124.359 14.8988 124.081 16.5417 123.659 18.1284C123.388 19.1451 123.116 20.1691 122.767 21.1625C122.697 21.364 122.288 21.5159 122.016 21.544C121.897 21.5716 121.74 21.2121 121.708 21.1774Z" fill="white"/>
<path d="M152.614 341.833C151.037 342.063 149.691 341.534 148.368 340.887C147.693 340.549 147.018 340.215 146.368 339.834C145.586 339.376 145.902 338.603 145.83 337.714C147.966 339.505 150.044 341.079 152.614 341.833Z" fill="white"/>
<path d="M176.375 336.49L178.564 334.769L179.387 335.486C178.475 337.32 177.208 337.708 176.375 336.49Z" fill="white"/>
<path d="M169.96 338.195H168.85C168.85 337.091 168.825 336.003 168.875 334.918C168.875 334.713 169.212 334.527 169.525 334.189C169.686 335.676 169.821 336.916 169.96 338.195Z" fill="white"/>
<path d="M172.274 336.881L171.669 334.655L171.805 334.541C172.385 335.033 172.962 335.528 173.574 336.052L172.274 336.881Z" fill="white"/>
<path d="M176.668 334.636L176.078 335.181L173.59 333.005L173.709 332.838L176.668 334.636Z" fill="white"/>
<path d="M182.868 341.672L179.799 342.107C179.792 342.009 179.778 341.911 179.758 341.814C180.79 341.833 181.685 340.58 182.868 341.672Z" fill="white"/>
</g>
</svg>
