<svg width="364" height="364" viewBox="0 0 364 364" fill="none" xmlns="http://www.w3.org/2000/svg">
<mask id="mask0_2341_706" style="mask-type:alpha" maskUnits="userSpaceOnUse" x="0" y="0" width="364" height="364">
<rect width="364" height="364" fill="#D9D9D9"/>
</mask>
<g mask="url(#mask0_2341_706)">
<path d="M235.173 55.1211H127.824C60.6081 55.1211 6.11914 109.61 6.11914 176.826V183.067C6.11914 250.282 60.6081 304.771 127.824 304.771H235.173C302.389 304.771 356.878 250.282 356.878 183.067V176.826C356.878 109.61 302.389 55.1211 235.173 55.1211Z" stroke="black" stroke-width="6.62493"/>
<path d="M227.853 133.747C228.118 133.786 231.924 135.771 231.924 135.771L235.315 136.53L237.849 133.734L229.81 131.182L227.853 133.747Z" fill="white"/>
<path d="M170.648 35.2035L167.789 30.6806L166.649 21.3898L170.648 8.97404L175.541 3.55617L180.141 1.80851L190.193 0.438477L199.162 3.1441L205.804 9.93863C205.804 9.93863 209.05 17.9548 208.949 18.1145C209.159 19.357 209.433 20.5878 209.771 21.8019V28.5024L210.176 35.2028L208.178 43.0964L202.704 49.8949L200.216 50.8039L191.319 49.2576L187.771 57.7375L202.508 63.645L206.549 66.8249L217.252 83.6026L198.782 105.525L201.382 124.466L209.17 129.833L210.918 133.178L175.615 143.895L161.092 143.371L160.613 135.355L160.878 129.43L153.401 103.76L145.49 101.967L139.227 98.6253L143.686 86.6818L147.612 72.6688L157.007 61.2037L162.25 56.8485L166.882 55.9991L171.939 52.5668C174.935 49.8333 176.812 46.6977 177.392 43.0977L174.802 39.2911L173.404 40.6472L172.705 47.0734L165.539 52.5608C157.892 53.7705 153.03 53.1199 149.353 51.6837C152.46 51.2317 155.352 49.8314 157.634 47.6742L160.779 41.5084L165.324 37.6322L169.626 36.5417C169.92 36.4662 170.18 36.2949 170.365 36.0548C170.55 35.8148 170.649 35.5198 170.647 35.2167L170.648 35.2035Z" fill="white"/>
<path d="M196.66 277.595C196.66 278.78 196.635 279.94 196.66 281.09C196.714 285.685 196.48 290.278 195.961 294.844C195.744 297.088 195.664 299.342 195.503 301.593C195.326 304.111 195.138 306.628 194.937 309.146C194.821 310.649 194.629 312.152 194.587 313.658C194.531 315.314 194.639 316.975 194.587 318.635C194.552 320.17 194.398 321.701 194.322 323.232C194.185 324.626 194.155 326.028 194.231 327.426C194.282 327.82 194.41 328.199 194.608 328.543C194.806 328.886 195.07 329.188 195.384 329.429C196.387 330.065 196.36 331.204 197.041 331.966C197.551 332.539 197.74 333.476 198.341 333.861C199.02 334.155 199.775 334.229 200.498 334.071C201.399 334.001 202.286 333.721 203.182 333.595C205.478 333.245 206.636 334.211 207.187 336.129C208.02 338.657 208.055 341.379 207.289 343.927C207.025 344.409 206.717 344.866 206.369 345.291C205.233 347.278 204.139 349.293 202.991 351.271C202.794 351.621 202.47 351.88 202.086 351.995C199.369 352.414 197.007 353.77 194.501 354.742C193.606 355.092 192.638 355.277 191.785 355.7C189.792 356.682 188.922 358.496 188.457 360.551C188.275 361.362 188.051 362.17 187.794 362.96C187.752 363.073 187.683 363.176 187.595 363.26C187.507 363.343 187.4 363.406 187.284 363.442C186.169 363.585 185.047 363.686 183.925 363.757C183.226 363.802 182.961 363.452 182.912 362.729C182.807 361.121 182.615 359.517 182.419 357.913C182.403 357.536 182.311 357.167 182.149 356.827C181.987 356.487 181.758 356.184 181.475 355.935C181.126 355.648 180.961 355.148 180.651 354.798C180.308 354.447 179.945 354.117 179.563 353.809C179.409 353.709 179.266 353.591 179.137 353.459C177.917 351.737 176.841 349.964 176.652 347.783C176.653 347.625 176.62 347.469 176.554 347.325C175.089 345.007 175.626 342.579 176.152 340.157C176.429 338.759 176.779 337.376 177.2 336.015C177.976 333.68 178.452 331.194 180.269 329.323C180.391 329.146 180.457 328.937 180.461 328.722C180.954 324.95 181.664 321.189 181.363 317.359C181.181 315.087 180.912 312.815 180.629 310.554C180.119 306.446 179.521 302.343 179.039 298.225C178.724 295.469 178.49 292.712 178.337 289.956C178.158 286.988 178.043 284.014 178.04 281.036C178.04 278.323 178.215 275.611 178.327 272.898C178.354 272.244 177.697 271.563 177.068 271.728C176.882 271.777 176.69 272.172 176.67 272.427C176.371 276.698 175.738 280.939 174.776 285.111C174.077 288.034 173.583 291.008 172.793 293.899C172.153 296.237 171.196 298.488 170.409 300.785C169.444 303.581 168.504 306.408 167.56 309.222C166.938 311.077 166.319 312.927 165.717 314.787C165.519 315.406 165.396 316.046 165.228 316.671C165.179 317.04 165.06 317.396 164.879 317.72C163.83 319.006 164.243 320.3 164.736 321.629C166.039 325.162 166.938 328.773 166.371 332.58C165.841 336.121 165.274 339.654 164.649 343.18C164.362 344.791 163.093 345.777 161.94 346.79C161.045 347.577 160.146 348.363 159.21 349.1C157.941 350.103 156.626 351.054 155.367 352.054C155.101 352.254 154.892 352.522 154.762 352.829C154.305 354.035 153.967 355.276 153.459 356.468C153.054 357.408 152.545 358.3 151.942 359.128C151.603 359.438 151.157 359.605 150.697 359.591C149.977 359.577 149.258 359.511 148.548 359.393C147.768 359.298 146.8 357.994 146.8 356.918C146.8 355.313 146.887 353.709 146.975 352.105C147.076 350.291 146.898 348.609 145.476 347.239C144.835 346.674 144.282 346.015 143.837 345.286C143.414 344.522 143.153 343.68 143.067 342.811C142.949 341.346 143.067 339.864 143.036 338.393C142.986 335.882 143.298 333.377 143.964 330.955C144.478 329.211 145.09 327.498 145.799 325.824C146.222 324.636 146.741 323.483 147.351 322.379C148.12 321.135 148.974 319.945 149.906 318.818C150.533 317.612 150.79 316.247 150.644 314.896C150.51 314.315 150.494 313.714 150.595 313.127C151.129 309.351 151.737 305.591 152.258 301.816C152.863 297.444 153.408 293.078 153.961 288.681C154.248 286.395 154.468 284.102 154.775 281.816C155.082 279.531 155.474 277.346 155.789 275.105C155.925 274.182 156.005 273.25 156.12 272.253C154.107 271.903 152.149 271.554 150.198 271.204C146.766 270.575 143.375 269.845 140.411 267.8C139.1 266.891 137.58 266.276 136.304 265.332C134.556 264.039 132.952 262.56 131.302 261.138C130.589 260.522 129.904 259.877 129.248 259.201C128.155 258.075 128.427 256.695 128.71 255.391C129.346 252.48 130.07 249.589 130.764 246.691C131.281 244.543 131.807 242.396 132.341 240.253C132.977 237.683 133.673 235.125 134.262 232.545C134.905 229.721 135.388 226.858 136.069 224.041C136.751 221.223 137.593 218.532 138.317 215.768C138.872 213.67 139.365 211.531 139.883 209.408C140.233 207.918 140.603 206.426 140.932 204.93C141.281 203.266 141.568 201.591 141.896 199.925C142.178 198.478 142.473 197.032 142.781 195.587C143.13 193.839 143.479 192.091 143.917 190.344C145.073 185.933 146.248 181.521 147.494 177.135C148.422 173.884 149.469 170.668 150.475 167.442C151.566 163.947 152.713 160.469 153.754 156.956C154.383 154.859 154.858 152.695 155.4 150.56C156.12 147.732 156.798 144.887 157.571 142.073C158.34 139.315 159.318 136.617 160.017 133.842C160.18 132.732 160.1 131.6 159.783 130.525C159.381 128.665 158.832 126.833 158.308 125.002C158.265 124.867 158.194 124.743 158.1 124.638C158.005 124.534 157.889 124.45 157.76 124.394C155.516 123.723 153.194 123.258 151.021 122.412C149.099 121.664 147.235 120.612 146.75 118.262C146.732 118.175 146.704 118.035 146.648 118.018C145.058 117.462 145.484 116.097 145.509 114.984C145.558 112.852 145.757 110.723 145.858 108.591C145.946 106.927 146.012 105.263 146.033 103.599C146.025 103.437 145.98 103.278 145.904 103.134C145.827 102.99 145.72 102.865 145.59 102.767C143.381 101.474 141.144 100.226 138.917 98.9647C138.542 98.6893 138.281 98.2861 138.184 97.8313C138.086 97.3766 138.158 96.9019 138.387 96.4969C138.865 95.6162 139.279 94.7028 139.628 93.7634C140.39 91.8899 141.093 89.9952 141.875 88.1322C143.262 84.7882 144.238 81.2883 144.783 77.7092C145.214 75.4181 146.12 73.2427 147.443 71.3235C148.971 68.8796 150.622 66.5148 152.389 64.2381C153.973 62.2705 155.864 60.5474 157.632 58.7262C157.829 58.4767 158.104 58.2996 158.412 58.2227C158.818 58.2599 159.216 58.3577 159.593 58.5128C159.408 58.7778 159.244 59.0581 159.037 59.3025C158.139 60.3513 157.188 61.3331 156.332 62.4063C154.538 64.6641 152.931 67.0868 150.98 69.2015C149.683 70.5744 148.664 72.1851 147.978 73.9449C147.391 75.6843 146.913 77.4589 146.548 79.2581C145.964 81.6524 145.517 84.0851 144.822 86.4482C144.221 88.5019 143.354 90.4781 142.609 92.4881C141.935 94.3126 141.27 96.1444 140.54 98.1259C144.542 99.115 147.597 102.191 151.837 102.575C151.602 100.866 151.327 99.1919 151.138 97.5072C150.939 95.6336 150.75 93.7568 150.715 91.876C150.66 88.7894 150.715 85.7029 150.757 82.613C150.773 81.6045 150.843 80.5976 150.967 79.5967C151.002 79.3098 151.288 79.0548 151.463 78.7858C151.666 79.0508 152.036 79.2999 152.05 79.5689C152.159 81.8094 152.11 84.0566 152.281 86.2905C152.571 90.0621 153.009 93.8197 153.351 97.5873C153.616 100.569 154.63 103.316 155.742 106.06C156.325 107.496 156.692 109.027 157.139 110.513C157.905 112.96 158.712 115.386 159.422 117.854C160.159 120.402 160.82 122.974 161.484 125.543C162.005 127.184 162.382 128.867 162.61 130.573C162.743 132.342 162.887 134.18 162.128 135.928C161.821 136.627 161.583 137.354 162.694 137.938C163.547 138.385 164.043 139.472 164.792 140.175C166.3 141.722 168.319 142.667 170.472 142.835C171.729 142.869 172.983 142.692 174.182 142.311C176.87 141.493 179.516 140.542 182.158 139.595C185.405 138.431 188.611 137.169 191.865 136.033C195.706 134.733 199.675 133.85 203.704 133.401C205.473 133.188 207.238 132.929 208.999 132.667C209.153 132.646 209.415 132.398 209.397 132.317C209.317 132.087 209.187 131.775 208.991 131.692C208.445 131.468 207.88 131.29 207.303 131.162C205.028 130.632 203.179 129.274 201.285 128.016C200.625 127.627 200.078 127.074 199.698 126.409C199.317 125.745 199.116 124.993 199.114 124.228C199.065 122.553 198.632 120.897 198.471 119.222C198.202 116.454 198.024 113.672 197.772 110.9C197.681 109.851 197.552 108.838 197.394 107.814C197.37 107.704 197.32 107.603 197.248 107.517C197.176 107.431 197.085 107.364 196.982 107.321C196.177 107.188 196.007 106.622 195.899 105.961C195.496 103.543 195.119 101.12 194.679 98.7116C194.48 97.6211 194.162 96.5552 193.879 95.4819C193.224 92.9954 192.561 90.5113 191.891 88.0296C191.818 87.7606 191.584 87.5122 191.587 87.2571C191.594 86.9335 191.703 86.6203 191.898 86.3621C191.965 86.2779 192.51 86.3938 192.619 86.5608C193.101 87.2216 193.5 87.9402 193.804 88.7C195.167 92.7544 196.471 96.8268 197.779 100.895C197.999 101.594 198.129 102.293 198.348 102.993C198.425 103.223 198.698 103.39 198.873 103.589C199.061 103.423 199.235 103.243 199.394 103.05C201.435 100.254 203.365 97.3455 206.059 95.1507C207.706 93.8085 208.674 91.9707 210.132 90.502C212.169 88.4396 213.974 86.1467 215.92 83.9062C214.648 81.9002 213.309 79.8027 211.981 77.6986C210.509 75.3673 209.069 73.0181 207.57 70.708C206.679 69.3307 205.682 68.0236 204.773 66.6569C204.609 66.4124 204.665 66.0209 204.62 65.6989C204.951 65.6989 205.431 65.5803 205.581 65.7479C206.871 67.1842 208.108 68.6669 209.345 70.1522C210.121 71.0856 210.918 72.0118 211.617 73.0009C212.896 74.8042 214.148 76.6294 215.339 78.4883C216.182 79.8027 216.895 81.2006 217.685 82.5501C217.814 82.7049 217.909 82.886 217.962 83.0809C218.016 83.2759 218.026 83.48 217.993 83.6793C217.959 83.8786 217.883 84.0684 217.77 84.2355C217.656 84.4027 217.508 84.5432 217.335 84.6475C216.503 85.3464 216.042 86.3428 215.384 87.1888C214.224 88.6847 213.07 90.1913 211.858 91.6454C211.594 91.9643 211.414 92.3436 211.333 92.7493C211.252 93.1551 211.273 93.5745 211.394 93.9701C211.904 96.8261 212.222 99.7166 212.614 102.59C212.963 105.127 213.362 107.655 213.635 110.196C213.778 111.521 213.596 112.88 213.761 114.198C213.952 114.872 214.283 115.499 214.733 116.036C214.822 116.114 214.929 116.17 215.044 116.199C215.159 116.229 215.279 116.23 215.395 116.204C217.324 115.674 219.238 115.155 221.169 114.561C222.707 114.097 224.231 113.575 225.755 113.058C226.407 112.948 227.029 112.7 227.576 112.329C228.481 111.571 229.782 112.56 229.911 113.654C230.785 114.378 231.439 114.941 232.124 115.472C232.333 115.646 232.588 115.755 232.858 115.787C234.605 115.902 236.391 115.954 238.158 116.084C239.924 116.214 240.57 117.566 239.483 119.157C241.255 119.157 241.404 120.849 242.279 121.799C242.548 122.093 242.429 122.816 242.353 123.327C242.265 123.929 241.867 124.184 241.248 123.911C241.144 124.261 240.857 124.655 240.958 124.905C241.762 126.852 241.559 128.624 239.972 130.011C240.033 130.114 240.107 130.208 240.193 130.291C241.563 131.294 241.546 132.958 239.969 133.583C238.962 133.985 238.571 134.793 237.896 135.394C237.231 135.898 236.487 136.288 235.694 136.547C235.463 136.638 235.098 136.397 234.481 136.216L236.354 134.699C235.212 134.293 234.222 133.926 233.209 133.587C232.414 133.314 231.566 133.213 231.084 132.328C230.912 132.017 230.339 131.926 229.979 131.751L229.14 133.499C229.869 133.656 230.622 133.824 231.384 133.981C231.542 133.982 231.699 133.991 231.856 134.009C232.391 134.184 233.072 134.34 232.939 135.075C232.806 135.81 232.24 135.774 231.597 135.715C228.528 135.404 225.515 134.682 222.638 133.569C221.557 133.22 220.496 132.814 219.458 132.352C218.448 131.856 217.648 132.275 216.763 132.617C215.714 133.023 214.643 133.316 213.506 133.711C213.506 134.288 213.46 134.963 213.506 135.626C213.771 139.005 214.02 142.39 214.367 145.763C214.615 148.164 215.029 150.551 215.331 152.949C215.901 157.524 216.471 162.104 216.988 166.689C217.271 169.185 217.439 171.698 217.687 174.201C217.934 176.703 218.217 179.22 218.442 181.733C218.631 183.774 218.729 185.82 218.928 187.857C219.337 192.013 219.823 196.159 220.204 200.312C220.453 203.028 220.554 205.758 220.767 208.477C220.965 211.019 221.238 213.556 221.466 216.096C221.637 218.017 221.773 219.939 221.969 221.853C222.179 223.951 222.427 226.047 222.668 228.12C223.038 231.147 223.468 234.168 223.794 237.208C224.172 240.728 224.465 244.255 224.783 247.782C225.048 250.707 225.269 253.633 225.548 256.555C225.783 259.002 225.982 261.448 226.353 263.896C226.734 266.388 225.545 268.157 223.668 269.314C219.855 271.663 215.891 273.767 211.983 275.955C211.701 276.093 211.399 276.183 211.088 276.224C209.072 276.594 207.062 277.035 205.031 277.273C203.633 277.44 202.186 277.308 200.763 277.35C199.54 277.416 198.209 277.511 196.66 277.595ZM185.646 233.33L185.346 233.302C185.223 233.632 185.121 233.969 185.042 234.312C184.692 236.233 184.367 238.154 184.063 240.076C183.504 243.617 182.945 247.161 182.427 250.709C181.942 254.04 181.397 257.371 181.093 260.723C180.848 263.446 180.211 266.13 180.443 268.913C180.575 270.485 180.261 272.093 180.272 273.683C180.272 276.73 180.384 279.778 180.47 282.82C180.498 283.946 180.603 285.078 180.628 286.206C180.656 287.209 180.586 288.213 180.628 289.216C180.673 290.409 180.814 291.607 180.869 292.806C180.925 294.004 180.831 295.169 180.963 296.333C181.313 299.478 181.802 302.626 182.169 305.806C182.633 309.847 183.05 313.895 183.442 317.943C183.444 318.535 183.357 319.124 183.183 319.69C183.037 320.032 182.911 320.382 182.806 320.739C182.757 321.347 182.847 321.963 182.851 322.574V327.995C185.913 326.856 188.937 327.579 191.994 328.596C192.025 328.289 192.112 328.079 192.046 327.939C191.693 327.03 191.573 326.047 191.697 325.08C191.798 322.011 191.739 318.938 191.84 315.871C191.942 312.804 192.155 309.677 192.333 306.58C192.37 305.895 192.432 305.21 192.519 304.526C192.76 302.513 193.029 300.503 193.267 298.494C193.455 296.872 193.616 295.243 193.787 293.621C194.046 291.398 194.35 289.182 194.582 286.956C194.903 283.957 195.169 280.947 195.488 277.946C195.534 277.502 195.526 277.247 194.984 277.195C192.132 276.845 189.829 275.008 187.144 274.182C187.018 274.097 186.913 273.985 186.837 273.853C186.761 273.722 186.717 273.575 186.707 273.423C186.638 271.773 186.561 270.116 186.613 268.467C186.69 265.978 186.963 263.493 186.98 261.005C186.98 257.366 186.907 253.726 186.76 250.085C186.593 246.16 186.313 242.235 186.061 238.313C185.951 236.647 185.786 234.983 185.646 233.33ZM157.756 272.582C157.581 274.994 157.424 277.249 157.249 279.499C157.063 281.845 156.927 284.197 156.644 286.528C156.197 290.172 155.65 293.799 155.148 297.441C154.532 301.87 153.942 306.302 153.293 310.723C152.905 313.369 152.409 315.994 151.996 318.637C151.891 319.184 151.957 319.75 152.186 320.258C152.415 320.766 152.796 321.191 153.275 321.475C155.147 322.629 157.346 323.138 159.535 322.922C160.234 322.873 161 322.023 160.954 321.524C160.845 320.933 160.859 320.326 160.996 319.741C161.46 318.451 162.17 317.246 162.604 315.945C163.195 314.197 163.537 312.348 164.121 310.59C165.313 307.013 166.567 303.46 167.854 299.912C168.361 298.514 169.113 297.157 169.521 295.718C170.147 293.516 170.57 291.254 171.088 289.017C171.636 286.672 172.252 284.341 172.744 281.985C173.415 278.777 174.003 275.554 174.642 272.24C168.875 272.639 163.364 273.771 157.757 272.583L157.756 272.582ZM209.949 94.2146C208.747 95.5396 207.702 96.7208 206.629 97.8775C205.99 98.5764 205.262 99.174 204.661 99.8908C203.459 101.327 202.284 102.789 201.166 104.288C200.659 104.987 199.967 105.766 199.953 106.525C199.918 108.669 200.049 110.812 200.345 112.935C200.869 116.819 201.544 120.681 202.172 124.547C202.213 124.819 202.335 125.073 202.522 125.276C202.97 125.716 203.461 126.11 203.987 126.453C205.26 127.283 206.576 128.045 207.929 128.736C210.226 129.834 212.449 131.13 215.241 130.417C217.485 129.847 219.198 126.412 218.059 124.363C217.497 123.35 217.065 122.266 216.462 121.273C215.763 120.141 214.945 119.087 214.067 117.841C214.029 118.152 214.005 118.268 213.997 118.386C213.976 119.142 213.683 119.76 212.882 119.844C212.183 119.914 211.582 119.049 211.547 118.197C211.512 117.346 211.438 116.499 211.393 115.65C211.194 111.807 211.026 107.96 210.797 104.115C210.664 101.857 210.447 99.6026 210.244 97.3442C210.155 96.3955 210.057 95.417 209.949 94.2146ZM219.114 120.954C220.792 124.159 221.446 127.361 219.537 130.797L226.71 132.933C227.608 133.198 229.373 131.884 229.36 130.954C229.372 130.816 229.332 130.677 229.248 130.566C228.601 130.084 228.898 129.665 229.303 129.241C229.709 128.818 230.002 128.458 230.394 128.098C231.317 127.228 231.355 126.972 230.366 126.183C230.042 125.976 229.802 125.661 229.689 125.294C229.576 124.926 229.596 124.531 229.747 124.177C230.119 123.453 230.553 122.763 231.044 122.115C231.32 122.321 231.477 122.38 231.502 122.465C231.718 123.26 232.239 123.139 232.868 123.031C234.48 122.748 236.109 122.541 237.73 122.332C238.857 122.178 239.995 122.056 241.226 121.905C240.345 120.916 239.66 119.843 238.199 120.749C237.931 120.848 237.644 120.886 237.36 120.861C234.508 121.063 231.659 121.305 228.807 121.434C227.435 121.46 226.063 121.4 224.699 121.256C224.561 121.217 224.434 121.146 224.33 121.047C224.226 120.948 224.148 120.825 224.103 120.689C224.11 120.553 224.151 120.42 224.222 120.303C224.294 120.186 224.393 120.09 224.512 120.021C225.336 119.672 226.204 119.406 227.046 119.088C228.531 118.521 230.01 117.934 231.289 117.438C231.021 117.032 230.73 116.642 230.418 116.268C230.341 116.18 230.246 116.109 230.139 116.062C230.033 116.014 229.917 115.99 229.8 115.991C229.088 116.122 228.394 116.335 227.731 116.624C224.861 118.015 222.015 119.483 219.114 120.954ZM157.407 122.157L157.589 121.842C157.334 120.72 157.099 119.595 156.819 118.483C156.397 116.805 155.977 115.128 155.488 113.471C154.81 111.171 154.094 108.883 153.341 106.606C153.107 105.907 153.1 104.858 151.832 105.121C151.639 105.162 151.405 105.019 151.196 104.953L147.497 103.76V105.707C147.462 109.055 147.407 112.398 147.389 115.749C147.389 117.65 148.088 119.216 149.973 119.863C152.426 120.702 154.925 121.398 157.407 122.157ZM227.598 113.386C226.2 115.298 223.91 115.117 222.089 115.899C220.268 116.682 218.321 117.249 216.227 117.979C216.671 118.168 216.926 118.199 217.045 118.346C217.415 118.797 217.641 119.444 218.443 119.16C219.048 119.018 219.634 118.806 220.19 118.527C222.454 117.039 224.914 115.872 227.499 115.06C228.294 114.805 228.691 114.464 228.575 113.557L227.598 113.386ZM239.854 128.011V125.966L232.272 125.436C232.541 125.971 232.859 126.306 232.842 126.624C232.786 127.673 233.394 127.578 234.114 127.61C235.977 127.687 237.837 127.862 239.854 128.008V128.011ZM152.325 349.617C152.906 349.539 153.482 349.422 154.048 349.267C154.182 349.21 154.301 349.121 154.393 349.008C154.485 348.895 154.549 348.761 154.578 348.617C154.541 348.481 154.471 348.356 154.375 348.253C154.279 348.15 154.158 348.072 154.025 348.026C153.424 347.879 152.777 347.922 152.179 347.761C151.009 347.447 149.865 347.017 148.684 346.713C148.332 346.681 147.977 346.711 147.635 346.8C147.733 347.15 147.733 347.569 147.95 347.779C149.16 348.866 150.703 349.51 152.326 349.606L152.325 349.617ZM239.415 132.14L239.478 131.871C239.346 131.816 239.226 131.753 239.097 131.71C237.059 131.048 234.966 130.525 233.008 129.686C231.61 129.09 230.792 129.613 229.813 130.532C233.067 131.168 236.199 131.916 239.414 132.134L239.415 132.14ZM184.685 354.672V354.804C185.87 354.647 187.058 354.525 188.233 354.311C188.498 354.262 188.712 353.909 188.932 353.696C188.68 353.524 188.418 353.192 188.177 353.206C186.489 353.294 184.804 353.434 183.119 353.609C182.885 353.633 182.679 353.958 182.457 354.129C182.681 354.311 182.89 354.608 183.138 354.65C183.652 354.699 184.169 354.706 184.683 354.671L184.685 354.672ZM238.772 118.095C238.541 117.397 236.325 117.047 233.588 117.183L233.848 118.095H238.772ZM236.077 124.124C239.323 124.373 239.323 124.373 239.635 123.576L236.077 124.124ZM232.581 119.646C231.973 118.926 231.61 118.972 230.575 119.769L232.581 119.646Z" fill="black"/>
<path d="M186.632 57.318C187.855 54.8886 189.078 52.4248 190.368 49.8981C189.351 49.5483 188.334 49.1468 187.289 48.8494C186.747 48.6923 186.387 48.3637 186.502 47.8954C186.562 47.6648 187.201 47.3813 187.534 47.4442C189.033 47.745 190.515 48.1431 191.997 48.528C194.794 49.227 197.551 50.2446 200.508 50.1359C200.951 50.1263 201.387 50.0206 201.785 49.8262C202.184 49.6317 202.535 49.3532 202.815 49.0097C204.908 46.4994 206.533 43.6331 207.611 40.5477C208.672 38.0649 209.183 35.3821 209.111 32.6832C209.074 32.5292 209.074 32.3688 209.111 32.2148C209.242 31.983 209.392 31.7631 209.562 31.5576C209.775 31.7391 210.153 31.9074 210.173 32.1101C210.359 33.522 210.466 34.943 210.495 36.3667C210.412 37.1748 210.268 37.9752 210.061 38.7609C210.028 38.9953 210.084 39.2336 210.218 39.4287C210.533 39.7381 210.722 40.1532 210.748 40.5937C210.775 41.0342 210.637 41.4689 210.361 41.8137C211.156 43.0963 211.131 43.7713 210.285 44.6412C209.631 45.309 208.925 45.3401 207.838 44.7598C206.989 46.1576 206.182 47.5774 205.279 48.9335C203.78 51.1813 202.598 52.0061 199.519 51.7789C197.186 51.5629 194.883 51.0942 192.65 50.381C192.193 50.2446 191.826 50.2379 191.602 50.811C190.63 53.1496 189.614 55.467 188.616 57.7804C191.115 58.5423 193.475 59.2313 195.817 59.9826C198.34 60.693 200.71 61.8638 202.808 63.4361C203.18 63.8469 203.494 64.3068 203.741 64.8029C203.379 65.0089 202.968 65.1155 202.551 65.1117C202.135 65.108 201.726 64.9941 201.367 64.7817C198.571 63.5825 195.806 62.3874 193.007 61.2307C191.727 60.6588 190.407 60.1821 189.057 59.8043C186.666 59.2134 184.241 58.7834 181.829 58.2806C181.424 58.2325 181.028 58.1302 180.651 57.9765C180.378 57.8367 180.199 57.5128 179.979 57.2776C180.266 57.106 180.563 56.7741 180.832 56.792C182.784 56.9225 184.738 57.1358 186.632 57.318ZM209.988 43.6541L209.729 43.1996C209.537 43.0492 209.355 42.7942 209.152 42.7803C209.005 42.7803 208.67 43.1546 208.701 43.2175C208.819 43.4806 209.02 43.6972 209.274 43.833C209.46 43.9025 209.747 43.7203 209.988 43.6541Z" fill="black"/>
<path d="M203.581 8.78472C203.822 10.0885 204.053 11.2836 204.255 12.4794C204.336 12.7876 204.336 13.1114 204.255 13.4195C204.157 13.6713 203.853 13.8462 203.64 14.0555C203.455 13.8568 203.183 13.7057 203.103 13.4686C202.954 13.0226 202.86 12.56 202.823 12.0912C202.588 9.64464 201.477 7.54718 200.173 5.59018C199.558 4.66269 198.775 3.66895 197.436 3.42648C196.929 3.3324 196.531 2.76398 196.038 2.50362C193.941 1.41316 191.645 1.26609 189.341 1.36413C186.669 1.36025 184.014 1.78523 181.477 2.62287C181.029 2.79267 180.557 2.89277 180.079 2.91967C179.774 2.87807 179.478 2.78346 179.205 2.6401C179.408 2.39564 179.555 2.03922 179.821 1.94117C180.627 1.60071 181.453 1.30999 182.295 1.07065C185.541 0.112001 188.942 -0.207266 192.309 0.130573C194.211 0.396554 196.053 0.987726 197.755 1.87823C200.065 3.04385 202.122 4.6561 203.805 6.62168C205.671 8.60873 207.159 10.9181 208.199 13.4374C209.172 15.8906 209.725 18.4901 209.835 21.127C209.862 21.3473 209.844 21.5709 209.782 21.7842C209.713 21.9591 209.527 22.1817 209.37 22.2002C209.271 22.1922 209.175 22.1591 209.092 22.1041C209.009 22.049 208.941 21.9738 208.895 21.8855C208.791 21.4308 208.71 20.9711 208.654 20.5082C208.262 17.884 207.496 15.3296 206.378 12.9233C205.542 11.481 204.607 10.0982 203.581 8.78472Z" fill="black"/>
<path d="M169.603 52.7817C169.961 52.4037 170.348 52.0531 170.759 51.733C172.556 50.5233 174.181 49.1493 175.076 47.1194C175.705 45.697 176.373 44.2813 176.125 42.6317C175.89 41.1179 175.317 39.8671 173.892 39.1363C173.807 39.0966 173.729 39.046 173.658 38.986C173.622 38.934 173.596 38.8758 173.581 38.8144C174.172 37.9757 174.752 38.028 176.185 39.1887C175.968 38.8144 175.884 38.6468 175.783 38.4898C174.574 36.6719 174.789 34.7354 175.319 32.785C175.466 32.2431 175.697 31.7363 175.889 31.195C176.294 30.0801 176.71 29.7972 177.881 29.7972C178.087 27.7315 179.527 26.3754 180.751 24.904C181.13 24.4475 181.591 24.0656 182.11 23.7778C182.387 23.6274 182.831 23.7778 183.198 23.8056C183.1 24.1554 183.103 24.6006 182.88 24.8225C181.365 26.3094 180.204 28.1181 179.482 30.1145C179.993 30.5125 180.469 30.9533 180.905 31.4322C181.153 31.7502 181.401 32.3597 181.254 32.6346C181.027 33.0573 180.493 33.0613 180.049 32.6625C179.691 32.3508 179.301 32.0789 178.885 31.8516C178.717 31.736 178.523 31.6629 178.321 31.6386C178.119 31.6142 177.913 31.6394 177.723 31.712C177.532 31.7845 177.362 31.9022 177.228 32.055C177.093 32.2077 176.997 32.391 176.948 32.5889C176.518 34.1372 176.249 35.7026 177.179 37.1992C177.401 37.6602 177.789 38.0209 178.265 38.21C178.74 38.399 179.27 38.4026 179.748 38.2201C180.339 38.0631 180.999 37.7517 181.254 38.6839C181.291 38.8529 181.29 39.0281 181.249 39.1964C181.209 39.3647 181.132 39.5218 181.023 39.6561C180.914 39.7904 180.776 39.8983 180.619 39.972C180.462 40.0457 180.291 40.0832 180.118 40.0817C179.025 40.1831 177.916 40.1062 176.889 40.1062C178.71 43.75 176.91 48.3132 174.442 50.6829C173.43 51.5905 172.322 52.3861 171.139 53.056C170.789 53.2693 170.195 53.0911 169.713 53.0911L169.603 52.7817Z" fill="black"/>
<path d="M167.159 127.093C167.589 126.317 167.921 125.646 168.316 125.013C169.749 122.71 171.28 120.469 172.633 118.117C173.846 116.019 174.841 113.786 175.988 111.64C177.638 108.546 179.295 105.453 181.028 102.401C182.116 100.489 183.325 98.6467 184.524 96.8083C184.709 96.5254 185.223 96.4585 185.573 96.2783C185.62 96.6476 185.596 97.0224 185.502 97.3827C183.021 102.175 180.487 106.939 178.012 111.738C176.422 114.839 174.998 118.054 173.324 121.13C172.08 123.392 170.566 125.507 169.106 127.642C168.95 127.779 168.765 127.879 168.565 127.933C168.365 127.988 168.156 127.996 167.952 127.957C167.659 127.89 167.456 127.421 167.159 127.093Z" fill="black"/>
<path d="M165.338 127.827C165.709 127.806 166.081 127.859 166.432 127.98C168.18 129.107 170.196 129.18 172.151 129.378C172.724 129.438 173.378 128.976 173.958 128.679C178.979 126.055 184.16 123.75 189.47 121.776C191.354 121.094 193.242 120.409 195.091 119.637C195.204 119.574 195.329 119.537 195.457 119.528C195.586 119.518 195.715 119.537 195.836 119.583C195.956 119.629 196.065 119.701 196.155 119.794C196.245 119.886 196.314 119.997 196.356 120.119C196.468 120.469 196.122 121.01 195.86 121.388C195.63 121.606 195.347 121.758 195.038 121.829C192.428 122.818 189.795 123.733 187.202 124.789C183.525 126.292 179.883 127.886 176.237 129.459C175.297 129.865 174.391 130.357 173.441 130.78C173.185 130.908 172.9 130.964 172.616 130.941C170.323 130.623 167.946 130.567 165.974 129.081C165.672 128.808 165.396 128.508 165.149 128.183L165.338 127.827Z" fill="black"/>
<path d="M165.956 22.305C166.012 18.9925 166.337 15.8702 167.736 12.9724C168.491 11.2865 169.356 9.65199 170.325 8.07924C171.557 6.2871 173.153 4.77468 175.009 3.64054C175.25 3.49015 175.638 3.57031 175.956 3.54646C175.904 3.89626 175.956 4.33285 175.775 4.53557C175.202 5.13181 174.492 5.58429 173.898 6.17855C173.312 6.74518 172.77 7.35507 172.276 8.00306C170.914 9.89044 169.816 11.9557 169.015 14.1411C168.377 15.5589 167.976 17.0715 167.826 18.6188C167.7 20.929 167.585 23.247 167.624 25.5571C167.624 26.4727 168.099 27.375 168.322 28.2939C168.525 29.1465 168.654 30.0204 168.857 30.8736C168.958 31.2374 169.099 31.589 169.276 31.9224C169.724 32.8379 170.221 33.733 170.633 34.6624C170.691 34.9533 170.68 35.2538 170.601 35.5396C170.297 35.4382 169.842 35.4276 169.71 35.2183C168.553 33.3938 167.347 31.5898 166.938 29.4089C166.662 27.9408 166.362 26.4727 166.143 24.9907C166.009 24.0599 166.009 23.1059 165.956 22.305Z" fill="black"/>
<path d="M169.057 37.3886C167.305 37.4681 165.612 38.0431 164.174 39.0467C162.736 40.0503 161.612 41.4414 160.933 43.0582C159.843 45.3723 158.717 47.6407 156.952 49.4844C155.117 51.3997 152.898 52.6644 150.119 52.5531C149.749 52.5543 149.386 52.4527 149.07 52.2596C148.782 52.0319 148.593 51.703 148.54 51.34C148.599 51.199 148.692 51.0747 148.81 50.9778C148.928 50.8809 149.069 50.8144 149.218 50.7842C152.531 50.9869 154.874 49.3512 156.713 46.8344C157.5 45.7846 158.171 44.6516 158.712 43.4557C160.302 39.8518 162.791 37.3005 166.699 36.381C167.647 36.2306 168.611 36.2201 169.562 36.3498C169.848 36.371 170.351 36.7308 170.348 36.9269C170.348 37.4409 169.88 37.4754 169.442 37.3906C169.313 37.3768 169.183 37.3756 169.054 37.3873L169.057 37.3886Z" fill="black"/>
<path d="M180.763 45.6295C179.749 44.9968 180.299 43.966 180.193 43.0882C180.134 42.5847 180.099 41.8785 180.385 41.5784C180.848 41.0528 181.49 40.7188 182.185 40.6416C182.692 40.6416 183.346 41.2637 183.657 41.7778C184 42.2534 184.163 42.8356 184.116 43.4203C184.069 44.005 183.816 44.5539 183.402 44.969C184.719 46.4682 184.727 47.9575 183.129 49.4077C183.671 49.5415 184.154 49.8515 184.502 50.2892C184.85 50.7269 185.042 51.2676 185.05 51.8265C185.11 52.269 185.01 52.7185 184.77 53.0946C184.529 53.4708 184.163 53.7492 183.736 53.8802C183.072 54.1148 182.347 54.1049 181.69 53.8524C181.301 53.6277 180.999 53.2778 180.833 52.8596C180.667 52.4414 180.648 51.9795 180.778 51.5489C181.044 50.9029 181.397 50.2961 181.827 49.7456C181.932 49.5468 181.991 49.1202 181.9 49.0639C180.127 47.9469 179.987 47.562 180.763 45.6295ZM182.601 50.797L182.227 51.007C182.248 51.5628 181.787 52.2723 182.678 52.5519C182.877 52.6148 183.203 52.2584 183.473 52.0941L182.601 50.797ZM182.972 47.5461C182.881 47.032 183.22 46.2874 182.234 46.4974C182.01 46.5497 181.629 46.7982 181.647 46.8995C181.773 47.5984 182.203 47.8436 182.972 47.5494L182.972 47.5461ZM182.273 42.2157C181.423 42.5655 181.339 43.0233 181.672 43.4983C181.749 43.6069 182.091 43.5334 182.311 43.544C182.315 43.1034 182.301 42.6629 182.287 42.219L182.273 42.2157Z" fill="black"/>
<path d="M189.404 13.6153C189.54 14.2619 189.404 14.7621 188.705 14.821C186.349 15.0977 184.108 15.995 182.212 17.4213C180.281 18.6286 178.447 19.9856 176.728 21.4797C175.264 22.8571 174.198 24.6538 172.926 26.2404C172.822 26.3699 172.694 26.4775 172.549 26.5571C172.404 26.6367 172.244 26.6867 172.08 26.7042C171.915 26.7042 171.628 26.2186 171.622 25.9489C171.594 24.5822 172.356 23.5023 173.174 22.5411C176.07 19.2346 179.614 16.5579 183.586 14.6766C185.357 13.6944 187.401 13.3215 189.404 13.6153Z" fill="black"/>
<path d="M172.867 41.5226C172.832 41.1435 172.832 40.7621 172.867 40.3831C172.912 40.1525 173.136 39.9564 173.283 39.7471C173.503 39.9392 173.879 40.0969 173.915 40.3241C174.106 41.2784 174.203 42.2488 174.206 43.2218C174.121 45.5609 173.222 47.7969 171.665 49.5446C170.108 51.2922 167.99 52.4419 165.677 52.7955C164.865 52.9256 164.037 52.9114 163.23 52.7538C162.849 52.6836 162.562 52.135 162.236 51.8031C162.621 51.5898 163.009 51.1877 163.386 51.195C165.636 51.2398 167.826 50.4729 169.556 49.0346C172.027 47.0981 172.81 44.4799 172.867 41.5226Z" fill="black"/>
<path d="M188.565 10.4977L188.026 11.1966C187.933 11.209 187.837 11.209 187.744 11.1966C183.934 9.89187 179.784 9.99102 176.041 11.4762C174.478 12.1978 172.96 13.0148 171.497 13.9228C171.445 13.9539 171.407 14.0314 171.354 14.0414C170.952 14.1288 170.55 14.2057 170.148 14.2858C170.296 13.8804 170.323 13.3351 170.612 13.0933C172.428 11.5355 174.557 10.3854 176.855 9.72059C179.211 9.03282 181.679 8.81891 184.118 9.09122C185.639 9.25353 187.243 9.37542 188.565 10.4977Z" fill="black"/>
<path d="M185.691 3.52484C186.831 2.64041 188.138 2.82591 189.411 3.00412C192.64 3.4619 194.933 5.36723 196.751 7.95691C197.363 8.83405 197.957 9.70457 198.558 10.6069C198.628 10.7116 198.733 10.8235 198.741 10.9381C198.772 11.4522 198.954 12.3082 198.741 12.4168C197.975 12.8296 197.807 12.0193 197.496 11.5397C197.038 10.7915 196.543 10.0671 196.011 9.36935C194.581 7.62169 193.274 5.70245 190.988 4.95119C189.59 4.49672 188.21 3.90246 186.688 4.25226C186.045 4.42318 185.828 4.09127 185.691 3.52484Z" fill="black"/>
<path d="M196.868 43.2423C195.956 43.0813 194.998 42.9554 194.072 42.7322C193.718 42.6252 193.406 42.41 193.18 42.1167C193.035 41.8355 192.943 41.5298 192.908 41.2151C193.215 41.1155 193.538 41.0763 193.859 41.0998C196.334 41.7733 198.961 41.6185 201.339 40.6592C201.71 40.4852 202.096 40.3459 202.493 40.2432C202.859 40.2353 203.226 40.2741 203.583 40.3585C203.447 40.7288 203.411 41.3091 203.16 41.4277C201.987 42.002 200.772 42.487 199.525 42.8786C198.651 43.0714 197.762 43.1931 196.868 43.2423Z" fill="black"/>
<path d="M166.373 55.196L170.529 54.7488C170.56 54.7438 170.592 54.7438 170.623 54.7488C171.099 54.9131 171.948 54.399 172.021 55.2523C172.094 56.1056 171.182 56.0738 170.578 56.1891C167.834 56.7191 165.086 57.2316 162.335 57.7267C161.991 57.7248 161.65 57.6657 161.325 57.5518C161.482 57.1848 161.552 56.5978 161.815 56.5031C163.003 56.0274 164.261 55.6783 165.471 55.304C165.774 55.2316 166.081 55.1802 166.391 55.1503L166.373 55.196Z" fill="black"/>
<path d="M193.786 23.2615C193.395 23.4961 193.153 23.7511 192.895 23.7684C191.198 23.9436 189.614 24.705 188.417 25.9215C188.017 26.3581 187.591 26.7701 187.141 27.155C186.787 27.3236 186.406 27.4301 186.015 27.4697C186.009 27.1135 186.063 26.7589 186.176 26.421C187.082 24.9747 188.369 23.8058 189.895 23.0423C190.368 22.7574 190.899 22.583 191.449 22.5322C191.998 22.4813 192.552 22.5554 193.069 22.7488C193.324 22.8954 193.564 23.0662 193.786 23.2589V23.2615Z" fill="black"/>
<path d="M200.026 20.8137C200.277 20.4887 200.573 20.2004 200.903 19.9571C201.887 19.4963 202.988 19.3436 204.06 19.5189C205.132 19.6942 206.126 20.1894 206.912 20.9395C207.056 21.0599 207.163 21.2187 207.22 21.3973C207.244 21.7394 207.244 22.0828 207.22 22.4249C206.907 22.3765 206.604 22.2762 206.325 22.1281C205.066 21.1456 203.714 20.5169 202.071 20.8276C201.47 20.9429 200.872 21.0926 200.271 21.2191L200.026 20.8137Z" fill="black"/>
<path d="M199.076 45.4934C198.688 45.1437 198.191 44.9164 198.093 44.5739C197.919 43.9518 198.411 43.7524 198.984 43.6464C199.683 43.5139 200.382 43.241 201.082 43.1045C201.385 43.1039 201.685 43.1571 201.97 43.2615C201.896 43.5928 201.928 44.1002 201.728 44.2155C200.938 44.6892 200.057 45.035 199.076 45.4934Z" fill="black"/>
<path d="M175.729 54.7842C176.347 54.8541 176.956 54.9873 177.547 55.1817C177.823 55.3003 177.939 55.8004 178.124 56.1257C177.842 56.2756 177.535 56.3715 177.218 56.4086C176.319 56.3462 175.423 56.2294 174.537 56.0588C174.268 56.0032 174.048 55.709 173.809 55.5063C174.041 55.2608 174.313 55.0563 174.613 54.9014C174.978 54.8405 175.35 54.8323 175.717 54.8769L175.729 54.7842Z" fill="black"/>
<path d="M210.047 28.9387C210.135 29.3547 210.177 29.779 210.173 30.2041C210.08 30.5135 209.932 30.8036 209.736 31.0607C209.519 30.8825 209.131 30.7109 209.114 30.5221C209.002 29.3753 208.957 28.2259 208.957 27.0771C208.957 26.9234 209.307 26.7028 209.544 26.6505C209.645 26.6293 209.918 26.9334 209.949 27.1188C210.058 27.7151 210.089 28.3286 210.148 28.9328L210.047 28.9387Z" fill="black"/>
<path d="M190.189 30.5997C190.424 30.4075 190.798 29.8623 191.238 29.7888C191.972 29.6662 192.35 30.2989 192.444 30.974C192.521 31.5437 191.828 32.3235 191.318 32.2532C190.609 32.1486 190.217 31.6941 190.189 30.5997Z" fill="black"/>
<path d="M205.007 28.1001C204.691 28.4135 204.325 28.6711 203.923 28.862C203.465 29.0091 202.553 28.1207 202.735 27.698C202.927 27.2041 203.303 26.8036 203.783 26.5797C204.433 26.377 205.003 27.0309 205.007 28.1001Z" fill="black"/>
<path d="M202.022 38.1605C201.673 37.8458 201.379 37.706 201.293 37.486C201.243 37.3606 201.222 37.225 201.234 37.0902C201.245 36.9555 201.288 36.8253 201.359 36.7103C201.873 36.269 202.437 35.8909 203.041 35.584C203.181 35.5138 203.541 35.8808 203.796 36.0478L202.022 38.1605Z" fill="black"/>
<path d="M189.11 35.206C188.733 35.4823 188.485 35.793 188.315 35.7546C188.184 35.7095 188.066 35.6326 187.973 35.5307C187.879 35.4288 187.812 35.3052 187.777 35.1709C187.777 34.9993 188.127 34.6714 188.326 34.6469C188.525 34.6224 188.743 34.9265 189.11 35.206Z" fill="black"/>
<path d="M185.646 233.33C185.785 234.997 185.95 236.661 186.058 238.328C186.313 242.25 186.593 246.176 186.757 250.101C186.908 253.739 186.995 257.382 186.977 261.02C186.977 263.509 186.687 265.994 186.61 268.483C186.558 270.132 186.635 271.789 186.705 273.439C186.714 273.591 186.759 273.738 186.834 273.87C186.91 274.001 187.015 274.114 187.142 274.198C189.826 275.023 192.129 276.844 194.981 277.211C195.523 277.277 195.53 277.518 195.485 277.962C195.167 280.965 194.901 283.974 194.58 286.972C194.345 289.199 194.041 291.415 193.785 293.637C193.6 295.259 193.435 296.888 193.264 298.51C193.026 300.52 192.757 302.53 192.516 304.543C192.432 305.224 192.371 305.909 192.331 306.597C192.153 309.694 191.939 312.787 191.838 315.888C191.737 318.988 191.796 322.029 191.695 325.097C191.564 326.064 191.684 327.049 192.045 327.956C192.111 328.096 192.023 328.306 191.992 328.613C188.938 327.596 185.914 326.865 182.85 328.012V322.59C182.85 321.979 182.755 321.363 182.804 320.755C182.907 320.398 183.033 320.047 183.182 319.707C183.356 319.14 183.443 318.551 183.44 317.959C183.049 313.911 182.633 309.864 182.168 305.823C181.818 302.678 181.322 299.53 180.962 296.35C180.83 295.186 180.924 293.997 180.868 292.823C180.813 291.648 180.67 290.428 180.627 289.232C180.589 288.229 180.659 287.226 180.627 286.223C180.599 285.097 180.495 283.965 180.47 282.835C180.386 279.788 180.292 276.74 180.271 273.698C180.271 272.108 180.576 270.5 180.443 268.928C180.213 266.132 180.849 263.461 181.093 260.739C181.397 257.386 181.942 254.055 182.429 250.724C182.946 247.177 183.505 243.632 184.064 240.091C184.368 238.166 184.704 236.249 185.043 234.328C185.122 233.985 185.224 233.647 185.347 233.317L185.646 233.33Z" fill="white"/>
<path d="M157.757 272.583C163.35 273.772 168.876 272.639 174.647 272.233C174.007 275.546 173.42 278.77 172.749 281.979C172.256 284.334 171.64 286.666 171.092 289.011C170.572 291.248 170.152 293.509 169.526 295.711C169.117 297.155 168.365 298.508 167.859 299.906C166.583 303.453 165.317 307.008 164.126 310.584C163.542 312.331 163.198 314.184 162.608 315.939C162.175 317.239 161.462 318.445 161.001 319.735C160.864 320.32 160.849 320.927 160.959 321.518C161.005 322.014 160.23 322.863 159.54 322.915C157.351 323.131 155.152 322.623 153.28 321.469C152.8 321.185 152.42 320.76 152.191 320.252C151.962 319.744 151.896 319.178 152.001 318.63C152.413 315.988 152.91 313.363 153.298 310.717C153.944 306.292 154.535 301.859 155.153 297.435C155.656 293.796 156.201 290.168 156.649 286.522C156.932 284.191 157.068 281.838 157.254 279.493C157.428 277.25 157.596 274.995 157.757 272.583Z" fill="white"/>
<path d="M209.949 94.2148C210.057 95.4034 210.155 96.3818 210.235 97.3604C210.427 99.6181 210.654 101.873 210.787 104.131C211.018 107.973 211.185 111.821 211.384 115.666C211.429 116.515 211.502 117.364 211.537 118.214C211.573 119.063 212.191 119.93 212.873 119.86C213.673 119.776 213.967 119.161 213.988 118.402C213.988 118.284 214.019 118.168 214.058 117.857C214.935 119.101 215.756 120.157 216.452 121.29C217.057 122.275 217.501 123.366 218.049 124.379C219.189 126.428 217.476 129.864 215.231 130.433C212.435 131.132 210.216 129.85 207.92 128.752C206.566 128.061 205.25 127.299 203.976 126.47C203.451 126.126 202.96 125.732 202.512 125.292C202.325 125.089 202.203 124.836 202.162 124.563C201.533 120.697 200.859 116.835 200.335 112.951C200.039 110.828 199.908 108.685 199.943 106.541C199.943 105.783 200.642 104.989 201.156 104.304C202.278 102.805 203.452 101.343 204.651 99.907C205.252 99.2081 205.976 98.582 206.619 97.8937C207.702 96.7323 208.746 95.5571 209.949 94.2148Z" fill="white"/>
<path d="M219.114 120.955C222.015 119.483 224.861 118.015 227.734 116.6C228.397 116.31 229.091 116.098 229.803 115.967C229.92 115.966 230.036 115.99 230.143 116.037C230.249 116.085 230.345 116.155 230.422 116.243C230.733 116.617 231.024 117.008 231.292 117.414C230.013 117.911 228.534 118.498 227.049 119.064C226.206 119.382 225.34 119.641 224.515 119.997C224.396 120.066 224.297 120.163 224.225 120.279C224.154 120.396 224.113 120.529 224.106 120.665C224.151 120.801 224.23 120.924 224.333 121.023C224.437 121.122 224.564 121.193 224.702 121.232C226.067 121.376 227.438 121.436 228.81 121.41C231.662 121.277 234.511 121.04 237.363 120.837C237.648 120.863 237.934 120.824 238.202 120.725C239.663 119.82 240.348 120.892 241.229 121.882C239.985 122.032 238.849 122.154 237.734 122.308C236.112 122.528 234.483 122.735 232.872 123.007C232.242 123.116 231.722 123.238 231.505 122.441C231.48 122.35 231.323 122.29 231.047 122.091C230.555 122.739 230.121 123.429 229.751 124.153C229.602 124.507 229.583 124.902 229.696 125.269C229.809 125.635 230.047 125.951 230.369 126.159C231.358 126.946 231.32 127.208 230.397 128.075C230.013 128.424 229.668 128.833 229.307 129.217C228.945 129.602 228.608 130.063 229.251 130.542C229.345 130.656 229.39 130.801 229.377 130.948C229.377 131.875 227.629 133.192 226.727 132.926L219.554 130.79C221.446 127.362 220.792 124.162 219.114 120.955Z" fill="white"/>
<path d="M157.407 122.157C154.925 121.399 152.426 120.703 149.972 119.864C148.071 119.218 147.382 117.652 147.389 115.75C147.406 112.401 147.462 109.059 147.497 105.708V103.758L151.195 104.95C151.405 105.017 151.639 105.16 151.831 105.118C153.1 104.849 153.107 105.898 153.341 106.603C154.096 108.877 154.811 111.166 155.488 113.468C155.977 115.124 156.397 116.802 156.819 118.48C157.099 119.592 157.333 120.718 157.588 121.839L157.407 122.157Z" fill="white"/>
<path d="M227.597 113.388L228.562 113.559C228.681 114.468 228.279 114.807 227.485 115.062C224.901 115.875 222.441 117.042 220.177 118.53C219.622 118.81 219.035 119.023 218.429 119.163C217.634 119.446 217.408 118.813 217.031 118.348C216.913 118.201 216.657 118.17 216.214 117.981C218.311 117.253 220.244 116.695 222.076 115.902C223.907 115.109 226.192 115.3 227.597 113.388Z" fill="white"/>
<path d="M239.852 128.011C237.835 127.864 235.976 127.69 234.113 127.614C233.393 127.583 232.788 127.663 232.84 126.628C232.84 126.31 232.539 125.974 232.271 125.439L239.852 125.969V128.011Z" fill="white"/>
<path d="M152.322 349.61C150.699 349.52 149.158 348.867 147.963 347.764C147.746 347.555 147.746 347.118 147.648 346.786C147.99 346.697 148.345 346.667 148.697 346.699C149.868 347.017 151.011 347.446 152.192 347.747C152.789 347.904 153.437 347.863 154.038 348.012C154.272 348.068 154.597 348.404 154.591 348.603C154.562 348.746 154.499 348.88 154.406 348.993C154.314 349.106 154.195 349.195 154.061 349.252C153.49 349.411 152.909 349.53 152.322 349.61Z" fill="white"/>
<path d="M239.413 132.133C236.182 131.802 232.975 131.265 229.812 130.525C230.79 129.605 231.615 129.085 233.006 129.679C234.963 130.518 237.057 131.042 239.095 131.703C239.227 131.745 239.347 131.808 239.476 131.864L239.413 132.133Z" fill="white"/>
<path d="M184.685 354.676C184.18 354.709 183.674 354.702 183.171 354.655C182.923 354.613 182.713 354.305 182.489 354.134C182.709 353.952 182.916 353.638 183.152 353.613C184.836 353.438 186.521 353.298 188.209 353.211C188.45 353.211 188.713 353.529 188.964 353.701C188.727 353.914 188.513 354.267 188.266 354.316C187.091 354.529 185.902 354.666 184.718 354.809L184.685 354.676Z" fill="white"/>
<path d="M238.772 118.095H233.847L233.588 117.183C236.336 117.053 238.541 117.406 238.772 118.095Z" fill="white"/>
<path d="M236.077 124.125L239.635 123.576C239.321 124.371 239.321 124.371 236.077 124.125Z" fill="white"/>
<path d="M232.596 119.647L230.59 119.769C231.624 118.972 231.987 118.927 232.596 119.647Z" fill="white"/>
<path d="M209.988 43.651C209.747 43.7213 209.458 43.9028 209.289 43.8293C209.035 43.6935 208.833 43.4769 208.716 43.2138C208.685 43.1509 209.02 42.7666 209.167 42.7766C209.37 42.7766 209.551 43.0455 209.743 43.1959L209.988 43.651Z" fill="white"/>
<path d="M182.603 50.8027L183.474 52.0992C183.205 52.2635 182.877 52.6199 182.679 52.557C181.788 52.2774 182.249 51.5679 182.228 51.0121L182.603 50.8027Z" fill="white"/>
<path d="M182.972 47.5527C182.203 47.8462 181.773 47.6017 181.647 46.92C181.647 46.8187 181.997 46.5702 182.234 46.5179C183.22 46.2907 182.881 47.028 182.972 47.5527Z" fill="white"/>
<path d="M182.287 42.2217C182.287 42.6656 182.315 43.1061 182.325 43.5467C182.105 43.5467 181.763 43.6096 181.686 43.501C181.367 43.0293 181.438 42.5715 182.287 42.2217Z" fill="white"/>
<path d="M240.207 45.9567L240.964 27.1604L233.552 26.8618L233.728 22.4937L253.914 23.3067L253.738 27.6749L246.325 27.3763L245.568 46.1726L240.207 45.9567Z" fill="black"/>
<path d="M264.073 30.1096C269.43 31.0089 272.116 34.0121 271.222 39.336L269.539 49.3631L264.77 48.5625L265.138 46.3742C263.922 47.8156 261.95 48.3577 259.37 47.9245C255.254 47.2336 253.189 44.536 253.699 41.4984C254.219 38.3956 256.77 36.6073 262.126 37.5066L266.176 38.1866C266.544 35.9983 265.451 34.5051 262.708 34.0445C260.846 33.7319 258.815 34.029 257.371 34.8276L256.139 30.9604C258.297 29.9121 261.264 29.638 264.073 30.1096ZM261.219 44.7089C262.918 44.994 264.519 44.4569 265.376 42.9552L265.677 41.1588L262.183 40.5721C259.798 40.1718 258.899 40.9275 258.702 42.1033C258.488 43.3771 259.423 44.4073 261.219 44.7089Z" fill="black"/>
<path d="M300.681 40.1829L305.022 41.6148L293.306 56.5123L288.588 54.9559L288.248 43.1956L280.851 52.4033L276.134 50.8468L275.614 31.913L280.238 33.4383L280.455 46.2044L288.384 36.1258L292.535 37.4954L292.784 50.2719L300.681 40.1829Z" fill="black"/>
<path d="M314.476 46.7198C319.249 49.3124 320.812 53.026 318.235 57.7697L313.382 66.7042L309.133 64.3961L310.192 62.4463C308.574 63.4139 306.533 63.2853 304.234 62.0364C300.567 60.0445 299.491 56.8217 300.961 54.1152C302.463 51.3505 305.456 50.4889 310.229 53.0814L313.837 55.0417C314.896 53.0918 314.349 51.3245 311.904 49.9966C310.245 49.0955 308.228 48.7158 306.603 49.0014L306.696 44.944C309.077 44.6544 311.973 45.3603 314.476 46.7198ZM307.029 59.5972C308.542 60.4192 310.231 60.4321 311.529 59.2906L312.399 57.69L309.285 55.9985C307.16 54.8445 306.064 55.2667 305.495 56.3144C304.879 57.4494 305.428 58.7277 307.029 59.5972Z" fill="black"/>
<path d="M25.6238 89.7989C23.205 92.5672 19.9414 94.6415 17.3933 95.1418L15.549 91.1116C17.9071 90.5771 20.5729 89.0361 22.4034 86.9411C24.4953 84.5469 24.547 82.8769 23.4746 81.9399C20.2074 79.0853 13.5832 91.1972 7.0987 85.5316C4.1308 82.9384 3.75363 78.3869 8.09 73.4238C10.0076 71.229 12.4925 69.442 14.9315 68.7143L16.9096 72.6416C14.5704 73.4564 12.6615 74.7352 11.3105 76.2815C9.21853 78.6758 9.31013 80.383 10.4075 81.3418C13.6248 84.1528 20.274 72.0627 26.6836 77.663C29.6017 80.2125 29.982 84.8108 25.6238 89.7989Z" fill="black"/>
<path d="M29.0178 61.0794C33.3232 57.7681 37.3516 57.8452 40.6427 62.1243L46.8413 70.1838L43.0085 73.1317L41.6557 71.3727C41.8837 73.2447 40.9385 75.0579 38.8646 76.653C35.5568 79.197 32.1745 78.8737 30.2967 76.4322C28.3786 73.9382 28.8049 70.8527 33.1103 67.5415L36.3656 65.0378C35.0129 63.2789 33.1753 63.0627 30.9701 64.7587C29.4737 65.9096 28.3085 67.5996 27.9105 69.2009L24.2396 67.4701C24.9405 65.1762 26.76 62.8158 29.0178 61.0794ZM37.7684 73.109C39.1335 72.0591 39.8303 70.5205 39.3135 68.8707L38.203 67.4268L35.394 69.5872C33.4776 71.0611 33.4189 72.2343 34.1458 73.1794C34.9332 74.2033 36.3245 74.2195 37.7684 73.109Z" fill="black"/>
<path d="M58.5256 63.5559C53.4395 66.335 47.9804 64.9779 45.4077 60.2697C42.835 55.5615 44.6416 50.2341 49.7276 47.455C53.0117 45.6604 56.3765 45.6711 58.9074 47.6093L56.4231 51.42C54.7703 50.3983 53.1554 50.4128 51.7313 51.1909C49.4353 52.4455 48.5068 55.0286 49.9996 57.7605C51.4924 60.4924 54.1678 61.1063 56.4638 59.8517C57.8878 59.0735 58.7882 57.7513 58.8052 55.7795L63.37 55.776C63.6023 58.8948 61.8097 61.7613 58.5256 63.5559Z" fill="black"/>
<path d="M72.1091 37.3411C76.0581 35.893 79.8869 37.0993 81.7568 42.1988L85.2687 51.7758L80.418 53.5545L77.1798 44.7238C76.1878 42.0186 74.4879 41.2309 72.3424 42.0177C70.0104 42.8728 68.8558 44.9189 69.9846 47.9972L73.0176 56.2683L68.1669 58.047L59.7065 34.9751L64.5572 33.1964L67.5217 41.2809C68.3488 39.496 69.9636 38.1278 72.1091 37.3411Z" fill="black"/>
<path d="M88.6568 29.9797C86.7883 30.425 85.24 29.5002 84.8638 27.9216C84.4876 26.343 85.4523 24.8193 87.3208 24.374C89.1894 23.9287 90.7222 24.789 91.0908 26.3354C91.4901 28.0107 90.5254 29.5343 88.6568 29.9797ZM90.8506 50.3273L86.7198 32.9948L91.7456 31.797L95.8764 49.1295L90.8506 50.3273Z" fill="black"/>
<path d="M114.401 46.1371L108 39.8475L105.816 42.5693L106.341 47.0761L101.21 47.6741L98.3656 23.265L103.497 22.6671L105.107 36.4835L111.78 28.504L117.898 27.7911L111.404 36.15L120.618 45.4127L114.401 46.1371Z" fill="black"/>
<path d="M131.198 46.0379C125.543 45.7254 121.62 41.6941 121.916 36.337C122.212 30.9799 126.556 27.4055 132.21 27.718C137.865 28.0305 141.755 32.0599 141.459 37.417C141.163 42.7741 136.853 46.3503 131.198 46.0379ZM131.432 41.8051C134.011 41.9476 136.065 40.2036 136.235 37.1283C136.404 34.0529 134.556 32.0933 131.976 31.9507C129.397 31.8082 127.311 33.5504 127.141 36.6257C126.971 39.7011 128.853 41.6626 131.432 41.8051Z" fill="black"/>
<path d="M334.492 72.5655C334.698 72.1855 334.722 71.7945 334.563 71.3924C334.404 70.9903 334.111 70.638 333.682 70.3353C333.368 70.114 333.057 69.9711 332.751 69.9066C332.446 69.8438 332.165 69.8548 331.908 69.9397C331.654 70.0262 331.447 70.1825 331.288 70.4086C331.154 70.5977 331.084 70.7921 331.078 70.9917C331.076 71.1906 331.115 71.3855 331.195 71.5763C331.276 71.7649 331.374 71.9433 331.491 72.1116C331.608 72.2777 331.721 72.4244 331.828 72.5517L332.411 73.2532C332.561 73.4318 332.72 73.6436 332.885 73.8884C333.054 74.1348 333.189 74.4051 333.293 74.6992C333.4 74.9926 333.442 75.3015 333.417 75.6259C333.392 75.9503 333.262 76.2786 333.028 76.6108C332.757 76.9938 332.413 77.2691 331.994 77.4366C331.578 77.6058 331.114 77.6465 330.602 77.5586C330.093 77.4723 329.566 77.2372 329.022 76.8532C328.514 76.4952 328.133 76.1033 327.877 75.6775C327.623 75.2533 327.494 74.8199 327.488 74.3772C327.485 73.9362 327.606 73.5121 327.852 73.105L328.738 73.7299C328.572 74.0137 328.506 74.2987 328.539 74.5846C328.576 74.87 328.685 75.1407 328.868 75.3969C329.053 75.6525 329.287 75.8795 329.569 76.078C329.896 76.3091 330.228 76.4635 330.563 76.5413C330.9 76.6167 331.213 76.6124 331.5 76.5283C331.789 76.4419 332.025 76.2696 332.207 76.0112C332.373 75.7759 332.442 75.538 332.415 75.2976C332.387 75.0572 332.299 74.8152 332.15 74.5716C332 74.328 331.825 74.0837 331.625 73.8388L330.929 72.9745C330.487 72.4248 330.209 71.8884 330.094 71.3653C329.98 70.8422 330.091 70.3418 330.428 69.8643C330.708 69.4675 331.059 69.1971 331.482 69.0532C331.909 68.9085 332.362 68.8829 332.842 68.9762C333.326 69.0688 333.794 69.2746 334.246 69.5935C334.703 69.9157 335.051 70.284 335.291 70.6984C335.532 71.1105 335.658 71.5305 335.667 71.9584C335.678 72.3879 335.563 72.7855 335.323 73.1513L334.492 72.5655Z" fill="black"/>
<path d="M339.27 76.3067L338.736 76.9641L336.12 74.8391L336.653 74.1816L339.27 76.3067ZM338.399 73.5913L339.174 74.2213L335.266 79.0338C335.088 79.2529 334.986 79.4431 334.961 79.6043C334.939 79.7651 334.964 79.905 335.034 80.0241C335.109 80.1428 335.203 80.2485 335.317 80.341C335.403 80.4104 335.476 80.463 335.538 80.4987C335.602 80.5323 335.653 80.5591 335.691 80.5792L335.283 81.4042C335.214 81.3812 335.125 81.3413 335.015 81.2845C334.903 81.2299 334.774 81.1439 334.63 81.0264C334.41 80.8484 334.234 80.6269 334.1 80.3618C333.968 80.0985 333.912 79.8144 333.93 79.5094C333.951 79.2062 334.081 78.9078 334.319 78.6141L338.399 73.5913Z" fill="black"/>
<path d="M337.616 83.7318C337.317 83.4475 337.1 83.1333 336.964 82.7892C336.829 82.443 336.793 82.0944 336.854 81.7435C336.918 81.3905 337.095 81.0607 337.387 80.7541C337.644 80.4842 337.906 80.3161 338.172 80.2497C338.44 80.1813 338.708 80.1837 338.978 80.257C339.247 80.3303 339.511 80.4457 339.771 80.6031C340.034 80.7604 340.289 80.9289 340.535 81.1087C340.856 81.3444 341.115 81.5378 341.31 81.6888C341.509 81.8397 341.672 81.9306 341.799 81.9615C341.927 81.9943 342.047 81.9524 342.158 81.8359L342.182 81.8113C342.47 81.5088 342.611 81.1948 342.605 80.8695C342.601 80.5461 342.432 80.2257 342.099 79.9084C341.754 79.5793 341.411 79.397 341.071 79.3613C340.73 79.3257 340.438 79.3558 340.195 79.4516L339.742 78.5521C340.137 78.3827 340.513 78.3156 340.869 78.3509C341.229 78.386 341.561 78.4877 341.865 78.6561C342.173 78.8243 342.445 79.0213 342.682 79.2472C342.833 79.3913 342.99 79.5752 343.151 79.7989C343.316 80.0225 343.438 80.2771 343.517 80.5627C343.598 80.8503 343.594 81.1639 343.504 81.5035C343.414 81.8432 343.191 82.2001 342.835 82.5742L339.88 85.6774L339.156 84.9882L339.763 84.3504L339.727 84.3153C339.58 84.3708 339.394 84.4023 339.169 84.4098C338.943 84.4173 338.697 84.3714 338.429 84.2721C338.161 84.1728 337.89 83.9927 337.616 83.7318ZM338.345 83.1868C338.631 83.4594 338.926 83.6329 339.23 83.7074C339.535 83.7838 339.822 83.7808 340.092 83.6984C340.364 83.6179 340.593 83.4795 340.78 83.2832L341.411 82.6209C341.345 82.6285 341.245 82.598 341.112 82.5293C340.982 82.4606 340.839 82.3732 340.683 82.2672C340.531 82.1611 340.383 82.0559 340.241 81.9515C340.103 81.847 339.99 81.7629 339.902 81.6992C339.691 81.5446 339.477 81.417 339.261 81.3164C339.049 81.2158 338.841 81.1719 338.638 81.1848C338.439 81.1977 338.251 81.2961 338.076 81.4801C337.837 81.7315 337.748 82.0103 337.812 82.3162C337.879 82.6221 338.057 82.9123 338.345 83.1868Z" fill="black"/>
<path d="M348.003 84.9756L347.367 85.5345L345.053 82.8999L345.69 82.341L348.003 84.9756ZM341.495 87.4221L347.057 82.5377C347.337 82.2918 347.628 82.1527 347.93 82.1203C348.232 82.0879 348.522 82.1357 348.8 82.2637C349.078 82.3917 349.319 82.5724 349.524 82.8058C349.686 82.9903 349.804 83.154 349.876 83.2967C349.949 83.4395 349.998 83.5507 350.023 83.6303L349.184 83.984C349.163 83.9346 349.132 83.8676 349.092 83.783C349.053 83.7004 348.986 83.6051 348.891 83.4969C348.673 83.2487 348.453 83.1244 348.231 83.124C348.011 83.1257 347.78 83.2328 347.538 83.4451L342.155 88.1731L341.495 87.4221Z" fill="black"/>
<path d="M351.003 88.8418L350.325 89.3499L348.222 86.5446L348.9 86.0365L351.003 88.8418ZM344.326 90.7787L350.248 86.3382C350.546 86.1146 350.847 85.9983 351.151 85.9894C351.455 85.9804 351.74 86.0504 352.007 86.1995C352.274 86.3486 352.501 86.5474 352.687 86.7958C352.834 86.9923 352.939 87.1646 353 87.3125C353.062 87.4605 353.102 87.5751 353.121 87.6564L352.257 87.9442C352.24 87.8934 352.214 87.8242 352.18 87.7367C352.148 87.6515 352.089 87.5512 352.003 87.436C351.804 87.1718 351.595 87.0309 351.373 87.0133C351.154 86.9981 350.915 87.087 350.658 87.28L344.925 91.5783L344.326 90.7787Z" fill="black"/>
</g>
</svg>
