<svg width="364" height="364" viewBox="0 0 364 364" fill="none" xmlns="http://www.w3.org/2000/svg">
<mask id="mask0_2341_709" style="mask-type:alpha" maskUnits="userSpaceOnUse" x="0" y="0" width="364" height="364">
<rect width="364" height="364" fill="#D9D9D9"/>
</mask>
<g mask="url(#mask0_2341_709)">
<path d="M353.152 86.4296C327.376 81.0936 293.439 88.1014 262.6 105.45C231.761 122.798 208.151 148.163 199.328 172.963C225.104 178.299 259.041 171.291 289.879 153.943C320.718 136.595 344.328 111.229 353.152 86.4296ZM361.9 81.5085C354.995 109.246 329.894 139.413 293.289 160.005C256.685 180.597 217.871 186.386 190.58 177.884C197.485 150.146 222.585 119.98 259.19 99.388C295.795 78.796 334.608 73.0075 361.9 81.5085Z" fill="black"/>
<path d="M99.3572 15.3776C94.0214 41.1536 101.029 75.0906 118.377 105.93C135.726 136.769 161.091 160.378 185.891 169.201C191.227 143.426 184.219 109.488 166.871 78.6494C149.522 47.8105 124.157 24.2006 99.3572 15.3776ZM94.4361 6.6297C122.174 13.5347 152.341 38.6359 172.932 75.2395C193.523 111.843 199.313 150.658 190.812 177.949C163.074 171.045 132.908 145.944 112.316 109.34C91.724 72.735 85.9352 33.9209 94.4363 6.63001L94.4361 6.6297Z" fill="black"/>
<path d="M183.547 180.146C157.771 174.81 123.834 181.818 92.9955 199.166C62.1568 216.515 38.5466 241.88 29.7233 266.68C55.4993 272.016 89.4363 265.008 120.275 247.66C151.114 230.312 174.724 204.946 183.547 180.146ZM192.295 175.225C185.39 202.963 160.289 233.13 123.685 253.721C87.0805 274.313 48.2667 280.102 20.9758 271.601C27.8805 243.863 52.9816 213.696 89.5855 193.105C126.189 172.513 165.004 166.724 192.295 175.225Z" fill="black"/>
<path d="M196.314 183.719C190.978 209.495 197.986 243.432 215.334 274.271C232.683 305.11 258.048 328.72 282.848 337.543C288.184 311.768 281.176 277.83 263.828 246.991C246.479 216.152 221.114 192.542 196.314 183.719ZM191.393 174.971C219.131 181.876 249.298 206.978 269.889 243.581C290.481 280.185 296.27 319 287.769 346.291C260.031 339.386 229.865 314.286 209.273 277.681C188.681 241.077 182.892 202.263 191.393 174.972L191.393 174.971Z" fill="black"/>
<path d="M309.721 166.839L305.286 158.388L308.847 156.518C309.749 156.045 310.634 155.806 311.504 155.801C312.383 155.792 313.178 156.006 313.89 156.444C314.61 156.877 315.189 157.512 315.629 158.349C316.068 159.186 316.261 160.024 316.209 160.862C316.164 161.697 315.889 162.473 315.382 163.19C314.884 163.903 314.184 164.497 313.283 164.97L309.721 166.839ZM310.377 165.155L312.659 163.957C313.359 163.59 313.893 163.14 314.261 162.608C314.637 162.072 314.841 161.493 314.873 160.87C314.901 160.24 314.751 159.61 314.421 158.982C314.088 158.347 313.655 157.865 313.124 157.538C312.593 157.211 312.001 157.05 311.346 157.055C310.7 157.055 310.026 157.239 309.326 157.607L307.044 158.804L310.377 165.155Z" fill="black"/>
<path d="M322.267 159.689C321.625 160.118 320.97 160.365 320.302 160.429C319.641 160.488 319.021 160.378 318.441 160.099C317.868 159.815 317.382 159.375 316.983 158.778C316.584 158.181 316.358 157.566 316.307 156.933C316.263 156.296 316.382 155.697 316.663 155.137C316.947 154.564 317.377 154.085 317.951 153.701C318.533 153.312 319.132 153.097 319.75 153.056C320.367 153.014 320.958 153.145 321.52 153.446C322.085 153.735 322.575 154.19 322.99 154.809C323.02 154.855 323.052 154.91 323.084 154.976C323.125 155.036 323.159 155.095 323.187 155.153L318.075 158.572L317.552 157.79L322.097 154.75L321.837 155.318C321.587 154.927 321.278 154.637 320.909 154.446C320.541 154.255 320.154 154.174 319.748 154.205C319.344 154.224 318.95 154.362 318.565 154.619C318.187 154.872 317.909 155.184 317.73 155.555C317.547 155.918 317.476 156.31 317.517 156.731C317.553 157.145 317.702 157.548 317.965 157.941L318.086 158.122C318.354 158.522 318.685 158.821 319.078 159.017C319.474 159.2 319.897 159.268 320.345 159.219C320.794 159.17 321.234 159.002 321.664 158.714C322.02 158.476 322.3 158.201 322.506 157.888C322.72 157.57 322.856 157.217 322.913 156.829L323.984 157.13C323.924 157.629 323.746 158.098 323.449 158.537C323.16 158.971 322.766 159.355 322.267 159.689Z" fill="black"/>
<path d="M328.675 155.058C328.203 155.427 327.701 155.715 327.171 155.922C326.647 156.124 326.191 156.226 325.802 156.231L325.593 155.078C325.966 155.053 326.376 154.957 326.823 154.792C327.271 154.626 327.681 154.398 328.053 154.107C328.533 153.732 328.824 153.395 328.925 153.097C329.034 152.793 328.993 152.519 328.802 152.276C328.662 152.097 328.489 152.007 328.281 152.008C328.074 152.008 327.843 152.067 327.589 152.185C327.343 152.298 327.076 152.437 326.79 152.602C326.499 152.761 326.202 152.912 325.899 153.057C325.591 153.194 325.288 153.292 324.989 153.353C324.684 153.406 324.392 153.387 324.112 153.294C323.826 153.194 323.555 152.98 323.297 152.65C323.029 152.307 322.89 151.93 322.882 151.521C322.874 151.112 322.992 150.703 323.236 150.292C323.483 149.869 323.849 149.467 324.336 149.087C324.708 148.795 325.121 148.548 325.573 148.344C326.027 148.128 326.44 148.007 326.812 147.981L327.01 149.142C326.618 149.172 326.257 149.264 325.927 149.417C325.598 149.571 325.293 149.757 325.014 149.976C324.563 150.328 324.285 150.667 324.181 150.991C324.071 151.308 324.105 151.58 324.284 151.81C324.435 152.003 324.617 152.103 324.83 152.11C325.045 152.104 325.278 152.048 325.531 151.943C325.79 151.832 326.066 151.698 326.357 151.539C326.643 151.373 326.94 151.222 327.248 151.085C327.551 150.941 327.848 150.841 328.14 150.786C328.438 150.725 328.728 150.741 329.008 150.834C329.295 150.921 329.565 151.126 329.817 151.448C330.085 151.792 330.217 152.167 330.213 152.575C330.208 152.982 330.079 153.4 329.826 153.829C329.567 154.25 329.184 154.66 328.675 155.058Z" fill="black"/>
<path d="M332.681 151.694L327.941 146.239L328.929 145.38L333.669 150.836L332.681 151.694ZM327.523 144.76C327.331 144.927 327.116 145.005 326.878 144.995C326.647 144.979 326.454 144.881 326.299 144.703C326.138 144.518 326.066 144.31 326.082 144.079C326.105 143.842 326.213 143.64 326.405 143.473C326.597 143.306 326.809 143.231 327.039 143.247C327.271 143.25 327.465 143.341 327.62 143.52C327.781 143.705 327.856 143.916 327.846 144.154C327.829 144.385 327.722 144.587 327.523 144.76Z" fill="black"/>
<path d="M340.479 148.239C340.007 148.705 339.481 149.091 338.901 149.397C338.334 149.702 337.79 149.869 337.269 149.899L337.005 148.74C337.449 148.71 337.903 148.581 338.367 148.352C338.838 148.13 339.263 147.83 339.645 147.453C340.252 146.852 340.558 146.269 340.561 145.703C340.564 145.138 340.278 144.564 339.703 143.983L338.629 142.897L337.719 141.783L336.654 140.803L335.264 139.397L336.146 138.525L340.537 142.965C341.432 143.87 341.864 144.759 341.834 145.633C341.803 146.507 341.352 147.376 340.479 148.239ZM338.234 146.202C337.737 146.694 337.189 147.031 336.59 147.214C335.991 147.385 335.39 147.397 334.787 147.253C334.19 147.101 333.648 146.78 333.162 146.289C332.67 145.791 332.355 145.247 332.217 144.654C332.079 144.049 332.102 143.452 332.285 142.861C332.475 142.265 332.818 141.72 333.316 141.228C333.755 140.793 334.246 140.488 334.787 140.311C335.321 140.127 335.877 140.114 336.455 140.272C337.039 140.423 337.609 140.78 338.165 141.342C338.715 141.898 339.062 142.468 339.206 143.054C339.357 143.634 339.345 144.196 339.168 144.741C338.985 145.28 338.674 145.767 338.234 146.202ZM337.536 145.282C337.878 144.943 338.112 144.571 338.236 144.167C338.36 143.763 338.372 143.361 338.272 142.962C338.178 142.557 337.967 142.189 337.641 141.86C337.315 141.53 336.95 141.316 336.546 141.217C336.148 141.112 335.749 141.123 335.35 141.249C334.945 141.369 334.57 141.598 334.228 141.937C333.885 142.276 333.649 142.65 333.518 143.061C333.387 143.459 333.369 143.861 333.463 144.266C333.564 144.665 333.777 145.029 334.103 145.359C334.429 145.689 334.791 145.906 335.189 146.011C335.593 146.11 335.998 146.099 336.404 145.979C336.816 145.853 337.193 145.621 337.536 145.282Z" fill="black"/>
<path d="M340.084 133.907C340.465 133.455 340.886 133.132 341.346 132.937C341.813 132.736 342.305 132.687 342.824 132.791C343.343 132.895 343.873 133.176 344.415 133.632L347.596 136.311L346.753 137.312L343.687 134.73C343.152 134.279 342.637 134.072 342.143 134.108C341.656 134.137 341.213 134.388 340.814 134.86C340.516 135.215 340.325 135.583 340.241 135.964C340.158 136.346 340.19 136.723 340.339 137.098C340.493 137.465 340.771 137.819 341.175 138.158L344.022 140.556L343.179 141.557L337.651 136.902L338.459 135.943L339.95 137.199L339.422 137.022C339.213 136.536 339.166 136.021 339.28 135.476C339.395 134.93 339.663 134.408 340.084 133.907Z" fill="black"/>
<path d="M351.214 131.458C350.774 132.093 350.254 132.562 349.656 132.866C349.063 133.163 348.445 133.287 347.803 133.24C347.166 133.185 346.553 132.953 345.963 132.544C345.373 132.134 344.938 131.644 344.659 131.074C344.385 130.497 344.276 129.896 344.333 129.272C344.388 128.635 344.612 128.032 345.006 127.465C345.405 126.89 345.885 126.47 346.444 126.206C347.004 125.941 347.601 125.847 348.235 125.922C348.867 125.984 349.489 126.228 350.101 126.652C350.146 126.684 350.196 126.724 350.25 126.773C350.31 126.814 350.363 126.857 350.41 126.9L346.904 131.952L346.131 131.416L349.249 126.924L349.215 127.547C348.839 127.276 348.445 127.118 348.032 127.075C347.619 127.032 347.23 127.099 346.863 127.277C346.494 127.441 346.178 127.714 345.914 128.095C345.654 128.468 345.51 128.86 345.479 129.27C345.442 129.676 345.519 130.067 345.711 130.443C345.896 130.815 346.182 131.136 346.57 131.405L346.75 131.53C347.145 131.804 347.562 131.961 348 131.999C348.436 132.025 348.854 131.933 349.254 131.724C349.653 131.515 350.001 131.197 350.296 130.771C350.54 130.42 350.701 130.062 350.778 129.695C350.861 129.321 350.858 128.942 350.769 128.56L351.876 128.448C352.003 128.935 352.008 129.437 351.893 129.954C351.782 130.464 351.556 130.965 351.214 131.458Z" fill="black"/>
<path d="M354.351 126.497L348.102 122.867L348.732 121.783L350.43 122.769L349.944 122.628C349.612 122.204 349.451 121.722 349.46 121.181C349.47 120.639 349.648 120.07 349.995 119.473L351.091 120.11C351.056 120.152 351.025 120.197 350.997 120.244C350.974 120.284 350.952 120.323 350.929 120.362C350.577 120.967 350.48 121.552 350.636 122.116C350.792 122.679 351.212 123.16 351.896 123.557L355.009 125.365L354.351 126.497Z" fill="black"/>
<path d="M190.271 297.028L189.861 313.531L186.742 319.279L172.952 331.759L196.017 332.252L202.665 319.279L201.023 294.729L190.271 297.028Z" fill="white"/>
<path d="M189.205 50.5395V62.2809L185.922 60.9672L173.199 71.8055L165.566 73.7761L160.805 78.4562L153.09 133.14L160.231 144.06L158.343 147.92L159.082 149.151L162.611 148.823L165.238 152.6L166.305 154.488L174.348 153.01L222.447 140.858L226.059 136.178L229.916 126.982L236.975 94.4673L238.206 85.928L235.252 76.814L228.521 72.7087L207.919 59.9819L204.718 61.1314L203.569 46.9268L189.205 50.5395Z" fill="white"/>
<path d="M172.541 64.7449L168.766 56.7805L170.489 44.3001L171.72 23.5267L173.28 15.2338L181.078 4.4777L193.554 0.125977L206.276 3.98505L211.119 8.6652L220.065 29.4385L223.923 45.4496L219.409 59.7364C212.268 56.6984 205.537 55.2204 199.299 55.3846C190.27 55.0562 181.406 58.2584 172.541 64.7449Z" fill="white"/>
<path d="M152.268 145.129C151.858 146.032 151.201 145.704 150.709 145.375C149.97 144.883 149.313 144.226 148.657 143.651C147.097 142.173 146.687 140.285 146.851 138.314C147.097 133.716 147.344 129.036 147.836 124.438C148.164 121.318 149.313 118.526 149.97 115.488C150.709 112.286 151.858 109.166 152.679 105.964C154.074 100.709 155.305 95.4538 156.619 90.1168C156.865 89.1315 157.439 88.2283 157.686 87.3252C157.85 86.8325 157.603 86.1756 157.603 85.6009C157.603 85.1903 157.439 84.6977 157.603 84.3693C158.096 83.3019 158.588 82.3166 159.163 81.2492C159.655 80.2639 160.23 79.3607 160.887 78.4575C162.446 76.2406 164.334 74.27 166.796 73.1205C167.945 72.6278 169.177 72.2994 170.326 71.971C170.654 71.8889 170.982 72.2173 171.393 72.3815C171.147 72.6278 170.982 73.1205 170.654 73.2026C168.766 73.7773 166.878 74.3521 165.319 75.7479C163.842 77.0617 162.528 78.4575 161.461 80.4281C163.595 80.2639 165.483 80.2639 167.289 80.0175C171.967 79.2786 176.646 78.4575 181.324 77.6364C184.526 77.0617 187.727 76.4869 190.928 75.9121C192.816 75.5837 194.703 75.1732 196.591 75.0911C197.33 75.009 198.069 75.7479 198.807 76.0764C200.695 76.8974 200.941 78.6217 201.188 80.346C201.68 83.384 202.091 86.5041 202.419 89.5421C202.829 93.0727 203.24 96.6034 203.65 100.052C206.113 100.298 206.441 102.926 205.128 104.568C203.896 105.964 204.389 107.195 204.471 108.591C204.471 109.248 204.635 109.823 204.799 110.644C205.784 110.069 206.769 109.576 207.59 109.002C209.067 107.934 210.545 106.785 212.022 105.717C212.351 105.471 212.843 105.307 213.171 105.389C213.91 105.553 214.156 105.143 214.238 104.568C214.485 103.418 214.731 102.269 214.895 101.201C215.059 100.298 215.387 99.4771 215.387 98.5739C215.305 96.1107 215.059 93.6475 214.895 91.1842C214.895 90.7737 214.649 90.4453 214.567 90.1168C214.32 89.6242 213.992 88.9673 214.731 88.721C215.387 88.5568 216.126 88.6389 216.372 89.46C216.701 90.7737 217.111 92.0053 217.193 93.319C217.357 95.2075 217.439 97.1781 217.275 99.1487C217.029 101.366 216.455 103.5 216.044 105.635C215.387 108.755 214.731 111.958 214.074 115.078C213.336 118.526 212.761 122.057 211.119 125.177C210.873 125.67 210.627 126.244 211.284 126.737C211.776 127.065 212.186 127.64 212.761 127.969C213.089 128.133 213.582 128.133 213.992 128.133C215.141 128.051 216.372 127.886 217.522 127.886C217.85 127.886 218.26 128.379 218.589 128.625C218.26 128.872 217.932 129.282 217.522 129.364C216.372 129.611 215.141 129.857 213.992 130.021C213.171 130.103 212.351 130.268 211.612 130.186C209.888 130.021 208.493 131.089 207.097 131.581C204.143 132.731 201.352 134.045 198.151 134.373C195.606 134.619 193.062 135.112 190.435 135.276C186.906 135.44 183.294 135.194 179.929 133.962C179.437 133.798 178.944 133.388 178.288 133.059C176.728 133.716 175.086 134.701 173.281 135.03C170.572 135.605 169.505 137.822 167.945 139.546C166.386 141.188 164.662 142.666 162.692 143.898C161.954 144.308 161.297 144.801 160.558 145.293C159.984 145.622 159.081 147.592 158.999 148.742C159.82 148.578 160.64 148.331 161.461 148.249C161.954 148.167 162.528 148.085 163.021 148.085C164.252 148.167 164.252 149.152 164.498 149.974C164.744 150.959 165.073 151.862 165.319 152.847C165.647 153.915 166.386 153.833 167.371 153.75C166.55 152.847 166.878 152.355 167.699 151.862C169.423 150.713 170.982 149.317 172.706 148.167C174.101 147.264 175.497 146.443 176.974 145.622C177.22 145.458 177.631 145.375 177.877 145.458C180.34 146.853 182.966 146.607 185.511 146.361C187.152 146.197 188.876 146.032 190.517 145.868C192.323 145.704 194.129 145.458 195.853 145.211C199.218 144.719 202.583 144.308 205.948 143.651C210.216 142.83 214.485 141.763 218.671 140.695C220.066 140.367 221.379 139.874 222.693 139.299C223.103 139.135 223.595 138.807 223.76 138.396C225.155 135.605 226.55 132.813 227.864 130.021C228.356 128.872 228.602 127.558 228.931 126.326C229.177 125.259 228.11 125.177 227.617 125.095C226.14 124.766 224.662 124.52 223.185 124.438C221.872 124.356 220.559 124.52 219.245 124.52C217.193 124.438 215.387 125.259 213.5 125.916C213.253 125.998 212.843 125.916 212.515 125.916C212.597 125.587 212.679 125.095 212.925 124.848C214.731 123.453 216.865 122.878 219.163 122.714C220.969 122.632 222.775 122.632 224.58 122.549C226.386 122.467 227.946 122.878 229.423 123.863C229.669 124.027 229.916 124.027 230.244 124.192C230.818 121.4 231.311 118.608 231.885 115.899C232.542 112.861 233.199 109.823 233.773 106.785C234.676 102.269 235.579 97.7529 236.4 93.1548C236.81 90.6095 236.892 88.0641 236.482 85.5188C236.236 84.1229 236.072 82.8092 235.907 81.4134C235.907 81.1671 236.072 80.7565 236.236 80.7565C236.564 80.7565 237.057 80.8386 237.303 81.0028C237.631 81.4134 238.041 81.9881 238.041 82.5629C238.37 84.7798 238.616 87.0788 238.698 89.2957C238.78 93.1548 238.206 96.8497 237.303 100.627C236.646 103.336 236.154 106.128 235.579 108.837C235.251 110.644 234.922 112.45 234.594 114.339C233.937 117.295 233.281 120.25 232.624 123.288C232.378 124.274 232.214 125.341 231.885 126.326C231.803 126.573 231.475 126.901 231.229 126.983C230.408 127.394 230.244 128.215 230.08 129.036C229.505 131.746 228.602 134.291 227.125 136.754C226.797 137.329 226.632 138.068 226.304 138.643C225.812 139.382 225.319 140.121 224.745 140.695C224.252 141.106 224.088 141.434 224.334 142.091C225.237 144.472 226.222 146.936 227.043 149.399C227.535 150.959 227.864 152.683 228.274 154.243C229.013 157.035 229.669 159.826 230.736 162.536C231.803 165.246 232.378 168.037 232.788 170.829C233.117 173.374 233.527 176.002 233.855 178.547C234.184 181.257 234.43 183.966 234.84 186.676C235.415 190.371 234.922 193.983 234.922 197.596C234.922 200.306 235.087 202.933 235.005 205.643C235.005 207.367 234.758 209.091 234.594 210.816C234.348 212.704 234.102 214.592 233.773 216.481C233.117 220.012 232.542 223.542 231.803 226.991C231.147 230.357 230.901 233.806 231.147 237.254C231.311 239.471 231.147 241.77 231.311 243.987C231.557 247.354 231.968 250.802 232.378 254.169C232.624 256.057 232.706 258.028 233.117 259.916C233.609 262.297 234.348 264.596 234.922 266.895C235.169 268.045 235.169 269.194 235.497 270.262C236.236 272.561 237.057 274.778 237.877 276.995C239.355 280.936 240.832 284.877 242.392 288.736C242.474 289.064 242.802 289.311 243.048 289.475C243.869 290.05 243.951 290.953 243.377 291.774C241.571 294.566 238.944 296.208 235.907 297.275C233.773 298.014 231.311 297.932 229.259 296.454C228.602 295.961 228.028 295.879 227.453 296.454C225.565 298.014 223.431 298.753 220.969 298.999C220.723 298.999 220.312 299.328 220.23 299.574C218.753 303.351 217.932 307.374 217.439 311.398C217.111 314.025 216.865 316.653 216.865 319.362C216.783 322.236 217.193 325.11 217.768 327.901C218.424 331.022 218.917 334.224 218.342 337.344C217.85 340.218 216.865 343.091 216.044 345.883C215.552 347.607 214.895 349.25 214.074 350.81C213.418 352.041 212.433 353.027 211.53 354.176C210.134 355.982 208.821 357.789 207.262 359.431C206.523 360.252 205.456 360.909 204.389 361.484C203.158 362.305 201.844 363.044 200.531 363.701C199.546 364.193 198.561 364.029 197.494 363.618C195.36 362.879 194.375 361.484 193.801 359.431C192.898 356.147 192.569 352.944 192.98 349.578C193.39 346.54 193.801 343.42 194.293 340.382C194.457 339.314 194.868 338.247 195.196 336.851C193.636 337.754 192.241 338.493 191.01 339.397C188.219 341.449 185.264 343.091 182.145 344.651C180.093 345.719 178.123 346.704 175.907 347.197C173.034 347.854 170.162 347.772 167.289 347.607C165.894 347.525 164.58 347.197 163.267 346.786C161.461 346.212 160.148 344.898 159.081 343.42C156.701 340.3 158.014 337.262 161.051 335.784C163.431 334.552 165.811 333.321 168.028 331.843C169.669 330.775 171.475 330.118 173.199 329.215C173.527 329.051 173.691 328.723 173.937 328.558C175.661 327.162 177.385 325.685 179.108 324.289C180.34 323.303 181.571 322.318 182.802 321.333C184.115 320.265 185.428 319.28 186.578 318.131C187.316 317.392 187.809 316.406 188.465 315.503C188.712 315.257 189.122 315.093 189.45 314.928C189.532 315.339 189.779 315.75 189.615 316.16C188.794 318.87 186.742 320.676 184.608 322.482C182.309 324.371 180.011 326.177 177.713 328.066C177.549 328.148 177.467 328.394 177.138 328.805C178.288 328.805 179.19 328.969 180.011 328.805C181.899 328.394 183.787 327.819 185.593 327.327C186.249 327.162 186.906 327.245 187.645 327.163C188.055 327.08 188.465 327.08 188.712 326.834C190.928 325.274 193.144 323.714 195.36 322.154C197.248 320.84 199.136 319.691 200.859 318.541C200.859 311.562 200.859 304.583 200.859 297.522C197.412 298.096 194.211 298.671 191.256 299.164C191.502 301.873 191.831 304.501 191.831 307.21C191.831 309.099 191.502 310.987 191.256 312.876C191.174 313.45 190.846 314.025 190.189 313.779C189.532 313.533 189.697 313.04 189.779 312.465C189.943 311.069 190.025 309.591 190.025 308.196C190.025 305.24 189.861 302.284 189.779 299.246C188.63 299.41 187.645 299.656 186.742 299.574C184.608 299.574 182.556 299.328 180.668 298.26C178.698 297.111 176.728 295.961 174.758 294.812C174.184 294.484 173.937 294.484 173.773 295.223C173.773 295.387 173.691 295.551 173.609 295.633C172.214 297.029 170.654 298.178 168.602 298.507C166.55 298.835 164.498 298.835 162.692 298.096C160.969 297.439 159.573 296.208 157.932 295.223C156.29 294.237 155.223 292.841 154.238 291.281C152.843 289.147 152.925 286.93 153.91 284.713C154.238 283.974 154.402 283.153 154.649 282.414C155.387 280.115 156.126 277.816 156.701 275.517C157.275 273.382 157.603 271.083 158.096 268.948C158.835 266.156 159.655 263.365 160.394 260.573C160.805 259.095 161.215 257.535 161.625 256.057C162.2 253.84 162.857 251.623 163.431 249.406C164.006 247.025 164.498 244.644 164.991 242.181C165.401 240.128 165.729 238.157 166.058 236.105C166.304 234.627 166.714 233.067 166.714 231.589C166.714 230.521 166.14 229.536 165.894 228.469C165.237 225.677 164.498 222.885 163.924 220.094C163.595 218.534 163.349 217.056 163.103 215.496C162.528 211.226 161.954 206.956 161.461 202.687C161.297 200.963 161.461 199.238 161.379 197.596C161.379 195.461 161.297 193.327 161.379 191.192C161.461 189.467 161.79 187.743 161.954 186.019C162.282 183.391 162.61 180.846 162.939 178.219C163.185 176.577 163.349 174.934 163.595 173.292C163.759 171.65 163.842 170.008 164.088 168.366C164.58 165.492 165.237 162.618 165.894 159.744C166.222 158.102 166.714 156.542 167.207 154.818C166.796 154.818 166.468 154.818 166.14 154.736C165.811 154.654 165.401 154.654 165.237 154.407C164.252 152.847 162.2 151.862 162.692 149.481C161.872 149.563 161.215 149.645 160.558 149.727C159.655 149.974 158.835 149.809 158.178 148.988C157.603 148.249 157.85 147.428 158.096 146.607C158.178 146.361 158.26 146.197 158.342 145.786C157.686 145.95 157.111 146.114 156.619 146.114C155.551 146.197 154.484 146.279 153.499 146.197C152.761 146.197 152.432 145.786 152.843 145.047C153.171 144.965 153.499 144.883 153.828 144.883C156.208 144.719 158.506 144.226 160.476 142.83C161.79 141.927 163.185 141.188 164.416 140.203C165.894 138.889 167.207 137.329 168.602 135.851C170.326 133.962 172.132 132.156 174.43 130.924C174.84 130.678 175.333 130.432 175.579 130.924C175.661 131.171 175.333 131.663 175.168 132.074C175.086 132.156 175.004 132.238 174.922 132.32C175.661 132.238 176.236 131.992 176.892 131.828C177.303 131.746 178.041 131.499 178.205 131.663C178.698 132.32 179.355 132.074 180.011 132.156C181.653 132.32 183.294 132.649 185.018 132.731C187.563 132.895 190.189 133.141 192.734 132.977C196.673 132.731 200.531 132.32 204.225 130.842C205.948 130.103 205.62 130.514 205.538 128.625C205.538 127.148 204.307 125.423 206.195 124.192C205.784 124.274 205.456 124.438 205.21 124.602C204.307 125.013 203.486 125.423 202.583 125.752C202.009 125.998 201.516 125.834 201.352 125.341C204.717 123.206 208 121.154 211.284 119.101C211.53 117.869 211.858 116.638 212.186 115.242C210.545 117.295 208.739 118.69 206.687 119.758C206.359 119.922 205.62 120.004 205.538 119.84C205.128 119.347 205.702 119.019 206.03 118.69C207.836 117.212 209.642 115.817 211.366 114.257C212.268 113.435 213.336 112.532 212.925 110.89C211.694 111.875 210.627 112.943 209.396 113.846C208.082 114.749 206.769 115.57 205.374 116.391C204.799 116.72 204.225 116.72 203.814 115.899C204.881 115.16 206.03 114.503 207.097 113.764C209.56 112.122 211.94 110.397 213.664 107.934C214.156 107.195 214.156 106.703 213.253 106.21C212.843 106.703 212.433 107.277 211.94 107.77C211.037 108.591 210.052 109.33 208.985 110.069C207.015 111.465 204.963 112.779 202.501 112.779C201.434 112.779 200.285 112.779 199.218 112.697C198.233 112.614 197.576 111.711 197.987 110.808C198.643 109.494 199.464 108.181 200.203 106.949C200.285 106.867 200.367 106.785 200.531 106.703C201.68 105.799 202.911 104.978 203.896 103.993C204.389 103.5 204.553 102.679 204.799 101.94C204.881 101.776 204.635 101.448 204.553 101.284C204.307 101.366 204.061 101.448 203.896 101.53C201.844 103.008 199.71 104.322 197.084 104.814C196.673 104.896 196.263 105.225 196.099 105.471C195.114 106.867 194.129 108.345 193.144 109.741C192.816 110.151 192.487 110.644 192.077 110.972C188.876 112.943 185.675 114.996 182.392 116.884C181.078 117.623 179.601 118.034 178.288 118.773C175.743 120.25 172.952 121.072 170.08 121.646C168.684 121.893 167.207 121.975 165.811 122.303C163.924 122.714 162.036 123.371 160.066 123.863C158.506 124.274 156.947 124.684 155.88 125.916C155.551 126.244 155.223 126.655 154.895 126.901C153.335 128.215 151.612 129.282 150.545 131.171C150.463 131.253 150.463 131.335 150.38 131.417C149.396 131.663 149.478 132.485 149.396 133.223C149.313 134.784 149.313 136.261 149.313 137.822C149.313 139.299 149.56 140.613 150.545 141.763C151.119 142.502 151.858 143.159 152.432 143.898C152.022 144.39 152.104 144.801 152.268 145.129ZM182.063 107.277C182.884 105.717 183.787 104.321 184.361 102.844C184.936 101.448 185.757 100.627 187.234 100.38C187.891 100.298 188.547 100.38 189.204 100.462C189.122 100.955 189.04 101.448 188.958 102.022C188.958 102.187 188.876 102.351 188.794 102.433C187.563 104.896 186.249 107.359 185.018 109.823C184.69 110.48 185.593 112.286 186.249 112.368C186.413 112.368 186.578 112.286 186.742 112.204C187.48 111.793 188.219 111.301 188.876 110.808C189.943 110.069 191.174 109.33 192.159 108.427C193.062 107.606 193.636 106.456 194.375 105.471C194.95 104.65 195.688 104.075 196.591 103.665C198.151 103.008 199.628 102.187 201.106 101.448C201.598 101.201 201.926 100.873 201.844 100.134C201.27 95.6181 200.777 91.1021 200.285 86.5041C200.039 84.1229 199.71 81.6597 199.382 79.2786C199.136 77.7185 197.494 76.569 196.017 76.8153C192.98 77.308 190.025 77.8006 186.988 78.2933C183.376 78.868 179.683 79.4428 176.071 80.0175C170.818 80.9207 165.565 81.8239 160.23 82.7271C160.066 82.7271 159.82 82.8092 159.82 82.8913C159.573 83.7945 158.999 84.6977 159.081 85.6009C159.327 88.0641 159.82 90.4453 160.23 92.9085C161.133 98.4918 162.036 103.993 162.939 109.576C163.513 113.025 164.006 116.473 164.498 119.84C164.58 120.333 164.744 120.661 165.401 120.661C166.14 120.579 166.961 120.579 167.699 120.497C169.013 120.415 170.49 120.579 171.721 120.086C173.445 119.511 175.004 118.444 176.646 117.623C176.81 117.541 176.974 117.459 177.056 117.295C177.795 115.817 178.452 114.339 179.19 112.861C179.437 112.286 179.519 111.875 179.108 111.301C177.631 109.084 176.071 106.867 174.594 104.732C173.527 103.09 173.527 103.008 175.415 102.679C176.974 102.433 178.288 102.679 179.272 104.157C180.093 105.307 181.078 106.21 182.063 107.277ZM203.65 347.361C204.389 346.868 205.128 346.376 205.702 345.801C208.247 343.174 210.791 340.546 213.336 337.919C214.32 336.851 215.47 335.866 215.305 334.224C215.223 333.813 215.059 333.238 215.223 332.91C215.634 331.596 215.305 330.447 214.977 329.215C214.074 326.259 214.074 323.139 214.32 320.101C214.485 317.966 214.813 315.914 214.895 313.779C214.977 311.151 215.552 308.606 216.126 305.979C216.701 303.762 217.193 301.545 217.768 299.246C213.418 298.507 209.97 296.29 206.687 293.416C206.687 293.745 206.605 293.991 206.605 294.237C206.851 297.111 207.097 300.067 207.262 302.941C207.426 305.075 207.754 307.21 207.59 309.345C207.344 312.055 206.933 314.846 206.195 317.474C205.538 320.101 204.389 322.564 203.486 325.192C202.665 327.409 201.926 329.708 201.106 331.925C200.121 334.388 200.121 336.851 200.777 339.397C201.434 342.106 202.009 344.898 203.65 347.361ZM158.342 89.9526C155.634 100.38 153.007 110.972 150.298 121.4C150.298 121.4 150.463 121.4 150.545 121.318C152.432 120.25 154.484 119.594 156.701 119.676C157.521 119.758 158.424 119.511 159.245 119.676C160.312 119.84 161.543 119.265 162.528 120.497C161.133 110.151 159.738 100.052 158.342 89.9526ZM204.307 317.227C204.553 315.832 204.717 314.6 204.963 313.45C205.456 310.987 205.866 308.442 205.702 305.897C205.538 303.598 205.538 301.216 205.456 298.917C205.456 297.686 205.374 296.536 205.292 295.223C204.225 295.879 203.24 296.454 202.255 297.029C202.091 297.111 202.009 297.439 202.091 297.604C202.255 299.328 202.501 301.052 202.665 302.776C202.911 306.471 203.158 310.166 203.24 313.861C203.158 315.093 203.486 316.078 204.307 317.227ZM161.215 121.975C161.215 121.81 161.133 121.646 161.133 121.482C159.327 121.482 157.439 121.236 155.634 121.564C153.499 121.893 151.53 122.632 149.478 123.124C149.231 125.587 148.985 127.969 148.739 130.514C152.432 126.573 155.634 122.549 161.215 121.975ZM210.709 128.543C210.381 128.133 210.134 127.804 209.888 127.558C209.067 126.901 208.903 126.162 209.232 125.177C209.642 124.11 209.97 122.96 210.381 121.564C208.985 122.385 207.836 123.042 206.605 123.781C206.523 123.863 206.359 124.027 206.359 124.192C206.605 125.998 206.851 127.804 207.097 129.693C208.329 129.364 209.478 128.954 210.709 128.543ZM202.665 106.949C201.024 107.852 199.957 109.166 199.218 110.808C199.136 110.972 199.382 111.465 199.464 111.465C200.449 111.547 201.352 111.547 202.337 111.465C202.583 111.465 202.911 110.972 202.911 110.726C202.829 109.494 202.747 108.263 202.665 106.949Z" fill="black"/>
<path d="M152.269 145.13C152.105 144.801 152.022 144.391 151.776 144.144C151.202 143.405 150.463 142.748 149.888 142.009C148.986 140.86 148.657 139.464 148.657 138.068C148.657 136.508 148.657 135.03 148.739 133.47C148.821 132.813 148.739 131.91 149.724 131.664C149.806 131.664 149.888 131.5 149.888 131.418C150.873 129.529 152.679 128.462 154.239 127.148C154.567 126.82 154.977 126.491 155.224 126.163C156.373 124.931 157.932 124.521 159.41 124.11C161.297 123.617 163.185 122.96 165.155 122.55C166.551 122.221 168.028 122.139 169.423 121.893C172.296 121.318 175.087 120.497 177.631 119.019C178.945 118.28 180.422 117.87 181.735 117.131C185.018 115.242 188.22 113.19 191.421 111.219C191.831 110.973 192.159 110.48 192.488 109.987C193.473 108.592 194.458 107.114 195.443 105.718C195.689 105.389 196.099 105.061 196.428 105.061C198.972 104.568 201.106 103.255 203.24 101.777C203.404 101.612 203.651 101.612 203.897 101.53C203.979 101.777 204.225 102.023 204.143 102.187C203.897 102.926 203.733 103.747 203.24 104.24C202.173 105.225 201.024 106.046 199.875 106.949C199.793 107.031 199.629 107.114 199.547 107.196C198.808 108.509 197.987 109.741 197.33 111.055C196.92 111.958 197.495 112.861 198.562 112.943C199.629 113.025 200.778 113.025 201.845 113.025C204.389 113.025 206.359 111.63 208.329 110.316C209.314 109.577 210.299 108.838 211.284 108.017C211.776 107.606 212.187 106.949 212.597 106.457C213.5 106.949 213.5 107.442 213.008 108.181C211.284 110.644 208.904 112.369 206.441 114.011C205.374 114.75 204.307 115.407 203.158 116.145C203.486 116.967 204.143 116.967 204.718 116.638C206.113 115.817 207.426 114.996 208.739 114.093C209.971 113.19 211.12 112.204 212.269 111.137C212.679 112.779 211.53 113.682 210.709 114.503C208.986 116.063 207.18 117.459 205.374 118.937C204.964 119.266 204.471 119.594 204.882 120.087C205.046 120.251 205.703 120.169 206.031 120.005C208.083 118.937 209.971 117.459 211.53 115.489C211.202 116.884 210.956 118.116 210.627 119.348C207.344 121.4 204.061 123.453 200.696 125.588C200.86 126.081 201.352 126.245 201.927 125.998C202.83 125.67 203.651 125.259 204.553 124.849C204.882 124.685 205.128 124.52 205.538 124.438C203.651 125.752 204.882 127.394 204.882 128.872C204.882 130.761 205.292 130.35 203.568 131.089C199.875 132.567 195.935 132.978 192.077 133.224C189.533 133.388 186.906 133.142 184.362 132.978C182.72 132.896 181.079 132.567 179.355 132.403C178.78 132.321 178.124 132.567 177.549 131.91C177.385 131.746 176.646 131.91 176.236 132.074C175.579 132.239 175.005 132.485 174.266 132.567C174.348 132.485 174.512 132.403 174.512 132.321C174.676 131.91 175.005 131.5 174.923 131.171C174.676 130.596 174.184 130.925 173.774 131.171C171.475 132.403 169.67 134.209 167.946 136.098C166.551 137.576 165.237 139.136 163.76 140.449C162.611 141.517 161.133 142.174 159.82 143.077C157.85 144.473 155.552 144.965 153.172 145.13C152.843 145.13 152.515 145.212 152.187 145.294C152.515 145.212 152.433 145.212 152.269 145.13ZM195.361 126.984C195.361 126.902 195.361 126.82 195.361 126.737C196.345 126.737 197.413 126.737 198.397 126.737C198.89 126.737 199.464 126.737 199.957 126.491C200.203 126.409 200.532 125.998 200.532 125.67C200.532 125.424 200.121 125.095 199.875 125.095C198.644 125.013 197.33 125.013 196.017 125.013C194.211 125.013 192.324 125.095 190.518 124.849C189.122 124.685 188.055 125.013 186.824 125.424C186.332 125.588 185.839 125.834 186.168 126.491C186.496 127.148 186.988 126.82 187.399 126.655C188.138 126.491 188.794 126.163 189.533 126.163C191.421 126.409 193.391 126.737 195.361 126.984ZM177.221 131.089C177.549 131.007 177.713 130.925 177.96 130.843C179.519 130.104 181.079 129.447 182.556 128.626C183.049 128.38 183.541 127.969 183.131 127.312C182.802 126.737 182.31 126.82 181.817 127.066C180.586 127.723 179.355 128.297 178.124 129.036C177.631 129.283 177.221 129.611 176.811 130.022C176.646 130.186 176.564 130.596 176.646 130.761C176.728 130.925 177.057 131.007 177.221 131.089Z" fill="white"/>
<path d="M202.665 62.9389C203.403 62.282 204.142 61.7072 204.717 61.2146C204.306 59.4082 203.978 57.684 203.65 55.9597C203.485 54.9744 203.568 53.9891 203.485 53.0038C203.403 52.5933 203.157 52.1006 203.075 51.6901C203.075 51.3616 203.075 50.869 203.321 50.6227C204.388 49.2268 205.702 47.9952 206.604 46.5173C207.836 44.4646 208.821 42.1656 209.806 39.9486C210.134 39.2097 210.462 39.1276 211.119 39.6202C211.365 39.7844 211.94 39.7023 212.35 39.5381C213.581 38.9633 214.156 37.8138 214.484 36.5822C214.977 35.0222 214.895 32.5589 213.499 31.5736C212.678 30.9989 211.693 31.081 211.037 31.9021C210.873 32.0663 210.626 32.2305 210.38 32.3947C210.216 32.1484 209.888 31.9021 209.888 31.6557C209.559 29.8494 209.231 28.043 208.903 26.2366C208.821 25.6618 208.656 25.1692 208.492 24.5944C208.41 24.266 208.164 23.9376 207.918 23.7734C204.552 22.2954 202.336 19.668 200.202 16.8763C199.053 15.3984 198.15 13.7562 197.165 12.1961C197.001 11.9498 197.001 11.7035 196.919 11.4572C196.755 11.1287 196.755 10.2256 197.165 10.2256C197.494 10.2256 197.658 10.7182 197.822 11.0466C198.971 12.6067 199.874 14.4131 201.187 15.8089C202.993 17.8616 205.127 19.7501 207.097 21.6386C207.261 21.8028 207.507 21.8849 208 22.2133C207.672 20.8175 207.425 19.5859 207.015 18.4363C206.112 15.8089 204.717 13.3457 203.239 10.9645C203.075 10.7182 202.911 10.1434 203.239 9.89712C203.65 9.73291 203.978 9.89712 204.224 10.0613C204.635 10.4719 204.963 10.9645 205.291 11.4572C207.261 14.6594 208.574 18.0258 209.395 21.7207C209.477 22.2954 209.97 22.7881 210.134 23.3628C210.216 23.6913 210.134 24.1018 210.134 24.4302C210.38 26.1545 210.708 27.8788 211.037 29.5209C211.119 29.7672 211.529 30.0136 211.858 30.0136C214.812 29.9315 216.536 31.7378 216.29 34.8579C216.208 36.0075 215.962 37.157 215.551 38.2244C214.895 39.9486 213.745 41.1803 211.693 41.1803C210.873 41.1803 210.873 41.8371 210.708 42.3298C209.888 45.0393 208.574 47.5026 206.44 49.3911C204.963 50.7048 204.635 52.0185 204.963 53.8249C205.291 55.467 205.537 57.0271 205.948 58.6692C206.194 59.8188 207.015 60.3114 208.082 60.0651C209.313 59.8188 210.298 60.2293 211.201 61.0504C212.104 61.8715 213.171 62.5283 214.156 63.2673C215.797 64.4168 217.275 65.6484 218.998 66.6337C220.886 67.7011 223.02 68.4401 224.908 69.4254C227.453 70.7391 230.079 72.0528 232.46 73.5308C234.019 74.5161 235.086 75.994 235.579 77.8825C235.661 78.2109 235.414 78.6215 235.332 79.032C235.004 78.8678 234.429 78.7857 234.347 78.4573C232.87 75.2551 230.079 73.9413 227.124 72.6276C224.334 71.396 221.543 70.1644 218.916 68.6043C216.126 66.88 213.499 64.8273 210.873 62.8568C210.626 62.6104 210.38 62.282 210.134 62.1178C209.97 61.9536 209.641 61.7072 209.395 61.7894C207.097 62.1178 205.127 63.1031 203.814 64.9916C203.403 65.5663 203.075 65.5663 202.418 65.1558C201.351 64.4989 200.038 64.0884 198.807 63.9242C197.001 63.5957 195.277 64.1705 193.718 65.1558C193.39 65.4021 192.979 65.6484 192.733 65.9769C192.158 66.5516 191.83 66.3874 191.338 65.8126C190.271 64.581 189.122 63.4315 187.972 62.282C187.234 61.6251 186.577 61.9536 186.003 62.6925C185.428 63.5136 184.771 64.2526 184.033 64.9095C180.749 67.7011 177.056 69.8359 173.362 71.9707C173.198 72.0529 173.034 72.135 172.952 72.135C172.541 72.135 172.213 72.0529 171.803 72.0529C171.967 71.7244 172.049 71.2318 172.295 71.0676C174.183 69.7538 176.235 68.6043 178.123 67.2906C180.339 65.6484 182.473 64.0063 184.197 61.7894C185.756 59.8188 187.89 59.1619 190.106 61.2146C190.763 61.8715 191.338 62.6104 191.994 63.2673C192.323 63.6778 192.651 63.5136 193.061 63.3494C194.293 62.8568 195.524 62.282 196.837 62.1178C198.643 61.6251 200.613 62.1178 202.665 62.9389Z" fill="black"/>
<path d="M178.37 34.2008C177.877 30.0954 178.37 25.99 179.19 21.9667C180.011 18.2719 181.489 14.9875 183.951 12.1138C184.197 11.8674 184.608 11.4569 184.936 11.539C185.182 11.7853 185.1 12.278 184.936 12.6064C183.459 16.5476 183.459 20.5709 184.444 24.6763C184.526 25.0047 184.608 25.3331 184.69 25.8258C185.593 25.6616 186.578 25.4973 187.48 25.4152C187.809 25.4152 188.383 25.4974 188.548 25.7437C188.548 26.0721 187.973 26.3184 187.645 26.4005C186.824 26.6469 186.003 26.8111 185.018 27.0574C185.264 27.7964 185.593 28.3711 185.839 29.028C185.921 29.3564 186.085 29.8491 185.757 30.1775C185.182 30.1775 184.936 29.9312 184.772 29.6849C184.361 29.1101 184.115 28.5353 183.623 27.7143C182.884 28.2069 182.227 28.7817 181.571 29.2743C181.325 29.4385 180.914 29.6027 180.668 29.6849C180.34 29.4385 180.504 28.7817 180.668 28.6175C181.16 28.1248 181.735 27.7143 182.309 27.2216C182.638 26.9753 182.966 26.8111 183.376 26.5648C182.556 23.4447 181.899 20.3246 182.474 17.1223C182.392 17.1223 182.227 17.1223 182.145 17.0402C181.735 18.1076 181.325 19.175 180.996 20.3246C179.847 24.5121 179.273 28.8638 179.437 33.2155C179.437 33.8724 179.765 34.5292 179.847 35.1861C179.847 35.4324 179.683 35.7608 179.601 36.0893C179.355 36.0072 179.108 35.9251 178.862 35.7608C178.123 35.2682 177.303 35.2682 176.974 36.0893C176.646 36.8282 176.318 37.7314 176.482 38.4704C176.646 39.5378 177.056 40.6873 177.549 41.6726C178.123 42.8221 179.437 43.2327 180.504 42.6579C181.407 42.1653 181.817 42.5758 182.063 43.3969C183.623 47.6665 186.578 50.6224 190.435 52.7572C191.667 53.4141 193.144 53.7425 194.539 54.153C195.032 54.3172 195.524 54.3994 195.935 54.4815C196.509 54.5636 197.166 54.5636 197.74 54.3994C198.972 53.9888 200.039 53.4141 201.27 52.9214C201.516 52.8393 201.844 53.0035 202.091 53.0856C202.009 53.4141 202.009 53.9067 201.844 54.0709C200.367 54.8099 198.807 55.4668 197.33 56.2057C195.688 56.9447 194.457 56.0415 193.144 55.3846C192.405 54.9741 191.502 54.8099 190.517 54.3994C190.517 55.8773 190.517 57.191 190.517 58.5048C190.517 58.8332 190.517 59.2437 190.353 59.5722C190.189 59.8185 189.779 59.9827 189.532 60.229C189.368 59.9006 189.04 59.6543 189.04 59.3258C188.958 57.7658 188.958 56.2057 189.04 54.6457C189.04 53.9067 188.63 53.5783 188.055 53.2498C185.264 51.4435 183.048 49.0623 181.653 46.0243C181.407 45.3675 181.16 44.7106 180.996 44.218C180.175 44.218 179.355 44.218 178.616 44.218C178.37 44.218 178.041 44.5464 178.041 44.7106C177.221 47.9128 176.81 51.115 176.974 54.3994C177.056 56.6984 177.795 58.9153 178.862 60.8859C178.944 61.0501 179.108 61.1322 179.108 61.2964C179.108 61.6249 178.944 61.9533 178.944 62.2817C178.616 62.1996 178.205 62.1996 178.041 61.9533C176.81 60.3932 175.989 58.5048 175.661 56.5342C175.004 52.6751 175.579 48.8981 176.564 45.2033C176.892 44.0537 176.974 43.1506 176.318 42.0011C175.661 40.8515 175.333 39.3736 175.333 37.9778C175.251 35.5145 176.071 34.6934 178.37 34.2008Z" fill="black"/>
<path d="M217.358 59.4904C219.738 55.8777 221.708 52.1007 222.036 47.8311C222.2 45.8605 222.036 43.8899 221.79 42.0015C221.297 38.7171 220.641 35.5149 219.738 32.3127C218.589 28.3715 217.029 24.5946 215.716 20.7355C214.485 17.2048 212.679 13.8384 210.627 10.7183C209.888 9.56881 208.985 8.58351 208.165 7.434C207.918 7.10557 207.59 6.53082 207.918 6.12028C208.329 5.79184 208.985 6.20238 209.232 6.44871C211.202 8.58351 213.007 10.8004 214.156 13.51C215.88 17.5333 217.768 21.5566 219.327 25.662C221.297 30.7527 223.021 35.9255 223.431 41.5088C223.596 43.5615 224.088 45.6963 223.924 47.749C223.596 52.1828 222.282 56.2882 219.327 59.7368C218.671 60.4757 218.014 60.3936 217.358 59.4904Z" fill="black"/>
<path d="M168.274 51.8552C168.603 49.7204 168.931 46.7645 169.341 43.8907C169.916 40.1959 170.573 36.5831 170.983 32.8883C171.229 30.7535 171.147 28.6187 171.311 26.4017C171.393 25.4985 171.476 24.5133 171.722 23.6101C171.804 23.2816 172.05 22.8711 172.46 22.8711C172.789 22.9532 172.789 23.4458 172.789 23.7743C172.707 26.9765 172.707 30.2608 172.46 33.463C172.214 36.5831 171.64 39.7032 171.229 42.9054C170.819 46.1076 170.244 49.2277 170.08 52.43C169.834 56.2069 170.901 59.7376 172.378 63.1861C172.543 63.5145 172.707 63.7609 172.789 64.0893C172.789 64.3356 172.789 64.7461 172.625 64.8283C172.378 64.9104 171.886 64.9104 171.804 64.7462C171.311 64.0893 170.737 63.3503 170.408 62.6113C169.095 59.327 168.439 56.0427 168.274 51.8552Z" fill="black"/>
<path d="M206.359 3.98541C206.359 4.8886 205.867 5.29914 205.374 4.8886C202.912 2.91801 200.039 2.26114 196.92 1.8506C193.473 1.44006 190.189 1.68639 186.906 2.58958C185.265 3.08222 183.705 4.06752 182.392 5.13492C179.273 7.68027 176.81 10.8004 175.087 14.4952C174.266 16.3016 173.856 18.3543 173.281 20.2428C173.199 20.5712 173.035 21.146 172.624 21.146C172.132 20.9818 172.132 20.407 172.132 19.9965C172.706 15.1521 174.923 11.1288 178.042 7.43395C180.011 5.13492 182.228 3.16433 184.854 1.7685C187.317 0.454769 189.943 0.208446 192.652 0.04423C195.771 -0.119986 198.972 0.208446 201.927 1.19374C203.322 1.68639 204.553 2.50747 205.867 3.16433C206.113 3.57487 206.277 3.9033 206.359 3.98541Z" fill="black"/>
<path d="M200.696 44.5464C197.659 45.1211 194.622 45.6959 191.421 46.2706C192.652 47.7486 193.802 49.0623 195.689 49.3086C195.854 49.3086 196.018 49.2265 196.1 49.3086C196.346 49.4728 196.592 49.7192 196.838 49.9655C196.51 50.1297 196.264 50.4581 195.936 50.4581C194.212 50.4581 192.735 49.8013 191.667 48.4875C191.175 47.8307 190.683 47.1738 190.272 46.5169C189.698 45.5317 189.862 45.1211 191.011 44.9569C193.063 44.6285 195.033 44.3 197.085 43.9716C198.398 43.7253 199.629 43.5611 200.942 43.3147C201.927 43.1505 202.338 43.479 202.42 44.4643C202.502 46.3527 200.942 48.8981 199.137 49.4728C198.973 49.5549 198.644 49.3907 198.48 49.3907C198.562 49.1444 198.562 48.816 198.726 48.6518C199.219 48.077 199.875 47.5022 200.286 46.8454C200.696 46.1885 200.942 45.4495 201.189 44.7106C200.942 44.7106 200.86 44.6285 200.696 44.5464Z" fill="black"/>
<path d="M218.506 45.2045C218.424 48.4888 217.275 51.3626 215.387 53.9079C214.402 55.2216 213.253 56.4533 212.186 57.767C212.021 57.9312 211.775 58.1775 211.529 58.1775C211.119 58.2596 210.79 58.1775 210.38 58.1775C210.462 57.767 210.38 57.3564 210.626 57.028C212.104 54.8111 213.745 52.6763 215.223 50.4594C216.7 48.1604 217.11 45.4508 217.192 42.7412C217.192 42.4128 217.521 42.0023 217.685 41.6738C217.931 42.0844 218.26 42.4128 218.342 42.8233C218.424 43.5623 218.424 44.3834 218.506 45.2045Z" fill="black"/>
<path d="M202.255 24.1027C201.845 25.1701 201.681 25.2522 200.778 24.8417C200.368 24.6775 199.793 24.6775 199.301 24.6775C198.972 24.6775 198.644 24.7596 198.316 24.7596C198.398 24.4312 198.398 24.1027 198.48 23.7743C198.48 23.6922 198.562 23.528 198.726 23.3638C196.756 21.6395 195.279 19.5047 194.047 17.2057C193.227 15.6456 192.652 14.0035 192.16 12.3613C191.913 11.7865 191.749 10.8833 192.734 10.3086C193.062 10.3086 192.98 10.7191 193.062 10.8833C193.473 14.1677 195.279 16.713 197.002 19.3405C197.741 20.4079 198.726 21.3932 199.629 22.3785C199.957 22.7069 200.614 22.8711 201.188 22.8711C202.584 22.9532 203.979 22.8711 205.292 23.0353C205.867 23.1174 206.441 23.6922 207.016 24.0206C207.098 24.1027 207.098 24.5133 207.016 24.6775C206.934 24.8417 206.441 24.8417 206.359 24.7596C205.128 23.7743 203.651 24.1848 202.255 24.1027Z" fill="black"/>
<path d="M188.712 12.6067C188.794 15.6447 189.287 18.6006 190.6 21.3923C191.503 23.2807 192.57 25.1692 193.473 27.0577C193.555 27.304 193.801 27.7967 193.39 28.043C192.898 28.1251 192.57 27.8788 192.406 27.6325C191.338 25.9082 190.271 24.266 189.451 22.4597C188.137 19.5859 187.481 16.4658 187.645 13.2636C187.645 12.7709 187.727 12.2783 187.891 11.7856C187.973 11.5393 188.137 11.1288 188.466 11.2109C188.876 11.2109 188.712 11.7035 188.794 11.9498C188.876 12.1141 188.794 12.3604 188.712 12.6067Z" fill="black"/>
<path d="M181.407 51.9364C181.407 51.1975 181.407 50.4585 181.571 49.7195C181.653 49.3911 181.982 49.1448 182.228 48.8984C182.474 49.1448 182.803 49.4732 182.885 49.7195C182.967 51.1154 182.967 52.4291 183.131 53.8249C183.295 55.0565 183.623 56.206 183.87 57.4377C183.952 57.7661 183.87 58.1766 183.87 58.5051C183.459 58.423 182.885 58.3409 182.803 58.0945C182.392 57.0271 181.982 55.9597 181.818 54.8923C181.489 53.9891 181.489 52.9217 181.407 51.9364Z" fill="black"/>
<path d="M211.202 50.9513C210.791 51.8545 210.545 52.7576 210.135 53.4966C209.396 54.7282 208.575 55.8777 207.754 56.9451C207.508 57.2736 206.934 57.2736 206.523 57.5199C206.523 57.1094 206.359 56.5346 206.523 56.2062C207.344 54.7282 208.329 53.2503 209.232 51.7723C209.396 51.4439 209.478 51.1155 209.642 50.7871C209.888 50.4586 210.135 50.1302 210.381 49.8018C210.627 50.2123 210.955 50.5407 211.202 50.9513Z" fill="black"/>
<path d="M202.091 29.5205C203.076 29.6847 204.307 29.931 205.539 30.2595C205.867 30.3416 206.113 30.9163 206.359 31.2448C205.949 31.409 205.539 31.8195 205.128 31.8195C203.897 31.7374 202.748 31.4911 201.517 31.3269C201.188 31.2448 200.778 31.3269 200.45 31.2448C200.121 31.1627 199.875 30.9163 199.547 30.7521C199.793 30.4237 199.875 30.0132 200.204 29.8489C200.778 29.6847 201.271 29.6847 202.091 29.5205Z" fill="black"/>
<path d="M189.861 32.2311C189.368 32.5595 189.204 32.8058 188.958 32.888C187.645 33.5448 186.249 34.1196 184.854 34.7764C184.361 35.0228 183.787 35.2691 183.459 34.6943C183.294 34.3659 183.541 33.709 183.869 33.4627C185.264 32.3953 186.906 31.8206 188.63 31.7384C189.04 31.6563 189.368 31.9848 189.861 32.2311Z" fill="black"/>
<path d="M195.771 40.4414C196.181 40.6877 196.756 40.9341 196.838 41.2625C197.002 42.0015 196.345 42.1657 195.771 42.2478C195.524 42.3299 195.114 42.412 194.95 42.2478C194.621 42.0836 194.375 41.673 194.047 41.4267C194.375 41.1804 194.621 40.8519 194.95 40.6877C195.114 40.6056 195.36 40.6056 195.606 40.6056C195.688 40.6056 195.688 40.5235 195.771 40.4414Z" fill="black"/>
<path d="M182.062 107.277C181.078 106.209 180.093 105.306 179.354 104.157C178.369 102.679 177.056 102.514 175.496 102.679C173.608 102.925 173.526 103.089 174.675 104.731C176.153 106.948 177.63 109.165 179.19 111.3C179.518 111.793 179.518 112.285 179.272 112.86C178.533 114.338 177.876 115.816 177.138 117.294C177.056 117.458 176.891 117.54 176.727 117.622C175.086 118.443 173.526 119.511 171.803 120.085C170.571 120.496 169.094 120.332 167.781 120.496C167.042 120.578 166.221 120.578 165.482 120.66C164.826 120.742 164.662 120.414 164.58 119.839C164.087 116.391 163.595 112.942 163.02 109.576C162.117 103.992 161.214 98.4911 160.311 92.9077C159.901 90.4445 159.408 88.0634 159.162 85.6001C159.08 84.779 159.655 83.7937 159.901 82.8906C159.901 82.8084 160.147 82.7263 160.311 82.7263C165.564 81.8232 170.818 80.92 176.153 80.0168C179.764 79.442 183.458 78.8673 187.069 78.2925C190.106 77.7999 193.061 77.3072 196.098 76.8146C197.575 76.5682 199.217 77.7177 199.463 79.2778C199.792 81.6589 200.12 84.0401 200.366 86.5033C200.941 91.0192 201.433 95.5352 201.926 100.133C202.008 100.872 201.679 101.119 201.187 101.447C199.71 102.186 198.232 103.007 196.673 103.664C195.688 104.074 195.031 104.649 194.456 105.47C193.718 106.456 193.061 107.605 192.24 108.426C191.255 109.329 190.106 110.068 188.957 110.807C188.301 111.3 187.562 111.71 186.823 112.203C186.659 112.285 186.495 112.449 186.331 112.367C185.674 112.285 184.771 110.479 185.099 109.822C186.331 107.359 187.644 104.895 188.875 102.432C188.957 102.268 189.039 102.104 189.039 102.022C189.121 101.529 189.203 101.036 189.285 100.462C188.629 100.462 187.972 100.297 187.316 100.38C185.838 100.626 185.017 101.447 184.443 102.843C183.786 104.321 182.883 105.717 182.062 107.277Z" fill="white"/>
<path d="M203.65 347.361C202.009 344.898 201.434 342.106 200.777 339.314C200.121 336.769 200.203 334.306 201.106 331.843C201.927 329.626 202.665 327.327 203.486 325.11C204.389 322.564 205.538 320.019 206.195 317.392C206.851 314.764 207.344 311.972 207.59 309.263C207.754 307.128 207.426 304.993 207.262 302.859C207.016 299.903 206.769 297.029 206.605 294.155C206.605 293.909 206.605 293.662 206.687 293.334C209.888 296.208 213.336 298.425 217.768 299.164C217.193 301.463 216.701 303.68 216.126 305.897C215.552 308.442 214.977 310.987 214.895 313.697C214.813 315.832 214.485 317.884 214.321 320.019C213.992 323.139 214.074 326.177 214.977 329.133C215.388 330.365 215.634 331.514 215.223 332.828C215.059 333.238 215.223 333.731 215.306 334.142C215.47 335.784 214.321 336.769 213.336 337.837C210.873 340.546 208.329 343.091 205.702 345.719C205.128 346.376 204.389 346.868 203.65 347.361Z" fill="white"/>
<path d="M158.342 89.9521C159.737 100.051 161.133 110.151 162.61 120.496C161.625 119.265 160.394 119.839 159.327 119.675C158.506 119.593 157.603 119.757 156.782 119.675C154.566 119.593 152.514 120.25 150.626 121.317C150.462 121.399 150.298 121.399 150.38 121.399C152.925 110.972 155.633 100.38 158.342 89.9521Z" fill="white"/>
<path d="M161.214 121.974C155.633 122.631 152.432 126.654 148.738 130.513C148.985 127.968 149.231 125.669 149.477 123.124C151.529 122.549 153.499 121.892 155.633 121.563C157.439 121.317 159.327 121.481 161.132 121.481C161.132 121.646 161.132 121.81 161.214 121.974Z" fill="white"/>
<path d="M210.71 128.544C209.478 128.954 208.329 129.365 207.098 129.775C206.852 127.887 206.606 126.08 206.359 124.274C206.359 124.11 206.441 123.946 206.606 123.863C207.755 123.124 208.986 122.468 210.381 121.646C209.971 122.96 209.643 124.11 209.232 125.259C208.904 126.245 209.068 126.984 209.889 127.64C210.135 127.805 210.299 128.133 210.71 128.544Z" fill="white"/>
<path d="M202.666 106.949C202.748 108.345 202.912 109.495 202.912 110.726C202.912 110.973 202.584 111.383 202.338 111.465C201.353 111.547 200.45 111.547 199.465 111.465C199.383 111.465 199.137 110.973 199.219 110.808C199.957 109.166 200.942 107.852 202.666 106.949Z" fill="white"/>
<path d="M195.36 126.982C193.391 126.736 191.421 126.408 189.533 126.326C188.876 126.243 188.137 126.572 187.399 126.818C186.988 126.9 186.414 127.311 186.168 126.654C185.921 125.997 186.414 125.751 186.824 125.587C187.973 125.176 189.122 124.766 190.518 125.012C192.324 125.258 194.211 125.094 196.017 125.176C197.33 125.176 198.562 125.176 199.875 125.258C200.121 125.258 200.532 125.669 200.532 125.833C200.532 126.079 200.203 126.49 199.957 126.654C199.464 126.818 198.972 126.818 198.397 126.9C197.412 126.9 196.345 126.9 195.36 126.9C195.36 126.818 195.36 126.9 195.36 126.982Z" fill="black"/>
<path d="M177.221 131.088C177.057 131.006 176.729 130.924 176.646 130.76C176.564 130.513 176.646 130.185 176.811 130.021C177.221 129.61 177.631 129.282 178.124 129.035C179.355 128.379 180.586 127.722 181.817 127.065C182.31 126.819 182.885 126.736 183.131 127.311C183.459 127.968 183.049 128.379 182.556 128.625C180.997 129.364 179.437 130.103 177.96 130.842C177.713 130.924 177.549 131.006 177.221 131.088Z" fill="black"/>
<path d="M60.7884 32.1658L61.2741 26.6809L76.433 27.987L64.6059 19.4478L64.8392 16.8136L77.6549 10.4931L62.824 9.17969L63.3097 3.69477L88.5692 5.93166L88.141 10.7671L71.6068 18.8313L86.4793 29.5313L86.0543 34.3306L60.7884 32.1658Z" fill="black"/>
<path d="M62.6844 50.0142C62.0242 43.8548 65.6839 38.9083 71.5191 38.2828C77.3543 37.6573 81.9792 41.7158 82.6395 47.8752C83.2997 54.0346 79.6362 58.9451 73.8009 59.5706C67.9657 60.196 63.3447 56.1736 62.6844 50.0142ZM67.295 49.52C67.5961 52.3295 69.841 54.2385 73.1909 53.8794C76.5407 53.5203 78.3301 51.179 78.0289 48.3694C77.7277 45.5599 75.479 43.6149 72.1291 43.9739C68.7793 44.333 66.9938 46.7104 67.295 49.52Z" fill="black"/>
<path d="M72.0735 75.4787L68.4623 77.7488C67.4188 76.7745 66.6956 75.1824 66.3562 73.477C65.4581 68.9647 67.2443 65.8759 71.792 64.9708L79.644 63.408L79.0571 60.4591L83.3206 59.6106L83.9076 62.5595L88.5619 61.6331L89.665 67.1757L85.0107 68.1021L85.9582 72.863L81.6947 73.7116L80.7472 68.9506L72.9662 70.4992C71.3319 70.8245 70.6204 71.8895 70.9174 73.3818C71.0801 74.199 71.4914 74.9666 72.0735 75.4787Z" fill="black"/>
<path d="M70.9814 91.2448C69.1296 85.3333 71.7514 79.7668 77.3517 78.0124C82.952 76.258 88.2812 79.3339 90.133 85.2453C91.9848 91.1567 89.3522 96.6887 83.7519 98.4431C78.1516 100.197 72.8332 97.1562 70.9814 91.2448ZM75.4063 89.8586C76.251 92.555 78.8259 93.9882 82.0408 92.9811C85.2558 91.9739 86.5528 89.3279 85.7081 86.6314C84.8634 83.935 82.2777 82.4673 79.0628 83.4744C75.8478 84.4815 74.5616 87.1622 75.4063 89.8586Z" fill="black"/>
<path d="M83.4124 120.015L87.3763 111.035L83.7475 109.852L79.3383 112.13L76.7442 107.109L100.625 94.7702L103.219 99.791L89.7016 106.775L100.445 110.521L103.538 116.507L92.4749 113.09L86.5553 126.098L83.4124 120.015Z" fill="black"/>
<path d="M110.628 124.657C114.511 129.153 114.677 133.558 110.209 137.417L101.792 144.687L98.3351 140.685L100.172 139.098C98.1418 139.463 96.1029 138.544 94.2322 136.378C91.2485 132.924 91.3915 129.21 93.9411 127.008C96.5456 124.758 99.9415 125.032 103.825 129.528L106.761 132.928C108.598 131.341 108.72 129.321 106.731 127.018C105.381 125.455 103.463 124.288 101.69 123.953L103.352 119.836C105.901 120.459 108.591 122.3 110.628 124.657ZM98.0343 134.961C99.2657 136.386 100.989 137.052 102.759 136.385L104.267 135.082L101.733 132.149C100.004 130.148 98.7194 130.157 97.7324 131.009C96.6632 131.933 96.7319 133.453 98.0343 134.961Z" fill="black"/>
<path d="M29.3147 243.911C25.3769 249.949 19.5826 251.274 13.3317 247.198L1.43674 239.441L4.6424 234.525L16.3553 242.163C20.3911 244.795 23.2077 244.123 25.1469 241.15C27.106 238.146 26.5649 235.328 22.5291 232.696L10.8162 225.058L13.9823 220.203L25.8773 227.959C32.1282 232.036 33.2525 237.872 29.3147 243.911Z" fill="black"/>
<path d="M30.4274 209.811C34.0964 205.754 39.8411 205.234 44.382 209.341C48.9229 213.447 48.9819 219.215 45.3129 223.272C43.5634 225.207 41.5361 226.206 39.3257 226.112L40.9915 227.619L37.3711 231.622L17.4343 213.593L21.2248 209.401L28.2376 215.743C28.0273 213.599 28.7994 211.611 30.4274 209.811ZM41.2176 220.887C43.1128 218.792 43.0417 215.846 40.5429 213.586C38.0441 211.326 35.1058 211.551 33.2106 213.647C31.3153 215.742 31.3864 218.688 33.8853 220.948C36.3841 223.208 39.3223 222.983 41.2176 220.887Z" fill="black"/>
<path d="M51.5658 189.979L55.839 186.281L68.5931 201.018L64.539 204.526L63.0218 202.773C63.0129 205.033 61.9621 207.14 60.1542 208.704C56.4562 211.905 52.0522 212.075 48.1169 207.528L40.9102 199.201L45.1834 195.502L51.8449 203.2C53.9785 205.665 56.0224 205.812 57.9125 204.177C59.8848 202.47 60.2187 199.977 57.8717 197.265L51.5658 189.979Z" fill="black"/>
<path d="M83.5452 190.618L74.1684 187.714L73.4109 191.455L76.1817 195.573L71.4931 198.728L56.4864 176.427L61.175 173.272L69.6693 185.895L72.1534 174.792L77.7436 171.03L75.6225 182.413L89.2256 186.795L83.5452 190.618Z" fill="black"/>
<path d="M89.1704 164.722C94.487 162.07 98.7955 162.998 101.431 168.283L106.394 178.235L101.661 180.595L100.578 178.423C100.43 180.481 99.0348 182.229 96.4737 183.506C92.389 185.543 88.8259 184.486 87.3223 181.472C85.7864 178.392 86.8914 175.169 92.2081 172.518L96.228 170.513C95.1448 168.341 93.2175 167.723 90.4944 169.081C88.6465 170.003 87.041 171.573 86.2778 173.208L82.7002 170.58C83.9339 168.264 86.3824 166.112 89.1704 164.722ZM96.0405 179.472C97.7262 178.631 98.797 177.125 98.5884 175.246L97.6992 173.463L94.2304 175.193C91.8639 176.373 91.5547 177.62 92.1368 178.787C92.7673 180.052 94.2574 180.361 96.0405 179.472Z" fill="black"/>
<path d="M118.536 168.582L121.311 171.821C120.501 172.996 119.032 173.945 117.395 174.531C113.063 176.081 109.745 174.767 108.183 170.401L105.486 162.863L102.655 163.876L101.19 159.783L104.021 158.77L102.422 154.302L107.743 152.398L109.342 156.866L113.912 155.231L115.377 159.324L110.807 160.959L113.48 168.429C114.041 169.998 115.199 170.545 116.631 170.033C117.416 169.752 118.115 169.232 118.536 168.582Z" fill="black"/>
<path d="M127.246 151.018C133.058 149.789 136.995 151.771 138.216 157.549L140.515 168.43L135.341 169.523L134.839 167.149C134.178 169.103 132.388 170.444 129.588 171.035C125.122 171.979 121.939 170.06 121.243 166.764C120.531 163.397 122.412 160.556 128.224 159.327L132.619 158.398C132.117 156.024 130.408 154.941 127.43 155.57C125.41 155.997 123.461 157.112 122.311 158.503L119.51 155.059C121.286 153.129 124.198 151.662 127.246 151.018ZM130.184 167.022C132.027 166.632 133.442 165.445 133.713 163.573L133.301 161.624L129.508 162.425C126.921 162.972 126.308 164.101 126.578 165.377C126.87 166.759 128.234 167.434 130.184 167.022Z" fill="black"/>
</g>
</svg>
