<svg width="364" height="364" viewBox="0 0 364 364" fill="none" xmlns="http://www.w3.org/2000/svg">
<mask id="mask0_2341_707" style="mask-type:alpha" maskUnits="userSpaceOnUse" x="0" y="0" width="364" height="364">
<rect width="364" height="364" fill="#D9D9D9"/>
</mask>
<g mask="url(#mask0_2341_707)">
<mask id="mask1_2341_707" style="mask-type:alpha" maskUnits="userSpaceOnUse" x="8" y="-8" width="356" height="376">
<rect x="8" y="-8" width="356" height="376" fill="#D9D9D9"/>
</mask>
<g mask="url(#mask1_2341_707)">
<path d="M60.7994 52.5824L58.6069 43.9823L62.2312 43.0583C64.9956 42.3535 67.3201 43.6189 67.9716 46.1744C68.6231 48.7298 67.1881 50.9537 64.4237 51.6584L60.7994 52.5824ZM61.7555 51.2003L64.0775 50.6083C66.203 50.0665 67.2347 48.4165 66.743 46.4876C66.2512 44.5587 64.5555 43.6041 62.43 44.1459L60.108 44.7379L61.7555 51.2003ZM75.842 45.3193C75.8671 45.4176 75.8924 45.5682 75.9083 45.6819L70.6253 47.0287C71.064 48.1337 72.1797 48.6605 73.4697 48.3316C74.2314 48.1374 74.8045 47.7166 75.149 47.0661L75.9943 47.6618C75.58 48.5002 74.7771 49.0974 73.6959 49.3731C71.5951 49.9087 69.8405 48.8774 69.3456 46.9362C68.8539 45.0074 69.8883 43.2651 71.768 42.7859C73.6477 42.3067 75.3315 43.3167 75.842 45.3193ZM72.0217 43.781C70.8914 44.0692 70.2502 45.0439 70.4092 46.181L74.5864 45.116C74.1848 44.0539 73.1643 43.4898 72.0217 43.781ZM80.1866 47.7183C79.1055 47.9939 77.952 47.9347 77.3018 47.6425L77.5552 46.5835C78.2083 46.8357 79.1649 46.8928 80.0127 46.6767C81.1061 46.3979 81.4761 45.9503 81.3352 45.3974C80.9625 43.9354 77.1693 46.2501 76.5084 43.6578C76.2108 42.4906 77.0547 41.4381 78.7256 41.0121C79.5733 40.796 80.588 40.7728 81.2471 40.9973L80.9814 42.0595C80.2946 41.829 79.609 41.8598 78.9701 42.0227C77.9381 42.2858 77.5315 42.7951 77.663 43.3111C78.0546 44.8468 81.8631 42.5413 82.5084 45.0722C82.8091 46.2516 81.919 47.2767 80.1866 47.7183ZM83.0655 38.6365C82.611 38.7524 82.1824 38.5084 82.0728 38.0784C81.9631 37.6484 82.2194 37.2167 82.674 37.1008C83.1286 36.9849 83.5572 37.2289 83.6637 37.6466C83.7764 38.0889 83.5324 38.5175 83.0655 38.6365ZM84.4553 46.5515L82.7953 40.04L83.9747 39.7393L85.6348 46.2509L84.4553 46.5515ZM91.3377 37.8622L92.4557 37.5772L93.8902 43.2041C94.4759 45.5016 93.575 46.8435 91.3635 47.4073C90.1718 47.7111 88.8832 47.6863 88.0078 47.2291L88.3411 46.1759C89.0747 46.5384 90.1053 46.6289 91.0636 46.3846C92.5993 45.9931 93.1179 45.102 92.7421 43.6277L92.6105 43.1117C92.2176 43.9315 91.4545 44.4793 90.5208 44.7174C88.641 45.1966 86.8901 44.2822 86.4109 42.4024C85.9317 40.5227 87.0342 38.8939 88.914 38.4147C89.8845 38.1673 90.86 38.298 91.5945 38.8697L91.3377 37.8622ZM90.3928 43.6509C91.6951 43.3189 92.4064 42.2085 92.087 40.9554C91.7644 39.6899 90.6145 39.0803 89.3122 39.4123C87.9976 39.7474 87.28 40.8332 87.6026 42.0986C87.9221 43.3518 89.0782 43.986 90.3928 43.6509ZM98.1705 36.0548C99.7554 35.6508 101.105 36.2749 101.594 38.1915L102.549 41.9387L101.37 42.2394L100.449 38.6273C100.123 37.3496 99.3245 36.8859 98.2065 37.1709C96.9533 37.4904 96.3335 38.4466 96.6937 39.8595L97.5488 43.2135L96.3693 43.5142L94.7093 37.0027L95.8396 36.7145L96.0901 37.6974C96.4002 36.9118 97.1385 36.3179 98.1705 36.0548ZM109.832 36.6538C109.857 36.7521 109.883 36.9027 109.898 37.0164L104.616 38.3632C105.054 39.4682 106.17 39.9951 107.46 39.6662C108.222 39.472 108.795 39.0511 109.139 38.4007L109.985 38.9964C109.57 39.8347 108.767 40.432 107.686 40.7076C105.585 41.2432 103.831 40.2119 103.336 38.2708C102.844 36.3419 103.878 34.5996 105.758 34.1204C107.638 33.6412 109.322 34.6512 109.832 36.6538ZM106.012 35.1156C104.882 35.4037 104.24 36.3785 104.399 37.5155L108.577 36.4506C108.175 35.3884 107.155 34.8243 106.012 35.1156ZM112.04 33.749C112.263 32.8808 112.974 32.2809 114.116 31.9896L114.408 33.1322C114.306 33.145 114.22 33.1669 114.134 33.1888C112.869 33.5114 112.28 34.4859 112.643 35.9111L113.47 39.1545L112.291 39.4552L110.631 32.9437L111.761 32.6555L112.04 33.749Z" fill="black"/>
<path d="M257.689 54.8233L253.96 50.982L264.55 40.6543L250.753 43.9354L248.962 42.0906L252.45 28.6433L242.063 38.7249L238.335 34.8836L256.025 17.7128L259.312 21.0993L254.746 38.391L272.068 34.2409L275.33 37.6021L257.689 54.8233ZM278.898 45.6771C277.475 44.2113 277.479 42.2936 278.717 41.0916C279.956 39.8897 281.873 39.9432 283.295 41.409C284.718 42.8747 284.765 44.7434 283.552 45.9209C282.238 47.1964 280.321 47.1429 278.898 45.6771ZM261.493 58.7425L275.089 45.5456L278.916 49.4881L265.319 62.685L261.493 58.7425ZM290.691 61.2148C293.806 64.4244 294.29 68.6657 290.146 72.6885L282.362 80.2437L278.535 76.3012L285.713 69.3348C287.911 67.2007 287.941 65.2086 286.249 63.4649C284.409 61.5694 281.922 61.3331 279.42 63.7615L272.697 70.2864L268.871 66.3439L282.467 53.147L286.122 56.9126L284.53 58.4579C286.723 58.391 288.9 59.3699 290.691 61.2148ZM304.952 75.9082C308.975 80.0529 309.385 84.318 305.265 88.3163L297.507 95.8469L293.925 92.1571L295.619 90.5137C293.669 90.9827 291.638 90.2052 289.7 88.2087C286.61 85.0244 286.539 81.4119 288.889 79.1307C291.29 76.8004 294.602 76.8747 298.624 81.0193L301.666 84.1531C303.359 82.5096 303.364 80.542 301.303 78.4192C299.905 76.9787 297.978 75.9537 296.238 75.7285L297.619 71.6395C300.127 72.1003 302.843 73.7348 304.952 75.9082ZM293.311 86.6187C294.586 87.9329 296.297 88.4814 297.976 87.7344L299.366 86.3853L296.742 83.6811C294.951 81.8363 293.704 81.9173 292.795 82.8004C291.809 83.757 291.961 85.2288 293.311 86.6187ZM310.806 109.549L311.969 100.077L308.259 99.9969L304.797 103.357L300.97 99.415L319.722 81.2141L323.549 85.1565L312.934 95.4589L323.986 95.9226L328.548 100.623L317.292 100.555L315.442 114.326L310.806 109.549ZM322.666 122.172C318.471 117.851 318.311 111.871 322.405 107.897C326.5 103.923 332.472 104.261 336.667 108.583C340.861 112.904 340.997 118.859 336.902 122.833C332.808 126.807 326.86 126.494 322.666 122.172ZM325.901 119.032C327.814 121.004 330.676 121.121 333.027 118.84C335.377 116.559 335.345 113.694 333.432 111.723C331.519 109.751 328.631 109.609 326.281 111.89C323.931 114.171 323.987 117.061 325.901 119.032Z" fill="black"/>
<path d="M327.397 152.118C329.306 145.375 334.302 142.47 341.282 144.447L354.566 148.208L353.011 153.698L339.931 149.994C335.424 148.718 333.004 150.155 332.064 153.476C331.114 156.831 332.43 159.29 336.937 160.567L350.018 164.27L348.482 169.692L335.199 165.931C328.218 163.954 325.487 158.862 327.397 152.118ZM320.565 176.761C322.244 170.831 327.341 167.699 332.83 169.253C338.32 170.808 341.017 176.147 339.338 182.077C338.254 185.906 335.739 188.452 332.383 188.929L331.342 184.205C333.348 183.712 334.54 182.475 335.01 180.815C335.768 178.138 334.5 175.509 331.314 174.607C328.129 173.705 325.67 175.278 324.912 177.955C324.442 179.616 324.775 181.284 326.259 182.766L322.861 186.233C320.321 184.086 319.481 180.59 320.565 176.761ZM333.063 204.236C331.845 208.54 328.416 211.083 322.858 209.509L312.421 206.554L313.918 201.267L323.542 203.992C326.49 204.827 328.23 203.856 328.892 201.517C329.611 198.976 328.571 196.705 325.216 195.755L316.202 193.202L317.699 187.916L342.843 195.036L341.346 200.322L332.535 197.827C333.556 199.654 333.725 201.898 333.063 204.236ZM331.089 219.871C331.645 217.905 333.307 216.948 334.967 217.419C336.628 217.889 337.541 219.575 336.985 221.54C336.428 223.506 334.834 224.482 333.208 224.021C331.445 223.522 330.532 221.836 331.089 219.871ZM311.064 211.345L329.295 216.508L327.799 221.794L309.568 216.632L311.064 211.345ZM329.561 241.942L328.064 247.228L302.92 240.108L304.349 235.059L306.45 235.654C305.232 233.881 305 231.729 305.69 229.289C307.149 224.138 311.932 221.21 317.658 222.831C323.385 224.453 325.922 229.454 324.464 234.605C323.83 236.841 322.581 238.538 320.716 239.437L329.561 241.942ZM309.769 231.432C309.03 234.041 310.352 236.612 313.503 237.504C316.655 238.397 319.128 236.901 319.867 234.292C320.616 231.648 319.294 229.078 316.142 228.186C312.991 227.293 310.517 228.789 309.769 231.432ZM317.954 257.593C316.38 263.151 312.893 265.64 307.37 264.076L296.967 261.13L298.368 256.183L300.638 256.826C299.256 255.373 298.912 253.226 299.67 250.549C300.879 246.279 303.971 244.409 307.123 245.302C310.342 246.213 311.935 249.117 310.362 254.674L309.172 258.876C311.442 259.519 313.148 258.538 313.954 255.692C314.501 253.76 314.423 251.578 313.747 249.959L317.978 249.108C318.835 251.51 318.779 254.679 317.954 257.593ZM302.854 252.878C302.355 254.64 302.737 256.395 304.224 257.475L306.088 258.003L307.115 254.377C307.815 251.904 307.121 250.865 305.901 250.52C304.58 250.145 303.382 251.014 302.854 252.878Z" fill="black"/>
<path d="M210.939 26.7538L62.0492 64.3618L20.1738 212.108L127.188 322.246L276.078 284.638L317.953 136.892L210.939 26.7538ZM212.732 20.4272L324.329 135.282L280.66 289.354L125.395 328.573L13.7982 213.718L57.4667 59.6456L212.732 20.4272Z" fill="black"/>
<path d="M149.486 72.0533L152.174 66.9822L146.935 61.3324L144.811 56.1623L144.103 46.8425L145.519 35.5201L147.217 26.581L151.549 18.7916L156.514 14.2611L165.719 10.8575L172.686 10.6367L179.296 11.7408L185.318 15.6774L190.009 22.6216L193.115 33.2282L193.824 44.9922L192.552 54.2207L190.854 57.1674L189.438 62.8553L187.481 64.972L184.169 67.8883L181.481 67.4771C180.316 67.302 179.181 66.9822 178.1 66.5253C176.692 65.939 175.199 65.5736 173.676 65.4517L170.379 65.1852L168.872 66.4492L170.905 73.4695L152.745 75.0305L149.486 72.0533Z" fill="white"/>
<path d="M140.608 179.994C137.859 179.4 135.24 178.829 132.62 178.265C132.559 178.25 132.506 178.235 132.445 178.227C130.534 178.068 130.564 177.984 130.93 176.05C131.364 173.773 131.615 171.466 131.912 169.166C132.194 166.981 132.422 164.788 132.673 162.595C133.031 159.542 133.435 156.489 133.747 153.428C134.135 149.598 134.455 145.76 134.798 141.923C135.057 139.022 135.201 136.105 135.575 133.22C135.978 130.136 136.641 127.09 137.082 124.014C137.311 122.43 137.25 120.801 137.379 119.202C137.615 116.316 137.897 113.438 138.141 110.552C138.316 108.504 138.468 106.455 138.59 104.4C138.658 103.242 138.59 102.077 138.658 100.92C138.818 98.4757 138.986 96.0239 139.252 93.5874C139.526 91.0442 139.717 88.4706 140.333 86.0036C140.981 83.3919 141.971 80.8563 143.014 78.3665C143.539 77.1101 144.552 76.0746 145.252 74.8868C145.945 73.6989 146.585 72.4654 147.141 71.2091C147.719 69.907 148.207 69.6558 149.554 70.303C149.882 69.7624 150.628 68.9857 150.468 68.6964C150.026 67.8817 150.674 66.8918 149.615 66.1075C147.491 64.5466 146.158 62.2547 145.054 59.8715C143.295 56.0643 143.135 52.0212 143.402 47.9247C143.577 45.2978 143.737 42.6632 144.026 40.0439C144.293 37.6683 144.78 35.3155 145.07 32.9398C145.519 29.285 146.333 25.7672 148.115 22.4931C149.828 19.3408 151.983 16.6682 154.976 14.5819C156.712 13.3712 158.493 12.3204 160.443 11.5895C162.133 10.9575 163.938 10.6453 165.681 10.158C168.08 9.48794 170.372 10.2418 172.686 10.6301C173.151 10.7062 173.653 10.9956 173.395 11.5438C173.288 11.7722 172.679 11.8788 172.313 11.8484C170.661 11.6808 169.001 11.2392 167.364 11.2925C165.887 11.3458 164.41 11.8484 162.963 12.2595C159.141 13.356 155.729 15.2291 152.943 18.0997C151.153 19.9499 149.935 22.1809 148.884 24.5185C147.323 27.9982 146.707 31.6683 146.333 35.4297C146.143 37.379 145.633 39.2977 145.397 41.247C145.191 42.9297 145.168 44.6277 145.085 46.3257C145.001 48.0846 144.902 49.8435 144.879 51.6024C144.841 55.5313 145.938 59.1177 148.176 62.3689C149.585 64.4248 151.45 65.9019 153.643 67.0289C153.932 67.1811 154.085 67.6152 154.298 67.9121C153.917 67.9883 153.537 68.0949 153.156 68.1177C152.965 68.1329 152.76 67.9883 152.768 67.9883C152.219 68.9248 151.702 69.8081 151.1 70.8284C152.052 71.0644 152.981 71.4147 153.94 71.506C156.11 71.704 158.295 71.9477 160.466 71.8487C162.278 71.7725 164.067 71.2472 165.872 70.9121C166.664 70.7675 167.463 70.638 168.24 70.4248C168.438 70.3715 168.735 69.9603 168.681 69.8233C168.27 68.6583 168.613 67.5238 168.872 66.4426C169.131 65.3766 169.625 64.341 170.174 63.3816C170.349 63.0771 171.072 62.8791 171.483 62.9552C172.846 63.2065 174.194 63.5796 175.527 63.9679C176.478 64.242 177.217 63.907 177.978 63.374C180.879 61.341 183.141 58.7141 185.075 55.7978C186.377 53.841 186.826 51.5491 187.222 49.2876C187.572 47.2927 187.694 45.2521 187.907 43.2343C187.953 42.8155 187.991 42.3891 187.983 41.9627C187.892 39.0693 188.022 36.1378 187.603 33.2901C187.313 31.3332 186.392 29.4297 185.524 27.6175C184.549 25.5845 183.171 23.8027 181.192 22.5921C181.032 22.4931 181.016 22.1581 180.933 21.9372C181.245 21.823 181.633 21.5337 181.862 21.6251C182.44 21.8611 182.996 22.2114 183.483 22.6073C185.372 24.1454 186.765 26.0566 187.641 28.3484C188.113 29.5896 188.829 30.7774 189.08 32.0566C189.43 33.8536 189.483 35.719 189.605 37.5617C189.75 39.6632 189.75 41.7724 189.956 43.8663C190.306 47.544 190.755 51.2064 191.166 54.8765C191.174 54.9526 191.242 55.0212 191.379 55.2801C191.623 54.4729 191.92 53.8334 191.989 53.1709C192.278 50.4298 192.567 47.681 192.712 44.9247C192.834 42.6252 192.773 40.3181 192.742 38.0109C192.704 34.9957 192.034 32.0642 191.318 29.1556C190.907 27.488 190.504 25.7824 189.818 24.2139C188.6 21.4423 187.207 18.724 184.991 16.5844C183.247 14.9017 181.108 13.8052 178.854 12.9524C178.511 12.823 178.146 12.7468 177.841 12.5641C177.643 12.4499 177.537 12.1834 177.384 11.9854C177.613 11.8331 177.856 11.5209 178.054 11.5438C178.945 11.6656 179.867 11.7874 180.712 12.092C184.511 13.4778 187.351 16.0057 189.339 19.5311C191.181 22.8053 192.483 26.2545 193.253 29.9474C194.09 33.9754 194.676 38.0185 194.524 42.1302C194.387 46.0516 194.402 50.0034 193.397 53.841C193.115 54.9146 192.834 56.1405 192.141 56.9247C190.725 58.5161 191.075 60.5796 190.298 62.3156C189.674 63.7014 189.118 65.0644 187.679 65.8487C186.491 66.4882 185.364 67.2573 184.176 67.8893C183.948 68.0111 183.521 67.7598 183.194 67.6837C183.377 67.4172 183.499 67.0822 183.742 66.8918C184.694 66.1684 185.722 65.5441 186.636 64.775C188.722 63.0314 189.4 60.61 189.445 58.0364C189.491 55.7445 189.27 53.4526 189.156 51.1531C189.141 50.841 189.049 50.5288 188.798 50.209C188.631 50.9247 188.555 51.6861 188.273 52.3562C187.572 53.9856 186.697 55.5466 186.034 57.1912C185.486 58.5694 185.197 60.039 184.709 61.4476C183.872 63.8537 182.516 65.8867 180.217 67.1202C179.912 67.2801 179.448 67.1507 179.06 67.1507C179.166 66.7471 179.143 66.2217 179.395 65.9705C180.628 64.7598 181.816 63.5339 182.41 61.7979C182.098 62.072 181.785 62.3537 181.466 62.6278C180.453 63.473 179.463 64.3334 178.412 65.1329C176.752 66.4045 175.054 65.8486 173.379 65.1329C172.938 64.9426 172.534 64.6608 172.1 64.4552C171.62 64.2344 171.072 64.1278 170.958 64.8207C170.73 66.138 169.945 67.3106 170.12 68.7573C170.242 69.7852 170.547 70.6609 171.369 71.1939C172.443 71.8944 173.653 72.3741 174.742 73.0441C177.308 74.6127 178.877 77.0188 180.087 79.6761C181.07 81.831 181.862 84.0772 182.958 86.1787C183.765 87.732 184.915 89.1026 185.912 90.5645C187.557 92.9782 189.407 95.2854 190.763 97.859C191.775 99.7854 191.981 102.07 191.121 104.247C190.648 105.443 190.085 106.6 189.651 107.803C189.529 108.146 189.621 108.633 189.765 108.991C191.189 112.509 192.666 116.004 194.09 119.522C195.27 122.438 196.435 125.369 197.547 128.316C198.407 130.6 199.154 132.923 200.014 135.207C201.133 138.161 202.329 141.093 203.463 144.039C204.027 145.501 204.476 147.009 205.077 148.456C205.801 150.177 206.646 151.844 207.407 153.55C208.336 155.628 209.197 157.737 210.171 159.793C210.91 161.362 211.824 162.839 212.6 164.392C213.621 166.433 214.58 168.504 215.562 170.56C216.24 171.968 216.895 173.392 217.618 174.786C217.869 175.273 218.364 175.76 217.854 176.232C217.405 176.644 216.788 176.994 216.194 177.085C214.892 177.283 213.537 177.184 212.242 177.436C211.359 177.611 210.529 178.121 209.722 178.57C208.039 179.499 206.379 180.489 204.727 181.441C205.435 183.641 206.128 185.788 206.806 187.936C207.43 189.9 208.024 191.88 208.664 193.837C209.227 195.55 209.897 197.233 210.407 198.953C211.458 202.471 212.448 206.012 213.43 209.552C214.352 212.865 215.204 216.192 216.149 219.497C216.864 221.987 217.778 224.431 218.425 226.936C219.225 230.027 219.826 233.164 220.557 236.271C220.976 238.045 221.524 239.796 221.966 241.57C222.225 242.606 222.354 243.664 222.621 244.7C223.116 246.649 223.679 248.583 224.189 250.532C224.623 252.185 225.042 253.845 225.43 255.504C226.192 258.786 226.923 262.083 227.677 265.373C228.659 269.637 229.626 273.908 230.646 278.165C231.194 280.456 231.895 282.71 232.451 285.002C232.847 286.624 233.075 288.276 233.463 289.898C234.057 292.396 234.758 294.87 235.344 297.368C235.801 299.325 236.121 301.319 236.578 303.276C237.164 305.781 237.864 308.264 238.451 310.776C238.862 312.505 239.166 314.256 239.524 315.992C239.639 316.548 239.745 317.104 239.859 317.66C240.065 318.718 239.722 319.754 238.215 319.822C235.732 319.936 233.319 319.571 230.897 319.175C227.707 318.657 224.57 318.68 221.479 319.776C218.608 320.797 215.692 321.703 212.806 322.693C210.811 323.378 208.885 324.299 206.844 324.764C204.529 325.289 202.222 325.959 199.74 325.746C198.179 325.609 196.565 325.906 195.011 325.426C193.549 324.969 192.072 324.543 190.626 324.048C189.011 323.492 187.382 322.944 185.813 322.274C184.443 321.688 183.11 320.987 181.808 320.248C179.973 319.205 178.176 318.078 176.364 316.982C176.113 316.83 175.869 316.685 175.473 316.449C175.382 317.233 175.275 317.941 175.222 318.642C175.047 320.789 174.879 322.936 174.742 325.084C174.529 328.304 174.544 331.479 175.999 334.502C177.598 337.83 179.966 340.152 183.666 340.967C187.938 341.911 192.202 342.832 196.58 343.16C197.341 343.221 198.194 343.358 198.819 343.761C199.412 344.15 199.763 344.926 200.212 345.535C200.242 345.581 200.22 345.665 200.25 345.711C201.598 347.675 200.212 348.931 198.933 349.975C197.608 351.056 196.085 351.954 194.516 352.64C193.489 353.089 192.247 353.074 191.09 353.195C188.075 353.5 185.128 354.041 182.288 355.137C179.151 356.348 176.006 357.543 172.854 358.693C171.712 359.112 170.547 359.142 169.321 358.853C168.011 358.541 166.603 358.624 165.308 358.282C164.021 357.939 162.757 357.383 161.6 356.721C160.61 356.157 159.963 355.206 160.062 353.949C160.199 352.213 160.351 350.485 160.488 348.749C160.511 348.421 160.526 348.086 160.519 347.759C160.496 346.289 160.488 344.812 160.405 343.343C160.382 342.909 160.184 342.452 159.948 342.071C159.613 341.538 159.141 341.096 158.798 340.571C158.334 339.855 158.394 339.033 159.186 338.736C160.146 338.37 160.892 337.243 162.141 337.769C163.549 335.15 163.945 332.264 164.014 329.325C164.044 328.16 163.755 326.995 163.686 325.83C163.61 324.642 163.633 323.454 163.603 322.266C163.572 320.827 163.542 319.388 163.496 317.949C163.45 316.502 163.359 315.056 163.351 313.616C163.351 312.863 163.191 312.436 162.316 312.429C161.653 312.421 160.999 312.185 160.298 312.04C159.735 314.987 159.133 317.82 158.661 320.667C158.41 322.183 158.501 323.759 158.25 325.274C157.93 327.2 157.412 329.096 157.001 331.007C156.887 331.533 156.864 332.081 156.826 332.629C156.719 334.16 156.757 335.713 156.499 337.221C156.072 339.634 156.034 342.048 156.422 344.439C156.597 345.505 157.306 346.487 157.793 347.492C158.6 349.129 159.004 350.835 158.577 352.632C158.471 353.089 158.052 353.538 157.663 353.858C156.712 354.627 155.745 355.487 154.374 355.228C153.285 355.023 152.204 354.756 151.13 354.452C147.575 353.454 144.133 352.137 141.278 349.754C140.075 348.749 139.077 347.439 139.191 345.551C139.313 343.525 139.108 341.477 139.062 339.444C139.031 338.127 138.955 336.794 139.062 335.485C139.138 334.571 139.45 333.665 139.724 332.782C140.143 331.426 140.783 330.216 141.689 329.073C142.877 327.581 143.806 325.875 144.788 324.231C145.938 322.304 147.095 320.37 148.123 318.375C149.341 316 149.965 313.441 150.163 310.784C148.587 310.38 147.049 310.015 145.526 309.589C144.879 309.406 144.27 309.109 143.638 308.858C141.932 308.172 140.204 307.525 138.521 306.779C137.585 306.36 136.724 305.781 135.826 305.271C135.674 305.187 135.514 305.028 135.361 305.028C134.059 305.066 133.275 304.053 132.346 303.429C131.904 303.139 131.752 302.248 131.684 301.601C131.417 299.241 131.219 296.873 131.029 294.505C130.953 293.583 130.93 292.662 130.915 291.741C130.884 289.563 130.869 287.378 130.846 285.2C130.838 284.279 130.823 283.357 130.823 282.436C130.823 280.715 130.778 278.987 130.877 277.266C131.036 274.51 131.288 271.761 131.524 269.005C131.638 267.703 131.844 266.4 131.92 265.098C131.988 263.941 131.92 262.776 131.92 261.619C131.935 259.669 131.965 257.72 131.988 255.771C132.003 254.751 131.95 253.715 132.042 252.702C132.323 249.71 132.742 246.725 132.963 243.733C133.146 241.289 133.039 238.822 133.214 236.377C133.443 233.294 133.846 230.225 134.143 227.149C134.371 224.789 134.509 222.421 134.752 220.06C134.988 217.799 135.247 215.53 135.59 213.283C135.986 210.733 136.572 208.205 136.915 205.646C137.212 203.408 137.273 201.131 137.455 198.877C137.676 196.25 137.958 193.631 138.148 191.004C138.361 188.088 138.963 185.248 139.77 182.446C140.006 181.631 140.311 180.831 140.592 180.002L140.608 179.994ZM148.587 71.7192C148.443 72.138 148.359 72.5644 148.153 72.9223C147.483 74.1253 146.783 75.3056 146.067 76.4781C144.727 78.6634 143.623 80.9477 142.991 83.4452C142.473 85.5086 141.811 87.5493 141.483 89.6356C141.118 91.9579 141.034 94.3336 140.874 96.6864C140.691 99.4656 140.562 102.26 140.41 105.039C140.311 106.851 140.227 108.664 140.082 110.476C139.854 113.27 139.549 116.049 139.313 118.844C139.138 120.953 139.108 123.07 138.849 125.164C138.506 127.928 137.912 130.661 137.592 133.425C137.288 136.014 137.212 138.633 136.998 141.237C136.732 144.512 136.443 147.786 136.123 151.06C135.795 154.418 135.468 157.776 135.072 161.126C134.539 165.633 133.945 170.133 133.389 174.641C133.146 176.651 133.161 176.651 135.125 177.062C135.186 177.078 135.24 177.101 135.3 177.108C138.445 177.359 141.46 178.09 144.278 179.529C144.894 179.842 145.412 180.367 145.953 180.824C146.722 181.471 147.354 182.438 148.237 182.758C149.965 183.382 151.801 183.755 153.62 184.052C155.76 184.403 157.953 184.486 160.092 184.837C162.095 185.164 164.075 185.248 166.092 185.035C167.661 184.867 169.245 184.768 170.829 184.73C172.565 184.692 174.308 184.852 176.044 184.768C178.648 184.639 181.237 184.357 183.925 184.136C183.59 183.527 183.194 182.903 182.897 182.24C182.098 180.474 181.359 178.684 180.552 176.925C179.364 174.329 178.146 171.74 176.92 169.159C175.618 166.41 174.346 163.646 172.983 160.935C171.514 158.004 169.922 155.133 168.43 152.21C167.311 150.024 166.222 147.824 165.217 145.593C164.448 143.887 163.801 142.121 163.138 140.369C162.879 139.692 162.788 138.953 162.544 138.268C161.646 135.747 161.341 133.181 161.615 130.509C161.836 128.385 161.882 126.237 161.966 124.098C161.973 123.892 161.722 123.504 161.562 123.489C160.922 123.412 160.268 123.527 159.636 123.435C157.085 123.062 156.499 122.75 156.202 120.176C156.163 119.826 156.11 119.476 156.064 119.118C155.691 116.103 155.181 113.103 154.976 110.072C154.724 106.265 154.694 102.435 154.618 98.6128C154.557 95.7422 154.549 92.8792 154.564 90.0087C154.572 88.4706 154.648 86.9249 154.74 85.3868C154.801 84.4579 155.166 84.2447 156.171 84.435C156.171 85.9883 156.171 87.5493 156.171 89.1102C156.186 92.6127 156.103 96.1229 156.24 99.6255C156.445 104.704 156.803 109.783 157.115 114.862C157.146 115.364 157.306 115.859 157.389 116.354C157.473 116.857 157.549 117.359 157.656 118.037C157.861 117.717 157.953 117.603 158.021 117.466C160.298 113.202 163.382 109.524 166.664 106.029C169.054 103.478 171.666 101.133 174.232 98.7498C175.664 97.425 177.27 96.298 179.128 95.628C179.996 95.3158 180.902 95.0569 181.808 94.897C183.727 94.5696 185.608 94.7295 187.458 95.6585C187.412 95.4072 187.428 95.2625 187.367 95.1788C186.377 93.8691 185.349 92.5823 184.397 91.2498C183.24 89.6356 181.983 88.067 181.062 86.3234C179.897 84.1305 179.021 81.7853 178.039 79.4934C176.905 76.8436 175.07 74.8411 172.511 73.5162C172.329 73.4172 171.925 73.4401 171.803 73.5771C171.4 74.0035 171.156 73.8512 170.889 73.4629C170.455 72.8233 170.014 72.1837 169.549 71.5137C162.575 73.8436 155.6 74.5289 148.58 71.704L148.587 71.7192ZM188.463 109.92C187.237 111.131 186.065 112.364 184.824 113.506C182.92 115.265 180.994 117.001 179.006 118.661C178.184 119.354 177.613 120.024 177.62 121.174C177.643 123.626 177.499 126.077 177.582 128.522C177.643 130.296 177.864 132.077 178.199 133.821C178.534 135.58 179.105 137.293 179.554 139.029C180.027 140.864 180.422 142.722 180.94 144.542C181.565 146.735 182.288 148.905 182.966 151.083C183.453 152.636 183.879 154.212 184.428 155.743C185.174 157.829 186.103 159.847 186.796 161.948C187.785 164.948 188.608 168.001 189.544 171.017C190.534 174.184 191.577 177.344 192.628 180.489C192.697 180.687 193.032 180.9 193.253 180.915C194.349 180.991 195.468 181.113 196.557 181.007C198.978 180.778 201.415 180.733 203.631 179.385C205.511 178.243 207.56 177.344 209.585 176.461C210.666 175.989 211.854 175.692 213.019 175.486C213.887 175.334 214.808 175.456 215.623 175.456C215.204 174.314 214.93 173.255 214.451 172.304C212.814 169.037 211.009 165.854 209.448 162.557C207.902 159.276 206.585 155.88 205.146 152.545C204.567 151.197 203.844 149.902 203.326 148.532C201.727 144.344 200.22 140.126 198.636 135.93C197.486 132.885 196.291 129.862 195.095 126.839C194.098 124.311 193.07 121.791 192.042 119.27C191.242 117.313 190.382 115.379 189.613 113.407C189.171 112.273 188.851 111.085 188.471 109.897L188.463 109.92ZM177.56 98.1712C175.877 99.5189 174.255 100.57 172.938 101.917C170.349 104.56 167.889 107.346 165.453 110.133C164.859 110.811 164.219 111.702 164.158 112.532C163.938 115.6 163.945 118.692 163.877 121.768C163.816 124.136 163.877 126.511 163.679 128.872C163.405 132.085 163.473 135.245 164.6 138.298C165.598 140.986 166.641 143.659 167.752 146.301C168.598 148.319 169.534 150.306 170.524 152.255C172.047 155.263 173.691 158.202 175.199 161.21C176.539 163.882 177.773 166.616 179.044 169.326C180.011 171.39 180.978 173.461 181.93 175.532C182.958 177.763 183.925 180.024 184.999 182.233C185.989 184.266 187.07 186.268 187.336 188.545C187.496 189.931 187.534 191.332 187.527 192.733C187.519 195.131 187.428 197.53 187.991 199.882C188.219 200.834 188.448 201.748 189.156 202.563C190.846 204.497 192.461 206.507 192.666 209.271C192.78 210.778 193.062 212.233 192.362 213.702C191.874 214.73 191.6 215.865 191.296 216.969C191.219 217.235 191.402 217.578 191.471 217.882C191.76 217.783 192.194 217.768 192.316 217.563C192.902 216.603 193.473 215.621 193.93 214.585C194.646 212.971 194.486 211.212 194.692 209.507C194.806 208.555 195.194 207.626 195.552 206.72C195.628 206.537 196.108 206.507 196.397 206.415C196.466 206.705 196.595 207.002 196.58 207.291C196.511 208.365 196.412 209.438 196.291 210.504C196.138 211.844 196.146 213.245 195.72 214.502C195.263 215.842 194.395 217.045 193.61 218.476C193.907 218.431 194.273 218.476 194.44 218.324C194.981 217.806 195.522 217.258 195.917 216.634C196.458 215.789 196.709 214.723 197.364 213.999C197.92 213.39 198.088 212.766 198.148 212.073C198.225 211.113 198.148 210.139 198.225 209.172C198.286 208.426 198.453 207.687 198.651 206.956C198.697 206.781 199.085 206.53 199.237 206.583C199.466 206.659 199.679 206.933 199.793 207.169C199.869 207.329 199.74 207.58 199.74 207.794C199.74 209.088 199.74 210.382 199.74 211.669C199.831 211.669 199.923 211.669 200.014 211.677C200.128 211.464 200.265 211.266 200.357 211.045C200.448 210.824 200.524 210.588 200.555 210.352C200.92 207.558 200.966 204.794 199.77 202.151C198.704 199.814 197.615 197.491 196.549 195.154C195.286 192.398 193.915 189.672 193.45 186.618C193.42 186.398 193.268 186.078 193.1 186.017C192.339 185.758 192.179 185.088 191.989 184.479C191.121 181.707 190.321 178.913 189.43 176.149C188.448 173.103 187.382 170.08 186.377 167.042C185.684 164.933 185.09 162.793 184.374 160.692C183.065 156.854 181.679 153.039 180.362 149.194C179.844 147.671 179.425 146.11 178.991 144.557C178.29 142.044 177.59 139.524 176.958 136.996C176.44 134.918 175.877 132.824 175.603 130.707C175.359 128.811 175.466 126.869 175.458 124.95C175.458 123.884 175.481 122.811 175.565 121.745C175.679 120.321 175.9 118.897 176.006 117.473C176.143 115.646 176.181 113.811 176.326 111.991C176.463 110.308 176.707 108.633 176.889 106.958C176.996 106.014 177.08 105.062 177.156 104.11C177.301 102.237 177.422 100.364 177.582 98.1788L177.56 98.1712ZM161.897 353.721C161.897 353.721 161.859 353.82 161.867 353.873C162.217 355.655 163.625 356.157 165.118 356.5C166.344 356.774 167.615 356.843 168.818 357.17C170.387 357.596 171.849 357.322 173.303 356.797C176.364 355.7 179.364 354.398 182.478 353.492C185.28 352.678 188.181 352.213 191.067 351.726C193.785 351.269 196.154 350.15 198.308 348.505C198.59 348.284 198.879 347.881 198.902 347.546C198.986 346.274 197.836 345.094 196.527 344.98C195.126 344.85 193.694 344.865 192.331 344.553C188.707 343.716 184.945 343.396 181.892 341.919C180.11 342.848 178.626 343.708 177.065 344.424C175.93 344.941 174.59 345.086 173.554 345.733C171.91 346.761 170.204 347.081 168.384 346.731C167.768 346.609 166.999 346.145 166.717 345.612C165.955 344.165 164.851 343.35 163.283 343.099C162.948 343.046 162.605 343.061 162.422 343.053C162.278 344.629 162.065 346.061 162.042 347.5C162.019 348.962 162.194 350.424 162.285 351.848C162.925 352.038 163.542 352.228 164.257 352.442C163.351 349.723 163.641 347.172 164.318 344.645C164.379 344.409 164.714 344.249 165.057 343.936C165.103 344.401 165.125 344.606 165.133 344.812C165.141 345.025 165.171 345.246 165.133 345.452C164.73 347.82 164.874 350.157 165.529 352.464C165.598 352.693 165.849 353.035 166.039 353.043C167.387 353.127 168.78 353.363 170.067 353.112C171.872 352.754 173.608 352.015 175.374 351.452C175.595 351.383 175.922 351.322 176.082 351.436C176.478 351.711 176.966 352.015 177.118 352.426C177.4 353.157 176.608 353.005 176.265 353.127C175.153 353.523 174.019 353.873 172.877 354.185C171.856 354.467 170.775 354.574 169.793 354.947C168.468 355.449 167.136 355.518 165.826 355.152C164.501 354.779 163.222 354.223 161.889 353.728L161.897 353.721ZM164.966 312.954C164.996 313.411 165.011 313.731 165.034 314.05C165.491 320.02 166.504 325.974 166.07 331.982C165.948 333.71 165.323 335.424 164.828 337.106C164.486 338.271 163.694 339.261 164.737 340.586C165.247 341.233 165.636 341.865 166.374 342.315C166.907 342.634 167.326 343.19 167.691 343.716C168.537 344.949 169.032 345.238 170.478 344.85C171.445 344.584 172.344 344.073 173.288 343.723C175.405 342.947 177.537 342.208 179.653 341.447C179.752 341.408 179.829 341.309 180.004 341.165C179.593 340.929 179.235 340.731 178.884 340.525C178.458 340.274 177.971 340.091 177.62 339.756C174.483 336.771 172.671 333.155 172.618 328.769C172.603 327.52 172.732 326.264 172.831 325.015C173.067 322.16 173.235 319.304 173.615 316.472C173.745 315.528 173.402 315.345 172.709 315.124C170.988 314.583 169.29 313.974 167.57 313.464C166.747 313.221 165.879 313.122 164.966 312.939V312.954ZM178.115 117.176C178.207 117.237 178.298 117.298 178.389 117.359C180.506 115.372 182.593 113.346 184.747 111.397C186.994 109.372 188.676 107.004 189.605 104.103C190.093 102.58 190.146 101.049 189.735 99.5417C189.567 98.9402 189.171 98.2473 188.669 97.9123C186.095 96.1914 183.301 95.7118 180.346 96.8082C179.859 96.9909 179.273 97.3564 179.09 97.7904C178.846 98.3615 178.93 99.0849 178.915 99.7397C178.869 101.902 178.922 104.072 178.778 106.227C178.587 109.014 178.207 111.793 177.986 114.58C177.917 115.44 178.077 116.316 178.131 117.184L178.115 117.176ZM148.176 323.606C147.559 326.842 147.232 330.185 144.514 332.789C145.694 332.987 146.615 333.147 147.514 333.299C147.932 331.67 148.267 330.078 148.755 328.533C149.196 327.132 149.767 325.776 150.339 324.429C150.43 324.208 150.841 324.124 151.1 323.972C151.108 324.246 151.146 324.512 151.123 324.779C151.108 324.954 150.978 325.114 150.925 325.282C150.118 328.152 149.311 331.03 148.511 333.893C150.491 334.647 151.58 336.01 152.09 337.723C152.783 340.053 152.448 342.429 151.96 344.782C151.785 345.619 151.389 346.594 151.648 347.302C152.334 349.205 153.004 351.178 154.61 352.586C154.93 352.86 155.136 353.378 155.729 353.013C156.331 352.64 157.13 352.419 156.971 351.49C156.841 350.728 156.666 349.952 156.369 349.236C155.463 347.089 154.115 345.101 154.237 342.619C154.306 341.264 154.115 339.863 154.397 338.561C154.907 336.147 155.311 333.741 155.356 331.274C155.379 330.147 155.105 329.218 154.229 328.449C153.247 327.589 152.531 326.561 152.189 325.236C152.006 324.543 151.412 323.896 150.872 323.37C150.399 322.921 149.775 322.723 149.158 323.37C148.96 323.584 148.481 323.53 148.191 323.591L148.176 323.606ZM156.316 328.129C156.4 327.2 156.567 326.393 156.521 325.594C156.369 322.518 156.795 319.518 157.641 316.571C157.991 315.36 158.433 314.172 158.813 312.969C159.11 312.048 158.973 311.858 158.021 311.751C156.026 311.53 154.031 311.309 152.113 311.104C151.595 313.281 151.1 315.375 150.597 317.5C151.199 317.614 151.702 317.69 152.196 317.82C153.94 318.261 154.405 319.441 153.43 320.972C153.384 321.048 153.316 321.117 153.262 321.185C152.729 321.87 152.41 322.525 153.361 323.165C153.552 323.294 153.651 323.622 153.712 323.88C154.092 325.502 154.9 326.865 156.308 328.122L156.316 328.129ZM141.757 347.873C141.689 347.987 141.628 348.109 141.559 348.223C142.534 348.969 143.471 349.769 144.498 350.439C145.039 350.789 145.717 350.926 146.349 351.117C148.062 351.65 149.775 352.16 151.488 352.693C152.021 352.86 152.432 352.678 152.334 352.167C152.235 351.673 151.938 351.002 151.534 350.82C149.097 349.716 146.608 348.749 143.958 348.277C143.227 348.147 142.496 348.002 141.765 347.865L141.757 347.873ZM162.46 114.146C162.369 114.123 162.278 114.093 162.186 114.07C162.049 114.245 161.897 114.42 161.775 114.61C160.785 116.133 159.803 117.656 158.821 119.186C158.608 119.514 158.288 119.872 158.288 120.214C158.295 120.671 158.486 121.44 158.76 121.516C159.788 121.813 160.877 122.148 162.049 121.646C162.186 119.156 162.323 116.651 162.46 114.153V114.146ZM149.965 345.01C150.856 342.832 150.377 342.528 148.732 342.185C147.3 341.888 145.915 341.317 144.476 341.089C143.318 340.906 142.108 341.051 140.882 341.051C140.958 341.492 141.072 341.82 141.049 342.132C140.996 342.711 141.293 342.832 141.757 342.779C143.866 342.551 145.808 343.236 147.734 343.944C148.504 344.226 149.227 344.637 149.973 344.995L149.965 345.01ZM150.483 348.749C150.361 348.52 150.179 348.109 149.943 347.728C149.707 347.348 149.486 346.891 149.128 346.647C147.346 345.444 145.283 344.98 143.219 344.599C141.339 344.249 141.316 344.348 141.278 346.183C144.399 347.051 147.498 347.911 150.476 348.741L150.483 348.749ZM150.704 341.34C150.742 340.411 150.674 339.551 149.539 339.223C148.191 338.842 146.859 338.363 145.488 338.058C143.973 337.723 142.427 337.571 140.905 337.959C140.859 338.264 140.889 338.576 140.76 338.789C140.265 339.573 140.562 339.604 141.316 339.558C142.899 339.467 144.483 339.436 146.037 339.954C147.567 340.464 149.128 340.868 150.712 341.332L150.704 341.34ZM150.407 338.18C150.308 337.898 150.255 337.7 150.171 337.525C149.516 336.177 148.184 335.599 147.011 334.898C145.519 334.007 143.92 334.441 142.366 334.815C141.666 334.982 141.331 335.469 141.247 336.223C144.438 336.117 147.407 336.863 150.399 338.18H150.407ZM141.384 333.337C142.085 333.208 142.755 333.139 143.394 332.941C143.585 332.881 143.844 332.431 143.783 332.264C143.516 331.518 143.813 331.099 144.407 330.71C144.666 330.543 144.894 330.231 145.016 329.934C145.679 328.266 146.295 326.584 146.981 324.771C146.638 324.847 146.394 324.84 146.372 324.916C145.229 327.893 143.174 330.322 141.476 332.957C141.407 333.063 141.415 333.231 141.392 333.33L141.384 333.337ZM188.555 210.672C190.382 209.865 190.9 208.57 190.047 206.986C189.529 206.027 188.912 205.113 188.25 204.017C188.357 206.377 188.456 208.494 188.555 210.672ZM163.702 341.119C163.054 340.434 162.43 339.733 161.752 339.094C161.577 338.926 161.181 338.835 160.96 338.911C160.504 339.079 160.1 339.383 159.658 339.642C161.021 341.172 162.75 341.782 163.709 341.119H163.702ZM150.125 321.048C150.765 321.215 151.328 321.36 151.945 321.52C152.189 320.789 152.768 319.898 152.539 319.571C152.196 319.084 151.29 318.992 150.62 318.741C150.567 318.718 150.506 318.741 150.392 318.741C150.308 319.464 150.232 320.203 150.133 321.048H150.125ZM148.108 320.743C149.196 320.911 149.333 320.629 149.227 318.619C148.831 319.365 148.496 320.012 148.108 320.743Z" fill="black"/>
<path d="M155.052 50.947C154.557 51.9597 154.275 52.0968 153.499 51.4267C152.874 50.8861 152.334 50.1856 151.938 49.4546C151.055 47.8176 151.755 44.3988 153.133 43.1653C154.131 42.2668 154.991 42.1678 156.202 42.7922C156.392 42.8912 156.582 42.9825 156.697 43.0358C158.745 41.7566 159.971 39.9216 160.588 37.6906C160.968 36.3201 161.265 34.919 161.456 33.5104C161.89 30.2591 163.199 27.5865 165.742 25.3784C167.829 23.5586 170.06 22.1423 172.588 21.0459C174.438 20.2464 176.288 19.9799 178.237 20.0484C178.565 20.0636 178.938 20.0941 179.197 20.2616C179.479 20.4367 179.654 20.787 179.882 21.0535C179.562 21.2058 179.25 21.4723 178.915 21.4951C178.199 21.5484 177.461 21.4037 176.753 21.4875C173.265 21.9063 170.296 23.4748 167.707 25.7667C166.215 27.0916 164.593 28.3708 163.961 30.3733C163.504 31.8353 163.237 33.3581 162.895 34.8581C162.392 37.0663 162.118 39.3353 160.808 41.2922C160.047 42.4343 159.209 43.4165 157.831 43.8049C157.664 43.8506 157.42 43.9267 157.367 44.0561C156.933 45.0688 156.445 44.8023 155.806 44.2237C154.999 43.4927 154.055 43.6754 153.681 44.7033C152.722 47.3379 152.638 48.6704 155.06 50.9394L155.052 50.947Z" fill="black"/>
<path d="M156.605 52.5226C156.582 52.9186 156.559 53.284 156.536 53.6343C155.402 53.8856 155.082 53.6191 155.143 52.4846C155.189 51.6394 155.219 50.7942 155.272 49.949C155.288 49.713 155.303 49.4312 155.425 49.2561C155.577 49.0429 155.866 48.7764 156.072 48.7916C156.255 48.8069 156.521 49.1647 156.551 49.4008C156.62 49.9871 156.574 50.5962 156.574 51.2739C156.955 51.1673 157.237 50.9998 157.458 51.0531C157.945 51.1673 158.577 51.2663 158.859 51.6089C160.374 53.482 161.661 55.5455 163.29 57.3044C164.722 58.8425 166.496 60.0683 168.125 61.4237C168.468 61.7054 169.001 61.9491 168.582 62.4897C168.262 62.8932 167.859 62.9618 167.31 62.6648C163.968 60.8907 161.6 58.0734 159.247 55.2409C158.691 54.5709 158.265 53.7714 157.93 52.9643C157.633 52.2561 157.252 52.2104 156.597 52.5226H156.605Z" fill="black"/>
<path d="M154.092 59.3313C154.252 58.4024 154.481 56.9785 154.747 55.5546C154.8 55.2729 154.945 54.9607 155.143 54.7551C155.394 54.5039 155.79 54.1612 156.041 54.2145C156.399 54.2983 156.887 54.6638 156.955 54.9836C157.283 56.6359 157.541 58.3034 157.724 59.9709C157.8 60.6866 157.321 61.1587 156.597 61.2729C156.186 61.3339 155.76 61.3415 155.341 61.3034C154.191 61.1968 154.001 60.9684 154.092 59.3237V59.3313ZM155.425 60.0242C155.828 59.9785 156.133 59.9404 156.514 59.8948C156.376 58.4709 156.255 57.1232 156.125 55.7831C156.041 55.7831 155.965 55.7831 155.882 55.7831C155.729 57.1689 155.585 58.547 155.417 60.0166L155.425 60.0242Z" fill="black"/>
<path d="M172.596 32.6428C172.908 32.6885 173.273 32.658 173.517 32.8027C173.783 32.9626 174.179 33.1073 174.157 33.5413C173.867 33.8459 173.616 33.9144 173.327 33.9525C171.514 33.9068 170.456 34.0971 169.542 34.3865C167.928 34.6834 166.839 35.8179 165.69 36.8306C165.476 37.0134 165.233 37.1885 165.012 37.3332C164.753 37.5083 164.547 37.4169 164.098 37.3713C163.923 37.021 164.007 36.6022 164.174 36.4652C165.644 35.1174 166.596 33.4575 170.441 32.8712C171.157 32.8255 171.225 32.7722 171.933 32.6656C171.941 32.6885 172.588 32.6123 172.596 32.6352V32.6428Z" fill="black"/>
<path d="M157.473 66.9819C156.955 66.723 156.429 66.5707 156.049 66.2585C154.503 64.9641 152.98 63.6392 151.511 62.2611C151.275 62.0403 151.351 61.4768 151.282 61.0732C151.655 61.157 152.12 61.1265 152.394 61.3321C154.252 62.7636 156.087 64.2332 157.891 65.7256C158.097 65.8931 158.242 66.3118 158.188 66.5631C158.15 66.7382 157.732 66.8372 157.465 66.9819H157.473Z" fill="black"/>
<path d="M172.032 56.4671C174.484 57.0077 176.859 56.5813 179.25 56.1701C179.501 56.1244 180.004 56.3072 180.103 56.566C180.103 56.9315 179.867 57.3046 179.623 57.4112C178.161 58.0737 176.6 58.2716 175.009 58.1041C174.149 58.0127 173.296 57.7919 172.451 57.6016C171.902 57.4798 171.605 57.0381 172.032 56.4671Z" fill="black"/>
<path d="M159.438 60.7852C159.963 61.3867 160.458 62.0415 161.045 62.6126C162.012 63.5567 163.055 64.4324 164.007 65.3842C164.273 65.6583 164.349 66.1227 164.517 66.4958C164.121 66.5111 163.664 66.6557 163.337 66.5111C161.57 65.7268 160.337 64.2953 159.164 62.8334C158.486 61.9882 158.623 61.143 159.446 60.7852H159.438Z" fill="black"/>
<path d="M184.755 43.0593C184.71 43.4705 184.717 43.7294 184.649 43.874C184.466 44.27 183.963 44.6964 183.537 44.6964C183.111 44.6964 182.791 44.2014 182.738 43.8436C182.616 43.638 182.661 43.303 182.715 43.0441C182.829 42.4045 183.027 41.6507 183.811 41.7192C184.633 41.7877 184.633 42.6101 184.763 43.0593H184.755Z" fill="black"/>
<path d="M183.408 33.2211C184.915 33.2058 185.943 33.6779 186.773 34.5155C186.979 34.7211 187.161 35.1322 187.078 35.452C186.697 35.6043 186.461 35.4368 186.194 35.3378C185.296 35.0028 184.413 34.6525 183.545 34.2566C183.293 34.1424 182.936 34.0053 182.936 33.617C183.027 33.2211 183.377 33.2515 183.415 33.2211H183.408Z" fill="black"/>
<path d="M170.365 43.5921C170.358 44.3459 169.741 45.0312 169.154 44.9779C168.53 44.9246 168.149 44.3383 168.233 43.5464C168.248 43.3941 168.286 43.2494 168.317 43.0972C168.408 42.5565 168.583 42.0692 169.238 42.0616C169.908 42.054 170.175 42.5185 170.304 43.0895C170.342 43.2647 170.35 43.4474 170.365 43.5845V43.5921Z" fill="black"/>
<path d="M181.74 51.7852C181.763 52.5162 180.864 53.5137 180.293 53.4832C179.76 53.4528 179.593 53.1025 179.821 52.6685C180.042 52.2497 180.347 51.8462 180.682 51.5111C180.834 51.3589 181.192 51.2903 181.413 51.3512C181.58 51.3969 181.679 51.7015 181.74 51.7852Z" fill="black"/>
<path d="M148.588 71.7118C155.616 74.5443 162.59 73.8514 169.557 71.5215C170.022 72.1915 170.464 72.8311 170.898 73.4707C171.164 73.8591 171.408 74.0113 171.811 73.5849C171.933 73.4555 172.337 73.4327 172.519 73.524C175.078 74.8489 176.913 76.8515 178.047 79.5012C179.03 81.7931 179.905 84.1383 181.07 86.3312C181.992 88.0749 183.248 89.6434 184.405 91.2576C185.365 92.5901 186.393 93.8769 187.375 95.1866C187.436 95.2703 187.421 95.415 187.466 95.6663C185.616 94.7297 183.728 94.5774 181.816 94.9049C180.91 95.0571 180.004 95.3236 179.136 95.6358C177.278 96.3059 175.672 97.4252 174.24 98.7577C171.674 101.141 169.063 103.486 166.672 106.037C163.398 109.532 160.314 113.21 158.03 117.474C157.961 117.603 157.87 117.725 157.664 118.045C157.557 117.367 157.489 116.864 157.398 116.362C157.314 115.859 157.154 115.372 157.123 114.869C156.811 109.791 156.453 104.712 156.248 99.6333C156.111 96.1308 156.194 92.6206 156.179 89.118C156.179 87.5571 156.179 85.9962 156.179 84.4429C155.174 84.2525 154.801 84.4657 154.748 85.3947C154.649 86.9327 154.58 88.4708 154.573 90.0165C154.557 92.8871 154.573 95.75 154.626 98.6206C154.702 102.443 154.733 106.265 154.984 110.08C155.182 113.103 155.7 116.111 156.073 119.126C156.118 119.476 156.164 119.826 156.21 120.184C156.499 122.75 157.085 123.062 159.644 123.443C160.276 123.534 160.938 123.42 161.57 123.496C161.738 123.519 161.981 123.9 161.974 124.106C161.89 126.245 161.844 128.385 161.623 130.517C161.349 133.189 161.654 135.755 162.552 138.276C162.796 138.961 162.887 139.7 163.146 140.377C163.809 142.128 164.456 143.895 165.225 145.601C166.238 147.832 167.327 150.032 168.438 152.217C169.931 155.141 171.522 158.012 172.992 160.943C174.354 163.662 175.626 166.418 176.928 169.167C178.146 171.748 179.365 174.337 180.56 176.933C181.367 178.692 182.106 180.489 182.905 182.248C183.21 182.918 183.606 183.542 183.933 184.144C181.245 184.365 178.657 184.639 176.052 184.776C174.316 184.867 172.573 184.7 170.837 184.738C169.253 184.776 167.669 184.867 166.101 185.042C164.083 185.263 162.103 185.172 160.101 184.844C157.953 184.494 155.768 184.41 153.628 184.06C151.809 183.763 149.974 183.39 148.245 182.766C147.37 182.446 146.73 181.487 145.961 180.832C145.42 180.375 144.903 179.849 144.286 179.537C141.469 178.098 138.453 177.367 135.309 177.116C135.248 177.116 135.194 177.085 135.133 177.07C133.161 176.667 133.146 176.659 133.397 174.649C133.953 170.141 134.555 165.641 135.08 161.134C135.476 157.783 135.803 154.425 136.131 151.068C136.443 147.793 136.732 144.519 137.007 141.245C137.22 138.641 137.296 136.022 137.6 133.433C137.928 130.669 138.514 127.935 138.857 125.172C139.116 123.078 139.146 120.953 139.321 118.852C139.557 116.057 139.854 113.278 140.09 110.484C140.243 108.679 140.319 106.859 140.418 105.047C140.578 102.26 140.699 99.4734 140.882 96.6942C141.034 94.3414 141.126 91.9658 141.491 89.6434C141.819 87.5495 142.481 85.5089 142.999 83.453C143.623 80.9555 144.735 78.6713 146.075 76.486C146.791 75.3134 147.491 74.1256 148.161 72.9301C148.367 72.5723 148.451 72.1459 148.595 71.7271L148.588 71.7118Z" fill="white"/>
<path d="M188.464 109.912C188.844 111.1 189.164 112.28 189.606 113.422C190.375 115.394 191.235 117.328 192.035 119.285C193.063 121.806 194.083 124.326 195.088 126.854C196.283 129.877 197.486 132.9 198.629 135.945C200.212 140.141 201.728 144.359 203.319 148.547C203.844 149.917 204.56 151.212 205.139 152.56C206.578 155.895 207.895 159.291 209.441 162.572C211.002 165.877 212.806 169.06 214.443 172.319C214.923 173.27 215.197 174.329 215.616 175.471C214.801 175.471 213.888 175.349 213.012 175.501C211.847 175.707 210.659 176.004 209.578 176.476C207.553 177.359 205.512 178.258 203.624 179.4C201.408 180.748 198.964 180.793 196.55 181.022C195.461 181.128 194.349 180.999 193.245 180.93C193.025 180.915 192.682 180.694 192.621 180.504C191.57 177.352 190.527 174.199 189.537 171.032C188.593 168.016 187.778 164.963 186.788 161.963C186.096 159.862 185.167 157.844 184.42 155.758C183.872 154.227 183.438 152.651 182.958 151.098C182.281 148.92 181.557 146.75 180.933 144.557C180.415 142.737 180.019 140.879 179.547 139.044C179.098 137.308 178.527 135.595 178.192 133.836C177.857 132.092 177.636 130.311 177.575 128.537C177.491 126.092 177.636 123.633 177.613 121.189C177.606 120.047 178.177 119.369 178.999 118.676C180.979 117.009 182.905 115.273 184.816 113.521C186.065 112.372 187.23 111.146 188.456 109.935L188.464 109.912Z" fill="white"/>
<path d="M177.56 98.1707C177.408 100.356 177.279 102.229 177.134 104.102C177.058 105.054 176.974 106.006 176.868 106.95C176.685 108.625 176.449 110.3 176.304 111.983C176.152 113.81 176.121 115.638 175.984 117.465C175.878 118.889 175.657 120.313 175.543 121.737C175.459 122.803 175.436 123.876 175.436 124.942C175.451 126.861 175.337 128.81 175.581 130.699C175.855 132.816 176.418 134.909 176.936 136.988C177.568 139.524 178.276 142.036 178.969 144.549C179.396 146.102 179.822 147.663 180.34 149.186C181.649 153.024 183.043 156.839 184.352 160.684C185.068 162.785 185.662 164.925 186.355 167.034C187.352 170.072 188.426 173.095 189.408 176.141C190.299 178.905 191.099 181.699 191.967 184.471C192.157 185.087 192.317 185.757 193.078 186.009C193.246 186.062 193.398 186.389 193.429 186.61C193.885 189.664 195.264 192.389 196.528 195.146C197.601 197.483 198.69 199.806 199.748 202.143C200.951 204.785 200.898 207.549 200.533 210.344C200.502 210.58 200.426 210.816 200.335 211.037C200.243 211.258 200.106 211.463 199.992 211.669C199.901 211.669 199.809 211.669 199.718 211.661C199.718 210.367 199.718 209.072 199.718 207.786C199.718 207.572 199.847 207.329 199.771 207.161C199.657 206.925 199.444 206.651 199.215 206.575C199.071 206.529 198.682 206.773 198.629 206.948C198.431 207.671 198.264 208.417 198.203 209.164C198.127 210.123 198.203 211.098 198.127 212.065C198.066 212.765 197.898 213.382 197.342 213.991C196.688 214.707 196.436 215.78 195.896 216.626C195.5 217.25 194.951 217.798 194.418 218.316C194.251 218.476 193.885 218.423 193.589 218.468C194.373 217.037 195.248 215.834 195.698 214.494C196.124 213.237 196.116 211.836 196.269 210.496C196.391 209.43 196.49 208.357 196.558 207.283C196.573 206.994 196.444 206.697 196.375 206.407C196.086 206.506 195.599 206.529 195.53 206.712C195.172 207.618 194.784 208.547 194.67 209.499C194.472 211.204 194.624 212.963 193.908 214.577C193.451 215.605 192.88 216.588 192.294 217.555C192.172 217.76 191.738 217.775 191.449 217.874C191.38 217.57 191.198 217.227 191.274 216.961C191.578 215.857 191.852 214.722 192.34 213.694C193.04 212.225 192.759 210.763 192.644 209.263C192.439 206.499 190.825 204.496 189.134 202.555C188.426 201.74 188.198 200.826 187.969 199.874C187.406 197.521 187.497 195.123 187.505 192.725C187.505 191.331 187.474 189.922 187.314 188.537C187.048 186.252 185.967 184.257 184.977 182.224C183.903 180.016 182.936 177.755 181.908 175.524C180.956 173.453 179.989 171.382 179.022 169.318C177.751 166.608 176.517 163.874 175.177 161.201C173.67 158.194 172.025 155.247 170.502 152.247C169.512 150.298 168.576 148.311 167.73 146.293C166.619 143.651 165.576 140.978 164.578 138.29C163.444 135.237 163.383 132.085 163.657 128.864C163.855 126.511 163.794 124.128 163.855 121.76C163.931 118.676 163.916 115.592 164.137 112.524C164.197 111.694 164.837 110.803 165.431 110.125C167.868 107.338 170.327 104.551 172.916 101.909C174.233 100.562 175.855 99.5108 177.538 98.1631L177.56 98.1707Z" fill="white"/>
<path d="M161.896 353.72C163.229 354.207 164.5 354.771 165.833 355.144C167.142 355.509 168.475 355.441 169.8 354.938C170.782 354.565 171.863 354.458 172.883 354.177C174.026 353.865 175.153 353.514 176.272 353.118C176.614 352.997 177.399 353.149 177.125 352.418C176.972 352.014 176.485 351.702 176.089 351.428C175.929 351.321 175.602 351.375 175.381 351.443C173.614 351.999 171.878 352.745 170.074 353.103C168.779 353.354 167.386 353.118 166.046 353.035C165.863 353.027 165.604 352.684 165.536 352.456C164.881 350.149 164.744 347.811 165.14 345.443C165.178 345.238 165.147 345.017 165.14 344.804C165.132 344.598 165.102 344.385 165.064 343.928C164.721 344.248 164.386 344.408 164.325 344.636C163.647 347.172 163.358 349.722 164.264 352.433C163.548 352.22 162.932 352.029 162.292 351.839C162.208 350.415 162.033 348.953 162.048 347.491C162.071 346.052 162.284 344.621 162.429 343.045C162.612 343.052 162.955 343.045 163.29 343.09C164.858 343.349 165.962 344.164 166.724 345.603C167.005 346.136 167.774 346.601 168.391 346.722C170.211 347.073 171.916 346.76 173.561 345.725C174.597 345.078 175.937 344.933 177.071 344.415C178.625 343.699 180.117 342.847 181.899 341.91C184.952 343.395 188.714 343.707 192.338 344.545C193.693 344.857 195.132 344.842 196.533 344.971C197.843 345.085 198.993 346.273 198.909 347.537C198.886 347.872 198.604 348.283 198.315 348.496C196.16 350.141 193.785 351.268 191.074 351.717C188.188 352.197 185.287 352.669 182.485 353.484C179.371 354.39 176.371 355.684 173.31 356.788C171.856 357.306 170.394 357.588 168.825 357.162C167.622 356.834 166.343 356.766 165.125 356.491C163.632 356.156 162.224 355.646 161.873 353.865C161.866 353.811 161.896 353.75 161.904 353.712L161.896 353.72ZM179.592 352.083C179.592 352.083 179.592 352.128 179.592 352.151C180.521 352.045 181.465 352.029 182.371 351.824C184.488 351.359 186.574 350.689 188.706 350.324C190.45 350.019 192.079 349.578 193.579 348.626C194.546 348.009 195.582 347.499 196.533 346.859C196.731 346.722 196.686 346.227 196.754 345.9C196.412 345.87 196.008 345.71 195.741 345.839C194.462 346.433 193.282 347.316 191.95 347.712C188.813 348.649 185.622 349.38 182.439 350.156C181.305 350.43 180.125 350.537 178.99 350.842C178.655 350.933 178.175 351.398 178.175 351.694C178.175 352.41 178.815 352.098 179.226 352.121C179.348 352.121 179.47 352.106 179.592 352.098V352.083Z" fill="white"/>
<path d="M164.966 312.954C165.887 313.137 166.755 313.228 167.57 313.479C169.298 313.997 170.989 314.606 172.709 315.139C173.402 315.36 173.745 315.543 173.616 316.487C173.235 319.32 173.06 322.183 172.831 325.03C172.732 326.279 172.603 327.535 172.618 328.784C172.664 333.17 174.484 336.787 177.621 339.772C177.971 340.107 178.458 340.289 178.885 340.541C179.235 340.746 179.593 340.944 180.004 341.18C179.829 341.317 179.753 341.424 179.654 341.462C177.529 342.223 175.405 342.962 173.288 343.739C172.336 344.089 171.445 344.599 170.478 344.865C169.039 345.261 168.544 344.964 167.692 343.731C167.326 343.206 166.907 342.65 166.374 342.33C165.636 341.888 165.247 341.256 164.737 340.601C163.702 339.277 164.486 338.287 164.829 337.122C165.324 335.431 165.948 333.726 166.07 331.997C166.504 325.99 165.491 320.035 165.034 314.066C165.011 313.746 164.996 313.426 164.966 312.969V312.954Z" fill="white"/>
<path d="M178.117 117.169C178.063 116.301 177.903 115.425 177.972 114.565C178.2 111.778 178.573 108.999 178.764 106.212C178.908 104.057 178.855 101.887 178.901 99.7246C178.916 99.0698 178.832 98.3464 179.076 97.7753C179.259 97.3413 179.845 96.9759 180.332 96.7931C183.287 95.6967 186.089 96.184 188.655 97.8972C189.157 98.2322 189.553 98.9251 189.721 99.5266C190.132 101.034 190.079 102.565 189.591 104.088C188.662 106.989 186.98 109.357 184.733 111.382C182.578 113.331 180.492 115.357 178.375 117.344C178.284 117.283 178.193 117.222 178.101 117.161L178.117 117.169Z" fill="white"/>
<path d="M148.176 323.605C148.465 323.544 148.945 323.597 149.143 323.384C149.759 322.737 150.384 322.935 150.856 323.384C151.404 323.91 151.99 324.557 152.173 325.25C152.523 326.582 153.232 327.603 154.214 328.463C155.089 329.232 155.364 330.161 155.341 331.288C155.303 333.755 154.892 336.161 154.381 338.575C154.107 339.877 154.29 341.278 154.221 342.633C154.1 345.115 155.447 347.103 156.353 349.25C156.65 349.958 156.826 350.735 156.955 351.504C157.115 352.433 156.315 352.653 155.714 353.027C155.12 353.392 154.907 352.882 154.595 352.6C152.988 351.191 152.318 349.212 151.633 347.316C151.374 346.6 151.77 345.633 151.945 344.795C152.432 342.443 152.767 340.067 152.074 337.737C151.564 336.031 150.475 334.661 148.496 333.907C149.295 331.037 150.102 328.166 150.909 325.295C150.955 325.12 151.084 324.96 151.107 324.793C151.138 324.526 151.1 324.252 151.084 323.986C150.825 324.13 150.414 324.222 150.323 324.443C149.752 325.79 149.173 327.153 148.739 328.547C148.252 330.092 147.917 331.684 147.498 333.313C146.607 333.161 145.686 333.009 144.498 332.803C147.224 330.199 147.544 326.849 148.161 323.62L148.176 323.605Z" fill="white"/>
<path d="M156.316 328.12C154.908 326.872 154.1 325.501 153.72 323.879C153.659 323.62 153.56 323.293 153.369 323.164C152.418 322.524 152.737 321.869 153.27 321.184C153.324 321.115 153.392 321.047 153.438 320.971C154.405 319.448 153.948 318.26 152.204 317.818C151.71 317.696 151.207 317.62 150.605 317.499C151.108 315.374 151.603 313.28 152.121 311.103C154.039 311.316 156.034 311.529 158.029 311.75C158.989 311.856 159.118 312.047 158.821 312.968C158.433 314.171 157.999 315.359 157.649 316.57C156.796 319.516 156.369 322.509 156.529 325.592C156.567 326.384 156.408 327.191 156.324 328.128L156.316 328.12Z" fill="white"/>
<path d="M141.757 347.865C142.488 348.002 143.219 348.147 143.95 348.276C146.6 348.748 149.097 349.716 151.526 350.82C151.922 351.002 152.227 351.672 152.326 352.167C152.425 352.67 152.014 352.86 151.481 352.693C149.775 352.152 148.054 351.65 146.341 351.117C145.709 350.919 145.031 350.781 144.491 350.439C143.463 349.769 142.526 348.969 141.552 348.223C141.62 348.109 141.681 347.987 141.75 347.873L141.757 347.865Z" fill="white"/>
<path d="M162.461 114.145C162.324 116.643 162.187 119.148 162.05 121.638C160.877 122.14 159.788 121.805 158.76 121.508C158.486 121.432 158.303 120.663 158.288 120.206C158.288 119.864 158.608 119.506 158.821 119.178C159.796 117.648 160.786 116.125 161.775 114.602C161.897 114.412 162.05 114.244 162.187 114.062C162.278 114.084 162.369 114.115 162.461 114.138V114.145Z" fill="white"/>
<path d="M149.965 345.009C149.219 344.651 148.496 344.24 147.727 343.959C145.8 343.243 143.866 342.565 141.75 342.794C141.285 342.847 140.988 342.717 141.042 342.146C141.072 341.834 140.95 341.507 140.874 341.065C142.1 341.065 143.311 340.92 144.468 341.103C145.907 341.332 147.293 341.903 148.724 342.2C150.361 342.542 150.841 342.839 149.958 345.024L149.965 345.009Z" fill="white"/>
<path d="M150.484 348.748C147.507 347.918 144.408 347.057 141.286 346.189C141.324 344.354 141.339 344.255 143.228 344.606C145.284 344.986 147.355 345.451 149.136 346.654C149.487 346.89 149.707 347.347 149.951 347.735C150.187 348.108 150.37 348.519 150.492 348.755L150.484 348.748Z" fill="white"/>
<path d="M150.705 341.34C149.121 340.876 147.56 340.472 146.03 339.962C144.477 339.444 142.893 339.475 141.309 339.566C140.555 339.612 140.258 339.581 140.753 338.797C140.883 338.584 140.852 338.272 140.898 337.967C142.421 337.579 143.966 337.731 145.482 338.066C146.852 338.371 148.177 338.843 149.532 339.231C150.667 339.551 150.735 340.419 150.697 341.348L150.705 341.34Z" fill="white"/>
<path d="M150.407 338.18C147.415 336.863 144.445 336.117 141.255 336.223C141.331 335.462 141.666 334.982 142.374 334.815C143.927 334.442 145.526 334.008 147.019 334.899C148.191 335.599 149.524 336.178 150.179 337.525C150.263 337.708 150.316 337.899 150.415 338.18H150.407Z" fill="white"/>
<path d="M141.391 333.337C141.414 333.238 141.407 333.078 141.475 332.964C143.181 330.329 145.229 327.908 146.371 324.923C146.402 324.847 146.638 324.854 146.98 324.778C146.295 326.591 145.671 328.273 145.016 329.941C144.902 330.238 144.673 330.55 144.407 330.717C143.805 331.106 143.516 331.525 143.782 332.271C143.843 332.438 143.584 332.887 143.394 332.948C142.762 333.139 142.084 333.215 141.384 333.344L141.391 333.337Z" fill="white"/>
<path d="M188.562 210.67C188.463 208.493 188.364 206.376 188.258 204.016C188.928 205.112 189.537 206.026 190.055 206.985C190.908 208.569 190.39 209.856 188.562 210.67Z" fill="white"/>
<path d="M163.709 341.118C162.75 341.781 161.021 341.171 159.658 339.641C160.1 339.382 160.503 339.077 160.96 338.91C161.181 338.834 161.577 338.925 161.752 339.093C162.43 339.732 163.054 340.433 163.701 341.118H163.709Z" fill="white"/>
<path d="M150.133 321.047C150.224 320.202 150.308 319.464 150.391 318.74C150.506 318.74 150.574 318.725 150.62 318.74C151.29 318.991 152.196 319.083 152.539 319.57C152.767 319.89 152.196 320.788 151.945 321.519C151.328 321.359 150.765 321.215 150.125 321.047H150.133Z" fill="white"/>
<path d="M148.107 320.743C148.496 320.012 148.831 319.364 149.227 318.618C149.333 320.628 149.196 320.91 148.107 320.743Z" fill="white"/>
<path d="M155.417 60.0236C155.577 58.554 155.729 57.1682 155.881 55.79C155.965 55.79 156.041 55.79 156.125 55.79C156.255 57.1378 156.376 58.4855 156.513 59.9017C156.133 59.9474 155.828 59.9779 155.425 60.0312L155.417 60.0236Z" fill="white"/>
<path d="M179.592 352.083C179.47 352.09 179.348 352.113 179.227 352.106C178.815 352.09 178.176 352.395 178.176 351.679C178.176 351.382 178.648 350.918 178.991 350.826C180.125 350.53 181.305 350.423 182.44 350.141C185.623 349.365 188.813 348.634 191.95 347.697C193.282 347.301 194.463 346.418 195.742 345.824C196.008 345.702 196.412 345.854 196.755 345.885C196.686 346.212 196.732 346.715 196.534 346.844C195.582 347.484 194.546 348.002 193.579 348.611C192.079 349.563 190.45 350.012 188.706 350.309C186.574 350.674 184.488 351.344 182.371 351.809C181.465 352.007 180.521 352.03 179.592 352.136C179.592 352.113 179.592 352.09 179.592 352.068V352.083Z" fill="black"/>
</g>
</g>
</svg>
