<svg width="285" height="131" viewBox="0 0 285 131" fill="none" xmlns="http://www.w3.org/2000/svg">
<mask id="path-1-outside-1_388_14" maskUnits="userSpaceOnUse" x="-1" y="-1" width="287" height="133" fill="black">
<rect fill="white" x="-1" y="-1" width="287" height="133"/>
<path d="M1.12 60L1.12 4H6L31.6 47.68H29.04L54.4 4H59.28V60L53.6 60V12.88H54.96L31.6 52.88H28.8L5.28 12.88H6.8L6.8 60H1.12ZM76.3263 60V18H82.0063V60H76.3263ZM79.2063 8.72C78.0329 8.72 77.0463 8.32 76.2463 7.52C75.4463 6.72 75.0463 5.76 75.0463 4.64C75.0463 3.52 75.4463 2.58666 76.2463 1.84C77.0463 1.04 78.0329 0.639997 79.2063 0.639997C80.3796 0.639997 81.3663 1.01333 82.1663 1.76C82.9663 2.50666 83.3663 3.44 83.3663 4.56C83.3663 5.73333 82.9663 6.72 82.1663 7.52C81.4196 8.32 80.4329 8.72 79.2063 8.72ZM119.251 17.6C122.664 17.6 125.651 18.2667 128.211 19.6C130.824 20.88 132.851 22.8533 134.291 25.52C135.784 28.1867 136.531 31.5467 136.531 35.6V60H130.851V36.16C130.851 31.7333 129.731 28.4 127.491 26.16C125.304 23.8667 122.211 22.72 118.211 22.72C115.224 22.72 112.611 23.3333 110.371 24.56C108.184 25.7333 106.477 27.4667 105.251 29.76C104.077 32 103.491 34.72 103.491 37.92V60H97.8106V18H103.251V29.52L102.371 27.36C103.704 24.32 105.837 21.9467 108.771 20.24C111.704 18.48 115.197 17.6 119.251 17.6ZM178.193 60V50.72L177.953 49.2V33.68C177.953 30.1067 176.94 27.36 174.913 25.44C172.94 23.52 169.98 22.56 166.033 22.56C163.313 22.56 160.726 23.0133 158.273 23.92C155.82 24.8267 153.74 26.0267 152.033 27.52L149.473 23.28C151.606 21.4667 154.166 20.08 157.153 19.12C160.14 18.1067 163.286 17.6 166.593 17.6C172.033 17.6 176.22 18.96 179.153 21.68C182.14 24.3467 183.633 28.4267 183.633 33.92V60H178.193ZM163.713 60.4C160.566 60.4 157.82 59.8933 155.473 58.88C153.18 57.8133 151.42 56.3733 150.193 54.56C148.966 52.6933 148.353 50.56 148.353 48.16C148.353 45.9733 148.86 44 149.873 42.24C150.94 40.4267 152.646 38.9867 154.993 37.92C157.393 36.8 160.593 36.24 164.593 36.24H179.073V40.48H164.753C160.7 40.48 157.873 41.2 156.273 42.64C154.726 44.08 153.953 45.8667 153.953 48C153.953 50.4 154.886 52.32 156.753 53.76C158.62 55.2 161.233 55.92 164.593 55.92C167.793 55.92 170.54 55.2 172.833 53.76C175.18 52.2667 176.886 50.1333 177.953 47.36L179.233 51.28C178.166 54.0533 176.3 56.2667 173.633 57.92C171.02 59.5733 167.713 60.4 163.713 60.4ZM203.541 49.12L203.701 41.84L229.861 18H236.821L218.341 35.68L215.141 38.4L203.541 49.12ZM199.061 60V0.639997H204.741V60H199.061ZM231.621 60L214.101 38.16L217.781 33.76L238.581 60H231.621ZM262.587 60.4C258.534 60.4 254.88 59.4933 251.627 57.68C248.427 55.8133 245.894 53.28 244.027 50.08C242.16 46.8267 241.227 43.12 241.227 38.96C241.227 34.7467 242.16 31.04 244.027 27.84C245.894 24.64 248.427 22.1333 251.627 20.32C254.827 18.5067 258.48 17.6 262.587 17.6C266.747 17.6 270.427 18.5067 273.627 20.32C276.88 22.1333 279.414 24.64 281.227 27.84C283.094 31.04 284.027 34.7467 284.027 38.96C284.027 43.12 283.094 46.8267 281.227 50.08C279.414 53.28 276.88 55.8133 273.627 57.68C270.374 59.4933 266.694 60.4 262.587 60.4ZM262.587 55.36C265.627 55.36 268.32 54.6933 270.667 53.36C273.014 51.9733 274.854 50.0533 276.187 47.6C277.574 45.0933 278.267 42.2133 278.267 38.96C278.267 35.6533 277.574 32.7733 276.187 30.32C274.854 27.8667 273.014 25.9733 270.667 24.64C268.32 23.2533 265.654 22.56 262.667 22.56C259.68 22.56 257.014 23.2533 254.667 24.64C252.32 25.9733 250.454 27.8667 249.067 30.32C247.68 32.7733 246.987 35.6533 246.987 38.96C246.987 42.2133 247.68 45.0933 249.067 47.6C250.454 50.0533 252.32 51.9733 254.667 53.36C257.014 54.6933 259.654 55.36 262.587 55.36ZM23.68 130.48C16.5333 130.48 10.9067 128.427 6.8 124.32C2.69333 120.213 0.64 114.133 0.64 106.08L0.64 74H6.56L6.56 105.84C6.56 112.453 8.05333 117.333 11.04 120.48C14.0267 123.627 18.24 125.2 23.68 125.2C29.1733 125.2 33.4133 123.627 36.4 120.48C39.3867 117.333 40.88 112.453 40.88 105.84V74H46.64V106.08C46.64 114.133 44.5867 120.213 40.48 124.32C36.4267 128.427 30.8267 130.48 23.68 130.48ZM80.7194 130.4C76.5594 130.4 72.826 129.493 69.5194 127.68C66.266 125.813 63.706 123.28 61.8394 120.08C59.9727 116.827 59.0394 113.12 59.0394 108.96C59.0394 104.747 59.9727 101.04 61.8394 97.84C63.706 94.64 66.266 92.1333 69.5194 90.32C72.826 88.5067 76.5594 87.6 80.7194 87.6C84.2927 87.6 87.5194 88.2933 90.3994 89.68C93.2794 91.0667 95.546 93.1467 97.1994 95.92L92.9594 98.8C91.5194 96.6667 89.7327 95.0933 87.5994 94.08C85.466 93.0667 83.146 92.56 80.6394 92.56C77.6527 92.56 74.9594 93.2533 72.5594 94.64C70.1594 95.9733 68.266 97.8667 66.8794 100.32C65.4927 102.773 64.7994 105.653 64.7994 108.96C64.7994 112.267 65.4927 115.147 66.8794 117.6C68.266 120.053 70.1594 121.973 72.5594 123.36C74.9594 124.693 77.6527 125.36 80.6394 125.36C83.146 125.36 85.466 124.853 87.5994 123.84C89.7327 122.827 91.5194 121.28 92.9594 119.2L97.1994 122.08C95.546 124.8 93.2794 126.88 90.3994 128.32C87.5194 129.707 84.2927 130.4 80.7194 130.4ZM129.173 87.6C132.586 87.6 135.573 88.2667 138.133 89.6C140.746 90.88 142.773 92.8533 144.213 95.52C145.706 98.1867 146.453 101.547 146.453 105.6V130H140.773V106.16C140.773 101.733 139.653 98.4 137.413 96.16C135.226 93.8667 132.133 92.72 128.133 92.72C125.146 92.72 122.533 93.3333 120.293 94.56C118.106 95.7333 116.399 97.4667 115.173 99.76C113.999 102 113.413 104.72 113.413 107.92L113.413 130H107.733L107.733 70.64H113.413V99.52L112.293 97.36C113.626 94.32 115.759 91.9467 118.693 90.24C121.626 88.48 125.119 87.6 129.173 87.6ZM161.795 130V88H167.475V130H161.795ZM164.675 78.72C163.502 78.72 162.515 78.32 161.715 77.52C160.915 76.72 160.515 75.76 160.515 74.64C160.515 73.52 160.915 72.5867 161.715 71.84C162.515 71.04 163.502 70.64 164.675 70.64C165.848 70.64 166.835 71.0133 167.635 71.76C168.435 72.5067 168.835 73.44 168.835 74.56C168.835 75.7333 168.435 76.72 167.635 77.52C166.888 78.32 165.902 78.72 164.675 78.72ZM199.999 130.4C195.999 130.4 192.399 129.493 189.199 127.68C186.053 125.867 183.573 123.36 181.759 120.16C179.946 116.907 179.039 113.173 179.039 108.96C179.039 104.693 179.946 100.96 181.759 97.76C183.573 94.56 186.053 92.08 189.199 90.32C192.399 88.5067 195.999 87.6 199.999 87.6C203.679 87.6 206.959 88.4267 209.839 90.08C212.773 91.7333 215.093 94.16 216.799 97.36C218.559 100.507 219.439 104.373 219.439 108.96C219.439 113.493 218.586 117.36 216.879 120.56C215.173 123.76 212.853 126.213 209.919 127.92C207.039 129.573 203.733 130.4 199.999 130.4ZM200.399 125.36C203.386 125.36 206.053 124.693 208.399 123.36C210.799 121.973 212.666 120.053 213.999 117.6C215.386 115.093 216.079 112.213 216.079 108.96C216.079 105.653 215.386 102.773 213.999 100.32C212.666 97.8667 210.799 95.9733 208.399 94.64C206.053 93.2533 203.386 92.56 200.399 92.56C197.466 92.56 194.826 93.2533 192.479 94.64C190.133 95.9733 188.266 97.8667 186.879 100.32C185.493 102.773 184.799 105.653 184.799 108.96C184.799 112.213 185.493 115.093 186.879 117.6C188.266 120.053 190.133 121.973 192.479 123.36C194.826 124.693 197.466 125.36 200.399 125.36ZM216.239 130V117.36L216.799 108.88L215.999 100.4V70.64H221.679V130H216.239ZM263.818 130V120.72L263.578 119.2V103.68C263.578 100.107 262.565 97.36 260.538 95.44C258.565 93.52 255.605 92.56 251.658 92.56C248.938 92.56 246.351 93.0133 243.898 93.92C241.445 94.8267 239.365 96.0267 237.658 97.52L235.098 93.28C237.231 91.4667 239.791 90.08 242.778 89.12C245.765 88.1067 248.911 87.6 252.218 87.6C257.658 87.6 261.845 88.96 264.778 91.68C267.765 94.3467 269.258 98.4267 269.258 103.92V130H263.818ZM249.338 130.4C246.191 130.4 243.445 129.893 241.098 128.88C238.805 127.813 237.045 126.373 235.818 124.56C234.591 122.693 233.978 120.56 233.978 118.16C233.978 115.973 234.485 114 235.498 112.24C236.565 110.427 238.271 108.987 240.618 107.92C243.018 106.8 246.218 106.24 250.218 106.24H264.698V110.48H250.378C246.325 110.48 243.498 111.2 241.898 112.64C240.351 114.08 239.578 115.867 239.578 118C239.578 120.4 240.511 122.32 242.378 123.76C244.245 125.2 246.858 125.92 250.218 125.92C253.418 125.92 256.165 125.2 258.458 123.76C260.805 122.267 262.511 120.133 263.578 117.36L264.858 121.28C263.791 124.053 261.925 126.267 259.258 127.92C256.645 129.573 253.338 130.4 249.338 130.4Z"/>
</mask>
<path d="M1.12 60H0.120001V61H1.12V60ZM1.12 4V3H0.120001V4H1.12ZM6 4L6.86275 3.49436L6.57301 3H6V4ZM31.6 47.68V48.68H33.3452L32.4627 47.1744L31.6 47.68ZM29.04 47.68L28.1752 47.1779L27.3031 48.68H29.04V47.68ZM54.4 4V3H53.8243L53.5352 3.4979L54.4 4ZM59.28 4H60.28V3H59.28V4ZM59.28 60V61H60.28V60H59.28ZM53.6 60H52.6L52.6 61H53.6L53.6 60ZM53.6 12.88V11.88H52.6V12.88H53.6ZM54.96 12.88L55.8235 13.3843L56.702 11.88H54.96V12.88ZM31.6 52.88V53.88H32.174L32.4635 53.3843L31.6 52.88ZM28.8 52.88L27.938 53.3869L28.2279 53.88H28.8V52.88ZM5.28 12.88L5.28 11.88H3.53194L4.41798 13.3869L5.28 12.88ZM6.8 12.88H7.8L7.8 11.88H6.8L6.8 12.88ZM6.8 60V61H7.8V60H6.8ZM2.12 60L2.12 4H0.120001L0.120001 60H2.12ZM1.12 5H6V3H1.12V5ZM5.13726 4.50563L30.7373 48.1856L32.4627 47.1744L6.86275 3.49436L5.13726 4.50563ZM31.6 46.68H29.04V48.68H31.6V46.68ZM29.9048 48.1821L55.2648 4.50209L53.5352 3.4979L28.1752 47.1779L29.9048 48.1821ZM54.4 5H59.28V3H54.4V5ZM58.28 4V60H60.28V4H58.28ZM59.28 59L53.6 59L53.6 61H59.28V59ZM54.6 60V12.88H52.6V60H54.6ZM53.6 13.88H54.96V11.88H53.6V13.88ZM54.0965 12.3757L30.7365 52.3757L32.4635 53.3843L55.8235 13.3843L54.0965 12.3757ZM31.6 51.88H28.8V53.88H31.6V51.88ZM29.662 52.3731L6.14202 12.3731L4.41798 13.3869L27.938 53.3869L29.662 52.3731ZM5.28 13.88H6.8L6.8 11.88H5.28L5.28 13.88ZM5.8 12.88L5.8 60H7.8L7.8 12.88H5.8ZM6.8 59H1.12V61H6.8V59ZM76.3263 60H75.3263V61H76.3263V60ZM76.3263 18V17H75.3263V18H76.3263ZM82.0063 18H83.0063V17H82.0063V18ZM82.0063 60V61H83.0063V60H82.0063ZM76.2463 1.84L76.9286 2.57105L76.9412 2.55929L76.9534 2.5471L76.2463 1.84ZM82.1663 7.52L81.4591 6.81289L81.447 6.82508L81.4352 6.83768L82.1663 7.52ZM77.3263 60V18H75.3263V60H77.3263ZM76.3263 19H82.0063V17H76.3263V19ZM81.0063 18V60H83.0063V18H81.0063ZM82.0063 59H76.3263V61H82.0063V59ZM79.2063 7.72C78.2872 7.72 77.5582 7.41773 76.9534 6.81289L75.5391 8.22711C76.5343 9.22227 77.7787 9.72 79.2063 9.72V7.72ZM76.9534 6.81289C76.3388 6.19829 76.0463 5.49177 76.0463 4.64H74.0463C74.0463 6.02823 74.5537 7.24171 75.5391 8.22711L76.9534 6.81289ZM76.0463 4.64C76.0463 3.7898 76.3365 3.12362 76.9286 2.57105L75.5639 1.10894C74.556 2.04971 74.0463 3.25019 74.0463 4.64H76.0463ZM76.9534 2.5471C77.5582 1.94227 78.2872 1.64 79.2063 1.64V-0.360003C77.7787 -0.360003 76.5343 0.137727 75.5391 1.13289L76.9534 2.5471ZM79.2063 1.64C80.1463 1.64 80.8832 1.93041 81.4839 2.49105L82.8486 1.02894C81.8493 0.0962515 80.6128 -0.360003 79.2063 -0.360003V1.64ZM81.4839 2.49105C82.076 3.04362 82.3663 3.70981 82.3663 4.56H84.3663C84.3663 3.17019 83.8565 1.96971 82.8486 1.02894L81.4839 2.49105ZM82.3663 4.56C82.3663 5.4791 82.064 6.20805 81.4591 6.81289L82.8734 8.22711C83.8685 7.23194 84.3663 5.98757 84.3663 4.56H82.3663ZM81.4352 6.83768C80.9015 7.40947 80.1928 7.72 79.2063 7.72V9.72C80.6731 9.72 81.9376 9.23053 82.8973 8.20232L81.4352 6.83768ZM128.211 19.6L127.749 20.4869L127.76 20.4926L127.771 20.4981L128.211 19.6ZM134.291 25.52L133.411 25.9951L133.414 26.0019L133.418 26.0086L134.291 25.52ZM136.531 60V61H137.531V60H136.531ZM130.851 60H129.851V61H130.851V60ZM127.491 26.16L126.767 26.8501L126.775 26.8587L126.784 26.8671L127.491 26.16ZM110.371 24.56L110.843 25.4412L110.851 25.4371L110.371 24.56ZM105.251 29.76L104.369 29.2883L104.365 29.296L105.251 29.76ZM103.491 60V61H104.491V60H103.491ZM97.8106 60H96.8106V61H97.8106V60ZM97.8106 18V17H96.8106V18H97.8106ZM103.251 18H104.251V17H103.251V18ZM103.251 29.52L102.325 29.8973L104.251 29.52H103.251ZM102.371 27.36L101.455 26.9583L101.285 27.3456L101.445 27.7373L102.371 27.36ZM108.771 20.24L109.274 21.1044L109.285 21.0975L108.771 20.24ZM119.251 18.6C122.532 18.6 125.355 19.2403 127.749 20.4869L128.673 18.7131C125.946 17.293 122.796 16.6 119.251 16.6V18.6ZM127.771 20.4981C130.189 21.6824 132.065 23.5038 133.411 25.9951L135.171 25.0448C133.636 22.2029 131.459 20.0776 128.65 18.7019L127.771 20.4981ZM133.418 26.0086C134.805 28.4851 135.531 31.6638 135.531 35.6H137.531C137.531 31.4295 136.763 27.8882 135.163 25.0314L133.418 26.0086ZM135.531 35.6V60H137.531V35.6H135.531ZM136.531 59H130.851V61H136.531V59ZM131.851 60V36.16H129.851V60H131.851ZM131.851 36.16C131.851 31.5752 130.689 27.9445 128.198 25.4529L126.784 26.8671C128.772 28.8555 129.851 31.8915 129.851 36.16H131.851ZM128.214 25.4699C125.792 22.9296 122.408 21.72 118.211 21.72V23.72C122.013 23.72 124.816 24.8037 126.767 26.8501L128.214 25.4699ZM118.211 21.72C115.085 21.72 112.301 22.3629 109.89 23.6829L110.851 25.4371C112.921 24.3038 115.363 23.72 118.211 23.72V21.72ZM109.898 23.6788C107.529 24.95 105.684 26.83 104.369 29.2883L106.132 30.2317C107.271 28.1033 108.839 26.5167 110.843 25.4412L109.898 23.6788ZM104.365 29.296C103.099 31.7122 102.491 34.6003 102.491 37.92H104.491C104.491 34.8397 105.055 32.2878 106.136 30.224L104.365 29.296ZM102.491 37.92V60H104.491V37.92H102.491ZM103.491 59H97.8106V61H103.491V59ZM98.8106 60V18H96.8106V60H98.8106ZM97.8106 19H103.251V17H97.8106V19ZM102.251 18V29.52H104.251V18H102.251ZM104.177 29.1427L103.297 26.9827L101.445 27.7373L102.325 29.8973L104.177 29.1427ZM103.286 27.7617C104.533 24.9203 106.519 22.707 109.274 21.1043L108.268 19.3757C105.156 21.1863 102.875 23.7196 101.455 26.9583L103.286 27.7617ZM109.285 21.0975C112.036 19.4467 115.345 18.6 119.251 18.6V16.6C115.05 16.6 111.372 17.5133 108.256 19.3825L109.285 21.0975ZM178.193 60H177.193V61H178.193V60ZM178.193 50.72H179.193V50.6415L179.181 50.564L178.193 50.72ZM177.953 49.2H176.953V49.2785L176.965 49.356L177.953 49.2ZM174.913 25.44L174.216 26.1568L174.225 26.166L174.913 25.44ZM158.273 23.92L157.926 22.982L157.926 22.982L158.273 23.92ZM152.033 27.52L151.177 28.0369L151.794 29.0582L152.692 28.2726L152.033 27.52ZM149.473 23.28L148.825 22.5181L148.177 23.0688L148.617 23.7969L149.473 23.28ZM157.153 19.12L157.459 20.072L157.467 20.0696L157.474 20.067L157.153 19.12ZM179.153 21.68L178.473 22.4133L178.48 22.4197L178.487 22.4259L179.153 21.68ZM183.633 60V61H184.633V60L183.633 60ZM155.473 58.88L155.051 59.7867L155.064 59.7926L155.077 59.7981L155.473 58.88ZM150.193 54.56L149.357 55.1092L149.365 55.1203L150.193 54.56ZM149.873 42.24L149.011 41.733L149.007 41.741L149.873 42.24ZM154.993 37.92L155.407 38.8304L155.416 38.8262L154.993 37.92ZM179.073 36.24H180.073V35.24H179.073V36.24ZM179.073 40.48V41.48H180.073V40.48H179.073ZM156.273 42.64L155.604 41.8967L155.598 41.9024L155.592 41.9081L156.273 42.64ZM156.753 53.76L157.364 52.9682L157.364 52.9682L156.753 53.76ZM172.833 53.76L173.365 54.6069L173.37 54.6037L172.833 53.76ZM177.953 47.36L178.904 47.0496L178.03 44.3741L177.02 47.001L177.953 47.36ZM179.233 51.28L180.166 51.639L180.294 51.3074L180.184 50.9696L179.233 51.28ZM173.633 57.92L173.106 57.0701L173.098 57.0749L173.633 57.92ZM179.193 60V50.72H177.193V60H179.193ZM179.181 50.564L178.941 49.044L176.965 49.356L177.205 50.876L179.181 50.564ZM178.953 49.2V33.68H176.953V49.2H178.953ZM178.953 33.68C178.953 29.9133 177.879 26.8723 175.601 24.714L174.225 26.166C176.001 27.8477 176.953 30.3 176.953 33.68H178.953ZM175.61 24.7233C173.383 22.5556 170.127 21.56 166.033 21.56V23.56C169.832 23.56 172.497 24.4844 174.216 26.1567L175.61 24.7233ZM166.033 21.56C163.2 21.56 160.495 22.0327 157.926 22.982L158.62 24.858C160.958 23.994 163.427 23.56 166.033 23.56V21.56ZM157.926 22.982C155.376 23.9246 153.186 25.1825 151.375 26.7674L152.692 28.2726C154.294 26.8709 156.264 25.7288 158.62 24.858L157.926 22.982ZM152.889 27.0031L150.329 22.7631L148.617 23.7969L151.177 28.0369L152.889 27.0031ZM150.121 24.0419C152.142 22.3235 154.583 20.9966 157.459 20.072L156.847 18.168C153.75 19.1634 151.07 20.6098 148.825 22.5181L150.121 24.0419ZM157.474 20.067C160.353 19.0904 163.39 18.6 166.593 18.6V16.6C163.183 16.6 159.927 17.1229 156.832 18.173L157.474 20.067ZM166.593 18.6C171.873 18.6 175.783 19.9185 178.473 22.4133L179.833 20.9467C176.657 18.0015 172.193 16.6 166.593 16.6V18.6ZM178.487 22.4259C181.191 24.8401 182.633 28.6012 182.633 33.92L184.633 33.92C184.633 28.2521 183.089 23.8533 179.819 20.9341L178.487 22.4259ZM182.633 33.92V60L184.633 60V33.92L182.633 33.92ZM183.633 59H178.193V61H183.633V59ZM163.713 59.4C160.672 59.4 158.066 58.9103 155.87 57.9619L155.077 59.7981C157.574 60.8764 160.461 61.4 163.713 61.4V59.4ZM155.895 57.9733C153.74 56.971 152.132 55.6408 151.021 53.9997L149.365 55.1203C150.708 57.1059 152.62 58.6556 155.051 59.7867L155.895 57.9733ZM151.029 54.0108C149.917 52.3195 149.353 50.38 149.353 48.16H147.353C147.353 50.74 148.016 53.0671 149.357 55.1092L151.029 54.0108ZM149.353 48.16C149.353 46.1346 149.82 44.3356 150.74 42.739L149.007 41.741C147.899 43.6644 147.353 45.8121 147.353 48.16H149.353ZM150.735 42.747C151.676 41.1476 153.205 39.8313 155.407 38.8304L154.579 37.0096C152.088 38.142 150.204 39.7057 149.011 41.733L150.735 42.747ZM155.416 38.8262C157.634 37.7914 160.671 37.24 164.593 37.24V35.24C160.515 35.24 157.153 35.8086 154.57 37.0138L155.416 38.8262ZM164.593 37.24H179.073V35.24H164.593V37.24ZM178.073 36.24V40.48H180.073V36.24H178.073ZM179.073 39.48H164.753V41.48H179.073V39.48ZM164.753 39.48C160.645 39.48 157.493 40.1969 155.604 41.8967L156.942 43.3833C158.253 42.2031 160.755 41.48 164.753 41.48V39.48ZM155.592 41.9081C153.84 43.5393 152.953 45.5921 152.953 48H154.953C154.953 46.1413 155.613 44.6207 156.955 43.3719L155.592 41.9081ZM152.953 48C152.953 50.7034 154.025 52.9185 156.142 54.5518L157.364 52.9682C155.748 51.7215 154.953 50.0966 154.953 48H152.953ZM156.142 54.5518C158.245 56.1736 161.104 56.92 164.593 56.92V54.92C161.363 54.92 158.995 54.2264 157.364 52.9682L156.142 54.5518ZM164.593 56.92C167.947 56.92 170.885 56.1639 173.365 54.6069L172.301 52.9131C170.194 54.2361 167.64 54.92 164.593 54.92V56.92ZM173.37 54.6037C175.91 52.9873 177.749 50.6777 178.886 47.719L177.02 47.001C176.024 49.589 174.45 51.546 172.296 52.9163L173.37 54.6037ZM177.003 47.6704L178.283 51.5904L180.184 50.9696L178.904 47.0496L177.003 47.6704ZM178.3 50.921C177.316 53.4789 175.599 55.5248 173.106 57.0701L174.16 58.7699C177.001 57.0085 179.017 54.6277 180.166 51.639L178.3 50.921ZM173.098 57.0749C170.686 58.6013 167.579 59.4 163.713 59.4V61.4C167.848 61.4 171.354 60.5454 174.168 58.7651L173.098 57.0749ZM203.541 49.12L202.541 49.098L202.489 51.4534L204.219 49.8544L203.541 49.12ZM203.701 41.84L203.027 41.1009L202.71 41.3896L202.701 41.818L203.701 41.84ZM229.861 18V17H229.473L229.187 17.2609L229.861 18ZM236.821 18L237.512 18.7226L239.312 17H236.821V18ZM218.341 35.68L218.988 36.4419L219.011 36.4229L219.032 36.4026L218.341 35.68ZM215.141 38.4L214.493 37.6381L214.477 37.6515L214.462 37.6656L215.141 38.4ZM199.061 60H198.061V61H199.061V60ZM199.061 0.639997V-0.360003H198.061V0.639997H199.061ZM204.741 0.639997H205.741V-0.360003H204.741V0.639997ZM204.741 60V61H205.741V60H204.741ZM231.621 60L230.841 60.6257L231.141 61H231.621V60ZM214.101 38.16L213.334 37.5184L212.808 38.1468L213.321 38.7857L214.101 38.16ZM217.781 33.76L218.564 33.1388L217.801 32.1764L217.014 33.1184L217.781 33.76ZM238.581 60V61H240.649L239.364 59.3788L238.581 60ZM204.54 49.142L204.7 41.862L202.701 41.818L202.541 49.098L204.54 49.142ZM204.374 42.5791L230.534 18.7391L229.187 17.2609L203.027 41.1009L204.374 42.5791ZM229.861 19H236.821V17H229.861V19ZM236.129 17.2774L217.649 34.9574L219.032 36.4026L237.512 18.7226L236.129 17.2774ZM217.693 34.9181L214.493 37.6381L215.788 39.1619L218.988 36.4419L217.693 34.9181ZM214.462 37.6656L202.862 48.3856L204.219 49.8544L215.819 39.1344L214.462 37.6656ZM200.061 60V0.639997H198.061V60H200.061ZM199.061 1.64H204.741V-0.360003L199.061 -0.360003V1.64ZM203.741 0.639997V60H205.741V0.639997H203.741ZM204.741 59H199.061V61H204.741V59ZM232.401 59.3743L214.881 37.5343L213.321 38.7857L230.841 60.6257L232.401 59.3743ZM214.868 38.8016L218.548 34.4016L217.014 33.1184L213.334 37.5184L214.868 38.8016ZM216.997 34.3812L237.797 60.6212L239.364 59.3788L218.564 33.1388L216.997 34.3812ZM238.581 59H231.621V61H238.581V59ZM251.627 57.68L251.123 58.5438L251.131 58.5487L251.14 58.5535L251.627 57.68ZM244.027 50.08L243.159 50.5777L243.163 50.5839L244.027 50.08ZM244.027 27.84L243.163 27.3361L243.163 27.3361L244.027 27.84ZM251.627 20.32L252.12 21.19L252.12 21.19L251.627 20.32ZM273.627 20.32L273.134 21.19L273.14 21.1935L273.627 20.32ZM281.227 27.84L280.357 28.3331L280.363 28.3439L281.227 27.84ZM281.227 50.08L280.359 49.5823L280.357 49.587L281.227 50.08ZM273.627 57.68L274.114 58.5535L274.125 58.5474L273.627 57.68ZM270.667 53.36L271.161 54.2295L271.168 54.2253L271.176 54.2209L270.667 53.36ZM276.187 47.6L275.312 47.1159L275.308 47.1225L276.187 47.6ZM276.187 30.32L275.308 30.7975L275.312 30.8048L275.316 30.8121L276.187 30.32ZM270.667 24.64L270.158 25.5009L270.165 25.5053L270.173 25.5095L270.667 24.64ZM254.667 24.64L255.161 25.5095L255.168 25.5053L255.176 25.5009L254.667 24.64ZM249.067 30.32L249.937 30.8121L249.937 30.8121L249.067 30.32ZM249.067 47.6L248.192 48.0841L248.196 48.0921L249.067 47.6ZM254.667 53.36L254.158 54.2209L254.165 54.2253L254.173 54.2295L254.667 53.36ZM262.587 59.4C258.689 59.4 255.205 58.5297 252.114 56.8065L251.14 58.5535C254.555 60.457 258.379 61.4 262.587 61.4V59.4ZM252.131 56.8162C249.08 55.0365 246.67 52.6271 244.891 49.5761L243.163 50.5839C245.117 53.9329 247.774 56.5902 251.123 58.5438L252.131 56.8162ZM244.894 49.5823C243.124 46.4965 242.227 42.9649 242.227 38.96H240.227C240.227 43.2751 241.197 47.1568 243.16 50.5777L244.894 49.5823ZM242.227 38.96C242.227 34.899 243.125 31.3709 244.891 28.3439L243.163 27.3361C241.196 30.7091 240.227 34.5944 240.227 38.96H242.227ZM244.891 28.3439C246.669 25.2954 249.075 22.9156 252.12 21.19L251.134 19.45C247.779 21.3511 245.118 23.9846 243.163 27.3361L244.891 28.3439ZM252.12 21.19C255.153 19.4715 258.632 18.6 262.587 18.6V16.6C258.328 16.6 254.501 17.5419 251.134 19.45L252.12 21.19ZM262.587 18.6C266.597 18.6 270.103 19.4726 273.134 21.19L274.12 19.45C270.751 17.5408 266.897 16.6 262.587 16.6V18.6ZM273.14 21.1935C276.235 22.9187 278.635 25.2947 280.357 28.333L282.097 27.347C280.192 23.9853 277.525 21.3479 274.114 19.4465L273.14 21.1935ZM280.363 28.3439C282.129 31.3709 283.027 34.899 283.027 38.96H285.027C285.027 34.5944 284.058 30.7091 282.091 27.3361L280.363 28.3439ZM283.027 38.96C283.027 42.9649 282.13 46.4965 280.36 49.5823L282.094 50.5777C284.057 47.1568 285.027 43.2751 285.027 38.96H283.027ZM280.357 49.587C278.634 52.6279 276.23 55.0333 273.129 56.8126L274.125 58.5474C277.53 56.5934 280.193 53.9321 282.097 50.573L280.357 49.587ZM273.14 56.8065C270.05 58.5286 266.541 59.4 262.587 59.4V61.4C266.846 61.4 270.697 60.4581 274.114 58.5535L273.14 56.8065ZM262.587 56.36C265.778 56.36 268.645 55.6587 271.161 54.2295L270.173 52.4905C267.995 53.7279 265.476 54.36 262.587 54.36V56.36ZM271.176 54.2209C273.682 52.7399 275.648 50.6857 277.066 48.0775L275.308 47.1225C274.059 49.421 272.345 51.2067 270.158 52.4991L271.176 54.2209ZM277.062 48.0841C278.541 45.4101 279.267 42.3594 279.267 38.96H277.267C277.267 42.0673 276.606 44.7766 275.312 47.1159L277.062 48.0841ZM279.267 38.96C279.267 35.511 278.543 32.4556 277.057 29.8279L275.316 30.8121C276.604 33.0911 277.267 35.7957 277.267 38.96H279.267ZM277.066 29.8425C275.646 27.2311 273.676 25.1994 271.161 23.7705L270.173 25.5095C272.351 26.7473 274.061 28.5022 275.308 30.7975L277.066 29.8425ZM271.176 23.7791C268.66 22.2928 265.815 21.56 262.667 21.56V23.56C265.492 23.56 267.98 24.2139 270.158 25.5009L271.176 23.7791ZM262.667 21.56C259.519 21.56 256.673 22.2928 254.158 23.7791L255.176 25.5009C257.354 24.2139 259.842 23.56 262.667 23.56V21.56ZM254.173 23.7705C251.662 25.1973 249.668 27.2243 248.196 29.8279L249.937 30.8121C251.239 28.509 252.979 26.7493 255.161 25.5095L254.173 23.7705ZM248.196 29.8279C246.711 32.4556 245.987 35.511 245.987 38.96H247.987C247.987 35.7957 248.649 33.0911 249.937 30.8121L248.196 29.8279ZM245.987 38.96C245.987 42.3594 246.713 45.4101 248.192 48.0841L249.942 47.1159C248.648 44.7766 247.987 42.0673 247.987 38.96H245.987ZM248.196 48.0921C249.666 50.6925 251.655 52.742 254.158 54.2209L255.176 52.4991C252.985 51.2046 251.241 49.4141 249.937 47.1079L248.196 48.0921ZM254.173 54.2295C256.683 55.6557 259.496 56.36 262.587 56.36V54.36C259.811 54.36 257.344 53.731 255.161 52.4905L254.173 54.2295ZM6.8 124.32L6.09289 125.027L6.09289 125.027L6.8 124.32ZM0.64 74V73H-0.36V74H0.64ZM6.56 74H7.56V73H6.56V74ZM40.88 74V73H39.88V74H40.88ZM46.64 74H47.64V73H46.64V74ZM40.48 124.32L39.7729 123.613L39.7683 123.618L40.48 124.32ZM23.68 129.48C16.7336 129.48 11.3848 127.491 7.50711 123.613L6.09289 125.027C10.4285 129.363 16.333 131.48 23.68 131.48V129.48ZM7.50711 123.613C3.65078 119.757 1.64 113.973 1.64 106.08H-0.36C-0.36 114.294 1.73589 120.67 6.09289 125.027L7.50711 123.613ZM1.64 106.08L1.64 74H-0.36L-0.36 106.08H1.64ZM0.64 75H6.56V73H0.64V75ZM5.56 74L5.56 105.84H7.56L7.56 74H5.56ZM5.56 105.84C5.56 112.579 7.07849 117.759 10.3147 121.168L11.7653 119.792C9.02818 116.908 7.56 112.328 7.56 105.84H5.56ZM10.3147 121.168C13.5357 124.562 18.0398 126.2 23.68 126.2V124.2C18.4402 124.2 14.5176 122.691 11.7653 119.792L10.3147 121.168ZM23.68 126.2C29.3702 126.2 33.9024 124.564 37.1253 121.168L35.6747 119.792C32.9242 122.689 28.9765 124.2 23.68 124.2V126.2ZM37.1253 121.168C40.3615 117.759 41.88 112.579 41.88 105.84H39.88C39.88 112.328 38.4118 116.908 35.6747 119.792L37.1253 121.168ZM41.88 105.84V74H39.88V105.84H41.88ZM40.88 75H46.64V73H40.88V75ZM45.64 74V106.08H47.64V74H45.64ZM45.64 106.08C45.64 113.973 43.6292 119.757 39.7729 123.613L41.1871 125.027C45.5441 120.67 47.64 114.294 47.64 106.08H45.64ZM39.7683 123.618C35.9456 127.49 30.6269 129.48 23.68 129.48V131.48C31.0264 131.48 36.9077 129.363 41.1917 125.022L39.7683 123.618ZM69.5194 127.68L69.0217 128.547L69.0301 128.552L69.0385 128.557L69.5194 127.68ZM61.8394 120.08L60.972 120.578L60.9756 120.584L61.8394 120.08ZM61.8394 97.84L60.9756 97.3361L60.9756 97.3361L61.8394 97.84ZM69.5194 90.32L69.0385 89.4432L69.0325 89.4465L69.5194 90.32ZM90.3994 89.68L89.9656 90.581L89.9656 90.581L90.3994 89.68ZM97.1994 95.92L97.7613 96.7472L98.541 96.2176L98.0583 95.4079L97.1994 95.92ZM92.9594 98.8L92.1305 99.3595L92.6916 100.191L93.5213 99.6272L92.9594 98.8ZM87.5994 94.08L88.0284 93.1767L88.0284 93.1767L87.5994 94.08ZM72.5594 94.64L73.045 95.5142L73.0524 95.5101L73.0597 95.5059L72.5594 94.64ZM66.8794 100.32L67.7499 100.812L67.7499 100.812L66.8794 100.32ZM66.8794 117.6L67.7499 117.108L67.7499 117.108L66.8794 117.6ZM72.5594 123.36L72.0591 124.226L72.0664 124.23L72.0737 124.234L72.5594 123.36ZM87.5994 123.84L88.0284 124.743L88.0284 124.743L87.5994 123.84ZM92.9594 119.2L93.5213 118.373L92.7014 117.816L92.1372 118.631L92.9594 119.2ZM97.1994 122.08L98.0539 122.599L98.5477 121.787L97.7613 121.253L97.1994 122.08ZM90.3994 128.32L90.8332 129.221L90.8399 129.218L90.8466 129.214L90.3994 128.32ZM80.7194 129.4C76.7098 129.4 73.1447 128.528 70.0002 126.803L69.0385 128.557C72.5074 130.459 76.409 131.4 80.7194 131.4V129.4ZM70.017 126.813C66.9135 125.032 64.4805 122.623 62.7032 119.576L60.9756 120.584C62.9316 123.937 65.6186 126.595 69.0217 128.547L70.017 126.813ZM62.7067 119.582C60.9362 116.497 60.0394 112.965 60.0394 108.96H58.0394C58.0394 113.275 59.0092 117.157 60.972 120.578L62.7067 119.582ZM60.0394 108.96C60.0394 104.899 60.9374 101.371 62.7032 98.3439L60.9756 97.3361C59.008 100.709 58.0394 104.594 58.0394 108.96H60.0394ZM62.7032 98.3439C64.479 95.2995 66.9085 92.9201 70.0062 91.1935L69.0325 89.4465C65.6236 91.3466 62.933 93.9805 60.9756 97.3361L62.7032 98.3439ZM70.0002 91.1968C73.1447 89.4724 76.7098 88.6 80.7194 88.6V86.6C76.409 86.6 72.5074 87.5409 69.0385 89.4432L70.0002 91.1968ZM80.7194 88.6C84.1604 88.6 87.2361 89.2668 89.9656 90.581L90.8332 88.779C87.8026 87.3198 84.4251 86.6 80.7194 86.6V88.6ZM89.9656 90.581C92.6669 91.8816 94.7865 93.8255 96.3404 96.4321L98.0583 95.4079C96.3056 92.4679 93.8919 90.2517 90.8332 88.779L89.9656 90.581ZM96.6375 95.0928L92.3975 97.9728L93.5213 99.6272L97.7613 96.7472L96.6375 95.0928ZM93.7882 98.2405C92.2574 95.9726 90.3377 94.2736 88.0284 93.1767L87.1703 94.9833C89.1277 95.913 90.7814 97.3607 92.1305 99.3595L93.7882 98.2405ZM88.0284 93.1767C85.7529 92.0958 83.2852 91.56 80.6394 91.56V93.56C83.0069 93.56 85.1792 94.0375 87.1703 94.9833L88.0284 93.1767ZM80.6394 91.56C77.4911 91.56 74.6229 92.2928 72.0591 93.7741L73.0597 95.5059C75.2958 94.2138 77.8143 93.56 80.6394 93.56V91.56ZM72.0737 93.7658C69.5083 95.1911 67.4836 97.2187 66.0088 99.8279L67.7499 100.812C69.0485 98.5147 70.8105 96.7556 73.045 95.5142L72.0737 93.7658ZM66.0088 99.8279C64.5236 102.456 63.7994 105.511 63.7994 108.96H65.7994C65.7994 105.796 66.4618 103.091 67.7499 100.812L66.0088 99.8279ZM63.7994 108.96C63.7994 112.409 64.5236 115.464 66.0088 118.092L67.7499 117.108C66.4618 114.829 65.7994 112.124 65.7994 108.96H63.7994ZM66.0088 118.092C67.4818 120.698 69.5018 122.748 72.0591 124.226L73.0597 122.494C70.8169 121.198 69.0503 119.409 67.7499 117.108L66.0088 118.092ZM72.0737 124.234C74.6351 125.657 77.4981 126.36 80.6394 126.36V124.36C77.8073 124.36 75.2836 123.73 73.045 122.486L72.0737 124.234ZM80.6394 126.36C83.2852 126.36 85.7529 125.824 88.0284 124.743L87.1703 122.937C85.1792 123.882 83.0069 124.36 80.6394 124.36V126.36ZM88.0284 124.743C90.331 123.65 92.2493 121.982 93.7816 119.769L92.1372 118.631C90.7894 120.578 89.1344 122.004 87.1703 122.937L88.0284 124.743ZM92.3975 120.027L96.6375 122.907L97.7613 121.253L93.5213 118.373L92.3975 120.027ZM96.3449 121.561C94.7905 124.118 92.6659 126.069 89.9522 127.426L90.8466 129.214C93.8929 127.691 96.3016 125.482 98.0539 122.599L96.3449 121.561ZM89.9656 127.419C87.2361 128.733 84.1604 129.4 80.7194 129.4V131.4C84.4251 131.4 87.8026 130.68 90.8332 129.221L89.9656 127.419ZM138.133 89.6L137.671 90.4869L137.682 90.4926L137.693 90.4981L138.133 89.6ZM144.213 95.52L143.333 95.9951L143.336 96.0019L143.34 96.0086L144.213 95.52ZM146.453 130V131H147.453V130H146.453ZM140.773 130H139.773V131H140.773V130ZM137.413 96.16L136.689 96.8501L136.697 96.8587L136.705 96.8671L137.413 96.16ZM120.293 94.56L120.765 95.4412L120.773 95.4371L120.293 94.56ZM115.173 99.76L114.291 99.2883L114.287 99.296L115.173 99.76ZM113.413 130V131H114.413V130H113.413ZM107.733 130H106.733V131H107.733V130ZM107.733 70.64V69.64H106.733V70.64H107.733ZM113.413 70.64H114.413V69.64H113.413V70.64ZM113.413 99.52L112.525 99.9803L114.413 99.52H113.413ZM112.293 97.36L111.377 96.9583L111.185 97.396L111.405 97.8203L112.293 97.36ZM118.693 90.24L119.195 91.1044L119.207 91.0975L118.693 90.24ZM129.173 88.6C132.454 88.6 135.277 89.2403 137.671 90.4869L138.594 88.7131C135.868 87.293 132.717 86.6 129.173 86.6V88.6ZM137.693 90.4981C140.111 91.6824 141.987 93.5038 143.333 95.9951L145.092 95.0448C143.558 92.2029 141.381 90.0776 138.572 88.7019L137.693 90.4981ZM143.34 96.0086C144.727 98.4851 145.453 101.664 145.453 105.6H147.453C147.453 101.429 146.685 97.8882 145.085 95.0314L143.34 96.0086ZM145.453 105.6V130H147.453V105.6H145.453ZM146.453 129H140.773V131H146.453V129ZM141.773 130V106.16H139.773V130H141.773ZM141.773 106.16C141.773 101.575 140.611 97.9445 138.12 95.4529L136.705 96.8671C138.694 98.8555 139.773 101.892 139.773 106.16H141.773ZM138.136 95.4699C135.714 92.9296 132.33 91.72 128.133 91.72V93.72C131.935 93.72 134.738 94.8037 136.689 96.8501L138.136 95.4699ZM128.133 91.72C125.007 91.72 122.223 92.3629 119.812 93.6829L120.773 95.4371C122.842 94.3038 125.285 93.72 128.133 93.72V91.72ZM119.82 93.6788C117.451 94.95 115.606 96.83 114.291 99.2883L116.054 100.232C117.193 98.1033 118.761 96.5167 120.765 95.4412L119.82 93.6788ZM114.287 99.296C113.021 101.712 112.413 104.6 112.413 107.92H114.413C114.413 104.84 114.977 102.288 116.058 100.224L114.287 99.296ZM112.413 107.92L112.413 130H114.413L114.413 107.92H112.413ZM113.413 129H107.733V131H113.413V129ZM108.733 130L108.733 70.64H106.733L106.733 130H108.733ZM107.733 71.64H113.413V69.64H107.733V71.64ZM112.413 70.64V99.52H114.413V70.64H112.413ZM114.3 99.0597L113.18 96.8997L111.405 97.8203L112.525 99.9803L114.3 99.0597ZM113.208 97.7617C114.454 94.9203 116.441 92.707 119.195 91.1043L118.19 89.3757C115.077 91.1863 112.797 93.7196 111.377 96.9583L113.208 97.7617ZM119.207 91.0975C121.958 89.4467 125.267 88.6 129.173 88.6V86.6C124.972 86.6 121.293 87.5133 118.178 89.3825L119.207 91.0975ZM161.795 130H160.795V131H161.795V130ZM161.795 88V87H160.795V88H161.795ZM167.475 88H168.475V87H167.475V88ZM167.475 130V131H168.475V130H167.475ZM161.715 71.84L162.397 72.5711L162.41 72.5593L162.422 72.5471L161.715 71.84ZM167.635 77.52L166.928 76.8129L166.916 76.8251L166.904 76.8377L167.635 77.52ZM162.795 130V88H160.795V130H162.795ZM161.795 89H167.475V87H161.795V89ZM166.475 88V130H168.475V88H166.475ZM167.475 129H161.795V131H167.475V129ZM164.675 77.72C163.756 77.72 163.027 77.4177 162.422 76.8129L161.008 78.2271C162.003 79.2223 163.247 79.72 164.675 79.72V77.72ZM162.422 76.8129C161.808 76.1983 161.515 75.4918 161.515 74.64H159.515C159.515 76.0282 160.022 77.2417 161.008 78.2271L162.422 76.8129ZM161.515 74.64C161.515 73.7898 161.805 73.1236 162.397 72.5711L161.033 71.1089C160.025 72.0497 159.515 73.2502 159.515 74.64H161.515ZM162.422 72.5471C163.027 71.9423 163.756 71.64 164.675 71.64V69.64C163.247 69.64 162.003 70.1377 161.008 71.1329L162.422 72.5471ZM164.675 71.64C165.615 71.64 166.352 71.9304 166.953 72.4911L168.317 71.0289C167.318 70.0963 166.082 69.64 164.675 69.64V71.64ZM166.953 72.4911C167.545 73.0436 167.835 73.7098 167.835 74.56H169.835C169.835 73.1702 169.325 71.9697 168.317 71.0289L166.953 72.4911ZM167.835 74.56C167.835 75.4791 167.533 76.2081 166.928 76.8129L168.342 78.2271C169.337 77.2319 169.835 75.9876 169.835 74.56H167.835ZM166.904 76.8377C166.37 77.4095 165.662 77.72 164.675 77.72V79.72C166.142 79.72 167.406 79.2305 168.366 78.2023L166.904 76.8377ZM189.199 127.68L188.7 128.546L188.706 128.55L189.199 127.68ZM181.759 120.16L180.886 120.647L180.889 120.653L181.759 120.16ZM189.199 90.32L189.688 91.1928L189.692 91.19L189.199 90.32ZM209.839 90.08L209.341 90.9473L209.348 90.9512L209.839 90.08ZM216.799 97.36L215.917 97.8306L215.922 97.8394L215.927 97.8482L216.799 97.36ZM216.879 120.56L217.762 121.031L217.762 121.031L216.879 120.56ZM209.919 127.92L210.417 128.787L210.422 128.784L209.919 127.92ZM208.399 123.36L208.893 124.229L208.9 124.226L208.399 123.36ZM213.999 117.6L213.124 117.116L213.121 117.122L213.999 117.6ZM213.999 100.32L213.121 100.798L213.125 100.805L213.129 100.812L213.999 100.32ZM208.399 94.64L207.891 95.5009L207.902 95.5077L207.914 95.5142L208.399 94.64ZM192.479 94.64L192.973 95.5095L192.981 95.5053L192.988 95.5009L192.479 94.64ZM186.879 100.32L187.75 100.812L187.75 100.812L186.879 100.32ZM186.879 117.6L186.004 118.084L186.009 118.092L186.879 117.6ZM192.479 123.36L191.971 124.221L191.978 124.225L191.985 124.229L192.479 123.36ZM216.239 130H215.239V131H216.239V130ZM216.239 117.36L215.242 117.294L215.239 117.327V117.36H216.239ZM216.799 108.88L217.797 108.946L217.802 108.866L217.795 108.786L216.799 108.88ZM215.999 100.4H214.999V100.447L215.004 100.494L215.999 100.4ZM215.999 70.64V69.64H214.999V70.64H215.999ZM221.679 70.64H222.679V69.64H221.679V70.64ZM221.679 130V131H222.679V130H221.679ZM199.999 129.4C196.157 129.4 192.729 128.531 189.692 126.81L188.706 128.55C192.07 130.456 195.842 131.4 199.999 131.4V129.4ZM189.699 126.814C186.709 125.091 184.356 122.714 182.629 119.667L180.889 120.653C182.79 124.006 185.397 126.643 188.7 128.546L189.699 126.814ZM182.633 119.673C180.913 116.587 180.039 113.026 180.039 108.96H178.039C178.039 113.321 178.979 117.226 180.886 120.647L182.633 119.673ZM180.039 108.96C180.039 104.838 180.914 101.28 182.629 98.253L180.889 97.267C178.978 100.64 178.039 104.548 178.039 108.96H180.039ZM182.629 98.253C184.354 95.2088 186.704 92.8616 189.688 91.1928L188.711 89.4472C185.402 91.2984 182.791 93.9112 180.889 97.267L182.629 98.253ZM189.692 91.19C192.729 89.4692 196.157 88.6 199.999 88.6V86.6C195.842 86.6 192.07 87.5441 188.706 89.45L189.692 91.19ZM199.999 88.6C203.524 88.6 206.629 89.3901 209.342 90.9473L210.337 89.2127C207.29 87.4633 203.835 86.6 199.999 86.6V88.6ZM209.348 90.9512C212.103 92.5037 214.293 94.7851 215.917 97.8306L217.682 96.8894C215.893 93.5348 213.443 90.9629 210.33 89.2088L209.348 90.9512ZM215.927 97.8482C217.583 100.81 218.439 104.499 218.439 108.96H220.439C220.439 104.248 219.535 100.203 217.672 96.8718L215.927 97.8482ZM218.439 108.96C218.439 113.369 217.609 117.066 215.997 120.089L217.762 121.031C219.563 117.654 220.439 113.617 220.439 108.96H218.439ZM215.997 120.089C214.372 123.137 212.178 125.449 209.416 127.056L210.422 128.784C213.527 126.978 215.974 124.383 217.762 121.031L215.997 120.089ZM209.422 127.053C206.711 128.609 203.58 129.4 199.999 129.4V131.4C203.885 131.4 207.368 130.538 210.417 128.787L209.422 127.053ZM200.399 126.36C203.54 126.36 206.381 125.657 208.893 124.229L207.905 122.491C205.725 123.729 203.232 124.36 200.399 124.36V126.36ZM208.9 124.226C211.46 122.746 213.457 120.691 214.878 118.078L213.121 117.122C211.875 119.415 210.138 121.2 207.899 122.494L208.9 124.226ZM214.874 118.084C216.354 115.41 217.079 112.359 217.079 108.96H215.079C215.079 112.067 214.418 114.777 213.124 117.116L214.874 118.084ZM217.079 108.96C217.079 105.511 216.355 102.456 214.87 99.8279L213.129 100.812C214.417 103.091 215.079 105.796 215.079 108.96H217.079ZM214.878 99.8425C213.456 97.2253 211.454 95.193 208.885 93.7658L207.914 95.5142C210.145 96.7536 211.876 98.508 213.121 100.798L214.878 99.8425ZM208.908 93.7791C206.393 92.2928 203.547 91.56 200.399 91.56V93.56C203.225 93.56 205.713 94.2139 207.891 95.5009L208.908 93.7791ZM200.399 91.56C197.301 91.56 194.483 92.2944 191.971 93.7791L192.988 95.5009C195.169 94.2122 197.631 93.56 200.399 93.56V91.56ZM191.985 93.7705C189.474 95.1973 187.48 97.2243 186.009 99.8279L187.75 100.812C189.052 98.509 190.791 96.7493 192.973 95.5095L191.985 93.7705ZM186.009 99.8279C184.524 102.456 183.799 105.511 183.799 108.96H185.799C185.799 105.796 186.462 103.091 187.75 100.812L186.009 99.8279ZM183.799 108.96C183.799 112.359 184.525 115.41 186.004 118.084L187.754 117.116C186.46 114.777 185.799 112.067 185.799 108.96H183.799ZM186.009 118.092C187.479 120.693 189.468 122.742 191.971 124.221L192.988 122.499C190.798 121.205 189.053 119.414 187.75 117.108L186.009 118.092ZM191.985 124.229C194.496 125.656 197.308 126.36 200.399 126.36V124.36C197.624 124.36 195.157 123.731 192.973 122.491L191.985 124.229ZM217.239 130V117.36H215.239V130H217.239ZM217.237 117.426L217.797 108.946L215.802 108.814L215.242 117.294L217.237 117.426ZM217.795 108.786L216.995 100.306L215.004 100.494L215.804 108.974L217.795 108.786ZM216.999 100.4V70.64H214.999V100.4H216.999ZM215.999 71.64H221.679V69.64H215.999V71.64ZM220.679 70.64V130H222.679V70.64H220.679ZM221.679 129H216.239V131H221.679V129ZM263.818 130H262.818V131H263.818V130ZM263.818 120.72H264.818V120.642L264.806 120.564L263.818 120.72ZM263.578 119.2H262.578V119.278L262.59 119.356L263.578 119.2ZM260.538 95.44L259.841 96.1568L259.85 96.166L260.538 95.44ZM243.898 93.92L243.551 92.982L243.551 92.982L243.898 93.92ZM237.658 97.52L236.802 98.0369L237.419 99.0582L238.317 98.2726L237.658 97.52ZM235.098 93.28L234.45 92.5181L233.802 93.0688L234.242 93.7969L235.098 93.28ZM242.778 89.12L243.084 90.072L243.092 90.0696L243.099 90.067L242.778 89.12ZM264.778 91.68L264.098 92.4133L264.105 92.4197L264.112 92.4259L264.778 91.68ZM269.258 130V131H270.258V130H269.258ZM241.098 128.88L240.676 129.787L240.689 129.793L240.702 129.798L241.098 128.88ZM235.818 124.56L234.982 125.109L234.99 125.12L235.818 124.56ZM235.498 112.24L234.636 111.733L234.632 111.741L235.498 112.24ZM240.618 107.92L241.032 108.83L241.041 108.826L240.618 107.92ZM264.698 106.24H265.698V105.24H264.698V106.24ZM264.698 110.48V111.48H265.698V110.48H264.698ZM241.898 112.64L241.229 111.897L241.223 111.902L241.217 111.908L241.898 112.64ZM242.378 123.76L242.989 122.968L242.989 122.968L242.378 123.76ZM258.458 123.76L258.99 124.607L258.995 124.604L258.458 123.76ZM263.578 117.36L264.529 117.05L263.655 114.374L262.645 117.001L263.578 117.36ZM264.858 121.28L265.791 121.639L265.919 121.307L265.809 120.97L264.858 121.28ZM259.258 127.92L258.731 127.07L258.723 127.075L259.258 127.92ZM264.818 130V120.72H262.818V130H264.818ZM264.806 120.564L264.566 119.044L262.59 119.356L262.83 120.876L264.806 120.564ZM264.578 119.2V103.68H262.578V119.2H264.578ZM264.578 103.68C264.578 99.9133 263.504 96.8723 261.226 94.714L259.85 96.166C261.626 97.8477 262.578 100.3 262.578 103.68H264.578ZM261.235 94.7233C259.008 92.5556 255.752 91.56 251.658 91.56V93.56C255.457 93.56 258.122 94.4844 259.841 96.1567L261.235 94.7233ZM251.658 91.56C248.825 91.56 246.12 92.0327 243.551 92.982L244.245 94.858C246.583 93.994 249.052 93.56 251.658 93.56V91.56ZM243.551 92.982C241.001 93.9246 238.811 95.1825 237 96.7674L238.317 98.2726C239.919 96.8709 241.889 95.7288 244.245 94.858L243.551 92.982ZM238.514 97.0031L235.954 92.7631L234.242 93.7969L236.802 98.0369L238.514 97.0031ZM235.746 94.0419C237.767 92.3235 240.208 90.9966 243.084 90.072L242.472 88.168C239.375 89.1634 236.695 90.6098 234.45 92.5181L235.746 94.0419ZM243.099 90.067C245.978 89.0904 249.015 88.6 252.218 88.6V86.6C248.808 86.6 245.552 87.1229 242.457 88.173L243.099 90.067ZM252.218 88.6C257.498 88.6 261.408 89.9185 264.098 92.4133L265.458 90.9467C262.282 88.0015 257.818 86.6 252.218 86.6V88.6ZM264.112 92.4259C266.816 94.8401 268.258 98.6012 268.258 103.92H270.258C270.258 98.2521 268.714 93.8533 265.444 90.9341L264.112 92.4259ZM268.258 103.92V130H270.258V103.92H268.258ZM269.258 129H263.818V131H269.258V129ZM249.338 129.4C246.297 129.4 243.691 128.91 241.495 127.962L240.702 129.798C243.199 130.876 246.086 131.4 249.338 131.4V129.4ZM241.52 127.973C239.365 126.971 237.757 125.641 236.646 124L234.99 125.12C236.333 127.106 238.245 128.656 240.676 129.787L241.52 127.973ZM236.654 124.011C235.542 122.32 234.978 120.38 234.978 118.16H232.978C232.978 120.74 233.641 123.067 234.982 125.109L236.654 124.011ZM234.978 118.16C234.978 116.135 235.445 114.336 236.365 112.739L234.632 111.741C233.524 113.664 232.978 115.812 232.978 118.16H234.978ZM236.36 112.747C237.301 111.148 238.83 109.831 241.032 108.83L240.204 107.01C237.713 108.142 235.829 109.706 234.636 111.733L236.36 112.747ZM241.041 108.826C243.259 107.791 246.296 107.24 250.218 107.24V105.24C246.14 105.24 242.778 105.809 240.195 107.014L241.041 108.826ZM250.218 107.24H264.698V105.24H250.218V107.24ZM263.698 106.24V110.48H265.698V106.24H263.698ZM264.698 109.48H250.378V111.48H264.698V109.48ZM250.378 109.48C246.27 109.48 243.118 110.197 241.229 111.897L242.567 113.383C243.878 112.203 246.38 111.48 250.378 111.48V109.48ZM241.217 111.908C239.465 113.539 238.578 115.592 238.578 118H240.578C240.578 116.141 241.238 114.621 242.58 113.372L241.217 111.908ZM238.578 118C238.578 120.703 239.65 122.918 241.767 124.552L242.989 122.968C241.373 121.722 240.578 120.097 240.578 118H238.578ZM241.767 124.552C243.87 126.174 246.729 126.92 250.218 126.92V124.92C246.988 124.92 244.62 124.226 242.989 122.968L241.767 124.552ZM250.218 126.92C253.572 126.92 256.51 126.164 258.99 124.607L257.926 122.913C255.819 124.236 253.265 124.92 250.218 124.92V126.92ZM258.995 124.604C261.535 122.987 263.374 120.678 264.511 117.719L262.645 117.001C261.649 119.589 260.075 121.546 257.921 122.916L258.995 124.604ZM262.628 117.67L263.908 121.59L265.809 120.97L264.529 117.05L262.628 117.67ZM263.925 120.921C262.941 123.479 261.224 125.525 258.731 127.07L259.785 128.77C262.626 127.009 264.642 124.628 265.791 121.639L263.925 120.921ZM258.723 127.075C256.311 128.601 253.204 129.4 249.338 129.4V131.4C253.473 131.4 256.979 130.545 259.793 128.765L258.723 127.075Z" fill="#DDDDDD" mask="url(#path-1-outside-1_388_14)"/>
</svg>
