<svg width="267" height="127" viewBox="0 0 267 127" fill="none" xmlns="http://www.w3.org/2000/svg">
<mask id="path-1-outside-1_388_13" maskUnits="userSpaceOnUse" x="-1" y="-1" width="269" height="129" fill="black">
<rect fill="white" x="-1" y="-1" width="269" height="129"/>
<path d="M0.120001 56L0.120001 -3.8147e-06H5L30.6 43.68H28.04L53.4 -3.8147e-06H58.28V56L52.6 56V8.88H53.96L30.6 48.88H27.8L4.28 8.88H5.8L5.8 56H0.120001ZM92.4463 56.4C88.3929 56.4 84.7396 55.4933 81.4863 53.68C78.2863 51.8133 75.7529 49.28 73.8863 46.08C72.0196 42.8267 71.0863 39.12 71.0863 34.96C71.0863 30.7467 72.0196 27.04 73.8863 23.84C75.7529 20.64 78.2863 18.1333 81.4863 16.32C84.6863 14.5067 88.3396 13.6 92.4463 13.6C96.6063 13.6 100.286 14.5067 103.486 16.32C106.74 18.1333 109.273 20.64 111.086 23.84C112.953 27.04 113.886 30.7467 113.886 34.96C113.886 39.12 112.953 42.8267 111.086 46.08C109.273 49.28 106.74 51.8133 103.486 53.68C100.233 55.4933 96.5529 56.4 92.4463 56.4ZM92.4463 51.36C95.4863 51.36 98.1796 50.6933 100.526 49.36C102.873 47.9733 104.713 46.0533 106.046 43.6C107.433 41.0933 108.126 38.2133 108.126 34.96C108.126 31.6533 107.433 28.7733 106.046 26.32C104.713 23.8667 102.873 21.9733 100.526 20.64C98.1796 19.2533 95.5129 18.56 92.5263 18.56C89.5396 18.56 86.8729 19.2533 84.5263 20.64C82.1796 21.9733 80.3129 23.8667 78.9263 26.32C77.5396 28.7733 76.8463 31.6533 76.8463 34.96C76.8463 38.2133 77.5396 41.0933 78.9263 43.6C80.3129 46.0533 82.1796 47.9733 84.5263 49.36C86.8729 50.6933 89.5129 51.36 92.4463 51.36ZM143.323 56.4C138.949 56.4 135.109 55.4933 131.803 53.68C128.496 51.8133 125.909 49.28 124.043 46.08C122.176 42.8267 121.243 39.12 121.243 34.96C121.243 30.8 122.123 27.12 123.883 23.92C125.696 20.72 128.149 18.2133 131.243 16.4C134.389 14.5333 137.909 13.6 141.803 13.6C145.749 13.6 149.243 14.5067 152.283 16.32C155.376 18.08 157.803 20.5867 159.563 23.84C161.323 27.04 162.203 30.7467 162.203 34.96C162.203 35.2267 162.176 35.52 162.123 35.84C162.123 36.1067 162.123 36.4 162.123 36.72H125.563V32.48H159.083L156.843 34.16C156.843 31.12 156.176 28.4267 154.843 26.08C153.563 23.68 151.803 21.8133 149.563 20.48C147.323 19.1467 144.736 18.48 141.803 18.48C138.923 18.48 136.336 19.1467 134.043 20.48C131.749 21.8133 129.963 23.68 128.683 26.08C127.403 28.48 126.763 31.2267 126.763 34.32V35.2C126.763 38.4 127.456 41.2267 128.843 43.68C130.283 46.08 132.256 47.9733 134.763 49.36C137.323 50.6933 140.229 51.36 143.483 51.36C146.043 51.36 148.416 50.9067 150.603 50C152.843 49.0933 154.763 47.7067 156.363 45.84L159.563 49.52C157.696 51.76 155.349 53.4667 152.523 54.64C149.749 55.8133 146.683 56.4 143.323 56.4ZM195.204 13.6C198.617 13.6 201.604 14.2667 204.164 15.6C206.777 16.88 208.804 18.8533 210.244 21.52C211.737 24.1867 212.484 27.5467 212.484 31.6V56H206.804V32.16C206.804 27.7333 205.684 24.4 203.444 22.16C201.257 19.8667 198.164 18.72 194.164 18.72C191.177 18.72 188.564 19.3333 186.324 20.56C184.137 21.7333 182.43 23.4667 181.204 25.76C180.03 28 179.444 30.72 179.444 33.92V56H173.764V14H179.204V25.52L178.324 23.36C179.657 20.32 181.79 17.9467 184.724 16.24C187.657 14.48 191.15 13.6 195.204 13.6ZM244.946 56.4C240.893 56.4 237.24 55.4933 233.986 53.68C230.786 51.8133 228.253 49.28 226.386 46.08C224.52 42.8267 223.586 39.12 223.586 34.96C223.586 30.7467 224.52 27.04 226.386 23.84C228.253 20.64 230.786 18.1333 233.986 16.32C237.186 14.5067 240.84 13.6 244.946 13.6C249.106 13.6 252.786 14.5067 255.986 16.32C259.24 18.1333 261.773 20.64 263.586 23.84C265.453 27.04 266.386 30.7467 266.386 34.96C266.386 39.12 265.453 42.8267 263.586 46.08C261.773 49.28 259.24 51.8133 255.986 53.68C252.733 55.4933 249.053 56.4 244.946 56.4ZM244.946 51.36C247.986 51.36 250.68 50.6933 253.026 49.36C255.373 47.9733 257.213 46.0533 258.546 43.6C259.933 41.0933 260.626 38.2133 260.626 34.96C260.626 31.6533 259.933 28.7733 258.546 26.32C257.213 23.8667 255.373 21.9733 253.026 20.64C250.68 19.2533 248.013 18.56 245.026 18.56C242.04 18.56 239.373 19.2533 237.026 20.64C234.68 21.9733 232.813 23.8667 231.426 26.32C230.04 28.7733 229.346 31.6533 229.346 34.96C229.346 38.2133 230.04 41.0933 231.426 43.6C232.813 46.0533 234.68 47.9733 237.026 49.36C239.373 50.6933 242.013 51.36 244.946 51.36ZM0.120001 126L0.120001 70H6.04L6.04 126H0.120001ZM34.3406 126.4C30.874 126.4 27.594 125.92 24.5006 124.96C21.4073 123.947 18.9806 122.693 17.2206 121.2L19.7806 116.72C21.4873 118 23.674 119.12 26.3406 120.08C29.0073 120.987 31.8073 121.44 34.7406 121.44C38.7406 121.44 41.6206 120.827 43.3806 119.6C45.1406 118.32 46.0206 116.64 46.0206 114.56C46.0206 113.013 45.514 111.813 44.5006 110.96C43.5406 110.053 42.2606 109.387 40.6606 108.96C39.0606 108.48 37.274 108.08 35.3006 107.76C33.3273 107.44 31.354 107.067 29.3806 106.64C27.4606 106.213 25.7006 105.6 24.1006 104.8C22.5006 103.947 21.194 102.8 20.1806 101.36C19.2206 99.92 18.7406 98 18.7406 95.6C18.7406 93.3067 19.3806 91.2533 20.6606 89.44C21.9406 87.6267 23.8073 86.2133 26.2606 85.2C28.7673 84.1333 31.8073 83.6 35.3806 83.6C38.1006 83.6 40.8206 83.9733 43.5406 84.72C46.2606 85.4133 48.5006 86.3467 50.2606 87.52L47.7806 92.08C45.914 90.8 43.914 89.8933 41.7806 89.36C39.6473 88.7733 37.514 88.48 35.3806 88.48C31.594 88.48 28.794 89.1467 26.9806 90.48C25.2206 91.76 24.3406 93.4133 24.3406 95.44C24.3406 97.04 24.8206 98.2933 25.7806 99.2C26.794 100.107 28.1006 100.827 29.7006 101.36C31.354 101.84 33.1406 102.24 35.0606 102.56C37.034 102.88 38.9806 103.28 40.9006 103.76C42.874 104.187 44.6606 104.8 46.2606 105.6C47.914 106.347 49.2206 107.44 50.1806 108.88C51.194 110.267 51.7006 112.107 51.7006 114.4C51.7006 116.853 51.0073 118.987 49.6206 120.8C48.2873 122.56 46.314 123.947 43.7006 124.96C41.1406 125.92 38.0206 126.4 34.3406 126.4ZM79.2431 126.4C75.1898 126.4 71.5365 125.493 68.2831 123.68C65.0831 121.813 62.5498 119.28 60.6831 116.08C58.8165 112.827 57.8831 109.12 57.8831 104.96C57.8831 100.747 58.8165 97.04 60.6831 93.84C62.5498 90.64 65.0831 88.1333 68.2831 86.32C71.4831 84.5067 75.1365 83.6 79.2431 83.6C83.4031 83.6 87.0831 84.5067 90.2831 86.32C93.5365 88.1333 96.0698 90.64 97.8831 93.84C99.7498 97.04 100.683 100.747 100.683 104.96C100.683 109.12 99.7498 112.827 97.8831 116.08C96.0698 119.28 93.5365 121.813 90.2831 123.68C87.0298 125.493 83.3498 126.4 79.2431 126.4ZM79.2431 121.36C82.2831 121.36 84.9765 120.693 87.3231 119.36C89.6698 117.973 91.5098 116.053 92.8431 113.6C94.2298 111.093 94.9231 108.213 94.9231 104.96C94.9231 101.653 94.2298 98.7733 92.8431 96.32C91.5098 93.8667 89.6698 91.9733 87.3231 90.64C84.9765 89.2533 82.3098 88.56 79.3231 88.56C76.3365 88.56 73.6698 89.2533 71.3231 90.64C68.9765 91.9733 67.1098 93.8667 65.7231 96.32C64.3365 98.7733 63.6431 101.653 63.6431 104.96C63.6431 108.213 64.3365 111.093 65.7231 113.6C67.1098 116.053 68.9765 117.973 71.3231 119.36C73.6698 120.693 76.3098 121.36 79.2431 121.36ZM128.999 126.4C124.999 126.4 121.399 125.493 118.199 123.68C115.053 121.867 112.573 119.36 110.759 116.16C108.946 112.907 108.039 109.173 108.039 104.96C108.039 100.693 108.946 96.96 110.759 93.76C112.573 90.56 115.053 88.08 118.199 86.32C121.399 84.5067 124.999 83.6 128.999 83.6C132.679 83.6 135.959 84.4267 138.839 86.08C141.773 87.7333 144.093 90.16 145.799 93.36C147.559 96.5067 148.439 100.373 148.439 104.96C148.439 109.493 147.586 113.36 145.879 116.56C144.173 119.76 141.853 122.213 138.919 123.92C136.039 125.573 132.733 126.4 128.999 126.4ZM129.399 121.36C132.386 121.36 135.053 120.693 137.399 119.36C139.799 117.973 141.666 116.053 142.999 113.6C144.386 111.093 145.079 108.213 145.079 104.96C145.079 101.653 144.386 98.7733 142.999 96.32C141.666 93.8667 139.799 91.9733 137.399 90.64C135.053 89.2533 132.386 88.56 129.399 88.56C126.466 88.56 123.826 89.2533 121.479 90.64C119.133 91.9733 117.266 93.8667 115.879 96.32C114.493 98.7733 113.799 101.653 113.799 104.96C113.799 108.213 114.493 111.093 115.879 113.6C117.266 116.053 119.133 117.973 121.479 119.36C123.826 120.693 126.466 121.36 129.399 121.36ZM145.239 126V113.36L145.799 104.88L144.999 96.4V66.64H150.679V126H145.239ZM192.818 126V116.72L192.578 115.2V99.68C192.578 96.1067 191.565 93.36 189.538 91.44C187.565 89.52 184.605 88.56 180.658 88.56C177.938 88.56 175.351 89.0133 172.898 89.92C170.445 90.8267 168.365 92.0267 166.658 93.52L164.098 89.28C166.231 87.4667 168.791 86.08 171.778 85.12C174.765 84.1067 177.911 83.6 181.218 83.6C186.658 83.6 190.845 84.96 193.778 87.68C196.765 90.3467 198.258 94.4267 198.258 99.92V126H192.818ZM178.338 126.4C175.191 126.4 172.445 125.893 170.098 124.88C167.805 123.813 166.045 122.373 164.818 120.56C163.591 118.693 162.978 116.56 162.978 114.16C162.978 111.973 163.485 110 164.498 108.24C165.565 106.427 167.271 104.987 169.618 103.92C172.018 102.8 175.218 102.24 179.218 102.24H193.698V106.48H179.378C175.325 106.48 172.498 107.2 170.898 108.64C169.351 110.08 168.578 111.867 168.578 114C168.578 116.4 169.511 118.32 171.378 119.76C173.245 121.2 175.858 121.92 179.218 121.92C182.418 121.92 185.165 121.2 187.458 119.76C189.805 118.267 191.511 116.133 192.578 113.36L193.858 117.28C192.791 120.053 190.925 122.267 188.258 123.92C185.645 125.573 182.338 126.4 178.338 126.4Z"/>
</mask>
<path d="M0.120001 56H-0.879999V57H0.120001V56ZM0.120001 -3.8147e-06V-1H-0.879999V-3.8147e-06H0.120001ZM5 -3.8147e-06L5.86275 -0.505642L5.57301 -1H5V-3.8147e-06ZM30.6 43.68V44.68H32.3452L31.4627 43.1744L30.6 43.68ZM28.04 43.68L27.1752 43.1779L26.3031 44.68H28.04V43.68ZM53.4 -3.8147e-06V-1H52.8243L52.5352 -0.502101L53.4 -3.8147e-06ZM58.28 -3.8147e-06H59.28V-1H58.28V-3.8147e-06ZM58.28 56V57H59.28V56H58.28ZM52.6 56H51.6L51.6 57H52.6L52.6 56ZM52.6 8.88V7.88H51.6V8.88H52.6ZM53.96 8.88L54.8235 9.3843L55.702 7.88H53.96V8.88ZM30.6 48.88V49.88H31.174L31.4635 49.3843L30.6 48.88ZM27.8 48.88L26.938 49.3869L27.2279 49.88H27.8V48.88ZM4.28 8.88L4.28 7.88H2.53194L3.41798 9.38687L4.28 8.88ZM5.8 8.88H6.8L6.8 7.88H5.8L5.8 8.88ZM5.8 56V57H6.8V56H5.8ZM1.12 56L1.12 -3.8147e-06H-0.879999L-0.879999 56H1.12ZM0.120001 0.999996H5V-1H0.120001V0.999996ZM4.13726 0.505635L29.7373 44.1856L31.4627 43.1744L5.86275 -0.505642L4.13726 0.505635ZM30.6 42.68H28.04V44.68H30.6V42.68ZM28.9048 44.1821L54.2648 0.502093L52.5352 -0.502101L27.1752 43.1779L28.9048 44.1821ZM53.4 0.999996H58.28V-1H53.4V0.999996ZM57.28 -3.8147e-06V56H59.28V-3.8147e-06H57.28ZM58.28 55L52.6 55L52.6 57H58.28V55ZM53.6 56V8.88H51.6V56H53.6ZM52.6 9.88H53.96V7.88H52.6V9.88ZM53.0965 8.3757L29.7365 48.3757L31.4635 49.3843L54.8235 9.3843L53.0965 8.3757ZM30.6 47.88H27.8V49.88H30.6V47.88ZM28.662 48.3731L5.14202 8.37313L3.41798 9.38687L26.938 49.3869L28.662 48.3731ZM4.28 9.88H5.8L5.8 7.88H4.28L4.28 9.88ZM4.8 8.88L4.8 56H6.8L6.8 8.88H4.8ZM5.8 55H0.120001V57H5.8V55ZM81.4863 53.68L80.9824 54.5438L80.9908 54.5487L80.9994 54.5535L81.4863 53.68ZM73.8863 46.08L73.0189 46.5777L73.0225 46.5839L73.8863 46.08ZM73.8863 23.84L73.0225 23.3361L73.0225 23.3361L73.8863 23.84ZM81.4863 16.32L81.9793 17.19L81.9793 17.19L81.4863 16.32ZM103.486 16.32L102.993 17.19L102.999 17.1935L103.486 16.32ZM111.086 23.84L110.216 24.3331L110.222 24.3439L111.086 23.84ZM111.086 46.08L110.219 45.5823L110.216 45.587L111.086 46.08ZM103.486 53.68L103.973 54.5535L103.984 54.5474L103.486 53.68ZM100.526 49.36L101.02 50.2295L101.028 50.2253L101.035 50.2209L100.526 49.36ZM106.046 43.6L105.171 43.1159L105.168 43.1225L106.046 43.6ZM106.046 26.32L105.168 26.7975L105.172 26.8048L105.176 26.8121L106.046 26.32ZM100.526 20.64L100.018 21.5009L100.025 21.5053L100.032 21.5095L100.526 20.64ZM84.5263 20.64L85.0203 21.5095L85.0277 21.5053L85.035 21.5009L84.5263 20.64ZM78.9263 26.32L79.7968 26.8121L79.7968 26.8121L78.9263 26.32ZM78.9263 43.6L78.0512 44.0841L78.0557 44.0921L78.9263 43.6ZM84.5263 49.36L84.0175 50.2209L84.0248 50.2253L84.0322 50.2295L84.5263 49.36ZM92.4463 55.4C88.5479 55.4 85.0647 54.5297 81.9731 52.8065L80.9994 54.5535C84.4145 56.457 88.238 57.4 92.4463 57.4V55.4ZM81.9901 52.8162C78.9391 51.0365 76.5298 48.6271 74.75 45.5761L73.0225 46.5839C74.9761 49.9329 77.6334 52.5902 80.9824 54.5438L81.9901 52.8162ZM74.7536 45.5823C72.9831 42.4965 72.0863 38.9649 72.0863 34.96H70.0863C70.0863 39.2751 71.0561 43.1568 73.0189 46.5777L74.7536 45.5823ZM72.0863 34.96C72.0863 30.899 72.9843 27.3709 74.75 24.3439L73.0225 23.3361C71.0549 26.7091 70.0863 30.5944 70.0863 34.96H72.0863ZM74.75 24.3439C76.5283 21.2954 78.9342 18.9156 81.9793 17.19L80.9932 15.45C77.6383 17.3511 74.9775 19.9846 73.0225 23.3361L74.75 24.3439ZM81.9793 17.19C85.012 15.4715 88.4918 14.6 92.4463 14.6V12.6C88.1873 12.6 84.3605 13.5419 80.9932 15.45L81.9793 17.19ZM92.4463 14.6C96.4565 14.6 99.9624 15.4726 102.993 17.19L103.979 15.45C100.61 13.5408 96.756 12.6 92.4463 12.6V14.6ZM102.999 17.1935C106.095 18.9187 108.495 21.2947 110.216 24.333L111.956 23.347C110.051 19.9853 107.385 17.3479 103.973 15.4465L102.999 17.1935ZM110.222 24.3439C111.988 27.3709 112.886 30.899 112.886 34.96H114.886C114.886 30.5944 113.918 26.7091 111.95 23.3361L110.222 24.3439ZM112.886 34.96C112.886 38.9649 111.989 42.4965 110.219 45.5823L111.954 46.5777C113.916 43.1568 114.886 39.2751 114.886 34.96H112.886ZM110.216 45.587C108.493 48.6279 106.09 51.0333 102.989 52.8126L103.984 54.5474C107.389 52.5934 110.053 49.9321 111.956 46.573L110.216 45.587ZM102.999 52.8065C99.9098 54.5286 96.4004 55.4 92.4463 55.4V57.4C96.7054 57.4 100.556 56.4581 103.973 54.5535L102.999 52.8065ZM92.4463 52.36C95.6372 52.36 98.5047 51.6587 101.02 50.2295L100.032 48.4905C97.8544 49.7279 95.3353 50.36 92.4463 50.36V52.36ZM101.035 50.2209C103.541 48.7399 105.507 46.6857 106.925 44.0775L105.168 43.1225C103.918 45.421 102.205 47.2067 100.018 48.4991L101.035 50.2209ZM106.921 44.0841C108.401 41.4101 109.126 38.3594 109.126 34.96H107.126C107.126 38.0673 106.465 40.7766 105.171 43.1159L106.921 44.0841ZM109.126 34.96C109.126 31.511 108.402 28.4556 106.917 25.8279L105.176 26.8121C106.464 29.0911 107.126 31.7957 107.126 34.96H109.126ZM106.925 25.8425C105.506 23.2311 103.535 21.1994 101.02 19.7705L100.032 21.5095C102.211 22.7473 103.92 24.5022 105.168 26.7975L106.925 25.8425ZM101.035 19.7791C98.5197 18.2928 95.6742 17.56 92.5263 17.56V19.56C95.3516 19.56 97.8395 20.2139 100.018 21.5009L101.035 19.7791ZM92.5263 17.56C89.3783 17.56 86.5328 18.2928 84.0175 19.7791L85.035 21.5009C87.2131 20.2139 89.7009 19.56 92.5263 19.56V17.56ZM84.0322 19.7705C81.5211 21.1973 79.5273 23.2243 78.0557 25.8279L79.7968 26.8121C81.0985 24.509 82.8381 22.7493 85.0203 21.5095L84.0322 19.7705ZM78.0557 25.8279C76.5705 28.4556 75.8463 31.511 75.8463 34.96H77.8463C77.8463 31.7957 78.5087 29.0911 79.7968 26.8121L78.0557 25.8279ZM75.8463 34.96C75.8463 38.3594 76.572 41.4101 78.0512 44.0841L79.8013 43.1159C78.5072 40.7766 77.8463 38.0673 77.8463 34.96H75.8463ZM78.0557 44.0921C79.5255 46.6925 81.5148 48.742 84.0175 50.2209L85.035 48.4991C82.8444 47.2046 81.1003 45.4141 79.7968 43.1079L78.0557 44.0921ZM84.0322 50.2295C86.5424 51.6557 89.3552 52.36 92.4463 52.36V50.36C89.6706 50.36 87.2034 49.731 85.0203 48.4905L84.0322 50.2295ZM131.803 53.68L131.311 54.5509L131.322 54.5568L131.803 53.68ZM124.043 46.08L123.175 46.5777L123.179 46.5839L124.043 46.08ZM123.883 23.92L123.012 23.4269L123.006 23.4381L123.883 23.92ZM131.243 16.4L131.748 17.2627L131.753 17.2601L131.243 16.4ZM152.283 16.32L151.77 17.1788L151.779 17.1841L151.788 17.1892L152.283 16.32ZM159.563 23.84L158.683 24.3158L158.686 24.3219L159.563 23.84ZM162.123 35.84L161.136 35.6756L161.123 35.7572V35.84H162.123ZM162.123 36.72V37.72H163.123V36.72H162.123ZM125.563 36.72H124.563V37.72H125.563V36.72ZM125.563 32.48V31.48H124.563V32.48H125.563ZM159.083 32.48L159.683 33.28L162.083 31.48H159.083V32.48ZM156.843 34.16H155.843V36.16L157.443 34.96L156.843 34.16ZM154.843 26.08L153.96 26.5506L153.966 26.5624L153.973 26.574L154.843 26.08ZM149.563 20.48L150.074 19.6207L150.074 19.6207L149.563 20.48ZM134.043 20.48L133.54 19.6155L133.54 19.6155L134.043 20.48ZM128.683 26.08L129.565 26.5506L129.565 26.5506L128.683 26.08ZM128.843 43.68L127.972 44.1721L127.978 44.1834L127.985 44.1945L128.843 43.68ZM134.763 49.36L134.278 50.235L134.289 50.2411L134.301 50.2469L134.763 49.36ZM150.603 50L150.227 49.073L150.219 49.0763L150.603 50ZM156.363 45.84L157.117 45.1838L156.357 44.3098L155.603 45.1892L156.363 45.84ZM159.563 49.52L160.331 50.1602L160.876 49.5062L160.317 48.8638L159.563 49.52ZM152.523 54.64L152.139 53.7164L152.133 53.719L152.523 54.64ZM143.323 55.4C139.09 55.4 135.421 54.5236 132.283 52.8032L131.322 54.5568C134.798 56.463 138.808 57.4 143.323 57.4V55.4ZM132.294 52.8092C129.138 51.0274 126.681 48.619 124.906 45.5761L123.179 46.5839C125.137 49.941 127.854 52.5993 131.311 54.5508L132.294 52.8092ZM124.91 45.5823C123.139 42.4965 122.243 38.9649 122.243 34.96H120.243C120.243 39.2751 121.212 43.1568 123.175 46.5777L124.91 45.5823ZM122.243 34.96C122.243 30.9448 123.091 27.4348 124.759 24.4019L123.006 23.4381C121.154 26.8052 120.243 30.6552 120.243 34.96H122.243ZM124.753 24.413C126.481 21.362 128.811 18.9846 131.748 17.2627L130.737 15.5373C127.488 17.442 124.91 20.078 123.012 23.427L124.753 24.413ZM131.753 17.2601C134.735 15.4909 138.077 14.6 141.803 14.6V12.6C137.742 12.6 134.043 13.5758 130.732 15.5399L131.753 17.2601ZM141.803 14.6C145.59 14.6 148.902 15.4682 151.77 17.1788L152.795 15.4612C149.583 13.5451 145.908 12.6 141.803 12.6V14.6ZM151.788 17.1892C154.712 18.8529 157.008 21.2202 158.683 24.3158L160.442 23.3642C158.597 19.9531 156.04 17.3071 152.777 15.4508L151.788 17.1892ZM158.686 24.3219C160.353 27.353 161.203 30.889 161.203 34.96H163.203C163.203 30.6043 162.292 26.727 160.439 23.3581L158.686 24.3219ZM161.203 34.96C161.203 35.1613 161.182 35.3987 161.136 35.6756L163.109 36.0044C163.169 35.6413 163.203 35.292 163.203 34.96H161.203ZM161.123 35.84C161.123 35.8405 161.123 35.841 161.123 35.8416C161.123 35.8421 161.123 35.8426 161.123 35.8431C161.123 35.8436 161.123 35.8442 161.123 35.8447C161.123 35.8452 161.123 35.8457 161.123 35.8463C161.123 35.8468 161.123 35.8473 161.123 35.8478C161.123 35.8483 161.123 35.8489 161.123 35.8494C161.123 35.8499 161.123 35.8504 161.123 35.851C161.123 35.8515 161.123 35.852 161.123 35.8525C161.123 35.853 161.123 35.8536 161.123 35.8541C161.123 35.8546 161.123 35.8551 161.123 35.8557C161.123 35.8562 161.123 35.8567 161.123 35.8572C161.123 35.8577 161.123 35.8583 161.123 35.8588C161.123 35.8593 161.123 35.8598 161.123 35.8604C161.123 35.8609 161.123 35.8614 161.123 35.8619C161.123 35.8625 161.123 35.863 161.123 35.8635C161.123 35.864 161.123 35.8646 161.123 35.8651C161.123 35.8656 161.123 35.8661 161.123 35.8667C161.123 35.8672 161.123 35.8677 161.123 35.8682C161.123 35.8687 161.123 35.8693 161.123 35.8698C161.123 35.8703 161.123 35.8708 161.123 35.8714C161.123 35.8719 161.123 35.8724 161.123 35.8729C161.123 35.8735 161.123 35.874 161.123 35.8745C161.123 35.875 161.123 35.8756 161.123 35.8761C161.123 35.8766 161.123 35.8771 161.123 35.8777C161.123 35.8782 161.123 35.8787 161.123 35.8793C161.123 35.8798 161.123 35.8803 161.123 35.8808C161.123 35.8814 161.123 35.8819 161.123 35.8824C161.123 35.8829 161.123 35.8835 161.123 35.884C161.123 35.8845 161.123 35.885 161.123 35.8856C161.123 35.8861 161.123 35.8866 161.123 35.8871C161.123 35.8877 161.123 35.8882 161.123 35.8887C161.123 35.8893 161.123 35.8898 161.123 35.8903C161.123 35.8908 161.123 35.8914 161.123 35.8919C161.123 35.8924 161.123 35.8929 161.123 35.8935C161.123 35.894 161.123 35.8945 161.123 35.8951C161.123 35.8956 161.123 35.8961 161.123 35.8966C161.123 35.8972 161.123 35.8977 161.123 35.8982C161.123 35.8988 161.123 35.8993 161.123 35.8998C161.123 35.9003 161.123 35.9009 161.123 35.9014C161.123 35.9019 161.123 35.9025 161.123 35.903C161.123 35.9035 161.123 35.904 161.123 35.9046C161.123 35.9051 161.123 35.9056 161.123 35.9062C161.123 35.9067 161.123 35.9072 161.123 35.9078C161.123 35.9083 161.123 35.9088 161.123 35.9093C161.123 35.9099 161.123 35.9104 161.123 35.9109C161.123 35.9115 161.123 35.912 161.123 35.9125C161.123 35.9131 161.123 35.9136 161.123 35.9141C161.123 35.9146 161.123 35.9152 161.123 35.9157C161.123 35.9162 161.123 35.9168 161.123 35.9173C161.123 35.9178 161.123 35.9184 161.123 35.9189C161.123 35.9194 161.123 35.9199 161.123 35.9205C161.123 35.921 161.123 35.9215 161.123 35.9221C161.123 35.9226 161.123 35.9231 161.123 35.9237C161.123 35.9242 161.123 35.9247 161.123 35.9253C161.123 35.9258 161.123 35.9263 161.123 35.9269C161.123 35.9274 161.123 35.9279 161.123 35.9285C161.123 35.929 161.123 35.9295 161.123 35.9301C161.123 35.9306 161.123 35.9311 161.123 35.9317C161.123 35.9322 161.123 35.9327 161.123 35.9332C161.123 35.9338 161.123 35.9343 161.123 35.9348C161.123 35.9354 161.123 35.9359 161.123 35.9364C161.123 35.937 161.123 35.9375 161.123 35.938C161.123 35.9386 161.123 35.9391 161.123 35.9396C161.123 35.9402 161.123 35.9407 161.123 35.9412C161.123 35.9418 161.123 35.9423 161.123 35.9429C161.123 35.9434 161.123 35.9439 161.123 35.9445C161.123 35.945 161.123 35.9455 161.123 35.9461C161.123 35.9466 161.123 35.9471 161.123 35.9477C161.123 35.9482 161.123 35.9487 161.123 35.9493C161.123 35.9498 161.123 35.9503 161.123 35.9509C161.123 35.9514 161.123 35.9519 161.123 35.9525C161.123 35.953 161.123 35.9535 161.123 35.9541C161.123 35.9546 161.123 35.9552 161.123 35.9557C161.123 35.9562 161.123 35.9568 161.123 35.9573C161.123 35.9578 161.123 35.9584 161.123 35.9589C161.123 35.9594 161.123 35.96 161.123 35.9605C161.123 35.961 161.123 35.9616 161.123 35.9621C161.123 35.9627 161.123 35.9632 161.123 35.9637C161.123 35.9643 161.123 35.9648 161.123 35.9653C161.123 35.9659 161.123 35.9664 161.123 35.967C161.123 35.9675 161.123 35.968 161.123 35.9686C161.123 35.9691 161.123 35.9696 161.123 35.9702C161.123 35.9707 161.123 35.9713 161.123 35.9718C161.123 35.9723 161.123 35.9729 161.123 35.9734C161.123 35.9739 161.123 35.9745 161.123 35.975C161.123 35.9756 161.123 35.9761 161.123 35.9766C161.123 35.9772 161.123 35.9777 161.123 35.9782C161.123 35.9788 161.123 35.9793 161.123 35.9799C161.123 35.9804 161.123 35.9809 161.123 35.9815C161.123 35.982 161.123 35.9826 161.123 35.9831C161.123 35.9836 161.123 35.9842 161.123 35.9847C161.123 35.9853 161.123 35.9858 161.123 35.9863C161.123 35.9869 161.123 35.9874 161.123 35.988C161.123 35.9885 161.123 35.989 161.123 35.9896C161.123 35.9901 161.123 35.9907 161.123 35.9912C161.123 35.9917 161.123 35.9923 161.123 35.9928C161.123 35.9934 161.123 35.9939 161.123 35.9944C161.123 35.995 161.123 35.9955 161.123 35.9961C161.123 35.9966 161.123 35.9971 161.123 35.9977C161.123 35.9982 161.123 35.9988 161.123 35.9993C161.123 35.9998 161.123 36.0004 161.123 36.0009C161.123 36.0015 161.123 36.002 161.123 36.0025C161.123 36.0031 161.123 36.0036 161.123 36.0042C161.123 36.0047 161.123 36.0053 161.123 36.0058C161.123 36.0063 161.123 36.0069 161.123 36.0074C161.123 36.008 161.123 36.0085 161.123 36.0091C161.123 36.0096 161.123 36.0101 161.123 36.0107C161.123 36.0112 161.123 36.0118 161.123 36.0123C161.123 36.0129 161.123 36.0134 161.123 36.0139C161.123 36.0145 161.123 36.015 161.123 36.0156C161.123 36.0161 161.123 36.0167 161.123 36.0172C161.123 36.0177 161.123 36.0183 161.123 36.0188C161.123 36.0194 161.123 36.0199 161.123 36.0205C161.123 36.021 161.123 36.0215 161.123 36.0221C161.123 36.0226 161.123 36.0232 161.123 36.0237C161.123 36.0243 161.123 36.0248 161.123 36.0254C161.123 36.0259 161.123 36.0264 161.123 36.027C161.123 36.0275 161.123 36.0281 161.123 36.0286C161.123 36.0292 161.123 36.0297 161.123 36.0303C161.123 36.0308 161.123 36.0313 161.123 36.0319C161.123 36.0324 161.123 36.033 161.123 36.0335C161.123 36.0341 161.123 36.0346 161.123 36.0352C161.123 36.0357 161.123 36.0363 161.123 36.0368C161.123 36.0373 161.123 36.0379 161.123 36.0384C161.123 36.039 161.123 36.0395 161.123 36.0401C161.123 36.0406 161.123 36.0412 161.123 36.0417C161.123 36.0423 161.123 36.0428 161.123 36.0434C161.123 36.0439 161.123 36.0445 161.123 36.045C161.123 36.0455 161.123 36.0461 161.123 36.0466C161.123 36.0472 161.123 36.0477 161.123 36.0483C161.123 36.0488 161.123 36.0494 161.123 36.0499C161.123 36.0505 161.123 36.051 161.123 36.0516C161.123 36.0521 161.123 36.0527 161.123 36.0532C161.123 36.0538 161.123 36.0543 161.123 36.0549C161.123 36.0554 161.123 36.056 161.123 36.0565C161.123 36.057 161.123 36.0576 161.123 36.0581C161.123 36.0587 161.123 36.0592 161.123 36.0598C161.123 36.0603 161.123 36.0609 161.123 36.0614C161.123 36.062 161.123 36.0625 161.123 36.0631C161.123 36.0636 161.123 36.0642 161.123 36.0647C161.123 36.0653 161.123 36.0658 161.123 36.0664C161.123 36.0669 161.123 36.0675 161.123 36.068C161.123 36.0686 161.123 36.0691 161.123 36.0697C161.123 36.0702 161.123 36.0708 161.123 36.0713C161.123 36.0719 161.123 36.0724 161.123 36.073C161.123 36.0735 161.123 36.0741 161.123 36.0746C161.123 36.0752 161.123 36.0757 161.123 36.0763C161.123 36.0768 161.123 36.0774 161.123 36.0779C161.123 36.0785 161.123 36.079 161.123 36.0796C161.123 36.0801 161.123 36.0807 161.123 36.0812C161.123 36.0818 161.123 36.0823 161.123 36.0829C161.123 36.0834 161.123 36.084 161.123 36.0846C161.123 36.0851 161.123 36.0857 161.123 36.0862C161.123 36.0868 161.123 36.0873 161.123 36.0879C161.123 36.0884 161.123 36.089 161.123 36.0895C161.123 36.0901 161.123 36.0906 161.123 36.0912C161.123 36.0917 161.123 36.0923 161.123 36.0928C161.123 36.0934 161.123 36.0939 161.123 36.0945C161.123 36.095 161.123 36.0956 161.123 36.0962C161.123 36.0967 161.123 36.0973 161.123 36.0978C161.123 36.0984 161.123 36.0989 161.123 36.0995C161.123 36.1 161.123 36.1006 161.123 36.1011C161.123 36.1017 161.123 36.1022 161.123 36.1028C161.123 36.1033 161.123 36.1039 161.123 36.1045C161.123 36.105 161.123 36.1056 161.123 36.1061C161.123 36.1067 161.123 36.1072 161.123 36.1078C161.123 36.1083 161.123 36.1089 161.123 36.1094C161.123 36.11 161.123 36.1106 161.123 36.1111C161.123 36.1117 161.123 36.1122 161.123 36.1128C161.123 36.1133 161.123 36.1139 161.123 36.1144C161.123 36.115 161.123 36.1156 161.123 36.1161C161.123 36.1167 161.123 36.1172 161.123 36.1178C161.123 36.1183 161.123 36.1189 161.123 36.1194C161.123 36.12 161.123 36.1206 161.123 36.1211C161.123 36.1217 161.123 36.1222 161.123 36.1228C161.123 36.1233 161.123 36.1239 161.123 36.1245C161.123 36.125 161.123 36.1256 161.123 36.1261C161.123 36.1267 161.123 36.1272 161.123 36.1278C161.123 36.1284 161.123 36.1289 161.123 36.1295C161.123 36.13 161.123 36.1306 161.123 36.1311C161.123 36.1317 161.123 36.1323 161.123 36.1328C161.123 36.1334 161.123 36.1339 161.123 36.1345C161.123 36.135 161.123 36.1356 161.123 36.1362C161.123 36.1367 161.123 36.1373 161.123 36.1378C161.123 36.1384 161.123 36.1389 161.123 36.1395C161.123 36.1401 161.123 36.1406 161.123 36.1412C161.123 36.1417 161.123 36.1423 161.123 36.1429C161.123 36.1434 161.123 36.144 161.123 36.1445C161.123 36.1451 161.123 36.1457 161.123 36.1462C161.123 36.1468 161.123 36.1473 161.123 36.1479C161.123 36.1485 161.123 36.149 161.123 36.1496C161.123 36.1501 161.123 36.1507 161.123 36.1512C161.123 36.1518 161.123 36.1524 161.123 36.1529C161.123 36.1535 161.123 36.154 161.123 36.1546C161.123 36.1552 161.123 36.1557 161.123 36.1563C161.123 36.1569 161.123 36.1574 161.123 36.158C161.123 36.1585 161.123 36.1591 161.123 36.1597C161.123 36.1602 161.123 36.1608 161.123 36.1613C161.123 36.1619 161.123 36.1625 161.123 36.163C161.123 36.1636 161.123 36.1641 161.123 36.1647C161.123 36.1653 161.123 36.1658 161.123 36.1664C161.123 36.167 161.123 36.1675 161.123 36.1681C161.123 36.1686 161.123 36.1692 161.123 36.1698C161.123 36.1703 161.123 36.1709 161.123 36.1714C161.123 36.172 161.123 36.1726 161.123 36.1731C161.123 36.1737 161.123 36.1743 161.123 36.1748C161.123 36.1754 161.123 36.176 161.123 36.1765C161.123 36.1771 161.123 36.1776 161.123 36.1782C161.123 36.1788 161.123 36.1793 161.123 36.1799C161.123 36.1805 161.123 36.181 161.123 36.1816C161.123 36.1821 161.123 36.1827 161.123 36.1833C161.123 36.1838 161.123 36.1844 161.123 36.185C161.123 36.1855 161.123 36.1861 161.123 36.1867C161.123 36.1872 161.123 36.1878 161.123 36.1884C161.123 36.1889 161.123 36.1895 161.123 36.19C161.123 36.1906 161.123 36.1912 161.123 36.1917C161.123 36.1923 161.123 36.1929 161.123 36.1934C161.123 36.194 161.123 36.1946 161.123 36.1951C161.123 36.1957 161.123 36.1963 161.123 36.1968C161.123 36.1974 161.123 36.198 161.123 36.1985C161.123 36.1991 161.123 36.1997 161.123 36.2002C161.123 36.2008 161.123 36.2013 161.123 36.2019C161.123 36.2025 161.123 36.203 161.123 36.2036C161.123 36.2042 161.123 36.2047 161.123 36.2053C161.123 36.2059 161.123 36.2064 161.123 36.207C161.123 36.2076 161.123 36.2081 161.123 36.2087C161.123 36.2093 161.123 36.2098 161.123 36.2104C161.123 36.211 161.123 36.2115 161.123 36.2121C161.123 36.2127 161.123 36.2132 161.123 36.2138C161.123 36.2144 161.123 36.215 161.123 36.2155C161.123 36.2161 161.123 36.2167 161.123 36.2172C161.123 36.2178 161.123 36.2184 161.123 36.2189C161.123 36.2195 161.123 36.2201 161.123 36.2206C161.123 36.2212 161.123 36.2218 161.123 36.2223C161.123 36.2229 161.123 36.2235 161.123 36.224C161.123 36.2246 161.123 36.2252 161.123 36.2257C161.123 36.2263 161.123 36.2269 161.123 36.2275C161.123 36.228 161.123 36.2286 161.123 36.2292C161.123 36.2297 161.123 36.2303 161.123 36.2309C161.123 36.2314 161.123 36.232 161.123 36.2326C161.123 36.2331 161.123 36.2337 161.123 36.2343C161.123 36.2349 161.123 36.2354 161.123 36.236C161.123 36.2366 161.123 36.2371 161.123 36.2377C161.123 36.2383 161.123 36.2388 161.123 36.2394C161.123 36.24 161.123 36.2406 161.123 36.2411C161.123 36.2417 161.123 36.2423 161.123 36.2428C161.123 36.2434 161.123 36.244 161.123 36.2446C161.123 36.2451 161.123 36.2457 161.123 36.2463C161.123 36.2468 161.123 36.2474 161.123 36.248C161.123 36.2486 161.123 36.2491 161.123 36.2497C161.123 36.2503 161.123 36.2508 161.123 36.2514C161.123 36.252 161.123 36.2526 161.123 36.2531C161.123 36.2537 161.123 36.2543 161.123 36.2548C161.123 36.2554 161.123 36.256 161.123 36.2566C161.123 36.2571 161.123 36.2577 161.123 36.2583C161.123 36.2589 161.123 36.2594 161.123 36.26C161.123 36.2606 161.123 36.2611 161.123 36.2617C161.123 36.2623 161.123 36.2629 161.123 36.2634C161.123 36.264 161.123 36.2646 161.123 36.2652C161.123 36.2657 161.123 36.2663 161.123 36.2669C161.123 36.2675 161.123 36.268 161.123 36.2686C161.123 36.2692 161.123 36.2697 161.123 36.2703C161.123 36.2709 161.123 36.2715 161.123 36.272C161.123 36.2726 161.123 36.2732 161.123 36.2738C161.123 36.2743 161.123 36.2749 161.123 36.2755C161.123 36.2761 161.123 36.2766 161.123 36.2772C161.123 36.2778 161.123 36.2784 161.123 36.2789C161.123 36.2795 161.123 36.2801 161.123 36.2807C161.123 36.2812 161.123 36.2818 161.123 36.2824C161.123 36.283 161.123 36.2835 161.123 36.2841C161.123 36.2847 161.123 36.2853 161.123 36.2858C161.123 36.2864 161.123 36.287 161.123 36.2876C161.123 36.2882 161.123 36.2887 161.123 36.2893C161.123 36.2899 161.123 36.2905 161.123 36.291C161.123 36.2916 161.123 36.2922 161.123 36.2928C161.123 36.2933 161.123 36.2939 161.123 36.2945C161.123 36.2951 161.123 36.2957 161.123 36.2962C161.123 36.2968 161.123 36.2974 161.123 36.298C161.123 36.2985 161.123 36.2991 161.123 36.2997C161.123 36.3003 161.123 36.3008 161.123 36.3014C161.123 36.302 161.123 36.3026 161.123 36.3032C161.123 36.3037 161.123 36.3043 161.123 36.3049C161.123 36.3055 161.123 36.306 161.123 36.3066C161.123 36.3072 161.123 36.3078 161.123 36.3084C161.123 36.3089 161.123 36.3095 161.123 36.3101C161.123 36.3107 161.123 36.3113 161.123 36.3118C161.123 36.3124 161.123 36.313 161.123 36.3136C161.123 36.3142 161.123 36.3147 161.123 36.3153C161.123 36.3159 161.123 36.3165 161.123 36.3171C161.123 36.3176 161.123 36.3182 161.123 36.3188C161.123 36.3194 161.123 36.3199 161.123 36.3205C161.123 36.3211 161.123 36.3217 161.123 36.3223C161.123 36.3229 161.123 36.3234 161.123 36.324C161.123 36.3246 161.123 36.3252 161.123 36.3258C161.123 36.3263 161.123 36.3269 161.123 36.3275C161.123 36.3281 161.123 36.3287 161.123 36.3292C161.123 36.3298 161.123 36.3304 161.123 36.331C161.123 36.3316 161.123 36.3321 161.123 36.3327C161.123 36.3333 161.123 36.3339 161.123 36.3345C161.123 36.3351 161.123 36.3356 161.123 36.3362C161.123 36.3368 161.123 36.3374 161.123 36.338C161.123 36.3385 161.123 36.3391 161.123 36.3397C161.123 36.3403 161.123 36.3409 161.123 36.3415C161.123 36.342 161.123 36.3426 161.123 36.3432C161.123 36.3438 161.123 36.3444 161.123 36.345C161.123 36.3455 161.123 36.3461 161.123 36.3467C161.123 36.3473 161.123 36.3479 161.123 36.3484C161.123 36.349 161.123 36.3496 161.123 36.3502C161.123 36.3508 161.123 36.3514 161.123 36.352C161.123 36.3525 161.123 36.3531 161.123 36.3537C161.123 36.3543 161.123 36.3549 161.123 36.3555C161.123 36.356 161.123 36.3566 161.123 36.3572C161.123 36.3578 161.123 36.3584 161.123 36.359C161.123 36.3595 161.123 36.3601 161.123 36.3607C161.123 36.3613 161.123 36.3619 161.123 36.3625C161.123 36.3631 161.123 36.3636 161.123 36.3642C161.123 36.3648 161.123 36.3654 161.123 36.366C161.123 36.3666 161.123 36.3671 161.123 36.3677C161.123 36.3683 161.123 36.3689 161.123 36.3695C161.123 36.3701 161.123 36.3707 161.123 36.3712C161.123 36.3718 161.123 36.3724 161.123 36.373C161.123 36.3736 161.123 36.3742 161.123 36.3748C161.123 36.3754 161.123 36.3759 161.123 36.3765C161.123 36.3771 161.123 36.3777 161.123 36.3783C161.123 36.3789 161.123 36.3795 161.123 36.38C161.123 36.3806 161.123 36.3812 161.123 36.3818C161.123 36.3824 161.123 36.383 161.123 36.3836C161.123 36.3842 161.123 36.3847 161.123 36.3853C161.123 36.3859 161.123 36.3865 161.123 36.3871C161.123 36.3877 161.123 36.3883 161.123 36.3889C161.123 36.3894 161.123 36.39 161.123 36.3906C161.123 36.3912 161.123 36.3918 161.123 36.3924C161.123 36.393 161.123 36.3936 161.123 36.3942C161.123 36.3947 161.123 36.3953 161.123 36.3959C161.123 36.3965 161.123 36.3971 161.123 36.3977C161.123 36.3983 161.123 36.3989 161.123 36.3995C161.123 36.4 161.123 36.4006 161.123 36.4012C161.123 36.4018 161.123 36.4024 161.123 36.403C161.123 36.4036 161.123 36.4042 161.123 36.4048C161.123 36.4053 161.123 36.4059 161.123 36.4065C161.123 36.4071 161.123 36.4077 161.123 36.4083C161.123 36.4089 161.123 36.4095 161.123 36.4101C161.123 36.4107 161.123 36.4112 161.123 36.4118C161.123 36.4124 161.123 36.413 161.123 36.4136C161.123 36.4142 161.123 36.4148 161.123 36.4154C161.123 36.416 161.123 36.4166 161.123 36.4172C161.123 36.4177 161.123 36.4183 161.123 36.4189C161.123 36.4195 161.123 36.4201 161.123 36.4207C161.123 36.4213 161.123 36.4219 161.123 36.4225C161.123 36.4231 161.123 36.4237 161.123 36.4243C161.123 36.4249 161.123 36.4254 161.123 36.426C161.123 36.4266 161.123 36.4272 161.123 36.4278C161.123 36.4284 161.123 36.429 161.123 36.4296C161.123 36.4302 161.123 36.4308 161.123 36.4314C161.123 36.432 161.123 36.4326 161.123 36.4331C161.123 36.4337 161.123 36.4343 161.123 36.4349C161.123 36.4355 161.123 36.4361 161.123 36.4367C161.123 36.4373 161.123 36.4379 161.123 36.4385C161.123 36.4391 161.123 36.4397 161.123 36.4403C161.123 36.4409 161.123 36.4415 161.123 36.4421C161.123 36.4426 161.123 36.4432 161.123 36.4438C161.123 36.4444 161.123 36.445 161.123 36.4456C161.123 36.4462 161.123 36.4468 161.123 36.4474C161.123 36.448 161.123 36.4486 161.123 36.4492C161.123 36.4498 161.123 36.4504 161.123 36.451C161.123 36.4516 161.123 36.4522 161.123 36.4528C161.123 36.4533 161.123 36.4539 161.123 36.4545C161.123 36.4551 161.123 36.4557 161.123 36.4563C161.123 36.4569 161.123 36.4575 161.123 36.4581C161.123 36.4587 161.123 36.4593 161.123 36.4599C161.123 36.4605 161.123 36.4611 161.123 36.4617C161.123 36.4623 161.123 36.4629 161.123 36.4635C161.123 36.4641 161.123 36.4647 161.123 36.4653C161.123 36.4659 161.123 36.4665 161.123 36.4671C161.123 36.4677 161.123 36.4683 161.123 36.4689C161.123 36.4694 161.123 36.47 161.123 36.4706C161.123 36.4712 161.123 36.4718 161.123 36.4724C161.123 36.473 161.123 36.4736 161.123 36.4742C161.123 36.4748 161.123 36.4754 161.123 36.476C161.123 36.4766 161.123 36.4772 161.123 36.4778C161.123 36.4784 161.123 36.479 161.123 36.4796C161.123 36.4802 161.123 36.4808 161.123 36.4814C161.123 36.482 161.123 36.4826 161.123 36.4832C161.123 36.4838 161.123 36.4844 161.123 36.485C161.123 36.4856 161.123 36.4862 161.123 36.4868C161.123 36.4874 161.123 36.488 161.123 36.4886C161.123 36.4892 161.123 36.4898 161.123 36.4904C161.123 36.491 161.123 36.4916 161.123 36.4922C161.123 36.4928 161.123 36.4934 161.123 36.494C161.123 36.4946 161.123 36.4952 161.123 36.4958C161.123 36.4964 161.123 36.497 161.123 36.4976C161.123 36.4982 161.123 36.4988 161.123 36.4994C161.123 36.5 161.123 36.5006 161.123 36.5012C161.123 36.5018 161.123 36.5024 161.123 36.503C161.123 36.5036 161.123 36.5042 161.123 36.5048C161.123 36.5054 161.123 36.506 161.123 36.5066C161.123 36.5072 161.123 36.5078 161.123 36.5084C161.123 36.509 161.123 36.5096 161.123 36.5102C161.123 36.5108 161.123 36.5114 161.123 36.512C161.123 36.5126 161.123 36.5132 161.123 36.5138C161.123 36.5144 161.123 36.515 161.123 36.5156C161.123 36.5162 161.123 36.5168 161.123 36.5174C161.123 36.518 161.123 36.5186 161.123 36.5192C161.123 36.5199 161.123 36.5205 161.123 36.5211C161.123 36.5217 161.123 36.5223 161.123 36.5229C161.123 36.5235 161.123 36.5241 161.123 36.5247C161.123 36.5253 161.123 36.5259 161.123 36.5265C161.123 36.5271 161.123 36.5277 161.123 36.5283C161.123 36.5289 161.123 36.5295 161.123 36.5301C161.123 36.5307 161.123 36.5313 161.123 36.5319C161.123 36.5325 161.123 36.5331 161.123 36.5337C161.123 36.5343 161.123 36.5349 161.123 36.5356C161.123 36.5362 161.123 36.5368 161.123 36.5374C161.123 36.538 161.123 36.5386 161.123 36.5392C161.123 36.5398 161.123 36.5404 161.123 36.541C161.123 36.5416 161.123 36.5422 161.123 36.5428C161.123 36.5434 161.123 36.544 161.123 36.5446C161.123 36.5452 161.123 36.5458 161.123 36.5464C161.123 36.5471 161.123 36.5477 161.123 36.5483C161.123 36.5489 161.123 36.5495 161.123 36.5501C161.123 36.5507 161.123 36.5513 161.123 36.5519C161.123 36.5525 161.123 36.5531 161.123 36.5537C161.123 36.5543 161.123 36.5549 161.123 36.5555C161.123 36.5561 161.123 36.5568 161.123 36.5574C161.123 36.558 161.123 36.5586 161.123 36.5592C161.123 36.5598 161.123 36.5604 161.123 36.561C161.123 36.5616 161.123 36.5622 161.123 36.5628C161.123 36.5634 161.123 36.564 161.123 36.5647C161.123 36.5653 161.123 36.5659 161.123 36.5665C161.123 36.5671 161.123 36.5677 161.123 36.5683C161.123 36.5689 161.123 36.5695 161.123 36.5701C161.123 36.5707 161.123 36.5713 161.123 36.572C161.123 36.5726 161.123 36.5732 161.123 36.5738C161.123 36.5744 161.123 36.575 161.123 36.5756C161.123 36.5762 161.123 36.5768 161.123 36.5774C161.123 36.578 161.123 36.5787 161.123 36.5793C161.123 36.5799 161.123 36.5805 161.123 36.5811C161.123 36.5817 161.123 36.5823 161.123 36.5829C161.123 36.5835 161.123 36.5841 161.123 36.5848C161.123 36.5854 161.123 36.586 161.123 36.5866C161.123 36.5872 161.123 36.5878 161.123 36.5884C161.123 36.589 161.123 36.5896 161.123 36.5902C161.123 36.5909 161.123 36.5915 161.123 36.5921C161.123 36.5927 161.123 36.5933 161.123 36.5939C161.123 36.5945 161.123 36.5951 161.123 36.5957C161.123 36.5964 161.123 36.597 161.123 36.5976C161.123 36.5982 161.123 36.5988 161.123 36.5994C161.123 36.6 161.123 36.6006 161.123 36.6012C161.123 36.6019 161.123 36.6025 161.123 36.6031C161.123 36.6037 161.123 36.6043 161.123 36.6049C161.123 36.6055 161.123 36.6061 161.123 36.6068C161.123 36.6074 161.123 36.608 161.123 36.6086C161.123 36.6092 161.123 36.6098 161.123 36.6104C161.123 36.611 161.123 36.6117 161.123 36.6123C161.123 36.6129 161.123 36.6135 161.123 36.6141C161.123 36.6147 161.123 36.6153 161.123 36.616C161.123 36.6166 161.123 36.6172 161.123 36.6178C161.123 36.6184 161.123 36.619 161.123 36.6196C161.123 36.6203 161.123 36.6209 161.123 36.6215C161.123 36.6221 161.123 36.6227 161.123 36.6233C161.123 36.6239 161.123 36.6246 161.123 36.6252C161.123 36.6258 161.123 36.6264 161.123 36.627C161.123 36.6276 161.123 36.6282 161.123 36.6289C161.123 36.6295 161.123 36.6301 161.123 36.6307C161.123 36.6313 161.123 36.6319 161.123 36.6325C161.123 36.6332 161.123 36.6338 161.123 36.6344C161.123 36.635 161.123 36.6356 161.123 36.6362C161.123 36.6369 161.123 36.6375 161.123 36.6381C161.123 36.6387 161.123 36.6393 161.123 36.6399C161.123 36.6406 161.123 36.6412 161.123 36.6418C161.123 36.6424 161.123 36.643 161.123 36.6436C161.123 36.6443 161.123 36.6449 161.123 36.6455C161.123 36.6461 161.123 36.6467 161.123 36.6473C161.123 36.648 161.123 36.6486 161.123 36.6492C161.123 36.6498 161.123 36.6504 161.123 36.651C161.123 36.6517 161.123 36.6523 161.123 36.6529C161.123 36.6535 161.123 36.6541 161.123 36.6547C161.123 36.6554 161.123 36.656 161.123 36.6566C161.123 36.6572 161.123 36.6578 161.123 36.6585C161.123 36.6591 161.123 36.6597 161.123 36.6603C161.123 36.6609 161.123 36.6615 161.123 36.6622C161.123 36.6628 161.123 36.6634 161.123 36.664C161.123 36.6646 161.123 36.6653 161.123 36.6659C161.123 36.6665 161.123 36.6671 161.123 36.6677C161.123 36.6684 161.123 36.669 161.123 36.6696C161.123 36.6702 161.123 36.6708 161.123 36.6715C161.123 36.6721 161.123 36.6727 161.123 36.6733C161.123 36.6739 161.123 36.6746 161.123 36.6752C161.123 36.6758 161.123 36.6764 161.123 36.677C161.123 36.6777 161.123 36.6783 161.123 36.6789C161.123 36.6795 161.123 36.6801 161.123 36.6808C161.123 36.6814 161.123 36.682 161.123 36.6826C161.123 36.6832 161.123 36.6839 161.123 36.6845C161.123 36.6851 161.123 36.6857 161.123 36.6863C161.123 36.687 161.123 36.6876 161.123 36.6882C161.123 36.6888 161.123 36.6895 161.123 36.6901C161.123 36.6907 161.123 36.6913 161.123 36.6919C161.123 36.6926 161.123 36.6932 161.123 36.6938C161.123 36.6944 161.123 36.6951 161.123 36.6957C161.123 36.6963 161.123 36.6969 161.123 36.6975C161.123 36.6982 161.123 36.6988 161.123 36.6994C161.123 36.7 161.123 36.7007 161.123 36.7013C161.123 36.7019 161.123 36.7025 161.123 36.7031C161.123 36.7038 161.123 36.7044 161.123 36.705C161.123 36.7056 161.123 36.7063 161.123 36.7069C161.123 36.7075 161.123 36.7081 161.123 36.7088C161.123 36.7094 161.123 36.71 161.123 36.7106C161.123 36.7113 161.123 36.7119 161.123 36.7125C161.123 36.7131 161.123 36.7138 161.123 36.7144C161.123 36.715 161.123 36.7156 161.123 36.7163C161.123 36.7169 161.123 36.7175 161.123 36.7181C161.123 36.7187 161.123 36.7194 161.123 36.72H163.123C163.123 36.7194 163.123 36.7187 163.123 36.7181C163.123 36.7175 163.123 36.7169 163.123 36.7163C163.123 36.7156 163.123 36.715 163.123 36.7144C163.123 36.7138 163.123 36.7131 163.123 36.7125C163.123 36.7119 163.123 36.7113 163.123 36.7106C163.123 36.71 163.123 36.7094 163.123 36.7088C163.123 36.7081 163.123 36.7075 163.123 36.7069C163.123 36.7063 163.123 36.7056 163.123 36.705C163.123 36.7044 163.123 36.7038 163.123 36.7031C163.123 36.7025 163.123 36.7019 163.123 36.7013C163.123 36.7007 163.123 36.7 163.123 36.6994C163.123 36.6988 163.123 36.6982 163.123 36.6975C163.123 36.6969 163.123 36.6963 163.123 36.6957C163.123 36.6951 163.123 36.6944 163.123 36.6938C163.123 36.6932 163.123 36.6926 163.123 36.6919C163.123 36.6913 163.123 36.6907 163.123 36.6901C163.123 36.6895 163.123 36.6888 163.123 36.6882C163.123 36.6876 163.123 36.687 163.123 36.6863C163.123 36.6857 163.123 36.6851 163.123 36.6845C163.123 36.6839 163.123 36.6832 163.123 36.6826C163.123 36.682 163.123 36.6814 163.123 36.6808C163.123 36.6801 163.123 36.6795 163.123 36.6789C163.123 36.6783 163.123 36.6777 163.123 36.677C163.123 36.6764 163.123 36.6758 163.123 36.6752C163.123 36.6746 163.123 36.6739 163.123 36.6733C163.123 36.6727 163.123 36.6721 163.123 36.6715C163.123 36.6708 163.123 36.6702 163.123 36.6696C163.123 36.669 163.123 36.6684 163.123 36.6677C163.123 36.6671 163.123 36.6665 163.123 36.6659C163.123 36.6653 163.123 36.6646 163.123 36.664C163.123 36.6634 163.123 36.6628 163.123 36.6622C163.123 36.6615 163.123 36.6609 163.123 36.6603C163.123 36.6597 163.123 36.6591 163.123 36.6585C163.123 36.6578 163.123 36.6572 163.123 36.6566C163.123 36.656 163.123 36.6554 163.123 36.6547C163.123 36.6541 163.123 36.6535 163.123 36.6529C163.123 36.6523 163.123 36.6517 163.123 36.651C163.123 36.6504 163.123 36.6498 163.123 36.6492C163.123 36.6486 163.123 36.648 163.123 36.6473C163.123 36.6467 163.123 36.6461 163.123 36.6455C163.123 36.6449 163.123 36.6443 163.123 36.6436C163.123 36.643 163.123 36.6424 163.123 36.6418C163.123 36.6412 163.123 36.6406 163.123 36.6399C163.123 36.6393 163.123 36.6387 163.123 36.6381C163.123 36.6375 163.123 36.6369 163.123 36.6362C163.123 36.6356 163.123 36.635 163.123 36.6344C163.123 36.6338 163.123 36.6332 163.123 36.6325C163.123 36.6319 163.123 36.6313 163.123 36.6307C163.123 36.6301 163.123 36.6295 163.123 36.6289C163.123 36.6282 163.123 36.6276 163.123 36.627C163.123 36.6264 163.123 36.6258 163.123 36.6252C163.123 36.6246 163.123 36.6239 163.123 36.6233C163.123 36.6227 163.123 36.6221 163.123 36.6215C163.123 36.6209 163.123 36.6203 163.123 36.6196C163.123 36.619 163.123 36.6184 163.123 36.6178C163.123 36.6172 163.123 36.6166 163.123 36.616C163.123 36.6153 163.123 36.6147 163.123 36.6141C163.123 36.6135 163.123 36.6129 163.123 36.6123C163.123 36.6117 163.123 36.611 163.123 36.6104C163.123 36.6098 163.123 36.6092 163.123 36.6086C163.123 36.608 163.123 36.6074 163.123 36.6068C163.123 36.6061 163.123 36.6055 163.123 36.6049C163.123 36.6043 163.123 36.6037 163.123 36.6031C163.123 36.6025 163.123 36.6019 163.123 36.6012C163.123 36.6006 163.123 36.6 163.123 36.5994C163.123 36.5988 163.123 36.5982 163.123 36.5976C163.123 36.597 163.123 36.5964 163.123 36.5957C163.123 36.5951 163.123 36.5945 163.123 36.5939C163.123 36.5933 163.123 36.5927 163.123 36.5921C163.123 36.5915 163.123 36.5909 163.123 36.5902C163.123 36.5896 163.123 36.589 163.123 36.5884C163.123 36.5878 163.123 36.5872 163.123 36.5866C163.123 36.586 163.123 36.5854 163.123 36.5848C163.123 36.5841 163.123 36.5835 163.123 36.5829C163.123 36.5823 163.123 36.5817 163.123 36.5811C163.123 36.5805 163.123 36.5799 163.123 36.5793C163.123 36.5787 163.123 36.578 163.123 36.5774C163.123 36.5768 163.123 36.5762 163.123 36.5756C163.123 36.575 163.123 36.5744 163.123 36.5738C163.123 36.5732 163.123 36.5726 163.123 36.572C163.123 36.5713 163.123 36.5707 163.123 36.5701C163.123 36.5695 163.123 36.5689 163.123 36.5683C163.123 36.5677 163.123 36.5671 163.123 36.5665C163.123 36.5659 163.123 36.5653 163.123 36.5647C163.123 36.564 163.123 36.5634 163.123 36.5628C163.123 36.5622 163.123 36.5616 163.123 36.561C163.123 36.5604 163.123 36.5598 163.123 36.5592C163.123 36.5586 163.123 36.558 163.123 36.5574C163.123 36.5568 163.123 36.5561 163.123 36.5555C163.123 36.5549 163.123 36.5543 163.123 36.5537C163.123 36.5531 163.123 36.5525 163.123 36.5519C163.123 36.5513 163.123 36.5507 163.123 36.5501C163.123 36.5495 163.123 36.5489 163.123 36.5483C163.123 36.5477 163.123 36.5471 163.123 36.5464C163.123 36.5458 163.123 36.5452 163.123 36.5446C163.123 36.544 163.123 36.5434 163.123 36.5428C163.123 36.5422 163.123 36.5416 163.123 36.541C163.123 36.5404 163.123 36.5398 163.123 36.5392C163.123 36.5386 163.123 36.538 163.123 36.5374C163.123 36.5368 163.123 36.5362 163.123 36.5356C163.123 36.5349 163.123 36.5343 163.123 36.5337C163.123 36.5331 163.123 36.5325 163.123 36.5319C163.123 36.5313 163.123 36.5307 163.123 36.5301C163.123 36.5295 163.123 36.5289 163.123 36.5283C163.123 36.5277 163.123 36.5271 163.123 36.5265C163.123 36.5259 163.123 36.5253 163.123 36.5247C163.123 36.5241 163.123 36.5235 163.123 36.5229C163.123 36.5223 163.123 36.5217 163.123 36.5211C163.123 36.5205 163.123 36.5199 163.123 36.5192C163.123 36.5186 163.123 36.518 163.123 36.5174C163.123 36.5168 163.123 36.5162 163.123 36.5156C163.123 36.515 163.123 36.5144 163.123 36.5138C163.123 36.5132 163.123 36.5126 163.123 36.512C163.123 36.5114 163.123 36.5108 163.123 36.5102C163.123 36.5096 163.123 36.509 163.123 36.5084C163.123 36.5078 163.123 36.5072 163.123 36.5066C163.123 36.506 163.123 36.5054 163.123 36.5048C163.123 36.5042 163.123 36.5036 163.123 36.503C163.123 36.5024 163.123 36.5018 163.123 36.5012C163.123 36.5006 163.123 36.5 163.123 36.4994C163.123 36.4988 163.123 36.4982 163.123 36.4976C163.123 36.497 163.123 36.4964 163.123 36.4958C163.123 36.4952 163.123 36.4946 163.123 36.494C163.123 36.4934 163.123 36.4928 163.123 36.4922C163.123 36.4916 163.123 36.491 163.123 36.4904C163.123 36.4898 163.123 36.4892 163.123 36.4886C163.123 36.488 163.123 36.4874 163.123 36.4868C163.123 36.4862 163.123 36.4856 163.123 36.485C163.123 36.4844 163.123 36.4838 163.123 36.4832C163.123 36.4826 163.123 36.482 163.123 36.4814C163.123 36.4808 163.123 36.4802 163.123 36.4796C163.123 36.479 163.123 36.4784 163.123 36.4778C163.123 36.4772 163.123 36.4766 163.123 36.476C163.123 36.4754 163.123 36.4748 163.123 36.4742C163.123 36.4736 163.123 36.473 163.123 36.4724C163.123 36.4718 163.123 36.4712 163.123 36.4706C163.123 36.47 163.123 36.4694 163.123 36.4689C163.123 36.4683 163.123 36.4677 163.123 36.4671C163.123 36.4665 163.123 36.4659 163.123 36.4653C163.123 36.4647 163.123 36.4641 163.123 36.4635C163.123 36.4629 163.123 36.4623 163.123 36.4617C163.123 36.4611 163.123 36.4605 163.123 36.4599C163.123 36.4593 163.123 36.4587 163.123 36.4581C163.123 36.4575 163.123 36.4569 163.123 36.4563C163.123 36.4557 163.123 36.4551 163.123 36.4545C163.123 36.4539 163.123 36.4533 163.123 36.4528C163.123 36.4522 163.123 36.4516 163.123 36.451C163.123 36.4504 163.123 36.4498 163.123 36.4492C163.123 36.4486 163.123 36.448 163.123 36.4474C163.123 36.4468 163.123 36.4462 163.123 36.4456C163.123 36.445 163.123 36.4444 163.123 36.4438C163.123 36.4432 163.123 36.4426 163.123 36.4421C163.123 36.4415 163.123 36.4409 163.123 36.4403C163.123 36.4397 163.123 36.4391 163.123 36.4385C163.123 36.4379 163.123 36.4373 163.123 36.4367C163.123 36.4361 163.123 36.4355 163.123 36.4349C163.123 36.4343 163.123 36.4337 163.123 36.4331C163.123 36.4326 163.123 36.432 163.123 36.4314C163.123 36.4308 163.123 36.4302 163.123 36.4296C163.123 36.429 163.123 36.4284 163.123 36.4278C163.123 36.4272 163.123 36.4266 163.123 36.426C163.123 36.4254 163.123 36.4249 163.123 36.4243C163.123 36.4237 163.123 36.4231 163.123 36.4225C163.123 36.4219 163.123 36.4213 163.123 36.4207C163.123 36.4201 163.123 36.4195 163.123 36.4189C163.123 36.4183 163.123 36.4177 163.123 36.4172C163.123 36.4166 163.123 36.416 163.123 36.4154C163.123 36.4148 163.123 36.4142 163.123 36.4136C163.123 36.413 163.123 36.4124 163.123 36.4118C163.123 36.4112 163.123 36.4107 163.123 36.4101C163.123 36.4095 163.123 36.4089 163.123 36.4083C163.123 36.4077 163.123 36.4071 163.123 36.4065C163.123 36.4059 163.123 36.4053 163.123 36.4048C163.123 36.4042 163.123 36.4036 163.123 36.403C163.123 36.4024 163.123 36.4018 163.123 36.4012C163.123 36.4006 163.123 36.4 163.123 36.3995C163.123 36.3989 163.123 36.3983 163.123 36.3977C163.123 36.3971 163.123 36.3965 163.123 36.3959C163.123 36.3953 163.123 36.3947 163.123 36.3942C163.123 36.3936 163.123 36.393 163.123 36.3924C163.123 36.3918 163.123 36.3912 163.123 36.3906C163.123 36.39 163.123 36.3894 163.123 36.3889C163.123 36.3883 163.123 36.3877 163.123 36.3871C163.123 36.3865 163.123 36.3859 163.123 36.3853C163.123 36.3847 163.123 36.3842 163.123 36.3836C163.123 36.383 163.123 36.3824 163.123 36.3818C163.123 36.3812 163.123 36.3806 163.123 36.38C163.123 36.3795 163.123 36.3789 163.123 36.3783C163.123 36.3777 163.123 36.3771 163.123 36.3765C163.123 36.3759 163.123 36.3754 163.123 36.3748C163.123 36.3742 163.123 36.3736 163.123 36.373C163.123 36.3724 163.123 36.3718 163.123 36.3712C163.123 36.3707 163.123 36.3701 163.123 36.3695C163.123 36.3689 163.123 36.3683 163.123 36.3677C163.123 36.3671 163.123 36.3666 163.123 36.366C163.123 36.3654 163.123 36.3648 163.123 36.3642C163.123 36.3636 163.123 36.3631 163.123 36.3625C163.123 36.3619 163.123 36.3613 163.123 36.3607C163.123 36.3601 163.123 36.3595 163.123 36.359C163.123 36.3584 163.123 36.3578 163.123 36.3572C163.123 36.3566 163.123 36.356 163.123 36.3555C163.123 36.3549 163.123 36.3543 163.123 36.3537C163.123 36.3531 163.123 36.3525 163.123 36.352C163.123 36.3514 163.123 36.3508 163.123 36.3502C163.123 36.3496 163.123 36.349 163.123 36.3484C163.123 36.3479 163.123 36.3473 163.123 36.3467C163.123 36.3461 163.123 36.3455 163.123 36.345C163.123 36.3444 163.123 36.3438 163.123 36.3432C163.123 36.3426 163.123 36.342 163.123 36.3415C163.123 36.3409 163.123 36.3403 163.123 36.3397C163.123 36.3391 163.123 36.3385 163.123 36.338C163.123 36.3374 163.123 36.3368 163.123 36.3362C163.123 36.3356 163.123 36.3351 163.123 36.3345C163.123 36.3339 163.123 36.3333 163.123 36.3327C163.123 36.3321 163.123 36.3316 163.123 36.331C163.123 36.3304 163.123 36.3298 163.123 36.3292C163.123 36.3287 163.123 36.3281 163.123 36.3275C163.123 36.3269 163.123 36.3263 163.123 36.3258C163.123 36.3252 163.123 36.3246 163.123 36.324C163.123 36.3234 163.123 36.3229 163.123 36.3223C163.123 36.3217 163.123 36.3211 163.123 36.3205C163.123 36.3199 163.123 36.3194 163.123 36.3188C163.123 36.3182 163.123 36.3176 163.123 36.3171C163.123 36.3165 163.123 36.3159 163.123 36.3153C163.123 36.3147 163.123 36.3142 163.123 36.3136C163.123 36.313 163.123 36.3124 163.123 36.3118C163.123 36.3113 163.123 36.3107 163.123 36.3101C163.123 36.3095 163.123 36.3089 163.123 36.3084C163.123 36.3078 163.123 36.3072 163.123 36.3066C163.123 36.306 163.123 36.3055 163.123 36.3049C163.123 36.3043 163.123 36.3037 163.123 36.3032C163.123 36.3026 163.123 36.302 163.123 36.3014C163.123 36.3008 163.123 36.3003 163.123 36.2997C163.123 36.2991 163.123 36.2985 163.123 36.298C163.123 36.2974 163.123 36.2968 163.123 36.2962C163.123 36.2957 163.123 36.2951 163.123 36.2945C163.123 36.2939 163.123 36.2933 163.123 36.2928C163.123 36.2922 163.123 36.2916 163.123 36.291C163.123 36.2905 163.123 36.2899 163.123 36.2893C163.123 36.2887 163.123 36.2882 163.123 36.2876C163.123 36.287 163.123 36.2864 163.123 36.2858C163.123 36.2853 163.123 36.2847 163.123 36.2841C163.123 36.2835 163.123 36.283 163.123 36.2824C163.123 36.2818 163.123 36.2812 163.123 36.2807C163.123 36.2801 163.123 36.2795 163.123 36.2789C163.123 36.2784 163.123 36.2778 163.123 36.2772C163.123 36.2766 163.123 36.2761 163.123 36.2755C163.123 36.2749 163.123 36.2743 163.123 36.2738C163.123 36.2732 163.123 36.2726 163.123 36.272C163.123 36.2715 163.123 36.2709 163.123 36.2703C163.123 36.2697 163.123 36.2692 163.123 36.2686C163.123 36.268 163.123 36.2675 163.123 36.2669C163.123 36.2663 163.123 36.2657 163.123 36.2652C163.123 36.2646 163.123 36.264 163.123 36.2634C163.123 36.2629 163.123 36.2623 163.123 36.2617C163.123 36.2611 163.123 36.2606 163.123 36.26C163.123 36.2594 163.123 36.2589 163.123 36.2583C163.123 36.2577 163.123 36.2571 163.123 36.2566C163.123 36.256 163.123 36.2554 163.123 36.2548C163.123 36.2543 163.123 36.2537 163.123 36.2531C163.123 36.2526 163.123 36.252 163.123 36.2514C163.123 36.2508 163.123 36.2503 163.123 36.2497C163.123 36.2491 163.123 36.2486 163.123 36.248C163.123 36.2474 163.123 36.2468 163.123 36.2463C163.123 36.2457 163.123 36.2451 163.123 36.2446C163.123 36.244 163.123 36.2434 163.123 36.2428C163.123 36.2423 163.123 36.2417 163.123 36.2411C163.123 36.2406 163.123 36.24 163.123 36.2394C163.123 36.2388 163.123 36.2383 163.123 36.2377C163.123 36.2371 163.123 36.2366 163.123 36.236C163.123 36.2354 163.123 36.2349 163.123 36.2343C163.123 36.2337 163.123 36.2331 163.123 36.2326C163.123 36.232 163.123 36.2314 163.123 36.2309C163.123 36.2303 163.123 36.2297 163.123 36.2292C163.123 36.2286 163.123 36.228 163.123 36.2275C163.123 36.2269 163.123 36.2263 163.123 36.2257C163.123 36.2252 163.123 36.2246 163.123 36.224C163.123 36.2235 163.123 36.2229 163.123 36.2223C163.123 36.2218 163.123 36.2212 163.123 36.2206C163.123 36.2201 163.123 36.2195 163.123 36.2189C163.123 36.2184 163.123 36.2178 163.123 36.2172C163.123 36.2167 163.123 36.2161 163.123 36.2155C163.123 36.215 163.123 36.2144 163.123 36.2138C163.123 36.2132 163.123 36.2127 163.123 36.2121C163.123 36.2115 163.123 36.211 163.123 36.2104C163.123 36.2098 163.123 36.2093 163.123 36.2087C163.123 36.2081 163.123 36.2076 163.123 36.207C163.123 36.2064 163.123 36.2059 163.123 36.2053C163.123 36.2047 163.123 36.2042 163.123 36.2036C163.123 36.203 163.123 36.2025 163.123 36.2019C163.123 36.2013 163.123 36.2008 163.123 36.2002C163.123 36.1997 163.123 36.1991 163.123 36.1985C163.123 36.198 163.123 36.1974 163.123 36.1968C163.123 36.1963 163.123 36.1957 163.123 36.1951C163.123 36.1946 163.123 36.194 163.123 36.1934C163.123 36.1929 163.123 36.1923 163.123 36.1917C163.123 36.1912 163.123 36.1906 163.123 36.19C163.123 36.1895 163.123 36.1889 163.123 36.1884C163.123 36.1878 163.123 36.1872 163.123 36.1867C163.123 36.1861 163.123 36.1855 163.123 36.185C163.123 36.1844 163.123 36.1838 163.123 36.1833C163.123 36.1827 163.123 36.1821 163.123 36.1816C163.123 36.181 163.123 36.1805 163.123 36.1799C163.123 36.1793 163.123 36.1788 163.123 36.1782C163.123 36.1776 163.123 36.1771 163.123 36.1765C163.123 36.176 163.123 36.1754 163.123 36.1748C163.123 36.1743 163.123 36.1737 163.123 36.1731C163.123 36.1726 163.123 36.172 163.123 36.1714C163.123 36.1709 163.123 36.1703 163.123 36.1698C163.123 36.1692 163.123 36.1686 163.123 36.1681C163.123 36.1675 163.123 36.167 163.123 36.1664C163.123 36.1658 163.123 36.1653 163.123 36.1647C163.123 36.1641 163.123 36.1636 163.123 36.163C163.123 36.1625 163.123 36.1619 163.123 36.1613C163.123 36.1608 163.123 36.1602 163.123 36.1597C163.123 36.1591 163.123 36.1585 163.123 36.158C163.123 36.1574 163.123 36.1569 163.123 36.1563C163.123 36.1557 163.123 36.1552 163.123 36.1546C163.123 36.154 163.123 36.1535 163.123 36.1529C163.123 36.1524 163.123 36.1518 163.123 36.1512C163.123 36.1507 163.123 36.1501 163.123 36.1496C163.123 36.149 163.123 36.1485 163.123 36.1479C163.123 36.1473 163.123 36.1468 163.123 36.1462C163.123 36.1457 163.123 36.1451 163.123 36.1445C163.123 36.144 163.123 36.1434 163.123 36.1429C163.123 36.1423 163.123 36.1417 163.123 36.1412C163.123 36.1406 163.123 36.1401 163.123 36.1395C163.123 36.1389 163.123 36.1384 163.123 36.1378C163.123 36.1373 163.123 36.1367 163.123 36.1362C163.123 36.1356 163.123 36.135 163.123 36.1345C163.123 36.1339 163.123 36.1334 163.123 36.1328C163.123 36.1323 163.123 36.1317 163.123 36.1311C163.123 36.1306 163.123 36.13 163.123 36.1295C163.123 36.1289 163.123 36.1284 163.123 36.1278C163.123 36.1272 163.123 36.1267 163.123 36.1261C163.123 36.1256 163.123 36.125 163.123 36.1245C163.123 36.1239 163.123 36.1233 163.123 36.1228C163.123 36.1222 163.123 36.1217 163.123 36.1211C163.123 36.1206 163.123 36.12 163.123 36.1194C163.123 36.1189 163.123 36.1183 163.123 36.1178C163.123 36.1172 163.123 36.1167 163.123 36.1161C163.123 36.1156 163.123 36.115 163.123 36.1144C163.123 36.1139 163.123 36.1133 163.123 36.1128C163.123 36.1122 163.123 36.1117 163.123 36.1111C163.123 36.1106 163.123 36.11 163.123 36.1094C163.123 36.1089 163.123 36.1083 163.123 36.1078C163.123 36.1072 163.123 36.1067 163.123 36.1061C163.123 36.1056 163.123 36.105 163.123 36.1045C163.123 36.1039 163.123 36.1033 163.123 36.1028C163.123 36.1022 163.123 36.1017 163.123 36.1011C163.123 36.1006 163.123 36.1 163.123 36.0995C163.123 36.0989 163.123 36.0984 163.123 36.0978C163.123 36.0973 163.123 36.0967 163.123 36.0962C163.123 36.0956 163.123 36.095 163.123 36.0945C163.123 36.0939 163.123 36.0934 163.123 36.0928C163.123 36.0923 163.123 36.0917 163.123 36.0912C163.123 36.0906 163.123 36.0901 163.123 36.0895C163.123 36.089 163.123 36.0884 163.123 36.0879C163.123 36.0873 163.123 36.0868 163.123 36.0862C163.123 36.0857 163.123 36.0851 163.123 36.0846C163.123 36.084 163.123 36.0834 163.123 36.0829C163.123 36.0823 163.123 36.0818 163.123 36.0812C163.123 36.0807 163.123 36.0801 163.123 36.0796C163.123 36.079 163.123 36.0785 163.123 36.0779C163.123 36.0774 163.123 36.0768 163.123 36.0763C163.123 36.0757 163.123 36.0752 163.123 36.0746C163.123 36.0741 163.123 36.0735 163.123 36.073C163.123 36.0724 163.123 36.0719 163.123 36.0713C163.123 36.0708 163.123 36.0702 163.123 36.0697C163.123 36.0691 163.123 36.0686 163.123 36.068C163.123 36.0675 163.123 36.0669 163.123 36.0664C163.123 36.0658 163.123 36.0653 163.123 36.0647C163.123 36.0642 163.123 36.0636 163.123 36.0631C163.123 36.0625 163.123 36.062 163.123 36.0614C163.123 36.0609 163.123 36.0603 163.123 36.0598C163.123 36.0592 163.123 36.0587 163.123 36.0581C163.123 36.0576 163.123 36.057 163.123 36.0565C163.123 36.056 163.123 36.0554 163.123 36.0549C163.123 36.0543 163.123 36.0538 163.123 36.0532C163.123 36.0527 163.123 36.0521 163.123 36.0516C163.123 36.051 163.123 36.0505 163.123 36.0499C163.123 36.0494 163.123 36.0488 163.123 36.0483C163.123 36.0477 163.123 36.0472 163.123 36.0466C163.123 36.0461 163.123 36.0455 163.123 36.045C163.123 36.0445 163.123 36.0439 163.123 36.0434C163.123 36.0428 163.123 36.0423 163.123 36.0417C163.123 36.0412 163.123 36.0406 163.123 36.0401C163.123 36.0395 163.123 36.039 163.123 36.0384C163.123 36.0379 163.123 36.0373 163.123 36.0368C163.123 36.0363 163.123 36.0357 163.123 36.0352C163.123 36.0346 163.123 36.0341 163.123 36.0335C163.123 36.033 163.123 36.0324 163.123 36.0319C163.123 36.0313 163.123 36.0308 163.123 36.0303C163.123 36.0297 163.123 36.0292 163.123 36.0286C163.123 36.0281 163.123 36.0275 163.123 36.027C163.123 36.0264 163.123 36.0259 163.123 36.0254C163.123 36.0248 163.123 36.0243 163.123 36.0237C163.123 36.0232 163.123 36.0226 163.123 36.0221C163.123 36.0215 163.123 36.021 163.123 36.0205C163.123 36.0199 163.123 36.0194 163.123 36.0188C163.123 36.0183 163.123 36.0177 163.123 36.0172C163.123 36.0167 163.123 36.0161 163.123 36.0156C163.123 36.015 163.123 36.0145 163.123 36.0139C163.123 36.0134 163.123 36.0129 163.123 36.0123C163.123 36.0118 163.123 36.0112 163.123 36.0107C163.123 36.0101 163.123 36.0096 163.123 36.0091C163.123 36.0085 163.123 36.008 163.123 36.0074C163.123 36.0069 163.123 36.0063 163.123 36.0058C163.123 36.0053 163.123 36.0047 163.123 36.0042C163.123 36.0036 163.123 36.0031 163.123 36.0025C163.123 36.002 163.123 36.0015 163.123 36.0009C163.123 36.0004 163.123 35.9998 163.123 35.9993C163.123 35.9988 163.123 35.9982 163.123 35.9977C163.123 35.9971 163.123 35.9966 163.123 35.9961C163.123 35.9955 163.123 35.995 163.123 35.9944C163.123 35.9939 163.123 35.9934 163.123 35.9928C163.123 35.9923 163.123 35.9917 163.123 35.9912C163.123 35.9907 163.123 35.9901 163.123 35.9896C163.123 35.989 163.123 35.9885 163.123 35.988C163.123 35.9874 163.123 35.9869 163.123 35.9863C163.123 35.9858 163.123 35.9853 163.123 35.9847C163.123 35.9842 163.123 35.9836 163.123 35.9831C163.123 35.9826 163.123 35.982 163.123 35.9815C163.123 35.9809 163.123 35.9804 163.123 35.9799C163.123 35.9793 163.123 35.9788 163.123 35.9782C163.123 35.9777 163.123 35.9772 163.123 35.9766C163.123 35.9761 163.123 35.9756 163.123 35.975C163.123 35.9745 163.123 35.9739 163.123 35.9734C163.123 35.9729 163.123 35.9723 163.123 35.9718C163.123 35.9713 163.123 35.9707 163.123 35.9702C163.123 35.9696 163.123 35.9691 163.123 35.9686C163.123 35.968 163.123 35.9675 163.123 35.967C163.123 35.9664 163.123 35.9659 163.123 35.9653C163.123 35.9648 163.123 35.9643 163.123 35.9637C163.123 35.9632 163.123 35.9627 163.123 35.9621C163.123 35.9616 163.123 35.961 163.123 35.9605C163.123 35.96 163.123 35.9594 163.123 35.9589C163.123 35.9584 163.123 35.9578 163.123 35.9573C163.123 35.9568 163.123 35.9562 163.123 35.9557C163.123 35.9552 163.123 35.9546 163.123 35.9541C163.123 35.9535 163.123 35.953 163.123 35.9525C163.123 35.9519 163.123 35.9514 163.123 35.9509C163.123 35.9503 163.123 35.9498 163.123 35.9493C163.123 35.9487 163.123 35.9482 163.123 35.9477C163.123 35.9471 163.123 35.9466 163.123 35.9461C163.123 35.9455 163.123 35.945 163.123 35.9445C163.123 35.9439 163.123 35.9434 163.123 35.9429C163.123 35.9423 163.123 35.9418 163.123 35.9412C163.123 35.9407 163.123 35.9402 163.123 35.9396C163.123 35.9391 163.123 35.9386 163.123 35.938C163.123 35.9375 163.123 35.937 163.123 35.9364C163.123 35.9359 163.123 35.9354 163.123 35.9348C163.123 35.9343 163.123 35.9338 163.123 35.9332C163.123 35.9327 163.123 35.9322 163.123 35.9317C163.123 35.9311 163.123 35.9306 163.123 35.9301C163.123 35.9295 163.123 35.929 163.123 35.9285C163.123 35.9279 163.123 35.9274 163.123 35.9269C163.123 35.9263 163.123 35.9258 163.123 35.9253C163.123 35.9247 163.123 35.9242 163.123 35.9237C163.123 35.9231 163.123 35.9226 163.123 35.9221C163.123 35.9215 163.123 35.921 163.123 35.9205C163.123 35.9199 163.123 35.9194 163.123 35.9189C163.123 35.9184 163.123 35.9178 163.123 35.9173C163.123 35.9168 163.123 35.9162 163.123 35.9157C163.123 35.9152 163.123 35.9146 163.123 35.9141C163.123 35.9136 163.123 35.9131 163.123 35.9125C163.123 35.912 163.123 35.9115 163.123 35.9109C163.123 35.9104 163.123 35.9099 163.123 35.9093C163.123 35.9088 163.123 35.9083 163.123 35.9078C163.123 35.9072 163.123 35.9067 163.123 35.9062C163.123 35.9056 163.123 35.9051 163.123 35.9046C163.123 35.904 163.123 35.9035 163.123 35.903C163.123 35.9025 163.123 35.9019 163.123 35.9014C163.123 35.9009 163.123 35.9003 163.123 35.8998C163.123 35.8993 163.123 35.8988 163.123 35.8982C163.123 35.8977 163.123 35.8972 163.123 35.8966C163.123 35.8961 163.123 35.8956 163.123 35.8951C163.123 35.8945 163.123 35.894 163.123 35.8935C163.123 35.8929 163.123 35.8924 163.123 35.8919C163.123 35.8914 163.123 35.8908 163.123 35.8903C163.123 35.8898 163.123 35.8893 163.123 35.8887C163.123 35.8882 163.123 35.8877 163.123 35.8871C163.123 35.8866 163.123 35.8861 163.123 35.8856C163.123 35.885 163.123 35.8845 163.123 35.884C163.123 35.8835 163.123 35.8829 163.123 35.8824C163.123 35.8819 163.123 35.8814 163.123 35.8808C163.123 35.8803 163.123 35.8798 163.123 35.8793C163.123 35.8787 163.123 35.8782 163.123 35.8777C163.123 35.8771 163.123 35.8766 163.123 35.8761C163.123 35.8756 163.123 35.875 163.123 35.8745C163.123 35.874 163.123 35.8735 163.123 35.8729C163.123 35.8724 163.123 35.8719 163.123 35.8714C163.123 35.8708 163.123 35.8703 163.123 35.8698C163.123 35.8693 163.123 35.8687 163.123 35.8682C163.123 35.8677 163.123 35.8672 163.123 35.8667C163.123 35.8661 163.123 35.8656 163.123 35.8651C163.123 35.8646 163.123 35.864 163.123 35.8635C163.123 35.863 163.123 35.8625 163.123 35.8619C163.123 35.8614 163.123 35.8609 163.123 35.8604C163.123 35.8598 163.123 35.8593 163.123 35.8588C163.123 35.8583 163.123 35.8577 163.123 35.8572C163.123 35.8567 163.123 35.8562 163.123 35.8557C163.123 35.8551 163.123 35.8546 163.123 35.8541C163.123 35.8536 163.123 35.853 163.123 35.8525C163.123 35.852 163.123 35.8515 163.123 35.851C163.123 35.8504 163.123 35.8499 163.123 35.8494C163.123 35.8489 163.123 35.8483 163.123 35.8478C163.123 35.8473 163.123 35.8468 163.123 35.8463C163.123 35.8457 163.123 35.8452 163.123 35.8447C163.123 35.8442 163.123 35.8436 163.123 35.8431C163.123 35.8426 163.123 35.8421 163.123 35.8416C163.123 35.841 163.123 35.8405 163.123 35.84H161.123ZM162.123 35.72H125.563V37.72H162.123V35.72ZM126.563 36.72V32.48H124.563V36.72H126.563ZM125.563 33.48H159.083V31.48H125.563V33.48ZM158.483 31.68L156.243 33.36L157.443 34.96L159.683 33.28L158.483 31.68ZM157.843 34.16C157.843 30.9691 157.141 28.1015 155.712 25.586L153.973 26.574C155.21 28.7518 155.843 31.2709 155.843 34.16H157.843ZM155.725 25.6094C154.363 23.0558 152.478 21.0515 150.074 19.6207L149.051 21.3393C151.127 22.5752 152.762 24.3042 153.96 26.5506L155.725 25.6094ZM150.074 19.6207C147.661 18.1841 144.893 17.48 141.803 17.48V19.48C144.579 19.48 146.984 20.1092 149.051 21.3393L150.074 19.6207ZM141.803 17.48C138.762 17.48 135.999 18.1859 133.54 19.6155L134.545 21.3445C136.673 20.1074 139.083 19.48 141.803 19.48V17.48ZM133.54 19.6155C131.082 21.0447 129.165 23.0497 127.8 25.6094L129.565 26.5506C130.76 24.3103 132.417 22.5819 134.545 21.3445L133.54 19.6155ZM127.8 25.6094C126.433 28.1731 125.763 31.0853 125.763 34.32H127.763C127.763 31.368 128.372 28.7869 129.565 26.5506L127.8 25.6094ZM125.763 34.32V35.2H127.763V34.32H125.763ZM125.763 35.2C125.763 38.5487 126.489 41.5492 127.972 44.1721L129.713 43.1879C128.422 40.9041 127.763 38.2513 127.763 35.2H125.763ZM127.985 44.1945C129.518 46.7491 131.622 48.7653 134.278 50.235L135.247 48.485C132.89 47.1814 131.047 45.4109 129.7 43.1655L127.985 44.1945ZM134.301 50.2469C137.02 51.6635 140.089 52.36 143.483 52.36V50.36C140.369 50.36 137.625 49.7231 135.224 48.4731L134.301 50.2469ZM143.483 52.36C146.163 52.36 148.668 51.8847 150.986 50.9237L150.219 49.0763C148.164 49.9286 145.922 50.36 143.483 50.36V52.36ZM150.978 50.9269C153.369 49.9592 155.42 48.4767 157.122 46.4908L155.603 45.1892C154.105 46.9366 152.316 48.2275 150.227 49.0731L150.978 50.9269ZM155.608 46.4962L158.808 50.1762L160.317 48.8638L157.117 45.1838L155.608 46.4962ZM158.794 48.8798C157.036 50.9894 154.824 52.6019 152.139 53.7164L152.906 55.5636C155.874 54.3315 158.355 52.5306 160.331 50.1602L158.794 48.8798ZM152.133 53.719C149.496 54.8345 146.564 55.4 143.323 55.4V57.4C146.801 57.4 150.002 56.7922 152.912 55.561L152.133 53.719ZM204.164 15.6L203.702 16.4869L203.713 16.4926L203.724 16.4981L204.164 15.6ZM210.244 21.52L209.364 21.9951L209.367 22.0019L209.371 22.0086L210.244 21.52ZM212.484 56V57H213.484V56H212.484ZM206.804 56H205.804V57H206.804V56ZM203.444 22.16L202.72 22.8501L202.728 22.8587L202.737 22.8671L203.444 22.16ZM186.324 20.56L186.797 21.4412L186.804 21.4371L186.324 20.56ZM181.204 25.76L180.322 25.2883L180.318 25.296L181.204 25.76ZM179.444 56V57H180.444V56H179.444ZM173.764 56H172.764V57H173.764V56ZM173.764 14V13H172.764V14H173.764ZM179.204 14H180.204V13H179.204V14ZM179.204 25.52L178.278 25.8973L180.204 25.52H179.204ZM178.324 23.36L177.408 22.9583L177.238 23.3456L177.398 23.7373L178.324 23.36ZM184.724 16.24L185.227 17.1044L185.238 17.0975L184.724 16.24ZM195.204 14.6C198.486 14.6 201.308 15.2403 203.702 16.4869L204.626 14.7131C201.899 13.293 198.749 12.6 195.204 12.6V14.6ZM203.724 16.4981C206.142 17.6824 208.018 19.5038 209.364 21.9951L211.124 21.0448C209.589 18.2029 207.412 16.0776 204.604 14.7019L203.724 16.4981ZM209.371 22.0086C210.758 24.4851 211.484 27.6638 211.484 31.6H213.484C213.484 27.4295 212.716 23.8882 211.116 21.0314L209.371 22.0086ZM211.484 31.6V56H213.484V31.6H211.484ZM212.484 55H206.804V57H212.484V55ZM207.804 56V32.16H205.804V56H207.804ZM207.804 32.16C207.804 27.5752 206.643 23.9445 204.151 21.4529L202.737 22.8671C204.725 24.8555 205.804 27.8915 205.804 32.16H207.804ZM204.167 21.4699C201.745 18.9296 198.361 17.72 194.164 17.72V19.72C197.966 19.72 200.769 20.8037 202.72 22.8501L204.167 21.4699ZM194.164 17.72C191.038 17.72 188.254 18.3629 185.843 19.6829L186.804 21.4371C188.874 20.3038 191.316 19.72 194.164 19.72V17.72ZM185.851 19.6788C183.482 20.95 181.637 22.83 180.322 25.2883L182.086 26.2317C183.224 24.1033 184.792 22.5167 186.797 21.4412L185.851 19.6788ZM180.318 25.296C179.052 27.7122 178.444 30.6003 178.444 33.92H180.444C180.444 30.8397 181.009 28.2878 182.09 26.224L180.318 25.296ZM178.444 33.92V56H180.444V33.92H178.444ZM179.444 55H173.764V57H179.444V55ZM174.764 56V14H172.764V56H174.764ZM173.764 15H179.204V13H173.764V15ZM178.204 14V25.52H180.204V14H178.204ZM180.13 25.1427L179.25 22.9827L177.398 23.7373L178.278 25.8973L180.13 25.1427ZM179.24 23.7617C180.486 20.9203 182.472 18.707 185.227 17.1043L184.221 15.3757C181.109 17.1863 178.828 19.7196 177.408 22.9583L179.24 23.7617ZM185.238 17.0975C187.99 15.4467 191.298 14.6 195.204 14.6V12.6C191.003 12.6 187.325 13.5133 184.209 15.3825L185.238 17.0975ZM233.986 53.68L233.482 54.5438L233.491 54.5487L233.499 54.5535L233.986 53.68ZM226.386 46.08L225.519 46.5777L225.522 46.5839L226.386 46.08ZM226.386 23.84L225.522 23.3361L225.522 23.3361L226.386 23.84ZM233.986 16.32L234.479 17.19L234.479 17.19L233.986 16.32ZM255.986 16.32L255.493 17.19L255.499 17.1935L255.986 16.32ZM263.586 23.84L262.716 24.3331L262.722 24.3439L263.586 23.84ZM263.586 46.08L262.719 45.5823L262.716 45.587L263.586 46.08ZM255.986 53.68L256.473 54.5535L256.484 54.5474L255.986 53.68ZM253.026 49.36L253.52 50.2295L253.528 50.2253L253.535 50.2209L253.026 49.36ZM258.546 43.6L257.671 43.1159L257.668 43.1225L258.546 43.6ZM258.546 26.32L257.668 26.7975L257.672 26.8048L257.676 26.8121L258.546 26.32ZM253.026 20.64L252.518 21.5009L252.525 21.5053L252.532 21.5095L253.026 20.64ZM237.026 20.64L237.52 21.5095L237.528 21.5053L237.535 21.5009L237.026 20.64ZM231.426 26.32L232.297 26.8121L232.297 26.8121L231.426 26.32ZM231.426 43.6L230.551 44.0841L230.556 44.0921L231.426 43.6ZM237.026 49.36L236.518 50.2209L236.525 50.2253L236.532 50.2295L237.026 49.36ZM244.946 55.4C241.048 55.4 237.565 54.5297 234.473 52.8065L233.499 54.5535C236.915 56.457 240.738 57.4 244.946 57.4V55.4ZM234.49 52.8162C231.439 51.0365 229.03 48.6271 227.25 45.5761L225.522 46.5839C227.476 49.9329 230.133 52.5902 233.482 54.5438L234.49 52.8162ZM227.254 45.5823C225.483 42.4965 224.586 38.9649 224.586 34.96H222.586C222.586 39.2751 223.556 43.1568 225.519 46.5777L227.254 45.5823ZM224.586 34.96C224.586 30.899 225.484 27.3709 227.25 24.3439L225.522 23.3361C223.555 26.7091 222.586 30.5944 222.586 34.96H224.586ZM227.25 24.3439C229.028 21.2954 231.434 18.9156 234.479 17.19L233.493 15.45C230.138 17.3511 227.478 19.9846 225.522 23.3361L227.25 24.3439ZM234.479 17.19C237.512 15.4715 240.992 14.6 244.946 14.6V12.6C240.687 12.6 236.861 13.5419 233.493 15.45L234.479 17.19ZM244.946 14.6C248.956 14.6 252.462 15.4726 255.493 17.19L256.479 15.45C253.11 13.5408 249.256 12.6 244.946 12.6V14.6ZM255.499 17.1935C258.595 18.9187 260.995 21.2947 262.716 24.333L264.456 23.347C262.551 19.9853 259.885 17.3479 256.473 15.4465L255.499 17.1935ZM262.722 24.3439C264.488 27.3709 265.386 30.899 265.386 34.96H267.386C267.386 30.5944 266.418 26.7091 264.45 23.3361L262.722 24.3439ZM265.386 34.96C265.386 38.9649 264.489 42.4965 262.719 45.5823L264.454 46.5777C266.416 43.1568 267.386 39.2751 267.386 34.96H265.386ZM262.716 45.587C260.993 48.6279 258.59 51.0333 255.489 52.8126L256.484 54.5474C259.889 52.5934 262.553 49.9321 264.456 46.573L262.716 45.587ZM255.499 52.8065C252.41 54.5286 248.9 55.4 244.946 55.4V57.4C249.205 57.4 253.056 56.4581 256.473 54.5535L255.499 52.8065ZM244.946 52.36C248.137 52.36 251.005 51.6587 253.52 50.2295L252.532 48.4905C250.354 49.7279 247.835 50.36 244.946 50.36V52.36ZM253.535 50.2209C256.041 48.7399 258.007 46.6857 259.425 44.0775L257.668 43.1225C256.418 45.421 254.705 47.2067 252.518 48.4991L253.535 50.2209ZM259.421 44.0841C260.901 41.4101 261.626 38.3594 261.626 34.96H259.626C259.626 38.0673 258.965 40.7766 257.671 43.1159L259.421 44.0841ZM261.626 34.96C261.626 31.511 260.902 28.4556 259.417 25.8279L257.676 26.8121C258.964 29.0911 259.626 31.7957 259.626 34.96H261.626ZM259.425 25.8425C258.006 23.2311 256.035 21.1994 253.52 19.7705L252.532 21.5095C254.711 22.7473 256.42 24.5022 257.668 26.7975L259.425 25.8425ZM253.535 19.7791C251.02 18.2928 248.174 17.56 245.026 17.56V19.56C247.852 19.56 250.339 20.2139 252.518 21.5009L253.535 19.7791ZM245.026 17.56C241.878 17.56 239.033 18.2928 236.518 19.7791L237.535 21.5009C239.713 20.2139 242.201 19.56 245.026 19.56V17.56ZM236.532 19.7705C234.021 21.1973 232.027 23.2243 230.556 25.8279L232.297 26.8121C233.599 24.509 235.338 22.7493 237.52 21.5095L236.532 19.7705ZM230.556 25.8279C229.071 28.4556 228.346 31.511 228.346 34.96H230.346C230.346 31.7957 231.009 29.0911 232.297 26.8121L230.556 25.8279ZM228.346 34.96C228.346 38.3594 229.072 41.4101 230.551 44.0841L232.301 43.1159C231.007 40.7766 230.346 38.0673 230.346 34.96H228.346ZM230.556 44.0921C232.026 46.6925 234.015 48.742 236.518 50.2209L237.535 48.4991C235.344 47.2046 233.6 45.4141 232.297 43.1079L230.556 44.0921ZM236.532 50.2295C239.042 51.6557 241.855 52.36 244.946 52.36V50.36C242.171 50.36 239.703 49.731 237.52 48.4905L236.532 50.2295ZM0.120001 126H-0.879999V127H0.120001V126ZM0.120001 70V69H-0.879999V70H0.120001ZM6.04 70H7.04V69H6.04V70ZM6.04 126V127H7.04V126H6.04ZM1.12 126L1.12 70H-0.879999L-0.879999 126H1.12ZM0.120001 71H6.04V69H0.120001V71ZM5.04 70L5.04 126H7.04L7.04 70H5.04ZM6.04 125H0.120001V127H6.04V125ZM24.5006 124.96L24.1893 125.91L24.1968 125.913L24.2042 125.915L24.5006 124.96ZM17.2206 121.2L16.3524 120.704L15.9403 121.425L16.5736 121.963L17.2206 121.2ZM19.7806 116.72L20.3806 115.92L19.4744 115.24L18.9124 116.224L19.7806 116.72ZM26.3406 120.08L26.0019 121.021L26.0103 121.024L26.0187 121.027L26.3406 120.08ZM43.3806 119.6L43.9524 120.42L43.9607 120.415L43.9688 120.409L43.3806 119.6ZM44.5006 110.96L43.814 111.687L43.8347 111.707L43.8565 111.725L44.5006 110.96ZM40.6606 108.96L40.3733 109.918L40.3881 109.922L40.403 109.926L40.6606 108.96ZM29.3806 106.64L29.1637 107.616L29.1693 107.617L29.3806 106.64ZM24.1006 104.8L23.63 105.682L23.6416 105.689L23.6534 105.694L24.1006 104.8ZM20.1806 101.36L19.3486 101.915L19.3556 101.925L19.3628 101.935L20.1806 101.36ZM20.6606 89.44L21.4776 90.0167L21.4776 90.0167L20.6606 89.44ZM26.2606 85.2L26.6424 86.1243L26.6522 86.1202L26.2606 85.2ZM43.5406 84.72L43.2759 85.6843L43.2847 85.6867L43.2936 85.689L43.5406 84.72ZM50.2606 87.52L51.1391 87.9978L51.5758 87.1949L50.8153 86.6879L50.2606 87.52ZM47.7806 92.08L47.2151 92.9047L48.1294 93.5317L48.6591 92.5578L47.7806 92.08ZM41.7806 89.36L41.5155 90.3242L41.5267 90.3273L41.5381 90.3301L41.7806 89.36ZM26.9806 90.48L27.5688 91.2887L27.573 91.2856L26.9806 90.48ZM25.7806 99.2L25.094 99.927L25.1038 99.9363L25.1138 99.9452L25.7806 99.2ZM29.7006 101.36L29.3844 102.309L29.403 102.315L29.4218 102.32L29.7006 101.36ZM35.0606 102.56L34.8962 103.546L34.9006 103.547L35.0606 102.56ZM40.9006 103.76L40.6581 104.73L40.6736 104.734L40.6893 104.737L40.9006 103.76ZM46.2606 105.6L45.8134 106.494L45.8311 106.503L45.849 106.511L46.2606 105.6ZM50.1806 108.88L49.3486 109.435L49.3605 109.453L49.3732 109.47L50.1806 108.88ZM49.6206 120.8L48.8263 120.193L48.8235 120.196L49.6206 120.8ZM43.7006 124.96L44.0518 125.896L44.0622 125.892L43.7006 124.96ZM34.3406 125.4C30.9674 125.4 27.7879 124.933 24.797 124.005L24.2042 125.915C27.4001 126.907 30.7805 127.4 34.3406 127.4V125.4ZM24.8119 124.01C21.7949 123.021 19.4973 121.82 17.8676 120.437L16.5736 121.963C18.4639 123.566 21.0197 124.872 24.1893 125.91L24.8119 124.01ZM18.0889 121.696L20.6489 117.216L18.9124 116.224L16.3524 120.704L18.0889 121.696ZM19.1806 117.52C20.9881 118.876 23.2704 120.038 26.0019 121.021L26.6793 119.139C24.0775 118.202 21.9865 117.124 20.3806 115.92L19.1806 117.52ZM26.0187 121.027C28.7933 121.97 31.7024 122.44 34.7406 122.44V120.44C31.9122 120.44 29.2213 120.003 26.6625 119.133L26.0187 121.027ZM34.7406 122.44C38.7933 122.44 41.9328 121.828 43.9524 120.42L42.8088 118.78C41.3085 119.825 38.6879 120.44 34.7406 120.44V122.44ZM43.9688 120.409C45.9735 118.951 47.0206 116.977 47.0206 114.56H45.0206C45.0206 116.303 44.3078 117.689 42.7925 118.791L43.9688 120.409ZM47.0206 114.56C47.0206 112.773 46.4226 111.271 45.1448 110.195L43.8565 111.725C44.6053 112.356 45.0206 113.253 45.0206 114.56H47.0206ZM45.1872 110.233C44.0794 109.187 42.6389 108.453 40.9183 107.994L40.403 109.926C41.8824 110.321 43.0018 110.92 43.814 111.687L45.1872 110.233ZM40.948 108.002C39.2991 107.508 37.469 107.099 35.4607 106.773L35.1406 108.747C37.0789 109.061 38.8222 109.452 40.3733 109.918L40.948 108.002ZM35.4607 106.773C33.5047 106.456 31.5485 106.086 29.592 105.663L29.1693 107.617C31.1595 108.048 33.1499 108.424 35.1406 108.747L35.4607 106.773ZM29.5976 105.664C27.7495 105.253 26.0679 104.666 24.5478 103.906L23.6534 105.694C25.3334 106.534 27.1717 107.174 29.1637 107.616L29.5976 105.664ZM24.5712 103.918C23.1051 103.136 21.9189 102.093 20.9984 100.785L19.3628 101.935C20.469 103.507 21.8961 104.758 23.63 105.682L24.5712 103.918ZM21.0127 100.805C20.197 99.5818 19.7406 97.8764 19.7406 95.6H17.7406C17.7406 98.1236 18.2443 100.258 19.3486 101.915L21.0127 100.805ZM19.7406 95.6C19.7406 93.5059 20.3208 91.6554 21.4776 90.0167L19.8437 88.8633C18.4404 90.8512 17.7406 93.1075 17.7406 95.6H19.7406ZM21.4776 90.0167C22.6286 88.3861 24.3295 87.0796 26.6424 86.1243L25.8789 84.2757C23.2851 85.3471 21.2527 86.8672 19.8437 88.8633L21.4776 90.0167ZM26.6522 86.1202C29.0029 85.1198 31.9019 84.6 35.3806 84.6V82.6C31.7127 82.6 28.5317 83.1468 25.8691 84.2798L26.6522 86.1202ZM35.3806 84.6C38.0079 84.6 40.639 84.9605 43.2759 85.6843L43.8053 83.7557C41.0023 82.9862 38.1933 82.6 35.3806 82.6V84.6ZM43.2936 85.689C45.9377 86.363 48.0651 87.2582 49.7059 88.352L50.8153 86.6879C48.9361 85.4351 46.5835 84.4637 43.7876 83.751L43.2936 85.689ZM49.3821 87.0422L46.9021 91.6022L48.6591 92.5578L51.1391 87.9978L49.3821 87.0422ZM48.3462 91.2553C46.3843 89.91 44.2753 88.9529 42.0232 88.3899L41.5381 90.3301C43.5526 90.8338 45.4437 91.69 47.2151 92.9047L48.3462 91.2553ZM42.0458 88.3958C39.8293 87.7863 37.6068 87.48 35.3806 87.48V89.48C37.4211 89.48 39.4653 89.7604 41.5155 90.3242L42.0458 88.3958ZM35.3806 87.48C31.5124 87.48 28.4554 88.1544 26.3882 89.6743L27.573 91.2856C29.1326 90.1389 31.6756 89.48 35.3806 89.48V87.48ZM26.3925 89.6713C24.396 91.1232 23.3406 93.0668 23.3406 95.44H25.3406C25.3406 93.7599 26.0452 92.3968 27.5688 91.2887L26.3925 89.6713ZM23.3406 95.44C23.3406 97.2524 23.8925 98.7923 25.094 99.927L26.4672 98.473C25.7487 97.7944 25.3406 96.8276 25.3406 95.44H23.3406ZM25.1138 99.9452C26.2502 100.962 27.6851 101.742 29.3844 102.309L30.0169 100.411C28.5162 99.9111 27.3377 99.2513 26.4474 98.4548L25.1138 99.9452ZM29.4218 102.32C31.1172 102.813 32.9425 103.221 34.8962 103.546L35.225 101.574C33.3387 101.259 31.5907 100.867 29.9794 100.4L29.4218 102.32ZM34.9006 103.547C36.8465 103.863 38.7656 104.257 40.6581 104.73L41.1432 102.79C39.1956 102.303 37.2215 101.897 35.2207 101.573L34.9006 103.547ZM40.6893 104.737C42.5911 105.149 44.2971 105.736 45.8134 106.494L46.7078 104.706C45.0241 103.864 43.1568 103.225 41.112 102.783L40.6893 104.737ZM45.849 106.511C47.3402 107.185 48.4977 108.158 49.3486 109.435L51.0127 108.325C49.9436 106.722 48.4877 105.509 46.6722 104.689L45.849 106.511ZM49.3732 109.47C50.2254 110.636 50.7006 112.248 50.7006 114.4H52.7006C52.7006 111.965 52.1625 109.897 50.988 108.29L49.3732 109.47ZM50.7006 114.4C50.7006 116.651 50.0693 118.567 48.8263 120.193L50.415 121.407C51.9453 119.406 52.7006 117.055 52.7006 114.4H50.7006ZM48.8235 120.196C47.6286 121.773 45.8257 123.063 43.3391 124.028L44.0622 125.892C46.8023 124.83 48.946 123.347 50.4177 121.404L48.8235 120.196ZM43.3495 124.024C40.9332 124.93 37.9396 125.4 34.3406 125.4V127.4C38.1016 127.4 41.3481 126.91 44.0518 125.896L43.3495 124.024ZM68.2831 123.68L67.7793 124.544L67.7877 124.549L67.7963 124.553L68.2831 123.68ZM60.6831 116.08L59.8157 116.578L59.8193 116.584L60.6831 116.08ZM60.6831 93.84L59.8193 93.3361L59.8193 93.3361L60.6831 93.84ZM68.2831 86.32L68.7761 87.19L68.7761 87.19L68.2831 86.32ZM90.2831 86.32L89.7901 87.19L89.7963 87.1935L90.2831 86.32ZM97.8831 93.84L97.013 94.3331L97.0193 94.3439L97.8831 93.84ZM97.8831 116.08L97.0157 115.582L97.0131 115.587L97.8831 116.08ZM90.2831 123.68L90.77 124.554L90.7808 124.547L90.2831 123.68ZM87.3231 119.36L87.8171 120.229L87.8245 120.225L87.8319 120.221L87.3231 119.36ZM92.8431 113.6L91.9681 113.116L91.9645 113.122L92.8431 113.6ZM92.8431 96.32L91.9645 96.7975L91.9685 96.8048L91.9726 96.8121L92.8431 96.32ZM87.3231 90.64L86.8144 91.5009L86.8217 91.5053L86.8291 91.5095L87.3231 90.64ZM71.3231 90.64L71.8171 91.5095L71.8245 91.5053L71.8319 91.5009L71.3231 90.64ZM65.7231 96.32L66.5937 96.8121L66.5937 96.8121L65.7231 96.32ZM65.7231 113.6L64.8481 114.084L64.8526 114.092L65.7231 113.6ZM71.3231 119.36L70.8144 120.221L70.8217 120.225L70.8291 120.229L71.3231 119.36ZM79.2431 125.4C75.3448 125.4 71.8615 124.53 68.77 122.807L67.7963 124.553C71.2114 126.457 75.0348 127.4 79.2431 127.4V125.4ZM68.787 122.816C65.736 121.036 63.3267 118.627 61.5469 115.576L59.8193 116.584C61.7729 119.933 64.4303 122.59 67.7793 124.544L68.787 122.816ZM61.5505 115.582C59.78 112.497 58.8831 108.965 58.8831 104.96H56.8831C56.8831 109.275 57.853 113.157 59.8158 116.578L61.5505 115.582ZM58.8831 104.96C58.8831 100.899 59.7811 97.3709 61.5469 94.3439L59.8193 93.3361C57.8518 96.7091 56.8831 100.594 56.8831 104.96H58.8831ZM61.5469 94.3439C63.3252 91.2954 65.7311 88.9156 68.7761 87.19L67.7901 85.45C64.4352 87.3511 61.7744 89.9846 59.8193 93.3361L61.5469 94.3439ZM68.7761 87.19C71.8089 85.4715 75.2887 84.6 79.2431 84.6V82.6C74.9842 82.6 71.1574 83.5419 67.7901 85.45L68.7761 87.19ZM79.2431 84.6C83.2534 84.6 86.7593 85.4726 89.7901 87.19L90.7761 85.45C87.4069 83.5408 83.5529 82.6 79.2431 82.6V84.6ZM89.7963 87.1935C92.8915 88.9187 95.2914 91.2947 97.0131 94.333L98.7531 93.347C96.8482 89.9853 94.1814 87.3479 90.77 85.4465L89.7963 87.1935ZM97.0193 94.3439C98.7851 97.3709 99.6831 100.899 99.6831 104.96H101.683C101.683 100.594 100.714 96.7091 98.7469 93.3361L97.0193 94.3439ZM99.6831 104.96C99.6831 108.965 98.7863 112.497 97.0158 115.582L98.7505 116.578C100.713 113.157 101.683 109.275 101.683 104.96H99.6831ZM97.0131 115.587C95.2899 118.628 92.8866 121.033 89.7855 122.813L90.7808 124.547C94.1863 122.593 96.8497 119.932 98.7531 116.573L97.0131 115.587ZM89.7963 122.807C86.7067 124.529 83.1973 125.4 79.2431 125.4V127.4C83.5023 127.4 87.3529 126.458 90.77 124.553L89.7963 122.807ZM79.2431 122.36C82.434 122.36 85.3016 121.659 87.8171 120.229L86.8291 118.491C84.6513 119.728 82.1322 120.36 79.2431 120.36V122.36ZM87.8319 120.221C90.3382 118.74 92.3043 116.686 93.7218 114.078L91.9645 113.122C90.7153 115.421 89.0014 117.207 86.8144 118.499L87.8319 120.221ZM93.7182 114.084C95.1974 111.41 95.9231 108.359 95.9231 104.96H93.9231C93.9231 108.067 93.2622 110.777 91.9681 113.116L93.7182 114.084ZM95.9231 104.96C95.9231 101.511 95.1989 98.4556 93.7137 95.8279L91.9726 96.8121C93.2607 99.0911 93.9231 101.796 93.9231 104.96H95.9231ZM93.7218 95.8425C92.3025 93.2311 90.3319 91.1994 87.8171 89.7705L86.8291 91.5095C89.0077 92.7473 90.7171 94.5022 91.9645 96.7975L93.7218 95.8425ZM87.8319 89.7791C85.3166 88.2928 82.4711 87.56 79.3231 87.56V89.56C82.1485 89.56 84.6363 90.2139 86.8144 91.5009L87.8319 89.7791ZM79.3231 87.56C76.1751 87.56 73.3297 88.2928 70.8144 89.7791L71.8319 91.5009C74.0099 90.2139 76.4978 89.56 79.3231 89.56V87.56ZM70.8291 89.7705C68.318 91.1973 66.3242 93.2243 64.8526 95.8279L66.5937 96.8121C67.8954 94.509 69.6349 92.7493 71.8171 91.5095L70.8291 89.7705ZM64.8526 95.8279C63.3674 98.4556 62.6431 101.511 62.6431 104.96H64.6431C64.6431 101.796 65.3055 99.0911 66.5937 96.8121L64.8526 95.8279ZM62.6431 104.96C62.6431 108.359 63.3689 111.41 64.8481 114.084L66.5982 113.116C65.304 110.777 64.6431 108.067 64.6431 104.96H62.6431ZM64.8526 114.092C66.3224 116.693 68.3116 118.742 70.8144 120.221L71.8319 118.499C69.6413 117.205 67.8972 115.414 66.5937 113.108L64.8526 114.092ZM70.8291 120.229C73.3393 121.656 76.1521 122.36 79.2431 122.36V120.36C76.4675 120.36 74.0003 119.731 71.8171 118.491L70.8291 120.229ZM118.199 123.68L117.7 124.546L117.706 124.55L118.199 123.68ZM110.759 116.16L109.886 116.647L109.889 116.653L110.759 116.16ZM118.199 86.32L118.688 87.1928L118.692 87.19L118.199 86.32ZM138.839 86.08L138.341 86.9473L138.348 86.9512L138.839 86.08ZM145.799 93.36L144.917 93.8306L144.922 93.8394L144.927 93.8482L145.799 93.36ZM145.879 116.56L146.762 117.031L146.762 117.031L145.879 116.56ZM138.919 123.92L139.417 124.787L139.422 124.784L138.919 123.92ZM137.399 119.36L137.893 120.229L137.9 120.226L137.399 119.36ZM142.999 113.6L142.124 113.116L142.121 113.122L142.999 113.6ZM142.999 96.32L142.121 96.7975L142.125 96.8048L142.129 96.8121L142.999 96.32ZM137.399 90.64L136.891 91.5009L136.902 91.5077L136.914 91.5142L137.399 90.64ZM121.479 90.64L121.973 91.5095L121.981 91.5053L121.988 91.5009L121.479 90.64ZM115.879 96.32L116.75 96.8121L116.75 96.8121L115.879 96.32ZM115.879 113.6L115.004 114.084L115.009 114.092L115.879 113.6ZM121.479 119.36L120.971 120.221L120.978 120.225L120.985 120.229L121.479 119.36ZM145.239 126H144.239V127H145.239V126ZM145.239 113.36L144.242 113.294L144.239 113.327V113.36H145.239ZM145.799 104.88L146.797 104.946L146.802 104.866L146.795 104.786L145.799 104.88ZM144.999 96.4H143.999V96.4471L144.004 96.4939L144.999 96.4ZM144.999 66.64V65.64H143.999V66.64H144.999ZM150.679 66.64H151.679V65.64H150.679V66.64ZM150.679 126V127H151.679V126H150.679ZM128.999 125.4C125.157 125.4 121.729 124.531 118.692 122.81L117.706 124.55C121.07 126.456 124.842 127.4 128.999 127.4V125.4ZM118.699 122.814C115.709 121.091 113.356 118.714 111.629 115.667L109.889 116.653C111.79 120.006 114.397 122.643 117.7 124.546L118.699 122.814ZM111.633 115.673C109.913 112.587 109.039 109.026 109.039 104.96H107.039C107.039 109.321 107.979 113.226 109.886 116.647L111.633 115.673ZM109.039 104.96C109.039 100.838 109.914 97.2801 111.629 94.253L109.889 93.267C107.978 96.6399 107.039 100.548 107.039 104.96H109.039ZM111.629 94.253C113.354 91.2088 115.704 88.8616 118.688 87.1928L117.711 85.4472C114.402 87.2984 111.791 89.9112 109.889 93.267L111.629 94.253ZM118.692 87.19C121.729 85.4692 125.157 84.6 128.999 84.6V82.6C124.842 82.6 121.07 83.5441 117.706 85.45L118.692 87.19ZM128.999 84.6C132.524 84.6 135.629 85.3901 138.342 86.9473L139.337 85.2127C136.29 83.4633 132.835 82.6 128.999 82.6V84.6ZM138.348 86.9512C141.103 88.5037 143.293 90.7851 144.917 93.8306L146.682 92.8894C144.893 89.5348 142.443 86.9629 139.33 85.2088L138.348 86.9512ZM144.927 93.8482C146.583 96.8104 147.439 100.499 147.439 104.96H149.439C149.439 100.248 148.535 96.203 146.672 92.8718L144.927 93.8482ZM147.439 104.96C147.439 109.369 146.609 113.066 144.997 116.089L146.762 117.031C148.563 113.654 149.439 109.617 149.439 104.96H147.439ZM144.997 116.089C143.372 119.137 141.178 121.449 138.416 123.056L139.422 124.784C142.527 122.978 144.974 120.383 146.762 117.031L144.997 116.089ZM138.422 123.053C135.711 124.609 132.58 125.4 128.999 125.4V127.4C132.885 127.4 136.368 126.538 139.417 124.787L138.422 123.053ZM129.399 122.36C132.54 122.36 135.381 121.657 137.893 120.229L136.905 118.491C134.725 119.729 132.232 120.36 129.399 120.36V122.36ZM137.9 120.226C140.46 118.746 142.457 116.691 143.878 114.078L142.121 113.122C140.875 115.415 139.138 117.2 136.899 118.494L137.9 120.226ZM143.874 114.084C145.354 111.41 146.079 108.359 146.079 104.96H144.079C144.079 108.067 143.418 110.777 142.124 113.116L143.874 114.084ZM146.079 104.96C146.079 101.511 145.355 98.4556 143.87 95.8279L142.129 96.8121C143.417 99.0911 144.079 101.796 144.079 104.96H146.079ZM143.878 95.8425C142.456 93.2253 140.454 91.193 137.885 89.7658L136.914 91.5142C139.145 92.7536 140.876 94.508 142.121 96.7975L143.878 95.8425ZM137.908 89.7791C135.393 88.2928 132.547 87.56 129.399 87.56V89.56C132.225 89.56 134.713 90.2139 136.891 91.5009L137.908 89.7791ZM129.399 87.56C126.301 87.56 123.483 88.2944 120.971 89.7791L121.988 91.5009C124.169 90.2122 126.631 89.56 129.399 89.56V87.56ZM120.985 89.7705C118.474 91.1973 116.48 93.2243 115.009 95.8279L116.75 96.8121C118.052 94.509 119.791 92.7493 121.973 91.5095L120.985 89.7705ZM115.009 95.8279C113.524 98.4556 112.799 101.511 112.799 104.96H114.799C114.799 101.796 115.462 99.0911 116.75 96.8121L115.009 95.8279ZM112.799 104.96C112.799 108.359 113.525 111.41 115.004 114.084L116.754 113.116C115.46 110.777 114.799 108.067 114.799 104.96H112.799ZM115.009 114.092C116.479 116.693 118.468 118.742 120.971 120.221L121.988 118.499C119.798 117.205 118.053 115.414 116.75 113.108L115.009 114.092ZM120.985 120.229C123.496 121.656 126.308 122.36 129.399 122.36V120.36C126.624 120.36 124.157 119.731 121.973 118.491L120.985 120.229ZM146.239 126V113.36H144.239V126H146.239ZM146.237 113.426L146.797 104.946L144.802 104.814L144.242 113.294L146.237 113.426ZM146.795 104.786L145.995 96.3061L144.004 96.4939L144.804 104.974L146.795 104.786ZM145.999 96.4V66.64H143.999V96.4H145.999ZM144.999 67.64H150.679V65.64H144.999V67.64ZM149.679 66.64V126H151.679V66.64H149.679ZM150.679 125H145.239V127H150.679V125ZM192.818 126H191.818V127H192.818V126ZM192.818 116.72H193.818V116.642L193.806 116.564L192.818 116.72ZM192.578 115.2H191.578V115.278L191.59 115.356L192.578 115.2ZM189.538 91.44L188.841 92.1568L188.85 92.166L189.538 91.44ZM172.898 89.92L172.551 88.982L172.551 88.982L172.898 89.92ZM166.658 93.52L165.802 94.0369L166.419 95.0582L167.317 94.2726L166.658 93.52ZM164.098 89.28L163.45 88.5181L162.802 89.0688L163.242 89.7969L164.098 89.28ZM171.778 85.12L172.084 86.072L172.092 86.0696L172.099 86.067L171.778 85.12ZM193.778 87.68L193.098 88.4133L193.105 88.4197L193.112 88.4259L193.778 87.68ZM198.258 126V127H199.258V126H198.258ZM170.098 124.88L169.676 125.787L169.689 125.793L169.702 125.798L170.098 124.88ZM164.818 120.56L163.982 121.109L163.99 121.12L164.818 120.56ZM164.498 108.24L163.636 107.733L163.632 107.741L164.498 108.24ZM169.618 103.92L170.032 104.83L170.041 104.826L169.618 103.92ZM193.698 102.24H194.698V101.24H193.698V102.24ZM193.698 106.48V107.48H194.698V106.48H193.698ZM170.898 108.64L170.229 107.897L170.223 107.902L170.217 107.908L170.898 108.64ZM171.378 119.76L171.989 118.968L171.989 118.968L171.378 119.76ZM187.458 119.76L187.99 120.607L187.995 120.604L187.458 119.76ZM192.578 113.36L193.529 113.05L192.655 110.374L191.645 113.001L192.578 113.36ZM193.858 117.28L194.791 117.639L194.919 117.307L194.809 116.97L193.858 117.28ZM188.258 123.92L187.731 123.07L187.723 123.075L188.258 123.92ZM193.818 126V116.72H191.818V126H193.818ZM193.806 116.564L193.566 115.044L191.59 115.356L191.83 116.876L193.806 116.564ZM193.578 115.2V99.68H191.578V115.2H193.578ZM193.578 99.68C193.578 95.9133 192.504 92.8723 190.226 90.714L188.85 92.166C190.626 93.8477 191.578 96.3 191.578 99.68H193.578ZM190.235 90.7233C188.008 88.5556 184.752 87.56 180.658 87.56V89.56C184.457 89.56 187.122 90.4844 188.841 92.1567L190.235 90.7233ZM180.658 87.56C177.825 87.56 175.12 88.0327 172.551 88.982L173.245 90.858C175.583 89.994 178.052 89.56 180.658 89.56V87.56ZM172.551 88.982C170.001 89.9246 167.811 91.1825 166 92.7674L167.317 94.2726C168.919 92.8709 170.889 91.7288 173.245 90.858L172.551 88.982ZM167.514 93.0031L164.954 88.7631L163.242 89.7969L165.802 94.0369L167.514 93.0031ZM164.746 90.0419C166.767 88.3235 169.208 86.9966 172.084 86.072L171.472 84.168C168.375 85.1634 165.695 86.6098 163.45 88.5181L164.746 90.0419ZM172.099 86.067C174.978 85.0904 178.015 84.6 181.218 84.6V82.6C177.808 82.6 174.552 83.1229 171.457 84.173L172.099 86.067ZM181.218 84.6C186.498 84.6 190.408 85.9185 193.098 88.4133L194.458 86.9467C191.282 84.0015 186.818 82.6 181.218 82.6V84.6ZM193.112 88.4259C195.816 90.8401 197.258 94.6012 197.258 99.92H199.258C199.258 94.2521 197.714 89.8533 194.444 86.9341L193.112 88.4259ZM197.258 99.92V126H199.258V99.92H197.258ZM198.258 125H192.818V127H198.258V125ZM178.338 125.4C175.297 125.4 172.691 124.91 170.495 123.962L169.702 125.798C172.199 126.876 175.086 127.4 178.338 127.4V125.4ZM170.52 123.973C168.365 122.971 166.757 121.641 165.646 120L163.99 121.12C165.333 123.106 167.245 124.656 169.676 125.787L170.52 123.973ZM165.654 120.011C164.542 118.32 163.978 116.38 163.978 114.16H161.978C161.978 116.74 162.641 119.067 163.982 121.109L165.654 120.011ZM163.978 114.16C163.978 112.135 164.445 110.336 165.365 108.739L163.632 107.741C162.524 109.664 161.978 111.812 161.978 114.16H163.978ZM165.36 108.747C166.301 107.148 167.83 105.831 170.032 104.83L169.204 103.01C166.713 104.142 164.829 105.706 163.636 107.733L165.36 108.747ZM170.041 104.826C172.259 103.791 175.296 103.24 179.218 103.24V101.24C175.14 101.24 171.778 101.809 169.195 103.014L170.041 104.826ZM179.218 103.24H193.698V101.24H179.218V103.24ZM192.698 102.24V106.48H194.698V102.24H192.698ZM193.698 105.48H179.378V107.48H193.698V105.48ZM179.378 105.48C175.27 105.48 172.118 106.197 170.229 107.897L171.567 109.383C172.878 108.203 175.38 107.48 179.378 107.48V105.48ZM170.217 107.908C168.465 109.539 167.578 111.592 167.578 114H169.578C169.578 112.141 170.238 110.621 171.58 109.372L170.217 107.908ZM167.578 114C167.578 116.703 168.65 118.918 170.767 120.552L171.989 118.968C170.373 117.722 169.578 116.097 169.578 114H167.578ZM170.767 120.552C172.87 122.174 175.729 122.92 179.218 122.92V120.92C175.988 120.92 173.62 120.226 171.989 118.968L170.767 120.552ZM179.218 122.92C182.572 122.92 185.51 122.164 187.99 120.607L186.926 118.913C184.819 120.236 182.265 120.92 179.218 120.92V122.92ZM187.995 120.604C190.535 118.987 192.374 116.678 193.511 113.719L191.645 113.001C190.649 115.589 189.075 117.546 186.921 118.916L187.995 120.604ZM191.628 113.67L192.908 117.59L194.809 116.97L193.529 113.05L191.628 113.67ZM192.925 116.921C191.941 119.479 190.224 121.525 187.731 123.07L188.785 124.77C191.626 123.009 193.642 120.628 194.791 117.639L192.925 116.921ZM187.723 123.075C185.311 124.601 182.204 125.4 178.338 125.4V127.4C182.473 127.4 185.979 126.545 188.793 124.765L187.723 123.075Z" fill="#DDDDDD" mask="url(#path-1-outside-1_388_13)"/>
</svg>
