<svg width="129" height="360" viewBox="0 0 129 360" fill="none" xmlns="http://www.w3.org/2000/svg">
<path d="M92.0836 283.021C91.9614 281.869 91.8241 280.777 91.7325 279.678C91.5951 278.068 91.4959 276.45 91.3737 274.831C91.1142 271.45 90.8853 268.069 90.5876 264.696C90.3586 262.078 89.977 259.467 89.7786 256.849C89.5191 253.354 89.313 249.85 89.1909 246.347C89.0687 242.699 89.0611 239.05 89.0229 235.402C89 233.647 89.0611 231.891 89.0153 230.136C88.9543 227.686 88.8627 225.228 88.7176 222.778C88.4734 218.702 88.1452 214.634 87.901 210.558C87.7712 208.421 87.8017 206.269 87.6644 204.132C87.5193 201.789 87.3056 199.453 87.0461 197.118C86.6645 193.637 86.3668 190.142 85.7639 186.692C85.2449 183.746 84.329 180.876 83.6344 177.96C82.7033 174.045 82.1079 170.068 81.7874 166.054C81.7187 165.214 81.6195 164.382 81.7339 163.481C82.5125 164.764 83.2452 166.076 84.0771 167.328C84.6953 168.259 85.4433 169.107 86.115 170C86.5195 170.534 86.9469 170.526 87.443 170.152C87.9391 169.778 88.4352 169.404 88.9771 169C91.1677 172.098 93.4269 175.09 96.976 176.846C95.8845 178.204 96.8081 179.487 97.037 180.761C97.3729 182.647 97.8766 184.509 98.2353 186.394C98.7467 189.088 99.2199 191.798 99.6626 194.507C100.121 197.324 100.495 200.155 100.937 202.979C101.097 203.995 101.388 204.994 101.555 206.01C101.807 207.528 102.006 209.055 102.227 210.574C102.479 212.306 102.769 214.039 102.99 215.779C103.265 217.931 103.502 220.099 103.754 222.259C103.799 222.648 103.845 223.045 103.914 223.434C104.624 227.472 105.303 231.51 106.066 235.54C106.379 237.211 106.868 238.844 107.28 240.501C108.043 243.615 108.852 246.721 109.562 249.85C110.34 253.277 111.05 256.727 111.76 260.169C112.058 261.62 112.363 263.085 112.47 264.558C112.531 265.428 112.31 266.367 111.997 267.191C111.829 267.634 111.203 267.901 110.775 268.237C110.455 268.489 110.096 268.71 109.791 268.977C108.554 270.084 107.348 271.237 106.089 272.32C103.983 274.145 101.845 275.923 99.7237 277.724C98.5559 278.716 97.35 279.678 96.228 280.724C95.0831 281.792 93.8619 282.662 92.0912 283.013L92.0836 283.021Z" fill="white"/>
<path d="M10.3774 46.8731L6.85881 34.4856C6.59168 33.5392 6.17189 32.6462 5.62235 31.8295L3.66844 28.9444L2.94336 23.5483L4.79042 14.1756L7.16411 9.2069L13.8272 4.37555L17.7198 2.96355L22.2764 2.16214L32.9084 0.879883L41.2431 4.66558L47.349 13.7558L50.0814 23.8841L48.9366 34.1269L47.8146 38.1874L46.2423 40.584L39.9761 41.164L44.3953 51.2465L32.0383 67.1526L27.4817 54.3453L22.1772 55.7726L15.1477 51.8189L10.3621 46.8807L10.3774 46.8731Z" fill="white"/>
<path d="M57.615 67.1455L54.3483 55.3991L51.9288 49.8198L50.5931 45.9578H47.8225L45.8228 43.5536L43.6934 40.5769L47.6088 37.3789L54.3483 45.1716L60.7366 50.6441L66.1328 55.7655L70.2467 65.4435V73.2515L57.615 67.1455Z" fill="white"/>
<path d="M25.9477 100.377L30.9164 71.9768L33.4733 57.2538L41.2508 51.2471L50.0892 53.1781L64.4306 64.0238L75.0779 79.7085L86.8624 114.154L105.745 150.645L106.814 155.049L109.867 161.719V169.588L117.957 163.856L120.796 163.49L121.651 165.452L112.469 175.923L101.761 177.625L94.388 174.076L86.7174 169.153L53.3482 291.227L37.8696 285.976L21.8262 278.305L29.4968 193.104L36.1676 135.876L35.1753 133.319L36.1676 128.556L26.5125 113.299C24.9097 108.697 24.4059 104.323 25.9477 100.377Z" fill="white"/>
<path d="M52.7446 340.951C50.4701 340.142 48.3177 339.448 46.2264 338.608C45.0434 338.135 43.7306 337.822 42.975 336.586C42.2576 335.425 42.082 334.197 42.1965 332.869C42.3568 331.136 42.3873 329.388 42.5552 327.656C42.7079 326.053 42.9826 324.465 43.1811 322.862C43.3108 321.779 43.3948 320.687 43.5093 319.603C43.8146 316.535 44.1351 313.474 44.4252 310.406C44.5702 308.91 44.6694 307.407 44.7915 305.903C44.8908 304.728 45.0129 303.552 45.0892 302.377C45.2037 300.599 45.2724 298.82 45.4021 297.042C45.5166 295.416 45.6158 293.775 45.8677 292.172C45.9746 291.478 45.738 291.081 45.2571 290.814C43.8375 290.035 42.3949 289.287 40.9371 288.577C38.6856 287.486 36.4264 286.41 34.1443 285.395C32.488 284.662 30.7554 284.09 29.1068 283.357C26.6797 282.273 24.2526 281.182 21.8942 279.945C20.7874 279.365 20.4745 277.976 20.7417 276.732C20.9019 275.976 20.9477 275.19 21.0088 274.412C21.1309 272.755 21.2301 271.099 21.3217 269.443C21.3751 268.466 21.3522 267.481 21.4133 266.512C21.5431 264.299 21.7033 262.093 21.8331 259.879C22.001 257.078 22.1155 254.277 22.3139 251.476C22.5353 248.4 22.8024 245.324 23.0925 242.248C23.413 238.86 23.8023 235.471 24.1076 232.082C24.4816 228.037 24.764 223.984 25.1608 219.939C25.4509 216.985 25.8249 214.031 26.2065 211.085C26.6721 207.521 27.2292 203.956 27.6948 200.392C28.1986 196.538 28.687 192.683 29.1145 188.821C29.4961 185.379 29.7632 181.921 30.1067 178.479C30.3891 175.67 30.7173 172.877 31.0226 170.068C31.3813 166.733 31.7019 163.39 32.0988 160.054C32.3201 158.223 32.6712 156.406 32.9536 154.582C33.5337 150.781 34.1137 146.972 34.6709 143.171C34.9838 141.05 35.2815 138.92 35.4952 136.783C35.541 136.302 35.2052 135.783 35.0449 135.287C34.8388 134.638 34.4496 133.982 34.4648 133.333C34.4877 132.127 34.6022 130.883 34.9533 129.738C35.2357 128.838 34.9609 128.151 34.6862 127.395C33.984 125.495 32.6407 124.014 31.5111 122.388C29.2595 119.137 27.0995 115.824 25.3135 112.268C24.535 110.726 24.3518 109.161 24.3213 107.528C24.245 103.368 24.4739 99.2236 25.3059 95.1326C26.3133 90.1639 27.3437 85.1952 28.3588 80.2264C29.0076 77.0513 29.6487 73.8762 30.2975 70.7088C30.412 70.144 30.4501 69.541 30.6791 69.0373C31.2287 67.8542 30.8241 66.8009 30.4272 65.7095C29.435 63.0076 28.4657 60.2981 27.4964 57.5886C27.1148 56.52 26.6797 56.3521 25.573 56.5811C23.352 57.0467 21.1767 57.3291 19.1541 55.7568C17.8413 54.734 16.269 54.0547 14.9333 53.0625C12.4986 51.2384 10.3233 49.1089 9.29296 46.1704C8.61367 44.2318 8.25494 42.1786 7.78936 40.1713C7.54512 39.1027 7.33142 38.0266 7.19403 36.9428C7.15587 36.6069 7.43064 36.2253 7.56039 35.8666C7.89622 36.1337 8.42286 36.3474 8.53734 36.6833C8.9495 37.9502 9.20137 39.2707 9.54483 40.5605C10.0257 42.3465 10.3768 44.186 11.0637 45.888C11.9185 47.9869 13.3458 49.7806 15.2615 51.0246C17.3299 52.368 19.5052 53.551 21.6499 54.7645C22.6421 55.3217 23.7107 55.2836 24.7258 54.8103C27.0232 53.7494 29.1984 52.5053 31.0455 50.7193C32.3735 49.4371 33.8466 48.3075 35.2204 47.071C35.6021 46.7276 35.9837 46.6512 36.1974 47.071C36.3958 47.4603 36.579 48.2235 36.3806 48.4067C34.3274 50.2919 32.2056 52.0932 30.0914 53.9097C29.6106 54.3219 29.0763 54.6806 28.6336 55.1309C28.481 55.2836 28.4123 55.6804 28.4962 55.8865C29.435 58.2831 30.412 60.6644 31.3584 63.0534C31.4958 63.4045 31.5492 63.7938 31.6408 64.1601C31.7248 64.1754 31.8087 64.183 31.9003 64.1983C32.0759 63.6182 32.2132 63.0229 32.427 62.4581C32.9002 61.1987 33.3581 59.9317 33.9305 58.7182C34.1443 58.2678 34.6785 57.9168 35.2357 58.3365C35.7547 58.7258 35.4265 59.1303 35.251 59.6112C34.7091 61.069 34.1901 62.5497 33.8161 64.0609C32.8925 67.8008 32.0301 71.5483 31.2058 75.3035C30.6181 77.9901 30.1754 80.7149 29.6029 83.4016C29.1221 85.6684 28.481 87.9047 28.0383 90.1792C27.6796 92.0339 27.504 93.9267 27.2369 95.8043C27.0079 97.4529 26.7026 99.0939 26.5576 100.75C26.2676 104.101 25.5654 107.497 26.7637 110.779C27.3285 112.321 28.2673 113.741 29.1526 115.145C30.3815 117.106 31.7248 118.984 32.9918 120.923C33.6939 121.999 34.3351 123.113 35.022 124.205C35.2891 124.632 35.5715 125.067 35.8845 125.456C37.037 126.899 36.7775 128.548 36.6401 130.196C36.5485 131.257 36.5408 132.326 36.5561 133.387C36.5561 133.661 36.724 133.997 36.9225 134.188C37.8231 135.058 37.8155 136.111 37.701 137.233C37.5941 138.287 37.6323 139.355 37.4873 140.401C37.3423 141.492 37.0522 142.568 36.8309 143.66C36.5027 145.301 36.1134 146.942 35.8616 148.598C35.4494 151.33 35.1212 154.071 34.7625 156.811C34.5564 158.39 34.3351 159.978 34.1595 161.566C33.8466 164.42 33.5489 167.275 33.2589 170.129C32.9154 173.533 32.5872 176.937 32.2514 180.334C31.9843 183.104 31.7248 185.875 31.4424 188.646C31.1752 191.317 30.9157 193.988 30.6028 196.652C30.3967 198.423 30.0762 200.186 29.8395 201.949C29.6564 203.3 29.5419 204.666 29.3511 206.017C29.1145 207.696 28.7939 209.368 28.5649 211.047C28.2367 213.436 27.9467 215.832 27.6643 218.229C27.4277 220.175 27.1987 222.122 27.0079 224.068C26.8629 225.579 26.7942 227.09 26.6797 228.602C26.5042 230.868 26.3133 233.135 26.1378 235.402C26.0157 236.944 25.9241 238.486 25.7791 240.027C25.6722 241.134 25.489 242.241 25.3746 243.347C25.2219 244.843 25.0998 246.347 24.9777 247.851C24.7105 251.056 24.4358 254.262 24.1992 257.467C24.0465 259.46 23.9397 261.452 23.8328 263.451C23.5809 268.1 23.3443 272.755 23.0848 277.403C23.0543 278.014 23.1688 278.403 23.8099 278.686C26.2523 279.754 28.6489 280.93 31.0836 282.006C33.839 283.219 36.6401 284.326 39.3801 285.57C41.6928 286.616 44.0054 287.692 46.1959 288.959C47.6079 289.768 49.0657 289.829 50.493 289.623C51.1265 289.531 51.676 288.6 52.195 287.99C53.0575 286.967 52.7522 285.692 52.7904 284.525C52.8667 281.96 52.9125 279.38 52.8438 276.816C52.7904 274.663 52.508 272.519 52.4164 270.359C52.34 268.596 52.4164 266.817 52.4011 265.054C52.3782 262.658 52.3171 260.253 52.3095 257.857C52.3095 256.437 52.3858 255.025 52.4087 253.605C52.4393 251.43 52.5232 249.255 52.4545 247.08C52.3629 244.195 52.2637 241.302 51.9355 238.432C51.7371 236.654 51.6837 234.898 51.676 233.12C51.676 231.25 51.3097 229.388 51.2562 227.51C51.1723 224.511 51.241 221.511 51.2028 218.504C51.1799 216.901 51.0425 215.298 51.0196 213.695C50.9738 210.093 51.0044 206.483 50.9204 202.88C50.8746 200.827 50.5922 198.774 50.5541 196.713C50.5159 194.133 50.6456 191.546 50.6609 188.958C50.6685 187.31 50.5922 185.654 50.5769 184.005C50.5617 182.288 50.5998 180.563 50.5769 178.845C50.5464 176.922 50.493 175.006 50.4014 173.091C50.3174 171.404 49.9969 169.709 50.0656 168.03C50.203 164.916 50.5464 161.81 50.8212 158.703C51.1112 155.421 51.3784 152.14 51.7447 148.865C52.1569 145.171 52.7522 141.492 53.1186 137.79C53.4391 134.531 53.4849 131.257 53.0041 127.983C52.6988 125.891 52.6072 123.77 52.4087 121.655C52.3935 121.51 52.3324 121.373 52.2943 121.228C51.7066 118.664 50.0427 117.023 47.7835 115.824C45.3029 114.511 43.1277 112.794 40.96 110.985C38.6779 109.077 38.4108 106.558 37.8918 104.047C37.3881 101.582 36.9606 99.1015 36.6095 96.6057C36.3424 94.7129 36.2813 92.7971 36.0676 90.8966C35.77 88.2482 35.4112 85.6073 35.0754 82.9665C34.6938 79.9135 33.8237 76.9369 33.8542 73.8075C33.8848 70.1211 34.3045 66.5033 35.0144 62.9084C35.1212 62.3741 35.0754 61.7864 35.2891 61.2979C35.4418 60.9545 35.9074 60.756 36.2355 60.4965C36.4264 60.84 36.7851 61.1911 36.7698 61.5269C36.7011 62.855 36.5256 64.1754 36.3729 65.4958C36.2355 66.6865 35.9684 67.8695 35.9531 69.0602C35.9226 71.6018 35.9455 74.151 36.1058 76.685C36.205 78.2496 36.6401 79.7914 36.869 81.356C37.1972 83.6534 37.5178 85.9508 37.762 88.2634C38.0979 91.3927 38.5177 94.5297 38.594 97.6742C38.6474 99.9182 39.2351 102.025 39.6015 104.185C39.8152 105.467 40.0441 106.795 40.5861 107.948C40.9982 108.833 41.7996 109.634 42.6087 110.214C45.2877 112.13 48.0506 113.924 50.7907 115.756C51.4318 116.183 52.1187 116.542 52.7293 117C53.0957 117.274 53.3704 117.687 53.7368 118.099C54.1718 117.9 54.2329 117.587 53.9505 117.122C53.2407 115.954 52.4622 114.824 51.8745 113.603C49.6076 108.917 47.3331 104.231 45.1884 99.4908C43.7612 96.3309 42.5171 93.0795 41.2653 89.8433C40.9295 88.9809 40.8074 88.0192 40.7158 87.088C40.6853 86.7598 41.044 86.3858 41.2272 86.0347C41.5172 86.2561 41.9217 86.424 42.0667 86.7217C42.4178 87.4239 42.6392 88.1871 42.9216 88.9198C43.4024 90.1639 43.9062 91.408 44.3794 92.6521C44.9137 94.0794 45.4021 95.5295 45.9593 96.9492C46.2341 97.6514 46.6157 98.3077 46.9515 98.987C48.1575 101.468 49.3023 103.971 50.5693 106.413C52.2408 109.627 53.9734 112.817 55.7594 115.969C57.8736 119.709 60.0412 123.419 62.2546 127.097C64.9947 131.646 67.8187 136.149 70.574 140.691C72.8866 144.492 75.1458 148.323 77.4356 152.139C79.5116 155.605 81.5571 159.085 83.6866 162.52C84.6712 164.107 85.7931 165.611 86.8998 167.122C87.0067 167.267 87.5333 167.298 87.7165 167.168C88.8003 166.412 89.7925 165.534 90.8916 164.809C93.0211 163.397 95.1887 162.046 97.3487 160.68C98.1577 160.169 98.2875 159.726 97.8448 158.818C96.8144 156.696 95.7764 154.574 94.7765 152.437C93.5706 149.865 92.3876 147.278 91.1969 144.698C90.4108 142.996 89.5788 141.324 88.8614 139.592C87.3272 135.882 85.8389 132.15 84.3811 128.41C83.9308 127.258 83.6866 126.036 83.2973 124.853C82.5493 122.579 81.7861 120.305 81.0076 118.038C80.5878 116.809 80.1375 115.588 79.7177 114.351C79.649 114.153 79.5574 113.916 79.6108 113.733C79.6795 113.504 79.8398 113.206 80.0306 113.13C80.1833 113.069 80.5496 113.214 80.6565 113.382C81.0763 113.992 81.519 114.611 81.809 115.29C83.9308 120.274 85.4802 125.472 87.2128 130.601C88.0829 133.18 89.3422 135.623 90.4718 138.111C91.8304 141.111 93.2195 144.095 94.6468 147.064C95.7459 149.354 96.9823 151.575 98.028 153.887C98.9591 155.948 99.7911 158.062 100.509 160.207C100.814 161.123 100.287 161.993 99.4705 162.565C98.9591 162.924 98.4172 163.252 97.8753 163.603C99.4705 164.909 101.127 165.252 103.035 164.626C104.241 164.229 105.5 163.97 106.76 163.802C107.691 163.672 108.652 163.779 109.645 163.779C108.958 160.39 107.607 157.284 105.439 154.452C104.531 155.086 103.691 155.75 102.775 156.284C102.34 156.536 101.753 156.658 101.256 156.62C100.982 156.597 100.585 156.139 100.539 155.834C100.493 155.536 100.745 155.07 101.005 154.872C101.852 154.246 102.768 153.712 103.653 153.139C104.439 152.628 104.737 151.933 104.34 151.063C103.348 148.903 102.378 146.728 101.302 144.606C99.8521 141.759 98.2493 138.989 96.8297 136.127C94.6239 131.677 92.5097 127.174 90.365 122.693C90.1436 122.228 90.0291 121.717 89.7696 121.274C89.1819 120.259 88.5103 119.297 87.9379 118.282C87.1364 116.832 86.2663 115.404 85.6481 113.87C84.3277 110.596 83.1523 107.261 81.9006 103.956C81.2747 102.315 80.5573 100.704 79.9848 99.0481C79.3895 97.3308 78.9544 95.5677 78.4049 93.8351C77.5959 91.324 76.8402 88.7977 75.8938 86.34C74.8863 83.7297 73.9247 81.0508 72.4669 78.6923C71.6196 77.3261 71.3067 75.853 70.6198 74.4868C69.8718 73.0061 69.2383 71.4644 68.4598 69.9989C67.9408 69.0144 67.2768 68.1061 66.6357 67.1978C66.2693 66.6712 66.0403 66.0911 66.567 65.6484C67.1165 65.1981 67.5668 65.6255 67.9255 66.1064C68.7651 67.2284 69.6199 68.3427 70.4061 69.3807C69.8794 66.2209 68.8338 63.061 67.3226 60.1378C65.8037 57.2069 64.2009 54.2379 61.5219 52.0856C59.6443 50.5743 57.7744 49.0555 55.9273 47.4984C54.7061 46.4757 53.5307 45.3843 52.2103 44.2165C51.7371 44.7202 51.157 45.3461 50.5922 45.9567C51.3707 47.2771 52.1416 48.567 52.8896 49.8721C53.607 51.1391 54.4161 52.368 54.958 53.7036C55.7976 55.7873 57.3088 57.268 58.904 58.7182C59.7054 59.4585 60.522 60.1836 61.27 60.9774C61.4837 61.2064 61.4685 61.649 61.5601 61.9925C61.1479 61.9467 60.6518 62.0307 60.3465 61.8246C59.5985 61.3208 58.9574 60.6415 58.2323 60.0996C56.2479 58.6266 54.294 57.0848 52.2103 55.7644C50.6991 54.8027 49.0352 54.0089 47.356 53.3831C45.5777 52.7267 43.7917 52.7725 42.021 53.8105C40.3418 54.7951 38.6169 55.6575 37.2507 57.0848C37.0828 57.2527 36.6095 57.1306 36.2813 57.1382C36.3195 56.7566 36.2127 56.1918 36.4264 56.0163C37.7239 54.9325 39.0901 53.925 40.4487 52.9099C41.0822 52.4367 41.7767 52.0474 42.4026 51.5589C43.0971 51.0094 42.8605 50.3301 42.5552 49.6661C41.853 48.1548 41.1585 46.6512 40.4563 45.14C39.922 43.9875 39.3572 42.8503 38.8764 41.6749C38.7314 41.3162 38.7466 40.8506 38.8306 40.4613C39.0825 39.2478 39.403 38.0418 39.7007 36.8359C39.7694 36.5688 39.7846 36.2558 39.9373 36.0574C40.1052 35.8513 40.4181 35.63 40.6471 35.6452C40.8685 35.6605 41.1814 35.9276 41.2577 36.1566C41.4104 36.5688 41.418 37.0343 41.4867 37.4847C44.4633 36.5459 46.3867 33.3097 44.5855 30.6307C43.7001 29.3103 41.9752 29.2416 40.9753 30.501C40.8074 30.7147 40.6242 30.9131 40.4258 31.1344C39.7999 30.8978 39.4793 30.6078 39.8152 29.898C40.0594 29.3713 39.922 29.0126 39.2733 28.715C37.4796 27.9059 35.7547 26.9519 33.984 26.097C33.6863 25.952 33.2665 26.0741 32.9231 25.9902C32.3659 25.8528 31.7248 25.7688 31.2897 25.4406C29.6335 24.2042 27.7483 23.6088 25.7638 23.2425C25.6341 23.2196 25.4967 23.2883 25.3593 23.3188C25.3211 23.418 25.2753 23.5096 25.2372 23.6088C26.2447 24.166 27.2369 24.7537 28.2673 25.2651C28.687 25.4712 29.229 25.4406 29.6411 25.6543C29.9693 25.8223 30.1983 26.1962 30.4654 26.4786C30.1067 26.6847 29.7403 27.0816 29.3816 27.074C27.1835 27.0282 24.3365 25.6009 22.8711 23.8912C22.5429 23.9752 22.1918 24.1355 21.8484 24.1202C21.6041 24.1126 21.2988 23.9141 21.1538 23.7157C21.0317 23.5554 20.9859 23.128 21.1004 23.0288C21.7415 22.4563 21.1538 22.0289 20.9019 21.6931C19.3449 19.6247 18.2916 17.2968 17.4521 14.8849C17.0628 13.763 17.0246 12.5036 16.9254 11.3053C16.9025 11.0076 17.2612 10.6795 17.4521 10.3589C17.7345 10.6337 18.2306 10.8932 18.2535 11.1908C18.4748 13.7324 19.6655 15.8924 20.8714 18.0371C21.5507 19.2507 22.4055 20.3727 23.2527 21.4794C23.4283 21.7084 23.9549 21.8076 24.2907 21.7694C26.1073 21.5328 27.7635 21.9755 29.3511 22.8074C29.8243 23.0517 30.2975 23.2806 30.9005 23.5783C30.1448 22.5785 29.4503 21.7465 28.8473 20.8612C27.6261 19.0599 26.55 17.1518 25.2219 15.4345C24.3442 14.3049 23.1153 13.45 22.0773 12.4426C21.6499 12.0228 20.6882 11.7098 21.3141 10.8855C21.9171 10.0918 22.5811 10.771 23.123 11.1374C25.4585 12.7326 27.1377 14.9536 28.5497 17.3273C30.6486 20.8688 33.4039 23.7081 36.869 25.8757C37.7086 26.4023 38.7772 26.5702 39.5862 27.1274C40.7998 27.9593 42.1431 28.0128 43.4864 28.0967C44.326 28.1502 44.9823 28.4784 45.4174 29.1424C47.7911 32.7449 46.9897 36.897 43.1582 39.0722C42.8224 39.263 42.4102 39.3164 42.021 39.3851C41.2348 39.5149 40.8379 39.9576 40.7998 40.8582C41.0593 40.9345 41.3569 41.1101 41.6546 41.1024C43.3643 41.049 45.0968 40.7819 46.5088 39.8736C47.1805 39.4386 47.7606 38.141 47.6384 37.3549C47.4553 36.1719 47.8751 35.1797 48.0201 34.1187C48.333 31.9359 49.1649 29.7911 49.1955 27.6235C49.2336 24.6316 49.1955 21.6015 48.3864 18.6401C47.4858 15.3505 46.0967 12.3281 44.1886 9.50405C42.5094 7.00824 40.235 5.36726 37.5712 4.01631C33.4115 1.90975 29.1221 2.07767 24.7411 2.673C23.9626 2.77985 23.2222 3.13095 22.4513 3.2378C22.0544 3.29123 21.3675 3.19964 21.2378 2.9554C20.9554 2.40586 21.4896 2.03187 21.9705 1.92502C23.7412 1.52813 25.5196 1.05492 27.3208 0.871739C29.1832 0.68856 31.1142 0.558808 32.9383 0.871739C35.0067 1.22283 37.037 1.95555 38.9909 2.75696C42.1583 4.05448 44.1657 6.63425 46.0509 9.38193C48.7604 13.3432 50.0732 17.7624 50.6991 22.4334C51.2715 26.6847 50.5846 30.8215 49.4855 34.9278C49.2107 35.9429 49.3558 37.0725 49.3252 38.1487C49.3252 38.2937 49.371 38.4692 49.4702 38.5761C51.1646 40.4995 52.7675 42.5297 54.6145 44.2928C56.1792 45.7888 58.0186 47.01 59.7588 48.3075C62.9263 50.6659 65.6663 53.3754 67.5897 56.9016C69.2154 59.8859 70.6351 62.9237 71.322 66.259C71.7494 68.358 72.3142 70.4798 72.3829 72.6016C72.4516 74.8685 73.6728 76.5552 74.5429 78.4404C75.0161 79.4556 75.4664 80.4859 75.9015 81.5163C76.3518 82.562 76.8097 83.6153 77.2142 84.6762C78.1378 87.1109 79.0537 89.5533 79.9314 92.0033C80.5802 93.8275 81.1831 95.6669 81.7861 97.5063C82.6333 100.094 83.4042 102.704 84.3048 105.269C85.236 107.917 86.1824 110.565 87.3044 113.13C87.915 114.534 88.8843 115.786 89.701 117.107C89.9376 117.496 90.2429 117.847 90.4337 118.251C91.9907 121.686 93.4256 125.174 95.0818 128.563C97.0128 132.501 99.1041 136.363 101.173 140.24C102.356 142.454 103.615 144.629 104.828 146.827C105.599 148.224 106.34 149.644 107.103 151.048C107.37 151.544 107.538 152.002 107.164 152.567C107.027 152.773 107.08 153.216 107.21 153.475C108.149 155.33 109.179 157.139 110.087 159.009C111.133 161.176 111.69 163.436 110.95 165.847C110.881 166.076 110.866 166.328 110.843 166.565C110.843 166.611 110.889 166.664 111.003 166.863C111.179 166.305 111.263 165.832 111.469 165.42C111.957 164.458 112.446 163.497 113.041 162.596C113.423 162.024 114.01 161.596 114.468 161.069C115.071 160.367 115.835 160.238 116.697 160.337C117.422 160.421 117.758 161.36 117.598 162.52C117.544 162.932 117.369 163.321 117.247 163.718C118.201 163.336 119.078 162.878 120.009 162.649C120.46 162.543 121.07 162.779 121.521 163.016C122.696 163.634 122.826 165.122 122.009 166.137C121.002 167.382 120.193 168.778 119.193 170.03C118.124 171.373 116.979 172.656 115.773 173.877C115.544 174.113 114.903 173.953 114.461 173.968C114.522 173.564 114.461 173.068 114.674 172.77C116.499 170.244 118.384 167.756 120.223 165.244C120.368 165.046 120.33 164.718 120.376 164.451C120.093 164.428 119.689 164.267 119.544 164.39C118.804 165.038 118.086 165.725 117.453 166.473C116.995 167.023 116.682 167.687 116.3 168.297C116.193 168.473 116.086 168.74 115.934 168.786C115.071 169.03 114.896 169.809 114.529 170.45C114.369 170.74 114.239 171.083 114.003 171.297C113.568 171.679 113.102 171.877 112.621 171.266C112.446 171.037 112.011 170.786 111.797 170.854C109.713 171.534 107.599 171.556 105.439 171.389C103.989 171.274 103.012 170.747 102.149 169.534C101.547 168.687 100.44 168.221 99.5926 167.534C98.7225 166.832 97.8524 166.115 97.0663 165.321C96.0283 164.283 94.891 164.55 93.8606 165.099C92.5784 165.794 91.4106 166.71 90.136 167.572C92.1204 170.061 93.8988 172.396 96.3412 174.167C98.1043 175.449 100.02 176.243 102.127 176.663C102.356 176.708 102.623 176.731 102.829 176.663C104.699 175.96 106.653 175.793 108.614 175.579C109.95 175.434 111.247 174.938 112.553 174.556C113.537 174.266 114.132 174.548 114.087 175.396C114.071 175.663 113.858 176.052 113.636 176.144C111.728 176.945 109.759 177.464 107.668 177.54C106.439 177.586 105.172 177.708 103.997 178.052C102.378 178.525 100.905 178.128 99.3942 177.708C99.0049 177.601 98.6157 177.464 98.1043 177.304C98.6004 179.609 99.1041 181.769 99.5316 183.944C100.509 188.928 101.447 193.92 102.409 198.904C102.814 201.018 103.279 203.117 103.645 205.231C104.103 207.91 104.477 210.612 104.897 213.298C105.325 216.054 105.76 218.801 106.202 221.557C106.63 224.205 107.034 226.846 107.507 229.487C107.775 230.99 108.164 232.464 108.484 233.959C109.103 236.829 109.706 239.699 110.324 242.569C110.438 243.118 110.614 243.653 110.721 244.202C111.133 246.24 111.515 248.293 111.934 250.331C112.27 251.957 112.598 253.59 113.018 255.201C113.774 258.093 114.651 260.956 115.354 263.863C115.735 265.466 115.773 267.145 116.109 268.764C116.384 270.092 116.75 271.427 117.277 272.671C118.3 275.083 119.468 277.434 120.559 279.823C120.704 280.151 120.742 280.525 120.834 280.876C121.505 283.319 122.238 285.738 122.826 288.196C123.207 289.814 123.322 291.493 123.665 293.119C124.017 294.76 124.52 296.363 124.925 297.988C125.627 300.835 126.344 303.674 126.955 306.544C127.054 306.995 126.604 307.559 126.436 308.078C126.36 308.307 126.268 308.597 126.352 308.788C126.703 309.658 127.115 310.505 127.512 311.36C128.046 312.505 127.688 313.276 126.596 313.879C125.894 314.268 125.39 314.986 124.734 315.474C123.933 316.07 123.062 316.581 122.124 317.191C122.673 318.245 123.261 319.298 123.795 320.382C124.375 321.557 124.841 322.786 125.482 323.923C126.1 325.022 126.818 326.099 127.619 327.068C128.237 327.823 128.26 328.442 127.734 329.19C125.948 331.724 124.169 334.258 122.383 336.792C121.643 337.837 121.124 337.883 120.177 337.013C120.055 336.899 119.849 336.738 119.742 336.776C118.201 337.257 117.521 335.975 116.605 335.235C116.239 334.945 115.995 334.502 115.644 334.052C114.728 335.021 113.865 335.952 112.98 336.868C112.514 337.349 112.049 337.837 111.522 338.242C110.24 339.234 109.828 340.631 109.507 342.119C109.339 342.905 109.141 343.752 108.698 344.386C107.752 345.752 106.706 347.08 105.569 348.294C104.409 349.53 102.699 349.607 101.165 349.767C98.8294 350.011 96.4709 349.988 94.1201 350.042C93.0974 350.064 92.067 349.927 91.0519 350.011C89.3957 350.156 88.7316 348.66 88.64 347.393C88.5942 346.676 88.4416 345.806 89.5025 345.5C89.1285 344.6 89.533 344.035 90.2734 343.6C91.6549 342.791 93.1661 342.134 94.372 341.112C95.7993 339.89 97.3563 338.639 97.6998 336.578C97.9058 335.357 97.9974 334.12 98.2188 332.907C98.6538 330.48 99.1423 328.068 99.6003 325.648C99.8445 324.374 100.073 323.099 100.295 321.908C98.8065 322.008 97.3258 322.107 95.784 322.214C95.784 324.023 95.7688 325.885 95.784 327.747C95.7993 329.35 95.868 330.953 95.8756 332.556C95.8756 333.494 95.8222 334.433 95.7459 335.364C95.6466 336.517 95.0131 337.395 94.0057 337.868C93.2043 338.242 92.3036 338.463 91.4259 338.639C90.2505 338.875 89.0598 339.005 87.8768 339.165C86.8693 339.303 85.8618 339.417 84.8543 339.547C83.9537 339.661 83.4652 340.173 83.4271 341.081C83.2668 344.424 83.2897 347.752 83.6102 351.095C83.7782 352.805 83.2897 354.446 82.6333 356.048C81.9006 357.85 80.1985 358.269 78.6797 358.636C76.1839 359.246 73.6346 359.804 71.009 359.33C70.7495 359.285 70.4671 359.384 70.2 359.43C69.017 359.636 68.3835 359.086 68.4522 357.872C68.4903 357.216 68.559 356.56 68.6277 355.774C67.6431 355.72 66.7425 355.606 65.8495 355.644C63.1476 355.743 60.4534 355.888 57.7515 356.025C55.2099 356.155 52.7751 356.743 50.3938 357.666C48.8139 358.277 47.0202 358.392 45.5166 359.117C43.6696 360.01 42.0057 359.33 40.296 359.033C38.4795 358.712 36.6782 358.246 34.8999 357.72C32.5338 357.01 30.6867 355.537 29.4427 353.415C29.0305 352.713 28.8626 351.805 28.8168 350.98C28.771 350.141 29.4885 349.683 30.2364 349.53C33.4879 348.889 36.7546 348.332 40.006 347.676C42.4636 347.179 44.8908 346.706 46.8828 344.859C48.1804 343.653 49.8671 342.875 51.3784 341.905C51.8287 341.615 52.2637 341.302 52.8133 340.928L52.7446 340.951ZM92.0823 283.013C93.853 282.662 95.0818 281.792 96.2191 280.724C97.341 279.67 98.5393 278.716 99.7147 277.724C101.837 275.923 103.974 274.137 106.08 272.32C107.34 271.229 108.546 270.084 109.782 268.977C110.087 268.702 110.446 268.489 110.767 268.237C111.194 267.901 111.82 267.626 111.988 267.191C112.301 266.367 112.522 265.428 112.461 264.558C112.362 263.085 112.049 261.62 111.751 260.169C111.049 256.727 110.332 253.277 109.553 249.85C108.843 246.721 108.034 243.615 107.271 240.501C106.866 238.852 106.378 237.211 106.057 235.539C105.294 231.517 104.615 227.472 103.905 223.434C103.836 223.045 103.79 222.656 103.745 222.259C103.493 220.099 103.264 217.939 102.981 215.779C102.76 214.039 102.47 212.306 102.218 210.574C101.997 209.055 101.798 207.528 101.547 206.009C101.379 204.994 101.089 203.994 100.928 202.979C100.486 200.155 100.104 197.324 99.6537 194.507C99.2186 191.798 98.7454 189.088 98.2264 186.394C97.8677 184.509 97.3563 182.654 97.0281 180.761C96.8068 179.487 95.8756 178.204 96.9671 176.846C93.418 175.09 91.1588 172.098 88.9682 169C88.4263 169.404 87.9302 169.778 87.4341 170.152C86.938 170.526 86.5106 170.534 86.1061 169.999C85.4344 169.099 84.6864 168.259 84.0682 167.328C83.2363 166.076 82.5035 164.764 81.725 163.481C81.6029 164.382 81.7098 165.222 81.7785 166.053C82.099 170.068 82.6944 174.045 83.6255 177.96C84.3201 180.876 85.236 183.746 85.755 186.692C86.3579 190.134 86.6556 193.637 87.0372 197.118C87.2891 199.453 87.5028 201.789 87.6554 204.132C87.7928 206.269 87.7623 208.421 87.8921 210.558C88.1363 214.634 88.4645 218.702 88.7087 222.778C88.8537 225.228 88.9453 227.678 89.0064 230.136C89.0522 231.891 88.9988 233.647 89.014 235.402C89.0522 239.05 89.0598 242.699 89.1819 246.347C89.3041 249.85 89.5101 253.354 89.7696 256.849C89.9681 259.467 90.3497 262.077 90.5787 264.695C90.8763 268.069 91.113 271.458 91.3648 274.831C91.4869 276.449 91.5862 278.067 91.7235 279.678C91.8151 280.777 91.9525 281.868 92.0746 283.021L92.0823 283.013ZM81.5037 339.86C80.8397 340.081 80.2978 340.257 79.7711 340.44C78.2599 340.982 76.7868 341.661 75.2374 342.043C72.4363 342.722 69.597 342.501 66.7578 342.15C65.2313 341.959 63.6743 342.05 62.1478 341.883C60.3312 341.684 58.5376 341.318 56.7211 341.066C56.0952 340.982 55.3549 340.829 54.8282 341.066C54.1108 341.394 53.5689 342.096 52.9049 342.577C50.9357 344.004 48.9741 345.439 46.9515 346.798C45.9059 347.5 44.8144 348.286 43.6314 348.599C41.4409 349.172 39.1588 349.408 36.9225 349.82C35.0678 350.164 33.2284 350.568 31.3813 350.927C30.4196 351.11 30.2899 351.469 30.6868 352.408C32.0224 355.606 35.2357 355.964 37.8765 357.102C39.1512 357.651 40.67 357.682 42.0896 357.857C42.7308 357.941 43.4406 357.934 44.0588 357.75C46.7912 356.934 49.4702 355.957 52.2179 355.186C56.3776 354.018 60.6747 353.949 64.9489 353.698C67.1699 353.568 69.3757 354.094 71.6425 353.415C74.0239 352.705 76.6342 352.736 78.7026 351.064C78.8171 350.973 78.985 350.95 79.13 350.912C79.9009 350.729 80.7099 351.469 80.5954 352.255C80.4428 353.301 79.5345 353.461 78.7789 353.652C76.0083 354.377 73.2148 355.033 70.4213 355.682C69.7497 355.835 69.826 356.27 69.8718 356.72C69.91 357.163 69.9787 357.506 70.6045 357.521C73.2301 357.582 75.8175 357.3 78.382 356.712C79.4429 356.468 80.2901 355.819 80.7328 354.926C81.1526 354.087 81.3205 353.056 81.351 352.11C81.4655 348.652 81.4732 345.195 81.5266 341.73C81.5342 341.165 81.5266 340.593 81.5266 339.852L81.5037 339.86ZM89.8078 346.149C89.8078 346.149 89.8536 346.416 89.9147 346.645C90.281 348.111 90.281 348.088 91.7541 348.126C93.3874 348.164 95.0208 348.172 96.6465 348.332C98.1501 348.477 99.5621 348.546 101.111 348.202C103.165 347.752 104.516 346.706 105.668 345.103C106.531 343.897 107.439 342.821 107.576 341.18C107.721 339.471 108.607 337.975 109.95 336.776C110.828 335.998 111.568 335.067 112.423 334.25C114.674 332.082 116.926 329.922 119.216 327.801C120.452 326.656 121.597 325.45 122.177 323.855C122.345 323.389 122.345 322.756 122.169 322.305C121.643 320.954 120.948 319.664 120.399 318.313C120.124 317.642 119.788 317.672 119.216 317.871C118.017 318.291 116.811 318.81 115.567 318.97C112.873 319.321 110.148 319.413 107.454 319.741C105.813 319.947 104.21 320.42 102.585 320.741C102.05 320.847 101.943 321.191 101.882 321.641C101.669 323.114 101.432 324.58 101.203 326.053C100.73 329.052 100.264 332.052 99.7605 335.044C99.4629 336.815 99.4323 338.646 98.028 340.104C96.5931 341.585 95.4177 343.317 93.3645 344.081C92.7539 344.31 92.212 344.729 91.6396 345.073C91.0672 345.409 90.4947 345.76 89.8154 346.164L89.8078 346.149ZM73.0011 148.88C71.9707 147.087 70.9404 145.286 69.9023 143.492C68.1774 140.508 66.4601 137.523 64.7199 134.554C64.1246 133.539 63.43 132.577 62.8194 131.57C62.4378 130.929 61.9798 130.853 61.3845 131.227C59.9649 132.112 58.5987 133.089 57.1103 133.837C55.767 134.509 55.4083 135.646 55.2633 136.913C55.0801 138.531 55.0496 140.172 54.8969 141.798C54.6374 144.499 54.3245 147.194 54.0421 149.896C53.8589 151.628 53.6834 153.353 53.4925 155.086C53.3704 156.192 53.2178 157.291 53.0499 158.65C59.5375 154.582 66.1624 151.506 73.0011 148.88ZM53.2636 54.3371C53.3246 54.2837 53.3933 54.2226 53.4544 54.1692C53.1415 53.551 52.8667 52.9022 52.5003 52.3222C51.4852 50.7346 50.409 49.1852 49.4092 47.59C49.0276 46.9871 48.6154 46.6589 47.8674 46.7505C47.5774 46.781 47.2263 46.6207 46.9515 46.4604C45.8143 45.8117 45.7914 44.4455 45.1045 43.499C45.0663 43.4456 45.4403 42.9266 45.5624 42.9495C47.3179 43.2701 48.2338 42.2244 49.081 40.9498C49.5389 40.2629 49.4397 39.8049 48.7452 39.4004C48.6917 39.4615 48.623 39.5225 48.5696 39.5912C46.2264 43.0793 45.7456 42.7129 41.8683 42.545C41.7004 42.545 41.5401 42.5679 41.2577 42.5908C41.6622 43.4074 42.0286 44.1325 42.3873 44.8576C43.1964 46.5139 43.9672 48.193 44.8221 49.8264C45.1197 50.3835 45.5166 51.0628 46.0433 51.2994C47.8293 52.0856 49.6916 52.6809 51.5081 53.3907C52.1187 53.6349 52.6759 54.0166 53.2559 54.3295L53.2636 54.3371ZM53.92 120.137C54.5687 124.281 55.2022 128.296 55.8357 132.295C57.0187 131.478 58.1255 130.738 59.2093 129.96C60.9266 128.731 60.8808 128.754 59.8504 127.021C58.675 125.052 57.6599 122.976 56.4387 121.037C55.2327 119.129 55.4007 119.48 53.9276 120.137H53.92ZM120.208 335.922C120.109 335.983 120.17 335.96 120.208 335.922C122.124 333.426 124.039 330.93 125.94 328.419C126.024 328.312 126.093 328.106 126.047 328.007C125.566 327.076 125.055 326.16 124.619 325.351C121.971 327.938 119.361 330.487 116.621 333.166C117.819 334.082 118.987 334.983 120.216 335.922H120.208ZM101.768 166.901C102.821 168.099 104.592 168.526 106.012 167.969C107.332 167.458 108.202 166.405 108.187 165.435C106.088 165.916 103.974 166.397 101.776 166.901H101.768ZM116.063 162.398C113.568 164.008 112.713 166.473 112.026 169.045C112.346 169.076 112.652 169.168 112.942 169.122C113.186 169.084 113.522 168.931 113.606 168.74C114.316 167.084 114.995 165.405 115.659 163.726C115.827 163.298 115.934 162.84 116.063 162.398ZM46.776 44.6668V44.995C47.1118 45.0484 47.5392 45.2545 47.7758 45.1171C48.8138 44.5371 49.8366 43.8959 50.7983 43.1861C51.3707 42.7663 51.1341 42.3236 50.5235 41.9268C49.7145 43.4838 48.2414 44.0715 46.776 44.6592V44.6668ZM109.126 167.694C108.385 168.236 107.645 168.786 106.813 169.389C109.11 169.77 109.164 169.725 109.126 167.694Z" fill="black"/>
<path d="M65.7654 80.5761C66.086 80.7211 66.4981 80.8662 66.8645 81.0951C67.6353 81.5683 68.3604 82.1102 69.1237 82.5911C70.4594 83.4154 70.3372 84.7969 70.4975 86.0791C70.6196 87.0332 70.6273 88.0254 70.9326 88.9184C71.2226 89.7809 71.1692 90.5594 70.9936 91.3989C70.9173 91.7729 70.9478 92.2538 71.1234 92.582C73.3521 96.5814 75.4281 100.657 77.1301 104.916C77.817 106.641 78.5192 108.358 79.2138 110.076C79.2672 110.213 79.3893 110.396 79.3512 110.495C79.2138 110.846 79.0764 111.251 78.8016 111.465C78.6795 111.564 78.0765 111.327 77.9621 111.106C77.1301 109.473 76.3516 107.816 75.5884 106.153C74.329 103.39 73.1078 100.611 71.8561 97.8484C71.1157 96.2227 70.2685 94.6351 69.6045 92.9789C69.2611 92.1164 69.2916 91.1089 69.0321 90.2007C68.5741 88.5749 68.3833 86.9721 68.8184 85.3006C68.9023 84.9953 68.5283 84.4534 68.223 84.1786C67.4827 83.5222 66.6584 82.9575 65.7425 82.2553C65.8112 82.6369 65.7578 83.0338 65.918 83.1559C66.979 83.9344 66.3836 84.8808 65.9333 85.4685C64.3992 87.4911 63.5672 89.8267 62.5598 92.1011C61.8576 93.6887 61.0104 95.2076 60.2395 96.7646C60.1097 97.0317 60.0792 97.3523 59.9647 97.627C59.6747 98.2911 58.9725 98.5811 58.3543 98.23C57.8276 97.9247 57.8353 97.4133 58.0871 96.9172C59.0794 94.9175 60.0487 92.9025 61.0791 90.9181C61.995 89.155 62.9872 87.4224 63.926 85.6746C64.0099 85.5143 64.0023 85.2854 63.9794 85.0945C63.7352 83.0643 63.4833 81.0264 63.2161 78.9962C62.8956 76.5385 62.5598 74.0733 62.2163 71.6156C62.0636 70.5089 61.8576 69.4098 61.7202 68.3031C61.5065 66.6392 60.2242 65.647 59.2778 64.4716C56.5683 61.1362 52.8665 59.2129 49.0427 57.4803C48.9892 57.4574 48.9053 57.4498 48.8748 57.4116C48.5237 56.9002 48.1726 56.3888 47.8291 55.8698C48.3481 55.8393 48.9053 55.679 49.3861 55.8088C50.073 55.992 50.7218 56.3507 51.3553 56.6789C52.5612 57.3124 53.8435 57.8466 54.9273 58.6481C56.7057 59.9608 58.4001 61.411 60.041 62.8993C60.9798 63.7542 61.7889 64.7617 62.575 65.7615C62.888 66.1584 63.094 66.7079 63.1932 67.2193C64.071 71.6614 64.9106 76.1111 65.7654 80.5685V80.5761Z" fill="black"/>
<path d="M5.1871 30.9825C5.1642 31.2344 5.20999 31.4633 5.11077 31.5778C4.8818 31.8679 4.62229 32.2495 4.30936 32.3105C4.11092 32.3563 3.65297 31.9518 3.56901 31.6694C3.15686 30.1887 2.69128 28.708 2.4852 27.1891C1.82118 22.4265 2.47757 17.7707 4.19488 13.3057C5.88165 8.9323 8.89647 5.68087 13.1554 3.67353C14.1018 3.22322 15.1017 2.84159 16.1168 2.58972C16.6968 2.44471 17.3761 2.52866 17.9638 2.68131C18.2233 2.75001 18.4523 3.25375 18.5057 3.59721C18.5286 3.73459 18.0402 4.13911 17.8188 4.10858C15.4986 3.79565 13.766 5.08554 11.9571 6.17698C9.11018 7.89429 7.43104 10.5351 6.09536 13.4965C4.62993 16.7556 3.92011 20.152 3.7293 23.6935C3.62244 25.6932 4.03459 27.5937 4.79784 29.4484C4.79784 29.2575 4.80547 29.0591 4.79784 28.8683C4.56887 25.4184 5.01155 22.0601 6.56857 18.9537C7.85082 16.3892 9.57576 14.1224 11.9418 12.4356C12.3387 12.1532 13.0027 12.1456 13.537 12.1914C14.0331 12.2295 14.6971 12.3745 14.9261 12.718C15.1322 13.0233 14.7964 13.6568 14.7658 14.1453C14.6285 16.2976 14.3918 18.45 14.4224 20.5947C14.4529 22.77 15.3993 24.7162 16.5289 26.548C16.8342 27.0365 17.2235 27.5021 17.4143 28.0287C17.5288 28.3493 17.3532 28.7767 17.3074 29.1583C16.9258 29.1125 16.3915 29.2041 16.2007 28.9904C15.3917 28.0593 14.6895 27.0441 13.9644 26.0824C13.4836 26.0824 12.9493 26.113 12.4303 26.0824C10.9038 25.9832 9.65972 26.5251 8.59881 27.5937C8.37746 27.8226 7.98058 27.8761 7.66765 28.0135C7.69818 27.6471 7.59895 27.2044 7.7745 26.9373C8.73619 25.4489 10.9343 24.6094 12.6593 24.9986C12.9111 25.0597 13.1707 25.1131 13.6591 25.2276C11.7052 21.2511 12.3921 17.3433 12.9875 13.2904C12.5601 13.6797 12.1021 14.0384 11.7129 14.4582C9.17124 17.1906 7.36235 20.3047 6.94256 24.0827C6.72885 26.0366 6.45408 27.9906 6.8815 29.9674C7.11048 31.0512 6.33196 31.4862 5.15657 30.9672L5.1871 30.9825Z" fill="black"/>
<path d="M40.4778 142.149C39.333 141.241 39.6154 140.318 39.9207 139.486C40.5923 137.684 41.2334 135.853 42.1188 134.166C43.9506 130.678 45.9427 127.266 47.8737 123.831C48.0492 123.518 48.1561 123.099 48.4156 122.938C48.7133 122.755 49.1559 122.816 49.5376 122.771C49.5605 123.122 49.7207 123.549 49.5834 123.824C48.469 125.991 47.2555 128.113 46.1564 130.296C45.2939 132.013 44.5154 133.777 43.7445 135.532C42.9965 137.242 42.3325 138.982 41.5693 140.676C41.325 141.211 40.8671 141.638 40.4778 142.165V142.149Z" fill="black"/>
<path d="M36.3737 52.4748C36.8163 51.162 37.1445 49.8187 37.717 48.5975C38.9534 45.9567 38.1368 45.2927 36.4195 43.8959C35.1067 42.8274 34.7403 41.5222 34.8395 40.0492C35.0075 37.5075 36.1676 35.2865 37.4346 33.1341C37.7857 32.5388 38.2131 31.9816 38.6252 31.4168C38.9229 31.0047 39.3045 30.7376 39.7701 31.1344C40.2052 31.5084 39.8922 31.8214 39.6785 32.2335C38.9305 33.6455 38.1902 35.0728 37.6025 36.5611C37.0987 37.8357 36.7706 39.1867 36.4347 40.5224C36.2286 41.3543 36.6408 42.0031 37.3125 42.4839C39.9457 44.3462 40.4189 46.636 39.0603 49.3226C38.5794 50.2614 38.2741 51.2918 37.8696 52.2764C37.7704 52.513 37.6101 52.7496 37.4193 52.9175C37.259 53.0625 36.9308 53.238 36.8163 53.1617C36.6255 53.0396 36.5416 52.7419 36.3889 52.4748H36.3737Z" fill="black"/>
<path d="M1.66077 56.6335C2.55377 54.8246 3.42387 53.1607 4.19475 51.4587C4.80535 50.1153 4.3703 49.3063 2.92776 48.8407C1.50812 48.3828 0.72198 47.0395 0.905159 45.284C1.30968 41.4983 2.68352 38.079 4.958 35.0336C5.30146 34.5757 5.66018 33.8277 6.44633 34.2398C6.51502 34.278 6.14103 35.2168 5.91969 35.7129C5.24803 37.2089 4.56874 38.6896 3.85892 40.1702C3.07278 41.8112 2.43165 43.4827 2.33243 45.3374C2.279 46.2991 2.50034 46.9631 3.38571 47.4211C3.99631 47.734 4.59927 48.1233 5.08775 48.5965C5.84336 49.3368 6.05707 50.2985 5.64492 51.2831C5.16407 52.428 4.62217 53.55 4.05737 54.6567C3.71391 55.3283 3.32465 55.9847 2.88197 56.5877C2.49271 57.122 2.01187 57.2517 1.66077 56.6335Z" fill="black"/>
<path d="M24.7108 47.3682C22.9935 47.5895 21.177 46.9789 19.33 48.0475C20.0856 48.5817 20.658 49.0702 21.3144 49.4137C21.7037 49.6121 22.154 49.7648 21.8487 50.2074C21.6579 50.4898 21.0931 50.6883 20.742 50.6349C20.2611 50.5662 19.7421 50.3067 19.3758 49.9708C18.5743 49.2457 17.7882 48.4825 17.1165 47.6353C16.6128 47.0094 16.9868 46.3607 17.7882 46.2996C20.658 46.0783 23.5278 45.8493 26.3976 45.6661C26.7487 45.6432 27.283 45.7501 27.428 45.9791C27.573 46.2233 27.4814 46.8034 27.2677 47.0476C26.3518 48.1238 25.3672 49.1465 24.3674 50.1387C24.1613 50.3372 23.7492 50.4211 23.4515 50.3906C23.2073 50.3677 22.8638 50.1387 22.7875 49.9174C22.7264 49.7495 22.963 49.4137 23.1538 49.2381C23.7263 48.7038 24.3445 48.2154 24.9398 47.704C24.8635 47.5895 24.7948 47.4827 24.7185 47.3682H24.7108Z" fill="black"/>
<path d="M39.6995 128.555C39.3637 128.357 38.9362 128.25 38.8218 127.99C38.7073 127.738 38.7912 127.25 38.9744 127.021C40.852 124.693 43.0959 122.732 45.4925 120.961C45.8055 120.732 46.4008 120.74 46.8053 120.846C47.0114 120.9 47.1946 121.426 47.1946 121.739C47.1946 121.984 46.9351 122.266 46.729 122.457C44.6606 124.327 42.5769 126.189 40.4856 128.036C40.2796 128.219 40.0124 128.349 39.7071 128.548L39.6995 128.555Z" fill="black"/>
<path d="M47.3557 56.3062C46.9969 56.5581 46.6077 57.0084 46.1268 57.1534C43.9287 57.8098 41.7076 58.3746 39.5019 58.9776C39.3263 59.0234 39.1431 59.1226 38.9752 59.0997C38.7081 59.0615 38.273 59.0081 38.2272 58.8554C38.1433 58.5959 38.212 58.1762 38.3799 57.9777C38.6012 57.7258 38.9829 57.5579 39.3263 57.4587C41.6084 56.7718 43.8905 56.0849 46.1879 55.4437C46.6611 55.314 47.1725 55.375 47.3557 56.2986V56.3062Z" fill="black"/>
<path d="M13.5908 41.049C13.6748 40.965 13.8427 40.6369 14.0869 40.5834C14.2854 40.5376 14.6212 40.7513 14.7967 40.9345C15.3921 41.568 15.9721 42.2168 16.4912 42.9037C16.6667 43.1403 16.8194 43.6822 16.7049 43.7891C16.4454 44.0409 15.9569 44.3004 15.6592 44.2165C14.5067 43.9035 13.5908 42.5144 13.5908 41.049Z" fill="black"/>
<path d="M28.1524 33.0585C27.4654 33.0356 26.9006 32.3258 26.9235 31.5091C26.9464 30.8222 27.267 30.4177 27.9768 30.4024C28.6485 30.3948 29.3125 31.1656 29.2972 31.8907C29.282 32.5471 28.7629 33.0738 28.1524 33.0509V33.0585Z" fill="black"/>
<path d="M11.5214 33.0425C11.5443 32.5158 11.7046 31.9892 12.4678 31.951C13.1166 31.9205 13.8569 32.7219 13.8188 33.4012C13.7882 33.9736 13.1013 34.6835 12.5899 34.6758C11.9565 34.6682 11.5061 34.0271 11.5138 33.0348L11.5214 33.0425Z" fill="black"/>
<path d="M81.5047 339.867C81.5047 340.608 81.5047 341.172 81.5047 341.745C81.4589 345.202 81.4436 348.667 81.3291 352.125C81.2986 353.079 81.123 354.102 80.7109 354.941C80.2682 355.834 79.421 356.483 78.3601 356.727C75.8032 357.315 73.2158 357.597 70.5826 357.536C69.9567 357.521 69.888 357.178 69.8499 356.735C69.8117 356.277 69.7354 355.85 70.3994 355.697C73.1929 355.056 75.9864 354.392 78.757 353.667C79.5049 353.468 80.4208 353.316 80.5735 352.27C80.688 351.484 79.8789 350.743 79.1081 350.927C78.963 350.965 78.7951 350.988 78.6806 351.079C76.6122 352.751 74.0019 352.713 71.6206 353.43C69.3538 354.109 67.1556 353.583 64.9269 353.712C60.6528 353.964 56.3481 354.033 52.196 355.201C49.4559 355.972 46.7693 356.949 44.0369 357.765C43.4263 357.948 42.7165 357.948 42.0677 357.872C40.6481 357.697 39.1369 357.666 37.8546 357.117C35.2138 355.979 32.0005 355.613 30.6648 352.423C30.2756 351.484 30.3977 351.133 31.3594 350.942C33.2064 350.583 35.0535 350.179 36.9005 349.835C39.1369 349.423 41.419 349.186 43.6095 348.614C44.7925 348.301 45.884 347.515 46.9296 346.813C48.9446 345.454 50.9137 344.019 52.8829 342.592C53.5469 342.111 54.0812 341.409 54.8063 341.081C55.3329 340.844 56.0733 340.989 56.6991 341.081C58.508 341.325 60.3093 341.691 62.1258 341.897C63.6523 342.065 65.217 341.974 66.7358 342.165C69.5751 342.523 72.4144 342.745 75.2155 342.058C76.7649 341.684 78.238 340.997 79.7492 340.455C80.2758 340.264 80.8177 340.096 81.4818 339.875L81.5047 339.867ZM51.2572 349.324C51.3335 349.438 51.4022 349.553 51.4785 349.667C51.7304 349.324 52.1197 349.011 52.2036 348.629C52.3257 348.095 51.9289 347.79 51.3793 347.828C49.5399 347.965 47.6928 348.11 45.8611 348.309C45.6626 348.332 45.3649 348.69 45.3573 348.904C45.3573 349.095 45.6473 349.408 45.8687 349.476C46.235 349.583 46.6472 349.56 47.0441 349.545C48.4561 349.484 49.8605 349.4 51.2725 349.324H51.2572Z" fill="white"/>
<path d="M89.8006 346.157C90.4799 345.753 91.0523 345.409 91.6248 345.066C92.1972 344.73 92.7391 344.302 93.3497 344.073C95.4028 343.318 96.5782 341.585 98.0131 340.097C99.4175 338.639 99.448 336.807 99.7457 335.037C100.249 332.045 100.715 329.045 101.188 326.046C101.425 324.58 101.654 323.107 101.868 321.634C101.936 321.184 102.035 320.84 102.57 320.733C104.195 320.413 105.798 319.94 107.439 319.733C110.133 319.398 112.858 319.314 115.553 318.963C116.797 318.802 118.003 318.283 119.201 317.864C119.773 317.665 120.109 317.635 120.384 318.306C120.933 319.65 121.628 320.939 122.155 322.298C122.33 322.756 122.33 323.389 122.162 323.847C121.582 325.45 120.437 326.656 119.201 327.793C116.911 329.915 114.652 332.075 112.408 334.243C111.561 335.059 110.813 335.991 109.935 336.769C108.599 337.96 107.706 339.463 107.561 341.173C107.424 342.814 106.523 343.89 105.653 345.096C104.501 346.699 103.15 347.737 101.097 348.195C99.5473 348.538 98.1353 348.47 96.6317 348.325C95.0136 348.164 93.3726 348.157 91.7392 348.119C90.2662 348.088 90.2662 348.111 89.8998 346.638C89.8464 346.409 89.8006 346.172 89.793 346.142L89.8006 346.157Z" fill="white"/>
<path d="M72.9942 148.887C66.1555 151.513 59.5306 154.588 53.043 158.657C53.2109 157.298 53.3635 156.199 53.4857 155.092C53.6765 153.367 53.852 151.635 54.0352 149.902C54.3252 147.2 54.6305 144.506 54.89 141.804C55.0427 140.178 55.0732 138.537 55.2564 136.919C55.4014 135.652 55.7601 134.515 57.1034 133.843C58.5918 133.095 59.958 132.119 61.3776 131.233C61.973 130.859 62.4309 130.935 62.8125 131.577C63.4231 132.584 64.1177 133.546 64.713 134.561C66.4532 137.53 68.1705 140.514 69.8954 143.499C70.9335 145.292 71.9638 147.093 72.9942 148.887Z" fill="white"/>
<path d="M53.9119 120.144C55.385 119.488 55.2171 119.144 56.423 121.045C57.6518 122.984 58.6593 125.052 59.8347 127.029C60.8651 128.761 60.9109 128.746 59.1936 129.967C58.1098 130.738 57.0107 131.478 55.82 132.303C55.1942 128.311 54.5607 124.289 53.9043 120.144H53.9119Z" fill="white"/>
<path d="M120.199 335.929C118.978 334.991 117.803 334.098 116.604 333.174C119.352 330.495 121.955 327.946 124.603 325.358C125.038 326.167 125.55 327.083 126.031 328.015C126.076 328.106 126.008 328.32 125.924 328.427C124.016 330.93 122.108 333.426 120.192 335.929C120.093 335.99 120.161 335.975 120.192 335.929H120.199Z" fill="white"/>
<path d="M101.761 166.908C103.959 166.404 106.073 165.923 108.172 165.442C108.187 166.419 107.317 167.465 105.997 167.976C104.577 168.526 102.814 168.106 101.753 166.908H101.761Z" fill="white"/>
<path d="M116.056 162.405C115.926 162.848 115.82 163.306 115.652 163.733C114.988 165.412 114.316 167.084 113.598 168.748C113.515 168.939 113.179 169.091 112.934 169.129C112.652 169.175 112.339 169.084 112.019 169.053C112.705 166.481 113.56 164.016 116.056 162.405Z" fill="white"/>
<path d="M46.7752 44.667C48.2406 44.0793 49.7137 43.4916 50.5228 41.9346C51.1257 42.3315 51.37 42.7665 50.7975 43.1939C49.8358 43.9037 48.8207 44.5372 47.7751 45.1249C47.5385 45.2623 47.1034 45.0486 46.7676 45.0028V44.6746L46.7752 44.667Z" fill="white"/>
<path d="M109.124 167.694C109.162 169.732 109.109 169.778 106.812 169.389C107.643 168.778 108.376 168.236 109.124 167.694Z" fill="white"/>
<path d="M51.2551 349.323C49.8431 349.399 48.4388 349.483 47.0268 349.544C46.6375 349.559 46.2177 349.582 45.8514 349.475C45.63 349.414 45.3324 349.094 45.34 348.903C45.34 348.689 45.6453 348.331 45.8437 348.308C47.6832 348.109 49.5226 347.972 51.362 347.827C51.9115 347.781 52.3084 348.086 52.1863 348.628C52.1023 349.01 51.7131 349.323 51.4612 349.666C51.3849 349.552 51.3162 349.437 51.2399 349.323H51.2551Z" fill="black"/>
</svg>
