<svg width="1065" height="98" viewBox="0 0 1065 98" fill="none" xmlns="http://www.w3.org/2000/svg">
<mask id="path-1-outside-1_388_7" maskUnits="userSpaceOnUse" x="-1" y="-1" width="1067" height="100" fill="black">
<rect fill="white" x="-1" y="-1" width="1067" height="100"/>
<path d="M0.512297 96L0.512297 5.91802H11.0648L51.473 73.9943H45.8107L85.7041 5.91802H96.2566L96.3853 96H84.0312L83.9025 25.35H86.8623L51.3443 85.0615H45.4246L9.64918 25.35H12.8664L12.8664 96H0.512297ZM150.831 96.7721C143.967 96.7721 137.876 95.2708 132.557 92.268C127.238 89.2653 123.034 85.1473 119.945 79.9139C116.857 74.5948 115.313 68.5893 115.313 61.8975C115.313 55.1199 116.857 49.1145 119.945 43.8811C123.034 38.6478 127.238 34.5727 132.557 31.6557C137.876 28.653 143.967 27.1516 150.831 27.1516C157.608 27.1516 163.657 28.653 168.976 31.6557C174.381 34.5727 178.584 38.6478 181.587 43.8811C184.676 49.0287 186.22 55.0341 186.22 61.8975C186.22 68.6751 184.676 74.6806 181.587 79.9139C178.584 85.1473 174.381 89.2653 168.976 92.268C163.657 95.2708 157.608 96.7721 150.831 96.7721ZM150.831 85.9623C155.206 85.9623 159.11 84.9757 162.541 83.0025C166.059 81.0292 168.804 78.241 170.777 74.6377C172.751 70.9486 173.737 66.7019 173.737 61.8975C173.737 57.0074 172.751 52.8035 170.777 49.2861C168.804 45.6828 166.059 42.8945 162.541 40.9213C159.11 38.9481 155.206 37.9615 150.831 37.9615C146.455 37.9615 142.552 38.9481 139.12 40.9213C135.688 42.8945 132.943 45.6828 130.884 49.2861C128.825 52.8035 127.795 57.0074 127.795 61.8975C127.795 66.7019 128.825 70.9486 130.884 74.6377C132.943 78.241 135.688 81.0292 139.12 83.0025C142.552 84.9757 146.455 85.9623 150.831 85.9623ZM226.727 96.7721C219.863 96.7721 214.544 94.9276 210.769 91.2385C206.994 87.5495 205.107 82.2732 205.107 75.4098V12.8672H217.461V74.8951C217.461 78.5842 218.362 81.4153 220.164 83.3885C222.051 85.3617 224.711 86.3484 228.142 86.3484C232.003 86.3484 235.22 85.276 237.794 83.1311L241.655 92.0107C239.767 93.6407 237.494 94.8418 234.834 95.6139C232.26 96.3861 229.558 96.7721 226.727 96.7721ZM193.525 37.9615V27.7951H237.022V37.9615H193.525ZM283.541 96.7721C276.677 96.7721 270.586 95.2708 265.267 92.268C259.948 89.2653 255.744 85.1473 252.655 79.9139C249.567 74.5948 248.023 68.5893 248.023 61.8975C248.023 55.1199 249.567 49.1145 252.655 43.8811C255.744 38.6478 259.948 34.5727 265.267 31.6557C270.586 28.653 276.677 27.1516 283.541 27.1516C290.318 27.1516 296.367 28.653 301.686 31.6557C307.091 34.5727 311.294 38.6478 314.297 43.8811C317.386 49.0287 318.93 55.0341 318.93 61.8975C318.93 68.6751 317.386 74.6806 314.297 79.9139C311.294 85.1473 307.091 89.2653 301.686 92.268C296.367 95.2708 290.318 96.7721 283.541 96.7721ZM283.541 85.9623C287.916 85.9623 291.82 84.9757 295.251 83.0025C298.769 81.0292 301.514 78.241 303.487 74.6377C305.461 70.9486 306.447 66.7019 306.447 61.8975C306.447 57.0074 305.461 52.8035 303.487 49.2861C301.514 45.6828 298.769 42.8945 295.251 40.9213C291.82 38.9481 287.916 37.9615 283.541 37.9615C279.165 37.9615 275.262 38.9481 271.83 40.9213C268.398 42.8945 265.653 45.6828 263.594 49.2861C261.535 52.8035 260.505 57.0074 260.505 61.8975C260.505 66.7019 261.535 70.9486 263.594 74.6377C265.653 78.241 268.398 81.0292 271.83 83.0025C275.262 84.9757 279.165 85.9623 283.541 85.9623ZM346.053 79.5279L346.31 63.6992L385.56 27.7951H400.488L370.375 57.3934L363.683 63.0557L346.053 79.5279ZM336.015 96V0.5131L348.369 0.5131V96H336.015ZM388.134 96L361.367 62.7984L369.346 52.8893L403.319 96H388.134ZM456.396 96V81.5869L455.753 78.8844V54.3049C455.753 49.0716 454.209 45.0393 451.12 42.2082C448.118 39.2912 443.571 37.8328 437.479 37.8328C433.447 37.8328 429.501 38.5191 425.64 39.8918C421.779 41.1787 418.519 42.9374 415.86 45.168L410.712 35.9025C414.23 33.0713 418.433 30.9265 423.324 29.468C428.299 27.9238 433.49 27.1516 438.895 27.1516C448.246 27.1516 455.453 29.4251 460.515 33.9721C465.576 38.5191 468.107 45.4683 468.107 54.8197V96H456.396ZM434.005 96.7721C428.943 96.7721 424.482 95.9142 420.621 94.1984C416.846 92.4825 413.929 90.1232 411.87 87.1205C409.811 84.032 408.782 80.5574 408.782 76.6967C408.782 73.0076 409.64 69.6617 411.355 66.659C413.157 63.6563 416.031 61.2541 419.978 59.4525C424.01 57.6508 429.415 56.75 436.192 56.75H457.812V65.6295H436.707C430.53 65.6295 426.369 66.659 424.224 68.718C422.08 70.777 421.007 73.265 421.007 76.182C421.007 79.5279 422.337 82.2303 424.996 84.2893C427.656 86.2626 431.345 87.2492 436.064 87.2492C440.696 87.2492 444.729 86.2197 448.16 84.1607C451.678 82.1016 454.209 79.0989 455.753 75.1525L458.198 83.6459C456.568 87.6781 453.694 90.8954 449.576 93.2975C445.458 95.6139 440.268 96.7721 434.005 96.7721ZM564.651 97.0295C552.811 97.0295 543.503 93.6407 536.725 86.8631C529.948 80.0855 526.559 70.1765 526.559 57.1361V5.91802H539.428V56.6213C539.428 66.659 541.615 73.9943 545.991 78.627C550.452 83.2598 556.715 85.5762 564.779 85.5762C572.93 85.5762 579.192 83.2598 583.568 78.627C588.029 73.9943 590.26 66.659 590.26 56.6213V5.91802H602.742V57.1361C602.742 70.1765 599.354 80.0855 592.576 86.8631C585.884 93.6407 576.576 97.0295 564.651 97.0295ZM663.485 96.7721C657.652 96.7721 652.375 95.4852 647.657 92.9115C643.024 90.2519 639.335 86.3484 636.59 81.2008C633.93 76.0533 632.6 69.6188 632.6 61.8975C632.6 54.1762 633.973 47.7418 636.718 42.5943C639.549 37.4467 643.281 33.5861 647.914 31.0123C652.633 28.4385 657.823 27.1516 663.485 27.1516C670.177 27.1516 676.097 28.6101 681.245 31.527C686.392 34.444 690.467 38.5191 693.47 43.7525C696.473 48.9 697.974 54.9484 697.974 61.8975C697.974 68.8467 696.473 74.938 693.47 80.1713C690.467 85.4046 686.392 89.4798 681.245 92.3967C676.097 95.3137 670.177 96.7721 663.485 96.7721ZM627.324 96V0.5131H639.678V45.9402L638.391 61.7688L639.163 77.5975V96H627.324ZM662.456 85.9623C666.831 85.9623 670.735 84.9757 674.167 83.0025C677.684 81.0292 680.429 78.241 682.403 74.6377C684.462 70.9486 685.491 66.7019 685.491 61.8975C685.491 57.0074 684.462 52.8035 682.403 49.2861C680.429 45.6828 677.684 42.8945 674.167 40.9213C670.735 38.9481 666.831 37.9615 662.456 37.9615C658.166 37.9615 654.263 38.9481 650.745 40.9213C647.314 42.8945 644.568 45.6828 642.509 49.2861C640.536 52.8035 639.549 57.0074 639.549 61.8975C639.549 66.7019 640.536 70.9486 642.509 74.6377C644.568 78.241 647.314 81.0292 650.745 83.0025C654.263 84.9757 658.166 85.9623 662.456 85.9623ZM743.741 96.7721C737.907 96.7721 732.759 95.6997 728.298 93.5549C723.923 91.4101 720.491 88.15 718.003 83.7746C715.601 79.3134 714.4 73.7369 714.4 67.0451V27.7951H726.754V65.6295C726.754 72.3213 728.341 77.3402 731.515 80.6861C734.776 84.032 739.323 85.7049 745.156 85.7049C749.446 85.7049 753.178 84.847 756.352 83.1311C759.527 81.3295 761.972 78.7557 763.688 75.4098C765.403 71.9781 766.261 67.8601 766.261 63.0557V27.7951H778.616V96H766.905V77.5975L768.835 82.4877C766.605 87.0347 763.259 90.5522 758.797 93.0402C754.336 95.5281 749.317 96.7721 743.741 96.7721ZM812.172 79.5279L812.429 63.6992L851.679 27.7951H866.607L836.494 57.3934L829.802 63.0557L812.172 79.5279ZM802.134 96V0.5131H814.488V96H802.134ZM854.253 96L827.486 62.7984L835.465 52.8893L869.438 96H854.253ZM922.515 96V81.5869L921.872 78.8844V54.3049C921.872 49.0716 920.328 45.0393 917.239 42.2082C914.236 39.2912 909.689 37.8328 903.598 37.8328C899.566 37.8328 895.619 38.5191 891.759 39.8918C887.898 41.1787 884.638 42.9374 881.978 45.168L876.831 35.9025C880.348 33.0713 884.552 30.9265 889.442 29.468C894.418 27.9238 899.609 27.1516 905.014 27.1516C914.365 27.1516 921.572 29.4251 926.633 33.9721C931.695 38.5191 934.226 45.4683 934.226 54.8197V96H922.515ZM900.124 96.7721C895.062 96.7721 890.601 95.9142 886.74 94.1984C882.965 92.4825 880.048 90.1232 877.989 87.1205C875.93 84.032 874.901 80.5574 874.901 76.6967C874.901 73.0076 875.759 69.6617 877.474 66.659C879.276 63.6563 882.15 61.2541 886.097 59.4525C890.129 57.6508 895.534 56.75 902.311 56.75H923.931V65.6295H902.826C896.649 65.6295 892.488 66.659 890.343 68.718C888.198 70.777 887.126 73.265 887.126 76.182C887.126 79.5279 888.456 82.2303 891.115 84.2893C893.775 86.2626 897.464 87.2492 902.183 87.2492C906.815 87.2492 910.848 86.2197 914.279 84.1607C917.797 82.1016 920.328 79.0989 921.872 75.1525L924.317 83.6459C922.687 87.6781 919.813 90.8954 915.695 93.2975C911.577 95.6139 906.386 96.7721 900.124 96.7721ZM980.51 96.7721C973.646 96.7721 968.327 94.9276 964.552 91.2385C960.777 87.5495 958.89 82.2732 958.89 75.4098V12.8672H971.244V74.8951C971.244 78.5842 972.145 81.4153 973.947 83.3885C975.834 85.3617 978.494 86.3484 981.925 86.3484C985.786 86.3484 989.003 85.276 991.577 83.1311L995.438 92.0107C993.55 93.6407 991.277 94.8418 988.617 95.6139C986.043 96.3861 983.341 96.7721 980.51 96.7721ZM947.308 37.9615V27.7951H990.805V37.9615H947.308ZM1052.71 96V81.5869L1052.07 78.8844V54.3049C1052.07 49.0716 1050.52 45.0393 1047.44 42.2082C1044.43 39.2912 1039.89 37.8328 1033.79 37.8328C1029.76 37.8328 1025.82 38.5191 1021.96 39.8918C1018.09 41.1787 1014.83 42.9374 1012.18 45.168L1007.03 35.9025C1010.55 33.0713 1014.75 30.9265 1019.64 29.468C1024.62 27.9238 1029.81 27.1516 1035.21 27.1516C1044.56 27.1516 1051.77 29.4251 1056.83 33.9721C1061.89 38.5191 1064.42 45.4683 1064.42 54.8197V96H1052.71ZM1030.32 96.7721C1025.26 96.7721 1020.8 95.9142 1016.94 94.1984C1013.16 92.4825 1010.24 90.1232 1008.19 87.1205C1006.13 84.032 1005.1 80.5574 1005.1 76.6967C1005.1 73.0076 1005.96 69.6617 1007.67 66.659C1009.47 63.6563 1012.35 61.2541 1016.29 59.4525C1020.33 57.6508 1025.73 56.75 1032.51 56.75H1054.13V65.6295H1033.02C1026.85 65.6295 1022.68 66.659 1020.54 68.718C1018.4 70.777 1017.32 73.265 1017.32 76.182C1017.32 79.5279 1018.65 82.2303 1021.31 84.2893C1023.97 86.2626 1027.66 87.2492 1032.38 87.2492C1037.01 87.2492 1041.04 86.2197 1044.48 84.1607C1047.99 82.1016 1050.52 79.0989 1052.07 75.1525L1054.51 83.6459C1052.88 87.6781 1050.01 90.8954 1045.89 93.2975C1041.77 95.6139 1036.58 96.7721 1030.32 96.7721Z"/>
</mask>
<path d="M0.512297 96H-0.487703V97H0.512297V96ZM0.512297 5.91802V4.91802H-0.487703V5.91802H0.512297ZM11.0648 5.91802L11.9247 5.40759L11.6341 4.91802H11.0648V5.91802ZM51.473 73.9943V74.9943H53.2294L52.3329 73.4838L51.473 73.9943ZM45.8107 73.9943L44.9479 73.4887L44.0656 74.9943H45.8107V73.9943ZM85.7041 5.91802V4.91802H85.1311L84.8413 5.41242L85.7041 5.91802ZM96.2566 5.91802L97.2566 5.91659L97.2551 4.91802H96.2566V5.91802ZM96.3853 96V97H97.3867L97.3853 95.9986L96.3853 96ZM84.0312 96L83.0312 96.0018L83.033 97H84.0312V96ZM83.9025 25.35V24.35H82.9006L82.9025 25.3518L83.9025 25.35ZM86.8623 25.35L87.7218 25.8612L88.6207 24.35H86.8623V25.35ZM51.3443 85.0615V86.0615H51.913L52.2037 85.5727L51.3443 85.0615ZM45.4246 85.0615L44.5668 85.5754L44.858 86.0615H45.4246V85.0615ZM9.64918 25.35V24.35H7.8843L8.79137 25.8639L9.64918 25.35ZM12.8664 25.35H13.8664V24.35H12.8664V25.35ZM12.8664 96V97H13.8664V96H12.8664ZM1.5123 96L1.5123 5.91802H-0.487703L-0.487703 96H1.5123ZM0.512297 6.91802H11.0648V4.91802H0.512297V6.91802ZM10.2048 6.42844L50.613 74.5047L52.3329 73.4838L11.9247 5.40759L10.2048 6.42844ZM51.473 72.9943H45.8107V74.9943H51.473V72.9943ZM46.6734 74.4999L86.5669 6.42361L84.8413 5.41242L44.9479 73.4887L46.6734 74.4999ZM85.7041 6.91802H96.2566V4.91802H85.7041V6.91802ZM95.2566 5.91945L95.3853 96.0014L97.3853 95.9986L97.2566 5.91659L95.2566 5.91945ZM96.3853 95H84.0312V97H96.3853V95ZM85.0312 95.9982L84.9025 25.3482L82.9025 25.3518L83.0312 96.0018L85.0312 95.9982ZM83.9025 26.35H86.8623V24.35H83.9025V26.35ZM86.0029 24.8388L50.4848 84.5503L52.2037 85.5727L87.7218 25.8612L86.0029 24.8388ZM51.3443 84.0615H45.4246V86.0615H51.3443V84.0615ZM46.2824 84.5475L10.507 24.836L8.79137 25.8639L44.5668 85.5754L46.2824 84.5475ZM9.64918 26.35H12.8664V24.35H9.64918V26.35ZM11.8664 25.35L11.8664 96H13.8664L13.8664 25.35H11.8664ZM12.8664 95H0.512297V97H12.8664V95ZM132.557 92.268L133.048 91.3972L133.048 91.3972L132.557 92.268ZM119.945 79.9139L119.081 80.4161L119.084 80.4222L119.945 79.9139ZM119.945 43.8811L119.084 43.3729L119.084 43.3729L119.945 43.8811ZM132.557 31.6557L133.038 32.5326L133.048 32.5266L132.557 31.6557ZM168.976 31.6557L168.484 32.5266L168.492 32.5312L168.501 32.5358L168.976 31.6557ZM181.587 43.8811L180.72 44.3788L180.725 44.3873L180.73 44.3956L181.587 43.8811ZM181.587 79.9139L180.726 79.4056L180.72 79.4163L181.587 79.9139ZM168.976 92.268L168.49 91.3939L168.484 91.3972L168.976 92.268ZM162.541 83.0025L162.052 82.1303L162.043 82.1356L162.541 83.0025ZM170.777 74.6377L171.654 75.118L171.659 75.1094L170.777 74.6377ZM170.777 49.2861L169.9 49.7664L169.905 49.7753L170.777 49.2861ZM162.541 40.9213L162.043 41.7883L162.052 41.7934L162.541 40.9213ZM130.884 49.2861L131.747 49.7913L131.752 49.7822L130.884 49.2861ZM130.884 74.6377L130.011 75.1251L130.016 75.1338L130.884 74.6377ZM150.831 95.7721C144.118 95.7721 138.2 94.3052 133.048 91.3972L132.065 93.1389C137.552 96.2363 143.817 97.7721 150.831 97.7721V95.7721ZM133.048 91.3972C127.881 88.4803 123.805 84.487 120.807 79.4057L119.084 80.4222C122.262 85.8075 126.594 90.0503 132.065 93.1389L133.048 91.3972ZM120.81 79.4118C117.818 74.2585 116.313 68.429 116.313 61.8975L114.313 61.8975C114.313 68.7497 115.896 74.9312 119.081 80.4161L120.81 79.4118ZM116.313 61.8975C116.313 55.2776 117.819 49.4515 120.807 44.3894L119.084 43.3729C115.895 48.7774 114.313 54.9623 114.313 61.8975L116.313 61.8975ZM120.807 44.3894C123.804 39.3106 127.876 35.3629 133.038 32.5325L132.076 30.7789C126.599 33.7824 122.264 37.985 119.084 43.3729L120.807 44.3894ZM133.048 32.5266C138.2 29.6186 144.118 28.1516 150.831 28.1516V26.1516C143.817 26.1516 137.552 27.6874 132.065 30.7849L133.048 32.5266ZM150.831 28.1516C157.455 28.1516 163.331 29.6175 168.484 32.5266L169.467 30.7849C163.982 27.6885 157.761 26.1516 150.831 26.1516V28.1516ZM168.501 32.5358C173.745 35.3659 177.811 39.31 180.72 44.3788L182.454 43.3835C179.357 37.9856 175.016 33.7794 169.451 30.7757L168.501 32.5358ZM180.73 44.3956C183.712 49.3665 185.22 55.1889 185.22 61.8975H187.22C187.22 54.8794 185.639 48.6908 182.445 43.3666L180.73 44.3956ZM185.22 61.8975C185.22 68.5175 183.713 74.3435 180.726 79.4057L182.448 80.4222C185.638 75.0176 187.22 68.8328 187.22 61.8975H185.22ZM180.72 79.4163C177.81 84.4876 173.74 88.4773 168.49 91.3939L169.461 93.1422C175.021 90.0533 179.359 85.8069 182.454 80.4116L180.72 79.4163ZM168.484 91.3972C163.331 94.3063 157.455 95.7721 150.831 95.7721V97.7721C157.761 97.7721 163.982 96.2353 169.467 93.1389L168.484 91.3972ZM150.831 86.9623C155.362 86.9623 159.441 85.9387 163.04 83.8694L162.043 82.1356C158.778 84.0126 155.05 84.9623 150.831 84.9623V86.9623ZM163.03 83.8746C166.715 81.8079 169.593 78.8824 171.654 75.118L169.9 74.1574C168.015 77.5995 165.403 80.2506 162.052 82.1303L163.03 83.8746ZM171.659 75.1094C173.721 71.2549 174.737 66.8418 174.737 61.8975H172.737C172.737 66.562 171.78 70.6423 169.896 74.166L171.659 75.1094ZM174.737 61.8975C174.737 56.8723 173.723 52.4924 171.649 48.7968L169.905 49.7753C171.778 53.1147 172.737 57.1425 172.737 61.8975H174.737ZM171.654 48.8057C169.593 45.0413 166.715 42.1159 163.03 40.0492L162.052 41.7934C165.403 43.6732 168.015 46.3242 169.9 49.7664L171.654 48.8057ZM163.04 40.0544C159.441 37.985 155.362 36.9615 150.831 36.9615V38.9615C155.05 38.9615 158.778 39.9111 162.043 41.7882L163.04 40.0544ZM150.831 36.9615C146.299 36.9615 142.22 37.985 138.621 40.0544L139.618 41.7882C142.883 39.9111 146.611 38.9615 150.831 38.9615V36.9615ZM138.621 40.0544C135.028 42.1205 132.158 45.0402 130.016 48.7899L131.752 49.7822C133.727 46.3254 136.348 43.6685 139.618 41.7882L138.621 40.0544ZM130.021 48.7809C127.856 52.4796 126.795 56.8654 126.795 61.8975H128.795C128.795 57.1494 129.794 53.1275 131.747 49.7912L130.021 48.7809ZM126.795 61.8975C126.795 66.8488 127.858 71.2676 130.011 75.1251L131.757 74.1503C129.792 70.6297 128.795 66.555 128.795 61.8975H126.795ZM130.016 75.1338C132.158 78.8836 135.028 81.8032 138.621 83.8694L139.618 82.1356C136.348 80.2552 133.727 77.5984 131.752 74.1416L130.016 75.1338ZM138.621 83.8694C142.22 85.9387 146.299 86.9623 150.831 86.9623V84.9623C146.611 84.9623 142.883 84.0126 139.618 82.1356L138.621 83.8694ZM210.769 91.2385L210.07 91.9537L210.07 91.9537L210.769 91.2385ZM205.107 12.8672V11.8672H204.107V12.8672H205.107ZM217.461 12.8672H218.461V11.8672H217.461V12.8672ZM220.164 83.3885L219.425 84.0628L219.433 84.0714L219.441 84.0797L220.164 83.3885ZM237.794 83.1311L238.711 82.7324L238.179 81.5086L237.154 82.3629L237.794 83.1311ZM241.655 92.0107L242.308 92.7675L242.865 92.2866L242.572 91.6119L241.655 92.0107ZM234.834 95.6139L234.555 94.6536L234.547 94.6561L234.834 95.6139ZM193.525 37.9615H192.525V38.9615H193.525V37.9615ZM193.525 27.7951V26.7951H192.525V27.7951H193.525ZM237.022 27.7951H238.022V26.7951H237.022V27.7951ZM237.022 37.9615V38.9615H238.022V37.9615H237.022ZM226.727 95.7721C220.043 95.7721 215.005 93.9798 211.468 90.5233L210.07 91.9537C214.083 95.8753 219.683 97.7721 226.727 97.7721V95.7721ZM211.468 90.5233C207.939 87.0743 206.107 82.0886 206.107 75.4098H204.107C204.107 82.4579 206.05 88.0246 210.07 91.9537L211.468 90.5233ZM206.107 75.4098V12.8672H204.107V75.4098H206.107ZM205.107 13.8672H217.461V11.8672H205.107V13.8672ZM216.461 12.8672V74.8951H218.461V12.8672H216.461ZM216.461 74.8951C216.461 78.7381 217.4 81.8452 219.425 84.0628L220.902 82.7143C219.324 80.9854 218.461 78.4302 218.461 74.8951H216.461ZM219.441 84.0797C221.563 86.2982 224.512 87.3484 228.142 87.3484V85.3484C224.909 85.3484 222.539 84.4253 220.886 82.6973L219.441 84.0797ZM228.142 87.3484C232.199 87.3484 235.654 86.2164 238.434 83.8994L237.154 82.3629C234.787 84.3355 231.807 85.3484 228.142 85.3484V87.3484ZM236.877 83.5299L240.737 92.4094L242.572 91.6119L238.711 82.7324L236.877 83.5299ZM241.001 91.2538C239.234 92.78 237.092 93.9171 234.555 94.6536L235.113 96.5743C237.895 95.7665 240.3 94.5015 242.308 92.7675L241.001 91.2538ZM234.547 94.6561C232.071 95.3988 229.466 95.7721 226.727 95.7721V97.7721C229.65 97.7721 232.449 97.3733 235.121 96.5718L234.547 94.6561ZM194.525 37.9615V27.7951H192.525V37.9615H194.525ZM193.525 28.7951H237.022V26.7951H193.525V28.7951ZM236.022 27.7951V37.9615H238.022V27.7951H236.022ZM237.022 36.9615H193.525V38.9615H237.022V36.9615ZM265.267 92.268L265.758 91.3972L265.758 91.3972L265.267 92.268ZM252.655 79.9139L251.791 80.4161L251.794 80.4222L252.655 79.9139ZM252.655 43.8811L251.794 43.3729L251.794 43.3729L252.655 43.8811ZM265.267 31.6557L265.748 32.5326L265.758 32.5266L265.267 31.6557ZM301.686 31.6557L301.194 32.5266L301.202 32.5312L301.211 32.5358L301.686 31.6557ZM314.297 43.8811L313.43 44.3788L313.435 44.3873L313.44 44.3956L314.297 43.8811ZM314.297 79.9139L313.436 79.4056L313.43 79.4163L314.297 79.9139ZM301.686 92.268L301.2 91.3939L301.194 91.3972L301.686 92.268ZM295.251 83.0025L294.762 82.1303L294.753 82.1356L295.251 83.0025ZM303.487 74.6377L304.364 75.118L304.369 75.1094L303.487 74.6377ZM303.487 49.2861L302.61 49.7664L302.615 49.7753L303.487 49.2861ZM295.251 40.9213L294.753 41.7883L294.762 41.7934L295.251 40.9213ZM263.594 49.2861L264.457 49.7913L264.462 49.7822L263.594 49.2861ZM263.594 74.6377L262.721 75.1251L262.726 75.1338L263.594 74.6377ZM283.541 95.7721C276.828 95.7721 270.91 94.3052 265.758 91.3972L264.775 93.1389C270.262 96.2363 276.527 97.7721 283.541 97.7721V95.7721ZM265.758 91.3972C260.591 88.4803 256.515 84.487 253.517 79.4057L251.794 80.4222C254.972 85.8075 259.304 90.0503 264.775 93.1389L265.758 91.3972ZM253.52 79.4118C250.528 74.2585 249.023 68.429 249.023 61.8975H247.023C247.023 68.7497 248.606 74.9312 251.791 80.4161L253.52 79.4118ZM249.023 61.8975C249.023 55.2776 250.529 49.4515 253.517 44.3894L251.794 43.3729C248.605 48.7774 247.023 54.9623 247.023 61.8975H249.023ZM253.517 44.3894C256.514 39.3106 260.586 35.3629 265.748 32.5325L264.786 30.7789C259.309 33.7824 254.974 37.985 251.794 43.3729L253.517 44.3894ZM265.758 32.5266C270.91 29.6186 276.828 28.1516 283.541 28.1516V26.1516C276.527 26.1516 270.262 27.6874 264.775 30.7849L265.758 32.5266ZM283.541 28.1516C290.165 28.1516 296.041 29.6175 301.194 32.5266L302.177 30.7849C296.692 27.6885 290.471 26.1516 283.541 26.1516V28.1516ZM301.211 32.5358C306.455 35.3659 310.521 39.31 313.43 44.3788L315.165 43.3835C312.067 37.9856 307.726 33.7794 302.161 30.7757L301.211 32.5358ZM313.44 44.3956C316.422 49.3665 317.93 55.1889 317.93 61.8975H319.93C319.93 54.8794 318.349 48.6908 315.155 43.3666L313.44 44.3956ZM317.93 61.8975C317.93 68.5175 316.423 74.3435 313.436 79.4057L315.158 80.4222C318.348 75.0176 319.93 68.8328 319.93 61.8975H317.93ZM313.43 79.4163C310.52 84.4876 306.45 88.4773 301.2 91.3939L302.171 93.1422C307.731 90.0533 312.069 85.8069 315.165 80.4116L313.43 79.4163ZM301.194 91.3972C296.041 94.3063 290.165 95.7721 283.541 95.7721V97.7721C290.471 97.7721 296.692 96.2353 302.177 93.1389L301.194 91.3972ZM283.541 86.9623C288.072 86.9623 292.151 85.9387 295.75 83.8694L294.753 82.1356C291.488 84.0126 287.76 84.9623 283.541 84.9623V86.9623ZM295.741 83.8746C299.425 81.8079 302.303 78.8824 304.364 75.118L302.61 74.1574C300.725 77.5995 298.113 80.2506 294.762 82.1303L295.741 83.8746ZM304.369 75.1094C306.431 71.2549 307.447 66.8418 307.447 61.8975H305.447C305.447 66.562 304.49 70.6423 302.606 74.166L304.369 75.1094ZM307.447 61.8975C307.447 56.8723 306.433 52.4924 304.359 48.7968L302.615 49.7753C304.488 53.1147 305.447 57.1425 305.447 61.8975H307.447ZM304.364 48.8057C302.303 45.0413 299.425 42.1159 295.741 40.0492L294.762 41.7934C298.113 43.6732 300.725 46.3242 302.61 49.7664L304.364 48.8057ZM295.75 40.0544C292.151 37.985 288.072 36.9615 283.541 36.9615V38.9615C287.76 38.9615 291.488 39.9111 294.753 41.7882L295.75 40.0544ZM283.541 36.9615C279.009 36.9615 274.93 37.985 271.331 40.0544L272.328 41.7882C275.593 39.9111 279.321 38.9615 283.541 38.9615V36.9615ZM271.331 40.0544C267.738 42.1205 264.868 45.0402 262.726 48.7899L264.462 49.7822C266.437 46.3254 269.058 43.6685 272.328 41.7882L271.331 40.0544ZM262.731 48.7809C260.566 52.4796 259.505 56.8654 259.505 61.8975H261.505C261.505 57.1494 262.504 53.1275 264.457 49.7912L262.731 48.7809ZM259.505 61.8975C259.505 66.8488 260.568 71.2676 262.721 75.1251L264.467 74.1503C262.502 70.6297 261.505 66.555 261.505 61.8975H259.505ZM262.726 75.1338C264.868 78.8836 267.738 81.8032 271.331 83.8694L272.328 82.1356C269.058 80.2552 266.437 77.5984 264.462 74.1416L262.726 75.1338ZM271.331 83.8694C274.93 85.9387 279.009 86.9623 283.541 86.9623V84.9623C279.321 84.9623 275.593 84.0126 272.328 82.1356L271.331 83.8694ZM346.053 79.5279L345.053 79.5116L345.015 81.8664L346.736 80.2586L346.053 79.5279ZM346.31 63.6992L345.636 62.9613L345.318 63.2521L345.311 63.6829L346.31 63.6992ZM385.56 27.7951V26.7951H385.172L384.886 27.0572L385.56 27.7951ZM400.488 27.7951L401.189 28.5082L402.932 26.7951H400.488V27.7951ZM370.375 57.3934L371.021 58.1568L371.05 58.1327L371.076 58.1066L370.375 57.3934ZM363.683 63.0557L363.037 62.2923L363.019 62.3082L363.001 62.325L363.683 63.0557ZM336.015 96H335.015V97H336.015V96ZM336.015 0.5131V-0.4869H335.015V0.5131H336.015ZM348.369 0.5131H349.369V-0.4869H348.369V0.5131ZM348.369 96V97H349.369V96H348.369ZM388.134 96L387.356 96.6276L387.656 97H388.134V96ZM361.367 62.7984L360.588 62.1712L360.083 62.7987L360.589 63.426L361.367 62.7984ZM369.346 52.8893L370.131 52.2704L369.354 51.2844L368.567 52.2622L369.346 52.8893ZM403.319 96V97H405.381L404.105 95.381L403.319 96ZM347.053 79.5441L347.31 63.7154L345.311 63.6829L345.053 79.5116L347.053 79.5441ZM346.985 64.437L386.235 28.5329L384.886 27.0572L345.636 62.9613L346.985 64.437ZM385.56 28.7951H400.488V26.7951H385.56V28.7951ZM399.787 27.0819L369.674 56.6803L371.076 58.1066L401.189 28.5082L399.787 27.0819ZM369.729 56.6301L363.037 62.2923L364.329 63.8191L371.021 58.1568L369.729 56.6301ZM363.001 62.325L345.37 78.7972L346.736 80.2586L364.366 63.7864L363.001 62.325ZM337.015 96V0.5131H335.015V96H337.015ZM336.015 1.5131L348.369 1.5131V-0.4869L336.015 -0.4869V1.5131ZM347.369 0.5131V96H349.369V0.5131H347.369ZM348.369 95H336.015V97H348.369V95ZM388.913 95.3724L362.146 62.1707L360.589 63.426L387.356 96.6276L388.913 95.3724ZM362.146 63.4255L370.125 53.5165L368.567 52.2622L360.588 62.1712L362.146 63.4255ZM368.56 53.5083L402.534 96.619L404.105 95.381L370.131 52.2704L368.56 53.5083ZM403.319 95H388.134V97H403.319V95ZM456.396 96H455.396V97H456.396V96ZM456.396 81.5869H457.396V81.4695L457.369 81.3553L456.396 81.5869ZM455.753 78.8844H454.753V79.0018L454.78 79.116L455.753 78.8844ZM451.12 42.2082L450.423 42.9255L450.434 42.9356L450.445 42.9453L451.12 42.2082ZM425.64 39.8918L425.956 40.8405L425.966 40.8373L425.975 40.834L425.64 39.8918ZM415.86 45.168L414.985 45.6537L415.574 46.7128L416.502 45.9342L415.86 45.168ZM410.712 35.9025L410.085 35.1234L409.429 35.6517L409.838 36.3881L410.712 35.9025ZM423.324 29.468L423.609 30.4264L423.62 30.4231L423.324 29.468ZM468.107 96V97H469.107V96H468.107ZM420.621 94.1984L420.207 95.1088L420.215 95.1122L420.621 94.1984ZM411.87 87.1205L411.038 87.6752L411.046 87.686L411.87 87.1205ZM411.355 66.659L410.498 66.1445L410.493 66.1536L410.487 66.1629L411.355 66.659ZM419.978 59.4525L419.57 58.5394L419.562 58.5428L419.978 59.4525ZM457.812 56.75H458.812V55.75H457.812V56.75ZM457.812 65.6295V66.6295H458.812V65.6295H457.812ZM424.224 68.718L423.532 67.9966L423.532 67.9966L424.224 68.718ZM424.996 84.2893L424.384 85.0801L424.392 85.0863L424.401 85.0924L424.996 84.2893ZM448.16 84.1607L447.655 83.2976L447.646 83.3032L448.16 84.1607ZM455.753 75.1525L456.714 74.8758L455.897 72.0392L454.822 74.7881L455.753 75.1525ZM458.198 83.6459L459.125 84.0207L459.255 83.7008L459.159 83.3693L458.198 83.6459ZM449.576 93.2975L450.066 94.1691L450.073 94.1653L450.08 94.1613L449.576 93.2975ZM457.396 96V81.5869H455.396V96H457.396ZM457.369 81.3553L456.726 78.6528L454.78 79.116L455.424 81.8185L457.369 81.3553ZM456.753 78.8844V54.3049H454.753V78.8844H456.753ZM456.753 54.3049C456.753 48.8661 455.14 44.5368 451.796 41.471L450.445 42.9453C453.277 45.5418 454.753 49.2771 454.753 54.3049H456.753ZM451.817 41.4909C448.557 38.3244 443.713 36.8328 437.479 36.8328V38.8328C443.428 38.8328 447.678 40.2581 450.423 42.9255L451.817 41.4909ZM437.479 36.8328C433.331 36.8328 429.271 37.5393 425.305 38.9496L425.975 40.834C429.73 39.4989 433.563 38.8328 437.479 38.8328V36.8328ZM425.324 38.9431C421.364 40.263 417.988 42.0778 415.217 44.4018L416.502 45.9342C419.05 43.7971 422.195 42.0943 425.956 40.8405L425.324 38.9431ZM416.734 44.6824L411.586 35.4168L409.838 36.3881L414.985 45.6537L416.734 44.6824ZM411.339 36.6815C414.743 33.9415 418.827 31.8525 423.609 30.4263L423.038 28.5097C418.039 30.0005 413.716 32.2011 410.085 35.1234L411.339 36.6815ZM423.62 30.4231C428.496 28.9097 433.587 28.1516 438.895 28.1516V26.1516C433.393 26.1516 428.103 26.9378 423.027 28.513L423.62 30.4231ZM438.895 28.1516C448.092 28.1516 455.027 30.3869 459.846 34.716L461.183 33.2282C455.878 28.4633 448.4 26.1516 438.895 26.1516V28.1516ZM459.846 34.716C464.627 39.0103 467.107 45.6417 467.107 54.8197H469.107C469.107 45.2949 466.526 38.0279 461.183 33.2282L459.846 34.716ZM467.107 54.8197V96H469.107V54.8197H467.107ZM468.107 95H456.396V97H468.107V95ZM434.005 95.7721C429.056 95.7721 424.737 94.9335 421.027 93.2845L420.215 95.1122C424.226 96.895 428.83 97.7721 434.005 97.7721V95.7721ZM421.035 93.288C417.402 91.6368 414.637 89.3875 412.695 86.555L411.046 87.686C413.221 90.8589 416.29 93.3282 420.207 95.1087L421.035 93.288ZM412.702 86.5658C410.757 83.6484 409.782 80.3683 409.782 76.6967H407.782C407.782 80.7464 408.865 84.4156 411.038 87.6752L412.702 86.5658ZM409.782 76.6967C409.782 73.1697 410.6 69.9967 412.224 67.1552L410.487 66.1629C408.679 69.3268 407.782 72.8456 407.782 76.6967H409.782ZM412.213 67.1735C413.888 64.3817 416.586 62.1 420.393 60.3621L419.562 58.5428C415.476 60.4082 412.426 62.9308 410.498 66.1445L412.213 67.1735ZM420.386 60.3655C424.239 58.6435 429.488 57.75 436.192 57.75V55.75C429.342 55.75 423.78 56.6581 419.57 58.5394L420.386 60.3655ZM436.192 57.75H457.812V55.75H436.192V57.75ZM456.812 56.75V65.6295H458.812V56.75H456.812ZM457.812 64.6295H436.707V66.6295H457.812V64.6295ZM436.707 64.6295C433.57 64.6295 430.899 64.8902 428.713 65.4309C426.534 65.9703 424.774 66.8038 423.532 67.9966L424.917 69.4394C425.819 68.5732 427.213 67.8625 429.194 67.3724C431.17 66.8835 433.667 66.6295 436.707 66.6295V64.6295ZM423.532 67.9966C421.195 70.2401 420.007 72.9869 420.007 76.182H422.007C422.007 73.5432 422.964 71.314 424.917 69.4394L423.532 67.9966ZM420.007 76.182C420.007 79.8391 421.482 82.8328 424.384 85.0801L425.609 83.4986C423.192 81.6278 422.007 79.2166 422.007 76.182H420.007ZM424.401 85.0924C427.292 87.2377 431.219 88.2492 436.064 88.2492V86.2492C431.471 86.2492 428.02 85.2875 425.592 83.4862L424.401 85.0924ZM436.064 88.2492C440.849 88.2492 445.065 87.1843 448.675 85.0181L447.646 83.3032C444.393 85.2551 440.544 86.2492 436.064 86.2492V88.2492ZM448.666 85.0237C452.385 82.8463 455.062 79.6637 456.684 75.5169L454.822 74.7881C453.356 78.5341 450.971 81.357 447.655 83.2976L448.666 85.0237ZM454.792 75.4291L457.237 83.9225L459.159 83.3693L456.714 74.8758L454.792 75.4291ZM457.271 83.2711C455.732 87.078 453.018 90.1318 449.072 92.4338L450.08 94.1613C454.37 91.6589 457.404 88.2783 459.125 84.0207L457.271 83.2711ZM449.086 92.426C445.158 94.6351 440.15 95.7721 434.005 95.7721V97.7721C440.385 97.7721 445.758 96.5927 450.066 94.1691L449.086 92.426ZM536.725 86.8631L536.018 87.5702L536.725 86.8631ZM526.559 5.91802V4.91802H525.559V5.91802H526.559ZM539.428 5.91802H540.428V4.91802H539.428V5.91802ZM545.991 78.627L545.264 79.3137L545.27 79.3207L545.991 78.627ZM583.568 78.627L582.848 77.9334L582.841 77.9404L583.568 78.627ZM590.26 5.91802V4.91802H589.26V5.91802H590.26ZM602.742 5.91802H603.742V4.91802H602.742V5.91802ZM592.576 86.8631L591.869 86.156L591.864 86.1605L592.576 86.8631ZM564.651 96.0295C553.01 96.0295 543.98 92.704 537.432 86.156L536.018 87.5702C543.025 94.5775 552.612 98.0295 564.651 98.0295V96.0295ZM537.432 86.156C530.902 79.6255 527.559 70.0093 527.559 57.1361H525.559C525.559 70.3436 528.993 80.5456 536.018 87.5702L537.432 86.156ZM527.559 57.1361V5.91802H525.559V57.1361H527.559ZM526.559 6.91802H539.428V4.91802H526.559V6.91802ZM538.428 5.91802V56.6213H540.428V5.91802H538.428ZM538.428 56.6213C538.428 66.7733 540.636 74.4133 545.264 79.3137L546.718 77.9404C542.595 73.5753 540.428 66.5447 540.428 56.6213H538.428ZM545.27 79.3207C549.966 84.1964 556.516 86.5762 564.779 86.5762V84.5762C556.913 84.5762 550.938 82.3233 546.711 77.9334L545.27 79.3207ZM564.779 86.5762C573.124 86.5762 579.681 84.1987 584.295 79.3137L582.841 77.9404C578.704 82.321 572.736 84.5762 564.779 84.5762V86.5762ZM584.288 79.3207C589.007 74.4204 591.26 66.7774 591.26 56.6213H589.26C589.26 66.5406 587.051 73.5681 582.848 77.9334L584.288 79.3207ZM591.26 56.6213V5.91802H589.26V56.6213H591.26ZM590.26 6.91802H602.742V4.91802H590.26V6.91802ZM601.742 5.91802V57.1361H603.742V5.91802H601.742ZM601.742 57.1361C601.742 70.0093 598.399 79.6255 591.869 86.156L593.283 87.5702C600.308 80.5456 603.742 70.3436 603.742 57.1361H601.742ZM591.864 86.1605C585.405 92.7025 576.38 96.0295 564.651 96.0295V98.0295C576.772 98.0295 586.363 94.579 593.288 87.5657L591.864 86.1605ZM647.657 92.9115L647.159 93.7787L647.168 93.7842L647.178 93.7894L647.657 92.9115ZM636.59 81.2008L635.701 81.6599L635.707 81.6714L636.59 81.2008ZM636.718 42.5943L635.842 42.1123L635.836 42.1237L636.718 42.5943ZM647.914 31.0123L647.435 30.1344L647.429 30.1381L647.914 31.0123ZM681.245 31.527L681.738 30.657L681.738 30.657L681.245 31.527ZM693.47 43.7525L692.603 44.2501L692.606 44.2563L693.47 43.7525ZM693.47 80.1713L692.603 79.6736L692.603 79.6736L693.47 80.1713ZM681.245 92.3967L681.738 93.2667L681.738 93.2667L681.245 92.3967ZM627.324 96L626.324 96V97L627.324 97V96ZM627.324 0.5131V-0.4869H626.324V0.5131H627.324ZM639.678 0.5131H640.678V-0.4869H639.678V0.5131ZM639.678 45.9402L640.675 46.0212L640.678 45.9807V45.9402H639.678ZM638.391 61.7688L637.395 61.6878L637.389 61.7526L637.392 61.8176L638.391 61.7688ZM639.163 77.5975H640.163V77.5732L640.162 77.5488L639.163 77.5975ZM639.163 96V97H640.163V96H639.163ZM674.167 83.0025L673.677 82.1303L673.668 82.1356L674.167 83.0025ZM682.403 74.6377L681.529 74.1503L681.526 74.1574L682.403 74.6377ZM682.403 49.2861L681.526 49.7664L681.532 49.7789L681.54 49.7912L682.403 49.2861ZM674.167 40.9213L673.668 41.7883L673.677 41.7934L674.167 40.9213ZM650.745 40.9213L650.256 40.0491L650.247 40.0544L650.745 40.9213ZM642.509 49.2861L641.641 48.7899L641.637 48.7968L642.509 49.2861ZM642.509 74.6377L641.627 75.1094L641.634 75.1217L641.641 75.1338L642.509 74.6377ZM650.745 83.0025L650.247 83.8694L650.256 83.8746L650.745 83.0025ZM663.485 95.7721C657.804 95.7721 652.695 94.5205 648.136 92.0336L647.178 93.7894C652.056 96.45 657.499 97.7721 663.485 97.7721V95.7721ZM648.155 92.0442C643.7 89.4867 640.137 85.7279 637.472 80.7302L635.707 81.6714C638.533 86.9688 642.348 91.0171 647.159 93.7787L648.155 92.0442ZM637.478 80.7418C634.912 75.7754 633.6 69.51 633.6 61.8975H631.6C631.6 69.7276 632.948 76.3312 635.701 81.6598L637.478 80.7418ZM633.6 61.8975C633.6 54.2892 634.953 48.0283 637.601 43.0648L635.836 42.1237C632.992 47.4553 631.6 54.0632 631.6 61.8975H633.6ZM637.594 43.0762C640.345 38.075 643.949 34.3591 648.4 31.8864L647.429 30.1381C642.614 32.813 638.754 36.8184 635.842 42.1123L637.594 43.0762ZM648.393 31.8902C652.957 29.4009 657.981 28.1516 663.485 28.1516V26.1516C657.665 26.1516 652.309 27.4762 647.435 30.1344L648.393 31.8902ZM663.485 28.1516C670.028 28.1516 675.773 29.576 680.751 32.3971L681.738 30.657C676.421 27.6442 670.327 26.1516 663.485 26.1516V28.1516ZM680.751 32.3971C685.74 35.2238 689.687 39.169 692.603 44.2501L694.337 43.2548C691.247 37.8693 687.044 33.6641 681.738 30.657L680.751 32.3971ZM692.606 44.2563C695.506 49.2271 696.974 55.0957 696.974 61.8975H698.974C698.974 54.801 697.44 48.5728 694.334 43.2486L692.606 44.2563ZM696.974 61.8975C696.974 68.6989 695.506 74.6135 692.603 79.6736L694.337 80.669C697.439 75.2625 698.974 68.9945 698.974 61.8975H696.974ZM692.603 79.6736C689.687 84.7548 685.74 88.6999 680.751 91.5267L681.738 93.2667C687.044 90.2596 691.247 86.0545 694.337 80.669L692.603 79.6736ZM680.751 91.5267C675.773 94.3478 670.028 95.7721 663.485 95.7721V97.7721C670.327 97.7721 676.421 96.2796 681.738 93.2667L680.751 91.5267ZM628.324 96V0.5131H626.324V96L628.324 96ZM627.324 1.5131H639.678V-0.4869H627.324V1.5131ZM638.678 0.5131V45.9402H640.678V0.5131H638.678ZM638.681 45.8591L637.395 61.6878L639.388 61.8499L640.675 46.0212L638.681 45.8591ZM637.392 61.8176L638.165 77.6463L640.162 77.5488L639.39 61.7201L637.392 61.8176ZM638.163 77.5975V96H640.163V77.5975H638.163ZM639.163 95H627.324V97H639.163V95ZM662.456 86.9623C666.987 86.9623 671.066 85.9387 674.665 83.8694L673.668 82.1356C670.404 84.0126 666.675 84.9623 662.456 84.9623V86.9623ZM674.656 83.8746C678.34 81.8079 681.218 78.8824 683.28 75.118L681.526 74.1574C679.641 77.5995 677.028 80.2506 673.677 82.1303L674.656 83.8746ZM683.276 75.1251C685.429 71.2676 686.491 66.8488 686.491 61.8975H684.491C684.491 66.555 683.495 70.6297 681.53 74.1503L683.276 75.1251ZM686.491 61.8975C686.491 56.8654 685.431 52.4796 683.266 48.7809L681.54 49.7912C683.493 53.1275 684.491 57.1494 684.491 61.8975H686.491ZM683.28 48.8057C681.218 45.0413 678.34 42.1159 674.656 40.0492L673.677 41.7934C677.028 43.6732 679.641 46.3242 681.526 49.7664L683.28 48.8057ZM674.665 40.0544C671.066 37.985 666.987 36.9615 662.456 36.9615V38.9615C666.675 38.9615 670.404 39.9111 673.668 41.7882L674.665 40.0544ZM662.456 36.9615C658.006 36.9615 653.933 37.9868 650.256 40.0492L651.235 41.7934C654.593 39.9094 658.326 38.9615 662.456 38.9615V36.9615ZM650.247 40.0544C646.654 42.1205 643.784 45.0402 641.641 48.7899L643.377 49.7822C645.353 46.3254 647.974 43.6685 651.244 41.7882L650.247 40.0544ZM641.637 48.7968C639.564 52.4924 638.549 56.8723 638.549 61.8975H640.549C640.549 57.1425 641.508 53.1147 643.381 49.7753L641.637 48.7968ZM638.549 61.8975C638.549 66.8418 639.566 71.2549 641.627 75.1094L643.391 74.166C641.506 70.6423 640.549 66.562 640.549 61.8975H638.549ZM641.641 75.1338C643.784 78.8836 646.654 81.8032 650.247 83.8694L651.244 82.1356C647.974 80.2552 645.353 77.5984 643.377 74.1416L641.641 75.1338ZM650.256 83.8746C653.933 85.937 658.006 86.9623 662.456 86.9623V84.9623C658.326 84.9623 654.593 84.0144 651.235 82.1303L650.256 83.8746ZM728.298 93.5549L727.858 94.4529L727.865 94.4562L728.298 93.5549ZM718.003 83.7746L717.123 84.2487L717.128 84.2589L717.134 84.2689L718.003 83.7746ZM714.4 27.7951V26.7951H713.4V27.7951H714.4ZM726.754 27.7951H727.754V26.7951H726.754V27.7951ZM731.515 80.6861L730.79 81.3744L730.799 81.3839L731.515 80.6861ZM756.352 83.1311L756.828 84.0109L756.837 84.0059L756.846 84.0008L756.352 83.1311ZM763.688 75.4098L764.577 75.8662L764.582 75.857L763.688 75.4098ZM766.261 27.7951V26.7951H765.261V27.7951H766.261ZM778.616 27.7951H779.616V26.7951H778.616V27.7951ZM778.616 96V97H779.616V96H778.616ZM766.905 96H765.905V97H766.905V96ZM766.905 77.5975L767.835 77.2304L765.905 77.5975H766.905ZM768.835 82.4877L769.733 82.9281L769.928 82.5315L769.765 82.1205L768.835 82.4877ZM758.797 93.0402L759.285 93.9135L759.285 93.9135L758.797 93.0402ZM743.741 95.7721C738.03 95.7721 733.036 94.7229 728.732 92.6537L727.865 94.4562C732.483 96.6766 737.784 97.7721 743.741 97.7721V95.7721ZM728.738 92.657C724.55 90.6036 721.265 87.4872 718.872 83.2803L717.134 84.2689C719.718 88.8128 723.296 92.2166 727.858 94.4528L728.738 92.657ZM718.884 83.3005C716.581 79.0242 715.4 73.6226 715.4 67.0451H713.4C713.4 73.8512 714.621 79.6025 717.123 84.2487L718.884 83.3005ZM715.4 67.0451V27.7951H713.4V67.0451H715.4ZM714.4 28.7951H726.754V26.7951H714.4V28.7951ZM725.754 27.7951V65.6295H727.754V27.7951H725.754ZM725.754 65.6295C725.754 72.4627 727.374 77.7734 730.79 81.3743L732.241 79.9978C729.309 76.9069 727.754 72.1799 727.754 65.6295H725.754ZM730.799 81.3839C734.292 84.9687 739.124 86.7049 745.156 86.7049V84.7049C739.521 84.7049 735.259 83.0953 732.232 79.9882L730.799 81.3839ZM745.156 86.7049C749.581 86.7049 753.482 85.8193 756.828 84.0109L755.877 82.2514C752.874 83.8747 749.311 84.7049 745.156 84.7049V86.7049ZM756.846 84.0008C760.195 82.0999 762.775 79.38 764.577 75.8661L762.798 74.9535C761.168 78.1315 758.858 80.5591 755.859 82.2615L756.846 84.0008ZM764.582 75.857C766.383 72.2559 767.261 67.9771 767.261 63.0557H765.261C765.261 67.7431 764.424 71.7003 762.793 74.9626L764.582 75.857ZM767.261 63.0557V27.7951H765.261V63.0557H767.261ZM766.261 28.7951H778.616V26.7951H766.261V28.7951ZM777.616 27.7951V96H779.616V27.7951H777.616ZM778.616 95H766.905V97H778.616V95ZM767.905 96V77.5975H765.905V96H767.905ZM765.975 77.9647L767.905 82.8549L769.765 82.1205L767.835 77.2304L765.975 77.9647ZM767.937 82.0473C765.797 86.4099 762.595 89.7771 758.31 92.1668L759.285 93.9135C763.922 91.3273 767.412 87.6595 769.733 82.9281L767.937 82.0473ZM758.31 92.1668C754.012 94.5643 749.163 95.7721 743.741 95.7721V97.7721C749.472 97.7721 754.661 96.492 759.285 93.9135L758.31 92.1668ZM812.172 79.5279L811.172 79.5116L811.134 81.8664L812.855 80.2586L812.172 79.5279ZM812.429 63.6992L811.754 62.9613L811.437 63.2521L811.43 63.6829L812.429 63.6992ZM851.679 27.7951V26.7951H851.291L851.004 27.0572L851.679 27.7951ZM866.607 27.7951L867.308 28.5082L869.051 26.7951H866.607V27.7951ZM836.494 57.3934L837.14 58.1568L837.169 58.1327L837.195 58.1066L836.494 57.3934ZM829.802 63.0557L829.156 62.2923L829.138 62.3082L829.12 62.325L829.802 63.0557ZM802.134 96H801.134V97H802.134V96ZM802.134 0.5131V-0.4869H801.134V0.5131H802.134ZM814.488 0.5131H815.488V-0.4869H814.488V0.5131ZM814.488 96V97H815.488V96H814.488ZM854.253 96L853.475 96.6276L853.775 97H854.253V96ZM827.486 62.7984L826.707 62.1712L826.202 62.7987L826.707 63.426L827.486 62.7984ZM835.465 52.8893L836.25 52.2704L835.473 51.2844L834.686 52.2622L835.465 52.8893ZM869.438 96V97H871.5L870.224 95.381L869.438 96ZM813.172 79.5441L813.429 63.7154L811.43 63.6829L811.172 79.5116L813.172 79.5441ZM813.104 64.437L852.354 28.5329L851.004 27.0572L811.754 62.9613L813.104 64.437ZM851.679 28.7951H866.607V26.7951H851.679V28.7951ZM865.906 27.0819L835.793 56.6803L837.195 58.1066L867.308 28.5082L865.906 27.0819ZM835.848 56.6301L829.156 62.2923L830.448 63.8191L837.14 58.1568L835.848 56.6301ZM829.12 62.325L811.489 78.7972L812.855 80.2586L830.485 63.7864L829.12 62.325ZM803.134 96V0.5131H801.134V96H803.134ZM802.134 1.5131H814.488V-0.4869H802.134V1.5131ZM813.488 0.5131V96H815.488V0.5131H813.488ZM814.488 95H802.134V97H814.488V95ZM855.032 95.3724L828.264 62.1707L826.707 63.426L853.475 96.6276L855.032 95.3724ZM828.265 63.4255L836.244 53.5165L834.686 52.2622L826.707 62.1712L828.265 63.4255ZM834.679 53.5083L868.653 96.619L870.224 95.381L836.25 52.2704L834.679 53.5083ZM869.438 95H854.253V97H869.438V95ZM922.515 96H921.515V97H922.515V96ZM922.515 81.5869H923.515V81.4695L923.488 81.3553L922.515 81.5869ZM921.872 78.8844H920.872V79.0018L920.899 79.116L921.872 78.8844ZM917.239 42.2082L916.542 42.9255L916.553 42.9356L916.563 42.9453L917.239 42.2082ZM891.759 39.8918L892.075 40.8405L892.084 40.8373L892.094 40.834L891.759 39.8918ZM881.978 45.168L881.104 45.6537L881.693 46.7128L882.621 45.9342L881.978 45.168ZM876.831 35.9025L876.204 35.1234L875.548 35.6517L875.957 36.3881L876.831 35.9025ZM889.442 29.468L889.728 30.4264L889.739 30.4231L889.442 29.468ZM934.226 96V97H935.226V96H934.226ZM886.74 94.1984L886.326 95.1088L886.334 95.1122L886.74 94.1984ZM877.989 87.1205L877.157 87.6752L877.164 87.686L877.989 87.1205ZM877.474 66.659L876.617 66.1445L876.611 66.1536L876.606 66.1629L877.474 66.659ZM886.097 59.4525L885.689 58.5394L885.681 58.5428L886.097 59.4525ZM923.931 56.75H924.931V55.75H923.931V56.75ZM923.931 65.6295V66.6295H924.931V65.6295H923.931ZM890.343 68.718L889.651 67.9966L889.651 67.9966L890.343 68.718ZM891.115 84.2893L890.503 85.0801L890.511 85.0863L890.52 85.0924L891.115 84.2893ZM914.279 84.1607L913.774 83.2976L913.765 83.3032L914.279 84.1607ZM921.872 75.1525L922.833 74.8758L922.016 72.0392L920.941 74.7881L921.872 75.1525ZM924.317 83.6459L925.244 84.0207L925.373 83.7008L925.278 83.3693L924.317 83.6459ZM915.695 93.2975L916.185 94.1691L916.192 94.1653L916.199 94.1613L915.695 93.2975ZM923.515 96V81.5869H921.515V96H923.515ZM923.488 81.3553L922.845 78.6528L920.899 79.116L921.543 81.8185L923.488 81.3553ZM922.872 78.8844V54.3049H920.872V78.8844H922.872ZM922.872 54.3049C922.872 48.8661 921.259 44.5368 917.915 41.471L916.563 42.9453C919.396 45.5418 920.872 49.2771 920.872 54.3049H922.872ZM917.936 41.4909C914.676 38.3244 909.832 36.8328 903.598 36.8328V38.8328C909.547 38.8328 913.796 40.2581 916.542 42.9255L917.936 41.4909ZM903.598 36.8328C899.45 36.8328 895.39 37.5393 891.424 38.9496L892.094 40.834C895.849 39.4989 899.682 38.8328 903.598 38.8328V36.8328ZM891.443 38.9431C887.483 40.263 884.107 42.0778 881.336 44.4018L882.621 45.9342C885.169 43.7971 888.313 42.0943 892.075 40.8405L891.443 38.9431ZM882.853 44.6824L877.705 35.4168L875.957 36.3881L881.104 45.6537L882.853 44.6824ZM877.458 36.6815C880.862 33.9415 884.946 31.8525 889.728 30.4263L889.157 28.5097C884.158 30.0005 879.835 32.2011 876.204 35.1234L877.458 36.6815ZM889.739 30.4231C894.615 28.9097 899.706 28.1516 905.014 28.1516V26.1516C899.512 26.1516 894.222 26.9378 889.146 28.513L889.739 30.4231ZM905.014 28.1516C914.211 28.1516 921.146 30.3869 925.965 34.716L927.302 33.2282C921.997 28.4633 914.519 26.1516 905.014 26.1516V28.1516ZM925.965 34.716C930.746 39.0103 933.226 45.6417 933.226 54.8197H935.226C935.226 45.2949 932.645 38.0279 927.302 33.2282L925.965 34.716ZM933.226 54.8197V96H935.226V54.8197H933.226ZM934.226 95H922.515V97H934.226V95ZM900.124 95.7721C895.174 95.7721 890.856 94.9335 887.146 93.2845L886.334 95.1122C890.345 96.895 894.949 97.7721 900.124 97.7721V95.7721ZM887.154 93.288C883.521 91.6368 880.756 89.3875 878.814 86.555L877.164 87.686C879.34 90.8589 882.409 93.3282 886.326 95.1087L887.154 93.288ZM878.821 86.5658C876.876 83.6484 875.901 80.3683 875.901 76.6967H873.901C873.901 80.7464 874.984 84.4156 877.157 87.6752L878.821 86.5658ZM875.901 76.6967C875.901 73.1697 876.719 69.9967 878.343 67.1552L876.606 66.1629C874.798 69.3268 873.901 72.8456 873.901 76.6967H875.901ZM878.332 67.1735C880.007 64.3817 882.705 62.1 886.512 60.3621L885.681 58.5428C881.595 60.4082 878.545 62.9308 876.617 66.1445L878.332 67.1735ZM886.504 60.3655C890.358 58.6435 895.607 57.75 902.311 57.75V55.75C895.461 55.75 889.899 56.6581 885.689 58.5394L886.504 60.3655ZM902.311 57.75H923.931V55.75H902.311V57.75ZM922.931 56.75V65.6295H924.931V56.75H922.931ZM923.931 64.6295H902.826V66.6295H923.931V64.6295ZM902.826 64.6295C899.689 64.6295 897.018 64.8902 894.832 65.4309C892.652 65.9703 890.893 66.8038 889.651 67.9966L891.036 69.4394C891.938 68.5732 893.332 67.8625 895.313 67.3724C897.288 66.8835 899.786 66.6295 902.826 66.6295V64.6295ZM889.651 67.9966C887.314 70.2401 886.126 72.9869 886.126 76.182H888.126C888.126 73.5432 889.083 71.314 891.036 69.4394L889.651 67.9966ZM886.126 76.182C886.126 79.8391 887.601 82.8328 890.503 85.0801L891.728 83.4986C889.311 81.6278 888.126 79.2166 888.126 76.182H886.126ZM890.52 85.0924C893.411 87.2377 897.338 88.2492 902.183 88.2492V86.2492C897.59 86.2492 894.139 85.2875 891.711 83.4862L890.52 85.0924ZM902.183 88.2492C906.968 88.2492 911.184 87.1843 914.794 85.0181L913.765 83.3032C910.512 85.2551 906.663 86.2492 902.183 86.2492V88.2492ZM914.784 85.0237C918.504 82.8463 921.18 79.6637 922.803 75.5169L920.941 74.7881C919.475 78.5341 917.089 81.357 913.774 83.2976L914.784 85.0237ZM920.911 75.4291L923.356 83.9225L925.278 83.3693L922.833 74.8758L920.911 75.4291ZM923.39 83.2711C921.851 87.078 919.137 90.1318 915.191 92.4338L916.199 94.1613C920.489 91.6589 923.523 88.2783 925.244 84.0207L923.39 83.2711ZM915.205 92.426C911.277 94.6351 906.269 95.7721 900.124 95.7721V97.7721C906.504 97.7721 911.876 96.5927 916.185 94.1691L915.205 92.426ZM964.552 91.2385L963.853 91.9537L963.853 91.9537L964.552 91.2385ZM958.89 12.8672V11.8672H957.89V12.8672H958.89ZM971.244 12.8672H972.244V11.8672H971.244V12.8672ZM973.947 83.3885L973.208 84.0628L973.216 84.0714L973.224 84.0797L973.947 83.3885ZM991.577 83.1311L992.494 82.7324L991.962 81.5086L990.937 82.3629L991.577 83.1311ZM995.438 92.0107L996.091 92.7675L996.648 92.2866L996.355 91.6119L995.438 92.0107ZM988.617 95.6139L988.338 94.6536L988.33 94.6561L988.617 95.6139ZM947.308 37.9615H946.308V38.9615H947.308V37.9615ZM947.308 27.7951V26.7951L946.308 26.7951V27.7951L947.308 27.7951ZM990.805 27.7951H991.805V26.7951H990.805V27.7951ZM990.805 37.9615V38.9615H991.805V37.9615H990.805ZM980.51 95.7721C973.826 95.7721 968.788 93.9798 965.251 90.5233L963.853 91.9537C967.866 95.8753 973.467 97.7721 980.51 97.7721V95.7721ZM965.251 90.5233C961.722 87.0743 959.89 82.0886 959.89 75.4098H957.89C957.89 82.4579 959.833 88.0246 963.853 91.9537L965.251 90.5233ZM959.89 75.4098V12.8672H957.89V75.4098H959.89ZM958.89 13.8672H971.244V11.8672H958.89V13.8672ZM970.244 12.8672V74.8951H972.244V12.8672H970.244ZM970.244 74.8951C970.244 78.7381 971.183 81.8452 973.208 84.0628L974.685 82.7143C973.107 80.9854 972.244 78.4302 972.244 74.8951H970.244ZM973.224 84.0797C975.346 86.2982 978.295 87.3484 981.925 87.3484V85.3484C978.692 85.3484 976.322 84.4253 974.669 82.6973L973.224 84.0797ZM981.925 87.3484C985.982 87.3484 989.437 86.2164 992.217 83.8994L990.937 82.3629C988.57 84.3355 985.59 85.3484 981.925 85.3484V87.3484ZM990.66 83.5299L994.52 92.4094L996.355 91.6119L992.494 82.7324L990.66 83.5299ZM994.784 91.2538C993.017 92.78 990.875 93.9171 988.338 94.6536L988.896 96.5743C991.678 95.7665 994.083 94.5015 996.091 92.7675L994.784 91.2538ZM988.33 94.6561C985.854 95.3988 983.249 95.7721 980.51 95.7721V97.7721C983.433 97.7721 986.233 97.3733 988.904 96.5718L988.33 94.6561ZM948.308 37.9615V27.7951L946.308 27.7951V37.9615H948.308ZM947.308 28.7951H990.805V26.7951H947.308V28.7951ZM989.805 27.7951V37.9615H991.805V27.7951H989.805ZM990.805 36.9615H947.308V38.9615H990.805V36.9615ZM1052.71 96H1051.71V97H1052.71V96ZM1052.71 81.5869H1053.71V81.4695L1053.68 81.3553L1052.71 81.5869ZM1052.07 78.8844H1051.07V79.0018L1051.1 79.116L1052.07 78.8844ZM1047.44 42.2082L1046.74 42.9255L1046.75 42.9356L1046.76 42.9453L1047.44 42.2082ZM1021.96 39.8918L1022.27 40.8405L1022.28 40.8373L1022.29 40.834L1021.96 39.8918ZM1012.18 45.168L1011.3 45.6537L1011.89 46.7128L1012.82 45.9342L1012.18 45.168ZM1007.03 35.9025L1006.4 35.1234L1005.74 35.6517L1006.15 36.3881L1007.03 35.9025ZM1019.64 29.468L1019.92 30.4264L1019.94 30.4231L1019.64 29.468ZM1064.42 96V97H1065.42V96H1064.42ZM1016.94 94.1984L1016.52 95.1088L1016.53 95.1122L1016.94 94.1984ZM1008.19 87.1205L1007.35 87.6752L1007.36 87.686L1008.19 87.1205ZM1007.67 66.659L1006.81 66.1445L1006.81 66.1536L1006.8 66.1629L1007.67 66.659ZM1016.29 59.4525L1015.89 58.5394L1015.88 58.5428L1016.29 59.4525ZM1054.13 56.75H1055.13V55.75H1054.13V56.75ZM1054.13 65.6295V66.6295H1055.13V65.6295H1054.13ZM1020.54 68.718L1019.85 67.9966L1019.85 67.9966L1020.54 68.718ZM1021.31 84.2893L1020.7 85.0801L1020.71 85.0863L1020.72 85.0924L1021.31 84.2893ZM1044.48 84.1607L1043.97 83.2976L1043.96 83.3032L1044.48 84.1607ZM1052.07 75.1525L1053.03 74.8758L1052.21 72.0392L1051.14 74.7881L1052.07 75.1525ZM1054.51 83.6459L1055.44 84.0207L1055.57 83.7008L1055.47 83.3693L1054.51 83.6459ZM1045.89 93.2975L1046.38 94.1691L1046.39 94.1653L1046.4 94.1613L1045.89 93.2975ZM1053.71 96V81.5869H1051.71V96H1053.71ZM1053.68 81.3553L1053.04 78.6528L1051.1 79.116L1051.74 81.8185L1053.68 81.3553ZM1053.07 78.8844V54.3049H1051.07V78.8844H1053.07ZM1053.07 54.3049C1053.07 48.8661 1051.46 44.5368 1048.11 41.471L1046.76 42.9453C1049.59 45.5418 1051.07 49.2771 1051.07 54.3049H1053.07ZM1048.13 41.4909C1044.87 38.3244 1040.03 36.8328 1033.79 36.8328V38.8328C1039.74 38.8328 1043.99 40.2581 1046.74 42.9255L1048.13 41.4909ZM1033.79 36.8328C1029.65 36.8328 1025.59 37.5393 1021.62 38.9496L1022.29 40.834C1026.05 39.4989 1029.88 38.8328 1033.79 38.8328V36.8328ZM1021.64 38.9431C1017.68 40.263 1014.3 42.0778 1011.53 44.4018L1012.82 45.9342C1015.37 43.7971 1018.51 42.0943 1022.27 40.8405L1021.64 38.9431ZM1013.05 44.6824L1007.9 35.4168L1006.15 36.3881L1011.3 45.6537L1013.05 44.6824ZM1007.65 36.6815C1011.06 33.9415 1015.14 31.8525 1019.92 30.4263L1019.35 28.5097C1014.35 30.0005 1010.03 32.2011 1006.4 35.1234L1007.65 36.6815ZM1019.94 30.4231C1024.81 28.9097 1029.9 28.1516 1035.21 28.1516V26.1516C1029.71 26.1516 1024.42 26.9378 1019.34 28.513L1019.94 30.4231ZM1035.21 28.1516C1044.41 28.1516 1051.34 30.3869 1056.16 34.716L1057.5 33.2282C1052.19 28.4633 1044.72 26.1516 1035.21 26.1516V28.1516ZM1056.16 34.716C1060.94 39.0103 1063.42 45.6417 1063.42 54.8197H1065.42C1065.42 45.2949 1062.84 38.0279 1057.5 33.2282L1056.16 34.716ZM1063.42 54.8197V96H1065.42V54.8197H1063.42ZM1064.42 95H1052.71V97H1064.42V95ZM1030.32 95.7721C1025.37 95.7721 1021.05 94.9335 1017.34 93.2845L1016.53 95.1122C1020.54 96.895 1025.15 97.7721 1030.32 97.7721V95.7721ZM1017.35 93.288C1013.72 91.6368 1010.95 89.3875 1009.01 86.555L1007.36 87.686C1009.54 90.8589 1012.61 93.3282 1016.52 95.1087L1017.35 93.288ZM1009.02 86.5658C1007.07 83.6484 1006.1 80.3683 1006.1 76.6967H1004.1C1004.1 80.7464 1005.18 84.4156 1007.35 87.6752L1009.02 86.5658ZM1006.1 76.6967C1006.1 73.1697 1006.92 69.9967 1008.54 67.1552L1006.8 66.1629C1004.99 69.3268 1004.1 72.8456 1004.1 76.6967H1006.1ZM1008.53 67.1735C1010.2 64.3817 1012.9 62.1 1016.71 60.3621L1015.88 58.5428C1011.79 60.4082 1008.74 62.9308 1006.81 66.1445L1008.53 67.1735ZM1016.7 60.3655C1020.55 58.6435 1025.8 57.75 1032.51 57.75V55.75C1025.66 55.75 1020.1 56.6581 1015.89 58.5394L1016.7 60.3655ZM1032.51 57.75H1054.13V55.75H1032.51V57.75ZM1053.13 56.75V65.6295H1055.13V56.75H1053.13ZM1054.13 64.6295H1033.02V66.6295H1054.13V64.6295ZM1033.02 64.6295C1029.89 64.6295 1027.21 64.8902 1025.03 65.4309C1022.85 65.9703 1021.09 66.8038 1019.85 67.9966L1021.23 69.4394C1022.13 68.5732 1023.53 67.8625 1025.51 67.3724C1027.49 66.8835 1029.98 66.6295 1033.02 66.6295V64.6295ZM1019.85 67.9966C1017.51 70.2401 1016.32 72.9869 1016.32 76.182H1018.32C1018.32 73.5432 1019.28 71.314 1021.23 69.4394L1019.85 67.9966ZM1016.32 76.182C1016.32 79.8391 1017.8 82.8328 1020.7 85.0801L1021.92 83.4986C1019.51 81.6278 1018.32 79.2166 1018.32 76.182H1016.32ZM1020.72 85.0924C1023.61 87.2377 1027.53 88.2492 1032.38 88.2492V86.2492C1027.79 86.2492 1024.34 85.2875 1021.91 83.4862L1020.72 85.0924ZM1032.38 88.2492C1037.16 88.2492 1041.38 87.1843 1044.99 85.0181L1043.96 83.3032C1040.71 85.2551 1036.86 86.2492 1032.38 86.2492V88.2492ZM1044.98 85.0237C1048.7 82.8463 1051.38 79.6637 1053 75.5169L1051.14 74.7881C1049.67 78.5341 1047.29 81.357 1043.97 83.2976L1044.98 85.0237ZM1051.11 75.4291L1053.55 83.9225L1055.47 83.3693L1053.03 74.8758L1051.11 75.4291ZM1053.59 83.2711C1052.05 87.078 1049.33 90.1318 1045.39 92.4338L1046.4 94.1613C1050.69 91.6589 1053.72 88.2783 1055.44 84.0207L1053.59 83.2711ZM1045.4 92.426C1041.47 94.6351 1036.47 95.7721 1030.32 95.7721V97.7721C1036.7 97.7721 1042.07 96.5927 1046.38 94.1691L1045.4 92.426Z" fill="#DDDDDD" mask="url(#path-1-outside-1_388_7)"/>
</svg>
