<svg width="814" height="97" viewBox="0 0 814 97" fill="none" xmlns="http://www.w3.org/2000/svg">
<mask id="path-1-outside-1_388_5" maskUnits="userSpaceOnUse" x="-1" y="-1" width="816" height="99" fill="black">
<rect fill="white" x="-1" y="-1" width="816" height="99"/>
<path d="M0.512297 96L0.512297 5.91802H11.0648L51.473 73.9943H45.8107L85.7041 5.91802H96.2566L96.3853 96H84.0312L83.9025 25.35H86.8623L51.3443 85.0615H45.4246L9.64918 25.35H12.8664L12.8664 96H0.512297ZM150.831 96.7721C143.967 96.7721 137.876 95.2708 132.557 92.268C127.238 89.2653 123.034 85.1473 119.945 79.9139C116.857 74.5948 115.313 68.5893 115.313 61.8975C115.313 55.1199 116.857 49.1145 119.945 43.8811C123.034 38.6478 127.238 34.5727 132.557 31.6557C137.876 28.653 143.967 27.1516 150.831 27.1516C157.608 27.1516 163.657 28.653 168.976 31.6557C174.381 34.5727 178.584 38.6478 181.587 43.8811C184.676 49.0287 186.22 55.0341 186.22 61.8975C186.22 68.6751 184.676 74.6806 181.587 79.9139C178.584 85.1473 174.381 89.2653 168.976 92.268C163.657 95.2708 157.608 96.7721 150.831 96.7721ZM150.831 85.9623C155.206 85.9623 159.11 84.9757 162.541 83.0025C166.059 81.0292 168.804 78.241 170.777 74.6377C172.751 70.9486 173.737 66.7019 173.737 61.8975C173.737 57.0074 172.751 52.8035 170.777 49.2861C168.804 45.6828 166.059 42.8945 162.541 40.9213C159.11 38.9481 155.206 37.9615 150.831 37.9615C146.455 37.9615 142.552 38.9481 139.12 40.9213C135.688 42.8945 132.943 45.6828 130.884 49.2861C128.825 52.8035 127.795 57.0074 127.795 61.8975C127.795 66.7019 128.825 70.9486 130.884 74.6377C132.943 78.241 135.688 81.0292 139.12 83.0025C142.552 84.9757 146.455 85.9623 150.831 85.9623ZM233.676 96.7721C226.383 96.7721 219.949 95.2708 214.373 92.268C208.882 89.2653 204.592 85.1473 201.504 79.9139C198.501 74.6806 197 68.6751 197 61.8975C197 55.1199 198.458 49.1145 201.375 43.8811C204.378 38.6478 208.453 34.5727 213.6 31.6557C218.834 28.653 224.711 27.1516 231.231 27.1516C237.837 27.1516 243.671 28.6101 248.732 31.527C253.794 34.444 257.741 38.562 260.572 43.8811C263.489 49.1145 264.947 55.2486 264.947 62.2836C264.947 62.7984 264.904 63.3989 264.818 64.0852C264.818 64.7716 264.776 65.415 264.69 66.0156H206.651V57.1361H258.255L253.236 60.2246C253.322 55.8492 252.421 51.9456 250.534 48.5139C248.647 45.0822 246.03 42.4227 242.684 40.5352C239.424 38.562 235.606 37.5754 231.231 37.5754C226.941 37.5754 223.123 38.562 219.777 40.5352C216.432 42.4227 213.815 45.1251 211.927 48.6426C210.04 52.0743 209.096 56.0208 209.096 60.482V62.541C209.096 67.088 210.126 71.1631 212.185 74.7664C214.33 78.2839 217.289 81.0292 221.064 83.0025C224.839 84.9757 229.172 85.9623 234.062 85.9623C238.094 85.9623 241.74 85.276 245 83.9033C248.346 82.5306 251.263 80.4716 253.751 77.7262L260.572 85.7049C257.483 89.3082 253.623 92.0536 248.99 93.941C244.443 95.8284 239.338 96.7721 233.676 96.7721ZM318.521 27.1516C324.097 27.1516 328.987 28.224 333.191 30.3688C337.481 32.5137 340.827 35.7738 343.229 40.1492C345.631 44.5246 346.832 50.0582 346.832 56.75V96H334.478V58.1656C334.478 51.5596 332.848 46.5836 329.588 43.2377C326.414 39.8918 321.91 38.2188 316.076 38.2188C311.7 38.2188 307.883 39.0768 304.622 40.7926C301.362 42.5085 298.831 45.0393 297.03 48.3852C295.314 51.7311 294.456 55.8921 294.456 60.868V96H282.102V27.7951H293.941V46.1975L292.011 41.3074C294.242 36.8462 297.673 33.3716 302.306 30.8836C306.939 28.3956 312.344 27.1516 318.521 27.1516ZM398.908 96.7721C392.044 96.7721 385.953 95.2708 380.634 92.268C375.315 89.2653 371.111 85.1473 368.023 79.9139C364.934 74.5948 363.39 68.5893 363.39 61.8975C363.39 55.1199 364.934 49.1145 368.023 43.8811C371.111 38.6478 375.315 34.5727 380.634 31.6557C385.953 28.653 392.044 27.1516 398.908 27.1516C405.685 27.1516 411.734 28.653 417.053 31.6557C422.458 34.5727 426.662 38.6478 429.664 43.8811C432.753 49.0287 434.297 55.0341 434.297 61.8975C434.297 68.6751 432.753 74.6806 429.664 79.9139C426.662 85.1473 422.458 89.2653 417.053 92.268C411.734 95.2708 405.685 96.7721 398.908 96.7721ZM398.908 85.9623C403.283 85.9623 407.187 84.9757 410.619 83.0025C414.136 81.0292 416.881 78.241 418.855 74.6377C420.828 70.9486 421.814 66.7019 421.814 61.8975C421.814 57.0074 420.828 52.8035 418.855 49.2861C416.881 45.6828 414.136 42.8945 410.619 40.9213C407.187 38.9481 403.283 37.9615 398.908 37.9615C394.532 37.9615 390.629 38.9481 387.197 40.9213C383.766 42.8945 381.02 45.6828 378.961 49.2861C376.902 52.8035 375.873 57.0074 375.873 61.8975C375.873 66.7019 376.902 70.9486 378.961 74.6377C381.02 78.241 383.766 81.0292 387.197 83.0025C390.629 84.9757 394.532 85.9623 398.908 85.9623ZM487.744 96V5.91802H500.613V96H487.744ZM545.341 96.7721C539.679 96.7721 534.274 96 529.127 94.4557C524.065 92.9115 520.076 91.024 517.159 88.7934L522.306 79.0131C525.223 80.9863 528.826 82.6593 533.116 84.032C537.406 85.4046 541.781 86.091 546.242 86.091C551.99 86.091 556.108 85.276 558.596 83.6459C561.17 82.0158 562.457 79.7423 562.457 76.8254C562.457 74.6806 561.685 73.0076 560.141 71.8066C558.596 70.6055 556.537 69.7046 553.964 69.1041C551.476 68.5035 548.687 67.9888 545.599 67.5598C542.51 67.0451 539.422 66.4445 536.333 65.7582C533.245 64.9861 530.414 63.9566 527.84 62.6697C525.266 61.297 523.207 59.4525 521.663 57.1361C520.118 54.7339 519.346 51.5596 519.346 47.6131C519.346 43.4951 520.504 39.8918 522.821 36.8033C525.137 33.7147 528.397 31.3555 532.601 29.7254C536.891 28.0096 541.953 27.1516 547.786 27.1516C552.248 27.1516 556.752 27.7093 561.299 28.8246C565.932 29.8541 569.706 31.3555 572.623 33.3287L567.347 43.109C564.259 41.05 561.041 39.6344 557.695 38.8623C554.35 38.0902 551.004 37.7041 547.658 37.7041C542.253 37.7041 538.221 38.6049 535.561 40.4066C532.901 42.1224 531.572 44.353 531.572 47.0984C531.572 49.4147 532.344 51.2164 533.888 52.5033C535.518 53.7044 537.577 54.6481 540.065 55.3344C542.639 56.0208 545.47 56.6213 548.559 57.1361C551.647 57.565 554.736 58.1656 557.824 58.9377C560.913 59.624 563.701 60.6107 566.189 61.8975C568.763 63.1844 570.822 64.9861 572.366 67.3025C573.996 69.6188 574.811 72.7074 574.811 76.568C574.811 80.6861 573.61 84.2464 571.208 87.2492C568.806 90.2519 565.417 92.6112 561.041 94.327C556.666 95.9571 551.433 96.7721 545.341 96.7721ZM619.463 96.7721C612.6 96.7721 606.508 95.2708 601.189 92.268C595.87 89.2653 591.666 85.1473 588.578 79.9139C585.489 74.5948 583.945 68.5893 583.945 61.8975C583.945 55.1199 585.489 49.1145 588.578 43.8811C591.666 38.6478 595.87 34.5727 601.189 31.6557C606.508 28.653 612.6 27.1516 619.463 27.1516C626.241 27.1516 632.289 28.653 637.608 31.6557C643.013 34.5727 647.217 38.6478 650.219 43.8811C653.308 49.0287 654.852 55.0341 654.852 61.8975C654.852 68.6751 653.308 74.6806 650.219 79.9139C647.217 85.1473 643.013 89.2653 637.608 92.268C632.289 95.2708 626.241 96.7721 619.463 96.7721ZM619.463 85.9623C623.838 85.9623 627.742 84.9757 631.174 83.0025C634.691 81.0292 637.436 78.241 639.41 74.6377C641.383 70.9486 642.369 66.7019 642.369 61.8975C642.369 57.0074 641.383 52.8035 639.41 49.2861C637.436 45.6828 634.691 42.8945 631.174 40.9213C627.742 38.9481 623.838 37.9615 619.463 37.9615C615.088 37.9615 611.184 38.9481 607.752 40.9213C604.321 42.8945 601.575 45.6828 599.516 49.2861C597.457 52.8035 596.428 57.0074 596.428 61.8975C596.428 66.7019 597.457 70.9486 599.516 74.6377C601.575 78.241 604.321 81.0292 607.752 83.0025C611.184 84.9757 615.088 85.9623 619.463 85.9623ZM700.12 96.7721C693.514 96.7721 687.595 95.3137 682.361 92.3967C677.214 89.4798 673.139 85.4046 670.136 80.1713C667.133 74.938 665.632 68.8467 665.632 61.8975C665.632 54.9484 667.133 48.9 670.136 43.7525C673.139 38.5191 677.214 34.444 682.361 31.527C687.595 28.6101 693.514 27.1516 700.12 27.1516C705.869 27.1516 711.059 28.4385 715.692 31.0123C720.325 33.5861 724.014 37.4467 726.759 42.5943C729.59 47.7418 731.006 54.1762 731.006 61.8975C731.006 69.6188 729.633 76.0533 726.888 81.2008C724.228 86.3484 720.582 90.2519 715.949 92.9115C711.316 95.4852 706.04 96.7721 700.12 96.7721ZM701.15 85.9623C705.44 85.9623 709.3 84.9757 712.732 83.0025C716.249 81.0292 718.995 78.241 720.968 74.6377C723.027 70.9486 724.057 66.7019 724.057 61.8975C724.057 57.0074 723.027 52.8035 720.968 49.2861C718.995 45.6828 716.249 42.8945 712.732 40.9213C709.3 38.9481 705.44 37.9615 701.15 37.9615C696.775 37.9615 692.871 38.9481 689.439 40.9213C686.008 42.8945 683.262 45.6828 681.203 49.2861C679.144 52.8035 678.115 57.0074 678.115 61.8975C678.115 66.7019 679.144 70.9486 681.203 74.6377C683.262 78.241 686.008 81.0292 689.439 83.0025C692.871 84.9757 696.775 85.9623 701.15 85.9623ZM724.443 96V77.5975L725.215 61.7688L723.928 45.9402V0.5131H736.282V96H724.443ZM801.996 96V81.5869L801.352 78.8844V54.3049C801.352 49.0716 799.808 45.0393 796.719 42.2082C793.717 39.2912 789.17 37.8328 783.078 37.8328C779.046 37.8328 775.1 38.5191 771.239 39.8918C767.378 41.1787 764.118 42.9374 761.459 45.168L756.311 35.9025C759.829 33.0713 764.032 30.9265 768.923 29.468C773.899 27.9238 779.089 27.1516 784.494 27.1516C793.845 27.1516 801.052 29.4251 806.114 33.9721C811.175 38.5191 813.706 45.4683 813.706 54.8197V96H801.996ZM779.604 96.7721C774.542 96.7721 770.081 95.9142 766.22 94.1984C762.445 92.4825 759.528 90.1232 757.469 87.1205C755.41 84.032 754.381 80.5574 754.381 76.6967C754.381 73.0076 755.239 69.6617 756.955 66.659C758.756 63.6563 761.63 61.2541 765.577 59.4525C769.609 57.6508 775.014 56.75 781.791 56.75H803.411V65.6295H782.306C776.129 65.6295 771.968 66.659 769.823 68.718C767.679 70.777 766.606 73.265 766.606 76.182C766.606 79.5279 767.936 82.2303 770.596 84.2893C773.255 86.2626 776.944 87.2492 781.663 87.2492C786.296 87.2492 790.328 86.2197 793.759 84.1607C797.277 82.1016 799.808 79.0989 801.352 75.1525L803.797 83.6459C802.167 87.6781 799.293 90.8954 795.175 93.2975C791.057 95.6139 785.867 96.7721 779.604 96.7721Z"/>
</mask>
<path d="M0.512297 96H-0.487703V97H0.512297V96ZM0.512297 5.91802V4.91802H-0.487703V5.91802H0.512297ZM11.0648 5.91802L11.9247 5.40759L11.6341 4.91802H11.0648V5.91802ZM51.473 73.9943V74.9943H53.2294L52.3329 73.4838L51.473 73.9943ZM45.8107 73.9943L44.9479 73.4887L44.0656 74.9943H45.8107V73.9943ZM85.7041 5.91802V4.91802H85.1311L84.8413 5.41242L85.7041 5.91802ZM96.2566 5.91802L97.2566 5.91659L97.2551 4.91802H96.2566V5.91802ZM96.3853 96V97H97.3867L97.3853 95.9986L96.3853 96ZM84.0312 96L83.0312 96.0018L83.033 97H84.0312V96ZM83.9025 25.35V24.35H82.9006L82.9025 25.3518L83.9025 25.35ZM86.8623 25.35L87.7218 25.8612L88.6207 24.35H86.8623V25.35ZM51.3443 85.0615V86.0615H51.913L52.2037 85.5727L51.3443 85.0615ZM45.4246 85.0615L44.5668 85.5754L44.858 86.0615H45.4246V85.0615ZM9.64918 25.35V24.35H7.8843L8.79137 25.8639L9.64918 25.35ZM12.8664 25.35H13.8664V24.35H12.8664V25.35ZM12.8664 96V97H13.8664V96H12.8664ZM1.5123 96L1.5123 5.91802H-0.487703L-0.487703 96H1.5123ZM0.512297 6.91802H11.0648V4.91802H0.512297V6.91802ZM10.2048 6.42844L50.613 74.5047L52.3329 73.4838L11.9247 5.40759L10.2048 6.42844ZM51.473 72.9943H45.8107V74.9943H51.473V72.9943ZM46.6734 74.4999L86.5669 6.42361L84.8413 5.41242L44.9479 73.4887L46.6734 74.4999ZM85.7041 6.91802H96.2566V4.91802H85.7041V6.91802ZM95.2566 5.91945L95.3853 96.0014L97.3853 95.9986L97.2566 5.91659L95.2566 5.91945ZM96.3853 95H84.0312V97H96.3853V95ZM85.0312 95.9982L84.9025 25.3482L82.9025 25.3518L83.0312 96.0018L85.0312 95.9982ZM83.9025 26.35H86.8623V24.35H83.9025V26.35ZM86.0029 24.8388L50.4848 84.5503L52.2037 85.5727L87.7218 25.8612L86.0029 24.8388ZM51.3443 84.0615H45.4246V86.0615H51.3443V84.0615ZM46.2824 84.5475L10.507 24.836L8.79137 25.8639L44.5668 85.5754L46.2824 84.5475ZM9.64918 26.35H12.8664V24.35H9.64918V26.35ZM11.8664 25.35L11.8664 96H13.8664L13.8664 25.35H11.8664ZM12.8664 95H0.512297V97H12.8664V95ZM132.557 92.268L133.048 91.3972L133.048 91.3972L132.557 92.268ZM119.945 79.9139L119.081 80.4161L119.084 80.4222L119.945 79.9139ZM119.945 43.8811L119.084 43.3729L119.084 43.3729L119.945 43.8811ZM132.557 31.6557L133.038 32.5326L133.048 32.5266L132.557 31.6557ZM168.976 31.6557L168.484 32.5266L168.492 32.5312L168.501 32.5358L168.976 31.6557ZM181.587 43.8811L180.72 44.3788L180.725 44.3873L180.73 44.3956L181.587 43.8811ZM181.587 79.9139L180.726 79.4056L180.72 79.4163L181.587 79.9139ZM168.976 92.268L168.49 91.3939L168.484 91.3972L168.976 92.268ZM162.541 83.0025L162.052 82.1303L162.043 82.1356L162.541 83.0025ZM170.777 74.6377L171.654 75.118L171.659 75.1094L170.777 74.6377ZM170.777 49.2861L169.9 49.7664L169.905 49.7753L170.777 49.2861ZM162.541 40.9213L162.043 41.7883L162.052 41.7934L162.541 40.9213ZM130.884 49.2861L131.747 49.7913L131.752 49.7822L130.884 49.2861ZM130.884 74.6377L130.011 75.1251L130.016 75.1338L130.884 74.6377ZM150.831 95.7721C144.118 95.7721 138.2 94.3052 133.048 91.3972L132.065 93.1389C137.552 96.2363 143.817 97.7721 150.831 97.7721V95.7721ZM133.048 91.3972C127.881 88.4803 123.805 84.487 120.807 79.4057L119.084 80.4222C122.262 85.8075 126.594 90.0503 132.065 93.1389L133.048 91.3972ZM120.81 79.4118C117.818 74.2585 116.313 68.429 116.313 61.8975L114.313 61.8975C114.313 68.7497 115.896 74.9312 119.081 80.4161L120.81 79.4118ZM116.313 61.8975C116.313 55.2776 117.819 49.4515 120.807 44.3894L119.084 43.3729C115.895 48.7774 114.313 54.9623 114.313 61.8975L116.313 61.8975ZM120.807 44.3894C123.804 39.3106 127.876 35.3629 133.038 32.5325L132.076 30.7789C126.599 33.7824 122.264 37.985 119.084 43.3729L120.807 44.3894ZM133.048 32.5266C138.2 29.6186 144.118 28.1516 150.831 28.1516V26.1516C143.817 26.1516 137.552 27.6874 132.065 30.7849L133.048 32.5266ZM150.831 28.1516C157.455 28.1516 163.331 29.6175 168.484 32.5266L169.467 30.7849C163.982 27.6885 157.761 26.1516 150.831 26.1516V28.1516ZM168.501 32.5358C173.745 35.3659 177.811 39.31 180.72 44.3788L182.454 43.3835C179.357 37.9856 175.016 33.7794 169.451 30.7757L168.501 32.5358ZM180.73 44.3956C183.712 49.3665 185.22 55.1889 185.22 61.8975H187.22C187.22 54.8794 185.639 48.6908 182.445 43.3666L180.73 44.3956ZM185.22 61.8975C185.22 68.5175 183.713 74.3435 180.726 79.4057L182.448 80.4222C185.638 75.0176 187.22 68.8328 187.22 61.8975H185.22ZM180.72 79.4163C177.81 84.4876 173.74 88.4773 168.49 91.3939L169.461 93.1422C175.021 90.0533 179.359 85.8069 182.454 80.4116L180.72 79.4163ZM168.484 91.3972C163.331 94.3063 157.455 95.7721 150.831 95.7721V97.7721C157.761 97.7721 163.982 96.2353 169.467 93.1389L168.484 91.3972ZM150.831 86.9623C155.362 86.9623 159.441 85.9387 163.04 83.8694L162.043 82.1356C158.778 84.0126 155.05 84.9623 150.831 84.9623V86.9623ZM163.03 83.8746C166.715 81.8079 169.593 78.8824 171.654 75.118L169.9 74.1574C168.015 77.5995 165.403 80.2506 162.052 82.1303L163.03 83.8746ZM171.659 75.1094C173.721 71.2549 174.737 66.8418 174.737 61.8975H172.737C172.737 66.562 171.78 70.6423 169.896 74.166L171.659 75.1094ZM174.737 61.8975C174.737 56.8723 173.723 52.4924 171.649 48.7968L169.905 49.7753C171.778 53.1147 172.737 57.1425 172.737 61.8975H174.737ZM171.654 48.8057C169.593 45.0413 166.715 42.1159 163.03 40.0492L162.052 41.7934C165.403 43.6732 168.015 46.3242 169.9 49.7664L171.654 48.8057ZM163.04 40.0544C159.441 37.985 155.362 36.9615 150.831 36.9615V38.9615C155.05 38.9615 158.778 39.9111 162.043 41.7882L163.04 40.0544ZM150.831 36.9615C146.299 36.9615 142.22 37.985 138.621 40.0544L139.618 41.7882C142.883 39.9111 146.611 38.9615 150.831 38.9615V36.9615ZM138.621 40.0544C135.028 42.1205 132.158 45.0402 130.016 48.7899L131.752 49.7822C133.727 46.3254 136.348 43.6685 139.618 41.7882L138.621 40.0544ZM130.021 48.7809C127.856 52.4796 126.795 56.8654 126.795 61.8975H128.795C128.795 57.1494 129.794 53.1275 131.747 49.7912L130.021 48.7809ZM126.795 61.8975C126.795 66.8488 127.858 71.2676 130.011 75.1251L131.757 74.1503C129.792 70.6297 128.795 66.555 128.795 61.8975H126.795ZM130.016 75.1338C132.158 78.8836 135.028 81.8032 138.621 83.8694L139.618 82.1356C136.348 80.2552 133.727 77.5984 131.752 74.1416L130.016 75.1338ZM138.621 83.8694C142.22 85.9387 146.299 86.9623 150.831 86.9623V84.9623C146.611 84.9623 142.883 84.0126 139.618 82.1356L138.621 83.8694ZM214.373 92.268L213.893 93.1454L213.898 93.1485L214.373 92.268ZM201.504 79.9139L200.636 80.4116L200.642 80.4222L201.504 79.9139ZM201.375 43.8811L200.508 43.3834L200.502 43.3943L201.375 43.8811ZM213.6 31.6557L214.093 32.5258L214.098 32.5231L213.6 31.6557ZM248.732 31.527L249.232 30.6606L249.232 30.6606L248.732 31.527ZM260.572 43.8811L259.689 44.351L259.694 44.3595L259.698 44.368L260.572 43.8811ZM264.818 64.0852L263.826 63.9612L263.818 64.023V64.0852H264.818ZM264.69 66.0156V67.0156H265.557L265.68 66.157L264.69 66.0156ZM206.651 66.0156H205.651V67.0156H206.651V66.0156ZM206.651 57.1361V56.1361H205.651V57.1361H206.651ZM258.255 57.1361L258.779 57.9877L261.788 56.1361H258.255V57.1361ZM253.236 60.2246L252.237 60.205L252.201 62.0361L253.761 61.0762L253.236 60.2246ZM250.534 48.5139L251.41 48.032L251.41 48.032L250.534 48.5139ZM242.684 40.5352L242.166 41.3907L242.179 41.3987L242.193 41.4062L242.684 40.5352ZM219.777 40.5352L220.269 41.4062L220.277 41.4015L220.285 41.3966L219.777 40.5352ZM211.927 48.6426L212.804 49.1246L212.809 49.1154L211.927 48.6426ZM212.185 74.7664L211.317 75.2625L211.324 75.2749L211.331 75.287L212.185 74.7664ZM221.064 83.0025L221.528 82.1162L221.528 82.1162L221.064 83.0025ZM245 83.9033L244.621 82.9781L244.612 82.9816L245 83.9033ZM253.751 77.7262L254.511 77.0764L253.773 76.2129L253.01 77.0547L253.751 77.7262ZM260.572 85.7049L261.331 86.3557L261.888 85.7058L261.332 85.0551L260.572 85.7049ZM248.99 93.941L248.612 93.0149L248.606 93.0174L248.99 93.941ZM233.676 95.7721C226.524 95.7721 220.257 94.3007 214.847 91.3876L213.898 93.1485C219.641 96.2409 226.243 97.7721 233.676 97.7721V95.7721ZM214.852 91.3907C209.515 88.4717 205.359 84.4791 202.365 79.4057L200.642 80.4222C203.825 85.8155 208.249 90.0589 213.893 93.1454L214.852 91.3907ZM202.371 79.4163C199.466 74.3524 198 68.5225 198 61.8975H196C196 68.8278 197.536 75.0088 200.636 80.4116L202.371 79.4163ZM198 61.8975C198 55.2676 199.425 49.4338 202.248 44.368L200.502 43.3943C197.491 48.7951 196 54.9722 196 61.8975H198ZM202.242 44.3788C205.158 39.2977 209.105 35.3525 214.093 32.5258L213.107 30.7857C207.801 33.7928 203.598 37.998 200.508 43.3835L202.242 44.3788ZM214.098 32.5231C219.168 29.6142 224.871 28.1516 231.231 28.1516V26.1516C224.55 26.1516 218.5 27.6918 213.103 30.7884L214.098 32.5231ZM231.231 28.1516C237.685 28.1516 243.342 29.575 248.233 32.3935L249.232 30.6606C243.999 27.6452 237.989 26.1516 231.231 26.1516V28.1516ZM248.233 32.3935C253.127 35.2137 256.943 39.1919 259.689 44.351L261.454 43.4113C258.538 37.9321 254.461 33.6742 249.232 30.6606L248.233 32.3935ZM259.698 44.368C262.519 49.4284 263.947 55.3892 263.947 62.2836H265.947C265.947 55.108 264.459 48.8005 261.445 43.3943L259.698 44.368ZM263.947 62.2836C263.947 62.7456 263.908 63.303 263.826 63.9612L265.811 64.2093C265.9 63.4948 265.947 62.8511 265.947 62.2836H263.947ZM263.818 64.0852C263.818 64.7303 263.778 65.3261 263.7 65.8741L265.68 66.157C265.773 65.504 265.818 64.8129 265.818 64.0852H263.818ZM264.69 65.0156H206.651V67.0156H264.69V65.0156ZM207.651 66.0156V57.1361H205.651V66.0156H207.651ZM206.651 58.1361H258.255V56.1361H206.651V58.1361ZM257.731 56.2844L252.712 59.3729L253.761 61.0762L258.779 57.9877L257.731 56.2844ZM254.236 60.2442C254.325 55.7147 253.392 51.6346 251.41 48.032L249.658 48.9958C251.451 52.2566 252.319 55.9837 252.237 60.205L254.236 60.2442ZM251.41 48.032C249.435 44.4407 246.687 41.6449 243.175 39.6643L242.193 41.4062C245.373 43.2004 247.858 45.7238 249.658 48.9958L251.41 48.032ZM243.202 39.6797C239.764 37.5987 235.761 36.5754 231.231 36.5754V38.5754C235.451 38.5754 239.084 39.5254 242.166 41.3907L243.202 39.6797ZM231.231 36.5754C226.782 36.5754 222.785 37.6006 219.269 39.6739L220.285 41.3966C223.462 39.5234 227.101 38.5754 231.231 38.5754V36.5754ZM219.286 39.6643C215.769 41.6486 213.02 44.4922 211.046 48.1698L212.809 49.1154C214.61 45.758 217.095 43.1968 220.269 41.4062L219.286 39.6643ZM211.051 48.1607C209.072 51.7595 208.096 55.876 208.096 60.482H210.096C210.096 56.1655 211.008 52.3891 212.804 49.1245L211.051 48.1607ZM208.096 60.482V62.541H210.096V60.482H208.096ZM208.096 62.541C208.096 67.2449 209.163 71.494 211.317 75.2625L213.053 74.2703C211.089 70.8323 210.096 66.931 210.096 62.541H208.096ZM211.331 75.287C213.574 78.965 216.671 81.8343 220.601 83.8887L221.528 82.1162C217.908 80.2242 215.086 77.6028 213.039 74.2458L211.331 75.287ZM220.601 83.8887C224.539 85.947 229.034 86.9623 234.062 86.9623V84.9623C229.309 84.9623 225.14 84.0043 221.528 82.1162L220.601 83.8887ZM234.062 86.9623C238.209 86.9623 241.99 86.2561 245.388 84.8249L244.612 82.9816C241.491 84.2959 237.979 84.9623 234.062 84.9623V86.9623ZM245.38 84.8284C248.867 83.3978 251.907 81.2507 254.492 78.3977L253.01 77.0547C250.62 79.6924 247.825 81.6634 244.621 82.9781L245.38 84.8284ZM252.991 78.376L259.812 86.3547L261.332 85.0551L254.511 77.0764L252.991 78.376ZM259.812 85.0541C256.833 88.53 253.106 91.1842 248.612 93.0149L249.367 94.8671C254.139 92.9229 258.133 90.0864 261.331 86.3557L259.812 85.0541ZM248.606 93.0174C244.198 94.8474 239.226 95.7721 233.676 95.7721V97.7721C239.45 97.7721 244.688 96.8094 249.373 94.8646L248.606 93.0174ZM333.191 30.3688L332.737 31.2596L332.744 31.2633L333.191 30.3688ZM346.832 96V97H347.832V96H346.832ZM334.478 96H333.478V97H334.478V96ZM329.588 43.2377L328.862 43.926L328.872 43.9356L329.588 43.2377ZM304.622 40.7926L304.157 39.9077L304.157 39.9077L304.622 40.7926ZM297.03 48.3852L296.149 47.9111L296.145 47.92L296.14 47.9289L297.03 48.3852ZM294.456 96V97H295.456V96H294.456ZM282.102 96H281.102V97H282.102V96ZM282.102 27.7951V26.7951H281.102V27.7951H282.102ZM293.941 27.7951H294.941V26.7951H293.941V27.7951ZM293.941 46.1975L293.011 46.5647L294.941 46.1975H293.941ZM292.011 41.3074L291.117 40.8602L290.917 41.2594L291.081 41.6745L292.011 41.3074ZM302.306 30.8836L301.833 30.0026L301.833 30.0026L302.306 30.8836ZM318.521 28.1516C323.968 28.1516 328.697 29.1985 332.737 31.2596L333.646 29.4781C329.278 27.2495 324.227 26.1516 318.521 26.1516V28.1516ZM332.744 31.2633C336.844 33.3133 340.044 36.4255 342.352 40.6304L344.106 39.6679C341.61 35.1221 338.118 31.714 333.638 29.4744L332.744 31.2633ZM342.352 40.6304C344.651 44.8166 345.832 50.1714 345.832 56.75H347.832C347.832 49.945 346.612 44.2325 344.106 39.6679L342.352 40.6304ZM345.832 56.75V96H347.832V56.75H345.832ZM346.832 95H334.478V97H346.832V95ZM335.478 96V58.1656H333.478V96H335.478ZM335.478 58.1656C335.478 51.4076 333.81 46.1381 330.304 42.5398L328.872 43.9356C331.886 47.0291 333.478 51.7115 333.478 58.1656H335.478ZM330.313 42.5494C326.903 38.9547 322.107 37.2188 316.076 37.2188V39.2188C321.712 39.2188 325.924 40.8288 328.863 43.926L330.313 42.5494ZM316.076 37.2188C311.568 37.2188 307.585 38.1033 304.157 39.9077L305.088 41.6775C308.18 40.0502 311.832 39.2188 316.076 39.2188V37.2188ZM304.157 39.9077C300.715 41.7192 298.042 44.396 296.149 47.9111L297.91 48.8593C299.621 45.6827 302.01 43.2977 305.088 41.6775L304.157 39.9077ZM296.14 47.9289C294.332 51.4542 293.456 55.7826 293.456 60.868H295.456C295.456 56.0015 296.296 52.0081 297.92 48.8416L296.14 47.9289ZM293.456 60.868V96H295.456V60.868H293.456ZM294.456 95H282.102V97H294.456V95ZM283.102 96V27.7951H281.102V96H283.102ZM282.102 28.7951H293.941V26.7951H282.102V28.7951ZM292.941 27.7951V46.1975H294.941V27.7951H292.941ZM294.871 45.8304L292.941 40.9402L291.081 41.6745L293.011 46.5647L294.871 45.8304ZM292.905 41.7546C295.038 37.4883 298.318 34.1605 302.779 31.7646L301.833 30.0026C297.029 32.5826 293.445 36.204 291.117 40.8602L292.905 41.7546ZM302.779 31.7646C307.243 29.3673 312.48 28.1516 318.521 28.1516V26.1516C312.208 26.1516 306.635 27.4239 301.833 30.0026L302.779 31.7646ZM380.634 92.268L381.126 91.3972L381.126 91.3972L380.634 92.268ZM368.023 79.9139L367.158 80.4161L367.161 80.4222L368.023 79.9139ZM368.023 43.8811L367.161 43.3729L367.161 43.3729L368.023 43.8811ZM380.634 31.6557L381.115 32.5326L381.126 32.5266L380.634 31.6557ZM417.053 31.6557L416.561 32.5266L416.57 32.5312L416.578 32.5358L417.053 31.6557ZM429.664 43.8811L428.797 44.3788L428.802 44.3873L428.807 44.3956L429.664 43.8811ZM429.664 79.9139L428.803 79.4056L428.797 79.4163L429.664 79.9139ZM417.053 92.268L416.567 91.3939L416.561 91.3972L417.053 92.268ZM410.619 83.0025L410.129 82.1303L410.12 82.1356L410.619 83.0025ZM418.855 74.6377L419.732 75.118L419.736 75.1094L418.855 74.6377ZM418.855 49.2861L417.977 49.7664L417.982 49.7753L418.855 49.2861ZM410.619 40.9213L410.12 41.7883L410.129 41.7934L410.619 40.9213ZM378.961 49.2861L379.824 49.7913L379.829 49.7822L378.961 49.2861ZM378.961 74.6377L378.088 75.1251L378.093 75.1338L378.961 74.6377ZM398.908 95.7721C392.195 95.7721 386.277 94.3052 381.126 91.3972L380.143 93.1389C385.629 96.2363 391.894 97.7721 398.908 97.7721V95.7721ZM381.126 91.3972C375.959 88.4803 371.883 84.487 368.884 79.4057L367.161 80.4222C370.34 85.8075 374.671 90.0503 380.143 93.1389L381.126 91.3972ZM368.887 79.4118C365.895 74.2585 364.39 68.429 364.39 61.8975H362.39C362.39 68.7497 363.973 74.9312 367.158 80.4161L368.887 79.4118ZM364.39 61.8975C364.39 55.2776 365.896 49.4515 368.884 44.3894L367.161 43.3729C363.972 48.7774 362.39 54.9623 362.39 61.8975H364.39ZM368.884 44.3894C371.881 39.3106 375.954 35.3629 381.115 32.5325L380.153 30.7789C374.676 33.7824 370.341 37.985 367.161 43.3729L368.884 44.3894ZM381.126 32.5266C386.277 29.6186 392.195 28.1516 398.908 28.1516V26.1516C391.894 26.1516 385.629 27.6874 380.143 30.7849L381.126 32.5266ZM398.908 28.1516C405.533 28.1516 411.408 29.6175 416.561 32.5266L417.545 30.7849C412.059 27.6885 405.838 26.1516 398.908 26.1516V28.1516ZM416.578 32.5358C421.822 35.3659 425.889 39.31 428.797 44.3788L430.532 43.3835C427.435 37.9856 423.094 33.7794 417.528 30.7757L416.578 32.5358ZM428.807 44.3956C431.789 49.3665 433.297 55.1889 433.297 61.8975H435.297C435.297 54.8794 433.716 48.6908 430.522 43.3666L428.807 44.3956ZM433.297 61.8975C433.297 68.5175 431.791 74.3435 428.803 79.4057L430.526 80.4222C433.715 75.0176 435.297 68.8328 435.297 61.8975H433.297ZM428.797 79.4163C425.887 84.4876 421.817 88.4773 416.567 91.3939L417.539 93.1422C423.099 90.0533 427.436 85.8069 430.532 80.4116L428.797 79.4163ZM416.561 91.3972C411.408 94.3063 405.533 95.7721 398.908 95.7721V97.7721C405.838 97.7721 412.059 96.2353 417.545 93.1389L416.561 91.3972ZM398.908 86.9623C403.439 86.9623 407.518 85.9387 411.117 83.8694L410.12 82.1356C406.856 84.0126 403.127 84.9623 398.908 84.9623V86.9623ZM411.108 83.8746C414.792 81.8079 417.67 78.8824 419.732 75.118L417.978 74.1574C416.093 77.5995 413.48 80.2506 410.129 82.1303L411.108 83.8746ZM419.736 75.1094C421.798 71.2549 422.814 66.8418 422.814 61.8975H420.814C420.814 66.562 419.858 70.6423 417.973 74.166L419.736 75.1094ZM422.814 61.8975C422.814 56.8723 421.8 52.4924 419.727 48.7968L417.982 49.7753C419.856 53.1147 420.814 57.1425 420.814 61.8975H422.814ZM419.732 48.8057C417.67 45.0413 414.792 42.1159 411.108 40.0492L410.129 41.7934C413.48 43.6732 416.093 46.3242 417.978 49.7664L419.732 48.8057ZM411.117 40.0544C407.518 37.985 403.439 36.9615 398.908 36.9615V38.9615C403.127 38.9615 406.856 39.9111 410.12 41.7882L411.117 40.0544ZM398.908 36.9615C394.376 36.9615 390.298 37.985 386.699 40.0544L387.696 41.7882C390.96 39.9111 394.689 38.9615 398.908 38.9615V36.9615ZM386.699 40.0544C383.105 42.1205 380.236 45.0402 378.093 48.7899L379.829 49.7822C381.805 46.3254 384.426 43.6685 387.696 41.7882L386.699 40.0544ZM378.098 48.7809C375.933 52.4796 374.873 56.8654 374.873 61.8975H376.873C376.873 57.1494 377.871 53.1275 379.824 49.7912L378.098 48.7809ZM374.873 61.8975C374.873 66.8488 375.935 71.2676 378.088 75.1251L379.834 74.1503C377.869 70.6297 376.873 66.555 376.873 61.8975H374.873ZM378.093 75.1338C380.236 78.8836 383.105 81.8032 386.699 83.8694L387.696 82.1356C384.426 80.2552 381.805 77.5984 379.829 74.1416L378.093 75.1338ZM386.699 83.8694C390.298 85.9387 394.376 86.9623 398.908 86.9623V84.9623C394.689 84.9623 390.96 84.0126 387.696 82.1356L386.699 83.8694ZM487.744 96H486.744V97H487.744V96ZM487.744 5.91802V4.91802H486.744V5.91802H487.744ZM500.613 5.91802H501.613V4.91802H500.613V5.91802ZM500.613 96V97H501.613V96H500.613ZM488.744 96V5.91802H486.744V96H488.744ZM487.744 6.91802H500.613V4.91802H487.744V6.91802ZM499.613 5.91802V96H501.613V5.91802H499.613ZM500.613 95H487.744V97H500.613V95ZM529.127 94.4557L528.835 95.4122L528.839 95.4136L529.127 94.4557ZM517.159 88.7934L516.274 88.3277L515.88 89.0749L516.551 89.5878L517.159 88.7934ZM522.306 79.0131L522.866 78.1848L521.941 77.5591L521.421 78.5474L522.306 79.0131ZM533.116 84.032L532.811 84.9844L532.811 84.9844L533.116 84.032ZM558.596 83.6459L558.061 82.8011L558.055 82.8052L558.048 82.8094L558.596 83.6459ZM553.964 69.1041L553.729 70.0762L553.736 70.0779L553.964 69.1041ZM545.599 67.5598L545.434 68.5462L545.448 68.5485L545.461 68.5503L545.599 67.5598ZM536.333 65.7582L536.091 66.7283L536.103 66.7315L536.116 66.7344L536.333 65.7582ZM527.84 62.6697L527.369 63.552L527.381 63.5582L527.393 63.5641L527.84 62.6697ZM521.663 57.1361L520.822 57.6768L520.826 57.6838L520.831 57.6908L521.663 57.1361ZM522.821 36.8033L523.621 37.4033L523.621 37.4033L522.821 36.8033ZM532.601 29.7254L532.963 30.6578L532.973 30.6539L532.601 29.7254ZM561.299 28.8246L561.061 29.7958L561.071 29.7984L561.082 29.8008L561.299 28.8246ZM572.623 33.3287L573.503 33.8035L573.933 33.0073L573.184 32.5004L572.623 33.3287ZM567.347 43.109L566.792 43.9411L567.706 44.5501L568.227 43.5838L567.347 43.109ZM557.695 38.8623L557.92 37.8879L557.92 37.8879L557.695 38.8623ZM535.561 40.4066L536.103 41.2468L536.113 41.2408L536.122 41.2345L535.561 40.4066ZM533.888 52.5033L533.248 53.2715L533.271 53.2906L533.295 53.3083L533.888 52.5033ZM540.065 55.3344L539.799 56.2984L539.807 56.3007L540.065 55.3344ZM548.559 57.1361L548.394 58.1225L548.408 58.1247L548.421 58.1266L548.559 57.1361ZM557.824 58.9377L557.582 59.9078L557.594 59.911L557.607 59.9139L557.824 58.9377ZM566.189 61.8975L565.729 62.7858L565.742 62.792L566.189 61.8975ZM572.366 67.3025L571.534 67.8572L571.541 67.8676L571.548 67.8779L572.366 67.3025ZM571.208 87.2492L571.989 87.8739L571.989 87.8739L571.208 87.2492ZM561.041 94.327L561.39 95.2641L561.399 95.2611L561.406 95.258L561.041 94.327ZM545.341 95.7721C539.771 95.7721 534.463 95.0127 529.414 93.4979L528.839 95.4136C534.085 96.9873 539.587 97.7721 545.341 97.7721V95.7721ZM529.418 93.4993C524.425 91.9758 520.556 90.1329 517.766 87.9991L516.551 89.5878C519.595 91.9152 523.705 93.8472 528.835 95.4122L529.418 93.4993ZM518.044 89.2592L523.191 79.4789L521.421 78.5474L516.274 88.3277L518.044 89.2592ZM521.746 79.8414C524.76 81.8804 528.455 83.5904 532.811 84.9844L533.421 83.0795C529.198 81.7282 525.686 80.0923 522.866 78.1848L521.746 79.8414ZM532.811 84.9844C537.198 86.3883 541.677 87.091 546.242 87.091V85.091C541.885 85.091 537.613 84.421 533.421 83.0795L532.811 84.9844ZM546.242 87.091C552.033 87.091 556.401 86.2797 559.144 84.4824L558.048 82.8094C555.816 84.2722 551.948 85.091 546.242 85.091V87.091ZM559.131 84.4907C561.979 82.6872 563.457 80.103 563.457 76.8254H561.457C561.457 79.3817 560.361 81.3445 558.061 82.8011L559.131 84.4907ZM563.457 76.8254C563.457 74.4061 562.568 72.4278 560.755 71.0172L559.527 72.5959C560.802 73.5875 561.457 74.9551 561.457 76.8254H563.457ZM560.755 71.0172C559.064 69.702 556.858 68.7527 554.191 68.1303L553.736 70.0779C556.216 70.6566 558.129 71.5089 559.527 72.5959L560.755 71.0172ZM554.198 68.132C551.672 67.5223 548.851 67.0019 545.736 66.5693L545.461 68.5503C548.524 68.9757 551.279 69.4848 553.729 70.0762L554.198 68.132ZM545.763 66.5734C542.692 66.0616 539.621 65.4645 536.55 64.782L536.116 66.7344C539.222 67.4245 542.328 68.0285 545.434 68.5462L545.763 66.5734ZM536.576 64.788C533.551 64.0318 530.789 63.0263 528.287 61.7752L527.393 63.5641C530.038 64.8869 532.939 65.9404 536.091 66.7283L536.576 64.788ZM528.31 61.7873C525.875 60.4885 523.943 58.7537 522.495 56.5814L520.831 57.6908C522.471 60.1512 524.657 62.1055 527.369 63.552L528.31 61.7873ZM522.504 56.5953C521.096 54.405 520.346 51.4384 520.346 47.6131H518.346C518.346 51.6807 519.141 55.0628 520.822 57.6768L522.504 56.5953ZM520.346 47.6131C520.346 43.6961 521.443 40.3068 523.621 37.4033L522.021 36.2033C519.566 39.4768 518.346 43.2941 518.346 47.6131H520.346ZM523.621 37.4033C525.807 34.488 528.904 32.2317 532.963 30.6578L532.24 28.793C527.891 30.4792 524.467 32.9415 522.021 36.2033L523.621 37.4033ZM532.973 30.6539C537.118 28.9959 542.048 28.1516 547.786 28.1516V26.1516C541.857 26.1516 536.664 27.0232 532.23 28.7969L532.973 30.6539ZM547.786 28.1516C552.164 28.1516 556.588 28.6987 561.061 29.7958L561.537 27.8534C556.916 26.7199 552.332 26.1516 547.786 26.1516V28.1516ZM561.082 29.8008C565.632 30.8119 569.28 32.274 572.063 34.157L573.184 32.5004C570.133 30.4369 566.231 28.8963 561.516 27.8484L561.082 29.8008ZM571.743 32.8539L566.467 42.6342L568.227 43.5838L573.503 33.8035L571.743 32.8539ZM567.902 42.277C564.721 40.1564 561.393 38.6893 557.92 37.8879L557.471 39.8367C560.69 40.5795 563.796 41.9436 566.792 43.9411L567.902 42.277ZM557.92 37.8879C554.503 37.0992 551.081 36.7041 547.658 36.7041V38.7041C550.926 38.7041 554.197 39.0811 557.471 39.8367L557.92 37.8879ZM547.658 36.7041C542.175 36.7041 537.904 37.6117 535 39.5786L536.122 41.2345C538.537 39.5981 542.33 38.7041 547.658 38.7041V36.7041ZM535.019 39.5663C532.125 41.4333 530.572 43.9567 530.572 47.0984H532.572C532.572 44.7493 533.678 42.8115 536.103 41.2468L535.019 39.5663ZM530.572 47.0984C530.572 49.661 531.44 51.7645 533.248 53.2715L534.528 51.735C533.248 50.6683 532.572 49.1685 532.572 47.0984H530.572ZM533.295 53.3083C535.046 54.5988 537.224 55.5881 539.799 56.2984L540.331 54.3704C537.93 53.7081 535.99 52.8099 534.481 51.6982L533.295 53.3083ZM539.807 56.3007C542.417 56.9965 545.28 57.6033 548.394 58.1225L548.723 56.1497C545.661 55.6393 542.861 55.0451 540.323 54.3682L539.807 56.3007ZM548.421 58.1266C551.473 58.5505 554.527 59.1442 557.582 59.9078L558.067 57.9676C554.944 57.187 551.821 56.5795 548.696 56.1456L548.421 58.1266ZM557.607 59.9139C560.622 60.5839 563.327 61.5433 565.73 62.7858L566.648 61.0093C564.075 59.678 561.203 58.6642 558.041 57.9615L557.607 59.9139ZM565.742 62.792C568.165 64.0038 570.09 65.6906 571.534 67.8572L573.198 66.7478C571.554 64.2816 569.36 62.3651 566.636 61.0031L565.742 62.792ZM571.548 67.8779C573.024 69.9746 573.811 72.8402 573.811 76.568H575.811C575.811 72.5745 574.968 69.2631 573.184 66.727L571.548 67.8779ZM573.811 76.568C573.811 80.4763 572.677 83.8121 570.427 86.6245L571.989 87.8739C574.543 84.6808 575.811 80.8959 575.811 76.568H573.811ZM570.427 86.6245C568.156 89.4631 564.925 91.73 560.676 93.3961L561.406 95.258C565.909 93.4924 569.455 91.0407 571.989 87.8739L570.427 86.6245ZM560.692 93.39C556.457 94.9679 551.348 95.7721 545.341 95.7721V97.7721C551.517 97.7721 556.875 96.9463 561.39 95.2641L560.692 93.39ZM601.189 92.268L601.681 91.3972L601.681 91.3972L601.189 92.268ZM588.578 79.9139L587.713 80.4161L587.716 80.4222L588.578 79.9139ZM588.578 43.8811L587.716 43.3729L587.716 43.3729L588.578 43.8811ZM601.189 31.6557L601.67 32.5326L601.681 32.5266L601.189 31.6557ZM637.608 31.6557L637.116 32.5266L637.125 32.5312L637.133 32.5358L637.608 31.6557ZM650.219 43.8811L649.352 44.3788L649.357 44.3873L649.362 44.3956L650.219 43.8811ZM650.219 79.9139L649.358 79.4056L649.352 79.4163L650.219 79.9139ZM637.608 92.268L637.122 91.3939L637.116 91.3972L637.608 92.268ZM631.174 83.0025L630.684 82.1303L630.675 82.1356L631.174 83.0025ZM639.41 74.6377L640.287 75.118L640.291 75.1094L639.41 74.6377ZM639.41 49.2861L638.533 49.7664L638.538 49.7753L639.41 49.2861ZM631.174 40.9213L630.675 41.7883L630.684 41.7934L631.174 40.9213ZM599.516 49.2861L600.379 49.7913L600.384 49.7822L599.516 49.2861ZM599.516 74.6377L598.643 75.1251L598.648 75.1338L599.516 74.6377ZM619.463 95.7721C612.75 95.7721 606.832 94.3052 601.681 91.3972L600.698 93.1389C606.185 96.2363 612.449 97.7721 619.463 97.7721V95.7721ZM601.681 91.3972C596.514 88.4803 592.438 84.487 589.439 79.4057L587.716 80.4222C590.895 85.8075 595.226 90.0503 600.698 93.1389L601.681 91.3972ZM589.442 79.4118C586.45 74.2585 584.945 68.429 584.945 61.8975H582.945C582.945 68.7497 584.528 74.9312 587.713 80.4161L589.442 79.4118ZM584.945 61.8975C584.945 55.2776 586.451 49.4515 589.439 44.3894L587.716 43.3729C584.527 48.7774 582.945 54.9623 582.945 61.8975H584.945ZM589.439 44.3894C592.436 39.3106 596.509 35.3629 601.67 32.5325L600.708 30.7789C595.231 33.7824 590.896 37.985 587.716 43.3729L589.439 44.3894ZM601.681 32.5266C606.832 29.6186 612.75 28.1516 619.463 28.1516V26.1516C612.449 26.1516 606.185 27.6874 600.698 30.7849L601.681 32.5266ZM619.463 28.1516C626.088 28.1516 631.963 29.6175 637.116 32.5266L638.1 30.7849C632.615 27.6885 626.393 26.1516 619.463 26.1516V28.1516ZM637.133 32.5358C642.377 35.3659 646.444 39.31 649.352 44.3788L651.087 43.3835C647.99 37.9856 643.649 33.7794 638.083 30.7757L637.133 32.5358ZM649.362 44.3956C652.345 49.3665 653.852 55.1889 653.852 61.8975H655.852C655.852 54.8794 654.272 48.6908 651.077 43.3666L649.362 44.3956ZM653.852 61.8975C653.852 68.5175 652.346 74.3435 649.358 79.4057L651.081 80.4222C654.27 75.0176 655.852 68.8328 655.852 61.8975H653.852ZM649.352 79.4163C646.442 84.4876 642.372 88.4773 637.122 91.3939L638.094 93.1422C643.654 90.0533 647.991 85.8069 651.087 80.4116L649.352 79.4163ZM637.116 91.3972C631.963 94.3063 626.088 95.7721 619.463 95.7721V97.7721C626.393 97.7721 632.615 96.2353 638.1 93.1389L637.116 91.3972ZM619.463 86.9623C623.994 86.9623 628.073 85.9387 631.672 83.8694L630.675 82.1356C627.411 84.0126 623.682 84.9623 619.463 84.9623V86.9623ZM631.663 83.8746C635.347 81.8079 638.225 78.8824 640.287 75.118L638.533 74.1574C636.648 77.5995 634.035 80.2506 630.684 82.1303L631.663 83.8746ZM640.291 75.1094C642.353 71.2549 643.369 66.8418 643.369 61.8975H641.369C641.369 66.562 640.413 70.6423 638.528 74.166L640.291 75.1094ZM643.369 61.8975C643.369 56.8723 642.355 52.4924 640.282 48.7968L638.538 49.7753C640.411 53.1147 641.369 57.1425 641.369 61.8975H643.369ZM640.287 48.8057C638.225 45.0413 635.347 42.1159 631.663 40.0492L630.684 41.7934C634.035 43.6732 636.648 46.3242 638.533 49.7664L640.287 48.8057ZM631.672 40.0544C628.073 37.985 623.994 36.9615 619.463 36.9615V38.9615C623.682 38.9615 627.411 39.9111 630.675 41.7882L631.672 40.0544ZM619.463 36.9615C614.931 36.9615 610.853 37.985 607.254 40.0544L608.251 41.7882C611.515 39.9111 615.244 38.9615 619.463 38.9615V36.9615ZM607.254 40.0544C603.661 42.1205 600.791 45.0402 598.648 48.7899L600.384 49.7822C602.36 46.3254 604.981 43.6685 608.251 41.7882L607.254 40.0544ZM598.653 48.7809C596.488 52.4796 595.428 56.8654 595.428 61.8975H597.428C597.428 57.1494 598.426 53.1275 600.379 49.7912L598.653 48.7809ZM595.428 61.8975C595.428 66.8488 596.49 71.2676 598.643 75.1251L600.389 74.1503C598.424 70.6297 597.428 66.555 597.428 61.8975H595.428ZM598.648 75.1338C600.791 78.8836 603.661 81.8032 607.254 83.8694L608.251 82.1356C604.981 80.2552 602.36 77.5984 600.384 74.1416L598.648 75.1338ZM607.254 83.8694C610.853 85.9387 614.931 86.9623 619.463 86.9623V84.9623C615.244 84.9623 611.515 84.0126 608.251 82.1356L607.254 83.8694ZM682.361 92.3967L681.868 93.2668L681.875 93.2702L682.361 92.3967ZM670.136 80.1713L671.003 79.6736L670.136 80.1713ZM670.136 43.7525L671 44.2563L671.003 44.2501L670.136 43.7525ZM682.361 31.527L681.875 30.6535L681.868 30.657L682.361 31.527ZM715.692 31.0123L715.206 31.8864L715.206 31.8864L715.692 31.0123ZM726.759 42.5943L725.877 43.0649L725.883 43.0762L726.759 42.5943ZM726.888 81.2008L726.005 80.7302L725.999 80.7418L726.888 81.2008ZM715.949 92.9115L716.435 93.7857L716.447 93.7787L715.949 92.9115ZM712.732 83.0025L712.243 82.1303L712.234 82.1356L712.732 83.0025ZM720.968 74.6377L720.095 74.1503L720.091 74.1574L720.968 74.6377ZM720.968 49.2861L720.091 49.7664L720.098 49.7789L720.105 49.7912L720.968 49.2861ZM712.732 40.9213L712.233 41.7883L712.243 41.7934L712.732 40.9213ZM681.203 49.2861L682.066 49.7913L682.072 49.7822L681.203 49.2861ZM681.203 74.6377L680.33 75.1251L680.335 75.1338L681.203 74.6377ZM724.443 96H723.443V97H724.443V96ZM724.443 77.5975L723.444 77.5488L723.443 77.5732V77.5975H724.443ZM725.215 61.7688L726.214 61.8176L726.217 61.7526L726.211 61.6878L725.215 61.7688ZM723.928 45.9402H722.928V45.9807L722.931 46.0212L723.928 45.9402ZM723.928 0.5131V-0.4869L722.928 -0.4869V0.5131L723.928 0.5131ZM736.282 0.5131H737.282V-0.4869H736.282V0.5131ZM736.282 96V97H737.282V96H736.282ZM700.12 95.7721C693.667 95.7721 687.918 94.3489 682.848 91.5232L681.875 93.2702C687.272 96.2784 693.362 97.7721 700.12 97.7721V95.7721ZM682.854 91.5267C677.866 88.6999 673.919 84.7548 671.003 79.6736L669.269 80.669C672.359 86.0545 676.562 90.2596 681.868 93.2667L682.854 91.5267ZM671.003 79.6736C668.1 74.6135 666.632 68.6989 666.632 61.8975H664.632C664.632 68.9945 666.167 75.2625 669.269 80.669L671.003 79.6736ZM666.632 61.8975C666.632 55.0957 668.1 49.2271 671 44.2563L669.272 43.2486C666.166 48.5728 664.632 54.801 664.632 61.8975H666.632ZM671.003 44.2501C673.919 39.169 677.866 35.2238 682.854 32.3971L681.868 30.657C676.562 33.6641 672.359 37.8693 669.269 43.2548L671.003 44.2501ZM682.848 32.4005C687.918 29.5748 693.667 28.1516 700.12 28.1516V26.1516C693.362 26.1516 687.272 27.6454 681.875 30.6536L682.848 32.4005ZM700.12 28.1516C705.713 28.1516 710.734 29.4021 715.206 31.8864L716.177 30.1381C711.384 27.4749 706.024 26.1516 700.12 26.1516V28.1516ZM715.206 31.8864C719.654 34.3574 723.212 38.0694 725.877 43.0648L727.641 42.1237C724.815 36.824 720.995 32.8147 716.177 30.1381L715.206 31.8864ZM725.883 43.0762C728.611 48.0369 730.006 54.2935 730.006 61.8975H732.006C732.006 54.059 730.569 47.4467 727.635 42.1123L725.883 43.0762ZM730.006 61.8975C730.006 69.5058 728.653 75.7668 726.005 80.7302L727.77 81.6714C730.614 76.3398 732.006 69.7318 732.006 61.8975H730.006ZM725.999 80.7418C723.42 85.7336 719.903 89.4885 715.451 92.0442L716.447 93.7787C721.261 91.0154 725.036 86.9631 727.776 81.6598L725.999 80.7418ZM715.464 92.0373C710.996 94.5192 705.89 95.7721 700.12 95.7721V97.7721C706.19 97.7721 711.637 96.4512 716.435 93.7856L715.464 92.0373ZM701.15 86.9623C705.599 86.9623 709.635 85.937 713.23 83.8694L712.234 82.1356C708.966 84.0143 705.28 84.9623 701.15 84.9623V86.9623ZM713.221 83.8746C716.905 81.8079 719.784 78.8824 721.845 75.118L720.091 74.1574C718.206 77.5995 715.594 80.2506 712.243 82.1303L713.221 83.8746ZM721.841 75.1251C723.994 71.2676 725.057 66.8488 725.057 61.8975H723.057C723.057 66.555 722.06 70.6297 720.095 74.1503L721.841 75.1251ZM725.057 61.8975C725.057 56.8654 723.996 52.4796 721.831 48.7809L720.105 49.7912C722.058 53.1275 723.057 57.1494 723.057 61.8975H725.057ZM721.845 48.8057C719.784 45.0413 716.905 42.1159 713.221 40.0492L712.243 41.7934C715.594 43.6732 718.206 46.3242 720.091 49.7664L721.845 48.8057ZM713.23 40.0544C709.635 37.9867 705.599 36.9615 701.15 36.9615V38.9615C705.28 38.9615 708.966 39.9094 712.234 41.7882L713.23 40.0544ZM701.15 36.9615C696.619 36.9615 692.54 37.985 688.941 40.0544L689.938 41.7882C693.202 39.9111 696.931 38.9615 701.15 38.9615V36.9615ZM688.941 40.0544C685.348 42.1205 682.478 45.0402 680.335 48.7899L682.072 49.7822C684.047 46.3254 686.668 43.6685 689.938 41.7882L688.941 40.0544ZM680.34 48.7809C678.175 52.4796 677.115 56.8654 677.115 61.8975H679.115C679.115 57.1494 680.113 53.1275 682.066 49.7912L680.34 48.7809ZM677.115 61.8975C677.115 66.8488 678.177 71.2676 680.33 75.1251L682.076 74.1503C680.111 70.6297 679.115 66.555 679.115 61.8975H677.115ZM680.335 75.1338C682.478 78.8836 685.348 81.8032 688.941 83.8694L689.938 82.1356C686.668 80.2552 684.047 77.5984 682.072 74.1416L680.335 75.1338ZM688.941 83.8694C692.54 85.9387 696.619 86.9623 701.15 86.9623V84.9623C696.931 84.9623 693.202 84.0126 689.938 82.1356L688.941 83.8694ZM725.443 96V77.5975H723.443V96H725.443ZM725.441 77.6463L726.214 61.8176L724.216 61.7201L723.444 77.5488L725.441 77.6463ZM726.211 61.6878L724.925 45.8591L722.931 46.0212L724.218 61.8499L726.211 61.6878ZM724.928 45.9402V0.5131L722.928 0.5131V45.9402H724.928ZM723.928 1.5131H736.282V-0.4869H723.928V1.5131ZM735.282 0.5131V96H737.282V0.5131H735.282ZM736.282 95H724.443V97H736.282V95ZM801.996 96H800.996V97H801.996V96ZM801.996 81.5869H802.996V81.4695L802.968 81.3553L801.996 81.5869ZM801.352 78.8844H800.352V79.0018L800.379 79.116L801.352 78.8844ZM796.719 42.2082L796.023 42.9255L796.033 42.9356L796.044 42.9453L796.719 42.2082ZM771.239 39.8918L771.555 40.8405L771.565 40.8373L771.574 40.834L771.239 39.8918ZM761.459 45.168L760.584 45.6537L761.173 46.7128L762.101 45.9342L761.459 45.168ZM756.311 35.9025L755.684 35.1234L755.028 35.6517L755.437 36.3881L756.311 35.9025ZM768.923 29.468L769.208 30.4264L769.219 30.4231L768.923 29.468ZM813.706 96V97H814.706V96H813.706ZM766.22 94.1984L765.806 95.1088L765.814 95.1122L766.22 94.1984ZM757.469 87.1205L756.637 87.6752L756.645 87.686L757.469 87.1205ZM756.955 66.659L756.097 66.1445L756.092 66.1536L756.086 66.1629L756.955 66.659ZM765.577 59.4525L765.169 58.5394L765.161 58.5428L765.577 59.4525ZM803.411 56.75H804.411V55.75H803.411V56.75ZM803.411 65.6295V66.6295H804.411V65.6295H803.411ZM769.823 68.718L769.131 67.9966L769.131 67.9966L769.823 68.718ZM770.596 84.2893L769.983 85.0801L769.991 85.0863L770 85.0924L770.596 84.2893ZM793.759 84.1607L793.254 83.2976L793.245 83.3032L793.759 84.1607ZM801.352 75.1525L802.313 74.8758L801.496 72.0392L800.421 74.7881L801.352 75.1525ZM803.797 83.6459L804.724 84.0207L804.854 83.7008L804.758 83.3693L803.797 83.6459ZM795.175 93.2975L795.665 94.1691L795.672 94.1653L795.679 94.1613L795.175 93.2975ZM802.996 96V81.5869H800.996V96H802.996ZM802.968 81.3553L802.325 78.6528L800.379 79.116L801.023 81.8185L802.968 81.3553ZM802.352 78.8844V54.3049H800.352V78.8844H802.352ZM802.352 54.3049C802.352 48.8661 800.74 44.5368 797.395 41.471L796.044 42.9453C798.876 45.5418 800.352 49.2771 800.352 54.3049H802.352ZM797.416 41.4909C794.156 38.3244 789.312 36.8328 783.078 36.8328V38.8328C789.027 38.8328 793.277 40.2581 796.023 42.9255L797.416 41.4909ZM783.078 36.8328C778.93 36.8328 774.87 37.5393 770.904 38.9496L771.574 40.834C775.329 39.4989 779.162 38.8328 783.078 38.8328V36.8328ZM770.923 38.9431C766.963 40.263 763.587 42.0778 760.816 44.4018L762.101 45.9342C764.649 43.7971 767.794 42.0943 771.555 40.8405L770.923 38.9431ZM762.333 44.6824L757.185 35.4168L755.437 36.3881L760.584 45.6537L762.333 44.6824ZM756.938 36.6815C760.342 33.9415 764.426 31.8525 769.208 30.4263L768.637 28.5097C763.638 30.0005 759.315 32.2011 755.684 35.1234L756.938 36.6815ZM769.219 30.4231C774.095 28.9097 779.186 28.1516 784.494 28.1516V26.1516C778.992 26.1516 773.702 26.9378 768.626 28.513L769.219 30.4231ZM784.494 28.1516C793.691 28.1516 800.626 30.3869 805.445 34.716L806.782 33.2282C801.478 28.4633 793.999 26.1516 784.494 26.1516V28.1516ZM805.445 34.716C810.226 39.0103 812.706 45.6417 812.706 54.8197H814.706C814.706 45.2949 812.125 38.0279 806.782 33.2282L805.445 34.716ZM812.706 54.8197V96H814.706V54.8197H812.706ZM813.706 95H801.996V97H813.706V95ZM779.604 95.7721C774.655 95.7721 770.336 94.9335 766.626 93.2845L765.814 95.1122C769.825 96.895 774.429 97.7721 779.604 97.7721V95.7721ZM766.634 93.288C763.001 91.6368 760.236 89.3875 758.294 86.555L756.645 87.686C758.82 90.8589 761.889 93.3282 765.806 95.1087L766.634 93.288ZM758.301 86.5658C756.356 83.6484 755.381 80.3683 755.381 76.6967H753.381C753.381 80.7464 754.464 84.4156 756.637 87.6752L758.301 86.5658ZM755.381 76.6967C755.381 73.1697 756.199 69.9967 757.823 67.1552L756.086 66.1629C754.278 69.3268 753.381 72.8456 753.381 76.6967H755.381ZM757.812 67.1735C759.487 64.3817 762.185 62.1 765.992 60.3621L765.161 58.5428C761.075 60.4082 758.025 62.9308 756.097 66.1445L757.812 67.1735ZM765.985 60.3655C769.838 58.6435 775.087 57.75 781.791 57.75V55.75C774.941 55.75 769.379 56.6581 765.169 58.5394L765.985 60.3655ZM781.791 57.75H803.411V55.75H781.791V57.75ZM802.411 56.75V65.6295H804.411V56.75H802.411ZM803.411 64.6295H782.306V66.6295H803.411V64.6295ZM782.306 64.6295C779.169 64.6295 776.498 64.8902 774.313 65.4309C772.133 65.9703 770.373 66.8038 769.131 67.9966L770.516 69.4394C771.418 68.5732 772.812 67.8625 774.793 67.3724C776.769 66.8835 779.266 66.6295 782.306 66.6295V64.6295ZM769.131 67.9966C766.794 70.2401 765.606 72.9869 765.606 76.182H767.606C767.606 73.5432 768.563 71.314 770.516 69.4394L769.131 67.9966ZM765.606 76.182C765.606 79.8391 767.081 82.8328 769.983 85.0801L771.208 83.4986C768.791 81.6278 767.606 79.2166 767.606 76.182H765.606ZM770 85.0924C772.891 87.2377 776.818 88.2492 781.663 88.2492V86.2492C777.07 86.2492 773.619 85.2875 771.191 83.4862L770 85.0924ZM781.663 88.2492C786.448 88.2492 790.664 87.1843 794.274 85.0181L793.245 83.3032C789.992 85.2551 786.143 86.2492 781.663 86.2492V88.2492ZM794.265 85.0237C797.984 82.8463 800.661 79.6637 802.283 75.5169L800.421 74.7881C798.955 78.5341 796.57 81.357 793.254 83.2976L794.265 85.0237ZM800.391 75.4291L802.836 83.9225L804.758 83.3693L802.313 74.8758L800.391 75.4291ZM802.87 83.2711C801.331 87.078 798.617 90.1318 794.671 92.4338L795.679 94.1613C799.969 91.6589 803.003 88.2783 804.724 84.0207L802.87 83.2711ZM794.685 92.426C790.757 94.6351 785.749 95.7721 779.604 95.7721V97.7721C785.984 97.7721 791.357 96.5927 795.665 94.1691L794.685 92.426Z" fill="#DDDDDD" mask="url(#path-1-outside-1_388_5)"/>
</svg>
