<svg width="110" height="351" viewBox="0 0 110 351" fill="none" xmlns="http://www.w3.org/2000/svg">
<path d="M19.4858 63.0533L22.1736 57.9822L16.935 52.3324L14.8107 47.1623L14.1025 37.8425L15.5188 26.5201L17.2168 17.581L21.5493 9.79158L26.5138 5.2611L35.7194 1.85753L42.6864 1.63672L49.2956 2.74079L55.3185 6.67735L60.0089 13.6216L63.1155 24.2282L63.8236 35.9922L62.552 45.2207L60.8541 48.1674L59.4378 53.8553L57.4809 55.972L54.1687 58.8883L51.4809 58.4771C50.3159 58.302 49.1814 57.9822 48.1002 57.5253C46.6915 56.939 45.1992 56.5736 43.6763 56.4517L40.3793 56.1852L38.8717 57.4492L40.9047 64.4695L22.7447 66.0305L19.4858 63.0533Z" fill="white"/>
<path d="M10.6076 170.994C7.85881 170.4 5.2395 169.829 2.6202 169.265C2.55929 169.25 2.50599 169.235 2.44507 169.227C0.533894 169.068 0.564351 168.984 0.929835 167.05C1.36385 164.773 1.61512 162.466 1.91207 160.166C2.1938 157.981 2.42223 155.788 2.6735 153.595C3.03137 150.542 3.43492 147.489 3.74711 144.428C4.13544 140.598 4.45523 136.76 4.79788 132.923C5.05676 130.022 5.20143 127.105 5.57453 124.22C5.97809 121.136 6.64052 118.09 7.08215 115.014C7.31058 113.43 7.24966 111.801 7.37911 110.202C7.61515 107.316 7.89688 104.438 8.14053 101.552C8.31566 99.5037 8.46795 97.4555 8.58977 95.3996C8.6583 94.2422 8.58977 93.0773 8.6583 91.9199C8.8182 89.4757 8.98571 87.0239 9.25221 84.5874C9.52633 82.0442 9.71668 79.4706 10.3334 77.0036C10.9806 74.3919 11.9705 71.8563 13.0137 69.3665C13.539 68.1101 14.5517 67.0746 15.2522 65.8868C15.9451 64.6989 16.5847 63.4654 17.1406 62.2091C17.7193 60.907 18.2066 60.6558 19.5543 61.303C19.8817 60.7624 20.6279 59.9857 20.468 59.6964C20.0264 58.8817 20.6736 57.8918 19.6152 57.1075C17.4908 55.5466 16.1583 53.2547 15.0543 50.8715C13.2954 47.0643 13.1355 43.0212 13.402 38.9247C13.5771 36.2978 13.737 33.6632 14.0264 31.0439C14.2928 28.6683 14.7802 26.3155 15.0695 23.9398C15.5187 20.285 16.3335 16.7672 18.1152 13.4931C19.8284 10.3408 21.9832 7.66818 24.9756 5.58188C26.7117 4.37121 28.4934 3.32044 30.4427 2.58947C32.133 1.95749 33.9376 1.64531 35.6813 1.15799C38.0798 0.48794 40.3717 1.24175 42.6864 1.63008C43.1509 1.70622 43.6534 1.99556 43.3945 2.54379C43.2879 2.77222 42.6788 2.87882 42.3133 2.84836C40.661 2.68085 39.0011 2.23922 37.364 2.29252C35.8869 2.34582 34.4097 2.84836 32.963 3.25953C29.1406 4.35598 25.7295 6.22909 22.9426 9.09966C21.1533 10.9499 19.935 13.1809 18.8842 15.5185C17.3233 18.9982 16.7066 22.6683 16.3335 26.4297C16.1431 28.379 15.633 30.2977 15.3969 32.247C15.1913 33.9297 15.1685 35.6277 15.0847 37.3257C15.001 39.0846 14.902 40.8435 14.8791 42.6024C14.8411 46.5313 15.9375 50.1177 18.1761 53.3689C19.5848 55.4248 21.4502 56.9019 23.6432 58.0289C23.9325 58.1811 24.0848 58.6152 24.298 58.9121C23.9173 58.9883 23.5366 59.0949 23.1558 59.1177C22.9655 59.1329 22.7599 58.9883 22.7675 58.9883C22.2193 59.9248 21.7015 60.8081 21.1 61.8284C22.0518 62.0644 22.9807 62.4147 23.9401 62.506C26.1102 62.704 28.2955 62.9477 30.4655 62.8487C32.2777 62.7725 34.0671 62.2472 35.8716 61.9121C36.6635 61.7675 37.463 61.638 38.2397 61.4248C38.4376 61.3715 38.7346 60.9603 38.6813 60.8233C38.2701 59.6583 38.6128 58.5238 38.8717 57.4426C39.1305 56.3766 39.6255 55.341 40.1737 54.3816C40.3488 54.0771 41.0722 53.8791 41.4834 53.9552C42.8463 54.2065 44.194 54.5796 45.5265 54.9679C46.4783 55.242 47.2169 54.907 47.9783 54.374C50.8793 52.341 53.1408 49.7141 55.0748 46.7978C56.3768 44.841 56.8261 42.5491 57.222 40.2876C57.5723 38.2927 57.6941 36.2521 57.9073 34.2343C57.953 33.8155 57.9911 33.3891 57.9834 32.9627C57.8921 30.0693 58.0215 27.1378 57.6027 24.2901C57.3134 22.3332 56.3921 20.4297 55.524 18.6175C54.5494 16.5845 53.1712 14.8027 51.1915 13.5921C51.0316 13.4931 51.0164 13.1581 50.9326 12.9372C51.2448 12.823 51.6332 12.5337 51.8616 12.6251C52.4403 12.8611 52.9961 13.2114 53.4834 13.6073C55.3717 15.1454 56.7652 17.0566 57.6408 19.3484C58.1129 20.5896 58.8286 21.7774 59.0799 23.0566C59.4301 24.8536 59.4834 26.719 59.6053 28.5617C59.7499 30.6632 59.7499 32.7724 59.9555 34.8663C60.3058 38.544 60.755 42.2064 61.1662 45.8765C61.1738 45.9526 61.2423 46.0212 61.3794 46.2801C61.6231 45.4729 61.92 44.8334 61.9885 44.1709C62.2779 41.4298 62.5672 38.681 62.7119 35.9247C62.8337 33.6252 62.7728 31.3181 62.7424 29.0109C62.7043 25.9957 62.0342 23.0642 61.3185 20.1556C60.9073 18.488 60.5038 16.7824 59.8185 15.2139C58.6002 12.4423 57.2068 9.72403 54.991 7.58442C53.2474 5.90167 51.1078 4.80522 48.854 3.95243C48.5113 3.82298 48.1458 3.74684 47.8413 3.5641C47.6433 3.44989 47.5367 3.18339 47.3844 2.98542C47.6128 2.83313 47.8565 2.52095 48.0545 2.54379C48.9453 2.66562 49.8666 2.78745 50.7118 3.09202C54.5113 4.47781 57.3515 7.00574 59.3388 10.5311C61.1814 13.8053 62.4835 17.2545 63.2525 20.9474C64.0901 24.9754 64.6764 29.0185 64.5241 33.1302C64.387 37.0516 64.4023 41.0034 63.3972 44.841C63.1154 45.9146 62.8337 47.1405 62.1408 47.9247C60.7246 49.5161 61.0748 51.5796 60.2982 53.3156C59.6738 54.7014 59.118 56.0644 57.6789 56.8487C56.491 57.4882 55.3641 58.2573 54.1763 58.8893C53.9479 59.0111 53.5215 58.7598 53.1941 58.6837C53.3768 58.4172 53.4986 58.0822 53.7423 57.8918C54.6941 57.1684 55.722 56.5441 56.6357 55.775C58.722 54.0314 59.3997 51.61 59.4454 49.0364C59.4911 46.7445 59.2703 44.4526 59.156 42.1531C59.1408 41.841 59.0494 41.5288 58.7982 41.209C58.6307 41.9247 58.5545 42.6861 58.2728 43.3562C57.5723 44.9856 56.6966 46.5466 56.0342 48.1912C55.486 49.5694 55.1966 51.039 54.7093 52.4476C53.8717 54.8537 52.5164 56.8867 50.2169 58.1202C49.9123 58.2801 49.4479 58.1507 49.0595 58.1507C49.1661 57.7471 49.1433 57.2217 49.3946 56.9705C50.6281 55.7598 51.8159 54.5339 52.4098 52.7979C52.0976 53.072 51.7854 53.3537 51.4656 53.6278C50.4529 54.473 49.4631 55.3334 48.4123 56.1329C46.7524 57.4045 45.0544 56.8486 43.3793 56.1329C42.9377 55.9426 42.5341 55.6608 42.1001 55.4552C41.6204 55.2344 41.0722 55.1278 40.958 55.8207C40.7295 57.138 39.9453 58.3106 40.1204 59.7573C40.2422 60.7852 40.5468 61.6609 41.3691 62.1939C42.4427 62.8944 43.6534 63.3741 44.7423 64.0441C47.3083 65.6127 48.8768 68.0188 50.0875 70.6761C51.0697 72.831 51.8616 75.0772 52.958 77.1787C53.7651 78.732 54.9149 80.1026 55.9124 81.5645C57.557 83.9782 59.4073 86.2854 60.7626 88.859C61.7753 90.7854 61.9809 93.0697 61.1205 95.2473C60.6484 96.4428 60.085 97.6001 59.651 98.8032C59.5291 99.1458 59.6205 99.6331 59.7652 99.991C61.189 103.509 62.6662 107.004 64.0901 110.522C65.2703 113.438 66.4353 116.369 67.5469 119.316C68.4074 121.6 69.1535 123.923 70.014 126.207C71.1333 129.161 72.3287 132.093 73.4632 135.039C74.0267 136.501 74.4759 138.009 75.0774 139.456C75.8008 141.176 76.646 142.844 77.4074 144.55C78.3363 146.628 79.1968 148.737 80.1714 150.793C80.91 152.362 81.8237 153.839 82.6003 155.392C83.6206 157.433 84.58 159.504 85.5623 161.56C86.2399 162.968 86.8948 164.392 87.6181 165.786C87.8694 166.273 88.3643 166.76 87.8542 167.232C87.4049 167.644 86.7882 167.994 86.1942 168.085C84.8922 168.283 83.5369 168.184 82.2425 168.436C81.3592 168.611 80.5292 169.121 79.7221 169.57C78.0394 170.499 76.3795 171.489 74.7272 172.441C75.4353 174.641 76.1282 176.788 76.8059 178.936C77.4302 180.9 78.0242 182.88 78.6637 184.837C79.2272 186.55 79.8973 188.233 80.4074 189.953C81.4582 193.471 82.448 197.012 83.4303 200.552C84.3516 203.865 85.2044 207.192 86.1486 210.497C86.8643 212.987 87.778 215.431 88.4252 217.936C89.2247 221.027 89.8262 224.164 90.5572 227.271C90.976 229.045 91.5242 230.796 91.9659 232.57C92.2247 233.606 92.3542 234.664 92.6207 235.7C93.1156 237.649 93.6791 239.583 94.1892 241.532C94.6232 243.185 95.042 244.845 95.4303 246.504C96.1918 249.786 96.9227 253.083 97.6765 256.373C98.6588 260.637 99.6258 264.908 100.646 269.164C101.194 271.456 101.895 273.71 102.451 276.002C102.847 277.624 103.075 279.276 103.463 280.898C104.057 283.396 104.758 285.87 105.344 288.368C105.801 290.325 106.121 292.319 106.578 294.276C107.164 296.781 107.864 299.264 108.451 301.776C108.862 303.505 109.166 305.256 109.524 306.992C109.639 307.548 109.745 308.104 109.859 308.66C110.065 309.718 109.722 310.754 108.215 310.822C105.732 310.936 103.319 310.571 100.897 310.175C97.707 309.657 94.5699 309.68 91.4785 310.776C88.608 311.797 85.6917 312.703 82.8059 313.693C80.811 314.378 78.8846 315.299 76.8439 315.764C74.5292 316.289 72.2221 316.959 69.7398 316.746C68.1789 316.609 66.5647 316.906 65.0114 316.426C63.5495 315.969 62.0723 315.543 60.6256 315.048C59.0114 314.492 57.3819 313.944 55.8134 313.274C54.4428 312.688 53.1103 311.987 51.8083 311.248C49.9732 310.205 48.1763 309.078 46.3641 307.982C46.1128 307.83 45.8692 307.685 45.4732 307.449C45.3818 308.233 45.2752 308.941 45.222 309.642C45.0468 311.789 44.8793 313.936 44.7423 316.084C44.5291 319.304 44.5443 322.479 45.9986 325.502C47.5976 328.83 49.9656 331.152 53.6662 331.967C57.9378 332.911 62.2017 333.832 66.5799 334.16C67.3414 334.221 68.1942 334.358 68.8185 334.761C69.4124 335.15 69.7627 335.926 70.2119 336.535C70.2424 336.581 70.2196 336.665 70.25 336.711C71.5977 338.675 70.2119 339.931 68.9327 340.975C67.6079 342.056 66.085 342.954 64.5165 343.64C63.4885 344.089 62.2474 344.074 61.0901 344.195C58.0748 344.5 55.1281 345.041 52.288 346.137C49.1509 347.348 46.0062 348.543 42.8539 349.693C41.7118 350.112 40.5468 350.142 39.3209 349.853C38.0113 349.541 36.6026 349.624 35.3082 349.282C34.0214 348.939 32.7574 348.383 31.6 347.721C30.6102 347.157 29.963 346.206 30.062 344.949C30.199 343.213 30.3513 341.485 30.4884 339.749C30.5112 339.421 30.5264 339.086 30.5188 338.759C30.496 337.289 30.4884 335.812 30.4046 334.343C30.3818 333.909 30.1838 333.452 29.9478 333.071C29.6127 332.538 29.1406 332.096 28.798 331.571C28.3335 330.855 28.3944 330.033 29.1863 329.736C30.1457 329.37 30.8919 328.243 32.1407 328.769C33.5493 326.15 33.9452 323.264 34.0138 320.325C34.0442 319.16 33.7549 317.995 33.6864 316.83C33.6102 315.642 33.6331 314.454 33.6026 313.266C33.5721 311.827 33.5417 310.388 33.496 308.949C33.4503 307.502 33.3589 306.056 33.3513 304.616C33.3513 303.863 33.1914 303.436 32.3158 303.429C31.6533 303.421 30.9985 303.185 30.298 303.04C29.7346 305.987 29.133 308.82 28.6609 311.667C28.4097 313.182 28.501 314.759 28.2498 316.274C27.93 318.2 27.4122 320.096 27.001 322.007C26.8868 322.533 26.864 323.081 26.8259 323.629C26.7193 325.16 26.7574 326.713 26.4985 328.221C26.0721 330.634 26.034 333.048 26.4224 335.439C26.5975 336.505 27.3056 337.487 27.7929 338.492C28.6 340.129 29.0036 341.835 28.5772 343.632C28.4706 344.089 28.0518 344.538 27.6635 344.858C26.7117 345.627 25.7447 346.487 24.3741 346.228C23.2853 346.023 22.2041 345.756 21.1305 345.452C17.5746 344.454 14.133 343.137 11.2776 340.754C10.0746 339.749 9.07709 338.439 9.1913 336.551C9.31313 334.525 9.10754 332.477 9.06186 330.444C9.0314 329.127 8.95526 327.794 9.06186 326.485C9.138 325.571 9.45018 324.665 9.7243 323.782C10.1431 322.426 10.7827 321.216 11.6888 320.073C12.8766 318.581 13.8055 316.875 14.7878 315.231C15.9375 313.304 17.0949 311.37 18.1228 309.375C19.3411 307 19.9655 304.441 20.1634 301.784C18.5873 301.38 17.0492 301.015 15.5264 300.589C14.8791 300.406 14.27 300.109 13.638 299.858C11.9324 299.172 10.204 298.525 8.52125 297.779C7.58469 297.36 6.72428 296.781 5.8258 296.271C5.67351 296.188 5.51362 296.028 5.36133 296.028C4.05929 296.066 3.27502 295.053 2.34609 294.429C1.90446 294.139 1.75217 293.248 1.68365 292.601C1.41715 290.241 1.21918 287.873 1.02882 285.505C0.952677 284.583 0.929835 283.662 0.914606 282.741C0.884149 280.563 0.868921 278.378 0.846078 276.2C0.838464 275.279 0.823235 274.357 0.823235 273.436C0.823235 271.715 0.77755 269.987 0.876535 268.266C1.03643 265.51 1.2877 262.761 1.52375 260.005C1.63796 258.703 1.84355 257.4 1.91969 256.098C1.98822 254.941 1.91969 253.776 1.91969 252.619C1.93492 250.669 1.96537 248.72 1.98822 246.771C2.00344 245.751 1.95014 244.715 2.04152 243.702C2.32324 240.71 2.74203 237.725 2.96284 234.733C3.14558 232.289 3.03898 229.822 3.21411 227.377C3.44254 224.294 3.84609 221.225 4.14305 218.149C4.37148 215.789 4.50853 213.421 4.75219 211.06C4.98823 208.799 5.24712 206.53 5.58976 204.283C5.9857 201.733 6.572 199.205 6.91464 196.646C7.21159 194.408 7.27251 192.131 7.45525 189.877C7.67606 187.25 7.95779 184.631 8.14815 182.004C8.36135 179.088 8.96287 176.248 9.76998 173.446C10.006 172.631 10.3106 171.831 10.5923 171.002L10.6076 170.994ZM18.5873 62.7192C18.4426 63.138 18.3589 63.5644 18.1533 63.9223C17.4832 65.1253 16.7827 66.3056 16.067 67.4781C14.7269 69.6634 13.6228 71.9477 12.9908 74.4452C12.473 76.5087 11.8106 78.5493 11.4832 80.6356C11.1177 82.9579 11.0339 85.3336 10.8741 87.6864C10.6913 90.4656 10.5619 93.26 10.4096 96.0392C10.3106 97.8514 10.2268 99.6636 10.0822 101.476C9.85374 104.27 9.54917 107.049 9.31313 109.844C9.138 111.953 9.10754 114.07 8.84866 116.164C8.50602 118.928 7.91211 121.661 7.59231 124.425C7.28774 127.014 7.21159 129.633 6.99839 132.237C6.7319 135.512 6.44255 138.786 6.12276 142.06C5.79534 145.418 5.46793 148.776 5.07199 152.126C4.53899 156.633 3.94508 161.133 3.38924 165.641C3.14558 167.651 3.16081 167.651 5.12529 168.062C5.1862 168.078 5.2395 168.101 5.30042 168.108C8.4451 168.359 11.4603 169.09 14.2776 170.529C14.8944 170.842 15.4121 171.367 15.9528 171.824C16.7218 172.471 17.3538 173.438 18.237 173.758C19.9655 174.382 21.8005 174.755 23.6203 175.052C25.7599 175.403 27.9528 175.486 30.0924 175.837C32.095 176.164 34.0747 176.248 36.0925 176.035C37.661 175.867 39.2448 175.768 40.8285 175.73C42.5646 175.692 44.3082 175.852 46.0443 175.768C48.6484 175.639 51.2372 175.357 53.925 175.136C53.59 174.527 53.1941 173.903 52.8971 173.24C52.0976 171.474 51.359 169.684 50.5519 167.925C49.3641 165.329 48.1458 162.74 46.9199 160.159C45.6179 157.41 44.3463 154.646 42.9834 151.935C41.5138 149.004 39.9224 146.133 38.43 143.21C37.3107 141.024 36.2219 138.824 35.2168 136.593C34.4478 134.887 33.8006 133.121 33.1381 131.369C32.8792 130.692 32.7879 129.953 32.5442 129.268C31.6457 126.747 31.3412 124.181 31.6153 121.509C31.8361 119.385 31.8818 117.237 31.9655 115.098C31.9731 114.892 31.7219 114.504 31.562 114.489C30.9224 114.412 30.2676 114.527 29.6356 114.435C27.0848 114.062 26.4985 113.75 26.2015 111.176C26.1635 110.826 26.1102 110.476 26.0645 110.118C25.6914 107.103 25.1812 104.103 24.9756 101.072C24.7244 97.2651 24.6939 93.4351 24.6178 89.6128C24.5569 86.7422 24.5492 83.8792 24.5645 81.0087C24.5721 79.4706 24.6482 77.9249 24.7396 76.3868C24.8005 75.4579 25.166 75.2447 26.1711 75.435C26.1711 76.9883 26.1711 78.5493 26.1711 80.1102C26.1863 83.6127 26.1026 87.1229 26.2396 90.6255C26.4452 95.7042 26.8031 100.783 27.1153 105.862C27.1457 106.364 27.3056 106.859 27.3894 107.354C27.4731 107.857 27.5493 108.359 27.6559 109.037C27.8615 108.717 27.9528 108.603 28.0214 108.466C30.298 104.202 33.3818 100.524 36.6635 97.0291C39.0544 94.4783 41.6661 92.1331 44.2321 89.7498C45.6636 88.425 47.2702 87.298 49.1281 86.628C49.9961 86.3158 50.9022 86.0569 51.8083 85.897C53.7271 85.5696 55.6078 85.7295 57.4581 86.6584C57.4124 86.4072 57.4276 86.2625 57.3667 86.1788C56.3768 84.8691 55.3489 83.5823 54.3971 82.2498C53.2398 80.6356 51.9834 79.067 51.0621 77.3234C49.8971 75.1305 49.0215 72.7853 48.0392 70.4934C46.9047 67.8436 45.0697 65.8411 42.5113 64.5162C42.3285 64.4172 41.925 64.4401 41.8032 64.5771C41.3996 65.0035 41.1559 64.8512 40.8894 64.4629C40.4554 63.8233 40.0138 63.1837 39.5493 62.5137C32.5747 64.8436 25.6 65.5289 18.5797 62.704L18.5873 62.7192ZM58.4631 100.92C57.2372 102.131 56.0646 103.364 54.8235 104.506C52.92 106.265 50.9936 108.001 49.0062 109.661C48.1839 110.354 47.6128 111.024 47.6204 112.174C47.6433 114.626 47.4986 117.077 47.5824 119.522C47.6433 121.296 47.8641 123.077 48.1991 124.821C48.5341 126.58 49.1052 128.293 49.5545 130.029C50.0265 131.864 50.4225 133.722 50.9403 135.542C51.5646 137.735 52.288 139.905 52.9656 142.083C53.453 143.636 53.8794 145.212 54.4276 146.743C55.1738 148.829 56.1027 150.847 56.7956 152.948C57.7855 155.948 58.6078 159.001 59.5444 162.017C60.5342 165.184 61.5774 168.344 62.6281 171.489C62.6967 171.687 63.0317 171.9 63.2525 171.915C64.349 171.991 65.4682 172.113 66.5571 172.007C68.9784 171.778 71.415 171.732 73.6307 170.385C75.5115 169.243 77.5597 168.344 79.5851 167.461C80.6663 166.989 81.8541 166.692 83.0191 166.486C83.8871 166.334 84.8085 166.456 85.6232 166.456C85.2044 165.314 84.9303 164.255 84.4506 163.304C82.8135 160.037 81.0089 156.854 79.448 153.557C77.9023 150.276 76.5851 146.88 75.146 143.545C74.5673 142.197 73.8439 140.902 73.3262 139.532C71.7272 135.344 70.2195 131.126 68.6358 126.93C67.486 123.885 66.2906 120.862 65.0952 117.839C64.0977 115.311 63.0698 112.791 62.0418 110.27C61.2423 108.313 60.3819 106.379 59.6129 104.407C59.1713 103.273 58.8515 102.085 58.4708 100.897L58.4631 100.92ZM47.5595 89.1712C45.8768 90.5189 44.2549 91.5696 42.9377 92.9174C40.3488 95.5595 37.8894 98.3463 35.4529 101.133C34.8589 101.811 34.2194 102.702 34.1584 103.532C33.9376 106.6 33.9452 109.692 33.8767 112.768C33.8158 115.136 33.8767 117.511 33.6787 119.872C33.4046 123.085 33.4732 126.245 34.6001 129.298C35.5975 131.986 36.6407 134.659 37.7524 137.301C38.5975 139.319 39.5341 141.306 40.524 143.255C42.0468 146.263 43.6915 149.202 45.1991 152.21C46.5392 154.882 47.7727 157.616 49.0443 160.326C50.0113 162.39 50.9783 164.461 51.9301 166.532C52.958 168.763 53.925 171.024 54.9986 173.233C55.9885 175.266 57.0697 177.268 57.3362 179.545C57.4961 180.931 57.5342 182.332 57.5266 183.733C57.519 186.131 57.4276 188.53 57.9911 190.882C58.2195 191.834 58.4479 192.748 59.156 193.563C60.8464 195.497 62.4606 197.507 62.6662 200.271C62.7804 201.778 63.0621 203.233 62.3616 204.702C61.8743 205.73 61.6002 206.865 61.2956 207.969C61.2195 208.235 61.4022 208.578 61.4708 208.882C61.7601 208.783 62.1941 208.768 62.3159 208.563C62.9022 207.603 63.4733 206.621 63.9302 205.585C64.6459 203.971 64.486 202.212 64.6916 200.507C64.8058 199.555 65.1941 198.626 65.552 197.72C65.6282 197.537 66.1078 197.507 66.3972 197.415C66.4657 197.705 66.5952 198.002 66.5799 198.291C66.5114 199.365 66.4124 200.438 66.2906 201.504C66.1383 202.844 66.1459 204.245 65.7195 205.502C65.2627 206.842 64.3946 208.045 63.6104 209.476C63.9073 209.431 64.2728 209.476 64.4403 209.324C64.9809 208.806 65.5216 208.258 65.9175 207.634C66.4581 206.789 66.7094 205.723 67.3642 204.999C67.92 204.39 68.0876 203.766 68.1485 203.073C68.2246 202.113 68.1485 201.139 68.2246 200.172C68.2855 199.426 68.453 198.687 68.651 197.956C68.6967 197.781 69.085 197.53 69.2373 197.583C69.4657 197.659 69.6789 197.933 69.7931 198.169C69.8693 198.329 69.7398 198.58 69.7398 198.794C69.7398 200.088 69.7398 201.382 69.7398 202.669C69.8312 202.669 69.9226 202.669 70.014 202.677C70.1282 202.464 70.2652 202.266 70.3566 202.045C70.448 201.824 70.5241 201.588 70.5546 201.352C70.9201 198.558 70.9657 195.794 69.7703 193.151C68.7043 190.814 67.6155 188.491 66.5495 186.154C65.2855 183.398 63.9149 180.672 63.4505 177.618C63.42 177.398 63.2677 177.078 63.1002 177.017C62.3388 176.758 62.1789 176.088 61.9885 175.479C61.1205 172.707 60.321 169.913 59.4301 167.149C58.4479 164.103 57.3819 161.08 56.3768 158.042C55.6839 155.933 55.09 153.793 54.3743 151.692C53.0646 147.854 51.6788 144.039 50.3616 140.194C49.8438 138.671 49.425 137.111 48.991 135.557C48.2905 133.044 47.59 130.524 46.958 127.996C46.4402 125.918 45.8768 123.824 45.6027 121.707C45.359 119.811 45.4656 117.869 45.458 115.95C45.458 114.884 45.4808 113.811 45.5646 112.745C45.6788 111.321 45.8996 109.897 46.0062 108.473C46.1433 106.646 46.1813 104.811 46.326 102.991C46.4631 101.308 46.7067 99.6331 46.8895 97.958C46.9961 97.0138 47.0798 96.0621 47.156 95.1103C47.3006 93.2372 47.4225 91.3641 47.5824 89.1788L47.5595 89.1712ZM31.897 344.721C31.897 344.721 31.8589 344.82 31.8665 344.873C32.2168 346.655 33.6254 347.157 35.1178 347.5C36.3437 347.774 37.6153 347.843 38.8184 348.17C40.3869 348.596 41.8488 348.322 43.3032 347.797C46.3641 346.7 49.3641 345.398 52.4783 344.492C55.2804 343.678 58.1814 343.213 61.0672 342.726C63.7855 342.269 66.1535 341.15 68.3084 339.505C68.5901 339.284 68.8794 338.881 68.9023 338.546C68.986 337.274 67.8363 336.094 66.5266 335.98C65.1256 335.85 63.6941 335.865 62.3312 335.553C58.7068 334.716 54.9454 334.396 51.892 332.919C50.1103 333.848 48.6255 334.708 47.0646 335.424C45.9301 335.941 44.59 336.086 43.5544 336.733C41.9098 337.761 40.2042 338.081 38.3843 337.731C37.7676 337.609 36.9986 337.145 36.7168 336.612C35.9554 335.165 34.8513 334.35 33.2828 334.099C32.9478 334.046 32.6051 334.061 32.4224 334.053C32.2777 335.629 32.0645 337.061 32.0417 338.5C32.0188 339.962 32.194 341.424 32.2853 342.848C32.9249 343.038 33.5417 343.228 34.2574 343.442C33.3513 340.723 33.6407 338.172 34.3183 335.645C34.3793 335.409 34.7143 335.249 35.0569 334.936C35.1026 335.401 35.1255 335.606 35.1331 335.812C35.1407 336.025 35.1711 336.246 35.1331 336.452C34.7295 338.82 34.8742 341.157 35.529 343.464C35.5975 343.693 35.8488 344.035 36.0392 344.043C37.3869 344.127 38.7803 344.363 40.0671 344.112C41.8717 343.754 43.6077 343.015 45.3742 342.452C45.5951 342.383 45.9225 342.322 46.0824 342.436C46.4783 342.711 46.9656 343.015 47.1179 343.426C47.3996 344.157 46.6077 344.005 46.2651 344.127C45.1534 344.523 44.0189 344.873 42.8768 345.185C41.8564 345.467 40.7752 345.574 39.793 345.947C38.4681 346.449 37.1356 346.518 35.826 346.152C34.5011 345.779 33.2219 345.223 31.8894 344.728L31.897 344.721ZM34.9655 303.954C34.996 304.411 35.0112 304.731 35.0341 305.05C35.4909 311.02 36.5036 316.974 36.0696 322.982C35.9478 324.71 35.3234 326.424 34.8285 328.106C34.4859 329.271 33.694 330.261 34.7371 331.586C35.2473 332.233 35.6356 332.865 36.3742 333.315C36.9072 333.634 37.326 334.19 37.6915 334.716C38.5366 335.949 39.0316 336.238 40.4783 335.85C41.4453 335.584 42.3438 335.073 43.2879 334.723C45.4047 333.947 47.5367 333.208 49.6534 332.447C49.7524 332.408 49.8286 332.31 50.0037 332.165C49.5925 331.929 49.2347 331.731 48.8844 331.525C48.458 331.274 47.9707 331.091 47.6204 330.756C44.4834 327.771 42.6712 324.155 42.6179 319.769C42.6026 318.52 42.7321 317.264 42.8311 316.015C43.0671 313.16 43.2346 310.304 43.6153 307.472C43.7448 306.528 43.4021 306.345 42.7092 306.124C40.9884 305.583 39.2904 304.974 37.5696 304.464C36.7473 304.221 35.8793 304.122 34.9655 303.939V303.954ZM48.1154 108.176C48.2067 108.237 48.2981 108.298 48.3895 108.359C50.5062 106.372 52.5925 104.346 54.7474 102.397C56.9936 100.372 58.6763 98.0037 59.6053 95.1027C60.0926 93.5798 60.1459 92.0493 59.7347 90.5417C59.5672 89.9402 59.1713 89.2473 58.6687 88.9123C56.0951 87.1914 53.3007 86.7118 50.3463 87.8082C49.859 87.9909 49.2727 88.3564 49.09 88.7904C48.8463 89.3615 48.9301 90.0849 48.9149 90.7397C48.8692 92.9021 48.9225 95.0722 48.7778 97.227C48.5874 100.014 48.2067 102.793 47.9859 105.58C47.9174 106.44 48.0773 107.316 48.1306 108.184L48.1154 108.176ZM18.1761 314.606C17.5594 317.842 17.232 321.185 14.5137 323.789C15.6939 323.987 16.6152 324.147 17.5137 324.299C17.9325 322.67 18.2675 321.078 18.7548 319.533C19.1964 318.132 19.7675 316.776 20.3386 315.429C20.4299 315.208 20.8411 315.124 21.1 314.972C21.1076 315.246 21.1457 315.512 21.1228 315.779C21.1076 315.954 20.9782 316.114 20.9249 316.281C20.1178 319.152 19.3106 322.03 18.5111 324.893C20.4909 325.647 21.5797 327.01 22.0898 328.723C22.7827 331.053 22.4477 333.429 21.9604 335.782C21.7853 336.619 21.3893 337.594 21.6482 338.302C22.3335 340.205 23.0036 342.178 24.6102 343.586C24.93 343.86 25.1355 344.378 25.7295 344.013C26.331 343.639 27.1305 343.419 26.9706 342.49C26.8411 341.728 26.666 340.952 26.3691 340.236C25.463 338.089 24.1152 336.101 24.2371 333.619C24.3056 332.264 24.1152 330.863 24.397 329.561C24.9071 327.147 25.3107 324.741 25.3564 322.274C25.3792 321.147 25.1051 320.218 24.2295 319.449C23.2472 318.589 22.5315 317.561 22.1888 316.236C22.0061 315.543 21.4122 314.896 20.8716 314.37C20.3995 313.921 19.7751 313.723 19.1584 314.37C18.9604 314.584 18.4807 314.53 18.1913 314.591L18.1761 314.606ZM26.3158 319.129C26.3995 318.2 26.567 317.393 26.5213 316.594C26.3691 313.518 26.7955 310.518 27.6406 307.571C27.9909 306.36 28.4325 305.172 28.8132 303.969C29.1102 303.048 28.9731 302.858 28.0214 302.751C26.0264 302.53 24.0315 302.309 22.1127 302.104C21.5949 304.281 21.1 306.375 20.5975 308.5C21.199 308.614 21.7015 308.69 22.1964 308.82C23.9401 309.261 24.4046 310.441 23.43 311.972C23.3843 312.048 23.3157 312.117 23.2624 312.185C22.7294 312.87 22.4096 313.525 23.3614 314.165C23.5518 314.294 23.6508 314.622 23.7117 314.88C24.0924 316.502 24.8995 317.865 26.3081 319.122L26.3158 319.129ZM11.7573 338.873C11.6888 338.987 11.6279 339.109 11.5593 339.223C12.534 339.969 13.4705 340.769 14.4984 341.439C15.039 341.789 15.7167 341.926 16.3487 342.117C18.0619 342.65 19.7751 343.16 21.4883 343.693C22.0213 343.86 22.4325 343.678 22.3335 343.167C22.2345 342.673 21.9376 342.002 21.534 341.82C19.0974 340.716 16.6076 339.749 13.9578 339.277C13.2269 339.147 12.4959 339.002 11.7649 338.865L11.7573 338.873ZM32.4605 105.146C32.3691 105.123 32.2777 105.093 32.1863 105.07C32.0493 105.245 31.897 105.42 31.7752 105.61C30.7853 107.133 29.8031 108.656 28.8208 110.186C28.6076 110.514 28.2878 110.872 28.2878 111.214C28.2955 111.671 28.4858 112.44 28.7599 112.516C29.7879 112.813 30.8767 113.148 32.0493 112.646C32.1863 110.156 32.3234 107.651 32.4605 105.153V105.146ZM19.9655 336.01C20.8563 333.832 20.3766 333.528 18.732 333.185C17.3005 332.888 15.9147 332.317 14.4756 332.089C13.3182 331.906 12.1076 332.051 10.8817 332.051C10.9578 332.492 11.072 332.82 11.0492 333.132C10.9959 333.711 11.2928 333.832 11.7573 333.779C13.8665 333.551 15.8081 334.236 17.7345 334.944C18.5035 335.226 19.2269 335.637 19.9731 335.995L19.9655 336.01ZM20.4832 339.749C20.3614 339.52 20.1787 339.109 19.9426 338.728C19.7066 338.348 19.4858 337.891 19.1279 337.647C17.3462 336.444 15.2827 335.98 13.2192 335.599C11.3385 335.249 11.3157 335.348 11.2776 337.183C14.3994 338.051 17.4985 338.911 20.4756 339.741L20.4832 339.749ZM20.7041 332.34C20.7421 331.411 20.6736 330.551 19.5391 330.223C18.1913 329.842 16.8589 329.363 15.4883 329.058C13.9731 328.723 12.4274 328.571 10.9045 328.959C10.8588 329.264 10.8893 329.576 10.7598 329.789C10.2649 330.573 10.5619 330.604 11.3157 330.558C12.8994 330.467 14.4832 330.436 16.0365 330.954C17.567 331.464 19.1279 331.868 20.7117 332.332L20.7041 332.34ZM20.4071 329.18C20.3081 328.898 20.2548 328.7 20.1711 328.525C19.5162 327.177 18.1837 326.599 17.0111 325.898C15.5187 325.007 13.9198 325.441 12.3664 325.815C11.6659 325.982 11.3309 326.469 11.2471 327.223C14.4375 327.117 17.4071 327.863 20.3995 329.18H20.4071ZM11.3842 324.337C12.0847 324.208 12.7548 324.139 13.3944 323.941C13.5847 323.881 13.8436 323.431 13.7827 323.264C13.5162 322.518 13.8132 322.099 14.4071 321.71C14.6659 321.543 14.8944 321.231 15.0162 320.934C15.6786 319.266 16.2954 317.584 16.9807 315.771C16.638 315.847 16.3944 315.84 16.3715 315.916C15.2294 318.893 13.1736 321.322 11.4756 323.957C11.407 324.063 11.4147 324.231 11.3918 324.33L11.3842 324.337ZM58.5545 201.672C60.3819 200.865 60.8997 199.57 60.0469 197.986C59.5291 197.027 58.9124 196.113 58.2499 195.017C58.3565 197.377 58.4555 199.494 58.5545 201.672ZM33.7016 332.119C33.0544 331.434 32.43 330.733 31.7523 330.094C31.5772 329.926 31.1813 329.835 30.9605 329.911C30.5036 330.079 30.1 330.383 29.6584 330.642C31.0214 332.172 32.7498 332.782 33.7092 332.119H33.7016ZM20.1254 312.048C20.765 312.215 21.3284 312.36 21.9452 312.52C22.1888 311.789 22.7675 310.898 22.5391 310.571C22.1964 310.083 21.2903 309.992 20.6203 309.741C20.567 309.718 20.5061 309.741 20.3919 309.741C20.3081 310.464 20.232 311.203 20.133 312.048H20.1254ZM18.1076 311.743C19.1964 311.911 19.3335 311.629 19.2269 309.619C18.8309 310.365 18.4959 311.012 18.1076 311.743Z" fill="black"/>
<path d="M25.052 41.947C24.5571 42.9597 24.2754 43.0968 23.4987 42.4267C22.8743 41.8861 22.3337 41.1856 21.9378 40.4546C21.0545 38.8176 21.7551 35.3988 23.1332 34.1653C24.1307 33.2668 24.9911 33.1678 26.2018 33.7922C26.3921 33.8912 26.5825 33.9825 26.6967 34.0358C28.7449 32.7566 29.9708 30.9216 30.5876 28.6906C30.9683 27.3201 31.2653 25.919 31.4556 24.5104C31.8896 21.2591 33.1993 18.5865 35.7424 16.3784C37.8287 14.5586 40.0597 13.1423 42.5877 12.0459C44.4379 11.2464 46.2882 10.9799 48.2374 11.0484C48.5648 11.0636 48.9379 11.0941 49.1968 11.2616C49.4786 11.4367 49.6537 11.787 49.8821 12.0535C49.5623 12.2058 49.2501 12.4723 48.9151 12.4951C48.1994 12.5484 47.4608 12.4037 46.7526 12.4875C43.2653 12.9063 40.2958 14.4748 37.7069 16.7667C36.2145 18.0916 34.5927 19.3708 33.9607 21.3733C33.5038 22.8353 33.2373 24.3581 32.8947 25.8581C32.3922 28.0663 32.1181 30.3353 30.8084 32.2922C30.047 33.4343 29.2094 34.4165 27.8312 34.8049C27.6637 34.8505 27.4201 34.9267 27.3668 35.0561C26.9327 36.0688 26.4454 35.8023 25.8058 35.2237C24.9987 34.4927 24.0546 34.6754 23.6815 35.7033C22.7221 38.3379 22.6383 39.6704 25.0596 41.9394L25.052 41.947Z" fill="black"/>
<path d="M26.6048 43.5226C26.5819 43.9186 26.5591 44.284 26.5363 44.6343C25.4017 44.8856 25.0819 44.6191 25.1428 43.4846C25.1885 42.6394 25.219 41.7942 25.2723 40.949C25.2875 40.713 25.3027 40.4312 25.4246 40.2561C25.5769 40.0429 25.8662 39.7764 26.0718 39.7916C26.2545 39.8069 26.521 40.1647 26.5515 40.4008C26.62 40.9871 26.5743 41.5962 26.5743 42.2739C26.955 42.1673 27.2368 41.9998 27.4576 42.0531C27.9449 42.1673 28.5769 42.2663 28.8586 42.6089C30.3738 44.482 31.6606 46.5455 33.2901 48.3044C34.7216 49.8425 36.4957 51.0683 38.1251 52.4237C38.4678 52.7054 39.0008 52.9491 38.582 53.4897C38.2622 53.8932 37.8586 53.9618 37.3104 53.6648C33.9678 51.8907 31.5997 49.0734 29.2469 46.2409C28.6911 45.5709 28.2647 44.7714 27.9297 43.9643C27.6327 43.2561 27.252 43.2104 26.5972 43.5226H26.6048Z" fill="black"/>
<path d="M24.0922 50.3313C24.2521 49.4024 24.4805 47.9785 24.747 46.5546C24.8003 46.2729 24.945 45.9607 25.143 45.7551C25.3943 45.5039 25.7902 45.1612 26.0415 45.2145C26.3993 45.2983 26.8866 45.6638 26.9552 45.9836C27.2826 47.6359 27.5415 49.3034 27.7242 50.9709C27.8004 51.6866 27.3207 52.1587 26.5973 52.2729C26.1861 52.3339 25.7597 52.3415 25.341 52.3034C24.1912 52.1968 24.0008 51.9684 24.0922 50.3237V50.3313ZM25.4247 51.0242C25.8283 50.9785 26.1328 50.9404 26.5136 50.8948C26.3765 49.4709 26.2547 48.1232 26.1252 46.7831C26.0415 46.7831 25.9653 46.7831 25.8816 46.7831C25.7293 48.1689 25.5846 49.547 25.4171 51.0166L25.4247 51.0242Z" fill="black"/>
<path d="M42.5956 23.6428C42.9078 23.6885 43.2733 23.658 43.517 23.8027C43.7835 23.9626 44.1794 24.1073 44.1566 24.5413C43.8672 24.8459 43.616 24.9144 43.3266 24.9525C41.5144 24.9068 40.456 25.0971 39.5423 25.3865C37.9281 25.6834 36.8393 26.8179 35.6895 27.8306C35.4763 28.0134 35.2327 28.1885 35.0118 28.3332C34.753 28.5083 34.5474 28.4169 34.0981 28.3713C33.923 28.021 34.0068 27.6022 34.1743 27.4652C35.6438 26.1174 36.5956 24.4575 40.4408 23.8712C41.1566 23.8255 41.2251 23.7722 41.9332 23.6656C41.9408 23.6885 42.588 23.6123 42.5956 23.6352V23.6428Z" fill="black"/>
<path d="M27.4726 57.9819C26.9548 57.723 26.4295 57.5707 26.0487 57.2585C24.5031 55.9641 22.9802 54.6392 21.5107 53.2611C21.2746 53.0403 21.3508 52.4768 21.2822 52.0732C21.6553 52.157 22.1198 52.1265 22.3939 52.3321C24.2518 53.7636 26.0868 55.2332 27.8914 56.7256C28.097 56.8931 28.2417 57.3118 28.1884 57.5631C28.1503 57.7382 27.7315 57.8372 27.465 57.9819H27.4726Z" fill="black"/>
<path d="M42.0319 47.4671C44.4837 48.0077 46.8593 47.5813 49.2502 47.1701C49.5015 47.1244 50.004 47.3072 50.103 47.566C50.103 47.9315 49.8669 48.3046 49.6233 48.4112C48.1614 49.0737 46.6004 49.2716 45.0091 49.1041C44.1486 49.0127 43.2958 48.7919 42.4507 48.6016C41.9024 48.4798 41.6055 48.0381 42.0319 47.4671Z" fill="black"/>
<path d="M29.4381 51.7852C29.9635 52.3867 30.4584 53.0415 31.0447 53.6126C32.0117 54.5567 33.0549 55.4324 34.0067 56.3842C34.2732 56.6583 34.3493 57.1227 34.5168 57.4958C34.1209 57.5111 33.664 57.6557 33.3366 57.5111C31.5701 56.7268 30.3366 55.2953 29.164 53.8334C28.4863 52.9882 28.6234 52.143 29.4457 51.7852H29.4381Z" fill="black"/>
<path d="M54.7553 34.0593C54.7096 34.4705 54.7172 34.7294 54.6487 34.874C54.466 35.27 53.9634 35.6964 53.537 35.6964C53.1106 35.6964 52.7908 35.2014 52.7375 34.8436C52.6157 34.638 52.6614 34.303 52.7147 34.0441C52.8289 33.4045 53.0269 32.6507 53.8111 32.7192C54.6335 32.7877 54.6335 33.6101 54.7629 34.0593H54.7553Z" fill="black"/>
<path d="M53.4076 24.2211C54.9153 24.2058 55.9432 24.6779 56.7731 25.5155C56.9787 25.7211 57.1615 26.1322 57.0777 26.452C56.697 26.6043 56.4609 26.4368 56.1944 26.3378C55.296 26.0028 54.4127 25.6525 53.5447 25.2566C53.2934 25.1424 52.9355 25.0053 52.9355 24.617C53.0269 24.2211 53.3772 24.2515 53.4152 24.2211H53.4076Z" fill="black"/>
<path d="M40.3652 34.5921C40.3576 35.3459 39.7408 36.0312 39.1545 35.9779C38.5301 35.9246 38.1494 35.3383 38.2332 34.5464C38.2484 34.3941 38.2865 34.2494 38.3169 34.0972C38.4083 33.5565 38.5834 33.0692 39.2383 33.0616C39.9083 33.054 40.1748 33.5185 40.3043 34.0895C40.3423 34.2647 40.3499 34.4474 40.3652 34.5845V34.5921Z" fill="black"/>
<path d="M51.7401 42.7852C51.7629 43.5162 50.8644 44.5137 50.2933 44.4832C49.7603 44.4528 49.5928 44.1025 49.8213 43.6685C50.0421 43.2497 50.3466 42.8462 50.6817 42.5111C50.834 42.3589 51.1918 42.2903 51.4126 42.3512C51.5802 42.3969 51.6791 42.7015 51.7401 42.7852Z" fill="black"/>
<path d="M18.5878 62.7118C25.6158 65.5443 32.5904 64.8514 39.5575 62.5215C40.022 63.1915 40.4636 63.8311 40.8976 64.4707C41.1641 64.8591 41.4077 65.0113 41.8113 64.5849C41.9331 64.4555 42.3367 64.4327 42.5194 64.524C45.0778 65.8489 46.9129 67.8515 48.0474 70.5012C49.0296 72.7931 49.9053 75.1383 51.0702 77.3312C51.9916 79.0749 53.2479 80.6434 54.4053 82.2576C55.3647 83.5901 56.3926 84.8769 57.3748 86.1866C57.4358 86.2703 57.4205 86.415 57.4662 86.6663C55.616 85.7297 53.7276 85.5774 51.8164 85.9049C50.9103 86.0571 50.0042 86.3236 49.1362 86.6358C47.2783 87.3059 45.6717 88.4252 44.2402 89.7577C41.6742 92.1409 39.0626 94.4861 36.6717 97.0369C33.3976 100.532 30.3138 104.21 28.0295 108.474C27.961 108.603 27.8696 108.725 27.664 109.045C27.5574 108.367 27.4889 107.864 27.3975 107.362C27.3138 106.859 27.1539 106.372 27.1234 105.869C26.8112 100.791 26.4534 95.712 26.2478 90.6333C26.1107 87.1308 26.1945 83.6206 26.1792 80.118C26.1792 78.5571 26.1792 76.9962 26.1792 75.4429C25.1742 75.2525 24.8011 75.4657 24.7478 76.3947C24.6488 77.9327 24.5802 79.4708 24.5726 81.0165C24.5574 83.8871 24.5726 86.75 24.6259 89.6206C24.7021 93.443 24.7325 97.2653 24.9838 101.08C25.1818 104.103 25.6995 107.111 26.0726 110.126C26.1183 110.476 26.164 110.826 26.2097 111.184C26.499 113.75 27.0853 114.062 29.6437 114.443C30.2757 114.534 30.9381 114.42 31.5701 114.496C31.7376 114.519 31.9813 114.9 31.9737 115.106C31.8899 117.245 31.8442 119.385 31.6234 121.517C31.3493 124.189 31.6539 126.755 32.5524 129.276C32.796 129.961 32.8874 130.7 33.1463 131.377C33.8087 133.128 34.4559 134.895 35.225 136.601C36.2377 138.832 37.3265 141.032 38.4382 143.217C39.9306 146.141 41.522 149.012 42.9915 151.943C44.3545 154.662 45.626 157.418 46.9281 160.167C48.1464 162.748 49.3646 165.337 50.5601 167.933C51.3672 169.692 52.1058 171.489 52.9053 173.248C53.2098 173.918 53.6058 174.542 53.9332 175.144C51.2454 175.365 48.6565 175.639 46.0524 175.776C44.3164 175.867 42.5727 175.7 40.8367 175.738C39.2529 175.776 37.6692 175.867 36.1006 176.042C34.0828 176.263 32.1031 176.172 30.1006 175.844C27.9534 175.494 25.7681 175.41 23.6285 175.06C21.8087 174.763 19.9736 174.39 18.2452 173.766C17.3696 173.446 16.73 172.487 15.9609 171.832C15.4203 171.375 14.9025 170.849 14.2858 170.537C11.4685 169.098 8.45326 168.367 5.30857 168.116C5.24766 168.116 5.19436 168.085 5.13344 168.07C3.16135 167.667 3.14612 167.659 3.39739 165.649C3.95323 161.141 4.55476 156.641 5.08014 152.134C5.47609 148.783 5.8035 145.425 6.13091 142.068C6.4431 138.793 6.73244 135.519 7.00655 132.245C7.21975 129.641 7.29589 127.022 7.60046 124.433C7.92788 121.669 8.51417 118.935 8.85681 116.172C9.1157 114.078 9.14616 111.953 9.32128 109.852C9.55732 107.057 9.85428 104.278 10.0903 101.484C10.2426 99.679 10.3188 97.8592 10.4177 96.047C10.5776 93.2602 10.6995 90.4734 10.8822 87.6942C11.0345 85.3414 11.1259 82.9658 11.4913 80.6434C11.8188 78.5495 12.4812 76.5089 12.999 74.453C13.6233 71.9555 14.735 69.6713 16.0751 67.486C16.7909 66.3134 17.4914 65.1256 18.1614 63.9301C18.367 63.5723 18.4508 63.1459 18.5954 62.7271L18.5878 62.7118Z" fill="white"/>
<path d="M58.4636 100.912C58.8443 102.1 59.1641 103.28 59.6057 104.422C60.3747 106.394 61.2352 108.328 62.0347 110.285C63.0626 112.806 64.0829 115.326 65.088 117.854C66.2834 120.877 67.4865 123.9 68.6286 126.945C70.2124 131.141 71.7276 135.359 73.319 139.547C73.8444 140.917 74.5601 142.212 75.1388 143.56C76.5779 146.895 77.8951 150.291 79.4408 153.572C81.0018 156.877 82.8063 160.06 84.4434 163.319C84.9231 164.27 85.1972 165.329 85.616 166.471C84.8013 166.471 83.8876 166.349 83.0119 166.501C81.8469 166.707 80.6591 167.004 79.5779 167.476C77.5525 168.359 75.5119 169.258 73.6236 170.4C71.4078 171.748 68.9636 171.793 66.5499 172.022C65.4611 172.128 64.3494 171.999 63.2453 171.93C63.0245 171.915 62.6819 171.694 62.621 171.504C61.5702 168.352 60.527 165.199 59.5372 162.032C58.593 159.016 57.7783 155.963 56.7884 152.963C56.0955 150.862 55.1666 148.844 54.4204 146.758C53.8722 145.227 53.4382 143.651 52.9585 142.098C52.2808 139.92 51.5574 137.75 50.9331 135.557C50.4153 133.737 50.0194 131.879 49.5473 130.044C49.098 128.308 48.527 126.595 48.1919 124.836C47.8569 123.092 47.6361 121.311 47.5752 119.537C47.4914 117.092 47.6361 114.633 47.6133 112.189C47.6056 111.047 48.1767 110.369 48.9991 109.676C50.9788 108.009 52.9052 106.273 54.8163 104.521C56.0651 103.372 57.2301 102.146 58.456 100.935L58.4636 100.912Z" fill="white"/>
<path d="M47.5605 89.1707C47.4082 91.356 47.2788 93.2291 47.1341 95.1022C47.058 96.054 46.9742 97.0058 46.8676 97.9499C46.6849 99.6251 46.4488 101.3 46.3041 102.983C46.1519 104.81 46.1214 106.638 45.9843 108.465C45.8777 109.889 45.6569 111.313 45.5427 112.737C45.459 113.803 45.4361 114.876 45.4361 115.942C45.4513 117.861 45.3371 119.81 45.5808 121.699C45.8549 123.816 46.4184 125.909 46.9361 127.988C47.5681 130.524 48.2762 133.036 48.9691 135.549C49.3955 137.102 49.8219 138.663 50.3397 140.186C51.6494 144.024 53.0428 147.839 54.3524 151.684C55.0681 153.785 55.6621 155.925 56.355 158.034C57.3524 161.072 58.426 164.095 59.4083 167.141C60.2991 169.905 61.0986 172.699 61.9667 175.471C62.157 176.087 62.3169 176.757 63.0783 177.009C63.2459 177.062 63.3981 177.389 63.4286 177.61C63.8855 180.664 65.2636 183.389 66.5276 186.146C67.6012 188.483 68.6901 190.806 69.7484 193.143C70.9515 195.785 70.8982 198.549 70.5327 201.344C70.5022 201.58 70.4261 201.816 70.3347 202.037C70.2434 202.258 70.1063 202.463 69.9921 202.669C69.9007 202.669 69.8093 202.669 69.718 202.661C69.718 201.367 69.718 200.072 69.718 198.786C69.718 198.572 69.8474 198.329 69.7713 198.161C69.6571 197.925 69.4439 197.651 69.2154 197.575C69.0708 197.529 68.6824 197.773 68.6291 197.948C68.4312 198.671 68.2637 199.417 68.2027 200.164C68.1266 201.123 68.2027 202.098 68.1266 203.065C68.0657 203.765 67.8982 204.382 67.3423 204.991C66.6875 205.707 66.4362 206.78 65.8956 207.626C65.4997 208.25 64.9515 208.798 64.4185 209.316C64.2509 209.476 63.8855 209.423 63.5885 209.468C64.3728 208.037 65.2484 206.834 65.6976 205.494C66.124 204.237 66.1164 202.836 66.2687 201.496C66.3905 200.43 66.4895 199.357 66.5581 198.283C66.5733 197.994 66.4438 197.697 66.3753 197.407C66.086 197.506 65.5987 197.529 65.5301 197.712C65.1723 198.618 64.7839 199.547 64.6697 200.499C64.4718 202.204 64.624 203.963 63.9083 205.577C63.4514 206.605 62.8804 207.588 62.2941 208.555C62.1722 208.76 61.7382 208.775 61.4489 208.874C61.3804 208.57 61.1976 208.227 61.2738 207.961C61.5783 206.857 61.8525 205.722 62.3398 204.694C63.0403 203.225 62.7585 201.763 62.6443 200.263C62.4387 197.499 60.8245 195.496 59.1342 193.555C58.426 192.74 58.1976 191.826 57.9692 190.874C57.4057 188.521 57.4971 186.123 57.5047 183.725C57.5047 182.331 57.4743 180.922 57.3144 179.537C57.0479 177.252 55.9666 175.257 54.9768 173.224C53.9032 171.016 52.9362 168.755 51.9082 166.524C50.9565 164.453 49.9894 162.382 49.0224 160.318C47.7509 157.608 46.5173 154.874 45.1772 152.201C43.6696 149.194 42.0249 146.247 40.5021 143.247C39.5122 141.298 38.5757 139.311 37.7305 137.293C36.6188 134.651 35.5757 131.978 34.5782 129.29C33.4437 126.237 33.3828 123.085 33.6569 119.864C33.8548 117.511 33.7939 115.128 33.8548 112.76C33.931 109.676 33.9158 106.592 34.1366 103.524C34.1975 102.694 34.8371 101.803 35.431 101.125C37.8676 98.3383 40.327 95.5514 42.9158 92.9093C44.2331 91.5616 45.8549 90.5108 47.5377 89.1631L47.5605 89.1707Z" fill="white"/>
<path d="M31.8961 344.72C33.2286 345.207 34.5002 345.771 35.8327 346.144C37.1423 346.509 38.4748 346.441 39.7997 345.938C40.782 345.565 41.8632 345.458 42.8835 345.177C44.0256 344.865 45.1525 344.514 46.2718 344.118C46.6145 343.997 47.3987 344.149 47.1246 343.418C46.9723 343.014 46.485 342.702 46.0891 342.428C45.9292 342.321 45.6018 342.375 45.381 342.443C43.6145 342.999 41.8784 343.745 40.0738 344.103C38.7794 344.354 37.386 344.118 36.0459 344.035C35.8632 344.027 35.6043 343.684 35.5357 343.456C34.8809 341.149 34.7439 338.811 35.1398 336.443C35.1779 336.238 35.1474 336.017 35.1398 335.804C35.1322 335.598 35.1017 335.385 35.0637 334.928C34.721 335.248 34.386 335.408 34.3251 335.636C33.6474 338.172 33.3581 340.722 34.2642 343.433C33.5484 343.22 32.9317 343.029 32.2921 342.839C32.2083 341.415 32.0332 339.953 32.0484 338.491C32.0713 337.052 32.2845 335.621 32.4291 334.045C32.6119 334.052 32.9545 334.045 33.2895 334.09C34.8581 334.349 35.9621 335.164 36.7236 336.603C37.0053 337.136 37.7743 337.601 38.3911 337.722C40.2109 338.073 41.9165 337.76 43.5612 336.725C44.5967 336.078 45.9368 335.933 47.0713 335.415C48.6246 334.699 50.117 333.847 51.8988 332.91C54.9521 334.395 58.7135 334.707 62.3379 335.545C63.6932 335.857 65.1323 335.842 66.5334 335.971C67.843 336.085 68.9928 337.273 68.909 338.537C68.8862 338.872 68.6044 339.283 68.3151 339.496C66.1603 341.141 63.7846 342.268 61.0739 342.717C58.1881 343.197 55.2871 343.669 52.4851 344.484C49.3708 345.39 46.3708 346.684 43.3099 347.788C41.8556 348.306 40.3936 348.588 38.8251 348.162C37.622 347.834 36.3428 347.766 35.1246 347.491C33.6322 347.156 32.2235 346.646 31.8733 344.865C31.8657 344.811 31.8961 344.75 31.9037 344.712L31.8961 344.72ZM49.5916 343.083C49.5916 343.083 49.5916 343.128 49.5916 343.151C50.5206 343.045 51.4648 343.029 52.3709 342.824C54.4876 342.359 56.5739 341.689 58.7059 341.324C60.4496 341.019 62.079 340.578 63.579 339.626C64.546 339.009 65.5816 338.499 66.5334 337.859C66.7313 337.722 66.6856 337.227 66.7542 336.9C66.4115 336.87 66.008 336.71 65.7415 336.839C64.4623 337.433 63.2821 338.316 61.9496 338.712C58.8125 339.649 55.6221 340.38 52.4394 341.156C51.3049 341.43 50.1246 341.537 48.9901 341.842C48.6551 341.933 48.1754 342.398 48.1754 342.694C48.1754 343.41 48.815 343.098 49.2262 343.121C49.348 343.121 49.4698 343.106 49.5916 343.098V343.083Z" fill="white"/>
<path d="M34.9657 303.954C35.8871 304.137 36.7551 304.228 37.5698 304.479C39.2982 304.997 40.9886 305.606 42.7094 306.139C43.4023 306.36 43.745 306.543 43.6155 307.487C43.2348 310.32 43.0597 313.183 42.8313 316.03C42.7323 317.279 42.6028 318.535 42.6181 319.784C42.6637 324.17 44.4836 327.787 47.6206 330.772C47.9709 331.107 48.4582 331.289 48.8846 331.541C49.2348 331.746 49.5927 331.944 50.0039 332.18C49.8288 332.317 49.7526 332.424 49.6536 332.462C47.5293 333.223 45.4049 333.962 43.2881 334.739C42.3363 335.089 41.4455 335.599 40.4785 335.865C39.0394 336.261 38.5444 335.964 37.6916 334.731C37.3262 334.206 36.9074 333.65 36.3744 333.33C35.6358 332.888 35.2475 332.256 34.7373 331.601C33.7018 330.277 34.486 329.287 34.8287 328.122C35.3236 326.431 35.948 324.726 36.0698 322.997C36.5038 316.99 35.4911 311.035 35.0343 305.066C35.0114 304.746 34.9962 304.426 34.9657 303.969V303.954Z" fill="white"/>
<path d="M48.1165 108.169C48.0632 107.301 47.9033 106.425 47.9719 105.565C48.2003 102.778 48.5734 99.9988 48.7638 97.2119C48.9084 95.0571 48.8551 92.887 48.9008 90.7246C48.916 90.0698 48.8323 89.3464 49.0759 88.7753C49.2587 88.3413 49.845 87.9759 50.3323 87.7931C53.2866 86.6967 56.0887 87.184 58.6547 88.8972C59.1572 89.2322 59.5532 89.9251 59.7207 90.5266C60.1318 92.0342 60.0785 93.5647 59.5912 95.0876C58.6623 97.9886 56.9795 100.357 54.7333 102.382C52.5785 104.331 50.4922 106.357 48.3754 108.344C48.2841 108.283 48.1927 108.222 48.1013 108.161L48.1165 108.169Z" fill="white"/>
<path d="M18.1757 314.605C18.4651 314.544 18.9448 314.597 19.1427 314.384C19.7595 313.737 20.3839 313.935 20.8559 314.384C21.4042 314.91 21.9905 315.557 22.1732 316.25C22.5235 317.582 23.2316 318.603 24.2138 319.463C25.0895 320.232 25.3636 321.161 25.3407 322.288C25.3027 324.755 24.8915 327.161 24.3813 329.575C24.1072 330.877 24.29 332.278 24.2214 333.633C24.0996 336.115 25.4473 338.103 26.3534 340.25C26.6504 340.958 26.8255 341.735 26.955 342.504C27.1149 343.433 26.3154 343.653 25.7138 344.027C25.1199 344.392 24.9067 343.882 24.5945 343.6C22.9879 342.191 22.3179 340.212 21.6326 338.316C21.3737 337.6 21.7697 336.633 21.9448 335.795C22.4321 333.443 22.7671 331.067 22.0742 328.737C21.5641 327.031 20.4752 325.661 18.4955 324.907C19.295 322.037 20.1021 319.166 20.9092 316.295C20.9549 316.12 21.0844 315.96 21.1072 315.793C21.1377 315.526 21.0996 315.252 21.0844 314.986C20.8255 315.13 20.4143 315.222 20.323 315.443C19.7519 316.79 19.1732 318.153 18.7392 319.547C18.2519 321.092 17.9168 322.684 17.4981 324.313C16.6072 324.161 15.6859 324.009 14.498 323.803C17.2239 321.199 17.5437 317.849 18.1605 314.62L18.1757 314.605Z" fill="white"/>
<path d="M26.3162 319.12C24.9075 317.872 24.1004 316.501 23.7197 314.879C23.6588 314.62 23.5598 314.293 23.3694 314.164C22.4177 313.524 22.7375 312.869 23.2705 312.184C23.3238 312.115 23.3923 312.047 23.438 311.971C24.405 310.448 23.9481 309.26 22.2045 308.818C21.7095 308.696 21.207 308.62 20.6055 308.499C21.108 306.374 21.6029 304.28 22.1207 302.103C24.0395 302.316 26.0344 302.529 28.0294 302.75C28.9888 302.856 29.1182 303.047 28.8212 303.968C28.4329 305.171 27.9989 306.359 27.6487 307.57C26.7959 310.516 26.3695 313.509 26.5294 316.592C26.5674 317.384 26.4075 318.191 26.3238 319.128L26.3162 319.12Z" fill="white"/>
<path d="M11.7573 338.865C12.4883 339.002 13.2193 339.147 13.9502 339.276C16.6 339.748 19.0975 340.716 21.5264 341.82C21.9224 342.002 22.2269 342.672 22.3259 343.167C22.4249 343.67 22.0137 343.86 21.4807 343.693C19.7752 343.152 18.0543 342.65 16.3411 342.117C15.7091 341.919 15.0315 341.781 14.4909 341.439C13.4629 340.769 12.5264 339.969 11.5518 339.223C11.6203 339.109 11.6812 338.987 11.7497 338.873L11.7573 338.865Z" fill="white"/>
<path d="M32.4607 105.145C32.3236 107.643 32.1866 110.148 32.0495 112.638C30.8769 113.14 29.7881 112.805 28.7602 112.508C28.4861 112.432 28.3033 111.663 28.2881 111.206C28.2881 110.864 28.6079 110.506 28.8211 110.178C29.7957 108.648 30.7856 107.125 31.7754 105.602C31.8972 105.412 32.0495 105.244 32.1866 105.062C32.278 105.084 32.3693 105.115 32.4607 105.138V105.145Z" fill="white"/>
<path d="M19.9654 336.009C19.2192 335.651 18.4959 335.24 17.7269 334.959C15.8004 334.243 13.8664 333.565 11.7497 333.794C11.2852 333.847 10.9882 333.717 11.0415 333.146C11.072 332.834 10.9502 332.507 10.874 332.065C12.0999 332.065 13.3106 331.92 14.468 332.103C15.907 332.332 17.2928 332.903 18.7243 333.2C20.3614 333.542 20.8411 333.839 19.9578 336.024L19.9654 336.009Z" fill="white"/>
<path d="M20.4842 339.748C17.507 338.918 14.408 338.057 11.2861 337.189C11.3242 335.354 11.3394 335.255 13.2278 335.606C15.2836 335.986 17.3547 336.451 19.1364 337.654C19.4867 337.89 19.7075 338.347 19.9512 338.735C20.1872 339.108 20.3699 339.519 20.4918 339.755L20.4842 339.748Z" fill="white"/>
<path d="M20.705 332.34C19.1212 331.876 17.5603 331.472 16.0298 330.962C14.4765 330.444 12.8928 330.475 11.309 330.566C10.5552 330.612 10.2582 330.581 10.7532 329.797C10.8826 329.584 10.8521 329.272 10.8978 328.967C12.4207 328.579 13.9664 328.731 15.4816 329.066C16.8522 329.371 18.1771 329.843 19.5324 330.231C20.6669 330.551 20.7354 331.419 20.6974 332.348L20.705 332.34Z" fill="white"/>
<path d="M20.4072 329.18C17.4148 327.863 14.4453 327.117 11.2549 327.223C11.331 326.462 11.6661 325.982 12.3742 325.815C13.9275 325.442 15.5265 325.008 17.0189 325.899C18.1915 326.599 19.524 327.178 20.1788 328.525C20.2625 328.708 20.3158 328.899 20.4148 329.18H20.4072Z" fill="white"/>
<path d="M11.3914 324.337C11.4142 324.238 11.4066 324.078 11.4752 323.964C13.1808 321.329 15.229 318.908 16.3711 315.923C16.4016 315.847 16.6376 315.854 16.9803 315.778C16.295 317.591 15.6706 319.273 15.0158 320.941C14.9016 321.238 14.6731 321.55 14.4066 321.717C13.8051 322.106 13.5158 322.525 13.7823 323.271C13.8432 323.438 13.5843 323.887 13.394 323.948C12.762 324.139 12.0843 324.215 11.3838 324.344L11.3914 324.337Z" fill="white"/>
<path d="M58.5624 201.67C58.4634 199.493 58.3644 197.376 58.2578 195.016C58.9279 196.112 59.537 197.026 60.0548 197.985C60.9076 199.569 60.3898 200.856 58.5624 201.67Z" fill="white"/>
<path d="M33.709 332.118C32.7496 332.781 31.0212 332.171 29.6582 330.641C30.0998 330.382 30.5034 330.077 30.9602 329.91C31.1811 329.834 31.577 329.925 31.7521 330.093C32.4298 330.732 33.0542 331.433 33.7014 332.118H33.709Z" fill="white"/>
<path d="M20.1326 312.047C20.224 311.202 20.3077 310.464 20.3915 309.74C20.5057 309.74 20.5742 309.725 20.6199 309.74C21.29 309.991 22.1961 310.083 22.5387 310.57C22.7671 310.89 22.1961 311.788 21.9448 312.519C21.3281 312.359 20.7646 312.215 20.125 312.047H20.1326Z" fill="white"/>
<path d="M18.1074 311.743C18.4957 311.012 18.8308 310.364 19.2267 309.618C19.3333 311.628 19.1963 311.91 18.1074 311.743Z" fill="white"/>
<path d="M25.417 51.0236C25.5769 49.554 25.7292 48.1682 25.8815 46.79C25.9652 46.79 26.0414 46.79 26.1251 46.79C26.2546 48.1378 26.3764 49.4855 26.5134 50.9017C26.1327 50.9474 25.8282 50.9779 25.4246 51.0312L25.417 51.0236Z" fill="white"/>
<path d="M49.592 343.083C49.4702 343.09 49.3484 343.113 49.2265 343.106C48.8154 343.09 48.1758 343.395 48.1758 342.679C48.1758 342.382 48.6479 341.918 48.9905 341.826C50.125 341.53 51.3052 341.423 52.4398 341.141C55.6225 340.365 58.8129 339.634 61.95 338.697C63.2825 338.301 64.4627 337.418 65.7419 336.824C66.0084 336.702 66.4119 336.854 66.7546 336.885C66.686 337.212 66.7317 337.715 66.5337 337.844C65.582 338.484 64.5464 339.002 63.5794 339.611C62.0794 340.563 60.45 341.012 58.7063 341.309C56.5743 341.674 54.488 342.344 52.3712 342.809C51.4651 343.007 50.521 343.03 49.592 343.136C49.592 343.113 49.592 343.09 49.592 343.068V343.083Z" fill="black"/>
</svg>
