<svg width="330" height="131" viewBox="0 0 330 131" fill="none" xmlns="http://www.w3.org/2000/svg">
<mask id="path-1-outside-1_388_15" maskUnits="userSpaceOnUse" x="-1" y="-1" width="332" height="133" fill="black">
<rect fill="white" x="-1" y="-1" width="332" height="133"/>
<path d="M1.12 60L1.12 4H6L31.6 47.68H29.04L54.4 4H59.28V60L53.6 60V12.88H54.96L31.6 52.88H28.8L5.28 12.88H6.8L6.8 60H1.12ZM93.4463 60.4C89.3929 60.4 85.7396 59.4933 82.4863 57.68C79.2863 55.8133 76.7529 53.28 74.8863 50.08C73.0196 46.8267 72.0863 43.12 72.0863 38.96C72.0863 34.7467 73.0196 31.04 74.8863 27.84C76.7529 24.64 79.2863 22.1333 82.4863 20.32C85.6863 18.5067 89.3396 17.6 93.4463 17.6C97.6063 17.6 101.286 18.5067 104.486 20.32C107.74 22.1333 110.273 24.64 112.086 27.84C113.953 31.04 114.886 34.7467 114.886 38.96C114.886 43.12 113.953 46.8267 112.086 50.08C110.273 53.28 107.74 55.8133 104.486 57.68C101.233 59.4933 97.5529 60.4 93.4463 60.4ZM93.4463 55.36C96.4863 55.36 99.1796 54.6933 101.526 53.36C103.873 51.9733 105.713 50.0533 107.046 47.6C108.433 45.0933 109.126 42.2133 109.126 38.96C109.126 35.6533 108.433 32.7733 107.046 30.32C105.713 27.8667 103.873 25.9733 101.526 24.64C99.1796 23.2533 96.5129 22.56 93.5263 22.56C90.5396 22.56 87.8729 23.2533 85.5263 24.64C83.1796 25.9733 81.3129 27.8667 79.9263 30.32C78.5396 32.7733 77.8463 35.6533 77.8463 38.96C77.8463 42.2133 78.5396 45.0933 79.9263 47.6C81.3129 50.0533 83.1796 51.9733 85.5263 53.36C87.8729 54.6933 90.5129 55.36 93.4463 55.36ZM139.763 60.4C135.816 60.4 132.776 59.3333 130.643 57.2C128.509 55.0667 127.443 52.0533 127.443 48.16V8.72H133.123V47.84C133.123 50.2933 133.736 52.1867 134.963 53.52C136.243 54.8533 138.056 55.52 140.403 55.52C142.909 55.52 144.989 54.8 146.643 53.36L148.643 57.44C147.523 58.4533 146.163 59.2 144.563 59.68C143.016 60.16 141.416 60.4 139.763 60.4ZM119.923 22.72V18H145.923V22.72H119.923ZM174.618 60.4C170.565 60.4 166.911 59.4933 163.658 57.68C160.458 55.8133 157.925 53.28 156.058 50.08C154.191 46.8267 153.258 43.12 153.258 38.96C153.258 34.7467 154.191 31.04 156.058 27.84C157.925 24.64 160.458 22.1333 163.658 20.32C166.858 18.5067 170.511 17.6 174.618 17.6C178.778 17.6 182.458 18.5067 185.658 20.32C188.911 22.1333 191.445 24.64 193.258 27.84C195.125 31.04 196.058 34.7467 196.058 38.96C196.058 43.12 195.125 46.8267 193.258 50.08C191.445 53.28 188.911 55.8133 185.658 57.68C182.405 59.4933 178.725 60.4 174.618 60.4ZM174.618 55.36C177.658 55.36 180.351 54.6933 182.698 53.36C185.045 51.9733 186.885 50.0533 188.218 47.6C189.605 45.0933 190.298 42.2133 190.298 38.96C190.298 35.6533 189.605 32.7733 188.218 30.32C186.885 27.8667 185.045 25.9733 182.698 24.64C180.351 23.2533 177.685 22.56 174.698 22.56C171.711 22.56 169.045 23.2533 166.698 24.64C164.351 25.9733 162.485 27.8667 161.098 30.32C159.711 32.7733 159.018 35.6533 159.018 38.96C159.018 42.2133 159.711 45.0933 161.098 47.6C162.485 50.0533 164.351 51.9733 166.698 53.36C169.045 54.6933 171.685 55.36 174.618 55.36ZM212.134 49.12L212.294 41.84L238.454 18H245.414L226.934 35.68L223.734 38.4L212.134 49.12ZM207.654 60V0.639997L213.334 0.639997V60H207.654ZM240.214 60L222.694 38.16L226.374 33.76L247.174 60H240.214ZM281.24 60V50.72L281 49.2V33.68C281 30.1067 279.987 27.36 277.96 25.44C275.987 23.52 273.027 22.56 269.08 22.56C266.36 22.56 263.773 23.0133 261.32 23.92C258.867 24.8267 256.787 26.0267 255.08 27.52L252.52 23.28C254.653 21.4667 257.213 20.08 260.2 19.12C263.187 18.1067 266.333 17.6 269.64 17.6C275.08 17.6 279.267 18.96 282.2 21.68C285.187 24.3467 286.68 28.4267 286.68 33.92V60H281.24ZM266.76 60.4C263.613 60.4 260.867 59.8933 258.52 58.88C256.227 57.8133 254.467 56.3733 253.24 54.56C252.013 52.6933 251.4 50.56 251.4 48.16C251.4 45.9733 251.907 44 252.92 42.24C253.987 40.4267 255.693 38.9867 258.04 37.92C260.44 36.8 263.64 36.24 267.64 36.24H282.12V40.48H267.8C263.747 40.48 260.92 41.2 259.32 42.64C257.773 44.08 257 45.8667 257 48C257 50.4 257.933 52.32 259.8 53.76C261.667 55.2 264.28 55.92 267.64 55.92C270.84 55.92 273.587 55.2 275.88 53.76C278.227 52.2667 279.933 50.1333 281 47.36L282.28 51.28C281.213 54.0533 279.347 56.2667 276.68 57.92C274.067 59.5733 270.76 60.4 266.76 60.4ZM23.68 130.48C16.5333 130.48 10.9067 128.427 6.8 124.32C2.69333 120.213 0.64 114.133 0.64 106.08L0.64 74H6.56L6.56 105.84C6.56 112.453 8.05333 117.333 11.04 120.48C14.0267 123.627 18.24 125.2 23.68 125.2C29.1733 125.2 33.4133 123.627 36.4 120.48C39.3867 117.333 40.88 112.453 40.88 105.84V74H46.64V106.08C46.64 114.133 44.5867 120.213 40.48 124.32C36.4267 128.427 30.8267 130.48 23.68 130.48ZM84.9594 130.4C81.2794 130.4 77.9727 129.573 75.0394 127.92C72.106 126.213 69.786 123.76 68.0794 120.56C66.3727 117.36 65.5194 113.493 65.5194 108.96C65.5194 104.373 66.3727 100.507 68.0794 97.36C69.8394 94.16 72.186 91.7333 75.1194 90.08C78.0527 88.4267 81.3327 87.6 84.9594 87.6C88.9594 87.6 92.5327 88.5067 95.6794 90.32C98.8794 92.08 101.386 94.56 103.199 97.76C105.013 100.96 105.919 104.693 105.919 108.96C105.919 113.173 105.013 116.907 103.199 120.16C101.386 123.36 98.8794 125.867 95.6794 127.68C92.5327 129.493 88.9594 130.4 84.9594 130.4ZM63.2794 130L63.2794 70.64H68.9594V100.4L68.1594 108.88L68.7194 117.36L68.7194 130H63.2794ZM84.5594 125.36C87.546 125.36 90.2127 124.693 92.5594 123.36C94.906 121.973 96.7727 120.053 98.1594 117.6C99.546 115.093 100.239 112.213 100.239 108.96C100.239 105.653 99.546 102.773 98.1594 100.32C96.7727 97.8667 94.906 95.9733 92.5594 94.64C90.2127 93.2533 87.546 92.56 84.5594 92.56C81.5727 92.56 78.8794 93.2533 76.4794 94.64C74.1327 95.9733 72.266 97.8667 70.8794 100.32C69.546 102.773 68.8794 105.653 68.8794 108.96C68.8794 112.213 69.546 115.093 70.8794 117.6C72.266 120.053 74.1327 121.973 76.4794 123.36C78.8794 124.693 81.5727 125.36 84.5594 125.36ZM134.858 130.4C131.285 130.4 128.165 129.733 125.498 128.4C122.831 127.067 120.751 125.067 119.258 122.4C117.818 119.733 117.098 116.4 117.098 112.4V88L122.778 88V111.76C122.778 116.24 123.871 119.627 126.058 121.92C128.298 124.16 131.418 125.28 135.418 125.28C138.351 125.28 140.885 124.693 143.018 123.52C145.205 122.293 146.858 120.533 147.978 118.24C149.151 115.947 149.738 113.2 149.738 110V88H155.418V130H149.978V118.48L150.858 120.56C149.525 123.653 147.445 126.08 144.618 127.84C141.845 129.547 138.591 130.4 134.858 130.4ZM175.728 119.12L175.888 111.84L202.048 88H209.008L190.528 105.68L187.328 108.4L175.728 119.12ZM171.248 130V70.64H176.928V130H171.248ZM203.808 130L186.288 108.16L189.968 103.76L210.768 130H203.808ZM244.834 130V120.72L244.594 119.2V103.68C244.594 100.107 243.58 97.36 241.554 95.44C239.58 93.52 236.62 92.56 232.674 92.56C229.954 92.56 227.367 93.0133 224.914 93.92C222.46 94.8267 220.38 96.0267 218.674 97.52L216.114 93.28C218.247 91.4667 220.807 90.08 223.794 89.12C226.78 88.1067 229.927 87.6 233.234 87.6C238.674 87.6 242.86 88.96 245.794 91.68C248.78 94.3467 250.274 98.4267 250.274 103.92V130L244.834 130ZM230.354 130.4C227.207 130.4 224.46 129.893 222.114 128.88C219.82 127.813 218.06 126.373 216.834 124.56C215.607 122.693 214.994 120.56 214.994 118.16C214.994 115.973 215.5 114 216.514 112.24C217.58 110.427 219.287 108.987 221.634 107.92C224.034 106.8 227.234 106.24 231.234 106.24H245.714V110.48H231.394C227.34 110.48 224.514 111.2 222.914 112.64C221.367 114.08 220.594 115.867 220.594 118C220.594 120.4 221.527 122.32 223.394 123.76C225.26 125.2 227.874 125.92 231.234 125.92C234.434 125.92 237.18 125.2 239.474 123.76C241.82 122.267 243.527 120.133 244.594 117.36L245.874 121.28C244.807 124.053 242.94 126.267 240.274 127.92C237.66 129.573 234.354 130.4 230.354 130.4ZM278.981 130.4C275.035 130.4 271.995 129.333 269.861 127.2C267.728 125.067 266.661 122.053 266.661 118.16V78.72H272.341V117.84C272.341 120.293 272.955 122.187 274.181 123.52C275.461 124.853 277.275 125.52 279.621 125.52C282.128 125.52 284.208 124.8 285.861 123.36L287.861 127.44C286.741 128.453 285.381 129.2 283.781 129.68C282.235 130.16 280.635 130.4 278.981 130.4ZM259.141 92.72V88H285.141V92.72H259.141ZM324.521 130V120.72L324.281 119.2V103.68C324.281 100.107 323.268 97.36 321.241 95.44C319.268 93.52 316.308 92.56 312.361 92.56C309.641 92.56 307.055 93.0133 304.601 93.92C302.148 94.8267 300.068 96.0267 298.361 97.52L295.801 93.28C297.935 91.4667 300.495 90.08 303.481 89.12C306.468 88.1067 309.615 87.6 312.921 87.6C318.361 87.6 322.548 88.96 325.481 91.68C328.468 94.3467 329.961 98.4267 329.961 103.92V130H324.521ZM310.041 130.4C306.895 130.4 304.148 129.893 301.801 128.88C299.508 127.813 297.748 126.373 296.521 124.56C295.295 122.693 294.681 120.56 294.681 118.16C294.681 115.973 295.188 114 296.201 112.24C297.268 110.427 298.975 108.987 301.321 107.92C303.721 106.8 306.921 106.24 310.921 106.24H325.401V110.48H311.081C307.028 110.48 304.201 111.2 302.601 112.64C301.055 114.08 300.281 115.867 300.281 118C300.281 120.4 301.215 122.32 303.081 123.76C304.948 125.2 307.561 125.92 310.921 125.92C314.121 125.92 316.868 125.2 319.161 123.76C321.508 122.267 323.215 120.133 324.281 117.36L325.561 121.28C324.495 124.053 322.628 126.267 319.961 127.92C317.348 129.573 314.041 130.4 310.041 130.4Z"/>
</mask>
<path d="M1.12 60H0.120001V61H1.12V60ZM1.12 4V3H0.120001V4H1.12ZM6 4L6.86275 3.49436L6.57301 3H6V4ZM31.6 47.68V48.68H33.3452L32.4627 47.1744L31.6 47.68ZM29.04 47.68L28.1752 47.1779L27.3031 48.68H29.04V47.68ZM54.4 4V3H53.8243L53.5352 3.4979L54.4 4ZM59.28 4H60.28V3H59.28V4ZM59.28 60V61H60.28V60H59.28ZM53.6 60H52.6L52.6 61H53.6L53.6 60ZM53.6 12.88V11.88H52.6V12.88H53.6ZM54.96 12.88L55.8235 13.3843L56.702 11.88H54.96V12.88ZM31.6 52.88V53.88H32.174L32.4635 53.3843L31.6 52.88ZM28.8 52.88L27.938 53.3869L28.2279 53.88H28.8V52.88ZM5.28 12.88L5.28 11.88H3.53194L4.41798 13.3869L5.28 12.88ZM6.8 12.88H7.8L7.8 11.88H6.8L6.8 12.88ZM6.8 60V61H7.8V60H6.8ZM2.12 60L2.12 4H0.120001L0.120001 60H2.12ZM1.12 5H6V3H1.12V5ZM5.13726 4.50563L30.7373 48.1856L32.4627 47.1744L6.86275 3.49436L5.13726 4.50563ZM31.6 46.68H29.04V48.68H31.6V46.68ZM29.9048 48.1821L55.2648 4.50209L53.5352 3.4979L28.1752 47.1779L29.9048 48.1821ZM54.4 5H59.28V3H54.4V5ZM58.28 4V60H60.28V4H58.28ZM59.28 59L53.6 59L53.6 61H59.28V59ZM54.6 60V12.88H52.6V60H54.6ZM53.6 13.88H54.96V11.88H53.6V13.88ZM54.0965 12.3757L30.7365 52.3757L32.4635 53.3843L55.8235 13.3843L54.0965 12.3757ZM31.6 51.88H28.8V53.88H31.6V51.88ZM29.662 52.3731L6.14202 12.3731L4.41798 13.3869L27.938 53.3869L29.662 52.3731ZM5.28 13.88H6.8L6.8 11.88H5.28L5.28 13.88ZM5.8 12.88L5.8 60H7.8L7.8 12.88H5.8ZM6.8 59H1.12V61H6.8V59ZM82.4863 57.68L81.9824 58.5438L81.9908 58.5487L81.9994 58.5535L82.4863 57.68ZM74.8863 50.08L74.0189 50.5777L74.0225 50.5839L74.8863 50.08ZM74.8863 27.84L74.0225 27.3361L74.0225 27.3361L74.8863 27.84ZM82.4863 20.32L82.9793 21.19L82.9793 21.19L82.4863 20.32ZM104.486 20.32L103.993 21.19L103.999 21.1935L104.486 20.32ZM112.086 27.84L111.216 28.3331L111.222 28.3439L112.086 27.84ZM112.086 50.08L111.219 49.5823L111.216 49.587L112.086 50.08ZM104.486 57.68L104.973 58.5535L104.984 58.5474L104.486 57.68ZM101.526 53.36L102.02 54.2295L102.028 54.2253L102.035 54.2209L101.526 53.36ZM107.046 47.6L106.171 47.1159L106.168 47.1225L107.046 47.6ZM107.046 30.32L106.168 30.7975L106.172 30.8048L106.176 30.8121L107.046 30.32ZM101.526 24.64L101.018 25.5009L101.025 25.5053L101.032 25.5095L101.526 24.64ZM85.5263 24.64L86.0203 25.5095L86.0277 25.5053L86.035 25.5009L85.5263 24.64ZM79.9263 30.32L80.7968 30.8121L80.7968 30.8121L79.9263 30.32ZM79.9263 47.6L79.0512 48.0841L79.0557 48.0921L79.9263 47.6ZM85.5263 53.36L85.0175 54.2209L85.0248 54.2253L85.0322 54.2295L85.5263 53.36ZM93.4463 59.4C89.5479 59.4 86.0647 58.5297 82.9731 56.8065L81.9994 58.5535C85.4145 60.457 89.238 61.4 93.4463 61.4V59.4ZM82.9901 56.8162C79.9391 55.0365 77.5298 52.6271 75.75 49.5761L74.0225 50.5839C75.9761 53.9329 78.6334 56.5902 81.9824 58.5438L82.9901 56.8162ZM75.7536 49.5823C73.9831 46.4965 73.0863 42.9649 73.0863 38.96H71.0863C71.0863 43.2751 72.0561 47.1568 74.0189 50.5777L75.7536 49.5823ZM73.0863 38.96C73.0863 34.899 73.9843 31.3709 75.75 28.3439L74.0225 27.3361C72.0549 30.7091 71.0863 34.5944 71.0863 38.96H73.0863ZM75.75 28.3439C77.5283 25.2954 79.9342 22.9156 82.9793 21.19L81.9932 19.45C78.6383 21.3511 75.9775 23.9846 74.0225 27.3361L75.75 28.3439ZM82.9793 21.19C86.012 19.4715 89.4918 18.6 93.4463 18.6V16.6C89.1873 16.6 85.3605 17.5419 81.9932 19.45L82.9793 21.19ZM93.4463 18.6C97.4565 18.6 100.962 19.4726 103.993 21.19L104.979 19.45C101.61 17.5408 97.756 16.6 93.4463 16.6V18.6ZM103.999 21.1935C107.095 22.9187 109.495 25.2947 111.216 28.333L112.956 27.347C111.051 23.9853 108.385 21.3479 104.973 19.4465L103.999 21.1935ZM111.222 28.3439C112.988 31.3709 113.886 34.899 113.886 38.96H115.886C115.886 34.5944 114.918 30.7091 112.95 27.3361L111.222 28.3439ZM113.886 38.96C113.886 42.9649 112.989 46.4965 111.219 49.5823L112.954 50.5777C114.916 47.1568 115.886 43.2751 115.886 38.96H113.886ZM111.216 49.587C109.493 52.6279 107.09 55.0333 103.989 56.8126L104.984 58.5474C108.389 56.5934 111.053 53.9321 112.956 50.573L111.216 49.587ZM103.999 56.8065C100.91 58.5286 97.4004 59.4 93.4463 59.4V61.4C97.7054 61.4 101.556 60.4581 104.973 58.5535L103.999 56.8065ZM93.4463 56.36C96.6372 56.36 99.5047 55.6587 102.02 54.2295L101.032 52.4905C98.8544 53.7279 96.3353 54.36 93.4463 54.36V56.36ZM102.035 54.2209C104.541 52.7399 106.507 50.6857 107.925 48.0775L106.168 47.1225C104.918 49.421 103.205 51.2067 101.018 52.4991L102.035 54.2209ZM107.921 48.0841C109.401 45.4101 110.126 42.3594 110.126 38.96H108.126C108.126 42.0673 107.465 44.7766 106.171 47.1159L107.921 48.0841ZM110.126 38.96C110.126 35.511 109.402 32.4556 107.917 29.8279L106.176 30.8121C107.464 33.0911 108.126 35.7957 108.126 38.96H110.126ZM107.925 29.8425C106.506 27.2311 104.535 25.1994 102.02 23.7705L101.032 25.5095C103.211 26.7473 104.92 28.5022 106.168 30.7975L107.925 29.8425ZM102.035 23.7791C99.5197 22.2928 96.6742 21.56 93.5263 21.56V23.56C96.3516 23.56 98.8395 24.2139 101.018 25.5009L102.035 23.7791ZM93.5263 21.56C90.3783 21.56 87.5328 22.2928 85.0175 23.7791L86.035 25.5009C88.2131 24.2139 90.7009 23.56 93.5263 23.56V21.56ZM85.0322 23.7705C82.5211 25.1973 80.5273 27.2243 79.0557 29.8279L80.7968 30.8121C82.0985 28.509 83.8381 26.7493 86.0203 25.5095L85.0322 23.7705ZM79.0557 29.8279C77.5705 32.4556 76.8463 35.511 76.8463 38.96H78.8463C78.8463 35.7957 79.5087 33.0911 80.7968 30.8121L79.0557 29.8279ZM76.8463 38.96C76.8463 42.3594 77.572 45.4101 79.0512 48.0841L80.8013 47.1159C79.5072 44.7766 78.8463 42.0673 78.8463 38.96H76.8463ZM79.0557 48.0921C80.5255 50.6925 82.5148 52.742 85.0175 54.2209L86.035 52.4991C83.8444 51.2046 82.1003 49.4141 80.7968 47.1079L79.0557 48.0921ZM85.0322 54.2295C87.5424 55.6557 90.3552 56.36 93.4463 56.36V54.36C90.6706 54.36 88.2034 53.731 86.0203 52.4905L85.0322 54.2295ZM130.643 57.2L129.935 57.9071L129.935 57.9071L130.643 57.2ZM127.443 8.72V7.72H126.443V8.72H127.443ZM133.123 8.72H134.123V7.72H133.123V8.72ZM134.963 53.52L134.227 54.1971L134.234 54.2049L134.241 54.2125L134.963 53.52ZM146.643 53.36L147.54 52.9198L146.967 51.7509L145.986 52.6059L146.643 53.36ZM148.643 57.44L149.313 58.1815L149.872 57.6762L149.54 56.9998L148.643 57.44ZM144.563 59.68L144.275 58.7221L144.266 58.7249L144.563 59.68ZM119.923 22.72H118.923V23.72H119.923V22.72ZM119.923 18V17H118.923V18H119.923ZM145.923 18H146.923V17H145.923V18ZM145.923 22.72V23.72H146.923V22.72H145.923ZM139.763 59.4C135.996 59.4 133.243 58.3861 131.35 56.4929L129.935 57.9071C132.309 60.2806 135.636 61.4 139.763 61.4V59.4ZM131.35 56.4929C129.454 54.5972 128.443 51.8686 128.443 48.16H126.443C126.443 52.238 127.564 55.5361 129.935 57.9071L131.35 56.4929ZM128.443 48.16V8.72H126.443V48.16H128.443ZM127.443 9.72H133.123V7.72H127.443V9.72ZM132.123 8.72V47.84H134.123V8.72H132.123ZM132.123 47.84C132.123 50.454 132.778 52.6221 134.227 54.1971L135.698 52.8429C134.694 51.7512 134.123 50.1326 134.123 47.84H132.123ZM134.241 54.2125C135.757 55.792 137.861 56.52 140.403 56.52V54.52C138.25 54.52 136.728 53.9146 135.684 52.8275L134.241 54.2125ZM140.403 56.52C143.114 56.52 145.438 55.7353 147.299 54.1141L145.986 52.6059C144.54 53.8647 142.705 54.52 140.403 54.52V56.52ZM145.745 53.8002L147.745 57.8802L149.54 56.9998L147.54 52.9198L145.745 53.8002ZM147.972 56.6985C146.973 57.6019 145.748 58.2803 144.275 58.7222L144.85 60.6378C146.577 60.1197 148.072 59.3047 149.313 58.1815L147.972 56.6985ZM144.266 58.7249C142.817 59.1745 141.317 59.4 139.763 59.4V61.4C141.514 61.4 143.214 61.1455 144.859 60.6351L144.266 58.7249ZM120.923 22.72V18H118.923V22.72H120.923ZM119.923 19H145.923V17H119.923V19ZM144.923 18V22.72H146.923V18H144.923ZM145.923 21.72H119.923V23.72H145.923V21.72ZM163.658 57.68L163.154 58.5438L163.163 58.5487L163.171 58.5535L163.658 57.68ZM156.058 50.08L155.191 50.5777L155.194 50.5839L156.058 50.08ZM156.058 27.84L155.194 27.3361L155.194 27.3361L156.058 27.84ZM163.658 20.32L164.151 21.19L164.151 21.19L163.658 20.32ZM185.658 20.32L185.165 21.19L185.171 21.1935L185.658 20.32ZM193.258 27.84L192.388 28.3331L192.394 28.3439L193.258 27.84ZM193.258 50.08L192.391 49.5823L192.388 49.587L193.258 50.08ZM185.658 57.68L186.145 58.5535L186.156 58.5474L185.658 57.68ZM182.698 53.36L183.192 54.2295L183.2 54.2253L183.207 54.2209L182.698 53.36ZM188.218 47.6L187.343 47.1159L187.34 47.1225L188.218 47.6ZM188.218 30.32L187.34 30.7975L187.343 30.8048L187.348 30.8121L188.218 30.32ZM182.698 24.64L182.189 25.5009L182.197 25.5053L182.204 25.5095L182.698 24.64ZM166.698 24.64L167.192 25.5095L167.2 25.5053L167.207 25.5009L166.698 24.64ZM161.098 30.32L161.969 30.8121L161.969 30.8121L161.098 30.32ZM161.098 47.6L160.223 48.0841L160.228 48.0921L161.098 47.6ZM166.698 53.36L166.189 54.2209L166.197 54.2253L166.204 54.2295L166.698 53.36ZM174.618 59.4C170.72 59.4 167.237 58.5297 164.145 56.8065L163.171 58.5535C166.586 60.457 170.41 61.4 174.618 61.4V59.4ZM164.162 56.8162C161.111 55.0365 158.702 52.6271 156.922 49.5761L155.194 50.5839C157.148 53.9329 159.805 56.5902 163.154 58.5438L164.162 56.8162ZM156.925 49.5823C155.155 46.4965 154.258 42.9649 154.258 38.96H152.258C152.258 43.2751 153.228 47.1568 155.191 50.5777L156.925 49.5823ZM154.258 38.96C154.258 34.899 155.156 31.3709 156.922 28.3439L155.194 27.3361C153.227 30.7091 152.258 34.5944 152.258 38.96H154.258ZM156.922 28.3439C158.7 25.2954 161.106 22.9156 164.151 21.19L163.165 19.45C159.81 21.3511 157.149 23.9846 155.194 27.3361L156.922 28.3439ZM164.151 21.19C167.184 19.4715 170.664 18.6 174.618 18.6V16.6C170.359 16.6 166.532 17.5419 163.165 19.45L164.151 21.19ZM174.618 18.6C178.628 18.6 182.134 19.4726 185.165 21.19L186.151 19.45C182.782 17.5408 178.928 16.6 174.618 16.6V18.6ZM185.171 21.1935C188.267 22.9187 190.666 25.2947 192.388 28.333L194.128 27.347C192.223 23.9853 189.556 21.3479 186.145 19.4465L185.171 21.1935ZM192.394 28.3439C194.16 31.3709 195.058 34.899 195.058 38.96H197.058C197.058 34.5944 196.089 30.7091 194.122 27.3361L192.394 28.3439ZM195.058 38.96C195.058 42.9649 194.161 46.4965 192.391 49.5823L194.125 50.5777C196.088 47.1568 197.058 43.2751 197.058 38.96H195.058ZM192.388 49.587C190.665 52.6279 188.262 55.0333 185.16 56.8126L186.156 58.5474C189.561 56.5934 192.225 53.9321 194.128 50.573L192.388 49.587ZM185.171 56.8065C182.082 58.5286 178.572 59.4 174.618 59.4V61.4C178.877 61.4 182.728 60.4581 186.145 58.5535L185.171 56.8065ZM174.618 56.36C177.809 56.36 180.677 55.6587 183.192 54.2295L182.204 52.4905C180.026 53.7279 177.507 54.36 174.618 54.36V56.36ZM183.207 54.2209C185.713 52.7399 187.679 50.6857 189.097 48.0775L187.34 47.1225C186.09 49.421 184.376 51.2067 182.189 52.4991L183.207 54.2209ZM189.093 48.0841C190.572 45.4101 191.298 42.3594 191.298 38.96H189.298C189.298 42.0673 188.637 44.7766 187.343 47.1159L189.093 48.0841ZM191.298 38.96C191.298 35.511 190.574 32.4556 189.089 29.8279L187.348 30.8121C188.636 33.0911 189.298 35.7957 189.298 38.96H191.298ZM189.097 29.8425C187.678 27.2311 185.707 25.1994 183.192 23.7705L182.204 25.5095C184.383 26.7473 186.092 28.5022 187.34 30.7975L189.097 29.8425ZM183.207 23.7791C180.692 22.2928 177.846 21.56 174.698 21.56V23.56C177.523 23.56 180.011 24.2139 182.189 25.5009L183.207 23.7791ZM174.698 21.56C171.55 21.56 168.705 22.2928 166.189 23.7791L167.207 25.5009C169.385 24.2139 171.873 23.56 174.698 23.56V21.56ZM166.204 23.7705C163.693 25.1973 161.699 27.2243 160.228 29.8279L161.969 30.8121C163.27 28.509 165.01 26.7493 167.192 25.5095L166.204 23.7705ZM160.228 29.8279C158.742 32.4556 158.018 35.511 158.018 38.96H160.018C160.018 35.7957 160.681 33.0911 161.969 30.8121L160.228 29.8279ZM158.018 38.96C158.018 42.3594 158.744 45.4101 160.223 48.0841L161.973 47.1159C160.679 44.7766 160.018 42.0673 160.018 38.96H158.018ZM160.228 48.0921C161.697 50.6925 163.687 52.742 166.189 54.2209L167.207 52.4991C165.016 51.2046 163.272 49.4141 161.969 47.1079L160.228 48.0921ZM166.204 54.2295C168.714 55.6557 171.527 56.36 174.618 56.36V54.36C171.843 54.36 169.375 53.731 167.192 52.4905L166.204 54.2295ZM212.134 49.12L211.135 49.098L211.083 51.4534L212.813 49.8544L212.134 49.12ZM212.294 41.84L211.621 41.1009L211.304 41.3896L211.295 41.818L212.294 41.84ZM238.454 18V17H238.067L237.781 17.2609L238.454 18ZM245.414 18L246.106 18.7226L247.906 17H245.414V18ZM226.934 35.68L227.582 36.4419L227.604 36.4229L227.626 36.4026L226.934 35.68ZM223.734 38.4L223.087 37.6381L223.071 37.6515L223.056 37.6656L223.734 38.4ZM207.654 60H206.654V61H207.654V60ZM207.654 0.639997V-0.360003H206.654V0.639997H207.654ZM213.334 0.639997H214.334V-0.360003H213.334V0.639997ZM213.334 60V61H214.334V60H213.334ZM240.214 60L239.434 60.6257L239.735 61H240.214V60ZM222.694 38.16L221.927 37.5184L221.402 38.1468L221.914 38.7857L222.694 38.16ZM226.374 33.76L227.158 33.1388L226.395 32.1764L225.607 33.1184L226.374 33.76ZM247.174 60V61H249.243L247.958 59.3788L247.174 60ZM213.134 49.142L213.294 41.862L211.295 41.818L211.135 49.098L213.134 49.142ZM212.968 42.5791L239.128 18.7391L237.781 17.2609L211.621 41.1009L212.968 42.5791ZM238.454 19H245.414V17H238.454V19ZM244.723 17.2774L226.243 34.9574L227.626 36.4026L246.106 18.7226L244.723 17.2774ZM226.287 34.9181L223.087 37.6381L224.382 39.1619L227.582 36.4419L226.287 34.9181ZM223.056 37.6656L211.456 48.3856L212.813 49.8544L224.413 39.1344L223.056 37.6656ZM208.654 60V0.639997L206.654 0.639997V60H208.654ZM207.654 1.64L213.334 1.64V-0.360003L207.654 -0.360003V1.64ZM212.334 0.639997V60H214.334V0.639997H212.334ZM213.334 59H207.654V61H213.334V59ZM240.994 59.3743L223.474 37.5343L221.914 38.7857L239.434 60.6257L240.994 59.3743ZM223.461 38.8016L227.141 34.4016L225.607 33.1184L221.927 37.5184L223.461 38.8016ZM225.591 34.3812L246.391 60.6212L247.958 59.3788L227.158 33.1388L225.591 34.3812ZM247.174 59H240.214V61H247.174V59ZM281.24 60H280.24V61H281.24V60ZM281.24 50.72H282.24V50.6415L282.228 50.564L281.24 50.72ZM281 49.2H280V49.2785L280.012 49.356L281 49.2ZM277.96 25.44L277.263 26.1568L277.272 26.166L277.96 25.44ZM261.32 23.92L260.973 22.982L260.973 22.982L261.32 23.92ZM255.08 27.52L254.224 28.0369L254.841 29.0582L255.739 28.2726L255.08 27.52ZM252.52 23.28L251.872 22.5181L251.224 23.0688L251.664 23.7969L252.52 23.28ZM260.2 19.12L260.506 20.072L260.514 20.0696L260.521 20.067L260.2 19.12ZM282.2 21.68L281.52 22.4133L281.527 22.4197L281.534 22.4259L282.2 21.68ZM286.68 60V61H287.68V60H286.68ZM258.52 58.88L258.098 59.7867L258.111 59.7926L258.124 59.7981L258.52 58.88ZM253.24 54.56L252.404 55.1092L252.412 55.1203L253.24 54.56ZM252.92 42.24L252.058 41.733L252.053 41.741L252.92 42.24ZM258.04 37.92L258.454 38.8304L258.463 38.8262L258.04 37.92ZM282.12 36.24H283.12V35.24H282.12V36.24ZM282.12 40.48V41.48H283.12V40.48H282.12ZM259.32 42.64L258.651 41.8967L258.645 41.9024L258.639 41.9081L259.32 42.64ZM259.8 53.76L260.411 52.9682L260.411 52.9682L259.8 53.76ZM275.88 53.76L276.412 54.6069L276.417 54.6037L275.88 53.76ZM281 47.36L281.951 47.0496L281.077 44.3741L280.067 47.001L281 47.36ZM282.28 51.28L283.213 51.639L283.341 51.3074L283.231 50.9696L282.28 51.28ZM276.68 57.92L276.153 57.0701L276.145 57.0749L276.68 57.92ZM282.24 60V50.72H280.24V60H282.24ZM282.228 50.564L281.988 49.044L280.012 49.356L280.252 50.876L282.228 50.564ZM282 49.2V33.68H280V49.2H282ZM282 33.68C282 29.9133 280.926 26.8723 278.648 24.714L277.272 26.166C279.047 27.8477 280 30.3 280 33.68H282ZM278.657 24.7233C276.43 22.5556 273.174 21.56 269.08 21.56V23.56C272.879 23.56 275.544 24.4844 277.263 26.1567L278.657 24.7233ZM269.08 21.56C266.246 21.56 263.542 22.0327 260.973 22.982L261.667 24.858C264.005 23.994 266.474 23.56 269.08 23.56V21.56ZM260.973 22.982C258.423 23.9246 256.233 25.1825 254.421 26.7674L255.739 28.2726C257.34 26.8709 259.31 25.7288 261.667 24.858L260.973 22.982ZM255.936 27.0031L253.376 22.7631L251.664 23.7969L254.224 28.0369L255.936 27.0031ZM253.168 24.0419C255.189 22.3235 257.63 20.9966 260.506 20.072L259.894 18.168C256.797 19.1634 254.117 20.6098 251.872 22.5181L253.168 24.0419ZM260.521 20.067C263.4 19.0904 266.437 18.6 269.64 18.6V16.6C266.229 16.6 262.974 17.1229 259.879 18.173L260.521 20.067ZM269.64 18.6C274.92 18.6 278.83 19.9185 281.52 22.4133L282.88 20.9467C279.704 18.0015 275.24 16.6 269.64 16.6V18.6ZM281.534 22.4259C284.238 24.8401 285.68 28.6012 285.68 33.92H287.68C287.68 28.2521 286.136 23.8533 282.866 20.9341L281.534 22.4259ZM285.68 33.92V60H287.68V33.92H285.68ZM286.68 59H281.24V61H286.68V59ZM266.76 59.4C263.719 59.4 261.113 58.9103 258.916 57.9619L258.124 59.7981C260.621 60.8764 263.508 61.4 266.76 61.4V59.4ZM258.942 57.9733C256.787 56.971 255.178 55.6408 254.068 53.9997L252.412 55.1203C253.755 57.1059 255.666 58.6556 258.098 59.7867L258.942 57.9733ZM254.076 54.0108C252.964 52.3195 252.4 50.38 252.4 48.16H250.4C250.4 50.74 251.062 53.0671 252.404 55.1092L254.076 54.0108ZM252.4 48.16C252.4 46.1346 252.867 44.3356 253.787 42.739L252.053 41.741C250.946 43.6644 250.4 45.8121 250.4 48.16H252.4ZM253.782 42.747C254.723 41.1476 256.252 39.8313 258.454 38.8304L257.626 37.0096C255.135 38.142 253.251 39.7057 252.058 41.733L253.782 42.747ZM258.463 38.8262C260.68 37.7914 263.718 37.24 267.64 37.24V35.24C263.562 35.24 260.2 35.8086 257.617 37.0138L258.463 38.8262ZM267.64 37.24H282.12V35.24H267.64V37.24ZM281.12 36.24V40.48H283.12V36.24H281.12ZM282.12 39.48H267.8V41.48H282.12V39.48ZM267.8 39.48C263.692 39.48 260.54 40.1969 258.651 41.8967L259.989 43.3833C261.3 42.2031 263.802 41.48 267.8 41.48V39.48ZM258.639 41.9081C256.887 43.5393 256 45.5921 256 48H258C258 46.1413 258.66 44.6207 260.001 43.3719L258.639 41.9081ZM256 48C256 50.7034 257.072 52.9185 259.189 54.5518L260.411 52.9682C258.795 51.7215 258 50.0966 258 48H256ZM259.189 54.5518C261.292 56.1736 264.15 56.92 267.64 56.92V54.92C264.41 54.92 262.042 54.2264 260.411 52.9682L259.189 54.5518ZM267.64 56.92C270.993 56.92 273.932 56.1639 276.412 54.6069L275.348 52.9131C273.241 54.2361 270.687 54.92 267.64 54.92V56.92ZM276.417 54.6037C278.957 52.9873 280.795 50.6777 281.933 47.719L280.067 47.001C279.071 49.589 277.496 51.546 275.343 52.9163L276.417 54.6037ZM280.049 47.6704L281.329 51.5904L283.231 50.9696L281.951 47.0496L280.049 47.6704ZM281.347 50.921C280.363 53.4789 278.645 55.5248 276.153 57.0701L277.207 58.7699C280.048 57.0085 282.064 54.6277 283.213 51.639L281.347 50.921ZM276.145 57.0749C273.733 58.6013 270.625 59.4 266.76 59.4V61.4C270.895 61.4 274.401 60.5454 277.215 58.7651L276.145 57.0749ZM6.8 124.32L6.09289 125.027L6.09289 125.027L6.8 124.32ZM0.64 74V73H-0.36V74H0.64ZM6.56 74H7.56V73H6.56V74ZM40.88 74V73H39.88V74H40.88ZM46.64 74H47.64V73H46.64V74ZM40.48 124.32L39.7729 123.613L39.7683 123.618L40.48 124.32ZM23.68 129.48C16.7336 129.48 11.3848 127.491 7.50711 123.613L6.09289 125.027C10.4285 129.363 16.333 131.48 23.68 131.48V129.48ZM7.50711 123.613C3.65078 119.757 1.64 113.973 1.64 106.08H-0.36C-0.36 114.294 1.73589 120.67 6.09289 125.027L7.50711 123.613ZM1.64 106.08L1.64 74H-0.36L-0.36 106.08H1.64ZM0.64 75H6.56V73H0.64V75ZM5.56 74L5.56 105.84H7.56L7.56 74H5.56ZM5.56 105.84C5.56 112.579 7.07849 117.759 10.3147 121.168L11.7653 119.792C9.02818 116.908 7.56 112.328 7.56 105.84H5.56ZM10.3147 121.168C13.5357 124.562 18.0398 126.2 23.68 126.2V124.2C18.4402 124.2 14.5176 122.691 11.7653 119.792L10.3147 121.168ZM23.68 126.2C29.3702 126.2 33.9024 124.564 37.1253 121.168L35.6747 119.792C32.9242 122.689 28.9765 124.2 23.68 124.2V126.2ZM37.1253 121.168C40.3615 117.759 41.88 112.579 41.88 105.84H39.88C39.88 112.328 38.4118 116.908 35.6747 119.792L37.1253 121.168ZM41.88 105.84V74H39.88V105.84H41.88ZM40.88 75H46.64V73H40.88V75ZM45.64 74V106.08H47.64V74H45.64ZM45.64 106.08C45.64 113.973 43.6292 119.757 39.7729 123.613L41.1871 125.027C45.5441 120.67 47.64 114.294 47.64 106.08H45.64ZM39.7683 123.618C35.9456 127.49 30.6269 129.48 23.68 129.48V131.48C31.0264 131.48 36.9077 129.363 41.1917 125.022L39.7683 123.618ZM75.0394 127.92L74.5364 128.784L74.5484 128.791L75.0394 127.92ZM68.0794 120.56L68.9617 120.089L68.9617 120.089L68.0794 120.56ZM68.0794 97.36L67.2031 96.8781L67.2003 96.8832L68.0794 97.36ZM75.1194 90.08L75.6104 90.9512L75.6104 90.9512L75.1194 90.08ZM95.6794 90.32L95.1801 91.1864L95.1887 91.1914L95.1975 91.1962L95.6794 90.32ZM103.199 97.76L104.069 97.267L104.069 97.267L103.199 97.76ZM103.199 120.16L104.069 120.653L104.073 120.647L103.199 120.16ZM95.6794 127.68L95.1864 126.81L95.1801 126.814L95.6794 127.68ZM63.2794 130H62.2794V131H63.2794V130ZM63.2794 70.64V69.64H62.2794V70.64H63.2794ZM68.9594 70.64H69.9594V69.64H68.9594V70.64ZM68.9594 100.4L69.955 100.494L69.9594 100.447V100.4H68.9594ZM68.1594 108.88L67.1638 108.786L67.1563 108.866L67.1615 108.946L68.1594 108.88ZM68.7194 117.36H69.7194V117.327L69.7172 117.294L68.7194 117.36ZM68.7194 130V131H69.7194V130H68.7194ZM92.5594 123.36L93.0534 124.229L93.0608 124.225L93.0681 124.221L92.5594 123.36ZM98.1594 117.6L99.03 118.092L99.0344 118.084L98.1594 117.6ZM92.5594 94.64L92.0506 95.5009L92.058 95.5053L92.0654 95.5095L92.5594 94.64ZM76.4794 94.64L76.9734 95.5095L76.9797 95.5059L76.4794 94.64ZM70.8794 100.32L70.0088 99.8279L70.0047 99.8352L70.0008 99.8425L70.8794 100.32ZM70.8794 117.6L69.9965 118.07L70.0025 118.081L70.0088 118.092L70.8794 117.6ZM76.4794 123.36L75.9706 124.221L75.9821 124.228L75.9937 124.234L76.4794 123.36ZM84.9594 129.4C81.435 129.4 78.3002 128.61 75.5304 127.049L74.5484 128.791C77.6452 130.537 81.1238 131.4 84.9594 131.4V129.4ZM75.5423 127.056C72.7807 125.449 70.5872 123.137 68.9617 120.089L67.197 121.031C68.9849 124.383 71.4314 126.978 74.5365 128.784L75.5423 127.056ZM68.9617 120.089C67.3493 117.066 66.5194 113.369 66.5194 108.96H64.5194C64.5194 113.617 65.3962 117.654 67.197 121.031L68.9617 120.089ZM66.5194 108.96C66.5194 104.494 67.3504 100.802 68.9584 97.8368L67.2003 96.8832C65.395 100.212 64.5194 104.252 64.5194 108.96H66.5194ZM68.9556 97.8419C70.6338 94.7907 72.8528 92.5054 75.6104 90.9512L74.6284 89.2088C71.5192 90.9613 69.045 93.5293 67.2032 96.8781L68.9556 97.8419ZM75.6104 90.9512C78.3824 89.3888 81.4911 88.6 84.9594 88.6V86.6C81.1743 86.6 77.723 87.4646 74.6284 89.2088L75.6104 90.9512ZM84.9594 88.6C88.8024 88.6 92.2003 89.4693 95.1801 91.1864L96.1787 89.4536C92.8651 87.544 89.1164 86.6 84.9594 86.6V88.6ZM95.1975 91.1962C98.2339 92.8662 100.607 95.213 102.329 98.253L104.069 97.267C102.165 93.907 99.5249 91.2938 96.1613 89.4438L95.1975 91.1962ZM102.329 98.253C104.045 101.28 104.919 104.838 104.919 108.96H106.919C106.919 104.548 105.981 100.64 104.069 97.267L102.329 98.253ZM104.919 108.96C104.919 113.026 104.046 116.587 102.326 119.673L104.073 120.647C105.98 117.226 106.919 113.321 106.919 108.96H104.919ZM102.329 119.667C100.605 122.71 98.2289 125.086 95.1864 126.81L96.1724 128.55C99.5299 126.647 102.167 124.01 104.069 120.653L102.329 119.667ZM95.1801 126.814C92.2003 128.531 88.8024 129.4 84.9594 129.4V131.4C89.1164 131.4 92.8651 130.456 96.1787 128.546L95.1801 126.814ZM64.2794 130L64.2794 70.64H62.2794L62.2794 130H64.2794ZM63.2794 71.64H68.9594V69.64H63.2794V71.64ZM67.9594 70.64V100.4H69.9594V70.64H67.9594ZM67.9638 100.306L67.1638 108.786L69.155 108.974L69.955 100.494L67.9638 100.306ZM67.1615 108.946L67.7215 117.426L69.7172 117.294L69.1572 108.814L67.1615 108.946ZM67.7194 117.36L67.7194 130H69.7194L69.7194 117.36H67.7194ZM68.7194 129H63.2794V131H68.7194V129ZM84.5594 126.36C87.7003 126.36 90.5405 125.657 93.0534 124.229L92.0654 122.491C89.8849 123.729 87.3918 124.36 84.5594 124.36V126.36ZM93.0681 124.221C95.5709 122.742 97.5601 120.693 99.0299 118.092L97.2888 117.108C95.9853 119.414 94.2412 121.205 92.0506 122.499L93.0681 124.221ZM99.0344 118.084C100.514 115.41 101.239 112.359 101.239 108.96H99.2394C99.2394 112.067 98.5785 114.777 97.2843 117.116L99.0344 118.084ZM101.239 108.96C101.239 105.511 100.515 102.456 99.0299 99.8279L97.2888 100.812C98.577 103.091 99.2394 105.796 99.2394 108.96H101.239ZM99.0299 99.8279C97.5583 97.2243 95.5645 95.1973 93.0534 93.7705L92.0654 95.5095C94.2476 96.7493 95.9871 98.509 97.2888 100.812L99.0299 99.8279ZM93.0681 93.7791C90.5528 92.2928 87.7074 91.56 84.5594 91.56V93.56C87.3847 93.56 89.8726 94.2139 92.0506 95.5009L93.0681 93.7791ZM84.5594 91.56C81.4111 91.56 78.5429 92.2928 75.9791 93.7741L76.9797 95.5059C79.2158 94.2138 81.7343 93.56 84.5594 93.56V91.56ZM75.9854 93.7705C73.4742 95.1973 71.4804 97.2243 70.0088 99.8279L71.7499 100.812C73.0517 98.509 74.7912 96.7493 76.9734 95.5095L75.9854 93.7705ZM70.0008 99.8425C68.5743 102.467 67.8794 105.517 67.8794 108.96H69.8794C69.8794 105.789 70.5178 103.079 71.758 100.798L70.0008 99.8425ZM67.8794 108.96C67.8794 112.353 68.5757 115.398 69.9965 118.07L71.7622 117.13C70.5164 114.788 69.8794 112.074 69.8794 108.96H67.8794ZM70.0088 118.092C71.4786 120.693 73.4679 122.742 75.9706 124.221L76.9881 122.499C74.7975 121.205 73.0534 119.414 71.7499 117.108L70.0088 118.092ZM75.9937 124.234C78.5551 125.657 81.4181 126.36 84.5594 126.36V124.36C81.7273 124.36 79.2036 123.73 76.965 122.486L75.9937 124.234ZM125.498 128.4L125.945 127.506L125.945 127.506L125.498 128.4ZM119.258 122.4L118.378 122.875L118.382 122.882L118.386 122.889L119.258 122.4ZM117.098 88V87H116.098V88H117.098ZM122.778 88H123.778V87H122.778V88ZM126.058 121.92L125.334 122.61L125.343 122.619L125.351 122.627L126.058 121.92ZM143.018 123.52L143.5 124.396L143.507 124.392L143.018 123.52ZM147.978 118.24L147.088 117.785L147.084 117.793L147.08 117.801L147.978 118.24ZM149.738 88V87H148.738V88H149.738ZM155.418 88H156.418V87H155.418V88ZM155.418 130V131H156.418V130H155.418ZM149.978 130H148.978V131H149.978V130ZM149.978 118.48L150.899 118.09L148.978 118.48H149.978ZM150.858 120.56L151.776 120.956L151.945 120.564L151.779 120.17L150.858 120.56ZM144.618 127.84L145.142 128.692L145.147 128.689L144.618 127.84ZM134.858 129.4C131.41 129.4 128.448 128.757 125.945 127.506L125.051 129.294C127.881 130.71 131.16 131.4 134.858 131.4V129.4ZM125.945 127.506C123.463 126.264 121.529 124.408 120.131 121.911L118.386 122.889C119.974 125.725 122.2 127.869 125.051 129.294L125.945 127.506ZM120.138 121.925C118.798 119.443 118.098 116.285 118.098 112.4H116.098C116.098 116.515 116.838 120.023 118.378 122.875L120.138 121.925ZM118.098 112.4V88H116.098V112.4H118.098ZM117.098 89L122.778 89V87L117.098 87V89ZM121.778 88V111.76H123.778V88H121.778ZM121.778 111.76C121.778 116.39 122.908 120.066 125.334 122.61L126.782 121.23C124.835 119.188 123.778 116.09 123.778 111.76H121.778ZM125.351 122.627C127.825 125.101 131.226 126.28 135.418 126.28V124.28C131.61 124.28 128.772 123.219 126.765 121.213L125.351 122.627ZM135.418 126.28C138.486 126.28 141.192 125.666 143.5 124.396L142.536 122.644C140.578 123.721 138.217 124.28 135.418 124.28V126.28ZM143.507 124.392C145.875 123.064 147.669 121.151 148.877 118.679L147.08 117.801C146.047 119.915 144.535 121.523 142.529 122.648L143.507 124.392ZM148.868 118.695C150.129 116.231 150.738 113.321 150.738 110H148.738C148.738 113.079 148.174 115.662 147.088 117.785L148.868 118.695ZM150.738 110V88H148.738V110H150.738ZM149.738 89H155.418V87H149.738V89ZM154.418 88V130H156.418V88H154.418ZM155.418 129H149.978V131H155.418V129ZM150.978 130V118.48H148.978V130H150.978ZM149.057 118.87L149.937 120.95L151.779 120.17L150.899 118.09L149.057 118.87ZM149.94 120.164C148.686 123.073 146.741 125.34 144.09 126.991L145.147 128.689C148.149 126.82 150.363 124.234 151.776 120.956L149.94 120.164ZM144.094 126.988C141.5 128.584 138.434 129.4 134.858 129.4V131.4C138.749 131.4 142.189 130.509 145.142 128.692L144.094 126.988ZM175.728 119.12L174.728 119.098L174.677 121.453L176.407 119.854L175.728 119.12ZM175.888 111.84L175.215 111.101L174.898 111.39L174.888 111.818L175.888 111.84ZM202.048 88V87H201.661L201.375 87.2609L202.048 88ZM209.008 88L209.699 88.7226L211.5 87H209.008V88ZM190.528 105.68L191.176 106.442L191.198 106.423L191.219 106.403L190.528 105.68ZM187.328 108.4L186.68 107.638L186.665 107.651L186.649 107.666L187.328 108.4ZM171.248 130H170.248V131H171.248V130ZM171.248 70.64V69.64H170.248V70.64H171.248ZM176.928 70.64H177.928V69.64H176.928V70.64ZM176.928 130V131H177.928V130H176.928ZM203.808 130L203.028 130.626L203.328 131H203.808V130ZM186.288 108.16L185.521 107.518L184.996 108.147L185.508 108.786L186.288 108.16ZM189.968 103.76L190.752 103.139L189.989 102.176L189.201 103.118L189.968 103.76ZM210.768 130V131H212.837L211.552 129.379L210.768 130ZM176.728 119.142L176.888 111.862L174.888 111.818L174.728 119.098L176.728 119.142ZM176.562 112.579L202.722 88.7391L201.375 87.2609L175.215 111.101L176.562 112.579ZM202.048 89H209.008V87H202.048V89ZM208.317 87.2774L189.837 104.957L191.219 106.403L209.699 88.7226L208.317 87.2774ZM189.88 104.918L186.68 107.638L187.976 109.162L191.176 106.442L189.88 104.918ZM186.649 107.666L175.049 118.386L176.407 119.854L188.007 109.134L186.649 107.666ZM172.248 130V70.64H170.248V130H172.248ZM171.248 71.64H176.928V69.64H171.248V71.64ZM175.928 70.64V130H177.928V70.64H175.928ZM176.928 129H171.248V131H176.928V129ZM204.588 129.374L187.068 107.534L185.508 108.786L203.028 130.626L204.588 129.374ZM187.055 108.802L190.735 104.402L189.201 103.118L185.521 107.518L187.055 108.802ZM189.184 104.381L209.984 130.621L211.552 129.379L190.752 103.139L189.184 104.381ZM210.768 129H203.808V131H210.768V129ZM244.834 130H243.834V131H244.834V130ZM244.834 120.72H245.834V120.642L245.822 120.564L244.834 120.72ZM244.594 119.2H243.594V119.278L243.606 119.356L244.594 119.2ZM241.554 95.44L240.856 96.1568L240.866 96.166L241.554 95.44ZM224.914 93.92L224.567 92.982L224.567 92.982L224.914 93.92ZM218.674 97.52L217.818 98.0369L218.434 99.0582L219.332 98.2726L218.674 97.52ZM216.114 93.28L215.466 92.5181L214.818 93.0688L215.258 93.7969L216.114 93.28ZM223.794 89.12L224.1 90.072L224.107 90.0696L224.115 90.067L223.794 89.12ZM245.794 91.68L245.114 92.4133L245.121 92.4197L245.128 92.4259L245.794 91.68ZM250.274 130V131H251.274V130H250.274ZM222.114 128.88L221.692 129.787L221.705 129.793L221.717 129.798L222.114 128.88ZM216.834 124.56L215.998 125.109L216.005 125.12L216.834 124.56ZM216.514 112.24L215.652 111.733L215.647 111.741L216.514 112.24ZM221.634 107.92L222.048 108.83L222.057 108.826L221.634 107.92ZM245.714 106.24H246.714V105.24H245.714V106.24ZM245.714 110.48V111.48H246.714V110.48H245.714ZM222.914 112.64L222.245 111.897L222.239 111.902L222.232 111.908L222.914 112.64ZM223.394 123.76L224.005 122.968L224.005 122.968L223.394 123.76ZM239.474 123.76L240.006 124.607L240.011 124.604L239.474 123.76ZM244.594 117.36L245.544 117.05L244.671 114.374L243.66 117.001L244.594 117.36ZM245.874 121.28L246.807 121.639L246.935 121.307L246.824 120.97L245.874 121.28ZM240.274 127.92L239.747 127.07L239.739 127.075L240.274 127.92ZM245.834 130V120.72H243.834V130H245.834ZM245.822 120.564L245.582 119.044L243.606 119.356L243.846 120.876L245.822 120.564ZM245.594 119.2V103.68H243.594V119.2H245.594ZM245.594 103.68C245.594 99.9133 244.52 96.8723 242.241 94.714L240.866 96.166C242.641 97.8477 243.594 100.3 243.594 103.68H245.594ZM242.251 94.7233C240.023 92.5556 236.768 91.56 232.674 91.56V93.56C236.473 93.56 239.138 94.4844 240.856 96.1567L242.251 94.7233ZM232.674 91.56C229.84 91.56 227.136 92.0327 224.567 92.982L225.26 94.858C227.598 93.994 230.067 93.56 232.674 93.56V91.56ZM224.567 92.982C222.017 93.9246 219.827 95.1825 218.015 96.7674L219.332 98.2726C220.934 96.8709 222.904 95.7288 225.26 94.858L224.567 92.982ZM219.53 97.0031L216.97 92.7631L215.258 93.7969L217.818 98.0369L219.53 97.0031ZM216.761 94.0419C218.783 92.3235 221.223 90.9966 224.1 90.072L223.488 88.168C220.391 89.1634 217.711 90.6098 215.466 92.5181L216.761 94.0419ZM224.115 90.067C226.993 89.0904 230.031 88.6 233.234 88.6V86.6C229.823 86.6 226.568 87.1229 223.472 88.173L224.115 90.067ZM233.234 88.6C238.514 88.6 242.423 89.9185 245.114 92.4133L246.474 90.9467C243.298 88.0015 238.834 86.6 233.234 86.6V88.6ZM245.128 92.4259C247.832 94.8401 249.274 98.6012 249.274 103.92H251.274C251.274 98.2521 249.729 93.8533 246.46 90.9341L245.128 92.4259ZM249.274 103.92V130H251.274V103.92H249.274ZM250.274 129L244.834 129V131L250.274 131V129ZM230.354 129.4C227.313 129.4 224.706 128.91 222.51 127.962L221.717 129.798C224.215 130.876 227.101 131.4 230.354 131.4V129.4ZM222.535 127.973C220.381 126.971 218.772 125.641 217.662 124L216.005 125.12C217.349 127.106 219.26 128.656 221.692 129.787L222.535 127.973ZM217.669 124.011C216.558 122.32 215.994 120.38 215.994 118.16H213.994C213.994 120.74 214.656 123.067 215.998 125.109L217.669 124.011ZM215.994 118.16C215.994 116.135 216.461 114.336 217.38 112.739L215.647 111.741C214.54 113.664 213.994 115.812 213.994 118.16H215.994ZM217.376 112.747C218.316 111.148 219.845 109.831 222.048 108.83L221.22 107.01C218.729 108.142 216.844 109.706 215.652 111.733L217.376 112.747ZM222.057 108.826C224.274 107.791 227.312 107.24 231.234 107.24V105.24C227.155 105.24 223.793 105.809 221.211 107.014L222.057 108.826ZM231.234 107.24H245.714V105.24H231.234V107.24ZM244.714 106.24V110.48H246.714V106.24H244.714ZM245.714 109.48H231.394V111.48H245.714V109.48ZM231.394 109.48C227.286 109.48 224.133 110.197 222.245 111.897L223.583 113.383C224.894 112.203 227.395 111.48 231.394 111.48V109.48ZM222.232 111.908C220.48 113.539 219.594 115.592 219.594 118H221.594C221.594 116.141 222.254 114.621 223.595 113.372L222.232 111.908ZM219.594 118C219.594 120.703 220.666 122.918 222.783 124.552L224.005 122.968C222.388 121.722 221.594 120.097 221.594 118H219.594ZM222.783 124.552C224.885 126.174 227.744 126.92 231.234 126.92V124.92C228.003 124.92 225.636 124.226 224.005 122.968L222.783 124.552ZM231.234 126.92C234.587 126.92 237.526 126.164 240.006 124.607L238.942 122.913C236.835 124.236 234.28 124.92 231.234 124.92V126.92ZM240.011 124.604C242.551 122.987 244.389 120.678 245.527 117.719L243.66 117.001C242.665 119.589 241.09 121.546 238.937 122.916L240.011 124.604ZM243.643 117.67L244.923 121.59L246.824 120.97L245.544 117.05L243.643 117.67ZM244.94 120.921C243.957 123.479 242.239 125.525 239.747 127.07L240.801 128.77C243.642 127.009 245.658 124.628 246.807 121.639L244.94 120.921ZM239.739 127.075C237.326 128.601 234.219 129.4 230.354 129.4V131.4C234.488 131.4 237.994 130.545 240.808 128.765L239.739 127.075ZM269.861 127.2L269.154 127.907L269.154 127.907L269.861 127.2ZM266.661 78.72V77.72H265.661V78.72H266.661ZM272.341 78.72H273.341V77.72H272.341V78.72ZM274.181 123.52L273.445 124.197L273.453 124.205L273.46 124.213L274.181 123.52ZM285.861 123.36L286.759 122.92L286.186 121.751L285.204 122.606L285.861 123.36ZM287.861 127.44L288.532 128.182L289.091 127.676L288.759 127L287.861 127.44ZM283.781 129.68L283.494 128.722L283.485 128.725L283.781 129.68ZM259.141 92.72H258.141V93.72H259.141V92.72ZM259.141 88V87H258.141V88H259.141ZM285.141 88H286.141V87H285.141V88ZM285.141 92.72V93.72H286.141V92.72H285.141ZM278.981 129.4C275.215 129.4 272.462 128.386 270.568 126.493L269.154 127.907C271.528 130.281 274.854 131.4 278.981 131.4V129.4ZM270.568 126.493C268.673 124.597 267.661 121.869 267.661 118.16H265.661C265.661 122.238 266.783 125.536 269.154 127.907L270.568 126.493ZM267.661 118.16V78.72H265.661V118.16H267.661ZM266.661 79.72H272.341V77.72H266.661V79.72ZM271.341 78.72V117.84H273.341V78.72H271.341ZM271.341 117.84C271.341 120.454 271.996 122.622 273.445 124.197L274.917 122.843C273.913 121.751 273.341 120.133 273.341 117.84H271.341ZM273.46 124.213C274.976 125.792 277.08 126.52 279.621 126.52V124.52C277.469 124.52 275.946 123.915 274.903 122.827L273.46 124.213ZM279.621 126.52C282.333 126.52 284.657 125.735 286.518 124.114L285.204 122.606C283.759 123.865 281.923 124.52 279.621 124.52V126.52ZM284.963 123.8L286.963 127.88L288.759 127L286.759 122.92L284.963 123.8ZM287.19 126.698C286.192 127.602 284.967 128.28 283.494 128.722L284.069 130.638C285.796 130.12 287.291 129.305 288.532 128.182L287.19 126.698ZM283.485 128.725C282.036 129.175 280.536 129.4 278.981 129.4V131.4C280.733 131.4 282.433 131.145 284.078 130.635L283.485 128.725ZM260.141 92.72V88H258.141V92.72H260.141ZM259.141 89H285.141V87H259.141V89ZM284.141 88V92.72H286.141V88H284.141ZM285.141 91.72H259.141V93.72H285.141V91.72ZM324.521 130H323.521V131H324.521V130ZM324.521 120.72H325.521V120.642L325.509 120.564L324.521 120.72ZM324.281 119.2H323.281V119.278L323.293 119.356L324.281 119.2ZM321.241 95.44L320.544 96.1568L320.554 96.166L321.241 95.44ZM304.601 93.92L304.255 92.982L304.255 92.982L304.601 93.92ZM298.361 97.52L297.505 98.0369L298.122 99.0582L299.02 98.2726L298.361 97.52ZM295.801 93.28L295.154 92.5181L294.506 93.0688L294.945 93.7969L295.801 93.28ZM303.481 89.12L303.787 90.072L303.795 90.0696L303.803 90.067L303.481 89.12ZM325.481 91.68L324.801 92.4133L324.808 92.4197L324.815 92.4259L325.481 91.68ZM329.961 130V131H330.961V130H329.961ZM301.801 128.88L301.38 129.787L301.392 129.793L301.405 129.798L301.801 128.88ZM296.521 124.56L295.685 125.109L295.693 125.12L296.521 124.56ZM296.201 112.24L295.339 111.733L295.335 111.741L296.201 112.24ZM301.321 107.92L301.735 108.83L301.744 108.826L301.321 107.92ZM325.401 106.24H326.401V105.24H325.401V106.24ZM325.401 110.48V111.48H326.401V110.48H325.401ZM302.601 112.64L301.932 111.897L301.926 111.902L301.92 111.908L302.601 112.64ZM303.081 123.76L303.692 122.968L303.692 122.968L303.081 123.76ZM319.161 123.76L319.693 124.607L319.698 124.604L319.161 123.76ZM324.281 117.36L325.232 117.05L324.358 114.374L323.348 117.001L324.281 117.36ZM325.561 121.28L326.495 121.639L326.622 121.307L326.512 120.97L325.561 121.28ZM319.961 127.92L319.434 127.07L319.427 127.075L319.961 127.92ZM325.521 130V120.72H323.521V130H325.521ZM325.509 120.564L325.269 119.044L323.293 119.356L323.533 120.876L325.509 120.564ZM325.281 119.2V103.68H323.281V119.2H325.281ZM325.281 103.68C325.281 99.9133 324.207 96.8723 321.929 94.714L320.554 96.166C322.329 97.8477 323.281 100.3 323.281 103.68H325.281ZM321.939 94.7233C319.711 92.5556 316.455 91.56 312.361 91.56V93.56C316.161 93.56 318.825 94.4844 320.544 96.1567L321.939 94.7233ZM312.361 91.56C309.528 91.56 306.823 92.0327 304.255 92.982L304.948 94.858C307.286 93.994 309.755 93.56 312.361 93.56V91.56ZM304.255 92.982C301.704 93.9246 299.514 95.1825 297.703 96.7674L299.02 98.2726C300.622 96.8709 302.592 95.7288 304.948 94.858L304.255 92.982ZM299.217 97.0031L296.657 92.7631L294.945 93.7969L297.505 98.0369L299.217 97.0031ZM296.449 94.0419C298.471 92.3235 300.911 90.9966 303.787 90.072L303.175 88.168C300.078 89.1634 297.399 90.6098 295.154 92.5181L296.449 94.0419ZM303.803 90.067C306.681 89.0904 309.719 88.6 312.921 88.6V86.6C309.511 86.6 306.255 87.1229 303.16 88.173L303.803 90.067ZM312.921 88.6C318.201 88.6 322.111 89.9185 324.801 92.4133L326.161 90.9467C322.985 88.0015 318.521 86.6 312.921 86.6V88.6ZM324.815 92.4259C327.519 94.8401 328.961 98.6012 328.961 103.92H330.961C330.961 98.2521 329.417 93.8533 326.147 90.9341L324.815 92.4259ZM328.961 103.92V130H330.961V103.92H328.961ZM329.961 129H324.521V131H329.961V129ZM310.041 129.4C307 129.4 304.394 128.91 302.198 127.962L301.405 129.798C303.902 130.876 306.789 131.4 310.041 131.4V129.4ZM302.223 127.973C300.068 126.971 298.46 125.641 297.35 124L295.693 125.12C297.036 127.106 298.948 128.656 301.38 129.787L302.223 127.973ZM297.357 124.011C296.246 122.32 295.681 120.38 295.681 118.16H293.681C293.681 120.74 294.344 123.067 295.686 125.109L297.357 124.011ZM295.681 118.16C295.681 116.135 296.149 114.336 297.068 112.739L295.335 111.741C294.227 113.664 293.681 115.812 293.681 118.16H295.681ZM297.063 112.747C298.004 111.148 299.533 109.831 301.735 108.83L300.907 107.01C298.416 108.142 296.532 109.706 295.339 111.733L297.063 112.747ZM301.744 108.826C303.962 107.791 307 107.24 310.921 107.24V105.24C306.843 105.24 303.481 105.809 300.898 107.014L301.744 108.826ZM310.921 107.24H325.401V105.24H310.921V107.24ZM324.401 106.24V110.48H326.401V106.24H324.401ZM325.401 109.48H311.081V111.48H325.401V109.48ZM311.081 109.48C306.973 109.48 303.821 110.197 301.932 111.897L303.27 113.383C304.582 112.203 307.083 111.48 311.081 111.48V109.48ZM301.92 111.908C300.168 113.539 299.281 115.592 299.281 118H301.281C301.281 116.141 301.941 114.621 303.283 113.372L301.92 111.908ZM299.281 118C299.281 120.703 300.353 122.918 302.47 124.552L303.692 122.968C302.076 121.722 301.281 120.097 301.281 118H299.281ZM302.47 124.552C304.573 126.174 307.432 126.92 310.921 126.92V124.92C307.691 124.92 305.323 124.226 303.692 122.968L302.47 124.552ZM310.921 126.92C314.275 126.92 317.213 126.164 319.693 124.607L318.629 122.913C316.522 124.236 313.968 124.92 310.921 124.92V126.92ZM319.698 124.604C322.238 122.987 324.077 120.678 325.215 117.719L323.348 117.001C322.353 119.589 320.778 121.546 318.624 122.916L319.698 124.604ZM323.331 117.67L324.611 121.59L326.512 120.97L325.232 117.05L323.331 117.67ZM324.628 120.921C323.644 123.479 321.927 125.525 319.434 127.07L320.488 128.77C323.329 127.009 325.345 124.628 326.495 121.639L324.628 120.921ZM319.427 127.075C317.014 128.601 313.907 129.4 310.041 129.4V131.4C314.176 131.4 317.682 130.545 320.496 128.765L319.427 127.075Z" fill="#DDDDDD" mask="url(#path-1-outside-1_388_15)"/>
</svg>
