<svg width="98" height="364" viewBox="0 0 98 364" fill="none" xmlns="http://www.w3.org/2000/svg">
<path d="M44.2709 297.028L43.8605 313.531L40.7415 319.279L26.9521 331.759L50.0165 332.252L56.665 319.279L55.0234 294.729L44.2709 297.028Z" fill="white"/>
<path d="M43.2049 50.5395V62.2809L39.9217 60.9672L27.1993 71.8055L19.5659 73.7761L14.8053 78.4562L7.08984 133.14L14.2308 144.06L12.3429 147.92L13.0817 149.151L16.6111 148.823L19.2376 152.6L20.3047 154.488L28.3485 153.01L76.4471 140.858L80.0586 136.178L83.9163 126.982L90.9752 94.4673L92.2064 85.928L89.2515 76.814L82.521 72.7087L61.919 59.9819L58.7179 61.1314L57.5688 46.9268L43.2049 50.5395Z" fill="white"/>
<path d="M26.5413 64.7449L22.7656 56.7805L24.4893 44.3001L25.7205 23.5267L27.28 15.2338L35.0776 4.4777L47.5537 0.125977L60.276 3.98505L65.1187 8.6652L74.0654 29.4385L77.9231 45.4496L73.4087 59.7364C66.2678 56.6984 59.5373 55.2204 53.2992 55.3846C44.2705 55.0562 35.4059 58.2584 26.5413 64.7449Z" fill="white"/>
<path d="M6.26829 145.129C5.8579 146.032 5.20126 145.704 4.70878 145.375C3.97007 144.883 3.31343 144.226 2.65679 143.651C1.09728 142.173 0.686883 140.285 0.851042 138.314C1.09728 133.716 1.34352 129.036 1.836 124.438C2.16432 121.318 3.31343 118.526 3.97007 115.488C4.70878 112.286 5.8579 109.166 6.67869 105.964C8.07405 100.709 9.30524 95.4538 10.6185 90.1168C10.8648 89.1315 11.4393 88.2283 11.6855 87.3252C11.8497 86.8325 11.6035 86.1756 11.6035 85.6009C11.6035 85.1903 11.4393 84.6977 11.6035 84.3693C12.0959 83.3019 12.5884 82.3166 13.163 81.2492C13.6555 80.2639 14.23 79.3607 14.8867 78.4575C16.4462 76.2406 18.334 74.27 20.7964 73.1205C21.9455 72.6278 23.1767 72.2994 24.3258 71.971C24.6541 71.8889 24.9824 72.2173 25.3928 72.3815C25.1466 72.6278 24.9824 73.1205 24.6541 73.2026C22.7663 73.7773 20.8785 74.3521 19.3189 75.7479C17.8415 77.0617 16.5282 78.4575 15.4612 80.4281C17.5953 80.2639 19.4831 80.2639 21.2889 80.0175C25.9674 79.2786 30.6459 78.4575 35.3245 77.6364C38.5256 77.0617 41.7267 76.4869 44.9278 75.9121C46.8156 75.5837 48.7034 75.1732 50.5913 75.0911C51.33 75.009 52.0687 75.7479 52.8074 76.0764C54.6953 76.8974 54.9415 78.6217 55.1877 80.346C55.6802 83.384 56.0906 86.5041 56.4189 89.5421C56.8293 93.0727 57.2397 96.6034 57.6501 100.052C60.1125 100.298 60.4408 102.926 59.1275 104.568C57.8964 105.964 58.3888 107.195 58.4709 108.591C58.4709 109.248 58.6351 109.823 58.7992 110.644C59.7842 110.069 60.7691 109.576 61.5899 109.002C63.0674 107.934 64.5448 106.785 66.0222 105.717C66.3505 105.471 66.843 105.307 67.1713 105.389C67.9101 105.553 68.1563 105.143 68.2384 104.568C68.4846 103.418 68.7309 102.269 68.895 101.201C69.0592 100.298 69.3875 99.4771 69.3875 98.5739C69.3054 96.1107 69.0592 93.6475 68.895 91.1842C68.895 90.7737 68.6488 90.4453 68.5667 90.1168C68.3205 89.6242 67.9921 88.9673 68.7309 88.721C69.3875 88.5568 70.1262 88.6389 70.3725 89.46C70.7008 90.7737 71.1112 92.0053 71.1932 93.319C71.3574 95.2075 71.4395 97.1781 71.2753 99.1487C71.0291 101.366 70.4545 103.5 70.0441 105.635C69.3875 108.755 68.7309 111.958 68.0742 115.078C67.3355 118.526 66.7609 122.057 65.1194 125.177C64.8731 125.67 64.6269 126.244 65.2835 126.737C65.776 127.065 66.1864 127.64 66.7609 127.969C67.0893 128.133 67.5817 128.133 67.9921 128.133C69.1413 128.051 70.3724 127.886 71.5216 127.886C71.8499 127.886 72.2603 128.379 72.5886 128.625C72.2603 128.872 71.932 129.282 71.5216 129.364C70.3724 129.611 69.1413 129.857 67.9921 130.021C67.1713 130.103 66.3505 130.268 65.6118 130.186C63.8882 130.021 62.4928 131.089 61.0975 131.581C58.1426 132.731 55.3519 134.045 52.1508 134.373C49.6063 134.619 47.0618 135.112 44.4353 135.276C40.9059 135.44 37.2944 135.194 33.9291 133.962C33.4366 133.798 32.9442 133.388 32.2875 133.059C30.728 133.716 29.0864 134.701 27.2807 135.03C24.572 135.605 23.505 137.822 21.9455 139.546C20.386 141.188 18.6623 142.666 16.6924 143.898C15.9537 144.308 15.297 144.801 14.5583 145.293C13.9838 145.622 13.0809 147.592 12.9988 148.742C13.8196 148.578 14.6404 148.331 15.4612 148.249C15.9537 148.167 16.5282 148.085 17.0207 148.085C18.2519 148.167 18.2519 149.152 18.4982 149.974C18.7444 150.959 19.0727 151.862 19.3189 152.847C19.6473 153.915 20.386 153.833 21.3709 153.75C20.5501 152.847 20.8785 152.355 21.6993 151.862C23.4229 150.713 24.9824 149.317 26.7061 148.167C28.1015 147.264 29.4968 146.443 30.9742 145.622C31.2205 145.458 31.6309 145.375 31.8771 145.458C34.3395 146.853 36.9661 146.607 39.5105 146.361C41.1521 146.197 42.8758 146.032 44.5174 145.868C46.3231 145.704 48.1289 145.458 49.8526 145.211C53.2178 144.719 56.5831 144.308 59.9483 143.651C64.2165 142.83 68.4846 141.763 72.6707 140.695C74.066 140.367 75.3793 139.874 76.6926 139.299C77.103 139.135 77.5955 138.807 77.7596 138.396C79.155 135.605 80.5503 132.813 81.8636 130.021C82.3561 128.872 82.6023 127.558 82.9306 126.326C83.1769 125.259 82.1098 125.177 81.6174 125.095C80.1399 124.766 78.6625 124.52 77.1851 124.438C75.8718 124.356 74.5585 124.52 73.2452 124.52C71.1932 124.438 69.3875 125.259 67.4997 125.916C67.2534 125.998 66.843 125.916 66.5147 125.916C66.5968 125.587 66.6789 125.095 66.9251 124.848C68.7309 123.453 70.8649 122.878 73.1632 122.714C74.9689 122.632 76.7747 122.632 78.5804 122.549C80.3862 122.467 81.9457 122.878 83.4231 123.863C83.6693 124.027 83.9156 124.027 84.2439 124.192C84.8185 121.4 85.3109 118.608 85.8855 115.899C86.5421 112.861 87.1988 109.823 87.7733 106.785C88.6762 102.269 89.5791 97.7529 90.3999 93.1548C90.8103 90.6095 90.8923 88.0641 90.4819 85.5188C90.2357 84.1229 90.0715 82.8092 89.9074 81.4134C89.9074 81.1671 90.0715 80.7565 90.2357 80.7565C90.564 80.7565 91.0565 80.8386 91.3027 81.0028C91.6311 81.4134 92.0415 81.9881 92.0415 82.5629C92.3698 84.7798 92.616 87.0788 92.6981 89.2957C92.7802 93.1548 92.2056 96.8497 91.3027 100.627C90.6461 103.336 90.1536 106.128 89.5791 108.837C89.2508 110.644 88.9224 112.45 88.5941 114.339C87.9375 117.295 87.2808 120.25 86.6242 123.288C86.378 124.274 86.2138 125.341 85.8855 126.326C85.8034 126.573 85.4751 126.901 85.2289 126.983C84.4081 127.394 84.2439 128.215 84.0797 129.036C83.5052 131.746 82.6023 134.291 81.1249 136.754C80.7966 137.329 80.6324 138.068 80.3041 138.643C79.8116 139.382 79.3191 140.121 78.7446 140.695C78.2521 141.106 78.0879 141.434 78.3342 142.091C79.237 144.472 80.222 146.936 81.0428 149.399C81.5353 150.959 81.8636 152.683 82.274 154.243C83.0127 157.035 83.6693 159.826 84.7364 162.536C85.8034 165.246 86.378 168.037 86.7884 170.829C87.1167 173.374 87.5271 176.002 87.8554 178.547C88.1837 181.257 88.43 183.966 88.8404 186.676C89.4149 190.371 88.9224 193.983 88.9224 197.596C88.9224 200.306 89.0866 202.933 89.0045 205.643C89.0045 207.367 88.7583 209.091 88.5941 210.816C88.3479 212.704 88.1016 214.592 87.7733 216.481C87.1167 220.012 86.5421 223.542 85.8034 226.991C85.1468 230.357 84.9005 233.806 85.1468 237.254C85.3109 239.471 85.1468 241.77 85.3109 243.987C85.5572 247.354 85.9676 250.802 86.378 254.169C86.6242 256.057 86.7063 258.028 87.1167 259.916C87.6092 262.297 88.3479 264.596 88.9224 266.895C89.1687 268.045 89.1687 269.194 89.497 270.262C90.2357 272.561 91.0565 274.778 91.8773 276.995C93.3547 280.936 94.8322 284.877 96.3917 288.736C96.4738 289.064 96.8021 289.311 97.0483 289.475C97.8691 290.05 97.9512 290.953 97.3766 291.774C95.5709 294.566 92.9443 296.208 89.9074 297.275C87.7733 298.014 85.3109 297.932 83.2589 296.454C82.6023 295.961 82.0278 295.879 81.4532 296.454C79.5654 298.014 77.4313 298.753 74.9689 298.999C74.7227 298.999 74.3123 299.328 74.2302 299.574C72.7528 303.351 71.932 307.374 71.4395 311.398C71.1112 314.025 70.8649 316.653 70.8649 319.362C70.7829 322.236 71.1932 325.11 71.7678 327.901C72.4244 331.022 72.9169 334.224 72.3424 337.344C71.8499 340.218 70.8649 343.091 70.0441 345.883C69.5517 347.607 68.895 349.25 68.0742 350.81C67.4176 352.041 66.4326 353.026 65.5298 354.176C64.1344 355.982 62.8211 357.789 61.2616 359.431C60.5229 360.252 59.4559 360.909 58.3888 361.484C57.1576 362.305 55.8444 363.044 54.5311 363.701C53.5461 364.193 52.5612 364.029 51.4941 363.618C49.3601 362.879 48.3751 361.484 47.8006 359.431C46.8977 356.147 46.5694 352.944 46.9798 349.578C47.3902 346.54 47.8006 343.42 48.293 340.382C48.4572 339.314 48.8676 338.247 49.1959 336.851C47.6364 337.754 46.2411 338.493 45.0099 339.397C42.2192 341.449 39.2643 343.091 36.1453 344.651C34.0933 345.719 32.1234 346.704 29.9072 347.197C27.0344 347.854 24.1616 347.772 21.2889 347.607C19.8935 347.525 18.5802 347.197 17.267 346.786C15.4612 346.212 14.1479 344.898 13.0809 343.42C10.7006 340.3 12.0139 337.262 15.0508 335.784C17.4311 334.552 19.8114 333.321 22.0276 331.843C23.6692 330.775 25.4749 330.118 27.1986 329.215C27.5269 329.051 27.6911 328.723 27.9373 328.558C29.661 327.162 31.3846 325.685 33.1083 324.289C34.3395 323.303 35.5707 322.318 36.8019 321.333C38.1152 320.265 39.4284 319.28 40.5776 318.131C41.3163 317.392 41.8088 316.406 42.4654 315.503C42.7116 315.257 43.122 315.093 43.4503 314.928C43.5324 315.339 43.7787 315.749 43.6145 316.16C42.7937 318.87 40.7417 320.676 38.6077 322.482C36.3094 324.371 34.0112 326.177 31.713 328.066C31.5488 328.148 31.4667 328.394 31.1384 328.805C32.2875 328.805 33.1904 328.969 34.0112 328.805C35.899 328.394 37.7869 327.819 39.5926 327.327C40.2492 327.162 40.9059 327.245 41.6446 327.163C42.055 327.08 42.4654 327.08 42.7116 326.834C44.9278 325.274 47.1439 323.714 49.3601 322.154C51.2479 320.84 53.1357 319.691 54.8594 318.541C54.8594 311.562 54.8594 304.583 54.8594 297.522C51.4121 298.096 48.211 298.671 45.2561 299.164C45.5023 301.873 45.8307 304.501 45.8307 307.21C45.8307 309.099 45.5023 310.987 45.2561 312.876C45.174 313.45 44.8457 314.025 44.1891 313.779C43.5324 313.533 43.6966 313.04 43.7787 312.465C43.9428 311.069 44.0249 309.591 44.0249 308.196C44.0249 305.24 43.8607 302.284 43.7787 299.246C42.6296 299.41 41.6446 299.656 40.7417 299.574C38.6077 299.574 36.5557 299.328 34.6678 298.26C32.6979 297.111 30.728 295.961 28.7581 294.812C28.1835 294.484 27.9373 294.484 27.7731 295.223C27.7731 295.387 27.6911 295.551 27.609 295.633C26.2136 297.029 24.6541 298.178 22.6021 298.507C20.5501 298.835 18.4982 298.835 16.6924 298.096C14.9687 297.439 13.5734 296.208 11.9318 295.223C10.2902 294.237 9.22316 292.841 8.23821 291.281C6.84285 289.147 6.92493 286.93 7.90989 284.713C8.2382 283.974 8.40236 283.153 8.6486 282.414C9.38732 280.115 10.126 277.816 10.7006 275.517C11.2752 273.382 11.6035 271.083 12.0959 268.948C12.8347 266.156 13.6555 263.365 14.3942 260.573C14.8046 259.095 15.215 257.535 15.6254 256.057C16.1999 253.84 16.8566 251.623 17.4311 249.406C18.0057 247.025 18.4982 244.644 18.9906 242.181C19.401 240.128 19.7293 238.157 20.0577 236.105C20.3039 234.627 20.7143 233.067 20.7143 231.589C20.7143 230.521 20.1397 229.536 19.8935 228.469C19.2369 225.677 18.4982 222.885 17.9236 220.094C17.5953 218.534 17.349 217.056 17.1028 215.496C16.5282 211.226 15.9537 206.956 15.4612 202.687C15.297 200.963 15.4612 199.238 15.3791 197.596C15.3791 195.461 15.297 193.327 15.3791 191.192C15.4612 189.467 15.7895 187.743 15.9537 186.019C16.282 183.391 16.6103 180.846 16.9386 178.219C17.1849 176.577 17.349 174.934 17.5953 173.292C17.7594 171.65 17.8415 170.008 18.0878 168.366C18.5802 165.492 19.2369 162.618 19.8935 159.744C20.2218 158.102 20.7143 156.542 21.2068 154.818C20.7964 154.818 20.4681 154.818 20.1397 154.736C19.8114 154.654 19.401 154.654 19.2369 154.407C18.2519 152.847 16.1999 151.862 16.6924 149.481C15.8716 149.563 15.215 149.645 14.5583 149.727C13.6555 149.974 12.8347 149.809 12.178 148.988C11.6035 148.249 11.8497 147.428 12.0959 146.607C12.178 146.361 12.2601 146.197 12.3422 145.786C11.6855 145.95 11.111 146.114 10.6185 146.114C9.55148 146.197 8.48444 146.279 7.49949 146.197C6.76077 146.197 6.43245 145.786 6.84285 145.047C7.17117 144.965 7.49949 144.883 7.82781 144.883C10.2081 144.719 12.5063 144.226 14.4763 142.83C15.7895 141.927 17.1849 141.188 18.4161 140.203C19.8935 138.889 21.2068 137.329 22.6021 135.851C24.3258 133.962 26.1316 132.156 28.4298 130.924C28.8402 130.678 29.3327 130.432 29.5789 130.924C29.661 131.171 29.3327 131.663 29.1685 132.074C29.0864 132.156 29.0043 132.238 28.9223 132.32C29.661 132.238 30.2355 131.992 30.8922 131.828C31.3026 131.746 32.0413 131.499 32.2054 131.663C32.6979 132.32 33.3546 132.074 34.0112 132.156C35.6528 132.32 37.2944 132.649 39.018 132.731C41.5625 132.895 44.1891 133.141 46.7335 132.977C50.6734 132.731 54.5311 132.32 58.2247 130.842C59.9483 130.103 59.62 130.514 59.5379 128.625C59.5379 127.148 58.3068 125.423 60.1946 124.192C59.7842 124.274 59.4559 124.438 59.2096 124.602C58.3067 125.013 57.486 125.423 56.5831 125.752C56.0085 125.998 55.516 125.834 55.3519 125.341C58.7171 123.206 62.0003 121.154 65.2835 119.101C65.5298 117.869 65.8581 116.638 66.1864 115.242C64.5448 117.295 62.739 118.69 60.6871 119.758C60.3587 119.922 59.62 120.004 59.5379 119.84C59.1275 119.347 59.7021 119.019 60.0304 118.69C61.8362 117.212 63.6419 115.817 65.3656 114.257C66.2685 113.435 67.3355 112.532 66.9251 110.89C65.6939 111.875 64.6269 112.943 63.3957 113.846C62.0824 114.749 60.7691 115.57 59.3738 116.391C58.7992 116.72 58.2247 116.72 57.8143 115.899C58.8813 115.16 60.0304 114.503 61.0975 113.764C63.5598 112.122 65.9402 110.397 67.6638 107.934C68.1563 107.195 68.1563 106.703 67.2534 106.21C66.843 106.703 66.4326 107.277 65.9402 107.77C65.0373 108.591 64.0523 109.33 62.9853 110.069C61.0154 111.465 58.9634 112.779 56.501 112.779C55.434 112.779 54.2849 112.779 53.2178 112.697C52.2329 112.614 51.5762 111.711 51.9866 110.808C52.6433 109.494 53.4641 108.181 54.2028 106.949C54.2849 106.867 54.3669 106.785 54.5311 106.703C55.6802 105.799 56.9114 104.978 57.8964 103.993C58.3888 103.5 58.553 102.679 58.7992 101.94C58.8813 101.776 58.6351 101.448 58.553 101.284C58.3068 101.366 58.0605 101.448 57.8964 101.53C55.8444 103.008 53.7103 104.322 51.0837 104.814C50.6734 104.896 50.263 105.225 50.0988 105.471C49.1138 106.867 48.1289 108.345 47.1439 109.741C46.8156 110.151 46.4873 110.644 46.0769 110.972C42.8758 112.943 39.6747 114.996 36.3915 116.884C35.0782 117.623 33.6008 118.034 32.2875 118.773C29.7431 120.25 26.9523 121.072 24.0796 121.646C22.6842 121.893 21.2068 121.975 19.8114 122.303C17.9236 122.714 16.0358 123.371 14.0659 123.863C12.5063 124.274 10.9468 124.684 9.8798 125.916C9.55148 126.244 9.22316 126.655 8.89484 126.901C7.33533 128.215 5.61166 129.282 4.54462 131.171C4.46254 131.253 4.46254 131.335 4.38046 131.417C3.39551 131.663 3.47759 132.485 3.39551 133.223C3.31343 134.784 3.31343 136.261 3.31343 137.822C3.31343 139.299 3.55967 140.613 4.54462 141.763C5.11918 142.502 5.8579 143.159 6.43245 143.898C6.02206 144.39 6.10414 144.801 6.26829 145.129ZM36.0632 107.277C36.884 105.717 37.7869 104.321 38.3614 102.844C38.936 101.448 39.7568 100.627 41.2342 100.38C41.8908 100.298 42.5475 100.38 43.2041 100.462C43.122 100.955 43.04 101.448 42.9579 102.022C42.9579 102.187 42.8758 102.351 42.7937 102.433C41.5625 104.896 40.2492 107.359 39.018 109.823C38.6897 110.48 39.5926 112.286 40.2492 112.368C40.4134 112.368 40.5776 112.286 40.7417 112.204C41.4804 111.793 42.2192 111.301 42.8758 110.808C43.9428 110.069 45.174 109.33 46.159 108.427C47.0618 107.606 47.6364 106.456 48.3751 105.471C48.9497 104.65 49.6884 104.075 50.5913 103.665C52.1508 103.008 53.6282 102.187 55.1056 101.448C55.5981 101.201 55.9264 100.873 55.8444 100.134C55.2698 95.6181 54.7773 91.1021 54.2849 86.5041C54.0386 84.1229 53.7103 81.6597 53.382 79.2786C53.1357 77.7185 51.4941 76.569 50.0167 76.8153C46.9798 77.308 44.0249 77.8006 40.988 78.2933C37.3765 78.868 33.6829 79.4428 30.0714 80.0175C24.8183 80.9207 19.5652 81.8239 14.23 82.7271C14.0659 82.7271 13.8196 82.8092 13.8196 82.8913C13.5734 83.7945 12.9988 84.6977 13.0809 85.6009C13.3271 88.0641 13.8196 90.4453 14.23 92.9085C15.1329 98.4918 16.0358 103.993 16.9386 109.576C17.5132 113.025 18.0057 116.473 18.4982 119.84C18.5802 120.333 18.7444 120.661 19.401 120.661C20.1397 120.579 20.9605 120.579 21.6993 120.497C23.0125 120.415 24.49 120.579 25.7212 120.086C27.4448 119.511 29.0043 118.444 30.6459 117.623C30.8101 117.541 30.9743 117.459 31.0563 117.295C31.795 115.817 32.4517 114.339 33.1904 112.861C33.4366 112.286 33.5187 111.875 33.1083 111.301C31.6309 109.084 30.0714 106.867 28.5939 104.732C27.5269 103.09 27.5269 103.008 29.4147 102.679C30.9743 102.433 32.2875 102.679 33.2725 104.157C34.0933 105.307 35.0782 106.21 36.0632 107.277ZM57.6501 347.361C58.3888 346.868 59.1275 346.376 59.7021 345.801C62.2466 343.174 64.791 340.546 67.3355 337.919C68.3205 336.851 69.4696 335.866 69.3054 334.224C69.2233 333.813 69.0592 333.238 69.2233 332.91C69.6337 331.596 69.3054 330.447 68.9771 329.215C68.0742 326.259 68.0742 323.139 68.3205 320.101C68.4846 317.966 68.8129 315.914 68.895 313.779C68.9771 311.151 69.5517 308.606 70.1262 305.979C70.7008 303.762 71.1932 301.545 71.7678 299.246C67.4176 298.507 63.9702 296.29 60.6871 293.416C60.6871 293.745 60.605 293.991 60.605 294.237C60.8512 297.111 61.0975 300.067 61.2616 302.941C61.4258 305.075 61.7541 307.21 61.5899 309.345C61.3437 312.055 60.9333 314.846 60.1946 317.474C59.5379 320.101 58.3888 322.564 57.486 325.192C56.6652 327.409 55.9264 329.708 55.1056 331.925C54.1207 334.388 54.1207 336.851 54.7773 339.397C55.434 342.106 56.0085 344.898 57.6501 347.361ZM12.3422 89.9526C9.63356 100.38 7.00701 110.972 4.29838 121.4C4.29838 121.4 4.46254 121.4 4.54462 121.318C6.43245 120.25 8.48444 119.594 10.7006 119.676C11.5214 119.758 12.4243 119.511 13.2451 119.676C14.3121 119.84 15.5433 119.265 16.5282 120.497C15.1329 110.151 13.7375 100.052 12.3422 89.9526ZM58.3068 317.227C58.553 315.832 58.7172 314.6 58.9634 313.45C59.4559 310.987 59.8663 308.442 59.7021 305.897C59.5379 303.598 59.5379 301.216 59.4559 298.917C59.4559 297.686 59.3738 296.536 59.2917 295.223C58.2247 295.879 57.2397 296.454 56.2548 297.029C56.0906 297.111 56.0085 297.439 56.0906 297.604C56.2548 299.328 56.501 301.052 56.6652 302.776C56.9114 306.471 57.1576 310.166 57.2397 313.861C57.1576 315.093 57.486 316.078 58.3068 317.227ZM15.215 121.975C15.215 121.81 15.1329 121.646 15.1329 121.482C13.3271 121.482 11.4393 121.236 9.63356 121.564C7.49949 121.893 5.52958 122.632 3.47759 123.124C3.23135 125.587 2.98511 127.969 2.73887 130.514C6.43245 126.573 9.63356 122.549 15.215 121.975ZM64.709 128.543C64.3806 128.133 64.1344 127.804 63.8882 127.558C63.0674 126.901 62.9032 126.162 63.2315 125.177C63.6419 124.11 63.9702 122.96 64.3806 121.564C62.9853 122.385 61.8362 123.042 60.605 123.781C60.5229 123.863 60.3587 124.027 60.3587 124.192C60.605 125.998 60.8512 127.804 61.0975 129.693C62.3287 129.364 63.4778 128.954 64.709 128.543ZM56.6652 106.949C55.0236 107.852 53.9565 109.166 53.2178 110.808C53.1357 110.972 53.382 111.465 53.4641 111.465C54.449 111.547 55.3519 111.547 56.3368 111.465C56.5831 111.465 56.9114 110.972 56.9114 110.726C56.8293 109.494 56.7472 108.263 56.6652 106.949Z" fill="black"/>
<path d="M6.26873 145.13C6.10457 144.801 6.02249 144.391 5.77625 144.144C5.20169 143.405 4.46298 142.748 3.88842 142.009C2.98554 140.86 2.65723 139.464 2.65723 138.068C2.65723 136.508 2.65723 135.03 2.73931 133.47C2.82139 132.813 2.73931 131.91 3.72426 131.664C3.80634 131.664 3.88842 131.5 3.88842 131.418C4.87338 129.529 6.67913 128.462 8.23864 127.148C8.56696 126.82 8.97736 126.491 9.22359 126.163C10.3727 124.931 11.9322 124.521 13.4097 124.11C15.2975 123.617 17.1853 122.96 19.1552 122.55C20.5506 122.221 22.028 122.139 23.4234 121.893C26.2961 121.318 29.0869 120.497 31.6313 119.019C32.9446 118.28 34.422 117.87 35.7353 117.131C39.0185 115.242 42.2196 113.19 45.4207 111.219C45.8311 110.973 46.1594 110.48 46.4877 109.987C47.4727 108.592 48.4576 107.114 49.4426 105.718C49.6888 105.389 50.0992 105.061 50.4275 105.061C52.972 104.568 55.1061 103.255 57.2402 101.777C57.4043 101.612 57.6505 101.612 57.8968 101.53C57.9789 101.777 58.2251 102.023 58.143 102.187C57.8968 102.926 57.7326 103.747 57.2402 104.24C56.1731 105.225 55.024 106.046 53.8749 106.949C53.7928 107.031 53.6287 107.114 53.5466 107.196C52.8079 108.509 51.9871 109.741 51.3304 111.055C50.92 111.958 51.4946 112.861 52.5616 112.943C53.6287 113.025 54.7778 113.025 55.8448 113.025C58.3893 113.025 60.3592 111.63 62.3291 110.316C63.314 109.577 64.299 108.838 65.284 108.017C65.7764 107.606 66.1868 106.949 66.5972 106.457C67.5001 106.949 67.5001 107.442 67.0076 108.181C65.2839 110.644 62.9036 112.369 60.4413 114.011C59.3742 114.75 58.3072 115.407 57.1581 116.145C57.4864 116.967 58.143 116.967 58.7176 116.638C60.1129 115.817 61.4262 114.996 62.7395 114.093C63.9707 113.19 65.1198 112.204 66.2689 111.137C66.6793 112.779 65.5302 113.682 64.7094 114.503C62.9857 116.063 61.18 117.459 59.3742 118.937C58.9638 119.266 58.4713 119.594 58.8817 120.087C59.0459 120.251 59.7025 120.169 60.0309 120.005C62.0828 118.937 63.9707 117.459 65.5302 115.489C65.2019 116.884 64.9556 118.116 64.6273 119.348C61.3441 121.4 58.0609 123.453 54.6957 125.588C54.8598 126.081 55.3523 126.245 55.9269 125.998C56.8298 125.67 57.6506 125.259 58.5534 124.849C58.8817 124.685 59.128 124.52 59.5384 124.438C57.6505 125.752 58.8817 127.394 58.8817 128.872C58.8817 130.761 59.2921 130.35 57.5685 131.089C53.8749 132.567 49.9351 132.978 46.0773 133.224C43.5329 133.388 40.9063 133.142 38.3618 132.978C36.7203 132.896 35.0787 132.567 33.355 132.403C32.7804 132.321 32.1238 132.567 31.5492 131.91C31.3851 131.746 30.6464 131.91 30.236 132.074C29.5793 132.239 29.0048 132.485 28.2661 132.567C28.3481 132.485 28.5123 132.403 28.5123 132.321C28.6765 131.91 29.0048 131.5 28.9227 131.171C28.6765 130.596 28.184 130.925 27.7736 131.171C25.4754 132.403 23.6696 134.209 21.9459 136.098C20.5506 137.576 19.2373 139.136 17.7599 140.449C16.6108 141.517 15.1333 142.174 13.8201 143.077C11.8501 144.473 9.55191 144.965 7.1716 145.13C6.84329 145.13 6.51497 145.212 6.18665 145.294C6.51497 145.212 6.43289 145.212 6.26873 145.13ZM49.3605 126.984C49.3605 126.902 49.3605 126.82 49.3605 126.737C50.3455 126.737 51.4125 126.737 52.3975 126.737C52.8899 126.737 53.4645 126.737 53.957 126.491C54.2032 126.409 54.5315 125.998 54.5315 125.67C54.5315 125.424 54.1211 125.095 53.8749 125.095C52.6437 125.013 51.3304 125.013 50.0172 125.013C48.2114 125.013 46.3236 125.095 44.5178 124.849C43.1225 124.685 42.0554 125.013 40.8242 125.424C40.3318 125.588 39.8393 125.834 40.1676 126.491C40.4959 127.148 40.9884 126.82 41.3988 126.655C42.1375 126.491 42.7941 126.163 43.5329 126.163C45.4207 126.409 47.3906 126.737 49.3605 126.984ZM31.2209 131.089C31.5492 131.007 31.7134 130.925 31.9596 130.843C33.5192 130.104 35.0787 129.447 36.5561 128.626C37.0486 128.38 37.5411 127.969 37.1307 127.312C36.8023 126.737 36.3099 126.82 35.8174 127.066C34.5862 127.723 33.355 128.297 32.1238 129.036C31.6313 129.283 31.2209 129.611 30.8105 130.022C30.6464 130.186 30.5643 130.596 30.6464 130.761C30.7284 130.925 31.0568 131.007 31.2209 131.089Z" fill="white"/>
<path d="M56.6647 62.9389C57.4034 62.282 58.1421 61.7072 58.7166 61.2146C58.3063 59.4082 57.9779 57.684 57.6496 55.9597C57.4855 54.9744 57.5675 53.9891 57.4855 53.0038C57.4034 52.5933 57.1571 52.1006 57.0751 51.6901C57.0751 51.3616 57.0751 50.869 57.3213 50.6227C58.3883 49.2268 59.7016 47.9952 60.6045 46.5173C61.8357 44.4646 62.8206 42.1656 63.8056 39.9486C64.1339 39.2097 64.4622 39.1276 65.1189 39.6202C65.3651 39.7844 65.9397 39.7023 66.3501 39.5381C67.5812 38.9633 68.1558 37.8138 68.4841 36.5822C68.9766 35.0222 68.8945 32.5589 67.4992 31.5736C66.6784 30.9989 65.6934 31.081 65.0368 31.9021C64.8726 32.0663 64.6264 32.2305 64.3801 32.3947C64.216 32.1484 63.8877 31.9021 63.8877 31.6557C63.5593 29.8494 63.231 28.043 62.9027 26.2366C62.8206 25.6618 62.6565 25.1692 62.4923 24.5944C62.4102 24.266 62.164 23.9376 61.9178 23.7734C58.5525 22.2954 56.3363 19.668 54.2023 16.8763C53.0532 15.3984 52.1503 13.7562 51.1653 12.1961C51.0012 11.9498 51.0012 11.7035 50.9191 11.4572C50.7549 11.1287 50.7549 10.2256 51.1653 10.2256C51.4936 10.2256 51.6578 10.7182 51.822 11.0466C52.9711 12.6067 53.874 14.4131 55.1872 15.8089C56.993 17.8616 59.127 19.7501 61.097 21.6386C61.2611 21.8028 61.5074 21.8849 61.9998 22.2133C61.6715 20.8175 61.4253 19.5859 61.0149 18.4363C60.112 15.8089 58.7167 13.3457 57.2392 10.9645C57.0751 10.7182 56.9109 10.1434 57.2392 9.89712C57.6496 9.73291 57.9779 9.89712 58.2242 10.0613C58.6346 10.4719 58.9629 10.9645 59.2912 11.4572C61.2611 14.6594 62.5744 18.0258 63.3952 21.7207C63.4773 22.2954 63.9697 22.7881 64.1339 23.3628C64.216 23.6913 64.1339 24.1018 64.1339 24.4302C64.3801 26.1545 64.7085 27.8788 65.0368 29.5209C65.1189 29.7672 65.5293 30.0136 65.8576 30.0136C68.8124 29.9315 70.5361 31.7378 70.2899 34.8579C70.2078 36.0075 69.9616 37.157 69.5512 38.2244C68.8945 39.9486 67.7454 41.1803 65.6934 41.1803C64.8726 41.1803 64.8726 41.8371 64.7085 42.3298C63.8877 45.0393 62.5744 47.5026 60.4403 49.3911C58.9629 50.7048 58.6346 52.0185 58.9629 53.8249C59.2912 55.467 59.5374 57.0271 59.9478 58.6693C60.1941 59.8188 61.0149 60.3114 62.0819 60.0651C63.3131 59.8188 64.2981 60.2293 65.2009 61.0504C66.1038 61.8715 67.1708 62.5283 68.1558 63.2673C69.7974 64.4168 71.2748 65.6484 72.9985 66.6337C74.8863 67.7011 77.0204 68.4401 78.9082 69.4254C81.4527 70.7391 84.0792 72.0528 86.4596 73.5308C88.0191 74.5161 89.0861 75.994 89.5786 77.8825C89.6607 78.2109 89.4144 78.6215 89.3323 79.032C89.004 78.8678 88.4295 78.7857 88.3474 78.4573C86.8699 75.2551 84.0792 73.9413 81.1244 72.6276C78.3337 71.396 75.543 70.1644 72.9164 68.6043C70.1257 66.88 67.4992 64.8273 64.8726 62.8568C64.6264 62.6104 64.3801 62.282 64.1339 62.1178C63.9697 61.9536 63.6414 61.7072 63.3952 61.7894C61.097 62.1178 59.127 63.1031 57.8138 64.9916C57.4034 65.5663 57.0751 65.5663 56.4184 65.1558C55.3514 64.4989 54.0381 64.0884 52.8069 63.9242C51.0012 63.5957 49.2775 64.1705 47.718 65.1558C47.3897 65.4021 46.9793 65.6484 46.733 65.9769C46.1585 66.5516 45.8302 66.3874 45.3377 65.8126C44.2706 64.581 43.1215 63.4315 41.9724 62.282C41.2337 61.6251 40.5771 61.9536 40.0025 62.6925C39.4279 63.5136 38.7713 64.2526 38.0326 64.9095C34.7494 67.7011 31.0558 69.8359 27.3622 71.9707C27.1981 72.0529 27.0339 72.135 26.9518 72.135C26.5415 72.135 26.2131 72.0528 25.8027 72.0528C25.9669 71.7244 26.049 71.2318 26.2952 71.0676C28.183 69.7538 30.235 68.6043 32.1229 67.2906C34.339 65.6484 36.4731 64.0063 38.1968 61.7894C39.7563 59.8188 41.8903 59.1619 44.1065 61.2146C44.7631 61.8715 45.3377 62.6104 45.9943 63.2673C46.3226 63.6778 46.651 63.5136 47.0613 63.3494C48.2925 62.8568 49.5237 62.282 50.837 62.1178C52.6428 61.6251 54.6127 62.1178 56.6647 62.9389Z" fill="black"/>
<path d="M32.3696 34.2008C31.8772 30.0954 32.3696 25.99 33.1904 21.9667C34.0112 18.2719 35.4887 14.9875 37.951 12.1138C38.1973 11.8674 38.6077 11.4569 38.936 11.539C39.1822 11.7853 39.1002 12.278 38.936 12.6064C37.4586 16.5476 37.4586 20.5709 38.4435 24.6763C38.5256 25.0047 38.6077 25.3331 38.6898 25.8258C39.5926 25.6616 40.5776 25.4973 41.4805 25.4152C41.8088 25.4152 42.3833 25.4974 42.5475 25.7437C42.5475 26.0721 41.9729 26.3184 41.6446 26.4005C40.8238 26.6469 40.003 26.8111 39.0181 27.0574C39.2643 27.7964 39.5926 28.3711 39.8389 29.028C39.921 29.3564 40.0851 29.8491 39.7568 30.1775C39.1822 30.1775 38.936 29.9312 38.7718 29.6849C38.3614 29.1101 38.1152 28.5353 37.6227 27.7143C36.884 28.2069 36.2274 28.7817 35.5707 29.2743C35.3245 29.4385 34.9141 29.6027 34.6679 29.6849C34.3395 29.4385 34.5037 28.7817 34.6679 28.6175C35.1603 28.1248 35.7349 27.7143 36.3095 27.2216C36.6378 26.9753 36.9661 26.8111 37.3765 26.5648C36.5557 23.4447 35.8991 20.3246 36.4736 17.1223C36.3915 17.1223 36.2274 17.1223 36.1453 17.0402C35.7349 18.1076 35.3245 19.175 34.9962 20.3246C33.8471 24.5121 33.2725 28.8638 33.4367 33.2155C33.4367 33.8724 33.765 34.5292 33.8471 35.1861C33.8471 35.4324 33.6829 35.7608 33.6008 36.0893C33.3546 36.0072 33.1084 35.9251 32.8621 35.7608C32.1234 35.2682 31.3026 35.2682 30.9743 36.0893C30.646 36.8282 30.3176 37.7314 30.4818 38.4704C30.646 39.5378 31.0564 40.6873 31.5488 41.6726C32.1234 42.8221 33.4367 43.2327 34.5037 42.6579C35.4066 42.1653 35.817 42.5758 36.0632 43.3969C37.6227 47.6665 40.5776 50.6224 44.4353 52.7572C45.6665 53.4141 47.144 53.7425 48.5393 54.153C49.0318 54.3172 49.5243 54.3994 49.9347 54.4815C50.5092 54.5636 51.1659 54.5636 51.7404 54.3994C52.9716 53.9888 54.0386 53.4141 55.2698 52.9214C55.5161 52.8393 55.8444 53.0035 56.0906 53.0856C56.0086 53.4141 56.0086 53.9067 55.8444 54.0709C54.367 54.8099 52.8075 55.4668 51.33 56.2057C49.6884 56.9447 48.4572 56.0415 47.144 55.3846C46.4052 54.9741 45.5024 54.8099 44.5174 54.3994C44.5174 55.8773 44.5174 57.191 44.5174 58.5048C44.5174 58.8332 44.5174 59.2437 44.3533 59.5722C44.1891 59.8185 43.7787 59.9827 43.5325 60.229C43.3683 59.9006 43.04 59.6543 43.04 59.3258C42.9579 57.7658 42.9579 56.2057 43.04 54.6457C43.04 53.9067 42.6296 53.5783 42.055 53.2498C39.2643 51.4435 37.0482 49.0623 35.6528 46.0243C35.4066 45.3675 35.1603 44.7106 34.9962 44.218C34.1754 44.218 33.3546 44.218 32.6159 44.218C32.3696 44.218 32.0413 44.5464 32.0413 44.7106C31.2205 47.9128 30.8101 51.115 30.9743 54.3994C31.0564 56.6984 31.7951 58.9153 32.8621 60.8859C32.9442 61.0501 33.1084 61.1322 33.1084 61.2964C33.1084 61.6249 32.9442 61.9533 32.9442 62.2817C32.6159 62.1996 32.2055 62.1996 32.0413 61.9533C30.8101 60.3932 29.9893 58.5047 29.661 56.5342C29.0044 52.6751 29.5789 48.8981 30.5639 45.2033C30.8922 44.0537 30.9743 43.1506 30.3176 42.0011C29.661 40.8515 29.3327 39.3736 29.3327 37.9778C29.2506 35.5145 30.0714 34.6934 32.3696 34.2008Z" fill="black"/>
<path d="M71.3576 59.4904C73.7379 55.8777 75.7078 52.1007 76.0361 47.8311C76.2003 45.8605 76.0361 43.8899 75.7899 42.0015C75.2974 38.7171 74.6408 35.5149 73.7379 32.3127C72.5888 28.3715 71.0292 24.5946 69.716 20.7355C68.4848 17.2049 66.679 13.8384 64.627 10.7183C63.8883 9.56881 62.9855 8.58351 62.1647 7.434C61.9184 7.10557 61.5901 6.53082 61.9184 6.12028C62.3288 5.79184 62.9854 6.20238 63.2317 6.44871C65.2016 8.58351 67.0073 10.8004 68.1565 13.51C69.8801 17.5333 71.768 21.5566 73.3275 25.662C75.2974 30.7527 77.0211 35.9255 77.4315 41.5088C77.5956 43.5615 78.0881 45.6963 77.9239 47.749C77.5956 52.1828 76.2823 56.2882 73.3275 59.7368C72.6708 60.4757 72.0142 60.3936 71.3576 59.4904Z" fill="black"/>
<path d="M22.2744 51.8552C22.6027 49.7204 22.9311 46.7645 23.3414 43.8907C23.916 40.1959 24.5726 36.5831 24.983 32.8883C25.2293 30.7535 25.1472 28.6186 25.3114 26.4017C25.3934 25.4985 25.4755 24.5133 25.7218 23.6101C25.8038 23.2816 26.0501 22.8711 26.4605 22.8711C26.7888 22.9532 26.7888 23.4458 26.7888 23.7743C26.7067 26.9765 26.7067 30.2608 26.4605 33.463C26.2142 36.5831 25.6397 39.7032 25.2293 42.9054C24.8189 46.1076 24.2443 49.2277 24.0802 52.43C23.8339 56.2069 24.901 59.7376 26.3784 63.1861C26.5426 63.5145 26.7067 63.7609 26.7888 64.0893C26.7888 64.3356 26.7888 64.7462 26.6246 64.8283C26.3784 64.9104 25.8859 64.9104 25.8038 64.7462C25.3114 64.0893 24.7368 63.3503 24.4085 62.6113C23.0952 59.327 22.4386 56.0427 22.2744 51.8552Z" fill="black"/>
<path d="M60.359 3.98541C60.359 4.8886 59.8665 5.29914 59.3741 4.8886C56.9117 2.91801 54.0389 2.26114 50.9199 1.8506C47.4725 1.44007 44.1893 1.68639 40.9062 2.58958C39.2646 3.08222 37.7051 4.06752 36.3918 5.13492C33.2728 7.68027 30.8104 10.8004 29.0867 14.4952C28.2659 16.3016 27.8555 18.3543 27.2809 20.2428C27.1989 20.5712 27.0347 21.146 26.6243 21.146C26.1318 20.9818 26.1318 20.407 26.1318 19.9965C26.7064 15.1521 28.9225 11.1288 32.0416 7.43395C34.0115 5.13492 36.2276 3.16433 38.8542 1.7685C41.3166 0.454769 43.9431 0.208446 46.6517 0.04423C49.7708 -0.119986 52.9719 0.208446 55.9267 1.19374C57.3221 1.68639 58.5533 2.50747 59.8665 3.16433C60.1128 3.57487 60.2769 3.9033 60.359 3.98541Z" fill="black"/>
<path d="M54.6962 44.5464C51.6593 45.1211 48.6223 45.6959 45.4212 46.2706C46.6524 47.7486 47.8015 49.0623 49.6894 49.3086C49.8535 49.3086 50.0177 49.2265 50.0998 49.3086C50.346 49.4728 50.5922 49.7192 50.8385 49.9655C50.5102 50.1297 50.2639 50.4581 49.9356 50.4581C48.2119 50.4581 46.7345 49.8013 45.6675 48.4875C45.175 47.8307 44.6825 47.1738 44.2721 46.5169C43.6976 45.5317 43.8617 45.1211 45.0108 44.9569C47.0628 44.6285 49.0327 44.3 51.0847 43.9716C52.398 43.7253 53.6292 43.5611 54.9425 43.3147C55.9274 43.1505 56.3378 43.479 56.4199 44.4643C56.502 46.3527 54.9425 48.8981 53.1367 49.4728C52.9726 49.5549 52.6442 49.3907 52.4801 49.3907C52.5622 49.1444 52.5622 48.816 52.7263 48.6518C53.2188 48.077 53.8754 47.5022 54.2858 46.8454C54.6962 46.1885 54.9425 45.4495 55.1887 44.7106C54.9425 44.7106 54.8604 44.6285 54.6962 44.5464Z" fill="black"/>
<path d="M72.5058 45.2045C72.4237 48.4888 71.2746 51.3626 69.3867 53.9079C68.4018 55.2216 67.2527 56.4533 66.1856 57.767C66.0215 57.9312 65.7752 58.1775 65.529 58.1775C65.1186 58.2596 64.7903 58.1775 64.3799 58.1775C64.462 57.767 64.3799 57.3564 64.6261 57.028C66.1036 54.8111 67.7451 52.6763 69.2226 50.4594C70.7 48.1604 71.1104 45.4508 71.1925 42.7412C71.1925 42.4128 71.5208 42.0023 71.685 41.6738C71.9312 42.0844 72.2595 42.4128 72.3416 42.8233C72.4237 43.5623 72.4237 44.3834 72.5058 45.2045Z" fill="black"/>
<path d="M56.2554 24.1027C55.845 25.1701 55.6809 25.2522 54.778 24.8417C54.3676 24.6775 53.793 24.6775 53.3005 24.6775C52.9722 24.6775 52.6439 24.7596 52.3156 24.7596C52.3977 24.4312 52.3977 24.1027 52.4797 23.7743C52.4797 23.6922 52.5618 23.528 52.726 23.3638C50.7561 21.6395 49.2786 19.5047 48.0474 17.2057C47.2267 15.6456 46.6521 14.0035 46.1596 12.3613C45.9134 11.7865 45.7492 10.8833 46.7342 10.3086C47.0625 10.3086 46.9804 10.7191 47.0625 10.8833C47.4729 14.1677 49.2786 16.713 51.0023 19.3405C51.741 20.4079 52.726 21.3932 53.6289 22.3785C53.9572 22.7069 54.6138 22.8711 55.1884 22.8711C56.5837 22.9532 57.9791 22.8711 59.2924 23.0353C59.8669 23.1174 60.4415 23.6922 61.016 24.0206C61.0981 24.1027 61.0981 24.5133 61.016 24.6775C60.9339 24.8417 60.4415 24.8417 60.3594 24.7596C59.1282 23.7743 57.6508 24.1848 56.2554 24.1027Z" fill="black"/>
<path d="M42.7119 12.6067C42.794 15.6447 43.2865 18.6006 44.5998 21.3923C45.5027 23.2807 46.5697 25.1692 47.4726 27.0577C47.5546 27.304 47.8009 27.7967 47.3905 28.043C46.898 28.1251 46.5697 27.8788 46.4055 27.6325C45.3385 25.9082 44.2715 24.266 43.4507 22.4597C42.1374 19.5859 41.4807 16.4658 41.6449 13.2636C41.6449 12.7709 41.727 12.2783 41.8911 11.7856C41.9732 11.5393 42.1374 11.1288 42.4657 11.2109C42.8761 11.2109 42.7119 11.7035 42.794 11.9498C42.8761 12.1141 42.794 12.3604 42.7119 12.6067Z" fill="black"/>
<path d="M35.4072 51.9364C35.4072 51.1975 35.4072 50.4585 35.5714 49.7195C35.6535 49.3911 35.9818 49.1448 36.228 48.8984C36.4743 49.1448 36.8026 49.4732 36.8847 49.7195C36.9667 51.1154 36.9667 52.4291 37.1309 53.8249C37.2951 55.0565 37.6234 56.206 37.8696 57.4377C37.9517 57.7661 37.8696 58.1766 37.8696 58.5051C37.4592 58.423 36.8847 58.3409 36.8026 58.0945C36.3922 57.0271 35.9818 55.9597 35.8176 54.8923C35.4893 53.9891 35.4893 52.9217 35.4072 51.9364Z" fill="black"/>
<path d="M65.2017 50.9513C64.7913 51.8545 64.545 52.7576 64.1347 53.4966C63.3959 54.7282 62.5751 55.8777 61.7543 56.9451C61.5081 57.2736 60.9336 57.2736 60.5232 57.5199C60.5232 57.1094 60.359 56.5346 60.5232 56.2062C61.344 54.7282 62.3289 53.2503 63.2318 51.7723C63.3959 51.4439 63.478 51.1155 63.6422 50.7871C63.8884 50.4586 64.1347 50.1302 64.3809 49.8018C64.6271 50.2123 64.9555 50.5407 65.2017 50.9513Z" fill="black"/>
<path d="M56.0913 29.5205C57.0763 29.6847 58.3075 29.931 59.5387 30.2595C59.867 30.3416 60.1132 30.9163 60.3595 31.2448C59.9491 31.409 59.5387 31.8195 59.1283 31.8195C57.8971 31.7374 56.748 31.4911 55.5168 31.3269C55.1885 31.2448 54.7781 31.3269 54.4497 31.2448C54.1214 31.1627 53.8752 30.9163 53.5469 30.7521C53.7931 30.4237 53.8752 30.0132 54.2035 29.8489C54.7781 29.6847 55.2705 29.6847 56.0913 29.5205Z" fill="black"/>
<path d="M43.8607 32.2311C43.3682 32.5595 43.2041 32.8058 42.9578 32.888C41.6446 33.5448 40.2492 34.1196 38.8539 34.7764C38.3614 35.0228 37.7868 35.2691 37.4585 34.6943C37.2943 34.3659 37.5406 33.709 37.8689 33.4627C39.2643 32.3953 40.9058 31.8206 42.6295 31.7384C43.0399 31.6563 43.3682 31.9848 43.8607 32.2311Z" fill="black"/>
<path d="M49.7705 40.4414C50.1809 40.6877 50.7555 40.9341 50.8376 41.2625C51.0017 42.0015 50.3451 42.1657 49.7705 42.2478C49.5243 42.3299 49.1139 42.412 48.9498 42.2478C48.6214 42.0836 48.3752 41.673 48.0469 41.4267C48.3752 41.1804 48.6214 40.8519 48.9498 40.6877C49.1139 40.6056 49.3601 40.6056 49.6064 40.6056C49.6885 40.6056 49.6885 40.5235 49.7705 40.4414Z" fill="black"/>
<path d="M36.0625 107.277C35.0775 106.209 34.0925 105.306 33.3538 104.157C32.3689 102.679 31.0556 102.514 29.4961 102.679C27.6083 102.925 27.5262 103.089 28.6753 104.731C30.1527 106.948 31.6302 109.165 33.1897 111.3C33.518 111.793 33.518 112.285 33.2717 112.86C32.533 114.338 31.8764 115.816 31.1377 117.294C31.0556 117.458 30.8914 117.54 30.7273 117.622C29.0857 118.443 27.5262 119.511 25.8025 120.085C24.5713 120.496 23.0939 120.332 21.7806 120.496C21.0419 120.578 20.2211 120.578 19.4824 120.66C18.8257 120.742 18.6616 120.414 18.5795 119.839C18.087 116.391 17.5945 112.942 17.02 109.576C16.1171 103.992 15.2142 98.4911 14.3114 92.9077C13.901 90.4445 13.4085 88.0634 13.1623 85.6001C13.0802 84.779 13.6547 83.7937 13.901 82.8906C13.901 82.8084 14.1472 82.7263 14.3114 82.7263C19.5645 81.8232 24.8176 80.92 30.1527 80.0168C33.7642 79.442 37.4578 78.8673 41.0693 78.2925C44.1063 77.7999 47.0611 77.3072 50.0981 76.8146C51.5755 76.5682 53.2171 77.7177 53.4633 79.2778C53.7916 81.6589 54.12 84.0401 54.3662 86.5033C54.9408 91.0192 55.4332 95.5352 55.9257 100.133C56.0078 100.872 55.6795 101.119 55.187 101.447C53.7096 102.186 52.2321 103.007 50.6726 103.664C49.6877 104.074 49.031 104.649 48.4565 105.47C47.7178 106.456 47.0611 107.605 46.2403 108.426C45.2554 109.329 44.1063 110.068 42.9571 110.807C42.3005 111.3 41.5618 111.71 40.8231 112.203C40.6589 112.285 40.4948 112.449 40.3306 112.367C39.674 112.285 38.7711 110.479 39.0994 109.822C40.3306 107.359 41.6439 104.895 42.8751 102.432C42.9571 102.268 43.0392 102.104 43.0392 102.022C43.1213 101.529 43.2034 101.036 43.2855 100.462C42.6288 100.462 41.9722 100.297 41.3156 100.38C39.8381 100.626 39.0173 101.447 38.4428 102.843C37.7861 104.321 36.8833 105.717 36.0625 107.277Z" fill="white"/>
<path d="M57.6503 347.361C56.0087 344.898 55.4341 342.106 54.7775 339.314C54.1209 336.769 54.2029 334.306 55.1058 331.843C55.9266 329.626 56.6653 327.327 57.4861 325.11C58.389 322.564 59.5381 320.019 60.1947 317.392C60.8514 314.764 61.3439 311.972 61.5901 309.263C61.7542 307.128 61.4259 304.993 61.2618 302.859C61.0155 299.903 60.7693 297.029 60.6051 294.155C60.6051 293.909 60.6051 293.662 60.6872 293.334C63.8883 296.208 67.3357 298.425 71.768 299.164C71.1934 301.463 70.7009 303.68 70.1264 305.897C69.5518 308.442 68.9773 310.987 68.8952 313.697C68.8131 315.832 68.4848 317.884 68.3206 320.019C67.9923 323.139 68.0744 326.177 68.9773 329.133C69.3876 330.365 69.6339 331.514 69.2235 332.828C69.0593 333.238 69.2235 333.731 69.3056 334.142C69.4697 335.784 68.3206 336.769 67.3357 337.837C64.8733 340.546 62.3288 343.091 59.7023 345.719C59.1277 346.376 58.389 346.868 57.6503 347.361Z" fill="white"/>
<path d="M12.342 89.9521C13.7373 100.051 15.1327 110.151 16.6101 120.496C15.6251 119.265 14.3939 119.839 13.3269 119.675C12.5061 119.593 11.6032 119.757 10.7824 119.675C8.56629 119.593 6.5143 120.25 4.62647 121.317C4.46231 121.399 4.29815 121.399 4.38023 121.399C6.9247 110.972 9.63332 100.38 12.342 89.9521Z" fill="white"/>
<path d="M15.2144 121.974C9.63297 122.631 6.43186 126.654 2.73828 130.513C2.98452 127.968 3.23076 125.669 3.477 123.124C5.52899 122.549 7.4989 121.892 9.63297 121.563C11.4387 121.317 13.3265 121.481 15.1323 121.481C15.1323 121.646 15.1323 121.81 15.2144 121.974Z" fill="white"/>
<path d="M64.7096 128.544C63.4784 128.954 62.3293 129.365 61.0981 129.775C60.8519 127.887 60.6056 126.08 60.3594 124.274C60.3594 124.11 60.4415 123.946 60.6056 123.863C61.7547 123.124 62.9859 122.468 64.3813 121.646C63.9709 122.96 63.6426 124.11 63.2322 125.259C62.9038 126.245 63.068 126.984 63.8888 127.64C64.135 127.805 64.2992 128.133 64.7096 128.544Z" fill="white"/>
<path d="M56.666 106.949C56.7481 108.345 56.9122 109.495 56.9122 110.726C56.9122 110.973 56.5839 111.383 56.3377 111.465C55.3527 111.547 54.4499 111.547 53.4649 111.465C53.3828 111.465 53.1366 110.973 53.2187 110.808C53.9574 109.166 54.9423 107.852 56.666 106.949Z" fill="white"/>
<path d="M49.3605 126.982C47.3906 126.736 45.4207 126.408 43.5328 126.326C42.8762 126.243 42.1375 126.572 41.3988 126.818C40.9884 126.9 40.4138 127.311 40.1676 126.654C39.9213 125.997 40.4138 125.751 40.8242 125.587C41.9733 125.176 43.1224 124.766 44.5178 125.012C46.3235 125.258 48.2114 125.094 50.0171 125.176C51.3304 125.176 52.5616 125.176 53.8749 125.258C54.1211 125.258 54.5315 125.669 54.5315 125.833C54.5315 126.079 54.2032 126.49 53.9569 126.654C53.4645 126.818 52.972 126.818 52.3974 126.9C51.4125 126.9 50.3454 126.9 49.3605 126.9C49.3605 126.818 49.3605 126.9 49.3605 126.982Z" fill="black"/>
<path d="M31.221 131.088C31.0569 131.006 30.7285 130.924 30.6465 130.76C30.5644 130.513 30.6465 130.185 30.8106 130.021C31.221 129.61 31.6314 129.282 32.1239 129.035C33.3551 128.379 34.5863 127.722 35.8175 127.065C36.3099 126.819 36.8845 126.736 37.1307 127.311C37.4591 127.968 37.0487 128.379 36.5562 128.625C34.9967 129.364 33.4372 130.103 31.9597 130.842C31.7135 130.924 31.5493 131.006 31.221 131.088Z" fill="black"/>
</svg>
