<svg width="955" height="100" viewBox="0 0 955 100" fill="none" xmlns="http://www.w3.org/2000/svg">
<mask id="path-1-outside-1_388_6" maskUnits="userSpaceOnUse" x="-1" y="-1" width="957" height="102" fill="black">
<rect fill="white" x="-1" y="-1" width="957" height="102"/>
<path d="M0.512297 98L0.512297 7.91802H11.0648L51.473 75.9943H45.8107L85.7041 7.91802H96.2566L96.3853 98H84.0312L83.9025 27.35H86.8623L51.3443 87.0615H45.4246L9.64918 27.35H12.8664L12.8664 98H0.512297ZM121.618 98V29.7951H133.972V98H121.618ZM127.795 16.6688C125.393 16.6688 123.377 15.8967 121.747 14.3524C120.203 12.8082 119.431 10.9208 119.431 8.69015C119.431 6.37376 120.203 4.44343 121.747 2.89917C123.377 1.3549 125.393 0.582773 127.795 0.582773C130.198 0.582773 132.171 1.3549 133.715 2.89917C135.345 4.35763 136.16 6.20217 136.16 8.43277C136.16 10.7492 135.388 12.7224 133.844 14.3524C132.299 15.8967 130.283 16.6688 127.795 16.6688ZM193.979 29.1516C199.556 29.1516 204.446 30.224 208.65 32.3688C212.94 34.5137 216.285 37.7738 218.688 42.1492C221.09 46.5246 222.291 52.0582 222.291 58.75V98H209.937V60.1656C209.937 53.5596 208.307 48.5836 205.047 45.2377C201.872 41.8918 197.368 40.2188 191.534 40.2188C187.159 40.2188 183.341 41.0768 180.081 42.7926C176.821 44.5085 174.29 47.0393 172.488 50.3852C170.773 53.7311 169.915 57.8921 169.915 62.868V98H157.561V29.7951H169.4V48.1975L167.47 43.3074C169.7 38.8462 173.132 35.3716 177.765 32.8836C182.397 30.3956 187.802 29.1516 193.979 29.1516ZM287.493 98V83.5869L286.849 80.8844V56.3049C286.849 51.0716 285.305 47.0393 282.217 44.2082C279.214 41.2912 274.667 39.8328 268.576 39.8328C264.543 39.8328 260.597 40.5191 256.736 41.8918C252.876 43.1787 249.615 44.9374 246.956 47.168L241.808 37.9025C245.326 35.0713 249.53 32.9265 254.42 31.468C259.396 29.9238 264.586 29.1516 269.991 29.1516C279.342 29.1516 286.549 31.4251 291.611 35.9721C296.673 40.5191 299.203 47.4683 299.203 56.8197V98H287.493ZM265.101 98.7721C260.039 98.7721 255.578 97.9142 251.717 96.1984C247.942 94.4825 245.026 92.1232 242.967 89.1205C240.908 86.032 239.878 82.5574 239.878 78.6967C239.878 75.0076 240.736 71.6617 242.452 68.659C244.253 65.6563 247.127 63.2541 251.074 61.4525C255.106 59.6508 260.511 58.75 267.289 58.75H288.908V67.6295H267.803C261.626 67.6295 257.465 68.659 255.321 70.718C253.176 72.777 252.103 75.265 252.103 78.182C252.103 81.5279 253.433 84.2303 256.093 86.2893C258.752 88.2626 262.441 89.2492 267.16 89.2492C271.793 89.2492 275.825 88.2197 279.257 86.1607C282.774 84.1016 285.305 81.0989 286.849 77.1525L289.294 85.6459C287.664 89.6781 284.79 92.8954 280.672 95.2975C276.554 97.6139 271.364 98.7721 265.101 98.7721ZM332.103 81.5279L332.361 65.6992L371.611 29.7951H386.539L356.426 59.3934L349.734 65.0557L332.103 81.5279ZM322.066 98V2.5131H334.42V98H322.066ZM374.185 98L347.417 64.7984L355.396 54.8893L389.37 98H374.185ZM427.813 98.7721C420.949 98.7721 414.858 97.2708 409.539 94.268C404.22 91.2653 400.016 87.1473 396.927 81.9139C393.839 76.5948 392.295 70.5893 392.295 63.8975C392.295 57.1199 393.839 51.1145 396.927 45.8811C400.016 40.6478 404.22 36.5727 409.539 33.6557C414.858 30.653 420.949 29.1516 427.813 29.1516C434.59 29.1516 440.639 30.653 445.958 33.6557C451.363 36.5727 455.566 40.6478 458.569 45.8811C461.658 51.0287 463.202 57.0341 463.202 63.8975C463.202 70.6751 461.658 76.6806 458.569 81.9139C455.566 87.1473 451.363 91.2653 445.958 94.268C440.639 97.2708 434.59 98.7721 427.813 98.7721ZM427.813 87.9623C432.188 87.9623 436.092 86.9757 439.523 85.0025C443.041 83.0292 445.786 80.241 447.759 76.6377C449.732 72.9486 450.719 68.7019 450.719 63.8975C450.719 59.0074 449.732 54.8035 447.759 51.2861C445.786 47.6828 443.041 44.8945 439.523 42.9213C436.092 40.9481 432.188 39.9615 427.813 39.9615C423.437 39.9615 419.534 40.9481 416.102 42.9213C412.67 44.8945 409.925 47.6828 407.866 51.2861C405.807 54.8035 404.777 59.0074 404.777 63.8975C404.777 68.7019 405.807 72.9486 407.866 76.6377C409.925 80.241 412.67 83.0292 416.102 85.0025C419.534 86.9757 423.437 87.9623 427.813 87.9623ZM553.969 99.0295C542.129 99.0295 532.821 95.6407 526.043 88.8631C519.265 82.0855 515.877 72.1765 515.877 59.1361V7.91802H528.746V58.6213C528.746 68.659 530.933 75.9943 535.309 80.627C539.77 85.2598 546.033 87.5762 554.097 87.5762C562.247 87.5762 568.51 85.2598 572.886 80.627C577.347 75.9943 579.578 68.659 579.578 58.6213V7.91802H592.06V59.1361C592.06 72.1765 588.672 82.0855 581.894 88.8631C575.202 95.6407 565.894 99.0295 553.969 99.0295ZM646.369 98.7721C639.42 98.7721 633.2 97.2708 627.709 94.268C622.304 91.2653 618.057 87.1473 614.969 81.9139C611.88 76.6806 610.336 70.6751 610.336 63.8975C610.336 57.1199 611.88 51.1145 614.969 45.8811C618.057 40.6478 622.304 36.5727 627.709 33.6557C633.2 30.653 639.42 29.1516 646.369 29.1516C652.546 29.1516 658.037 30.3956 662.841 32.8836C667.731 35.2858 671.506 38.8891 674.166 43.6934L664.771 49.7418C662.541 46.3959 659.795 43.9508 656.535 42.4066C653.361 40.7765 649.929 39.9615 646.24 39.9615C641.779 39.9615 637.79 40.9481 634.272 42.9213C630.755 44.8945 627.966 47.6828 625.907 51.2861C623.848 54.8035 622.819 59.0074 622.819 63.8975C622.819 68.7877 623.848 73.0344 625.907 76.6377C627.966 80.241 630.755 83.0292 634.272 85.0025C637.79 86.9757 641.779 87.9623 646.24 87.9623C649.929 87.9623 653.361 87.1902 656.535 85.6459C659.795 84.0158 662.541 81.5279 664.771 78.182L674.166 84.1016C671.506 88.8202 667.731 92.4664 662.841 95.0402C658.037 97.5281 652.546 98.7721 646.369 98.7721ZM725.699 29.1516C731.276 29.1516 736.166 30.224 740.37 32.3688C744.659 34.5137 748.005 37.7738 750.408 42.1492C752.81 46.5246 754.011 52.0582 754.011 58.75V98H741.657V60.1656C741.657 53.5596 740.027 48.5836 736.767 45.2377C733.592 41.8918 729.088 40.2188 723.254 40.2188C718.879 40.2188 715.061 41.0768 711.801 42.7926C708.541 44.5085 706.01 47.0393 704.208 50.3852C702.493 53.7311 701.635 57.8921 701.635 62.868V98H689.28V2.5131H701.635V48.1975L699.19 43.3074C701.42 38.8462 704.852 35.3716 709.485 32.8836C714.117 30.3956 719.522 29.1516 725.699 29.1516ZM776.874 98V29.7951H789.228V98H776.874ZM783.051 16.6688C780.649 16.6688 778.633 15.8967 777.003 14.3524C775.459 12.8082 774.686 10.9208 774.686 8.69015C774.686 6.37376 775.459 4.44343 777.003 2.89917C778.633 1.3549 780.649 0.582773 783.051 0.582773C785.453 0.582773 787.427 1.3549 788.971 2.89917C790.601 4.35763 791.416 6.20217 791.416 8.43277C791.416 10.7492 790.644 12.7224 789.1 14.3524C787.555 15.8967 785.539 16.6688 783.051 16.6688ZM840.999 98.7721C834.393 98.7721 828.474 97.3137 823.24 94.3967C818.093 91.4798 814.018 87.4046 811.015 82.1713C808.012 76.938 806.511 70.8467 806.511 63.8975C806.511 56.9484 808.012 50.9 811.015 45.7525C814.018 40.5191 818.093 36.444 823.24 33.527C828.474 30.6101 834.393 29.1516 840.999 29.1516C846.747 29.1516 851.938 30.4385 856.571 33.0123C861.203 35.5861 864.892 39.4467 867.638 44.5943C870.469 49.7418 871.885 56.1762 871.885 63.8975C871.885 71.6188 870.512 78.0533 867.766 83.2008C865.107 88.3484 861.461 92.2519 856.828 94.9115C852.195 97.4852 846.919 98.7721 840.999 98.7721ZM842.029 87.9623C846.318 87.9623 850.179 86.9757 853.611 85.0025C857.128 83.0292 859.874 80.241 861.847 76.6377C863.906 72.9486 864.935 68.7019 864.935 63.8975C864.935 59.0074 863.906 54.8035 861.847 51.2861C859.874 47.6828 857.128 44.8945 853.611 42.9213C850.179 40.9481 846.318 39.9615 842.029 39.9615C837.653 39.9615 833.75 40.9481 830.318 42.9213C826.886 44.8945 824.141 47.6828 822.082 51.2861C820.023 54.8035 818.994 59.0074 818.994 63.8975C818.994 68.7019 820.023 72.9486 822.082 76.6377C824.141 80.241 826.886 83.0292 830.318 85.0025C833.75 86.9757 837.653 87.9623 842.029 87.9623ZM865.321 98V79.5975L866.094 63.7688L864.807 47.9402V2.5131H877.161V98H865.321ZM942.874 98V83.5869L942.231 80.8844V56.3049C942.231 51.0716 940.687 47.0393 937.598 44.2082C934.595 41.2912 930.048 39.8328 923.957 39.8328C919.925 39.8328 915.978 40.5191 912.118 41.8918C908.257 43.1787 904.997 44.9374 902.337 47.168L897.19 37.9025C900.707 35.0713 904.911 32.9265 909.801 31.468C914.777 29.9238 919.968 29.1516 925.373 29.1516C934.724 29.1516 941.931 31.4251 946.992 35.9721C952.054 40.5191 954.585 47.4683 954.585 56.8197V98H942.874ZM920.483 98.7721C915.421 98.7721 910.96 97.9142 907.099 96.1984C903.324 94.4825 900.407 92.1232 898.348 89.1205C896.289 86.032 895.26 82.5574 895.26 78.6967C895.26 75.0076 896.117 71.6617 897.833 68.659C899.635 65.6563 902.509 63.2541 906.455 61.4525C910.488 59.6508 915.893 58.75 922.67 58.75H944.29V67.6295H923.185C917.008 67.6295 912.847 68.659 910.702 70.718C908.557 72.777 907.485 75.265 907.485 78.182C907.485 81.5279 908.815 84.2303 911.474 86.2893C914.134 88.2626 917.823 89.2492 922.542 89.2492C927.174 89.2492 931.207 88.2197 934.638 86.1607C938.156 84.1016 940.687 81.0989 942.231 77.1525L944.676 85.6459C943.046 89.6781 940.172 92.8954 936.054 95.2975C931.936 97.6139 926.745 98.7721 920.483 98.7721Z"/>
</mask>
<path d="M0.512297 98H-0.487703V99H0.512297V98ZM0.512297 7.91802V6.91802H-0.487703V7.91802H0.512297ZM11.0648 7.91802L11.9247 7.40759L11.6341 6.91802H11.0648V7.91802ZM51.473 75.9943V76.9943H53.2294L52.3329 75.4838L51.473 75.9943ZM45.8107 75.9943L44.9479 75.4887L44.0656 76.9943H45.8107V75.9943ZM85.7041 7.91802V6.91802H85.1311L84.8413 7.41242L85.7041 7.91802ZM96.2566 7.91802L97.2566 7.91659L97.2551 6.91802H96.2566V7.91802ZM96.3853 98V99H97.3867L97.3853 97.9986L96.3853 98ZM84.0312 98L83.0312 98.0018L83.033 99H84.0312V98ZM83.9025 27.35V26.35H82.9006L82.9025 27.3518L83.9025 27.35ZM86.8623 27.35L87.7218 27.8612L88.6207 26.35H86.8623V27.35ZM51.3443 87.0615V88.0615H51.913L52.2037 87.5727L51.3443 87.0615ZM45.4246 87.0615L44.5668 87.5754L44.858 88.0615H45.4246V87.0615ZM9.64918 27.35V26.35H7.8843L8.79137 27.8639L9.64918 27.35ZM12.8664 27.35H13.8664V26.35H12.8664V27.35ZM12.8664 98V99H13.8664V98H12.8664ZM1.5123 98L1.5123 7.91802H-0.487703L-0.487703 98H1.5123ZM0.512297 8.91802H11.0648V6.91802H0.512297V8.91802ZM10.2048 8.42844L50.613 76.5047L52.3329 75.4838L11.9247 7.40759L10.2048 8.42844ZM51.473 74.9943H45.8107V76.9943H51.473V74.9943ZM46.6734 76.4999L86.5669 8.42361L84.8413 7.41242L44.9479 75.4887L46.6734 76.4999ZM85.7041 8.91802H96.2566V6.91802H85.7041V8.91802ZM95.2566 7.91945L95.3853 98.0014L97.3853 97.9986L97.2566 7.91659L95.2566 7.91945ZM96.3853 97H84.0312V99H96.3853V97ZM85.0312 97.9982L84.9025 27.3482L82.9025 27.3518L83.0312 98.0018L85.0312 97.9982ZM83.9025 28.35H86.8623V26.35H83.9025V28.35ZM86.0029 26.8388L50.4848 86.5503L52.2037 87.5727L87.7218 27.8612L86.0029 26.8388ZM51.3443 86.0615H45.4246V88.0615H51.3443V86.0615ZM46.2824 86.5475L10.507 26.836L8.79137 27.8639L44.5668 87.5754L46.2824 86.5475ZM9.64918 28.35H12.8664V26.35H9.64918V28.35ZM11.8664 27.35L11.8664 98H13.8664L13.8664 27.35H11.8664ZM12.8664 97H0.512297V99H12.8664V97ZM121.618 98H120.618V99H121.618V98ZM121.618 29.7951V28.7951H120.618V29.7951H121.618ZM133.972 29.7951H134.972V28.7951H133.972V29.7951ZM133.972 98V99H134.972V98H133.972ZM121.747 14.3524L121.04 15.0596L121.049 15.0691L121.059 15.0784L121.747 14.3524ZM121.747 2.89917L121.059 2.17322L121.049 2.18251L121.04 2.19206L121.747 2.89917ZM133.715 2.89917L133.008 3.60627L133.028 3.6259L133.048 3.64441L133.715 2.89917ZM133.844 14.3524L134.551 15.0596L134.56 15.05L134.57 15.0402L133.844 14.3524ZM122.618 98V29.7951H120.618V98H122.618ZM121.618 30.7951H133.972V28.7951H121.618V30.7951ZM132.972 29.7951V98H134.972V29.7951H132.972ZM133.972 97H121.618V99H133.972V97ZM127.795 15.6688C125.629 15.6688 123.865 14.9817 122.435 13.6265L121.059 15.0784C122.889 16.8117 125.157 17.6688 127.795 17.6688V15.6688ZM122.454 13.6453C121.102 12.2931 120.431 10.6619 120.431 8.69015H118.431C118.431 11.1796 119.304 13.3233 121.04 15.0596L122.454 13.6453ZM120.431 8.69015C120.431 6.62112 121.11 4.95074 122.454 3.60627L121.04 2.19206C119.296 3.93612 118.431 6.1264 118.431 8.69015H120.431ZM122.435 3.62512C123.865 2.26987 125.629 1.58277 127.795 1.58277V-0.417227C125.157 -0.417227 122.889 0.439938 121.059 2.17322L122.435 3.62512ZM127.795 1.58277C129.961 1.58277 131.671 2.26918 133.008 3.60627L134.422 2.19206C132.671 0.440626 130.434 -0.417227 127.795 -0.417227V1.58277ZM133.048 3.64441C134.461 4.90892 135.16 6.48024 135.16 8.43277H137.16C137.16 5.9241 136.229 3.80635 134.382 2.15393L133.048 3.64441ZM135.16 8.43277C135.16 10.5023 134.48 12.2268 133.118 13.6647L134.57 15.0402C136.296 13.218 137.16 10.9961 137.16 8.43277H135.16ZM133.137 13.6453C131.806 14.9755 130.058 15.6688 127.795 15.6688V17.6688C130.508 17.6688 132.792 16.818 134.551 15.0596L133.137 13.6453ZM208.65 32.3688L208.195 33.2596L208.203 33.2633L208.65 32.3688ZM222.291 98V99H223.291V98H222.291ZM209.937 98H208.937V99H209.937V98ZM205.047 45.2377L204.321 45.926L204.33 45.9356L205.047 45.2377ZM180.081 42.7926L179.615 41.9077L179.615 41.9077L180.081 42.7926ZM172.488 50.3852L171.608 49.9111L171.603 49.92L171.599 49.9289L172.488 50.3852ZM169.915 98V99H170.915V98H169.915ZM157.561 98H156.561V99H157.561V98ZM157.561 29.7951V28.7951H156.561V29.7951H157.561ZM169.4 29.7951H170.4V28.7951H169.4V29.7951ZM169.4 48.1975L168.47 48.5647L170.4 48.1975H169.4ZM167.47 43.3074L166.575 42.8602L166.376 43.2594L166.539 43.6745L167.47 43.3074ZM177.765 32.8836L177.292 32.0026L177.292 32.0026L177.765 32.8836ZM193.979 30.1516C199.427 30.1516 204.156 31.1985 208.195 33.2596L209.104 31.4781C204.736 29.2495 199.685 28.1516 193.979 28.1516V30.1516ZM208.203 33.2633C212.303 35.3133 215.502 38.4255 217.811 42.6304L219.564 41.6679C217.068 37.1221 213.576 33.714 209.097 31.4744L208.203 33.2633ZM217.811 42.6304C220.109 46.8166 221.291 52.1714 221.291 58.75H223.291C223.291 51.945 222.07 46.2325 219.564 41.6679L217.811 42.6304ZM221.291 58.75V98H223.291V58.75H221.291ZM222.291 97H209.937V99H222.291V97ZM210.937 98V60.1656H208.937V98H210.937ZM210.937 60.1656C210.937 53.4076 209.269 48.1381 205.763 44.5398L204.33 45.9356C207.345 49.0291 208.937 53.7115 208.937 60.1656H210.937ZM205.772 44.5494C202.362 40.9547 197.565 39.2188 191.534 39.2188V41.2188C197.171 41.2188 201.383 42.8288 204.321 45.926L205.772 44.5494ZM191.534 39.2188C187.027 39.2188 183.044 40.1033 179.615 41.9077L180.547 43.6775C183.639 42.0502 187.291 41.2188 191.534 41.2188V39.2188ZM179.615 41.9077C176.173 43.7192 173.501 46.396 171.608 49.9111L173.369 50.8593C175.079 47.6827 177.469 45.2977 180.547 43.6775L179.615 41.9077ZM171.599 49.9289C169.791 53.4542 168.915 57.7826 168.915 62.868H170.915C170.915 58.0015 171.754 54.0081 173.378 50.8416L171.599 49.9289ZM168.915 62.868V98H170.915V62.868H168.915ZM169.915 97H157.561V99H169.915V97ZM158.561 98V29.7951H156.561V98H158.561ZM157.561 30.7951H169.4V28.7951H157.561V30.7951ZM168.4 29.7951V48.1975H170.4V29.7951H168.4ZM170.33 47.8304L168.4 42.9402L166.539 43.6745L168.47 48.5647L170.33 47.8304ZM168.364 43.7546C170.497 39.4883 173.776 36.1605 178.238 33.7646L177.292 32.0026C172.487 34.5826 168.903 38.204 166.575 42.8602L168.364 43.7546ZM178.238 33.7646C182.702 31.3673 187.939 30.1516 193.979 30.1516V28.1516C187.666 28.1516 182.093 29.4239 177.292 32.0026L178.238 33.7646ZM287.493 98H286.493V99H287.493V98ZM287.493 83.5869H288.493V83.4695L288.466 83.3553L287.493 83.5869ZM286.849 80.8844H285.849V81.0018L285.877 81.116L286.849 80.8844ZM282.217 44.2082L281.52 44.9255L281.53 44.9356L281.541 44.9453L282.217 44.2082ZM256.736 41.8918L257.052 42.8405L257.062 42.8373L257.071 42.834L256.736 41.8918ZM246.956 47.168L246.082 47.6537L246.67 48.7128L247.598 47.9342L246.956 47.168ZM241.808 37.9025L241.181 37.1234L240.525 37.6517L240.934 38.3881L241.808 37.9025ZM254.42 31.468L254.706 32.4264L254.716 32.4231L254.42 31.468ZM299.203 98V99H300.203V98H299.203ZM251.717 96.1984L251.304 97.1088L251.311 97.1122L251.717 96.1984ZM242.967 89.1205L242.134 89.6752L242.142 89.686L242.967 89.1205ZM242.452 68.659L241.594 68.1445L241.589 68.1536L241.584 68.1629L242.452 68.659ZM251.074 61.4525L250.666 60.5394L250.659 60.5428L251.074 61.4525ZM288.908 58.75H289.908V57.75H288.908V58.75ZM288.908 67.6295V68.6295H289.908V67.6295H288.908ZM255.321 70.718L254.628 69.9966L254.628 69.9966L255.321 70.718ZM256.093 86.2893L255.481 87.0801L255.489 87.0863L255.497 87.0924L256.093 86.2893ZM279.257 86.1607L278.751 85.2976L278.742 85.3032L279.257 86.1607ZM286.849 77.1525L287.81 76.8758L286.994 74.0392L285.918 76.7881L286.849 77.1525ZM289.294 85.6459L290.222 86.0207L290.351 85.7008L290.255 85.3693L289.294 85.6459ZM280.672 95.2975L281.163 96.1691L281.169 96.1653L281.176 96.1613L280.672 95.2975ZM288.493 98V83.5869H286.493V98H288.493ZM288.466 83.3553L287.822 80.6528L285.877 81.116L286.52 83.8185L288.466 83.3553ZM287.849 80.8844V56.3049H285.849V80.8844H287.849ZM287.849 56.3049C287.849 50.8661 286.237 46.5368 282.892 43.471L281.541 44.9453C284.373 47.5418 285.849 51.2771 285.849 56.3049H287.849ZM282.913 43.4909C279.654 40.3244 274.809 38.8328 268.576 38.8328V40.8328C274.525 40.8328 278.774 42.2581 281.52 44.9255L282.913 43.4909ZM268.576 38.8328C264.427 38.8328 260.368 39.5393 256.401 40.9496L257.071 42.834C260.826 41.4989 264.659 40.8328 268.576 40.8328V38.8328ZM256.42 40.9431C252.46 42.263 249.084 44.0778 246.313 46.4018L247.598 47.9342C250.147 45.7971 253.291 44.0943 257.052 42.8405L256.42 40.9431ZM247.83 46.6824L242.682 37.4168L240.934 38.3881L246.082 47.6537L247.83 46.6824ZM242.435 38.6815C245.839 35.9415 249.924 33.8525 254.706 32.4263L254.134 30.5097C249.136 32.0005 244.812 34.2011 241.181 37.1234L242.435 38.6815ZM254.716 32.4231C259.593 30.9097 264.683 30.1516 269.991 30.1516V28.1516C264.489 28.1516 259.199 28.9378 254.123 30.513L254.716 32.4231ZM269.991 30.1516C279.189 30.1516 286.123 32.3869 290.943 36.716L292.279 35.2282C286.975 30.4633 279.496 28.1516 269.991 28.1516V30.1516ZM290.943 36.716C295.723 41.0103 298.203 47.6417 298.203 56.8197H300.203C300.203 47.2949 297.622 40.0279 292.279 35.2282L290.943 36.716ZM298.203 56.8197V98H300.203V56.8197H298.203ZM299.203 97H287.493V99H299.203V97ZM265.101 97.7721C260.152 97.7721 255.834 96.9335 252.123 95.2845L251.311 97.1122C255.322 98.895 259.927 99.7721 265.101 99.7721V97.7721ZM252.131 95.288C248.499 93.6368 245.734 91.3875 243.791 88.555L242.142 89.686C244.318 92.8589 247.386 95.3282 251.304 97.1087L252.131 95.288ZM243.799 88.5658C241.854 85.6484 240.878 82.3683 240.878 78.6967H238.878C238.878 82.7464 239.961 86.4156 242.134 89.6752L243.799 88.5658ZM240.878 78.6967C240.878 75.1697 241.696 71.9967 243.32 69.1552L241.584 68.1629C239.776 71.3268 238.878 74.8456 238.878 78.6967H240.878ZM243.309 69.1735C244.984 66.3817 247.682 64.1 251.489 62.3621L250.659 60.5428C246.572 62.4082 243.522 64.9308 241.594 68.1445L243.309 69.1735ZM251.482 62.3655C255.336 60.6435 260.584 59.75 267.289 59.75V57.75C260.438 57.75 254.877 58.6581 250.666 60.5394L251.482 62.3655ZM267.289 59.75H288.908V57.75H267.289V59.75ZM287.908 58.75V67.6295H289.908V58.75H287.908ZM288.908 66.6295H267.803V68.6295H288.908V66.6295ZM267.803 66.6295C264.666 66.6295 261.995 66.8902 259.81 67.4309C257.63 67.9703 255.871 68.8038 254.628 69.9966L256.013 71.4394C256.915 70.5732 258.309 69.8625 260.29 69.3724C262.266 68.8835 264.764 68.6295 267.803 68.6295V66.6295ZM254.628 69.9966C252.291 72.2401 251.103 74.9869 251.103 78.182H253.103C253.103 75.5432 254.061 73.314 256.013 71.4394L254.628 69.9966ZM251.103 78.182C251.103 81.8391 252.578 84.8328 255.481 87.0801L256.705 85.4986C254.288 83.6278 253.103 81.2166 253.103 78.182H251.103ZM255.497 87.0924C258.388 89.2377 262.315 90.2492 267.16 90.2492V88.2492C262.568 88.2492 259.116 87.2875 256.689 85.4862L255.497 87.0924ZM267.16 90.2492C271.945 90.2492 276.161 89.1843 279.771 87.0181L278.742 85.3032C275.489 87.2551 271.641 88.2492 267.16 88.2492V90.2492ZM279.762 87.0237C283.482 84.8463 286.158 81.6637 287.781 77.5169L285.918 76.7881C284.452 80.5341 282.067 83.357 278.752 85.2976L279.762 87.0237ZM285.888 77.4291L288.333 85.9225L290.255 85.3693L287.81 76.8758L285.888 77.4291ZM288.367 85.2711C286.828 89.078 284.115 92.1318 280.168 94.4338L281.176 96.1613C285.466 93.6589 288.5 90.2783 290.222 86.0207L288.367 85.2711ZM280.182 94.426C276.255 96.6351 271.246 97.7721 265.101 97.7721V99.7721C271.481 99.7721 276.854 98.5927 281.163 96.1691L280.182 94.426ZM332.103 81.5279L331.104 81.5116L331.065 83.8664L332.786 82.2586L332.103 81.5279ZM332.361 65.6992L331.686 64.9613L331.368 65.2521L331.361 65.6829L332.361 65.6992ZM371.611 29.7951V28.7951H371.222L370.936 29.0572L371.611 29.7951ZM386.539 29.7951L387.24 30.5082L388.983 28.7951H386.539V29.7951ZM356.426 59.3934L357.072 60.1568L357.1 60.1327L357.127 60.1066L356.426 59.3934ZM349.734 65.0557L349.088 64.2923L349.069 64.3082L349.051 64.325L349.734 65.0557ZM322.066 98H321.066V99H322.066V98ZM322.066 2.5131V1.5131H321.066V2.5131H322.066ZM334.42 2.5131H335.42V1.5131H334.42V2.5131ZM334.42 98V99H335.42V98H334.42ZM374.185 98L373.406 98.6276L373.706 99H374.185V98ZM347.417 64.7984L346.639 64.1712L346.133 64.7987L346.639 65.426L347.417 64.7984ZM355.396 54.8893L356.182 54.2704L355.405 53.2844L354.617 54.2622L355.396 54.8893ZM389.37 98V99H391.431L390.155 97.381L389.37 98ZM333.103 81.5441L333.361 65.7154L331.361 65.6829L331.104 81.5116L333.103 81.5441ZM333.036 66.437L372.286 30.5329L370.936 29.0572L331.686 64.9613L333.036 66.437ZM371.611 30.7951H386.539V28.7951H371.611V30.7951ZM385.838 29.0819L355.725 58.6803L357.127 60.1066L387.24 30.5082L385.838 29.0819ZM355.78 58.6301L349.088 64.2923L350.38 65.8191L357.072 60.1568L355.78 58.6301ZM349.051 64.325L331.421 80.7972L332.786 82.2586L350.416 65.7864L349.051 64.325ZM323.066 98V2.5131H321.066V98H323.066ZM322.066 3.5131H334.42V1.5131H322.066V3.5131ZM333.42 2.5131V98H335.42V2.5131H333.42ZM334.42 97H322.066V99H334.42V97ZM374.963 97.3724L348.196 64.1707L346.639 65.426L373.406 98.6276L374.963 97.3724ZM348.196 65.4255L356.175 55.5165L354.617 54.2622L346.639 64.1712L348.196 65.4255ZM354.611 55.5083L388.584 98.619L390.155 97.381L356.182 54.2704L354.611 55.5083ZM389.37 97H374.185V99H389.37V97ZM409.539 94.268L410.03 93.3972L410.03 93.3972L409.539 94.268ZM396.927 81.9139L396.062 82.4161L396.066 82.4222L396.927 81.9139ZM396.927 45.8811L396.066 45.3729L396.066 45.3729L396.927 45.8811ZM409.539 33.6557L410.02 34.5326L410.03 34.5266L409.539 33.6557ZM445.958 33.6557L445.466 34.5266L445.474 34.5312L445.483 34.5358L445.958 33.6557ZM458.569 45.8811L457.702 46.3788L457.707 46.3873L457.712 46.3956L458.569 45.8811ZM458.569 81.9139L457.708 81.4056L457.702 81.4163L458.569 81.9139ZM445.958 94.268L445.472 93.3939L445.466 93.3972L445.958 94.268ZM439.523 85.0025L439.034 84.1303L439.025 84.1356L439.523 85.0025ZM447.759 76.6377L448.636 77.118L448.641 77.1094L447.759 76.6377ZM447.759 51.2861L446.882 51.7664L446.887 51.7753L447.759 51.2861ZM439.523 42.9213L439.025 43.7883L439.034 43.7934L439.523 42.9213ZM407.866 51.2861L408.729 51.7913L408.734 51.7822L407.866 51.2861ZM407.866 76.6377L406.993 77.1251L406.998 77.1338L407.866 76.6377ZM427.813 97.7721C421.1 97.7721 415.182 96.3052 410.03 93.3972L409.047 95.1389C414.534 98.2363 420.799 99.7721 427.813 99.7721V97.7721ZM410.03 93.3972C404.863 90.4803 400.787 86.487 397.789 81.4057L396.066 82.4222C399.244 87.8075 403.576 92.0503 409.047 95.1389L410.03 93.3972ZM397.792 81.4118C394.8 76.2585 393.295 70.429 393.295 63.8975H391.295C391.295 70.7497 392.878 76.9312 396.063 82.4161L397.792 81.4118ZM393.295 63.8975C393.295 57.2776 394.801 51.4515 397.789 46.3894L396.066 45.3729C392.877 50.7774 391.295 56.9623 391.295 63.8975H393.295ZM397.789 46.3894C400.786 41.3106 404.858 37.3629 410.02 34.5325L409.058 32.7789C403.581 35.7824 399.246 39.985 396.066 45.3729L397.789 46.3894ZM410.03 34.5266C415.182 31.6186 421.1 30.1516 427.813 30.1516V28.1516C420.799 28.1516 414.534 29.6874 409.047 32.7849L410.03 34.5266ZM427.813 30.1516C434.437 30.1516 440.313 31.6175 445.466 34.5266L446.449 32.7849C440.964 29.6885 434.743 28.1516 427.813 28.1516V30.1516ZM445.483 34.5358C450.727 37.3659 454.793 41.31 457.702 46.3788L459.436 45.3835C456.339 39.9856 451.998 35.7794 446.433 32.7757L445.483 34.5358ZM457.712 46.3956C460.694 51.3665 462.202 57.1889 462.202 63.8975H464.202C464.202 56.8794 462.621 50.6908 459.427 45.3666L457.712 46.3956ZM462.202 63.8975C462.202 70.5175 460.695 76.3435 457.708 81.4057L459.43 82.4222C462.62 77.0176 464.202 70.8328 464.202 63.8975H462.202ZM457.702 81.4163C454.792 86.4876 450.722 90.4773 445.472 93.3939L446.443 95.1422C452.003 92.0533 456.341 87.8069 459.436 82.4116L457.702 81.4163ZM445.466 93.3972C440.313 96.3063 434.437 97.7721 427.813 97.7721V99.7721C434.743 99.7721 440.964 98.2353 446.449 95.1389L445.466 93.3972ZM427.813 88.9623C432.344 88.9623 436.423 87.9387 440.022 85.8694L439.025 84.1356C435.76 86.0126 432.032 86.9623 427.813 86.9623V88.9623ZM440.012 85.8746C443.697 83.8079 446.575 80.8824 448.636 77.118L446.882 76.1574C444.997 79.5995 442.385 82.2506 439.034 84.1303L440.012 85.8746ZM448.641 77.1094C450.703 73.2549 451.719 68.8418 451.719 63.8975H449.719C449.719 68.562 448.762 72.6423 446.877 76.166L448.641 77.1094ZM451.719 63.8975C451.719 58.8723 450.705 54.4924 448.631 50.7968L446.887 51.7753C448.76 55.1147 449.719 59.1425 449.719 63.8975H451.719ZM448.636 50.8057C446.575 47.0413 443.697 44.1159 440.012 42.0492L439.034 43.7934C442.385 45.6732 444.997 48.3242 446.882 51.7664L448.636 50.8057ZM440.022 42.0544C436.423 39.985 432.344 38.9615 427.813 38.9615V40.9615C432.032 40.9615 435.76 41.9111 439.025 43.7882L440.022 42.0544ZM427.813 38.9615C423.281 38.9615 419.202 39.985 415.603 42.0544L416.6 43.7882C419.865 41.9111 423.593 40.9615 427.813 40.9615V38.9615ZM415.603 42.0544C412.01 44.1205 409.14 47.0402 406.998 50.7899L408.734 51.7822C410.709 48.3254 413.33 45.6685 416.6 43.7882L415.603 42.0544ZM407.003 50.7809C404.838 54.4796 403.777 58.8654 403.777 63.8975H405.777C405.777 59.1494 406.776 55.1275 408.729 51.7912L407.003 50.7809ZM403.777 63.8975C403.777 68.8488 404.84 73.2676 406.993 77.1251L408.739 76.1503C406.774 72.6297 405.777 68.555 405.777 63.8975H403.777ZM406.998 77.1338C409.14 80.8836 412.01 83.8032 415.603 85.8694L416.6 84.1356C413.33 82.2552 410.709 79.5984 408.734 76.1416L406.998 77.1338ZM415.603 85.8694C419.202 87.9387 423.281 88.9623 427.813 88.9623V86.9623C423.593 86.9623 419.865 86.0126 416.6 84.1356L415.603 85.8694ZM526.043 88.8631L525.336 89.5702L526.043 88.8631ZM515.877 7.91802V6.91802H514.877V7.91802H515.877ZM528.746 7.91802H529.746V6.91802H528.746V7.91802ZM535.309 80.627L534.582 81.3137L534.588 81.3207L535.309 80.627ZM572.886 80.627L572.165 79.9334L572.159 79.9404L572.886 80.627ZM579.578 7.91802V6.91802H578.578V7.91802H579.578ZM592.06 7.91802H593.06V6.91802H592.06V7.91802ZM581.894 88.8631L581.187 88.156L581.182 88.1605L581.894 88.8631ZM553.969 98.0295C542.328 98.0295 533.298 94.704 526.75 88.156L525.336 89.5702C532.343 96.5775 541.93 100.03 553.969 100.03V98.0295ZM526.75 88.156C520.22 81.6255 516.877 72.0093 516.877 59.1361H514.877C514.877 72.3436 518.311 82.5456 525.336 89.5702L526.75 88.156ZM516.877 59.1361V7.91802H514.877V59.1361H516.877ZM515.877 8.91802H528.746V6.91802H515.877V8.91802ZM527.746 7.91802V58.6213H529.746V7.91802H527.746ZM527.746 58.6213C527.746 68.7733 529.953 76.4133 534.582 81.3137L536.036 79.9404C531.913 75.5753 529.746 68.5447 529.746 58.6213H527.746ZM534.588 81.3207C539.283 86.1964 545.834 88.5762 554.097 88.5762V86.5762C546.231 86.5762 540.256 84.3233 536.029 79.9334L534.588 81.3207ZM554.097 88.5762C562.441 88.5762 568.999 86.1987 573.613 81.3137L572.159 79.9404C568.022 84.321 562.054 86.5762 554.097 86.5762V88.5762ZM573.606 81.3207C578.325 76.4204 580.578 68.7774 580.578 58.6213H578.578C578.578 68.5406 576.369 75.5681 572.165 79.9334L573.606 81.3207ZM580.578 58.6213V7.91802H578.578V58.6213H580.578ZM579.578 8.91802H592.06V6.91802H579.578V8.91802ZM591.06 7.91802V59.1361H593.06V7.91802H591.06ZM591.06 59.1361C591.06 72.0093 587.717 81.6255 581.187 88.156L582.601 89.5702C589.626 82.5456 593.06 72.3436 593.06 59.1361H591.06ZM581.182 88.1605C574.723 94.7025 565.698 98.0295 553.969 98.0295V100.03C566.09 100.03 575.681 96.579 582.606 89.5657L581.182 88.1605ZM627.709 94.268L627.223 95.1422L627.229 95.1454L627.709 94.268ZM614.969 81.9139L614.108 82.4222L614.108 82.4222L614.969 81.9139ZM614.969 45.8811L614.108 45.3729L614.108 45.3729L614.969 45.8811ZM627.709 33.6557L628.184 34.5358L628.189 34.5331L627.709 33.6557ZM662.841 32.8836L662.381 33.7716L662.391 33.7765L662.4 33.7811L662.841 32.8836ZM674.166 43.6934L674.707 44.5342L675.494 44.0277L675.041 43.2091L674.166 43.6934ZM664.771 49.7418L663.939 50.2965L664.485 51.1154L665.313 50.5826L664.771 49.7418ZM656.535 42.4066L656.079 43.2961L656.093 43.3034L656.107 43.3103L656.535 42.4066ZM625.907 51.2861L626.771 51.7913L626.776 51.7822L625.907 51.2861ZM625.907 76.6377L625.039 77.1338L625.039 77.1338L625.907 76.6377ZM656.535 85.6459L656.973 86.5452L656.983 86.5403L656.535 85.6459ZM664.771 78.182L665.305 77.3359L664.48 76.8163L663.939 77.6273L664.771 78.182ZM674.166 84.1016L675.037 84.5927L675.504 83.7632L674.699 83.2556L674.166 84.1016ZM662.841 95.0402L663.301 95.9282L663.307 95.9251L662.841 95.0402ZM646.369 97.7721C639.569 97.7721 633.517 96.3043 628.189 93.3907L627.229 95.1454C632.883 98.2372 639.271 99.7721 646.369 99.7721V97.7721ZM628.195 93.3939C622.942 90.4759 618.827 86.483 615.83 81.4057L614.108 82.4222C617.288 87.8115 621.666 92.0547 627.223 95.1422L628.195 93.3939ZM615.83 81.4057C612.843 76.3435 611.336 70.5175 611.336 63.8975H609.336C609.336 70.8328 610.918 77.0176 614.108 82.4222L615.83 81.4057ZM611.336 63.8975C611.336 57.2776 612.843 51.4515 615.83 46.3894L614.108 45.3729C610.918 50.7774 609.336 56.9623 609.336 63.8975H611.336ZM615.83 46.3894C618.825 41.3146 622.937 37.3672 628.184 34.5358L627.234 32.7757C621.671 35.7781 617.29 39.981 614.108 45.3729L615.83 46.3894ZM628.189 34.5331C633.517 31.6194 639.569 30.1516 646.369 30.1516V28.1516C639.271 28.1516 632.883 29.6866 627.229 32.7784L628.189 34.5331ZM646.369 30.1516C652.409 30.1516 657.738 31.367 662.381 33.7716L663.301 31.9956C658.335 29.4242 652.683 28.1516 646.369 28.1516V30.1516ZM662.4 33.7811C667.105 36.0924 670.729 39.5507 673.291 44.1778L675.041 43.2091C672.283 38.2274 668.357 34.4791 663.282 31.986L662.4 33.7811ZM673.624 42.8526L664.23 48.901L665.313 50.5826L674.707 44.5342L673.624 42.8526ZM665.603 49.1871C663.284 45.7082 660.406 43.1333 656.963 41.5028L656.107 43.3103C659.185 44.7683 661.797 47.0836 663.939 50.2965L665.603 49.1871ZM656.992 41.517C653.672 39.8119 650.083 38.9615 646.24 38.9615V40.9615C649.776 40.9615 653.05 41.7411 656.079 43.2961L656.992 41.517ZM646.24 38.9615C641.626 38.9615 637.465 39.9834 633.783 42.0492L634.761 43.7934C638.114 41.9127 641.932 40.9615 646.24 40.9615V38.9615ZM633.783 42.0492C630.103 44.1137 627.185 47.0341 625.039 50.7899L626.776 51.7822C628.748 48.3315 631.407 45.6753 634.761 43.7934L633.783 42.0492ZM625.044 50.7809C622.879 54.4796 621.819 58.8654 621.819 63.8975H623.819C623.819 59.1494 624.818 55.1275 626.77 51.7912L625.044 50.7809ZM621.819 63.8975C621.819 68.9305 622.88 73.3545 625.039 77.1338L626.776 76.1416C624.817 72.7144 623.819 68.6449 623.819 63.8975H621.819ZM625.039 77.1338C627.185 80.8897 630.103 83.81 633.783 85.8746L634.761 84.1303C631.407 82.2484 628.748 79.5923 626.776 76.1416L625.039 77.1338ZM633.783 85.8746C637.465 87.9403 641.626 88.9623 646.24 88.9623V86.9623C641.932 86.9623 638.114 86.0111 634.761 84.1303L633.783 85.8746ZM646.24 88.9623C650.074 88.9623 653.656 88.1587 656.973 86.5451L656.098 84.7467C653.066 86.2216 649.785 86.9623 646.24 86.9623V88.9623ZM656.983 86.5403C660.414 84.8246 663.287 82.212 665.603 78.7367L663.939 77.6273C661.795 80.8437 659.177 83.2071 656.088 84.7515L656.983 86.5403ZM664.238 79.028L673.633 84.9477L674.699 83.2556L665.305 77.3359L664.238 79.028ZM673.295 83.6106C670.731 88.1581 667.099 91.6691 662.375 94.1552L663.307 95.9251C668.364 93.2637 672.281 89.4823 675.037 84.5927L673.295 83.6106ZM662.381 94.1522C657.738 96.5567 652.409 97.7721 646.369 97.7721V99.7721C652.683 99.7721 658.335 98.4996 663.301 95.9282L662.381 94.1522ZM740.37 32.3688L739.915 33.2596L739.923 33.2633L740.37 32.3688ZM754.011 98V99H755.011V98H754.011ZM741.657 98H740.657V99H741.657V98ZM736.767 45.2377L736.041 45.926L736.05 45.9356L736.767 45.2377ZM711.801 42.7926L711.335 41.9077L711.335 41.9077L711.801 42.7926ZM704.208 50.3852L703.328 49.9111L703.323 49.92L703.319 49.9289L704.208 50.3852ZM701.635 98V99H702.635V98H701.635ZM689.28 98H688.28V99H689.28V98ZM689.28 2.5131V1.5131H688.28V2.5131H689.28ZM701.635 2.5131H702.635V1.5131H701.635V2.5131ZM701.635 48.1975L700.74 48.6447L702.635 48.1975H701.635ZM699.19 43.3074L698.295 42.8602L698.071 43.3074L698.295 43.7546L699.19 43.3074ZM709.485 32.8836L709.011 32.0026L709.011 32.0026L709.485 32.8836ZM725.699 30.1516C731.146 30.1516 735.876 31.1985 739.915 33.2596L740.824 31.4781C736.456 29.2495 731.405 28.1516 725.699 28.1516V30.1516ZM739.923 33.2633C744.023 35.3133 747.222 38.4255 749.531 42.6304L751.284 41.6679C748.788 37.1221 745.296 33.714 740.817 31.4744L739.923 33.2633ZM749.531 42.6304C751.829 46.8166 753.011 52.1714 753.011 58.75H755.011C755.011 51.945 753.79 46.2325 751.284 41.6679L749.531 42.6304ZM753.011 58.75V98H755.011V58.75H753.011ZM754.011 97H741.657V99H754.011V97ZM742.657 98V60.1656H740.657V98H742.657ZM742.657 60.1656C742.657 53.4076 740.989 48.1381 737.483 44.5398L736.05 45.9356C739.065 49.0291 740.657 53.7115 740.657 60.1656H742.657ZM737.492 44.5494C734.082 40.9547 729.285 39.2188 723.254 39.2188V41.2188C728.891 41.2188 733.103 42.8288 736.041 45.926L737.492 44.5494ZM723.254 39.2188C718.747 39.2188 714.764 40.1033 711.335 41.9077L712.267 43.6775C715.359 42.0502 719.011 41.2188 723.254 41.2188V39.2188ZM711.335 41.9077C707.893 43.7192 705.221 46.396 703.328 49.9111L705.089 50.8593C706.799 47.6827 709.188 45.2977 712.267 43.6775L711.335 41.9077ZM703.319 49.9289C701.511 53.4542 700.635 57.7826 700.635 62.868H702.635C702.635 58.0015 703.474 54.0081 705.098 50.8416L703.319 49.9289ZM700.635 62.868V98H702.635V62.868H700.635ZM701.635 97H689.28V99H701.635V97ZM690.28 98V2.5131H688.28V98H690.28ZM689.28 3.5131H701.635V1.5131H689.28V3.5131ZM700.635 2.5131V48.1975H702.635V2.5131H700.635ZM702.529 47.7503L700.084 42.8602L698.295 43.7546L700.74 48.6447L702.529 47.7503ZM700.084 43.7546C702.217 39.4883 705.496 36.1605 709.958 33.7646L709.011 32.0026C704.207 34.5826 700.623 38.204 698.295 42.8602L700.084 43.7546ZM709.958 33.7646C714.422 31.3673 719.659 30.1516 725.699 30.1516V28.1516C719.386 28.1516 713.813 29.4239 709.011 32.0026L709.958 33.7646ZM776.874 98H775.874V99H776.874V98ZM776.874 29.7951V28.7951H775.874V29.7951H776.874ZM789.228 29.7951H790.228V28.7951H789.228V29.7951ZM789.228 98V99H790.228V98H789.228ZM777.003 14.3524L776.296 15.0596L776.305 15.0691L776.315 15.0784L777.003 14.3524ZM777.003 2.89917L776.315 2.17322L776.305 2.18251L776.296 2.19206L777.003 2.89917ZM788.971 2.89917L788.264 3.60627L788.283 3.6259L788.304 3.64441L788.971 2.89917ZM789.1 14.3524L789.807 15.0596L789.816 15.05L789.826 15.0402L789.1 14.3524ZM777.874 98V29.7951H775.874V98H777.874ZM776.874 30.7951H789.228V28.7951H776.874V30.7951ZM788.228 29.7951V98H790.228V29.7951H788.228ZM789.228 97H776.874V99H789.228V97ZM783.051 15.6688C780.885 15.6688 779.121 14.9817 777.691 13.6265L776.315 15.0784C778.145 16.8117 780.413 17.6688 783.051 17.6688V15.6688ZM777.71 13.6453C776.358 12.2931 775.686 10.6619 775.686 8.69015H773.686C773.686 11.1796 774.56 13.3233 776.296 15.0596L777.71 13.6453ZM775.686 8.69015C775.686 6.62112 776.365 4.95074 777.71 3.60627L776.296 2.19206C774.552 3.93612 773.686 6.1264 773.686 8.69015H775.686ZM777.691 3.62512C779.121 2.26987 780.885 1.58277 783.051 1.58277V-0.417227C780.413 -0.417227 778.145 0.439938 776.315 2.17322L777.691 3.62512ZM783.051 1.58277C785.217 1.58277 786.927 2.26918 788.264 3.60627L789.678 2.19206C787.927 0.440626 785.69 -0.417227 783.051 -0.417227V1.58277ZM788.304 3.64441C789.717 4.90892 790.416 6.48024 790.416 8.43277H792.416C792.416 5.9241 791.485 3.80635 789.638 2.15393L788.304 3.64441ZM790.416 8.43277C790.416 10.5023 789.736 12.2268 788.374 13.6647L789.826 15.0402C791.552 13.218 792.416 10.9961 792.416 8.43277H790.416ZM788.392 13.6453C787.062 14.9755 785.314 15.6688 783.051 15.6688V17.6688C785.764 17.6688 788.048 16.818 789.807 15.0596L788.392 13.6453ZM823.24 94.3967L822.747 95.2668L822.753 95.2702L823.24 94.3967ZM811.015 82.1713L811.882 81.6736L811.015 82.1713ZM811.015 45.7525L811.879 46.2563L811.882 46.2501L811.015 45.7525ZM823.24 33.527L822.753 32.6535L822.747 32.657L823.24 33.527ZM856.571 33.0123L856.085 33.8864L856.085 33.8864L856.571 33.0123ZM867.638 44.5943L866.755 45.0649L866.762 45.0762L867.638 44.5943ZM867.766 83.2008L866.884 82.7302L866.878 82.7418L867.766 83.2008ZM856.828 94.9115L857.314 95.7857L857.326 95.7787L856.828 94.9115ZM853.611 85.0025L853.121 84.1303L853.112 84.1356L853.611 85.0025ZM861.847 76.6377L860.974 76.1503L860.97 76.1574L861.847 76.6377ZM861.847 51.2861L860.97 51.7664L860.977 51.7789L860.984 51.7912L861.847 51.2861ZM853.611 42.9213L853.112 43.7883L853.122 43.7934L853.611 42.9213ZM822.082 51.2861L822.945 51.7913L822.95 51.7822L822.082 51.2861ZM822.082 76.6377L821.209 77.1251L821.214 77.1338L822.082 76.6377ZM865.321 98H864.321V99H865.321V98ZM865.321 79.5975L864.323 79.5488L864.321 79.5732V79.5975H865.321ZM866.094 63.7688L867.092 63.8176L867.096 63.7526L867.09 63.6878L866.094 63.7688ZM864.807 47.9402H863.807V47.9807L863.81 48.0212L864.807 47.9402ZM864.807 2.5131V1.5131H863.807V2.5131H864.807ZM877.161 2.5131H878.161V1.5131H877.161V2.5131ZM877.161 98V99H878.161V98H877.161ZM840.999 97.7721C834.546 97.7721 828.797 96.3489 823.727 93.5232L822.753 95.2702C828.15 98.2784 834.241 99.7721 840.999 99.7721V97.7721ZM823.733 93.5267C818.745 90.6999 814.798 86.7548 811.882 81.6736L810.147 82.669C813.238 88.0545 817.441 92.2596 822.747 95.2667L823.733 93.5267ZM811.882 81.6736C808.979 76.6135 807.511 70.6989 807.511 63.8975H805.511C805.511 70.9945 807.045 77.2625 810.147 82.669L811.882 81.6736ZM807.511 63.8975C807.511 57.0957 808.979 51.2271 811.879 46.2563L810.151 45.2486C807.045 50.5728 805.511 56.801 805.511 63.8975H807.511ZM811.882 46.2501C814.798 41.169 818.745 37.2238 823.733 34.3971L822.747 32.657C817.441 35.6641 813.238 39.8693 810.147 45.2548L811.882 46.2501ZM823.727 34.4005C828.797 31.5748 834.546 30.1516 840.999 30.1516V28.1516C834.241 28.1516 828.15 29.6454 822.753 32.6536L823.727 34.4005ZM840.999 30.1516C846.592 30.1516 851.613 31.4021 856.085 33.8864L857.056 32.1381C852.262 29.4749 846.903 28.1516 840.999 28.1516V30.1516ZM856.085 33.8864C860.533 36.3574 864.091 40.0694 866.755 45.0648L868.52 44.1237C865.694 38.824 861.874 34.8147 857.056 32.1381L856.085 33.8864ZM866.762 45.0762C869.49 50.0369 870.885 56.2935 870.885 63.8975H872.885C872.885 56.059 871.448 49.4467 868.514 44.1123L866.762 45.0762ZM870.885 63.8975C870.885 71.5058 869.531 77.7668 866.884 82.7302L868.649 83.6714C871.492 78.3398 872.885 71.7318 872.885 63.8975H870.885ZM866.878 82.7418C864.299 87.7336 860.782 91.4885 856.33 94.0442L857.326 95.7787C862.139 93.0154 865.915 88.9631 868.655 83.6598L866.878 82.7418ZM856.342 94.0373C851.875 96.5192 846.769 97.7721 840.999 97.7721V99.7721C847.069 99.7721 852.516 98.4512 857.314 95.7856L856.342 94.0373ZM842.029 88.9623C846.478 88.9623 850.513 87.937 854.109 85.8694L853.112 84.1356C849.845 86.0143 846.159 86.9623 842.029 86.9623V88.9623ZM854.1 85.8746C857.784 83.8079 860.662 80.8824 862.724 77.118L860.97 76.1574C859.085 79.5995 856.472 82.2506 853.122 84.1303L854.1 85.8746ZM862.72 77.1251C864.873 73.2676 865.935 68.8488 865.935 63.8975H863.935C863.935 68.555 862.939 72.6297 860.974 76.1503L862.72 77.1251ZM865.935 63.8975C865.935 58.8654 864.875 54.4796 862.71 50.7809L860.984 51.7912C862.937 55.1275 863.935 59.1494 863.935 63.8975H865.935ZM862.724 50.8057C860.662 47.0413 857.784 44.1159 854.1 42.0492L853.122 43.7934C856.472 45.6732 859.085 48.3242 860.97 51.7664L862.724 50.8057ZM854.109 42.0544C850.513 39.9867 846.478 38.9615 842.029 38.9615V40.9615C846.159 40.9615 849.845 41.9094 853.112 43.7882L854.109 42.0544ZM842.029 38.9615C837.497 38.9615 833.419 39.985 829.82 42.0544L830.817 43.7882C834.081 41.9111 837.809 40.9615 842.029 40.9615V38.9615ZM829.82 42.0544C826.226 44.1205 823.357 47.0402 821.214 50.7899L822.95 51.7822C824.926 48.3254 827.546 45.6685 830.817 43.7882L829.82 42.0544ZM821.219 50.7809C819.054 54.4796 817.994 58.8654 817.994 63.8975H819.994C819.994 59.1494 820.992 55.1275 822.945 51.7912L821.219 50.7809ZM817.994 63.8975C817.994 68.8488 819.056 73.2676 821.209 77.1251L822.955 76.1503C820.99 72.6297 819.994 68.555 819.994 63.8975H817.994ZM821.214 77.1338C823.357 80.8836 826.226 83.8032 829.82 85.8694L830.817 84.1356C827.546 82.2552 824.926 79.5984 822.95 76.1416L821.214 77.1338ZM829.82 85.8694C833.419 87.9387 837.497 88.9623 842.029 88.9623V86.9623C837.809 86.9623 834.081 86.0126 830.817 84.1356L829.82 85.8694ZM866.321 98V79.5975H864.321V98H866.321ZM866.32 79.6463L867.092 63.8176L865.095 63.7201L864.323 79.5488L866.32 79.6463ZM867.09 63.6878L865.803 47.8591L863.81 48.0212L865.097 63.8499L867.09 63.6878ZM865.807 47.9402V2.5131H863.807V47.9402H865.807ZM864.807 3.5131H877.161V1.5131H864.807V3.5131ZM876.161 2.5131V98H878.161V2.5131H876.161ZM877.161 97H865.321V99H877.161V97ZM942.874 98H941.874V99H942.874V98ZM942.874 83.5869H943.874V83.4695L943.847 83.3553L942.874 83.5869ZM942.231 80.8844H941.231V81.0018L941.258 81.116L942.231 80.8844ZM937.598 44.2082L936.901 44.9255L936.912 44.9356L936.922 44.9453L937.598 44.2082ZM912.118 41.8918L912.434 42.8405L912.443 42.8373L912.453 42.834L912.118 41.8918ZM902.337 47.168L901.463 47.6537L902.052 48.7128L902.98 47.9342L902.337 47.168ZM897.19 37.9025L896.563 37.1234L895.907 37.6517L896.316 38.3881L897.19 37.9025ZM909.801 31.468L910.087 32.4264L910.098 32.4231L909.801 31.468ZM954.585 98V99H955.585V98H954.585ZM907.099 96.1984L906.685 97.1088L906.693 97.1122L907.099 96.1984ZM898.348 89.1205L897.516 89.6752L897.523 89.686L898.348 89.1205ZM897.833 68.659L896.976 68.1445L896.97 68.1536L896.965 68.1629L897.833 68.659ZM906.455 61.4525L906.048 60.5394L906.04 60.5428L906.455 61.4525ZM944.29 58.75H945.29V57.75H944.29V58.75ZM944.29 67.6295V68.6295H945.29V67.6295H944.29ZM910.702 70.718L910.01 69.9966L910.01 69.9966L910.702 70.718ZM911.474 86.2893L910.862 87.0801L910.87 87.0863L910.878 87.0924L911.474 86.2893ZM934.638 86.1607L934.133 85.2976L934.124 85.3032L934.638 86.1607ZM942.231 77.1525L943.192 76.8758L942.375 74.0392L941.3 76.7881L942.231 77.1525ZM944.676 85.6459L945.603 86.0207L945.732 85.7008L945.637 85.3693L944.676 85.6459ZM936.054 95.2975L936.544 96.1691L936.551 96.1653L936.558 96.1613L936.054 95.2975ZM943.874 98V83.5869H941.874V98H943.874ZM943.847 83.3553L943.204 80.6528L941.258 81.116L941.902 83.8185L943.847 83.3553ZM943.231 80.8844V56.3049H941.231V80.8844H943.231ZM943.231 56.3049C943.231 50.8661 941.618 46.5368 938.274 43.471L936.922 44.9453C939.755 47.5418 941.231 51.2771 941.231 56.3049H943.231ZM938.295 43.4909C935.035 40.3244 930.191 38.8328 923.957 38.8328V40.8328C929.906 40.8328 934.155 42.2581 936.901 44.9255L938.295 43.4909ZM923.957 38.8328C919.809 38.8328 915.749 39.5393 911.783 40.9496L912.453 42.834C916.208 41.4989 920.041 40.8328 923.957 40.8328V38.8328ZM911.802 40.9431C907.842 42.263 904.466 44.0778 901.695 46.4018L902.98 47.9342C905.528 45.7971 908.672 44.0943 912.434 42.8405L911.802 40.9431ZM903.212 46.6824L898.064 37.4168L896.316 38.3881L901.463 47.6537L903.212 46.6824ZM897.817 38.6815C901.221 35.9415 905.305 33.8525 910.087 32.4263L909.516 30.5097C904.517 32.0005 900.194 34.2011 896.563 37.1234L897.817 38.6815ZM910.098 32.4231C914.974 30.9097 920.064 30.1516 925.373 30.1516V28.1516C919.871 28.1516 914.58 28.9378 909.505 30.513L910.098 32.4231ZM925.373 30.1516C934.57 30.1516 941.505 32.3869 946.324 36.716L947.661 35.2282C942.356 30.4633 934.878 28.1516 925.373 28.1516V30.1516ZM946.324 36.716C951.105 41.0103 953.585 47.6417 953.585 56.8197H955.585C955.585 47.2949 953.004 40.0279 947.661 35.2282L946.324 36.716ZM953.585 56.8197V98H955.585V56.8197H953.585ZM954.585 97H942.874V99H954.585V97ZM920.483 97.7721C915.533 97.7721 911.215 96.9335 907.505 95.2845L906.693 97.1122C910.704 98.895 915.308 99.7721 920.483 99.7721V97.7721ZM907.513 95.288C903.88 93.6368 901.115 91.3875 899.173 88.555L897.523 89.686C899.699 92.8589 902.768 95.3282 906.685 97.1087L907.513 95.288ZM899.18 88.5658C897.235 85.6484 896.26 82.3683 896.26 78.6967H894.26C894.26 82.7464 895.343 86.4156 897.516 89.6752L899.18 88.5658ZM896.26 78.6967C896.26 75.1697 897.078 71.9967 898.702 69.1552L896.965 68.1629C895.157 71.3268 894.26 74.8456 894.26 78.6967H896.26ZM898.691 69.1735C900.366 66.3817 903.064 64.1 906.871 62.3621L906.04 60.5428C901.954 62.4082 898.904 64.9308 896.976 68.1445L898.691 69.1735ZM906.863 62.3655C910.717 60.6435 915.965 59.75 922.67 59.75V57.75C915.82 57.75 910.258 58.6581 906.048 60.5394L906.863 62.3655ZM922.67 59.75H944.29V57.75H922.67V59.75ZM943.29 58.75V67.6295H945.29V58.75H943.29ZM944.29 66.6295H923.185V68.6295H944.29V66.6295ZM923.185 66.6295C920.048 66.6295 917.376 66.8902 915.191 67.4309C913.011 67.9703 911.252 68.8038 910.01 69.9966L911.395 71.4394C912.297 70.5732 913.691 69.8625 915.672 69.3724C917.647 68.8835 920.145 68.6295 923.185 68.6295V66.6295ZM910.01 69.9966C907.673 72.2401 906.485 74.9869 906.485 78.182H908.485C908.485 75.5432 909.442 73.314 911.395 71.4394L910.01 69.9966ZM906.485 78.182C906.485 81.8391 907.959 84.8328 910.862 87.0801L912.086 85.4986C909.67 83.6278 908.485 81.2166 908.485 78.182H906.485ZM910.878 87.0924C913.77 89.2377 917.697 90.2492 922.542 90.2492V88.2492C917.949 88.2492 914.498 87.2875 912.07 85.4862L910.878 87.0924ZM922.542 90.2492C927.327 90.2492 931.543 89.1843 935.153 87.0181L934.124 85.3032C930.871 87.2551 927.022 88.2492 922.542 88.2492V90.2492ZM935.143 87.0237C938.863 84.8463 941.539 81.6637 943.162 77.5169L941.3 76.7881C939.834 80.5341 937.448 83.357 934.133 85.2976L935.143 87.0237ZM941.27 77.4291L943.715 85.9225L945.637 85.3693L943.192 76.8758L941.27 77.4291ZM943.749 85.2711C942.21 89.078 939.496 92.1318 935.55 94.4338L936.558 96.1613C940.848 93.6589 943.882 90.2783 945.603 86.0207L943.749 85.2711ZM935.564 94.426C931.636 96.6351 926.628 97.7721 920.483 97.7721V99.7721C926.863 99.7721 932.235 98.5927 936.544 96.1691L935.564 94.426Z" fill="#DDDDDD" mask="url(#path-1-outside-1_388_6)"/>
</svg>
