<svg width="850" height="300" viewBox="0 0 850 300" fill="none" xmlns="http://www.w3.org/2000/svg">
<circle cx="150" cy="150" r="147" stroke="black" stroke-width="6"/>
<path d="M146.07 159.33C145.569 159.959 145.168 160.615 144.867 161.299C144.63 161.8 144.443 162.051 144.307 162.051C144.234 162.051 144.02 161.987 143.664 161.859C141.422 160.975 139.526 159.891 137.977 158.605C136.336 159.982 134.431 161.112 132.262 161.996C131.979 162.124 131.765 162.188 131.619 162.188C131.464 162.188 131.268 161.955 131.031 161.49C130.648 160.779 130.211 160.228 129.719 159.836C129.728 160.301 129.742 160.706 129.76 161.053C129.769 161.29 129.773 161.417 129.773 161.436C129.773 161.581 129.755 161.668 129.719 161.695C129.682 161.723 129.6 161.736 129.473 161.736H127.49C127.335 161.736 127.244 161.718 127.217 161.682C127.189 161.645 127.176 161.563 127.176 161.436V160.506H124.141V161.955C124.141 162.11 124.122 162.201 124.086 162.229C124.049 162.256 123.963 162.27 123.826 162.27H121.844C121.68 162.27 121.579 162.251 121.543 162.215C121.516 162.178 121.502 162.092 121.502 161.955L121.57 157.73V155.939L121.502 153.314C121.502 153.16 121.525 153.068 121.57 153.041C121.607 153.014 121.698 153 121.844 153L124.4 153.055H126.889L129.473 153C129.618 153 129.705 153.018 129.732 153.055C129.76 153.091 129.773 153.178 129.773 153.314L129.719 155.461V159.809C132.052 159.116 134.135 158.068 135.967 156.664C134.508 154.987 133.406 153.046 132.658 150.84L131.4 150.867C131.255 150.867 131.163 150.844 131.127 150.799C131.1 150.762 131.086 150.676 131.086 150.539V148.57C131.086 148.388 131.191 148.297 131.4 148.297L134.818 148.352H141.34C141.559 148.352 141.764 148.315 141.955 148.242C142.146 148.151 142.288 148.105 142.379 148.105C142.561 148.105 142.912 148.365 143.432 148.885C144.015 149.486 144.307 149.878 144.307 150.061C144.307 150.27 144.202 150.439 143.992 150.566C143.746 150.721 143.523 151.008 143.322 151.428C142.493 153.314 141.385 155.051 140 156.637C141.686 157.822 143.71 158.719 146.07 159.33ZM140.588 150.812H135.406C136.044 152.38 136.892 153.734 137.949 154.873C139.07 153.67 139.95 152.316 140.588 150.812ZM127.176 155.379H124.141V158.182H127.176V155.379ZM130.32 145.932C131.378 145.212 132.13 144.364 132.576 143.389C133.014 142.441 133.232 141.256 133.232 139.834L133.178 137.756C133.178 137.61 133.201 137.523 133.246 137.496C133.283 137.469 133.374 137.455 133.52 137.455L135.98 137.51H138.783L141.299 137.455C141.454 137.455 141.545 137.473 141.572 137.51C141.6 137.546 141.613 137.628 141.613 137.756L141.559 140.025V142.938C141.559 143.439 141.622 143.758 141.75 143.895C141.868 144.004 142.133 144.059 142.543 144.059C142.871 144.059 143.122 143.926 143.295 143.662C143.432 143.443 143.523 142.605 143.568 141.146C144.079 141.456 144.63 141.707 145.223 141.898C145.523 141.999 145.71 142.085 145.783 142.158C145.847 142.231 145.879 142.363 145.879 142.555C145.879 142.6 145.874 142.719 145.865 142.91C145.792 144.414 145.455 145.412 144.854 145.904C144.398 146.333 143.45 146.547 142.01 146.547C140.834 146.547 140.036 146.415 139.617 146.15C139.116 145.822 138.865 145.18 138.865 144.223V140.107H135.953C135.926 141.903 135.639 143.411 135.092 144.633C134.663 145.59 134.035 146.46 133.205 147.244C132.904 147.545 132.681 147.695 132.535 147.695C132.389 147.695 132.166 147.518 131.865 147.162C131.382 146.615 130.867 146.205 130.32 145.932ZM123.703 141.488H127.34L130.334 141.434C130.48 141.434 130.571 141.452 130.607 141.488C130.635 141.525 130.648 141.607 130.648 141.734V143.73C130.648 143.885 130.626 143.981 130.58 144.018C130.553 144.045 130.471 144.059 130.334 144.059L127.34 144.004H123.703L120.736 144.059C120.581 144.059 120.49 144.036 120.463 143.99C120.436 143.954 120.422 143.867 120.422 143.73V141.734C120.422 141.589 120.44 141.502 120.477 141.475C120.513 141.447 120.6 141.434 120.736 141.434L123.703 141.488ZM124.455 137.66H126.998L129.527 137.605C129.682 137.605 129.778 137.624 129.814 137.66C129.842 137.697 129.855 137.779 129.855 137.906V139.779C129.855 139.934 129.837 140.025 129.801 140.053C129.764 140.08 129.673 140.094 129.527 140.094L126.998 140.039H124.455L121.912 140.094C121.757 140.094 121.666 140.076 121.639 140.039C121.611 140.003 121.598 139.916 121.598 139.779V137.906C121.598 137.76 121.616 137.674 121.652 137.646C121.689 137.619 121.775 137.605 121.912 137.605L124.455 137.66ZM124.564 145.494H126.779L129.131 145.439C129.295 145.439 129.391 145.458 129.418 145.494C129.454 145.521 129.473 145.599 129.473 145.727V147.545C129.473 147.691 129.45 147.777 129.404 147.805C129.368 147.832 129.277 147.846 129.131 147.846L126.779 147.791H124.564L122.186 147.846C122.04 147.846 121.949 147.827 121.912 147.791C121.885 147.755 121.871 147.673 121.871 147.545V145.727C121.871 145.535 121.976 145.439 122.186 145.439L124.564 145.494ZM124.564 149.254H126.779L129.131 149.186C129.295 149.186 129.391 149.204 129.418 149.24C129.454 149.277 129.473 149.363 129.473 149.5V151.291C129.473 151.446 129.45 151.537 129.404 151.564C129.368 151.592 129.277 151.605 129.131 151.605L126.779 151.551H124.564L122.186 151.605C122.04 151.605 121.949 151.587 121.912 151.551C121.885 151.514 121.871 151.428 121.871 151.291V149.5C121.871 149.354 121.894 149.263 121.939 149.227C121.967 149.199 122.049 149.186 122.186 149.186L124.564 149.254ZM172.115 136.539C173.364 136.566 174.389 136.63 175.191 136.73C175.492 136.758 175.643 136.863 175.643 137.045C175.643 137.118 175.624 137.214 175.588 137.332C175.542 137.469 175.515 137.56 175.506 137.605C175.369 137.915 175.301 138.95 175.301 140.709V145.727H177.092L180.646 145.658C180.811 145.658 180.911 145.681 180.947 145.727C180.975 145.763 180.988 145.854 180.988 146V148.27C180.988 148.415 180.965 148.502 180.92 148.529C180.883 148.557 180.792 148.57 180.646 148.57L177.092 148.516H175.301V156.979L175.355 161.873C175.355 162.037 175.337 162.137 175.301 162.174C175.273 162.201 175.201 162.215 175.082 162.215H172.553C172.425 162.215 172.348 162.192 172.32 162.146C172.293 162.11 172.279 162.019 172.279 161.873L172.334 157.006V148.516H170.762L167.18 148.57C167.016 148.57 166.92 148.552 166.893 148.516C166.865 148.479 166.852 148.397 166.852 148.27V146C166.852 145.836 166.87 145.736 166.906 145.699C166.943 145.672 167.034 145.658 167.18 145.658L170.762 145.727H172.334V140.764C172.334 139.014 172.261 137.605 172.115 136.539ZM165.977 161.436C165.977 161.581 165.958 161.668 165.922 161.695C165.885 161.723 165.799 161.736 165.662 161.736H163.447C163.301 161.736 163.215 161.718 163.188 161.682C163.16 161.645 163.146 161.563 163.146 161.436V160.533H159.592V161.928C159.592 162.083 159.574 162.174 159.537 162.201C159.501 162.229 159.414 162.242 159.277 162.242H157.104C156.939 162.242 156.839 162.224 156.803 162.188C156.775 162.151 156.762 162.064 156.762 161.928L156.816 157.73V155.885L156.762 153.26C156.762 153.105 156.785 153.014 156.83 152.986C156.867 152.959 156.958 152.945 157.104 152.945L159.646 153H163.092L165.662 152.945C165.817 152.945 165.908 152.964 165.936 153C165.963 153.036 165.977 153.123 165.977 153.26L165.922 155.406V157.402L165.977 161.436ZM163.146 155.379H159.592V158.154H163.146V155.379ZM158.648 141.434H163.789L166.797 141.379C166.979 141.379 167.07 141.479 167.07 141.68V143.676C167.07 143.831 167.052 143.926 167.016 143.963C166.988 143.99 166.915 144.004 166.797 144.004L163.789 143.949H158.648L155.682 144.004C155.527 144.004 155.436 143.986 155.408 143.949C155.381 143.904 155.367 143.812 155.367 143.676V141.68C155.367 141.534 155.385 141.447 155.422 141.42C155.458 141.393 155.545 141.379 155.682 141.379L158.648 141.434ZM159.729 137.66H163.229L165.758 137.605C165.922 137.605 166.018 137.624 166.045 137.66C166.072 137.697 166.086 137.779 166.086 137.906V139.766C166.086 139.911 166.068 139.998 166.031 140.025C165.995 140.053 165.904 140.066 165.758 140.066L163.229 140.012H159.729L157.186 140.066C157.04 140.066 156.953 140.048 156.926 140.012C156.898 139.975 156.885 139.893 156.885 139.766V137.906C156.885 137.76 156.903 137.674 156.939 137.646C156.976 137.619 157.058 137.605 157.186 137.605L159.729 137.66ZM159.824 145.412H162.928L165.279 145.357C165.443 145.357 165.539 145.376 165.566 145.412C165.603 145.449 165.621 145.531 165.621 145.658V147.49C165.621 147.636 165.598 147.723 165.553 147.75C165.516 147.777 165.425 147.791 165.279 147.791L162.928 147.736H159.824L157.445 147.791C157.29 147.791 157.199 147.773 157.172 147.736C157.145 147.7 157.131 147.618 157.131 147.49V145.658C157.131 145.512 157.149 145.426 157.186 145.398C157.222 145.371 157.309 145.357 157.445 145.357L159.824 145.412ZM159.824 149.186H162.928L165.279 149.131C165.443 149.131 165.539 149.149 165.566 149.186C165.603 149.222 165.621 149.304 165.621 149.432V151.236C165.621 151.382 165.598 151.469 165.553 151.496C165.516 151.523 165.425 151.537 165.279 151.537L162.928 151.482H159.824L157.445 151.537C157.29 151.537 157.199 151.519 157.172 151.482C157.145 151.446 157.131 151.364 157.131 151.236V149.432C157.131 149.286 157.149 149.199 157.186 149.172C157.222 149.145 157.309 149.131 157.445 149.131L159.824 149.186Z" fill="black"/>
<circle cx="425" cy="150" r="147" stroke="black" stroke-width="6"/>
<path d="M360.66 158.947C361.307 159.038 361.986 159.084 362.697 159.084C363.18 159.084 363.499 158.997 363.654 158.824C363.782 158.669 363.846 158.396 363.846 158.004V146.465H359.266L356.189 146.52C356.025 146.52 355.925 146.501 355.889 146.465C355.861 146.428 355.848 146.346 355.848 146.219L355.902 143.785V140.039L355.848 137.578C355.848 137.423 355.87 137.332 355.916 137.305C355.952 137.277 356.044 137.264 356.189 137.264L359.266 137.318H363.367L366.484 137.264C366.63 137.264 366.717 137.282 366.744 137.318C366.771 137.355 366.785 137.441 366.785 137.578L366.73 141.406V153.41L366.84 158.523C366.84 159.262 366.776 159.818 366.648 160.191C366.53 160.547 366.325 160.852 366.033 161.107C365.678 161.408 365.222 161.609 364.666 161.709C364.146 161.809 363.367 161.859 362.328 161.859C361.872 161.859 361.604 161.814 361.521 161.723C361.439 161.641 361.367 161.399 361.303 160.998C361.175 160.232 360.961 159.549 360.66 158.947ZM363.846 144.482V142.855H358.637V144.482H363.846ZM363.846 139.396H358.637V140.982H363.846V139.396ZM350.803 137.318L353.619 137.264C353.811 137.264 353.906 137.368 353.906 137.578L353.852 140.258V143.553L353.906 146.219C353.906 146.419 353.811 146.52 353.619 146.52L350.803 146.465H346.209V155.816L346.264 161.859C346.264 162.014 346.245 162.105 346.209 162.133C346.173 162.16 346.09 162.174 345.963 162.174H343.57C343.434 162.174 343.347 162.156 343.311 162.119C343.283 162.092 343.27 162.005 343.27 161.859L343.324 155.816V143.662L343.27 137.578C343.27 137.423 343.288 137.332 343.324 137.305C343.361 137.277 343.447 137.264 343.584 137.264L346.906 137.318H350.803ZM351.104 144.482V142.855H346.209V144.482H351.104ZM351.104 139.396H346.209V140.982H351.104V139.396ZM347.754 159.973C349.322 158.979 350.32 157.607 350.748 155.857L350.803 155.352C349.9 155.361 349.112 155.374 348.438 155.393C348.392 155.393 348.219 155.397 347.918 155.406C347.827 155.406 347.772 155.406 347.754 155.406C347.608 155.406 347.517 155.383 347.48 155.338C347.453 155.301 347.439 155.215 347.439 155.078V153.383C347.439 153.237 347.458 153.15 347.494 153.123C347.531 153.096 347.617 153.082 347.754 153.082L350.939 153.137C350.976 152.207 350.994 151.359 350.994 150.594C350.301 150.603 349.673 150.617 349.107 150.635C348.743 150.644 348.551 150.648 348.533 150.648C348.369 150.648 348.273 150.63 348.246 150.594C348.21 150.557 348.191 150.475 348.191 150.348V148.639C348.191 148.484 348.214 148.393 348.26 148.365C348.296 148.338 348.387 148.324 348.533 148.324L352.033 148.379H358.021L361.521 148.324C361.667 148.324 361.758 148.342 361.795 148.379C361.822 148.415 361.836 148.502 361.836 148.639V150.348C361.836 150.493 361.818 150.58 361.781 150.607C361.745 150.635 361.658 150.648 361.521 150.648C361.494 150.648 361.38 150.644 361.18 150.635C360.487 150.617 359.744 150.603 358.951 150.594V153.137L362.137 153.082C362.283 153.082 362.374 153.1 362.41 153.137C362.438 153.173 362.451 153.255 362.451 153.383V155.078C362.451 155.224 362.433 155.315 362.396 155.352C362.369 155.388 362.283 155.406 362.137 155.406L358.951 155.352V157.949L359.006 160.984C359.006 161.139 358.988 161.235 358.951 161.271C358.915 161.299 358.828 161.312 358.691 161.312H356.627C356.472 161.312 356.381 161.294 356.354 161.258C356.326 161.221 356.312 161.13 356.312 160.984L356.367 157.949V155.352H353.428C353.364 155.871 353.3 156.272 353.236 156.555C352.844 158.368 351.96 159.936 350.584 161.258C350.292 161.522 350.115 161.654 350.051 161.654C349.951 161.654 349.736 161.486 349.408 161.148C348.971 160.72 348.419 160.328 347.754 159.973ZM353.605 153.137H356.367V150.594H353.66C353.66 151.323 353.642 152.171 353.605 153.137ZM399.488 155.967C400.026 156.313 400.66 156.573 401.389 156.746C401.726 156.837 401.931 156.91 402.004 156.965C402.095 157.029 402.141 157.138 402.141 157.293C402.141 157.384 402.127 157.521 402.1 157.703C401.945 158.76 401.749 159.535 401.512 160.027C401.302 160.474 401.001 160.82 400.609 161.066C399.889 161.531 398.545 161.764 396.576 161.764C394.279 161.764 392.835 161.559 392.242 161.148C391.868 160.893 391.627 160.592 391.518 160.246C391.417 159.936 391.367 159.453 391.367 158.797V154.176H387.922C387.512 156.227 386.65 157.863 385.338 159.084C384.199 160.132 382.54 161.053 380.361 161.846C380.006 161.973 379.801 162.037 379.746 162.037C379.591 162.037 379.386 161.805 379.131 161.34C378.721 160.574 378.247 159.968 377.709 159.521C380.079 158.902 381.797 158.173 382.863 157.334C383.848 156.55 384.527 155.497 384.9 154.176H382.795L379.049 154.23C378.885 154.23 378.785 154.212 378.748 154.176C378.721 154.139 378.707 154.057 378.707 153.93V151.906C378.707 151.76 378.73 151.674 378.775 151.646C378.812 151.619 378.903 151.605 379.049 151.605L382.795 151.66H385.324C385.361 150.84 385.379 150.156 385.379 149.609V148.652C384.887 148.661 384.426 148.675 383.998 148.693C383.725 148.702 383.579 148.707 383.561 148.707C383.396 148.707 383.296 148.689 383.26 148.652C383.232 148.616 383.219 148.534 383.219 148.406V147.34C382.198 147.996 380.949 148.689 379.473 149.418C379.135 149.564 378.917 149.637 378.816 149.637C378.671 149.637 378.475 149.395 378.229 148.912C377.946 148.356 377.568 147.841 377.094 147.367C379.008 146.62 380.73 145.763 382.262 144.797C381.332 143.749 380.389 142.842 379.432 142.076C379.286 141.958 379.213 141.862 379.213 141.789C379.213 141.743 379.286 141.661 379.432 141.543L380.84 140.422C380.995 140.303 381.1 140.244 381.154 140.244C381.209 140.244 381.291 140.285 381.4 140.367C382.421 141.206 383.438 142.149 384.449 143.197C385.689 142.176 386.732 141.064 387.58 139.861H384.449L381.51 139.916C381.346 139.916 381.25 139.898 381.223 139.861C381.186 139.825 381.168 139.743 381.168 139.615V137.674C381.168 137.528 381.191 137.441 381.236 137.414C381.273 137.387 381.364 137.373 381.51 137.373L384.449 137.428H388.318L390.861 137.373C391.08 137.373 391.24 137.487 391.34 137.715C391.659 138.617 392.087 139.419 392.625 140.121C392.643 140.148 392.775 140.331 393.021 140.668C393.714 140.039 394.275 139.442 394.703 138.877C394.958 138.567 395.218 138.18 395.482 137.715C396.075 138.007 396.795 138.435 397.643 139C397.843 139.137 397.943 139.283 397.943 139.438C397.943 139.611 397.82 139.752 397.574 139.861C397.246 140.025 396.932 140.276 396.631 140.613C395.938 141.342 395.296 141.962 394.703 142.473C395.378 143.065 395.888 143.493 396.234 143.758C397.146 142.983 397.943 142.208 398.627 141.434C398.973 140.978 399.233 140.577 399.406 140.23C400.299 140.723 401.024 141.151 401.58 141.516C401.808 141.661 401.922 141.821 401.922 141.994C401.922 142.158 401.799 142.286 401.553 142.377C401.27 142.495 400.947 142.751 400.582 143.143C399.962 143.753 399.242 144.414 398.422 145.125C399.753 145.845 401.275 146.479 402.988 147.025C402.578 147.572 402.241 148.165 401.977 148.803C401.776 149.286 401.598 149.527 401.443 149.527C401.307 149.527 401.092 149.464 400.801 149.336C399.115 148.598 397.679 147.846 396.494 147.08V148.406C396.494 148.552 396.476 148.639 396.439 148.666C396.403 148.693 396.316 148.707 396.18 148.707C396.161 148.707 395.956 148.702 395.564 148.693C395.154 148.675 394.708 148.661 394.225 148.652V151.66H397.055L400.828 151.605C400.974 151.605 401.065 151.624 401.102 151.66C401.129 151.697 401.143 151.779 401.143 151.906V153.93C401.143 154.066 401.124 154.153 401.088 154.189C401.061 154.217 400.974 154.23 400.828 154.23L397.055 154.176H394.225V157.949C394.225 158.46 394.325 158.788 394.525 158.934C394.771 159.125 395.455 159.221 396.576 159.221C397.725 159.221 398.463 159.07 398.791 158.77C399.165 158.423 399.397 157.489 399.488 155.967ZM390.109 140.559C388.806 142.646 387.051 144.523 384.846 146.191H395.182C393.14 144.669 391.449 142.792 390.109 140.559ZM388.236 151.66H391.367V148.652H388.291V149.609C388.291 150.111 388.273 150.794 388.236 151.66ZM424.973 146.561C425.802 146.561 426.495 146.87 427.051 147.49C427.534 148.019 427.775 148.643 427.775 149.363C427.775 150.193 427.465 150.885 426.846 151.441C426.317 151.924 425.693 152.166 424.973 152.166C424.143 152.166 423.451 151.856 422.895 151.236C422.411 150.708 422.17 150.083 422.17 149.363C422.17 148.534 422.48 147.841 423.1 147.285C423.628 146.802 424.253 146.561 424.973 146.561ZM452.043 154.682L448.434 154.736C448.288 154.736 448.197 154.718 448.16 154.682C448.133 154.645 448.119 154.563 448.119 154.436V152.604C448.119 152.449 448.137 152.353 448.174 152.316C448.21 152.289 448.297 152.275 448.434 152.275L452.043 152.33H458.113C458.214 151.856 458.282 151.286 458.318 150.621H455.625L451.824 150.676C451.669 150.676 451.578 150.658 451.551 150.621C451.523 150.585 451.51 150.503 451.51 150.375V148.598C451.51 148.443 451.528 148.347 451.564 148.311C451.601 148.283 451.688 148.27 451.824 148.27L455.625 148.324H458.4V146.67H455.816L452.125 146.725C451.979 146.725 451.893 146.702 451.865 146.656C451.838 146.62 451.824 146.533 451.824 146.396V144.66C451.824 144.496 451.842 144.396 451.879 144.359C451.906 144.332 451.988 144.318 452.125 144.318L455.816 144.373H458.373C458.355 143.917 458.296 143.225 458.195 142.295C459.572 142.34 460.524 142.4 461.053 142.473C461.39 142.527 461.559 142.646 461.559 142.828C461.559 142.965 461.504 143.161 461.395 143.416C461.303 143.635 461.258 143.954 461.258 144.373H464.143L467.807 144.318C467.971 144.318 468.066 144.341 468.094 144.387C468.13 144.423 468.148 144.514 468.148 144.66V146.396C468.148 146.551 468.126 146.647 468.08 146.684C468.044 146.711 467.952 146.725 467.807 146.725L464.143 146.67H461.258V148.324H464.279L468.053 148.27C468.217 148.27 468.317 148.292 468.354 148.338C468.381 148.374 468.395 148.461 468.395 148.598V150.375C468.395 150.521 468.372 150.607 468.326 150.635C468.29 150.662 468.199 150.676 468.053 150.676L464.279 150.621H461.203C461.194 150.749 461.135 151.318 461.025 152.33H468.08L471.703 152.275C471.858 152.275 471.954 152.298 471.99 152.344C472.018 152.38 472.031 152.467 472.031 152.604V154.436C472.031 154.572 472.013 154.659 471.977 154.695C471.949 154.723 471.858 154.736 471.703 154.736L468.08 154.682H462.229C464.252 157.106 467.784 158.61 472.824 159.193C472.35 159.786 471.995 160.488 471.758 161.299C471.612 161.8 471.425 162.051 471.197 162.051C470.969 162.051 470.764 162.033 470.582 161.996C465.879 161.203 462.32 159.157 459.904 155.857C459.695 156.222 459.471 156.55 459.234 156.842C458.204 158.173 456.819 159.266 455.078 160.123C453.629 160.834 451.824 161.44 449.664 161.941C449.29 162.014 449.076 162.051 449.021 162.051C448.839 162.051 448.661 161.8 448.488 161.299C448.279 160.633 447.923 159.995 447.422 159.385C449.919 159.029 452.048 158.432 453.807 157.594C455.32 156.874 456.404 156.044 457.061 155.105L457.307 154.682H452.043ZM467.779 139.273L471.484 139.219C471.63 139.219 471.717 139.237 471.744 139.273C471.771 139.31 471.785 139.396 471.785 139.533L471.73 140.928V142.104L471.785 145.125C471.785 145.271 471.767 145.357 471.73 145.385C471.694 145.412 471.612 145.426 471.484 145.426H469.188C469.033 145.426 468.941 145.408 468.914 145.371C468.887 145.335 468.873 145.253 468.873 145.125V141.734H451.086V145.125C451.086 145.271 451.063 145.357 451.018 145.385C450.981 145.412 450.89 145.426 450.744 145.426H448.488C448.333 145.426 448.242 145.408 448.215 145.371C448.188 145.335 448.174 145.253 448.174 145.125L448.229 142.104V141.146L448.174 139.533C448.174 139.378 448.192 139.287 448.229 139.26C448.265 139.232 448.352 139.219 448.488 139.219L452.18 139.273H458.277V139.137C458.277 137.979 458.204 137.09 458.059 136.471C459.134 136.498 460.141 136.553 461.08 136.635C461.381 136.662 461.531 136.749 461.531 136.895C461.531 136.967 461.477 137.154 461.367 137.455C461.276 137.701 461.23 138.262 461.23 139.137V139.273H467.779ZM497.898 157.689C497.78 158.291 497.721 158.888 497.721 159.48C497.712 159.79 497.657 159.977 497.557 160.041C497.484 160.096 497.233 160.173 496.805 160.273C494.59 160.775 491.742 161.303 488.26 161.859C487.722 161.96 487.376 162.064 487.221 162.174C487.075 162.283 486.934 162.338 486.797 162.338C486.596 162.338 486.446 162.206 486.346 161.941C486.227 161.522 486.022 160.725 485.73 159.549C485.995 159.531 486.993 159.426 488.725 159.234L489.545 159.152V156.295C487.986 157.115 486.259 157.826 484.363 158.428C484.017 158.519 483.803 158.564 483.721 158.564C483.548 158.564 483.352 158.332 483.133 157.867C482.75 157.165 482.395 156.65 482.066 156.322C485.73 155.511 488.624 154.344 490.748 152.822H486.291L482.791 152.877C482.609 152.877 482.518 152.777 482.518 152.576V150.607C482.518 150.407 482.609 150.307 482.791 150.307L486.291 150.361H493.605C493.605 149.915 493.56 149.222 493.469 148.283C494.572 148.347 495.506 148.415 496.271 148.488C496.59 148.507 496.75 148.616 496.75 148.816C496.75 148.926 496.691 149.131 496.572 149.432C496.499 149.587 496.463 149.896 496.463 150.361H503.777L507.277 150.307C507.423 150.307 507.51 150.325 507.537 150.361C507.564 150.398 507.578 150.48 507.578 150.607V152.576C507.578 152.713 507.56 152.799 507.523 152.836C507.496 152.863 507.414 152.877 507.277 152.877L503.777 152.822H503.723C504.288 153.205 504.816 153.588 505.309 153.971C505.482 154.107 505.568 154.249 505.568 154.395C505.568 154.568 505.445 154.686 505.199 154.75C504.962 154.832 504.666 155.01 504.311 155.283C503.773 155.702 502.939 156.299 501.809 157.074C503.568 158.15 505.751 158.943 508.357 159.453C507.865 160.018 507.455 160.656 507.127 161.367C506.917 161.823 506.712 162.051 506.512 162.051C506.411 162.051 506.206 162.01 505.896 161.928C500.546 160.287 496.91 157.252 494.986 152.822H494.59C493.997 153.387 493.214 154.012 492.238 154.695V158.783C494.417 158.428 496.303 158.063 497.898 157.689ZM499.908 155.652C500.874 154.978 501.695 154.312 502.369 153.656C502.597 153.456 502.829 153.178 503.066 152.822H497.721C498.295 153.907 499.024 154.85 499.908 155.652ZM496.641 147.764L493.209 147.818C493.045 147.818 492.945 147.8 492.908 147.764C492.881 147.727 492.867 147.645 492.867 147.518V145.576C492.867 145.439 492.89 145.357 492.936 145.33C492.963 145.312 493.054 145.303 493.209 145.303L496.641 145.33H498.021V142.281H496.203L492.498 142.336C492.352 142.336 492.266 142.318 492.238 142.281C492.211 142.245 492.197 142.158 492.197 142.021V140.094C492.197 139.93 492.215 139.829 492.252 139.793C492.288 139.766 492.37 139.752 492.498 139.752L496.203 139.807H498.021V139.246C498.021 138.152 497.953 137.259 497.816 136.566C498.473 136.585 499.448 136.648 500.742 136.758C501.043 136.785 501.193 136.89 501.193 137.072C501.193 137.218 501.143 137.387 501.043 137.578C500.934 137.779 500.879 138.307 500.879 139.164V139.807H503.285L506.977 139.752C507.122 139.752 507.214 139.775 507.25 139.82C507.277 139.857 507.291 139.948 507.291 140.094V142.021C507.291 142.176 507.273 142.268 507.236 142.295C507.2 142.322 507.113 142.336 506.977 142.336L503.285 142.281H500.879V145.33H502.41L505.883 145.303C506.056 145.303 506.156 145.316 506.184 145.344C506.211 145.371 506.225 145.449 506.225 145.576V147.518C506.225 147.663 506.202 147.75 506.156 147.777C506.12 147.805 506.029 147.818 505.883 147.818L502.41 147.764H496.641ZM488.15 136.621C489.226 136.648 490.197 136.712 491.062 136.812C491.345 136.849 491.486 136.945 491.486 137.1C491.486 137.227 491.427 137.405 491.309 137.633C491.199 137.833 491.145 138.54 491.145 139.752V145.836L491.199 148.994C491.199 149.204 491.104 149.309 490.912 149.309H488.561C488.424 149.309 488.342 149.286 488.314 149.24C488.296 149.213 488.287 149.131 488.287 148.994L488.314 146.082C487.148 146.638 485.972 147.153 484.787 147.627C484.35 147.791 484.067 147.923 483.939 148.023C483.766 148.169 483.62 148.242 483.502 148.242C483.374 148.242 483.251 148.119 483.133 147.873C482.878 147.308 482.577 146.488 482.23 145.412C482.796 145.339 483.57 145.161 484.555 144.879C486.068 144.368 487.321 143.895 488.314 143.457V139.807C488.314 138.485 488.26 137.423 488.15 136.621ZM485.033 138.139C486.318 139.296 487.221 140.189 487.74 140.818C487.831 140.928 487.877 141.01 487.877 141.064C487.877 141.137 487.795 141.242 487.631 141.379L486.209 142.691C486.027 142.846 485.904 142.924 485.84 142.924C485.794 142.924 485.721 142.86 485.621 142.732C484.846 141.63 484.008 140.677 483.105 139.875C483.005 139.793 482.955 139.725 482.955 139.67C482.955 139.606 483.033 139.506 483.188 139.369L484.473 138.193C484.609 138.066 484.71 138.002 484.773 138.002C484.828 138.002 484.915 138.048 485.033 138.139Z" fill="black"/>
<circle cx="700" cy="150" r="147" stroke="black" stroke-width="6"/>
<path d="M641.355 162.023H638.922C638.785 162.023 638.699 162.005 638.662 161.969C638.635 161.941 638.621 161.855 638.621 161.709L638.676 152.576V147.408L638.621 140.449C638.621 140.303 638.639 140.217 638.676 140.189C638.712 140.162 638.799 140.148 638.936 140.148L642.818 140.203H644.637C644.956 139.565 645.302 138.69 645.676 137.578C645.785 137.277 645.885 136.835 645.977 136.252C646.742 136.325 647.74 136.466 648.971 136.676C649.235 136.73 649.367 136.854 649.367 137.045C649.367 137.154 649.294 137.282 649.148 137.428C648.939 137.674 648.798 137.897 648.725 138.098C648.387 138.909 648.064 139.611 647.754 140.203H653.209L657.105 140.148C657.251 140.148 657.338 140.167 657.365 140.203C657.393 140.24 657.406 140.322 657.406 140.449L657.352 146.643V152.549L657.406 161.654C657.406 161.8 657.388 161.891 657.352 161.928C657.315 161.955 657.233 161.969 657.105 161.969H654.617C654.462 161.969 654.371 161.946 654.344 161.9C654.316 161.873 654.303 161.791 654.303 161.654V160.396H641.67V161.709C641.67 161.855 641.652 161.946 641.615 161.982C641.579 162.01 641.492 162.023 641.355 162.023ZM641.67 157.703H654.303V154.34H641.67V157.703ZM641.67 151.701H654.303V148.584H641.67V151.701ZM641.67 142.896V145.945H654.303V142.896H641.67ZM674.455 148.57L670.928 148.625C670.782 148.625 670.695 148.607 670.668 148.57C670.641 148.534 670.627 148.452 670.627 148.324V146.246C670.627 146.1 670.645 146.014 670.682 145.986C670.718 145.959 670.8 145.945 670.928 145.945L674.455 146H681.318V142.883H677.176L673.307 142.938C673.124 142.938 673.033 142.837 673.033 142.637V140.559C673.033 140.358 673.124 140.258 673.307 140.258L677.176 140.312H681.318V139.998C681.318 138.558 681.255 137.423 681.127 136.594C682.339 136.621 683.365 136.685 684.203 136.785C684.486 136.812 684.627 136.913 684.627 137.086C684.627 137.168 684.572 137.355 684.463 137.646C684.344 137.92 684.285 138.649 684.285 139.834V140.312H688.729L692.584 140.258C692.73 140.258 692.821 140.276 692.857 140.312C692.885 140.349 692.898 140.431 692.898 140.559V142.637C692.898 142.783 692.876 142.869 692.83 142.896C692.803 142.924 692.721 142.938 692.584 142.938L688.729 142.883H684.285V146H691.49L695.018 145.945C695.163 145.945 695.255 145.964 695.291 146C695.318 146.036 695.332 146.118 695.332 146.246V148.324C695.332 148.47 695.314 148.557 695.277 148.584C695.241 148.611 695.154 148.625 695.018 148.625L691.49 148.57H684.354V151.879H688.25L691.641 151.824C691.796 151.824 691.891 151.847 691.928 151.893C691.955 151.929 691.969 152.016 691.969 152.152V154.203C691.969 154.34 691.951 154.426 691.914 154.463C691.878 154.49 691.786 154.504 691.641 154.504L688.25 154.449H684.354V158.646C685.411 158.774 686.792 158.838 688.496 158.838C690.693 158.838 693.104 158.692 695.729 158.4C695.437 158.956 695.241 159.654 695.141 160.492C695.059 160.957 694.972 161.23 694.881 161.312C694.79 161.376 694.539 161.422 694.129 161.449C692.671 161.577 690.848 161.641 688.66 161.641C686.062 161.641 684.012 161.472 682.508 161.135C681.122 160.816 679.933 160.305 678.939 159.604C677.736 158.756 676.802 157.858 676.137 156.91C675.353 158.651 674.309 160.173 673.006 161.477C672.705 161.777 672.5 161.928 672.391 161.928C672.29 161.928 672.094 161.768 671.803 161.449C671.283 160.902 670.704 160.428 670.066 160.027C672.582 157.84 674.177 155.087 674.852 151.77C674.988 151.177 675.07 150.521 675.098 149.801C676.018 149.947 676.88 150.124 677.682 150.334C678.074 150.434 678.27 150.566 678.27 150.73C678.27 150.876 678.183 151.036 678.01 151.209C677.873 151.364 677.736 151.729 677.6 152.303C677.49 152.831 677.331 153.483 677.121 154.258C677.768 155.324 678.671 156.263 679.828 157.074C680.375 157.457 680.922 157.749 681.469 157.949V148.57H674.455ZM709.523 143.43L705.969 143.484C705.823 143.484 705.736 143.466 705.709 143.43C705.682 143.393 705.668 143.311 705.668 143.184V140.955C705.668 140.8 705.686 140.704 705.723 140.668C705.759 140.641 705.841 140.627 705.969 140.627L709.523 140.682H716.25V140.23C716.25 138.827 716.173 137.633 716.018 136.648C717.321 136.685 718.387 136.749 719.217 136.84C719.518 136.876 719.668 136.981 719.668 137.154C719.668 137.236 719.6 137.432 719.463 137.742C719.354 138.116 719.299 138.854 719.299 139.957V140.682H726.436L729.99 140.627C730.136 140.627 730.227 140.65 730.264 140.695C730.291 140.732 730.305 140.818 730.305 140.955V143.184C730.305 143.329 730.282 143.416 730.236 143.443C730.209 143.471 730.127 143.484 729.99 143.484L726.436 143.43H719.299V146.902H723.387C723.742 146.902 724.011 146.866 724.193 146.793C724.348 146.72 724.471 146.684 724.562 146.684C724.727 146.684 725.096 146.975 725.67 147.559C726.253 148.105 726.545 148.507 726.545 148.762C726.545 148.889 726.413 149.058 726.148 149.268C725.875 149.477 725.652 149.728 725.479 150.02C723.975 152.389 722.27 154.376 720.365 155.98C722.926 157.421 726.395 158.473 730.77 159.139C730.332 159.731 729.931 160.483 729.566 161.395C729.402 161.878 729.206 162.119 728.979 162.119C728.851 162.119 728.646 162.092 728.363 162.037C723.943 161.025 720.406 159.64 717.754 157.881C715.074 159.576 711.697 160.952 707.623 162.01C707.377 162.083 707.172 162.119 707.008 162.119C706.816 162.119 706.63 161.878 706.447 161.395C706.146 160.629 705.764 159.964 705.299 159.398C709.555 158.533 712.923 157.411 715.402 156.035C713.516 154.258 712.007 152.102 710.877 149.568C710.075 149.577 709.364 149.591 708.744 149.609L708.102 149.623C707.956 149.623 707.865 149.605 707.828 149.568C707.801 149.532 707.787 149.445 707.787 149.309V147.162C707.787 147.007 707.81 146.916 707.855 146.889C707.883 146.861 707.965 146.848 708.102 146.848L711.902 146.902H716.25V143.43H709.523ZM722.102 149.568H714.09C715.111 151.446 716.4 153.032 717.959 154.326C719.581 153.032 720.962 151.446 722.102 149.568ZM746.396 159.945C749.441 157.703 751.455 154.531 752.439 150.43C751.583 150.439 750.812 150.452 750.129 150.471C749.682 150.48 749.454 150.484 749.445 150.484C749.299 150.484 749.208 150.462 749.172 150.416C749.145 150.38 749.131 150.293 749.131 150.156V148.324C749.131 148.178 749.154 148.092 749.199 148.064C749.227 148.037 749.309 148.023 749.445 148.023L752.891 148.078C752.927 147.777 752.964 147.271 753 146.561L749.691 146.615C749.546 146.615 749.459 146.597 749.432 146.561C749.404 146.515 749.391 146.424 749.391 146.287V144.688C749.391 144.542 749.409 144.451 749.445 144.414C749.482 144.387 749.564 144.373 749.691 144.373L753.342 144.428H759.357C759.95 143.434 760.451 142.418 760.861 141.379C761.08 140.777 761.221 140.271 761.285 139.861C762.352 140.08 763.181 140.303 763.773 140.531C764.02 140.622 764.143 140.755 764.143 140.928C764.143 141.074 764.056 141.215 763.883 141.352C763.719 141.47 763.573 141.648 763.445 141.885C762.698 143.325 762.251 144.173 762.105 144.428L764.812 144.373C764.958 144.373 765.049 144.391 765.086 144.428C765.113 144.464 765.127 144.551 765.127 144.688V146.287C765.127 146.442 765.109 146.538 765.072 146.574C765.036 146.602 764.949 146.615 764.812 146.615L761.148 146.561H755.721C755.648 147.226 755.579 147.732 755.516 148.078H761.572L765.291 148.023C765.482 148.023 765.578 148.124 765.578 148.324V150.156C765.578 150.311 765.564 150.407 765.537 150.443C765.51 150.471 765.428 150.484 765.291 150.484L761.572 150.43H755.105C755.023 150.785 754.891 151.3 754.709 151.975H761.066C761.267 151.975 761.463 151.938 761.654 151.865C761.764 151.811 761.887 151.783 762.023 151.783C762.242 151.783 762.566 152.034 762.994 152.535C763.468 153.027 763.705 153.383 763.705 153.602C763.705 153.738 763.6 153.866 763.391 153.984C763.19 154.112 762.949 154.395 762.666 154.832C761.745 156.108 760.839 157.17 759.945 158.018C761.504 158.756 763.5 159.344 765.934 159.781C765.642 160.146 765.355 160.725 765.072 161.518C764.89 162.01 764.708 162.256 764.525 162.256C764.434 162.256 764.234 162.215 763.924 162.133C761.6 161.531 759.59 160.72 757.895 159.699C756.382 160.747 754.609 161.586 752.576 162.215C752.266 162.324 752.052 162.379 751.934 162.379C751.797 162.379 751.619 162.165 751.4 161.736C751.136 161.208 750.79 160.715 750.361 160.26C752.421 159.804 754.235 159.102 755.803 158.154C754.864 157.316 754.062 156.432 753.396 155.502C752.285 157.79 750.781 159.745 748.885 161.367C748.566 161.632 748.361 161.764 748.27 161.764C748.142 161.764 747.964 161.604 747.736 161.285C747.399 160.829 746.952 160.383 746.396 159.945ZM760.055 153.957H754.928C755.712 155.033 756.646 155.958 757.73 156.732C758.615 155.958 759.389 155.033 760.055 153.957ZM740.436 159.111C740.846 159.166 741.648 159.193 742.842 159.193C743.234 159.193 743.43 158.934 743.43 158.414V152.836L742.336 153.178C741.971 153.296 741.643 153.456 741.352 153.656C741.215 153.766 741.055 153.82 740.873 153.82C740.718 153.82 740.6 153.706 740.518 153.479C740.344 152.758 740.185 151.874 740.039 150.826C740.996 150.689 741.862 150.512 742.637 150.293L743.43 150.061V144.633H742.924L740.518 144.688C740.372 144.688 740.281 144.669 740.244 144.633C740.217 144.596 740.203 144.51 740.203 144.373V142.336C740.203 142.19 740.226 142.099 740.271 142.062C740.299 142.035 740.381 142.021 740.518 142.021L742.924 142.09H743.43V140.6C743.43 139.15 743.361 137.824 743.225 136.621C744.282 136.648 745.23 136.717 746.068 136.826C746.387 136.854 746.547 136.954 746.547 137.127C746.547 137.218 746.479 137.414 746.342 137.715C746.232 137.943 746.178 138.886 746.178 140.545V142.09L748.27 142.021C748.424 142.021 748.516 142.04 748.543 142.076C748.57 142.113 748.584 142.199 748.584 142.336V144.373C748.584 144.528 748.566 144.619 748.529 144.646C748.493 144.674 748.406 144.688 748.27 144.688L746.178 144.633V149.117C746.479 149.008 747.208 148.716 748.365 148.242C748.265 148.771 748.215 149.445 748.215 150.266C748.215 150.63 748.174 150.863 748.092 150.963C748.037 151.036 747.882 151.127 747.627 151.236C747.226 151.428 746.743 151.633 746.178 151.852V153L746.26 158.578C746.26 160 745.968 160.921 745.385 161.34C744.856 161.75 743.785 161.955 742.172 161.955C741.99 161.964 741.876 161.969 741.83 161.969C741.548 161.969 741.365 161.91 741.283 161.791C741.219 161.7 741.16 161.477 741.105 161.121C740.996 160.465 740.773 159.795 740.436 159.111ZM762.516 136.484C763.154 136.895 763.778 137.405 764.389 138.016C764.598 138.225 764.703 138.385 764.703 138.494C764.703 138.722 764.507 138.836 764.115 138.836C763.924 138.836 763.514 138.891 762.885 139C759.549 139.647 755.589 140.121 751.004 140.422C750.758 140.44 750.594 140.449 750.512 140.449C750.284 140.449 750.12 140.395 750.02 140.285C749.947 140.185 749.855 139.98 749.746 139.67C749.546 139.077 749.277 138.567 748.939 138.139C753.579 138.102 757.585 137.729 760.957 137.018C761.549 136.881 762.069 136.703 762.516 136.484ZM755.215 141.133C755.188 141.087 755.174 141.046 755.174 141.01C755.174 140.91 755.315 140.809 755.598 140.709L756.869 140.23C757.015 140.167 757.129 140.135 757.211 140.135C757.302 140.135 757.393 140.203 757.484 140.34C758.013 141.169 758.441 142.021 758.77 142.896C758.797 142.969 758.811 143.029 758.811 143.074C758.811 143.184 758.701 143.279 758.482 143.361L756.979 143.99C756.805 144.063 756.691 144.1 756.637 144.1C756.555 144.1 756.482 144.004 756.418 143.812C756.181 143.083 755.78 142.19 755.215 141.133ZM752.713 140.709C753.141 141.301 753.574 142.085 754.012 143.061C754.048 143.161 754.066 143.234 754.066 143.279C754.066 143.361 753.952 143.448 753.725 143.539L752.193 144.182C752.029 144.245 751.92 144.277 751.865 144.277C751.774 144.277 751.697 144.191 751.633 144.018C751.35 143.188 750.958 142.386 750.457 141.611C750.375 141.502 750.334 141.429 750.334 141.393C750.334 141.338 750.439 141.27 750.648 141.188L752.125 140.6C752.28 140.545 752.389 140.518 752.453 140.518C752.535 140.518 752.622 140.581 752.713 140.709Z" fill="black"/>
</svg>
