<svg width="850" height="300" viewBox="0 0 850 300" fill="none" xmlns="http://www.w3.org/2000/svg">
<circle cx="150" cy="150" r="147" stroke="black" stroke-width="6"/>
<path d="M124.264 153.178L120.764 153.232C120.581 153.232 120.49 153.132 120.49 152.932V150.758C120.49 150.557 120.581 150.457 120.764 150.457L124.264 150.512H126.93V145.057H125.945L122.199 145.111C122.053 145.111 121.962 145.089 121.926 145.043C121.898 145.007 121.885 144.915 121.885 144.77V142.609C121.885 142.427 121.99 142.336 122.199 142.336L125.945 142.391H126.93V140.955C126.93 139.287 126.866 137.965 126.738 136.99C128.087 137.027 129.094 137.081 129.76 137.154C130.042 137.182 130.184 137.282 130.184 137.455C130.184 137.555 130.115 137.801 129.979 138.193C129.906 138.421 129.869 139.342 129.869 140.955V142.391H135.775V140.955C135.775 139.287 135.712 137.965 135.584 136.99C136.906 137.018 137.913 137.072 138.605 137.154C138.888 137.182 139.029 137.282 139.029 137.455C139.029 137.546 138.961 137.792 138.824 138.193C138.751 138.412 138.715 139.333 138.715 140.955V142.391H140.082L143.842 142.336C144.042 142.336 144.143 142.427 144.143 142.609V144.77C144.143 144.934 144.124 145.034 144.088 145.07C144.051 145.098 143.969 145.111 143.842 145.111L140.082 145.057H138.715V150.512H141.709L145.182 150.457C145.327 150.457 145.419 150.475 145.455 150.512C145.482 150.548 145.496 150.63 145.496 150.758V152.932C145.496 153.068 145.478 153.155 145.441 153.191C145.414 153.219 145.327 153.232 145.182 153.232L141.709 153.178H124.264ZM129.869 150.512H135.775V145.057H129.869V150.512ZM145.209 159.467C144.671 159.968 144.197 160.565 143.787 161.258C143.523 161.704 143.318 161.928 143.172 161.928C143.09 161.928 142.885 161.855 142.557 161.709C139.531 160.141 137.065 158.163 135.16 155.775C135.087 155.666 135.051 155.584 135.051 155.529C135.051 155.456 135.151 155.361 135.352 155.242L137.033 154.258C137.152 154.176 137.243 154.135 137.307 154.135C137.38 154.135 137.475 154.194 137.594 154.312C139.681 156.609 142.219 158.327 145.209 159.467ZM128.023 154.039C128.971 154.449 129.773 154.859 130.43 155.27C130.676 155.406 130.799 155.548 130.799 155.693C130.799 155.867 130.658 156.031 130.375 156.186C130.156 156.331 129.878 156.587 129.541 156.951C128.064 158.683 125.982 160.26 123.293 161.682C122.965 161.827 122.751 161.9 122.65 161.9C122.505 161.9 122.29 161.695 122.008 161.285C121.57 160.592 121.074 160.032 120.518 159.604C123.215 158.537 125.335 157.215 126.875 155.639C127.395 155.092 127.777 154.559 128.023 154.039ZM176.312 136.594C176.951 137.113 177.529 137.719 178.049 138.412C178.122 138.503 178.158 138.581 178.158 138.645C178.158 138.717 178.076 138.818 177.912 138.945L177.27 139.369L179.648 139.314C179.849 139.314 179.949 139.406 179.949 139.588V141.475C179.949 141.62 179.931 141.707 179.895 141.734C179.858 141.762 179.776 141.775 179.648 141.775L175.889 141.721H173.154C173.391 143.781 173.783 145.544 174.33 147.012C174.768 146.355 175.214 145.535 175.67 144.551C175.916 143.895 176.094 143.316 176.203 142.814C177.014 143.051 177.766 143.339 178.459 143.676C178.687 143.794 178.801 143.926 178.801 144.072C178.801 144.182 178.719 144.323 178.555 144.496C178.409 144.633 178.222 144.911 177.994 145.33C177.201 146.98 176.381 148.37 175.533 149.5C176.308 150.676 176.996 151.264 177.598 151.264C177.953 151.264 178.231 151.022 178.432 150.539C178.587 150.165 178.751 149.509 178.924 148.57C179.307 148.935 179.771 149.245 180.318 149.5C180.801 149.728 181.043 149.942 181.043 150.143C181.043 150.243 180.997 150.448 180.906 150.758C180.523 152.025 180.063 152.918 179.525 153.438C179.033 153.911 178.418 154.148 177.68 154.148C176.322 154.148 175.009 153.292 173.742 151.578C172.977 152.335 172.266 152.945 171.609 153.41C171.245 153.656 171.021 153.779 170.939 153.779C170.83 153.779 170.625 153.602 170.324 153.246C169.987 152.882 169.677 152.585 169.395 152.357C169.376 152.449 169.276 152.494 169.094 152.494L166.715 152.439H164.076L161.697 152.494C161.551 152.494 161.465 152.476 161.438 152.439C161.41 152.403 161.396 152.316 161.396 152.18L161.451 150.402V148.543L161.396 146.752C161.396 146.606 161.415 146.52 161.451 146.492C161.488 146.465 161.57 146.451 161.697 146.451L164.076 146.506H166.715L169.08 146.451C169.235 146.451 169.326 146.469 169.354 146.506C169.381 146.542 169.395 146.624 169.395 146.752L169.34 148.543V150.402L169.367 151.934C170.507 151.25 171.536 150.421 172.457 149.445C171.564 147.604 170.898 145.029 170.461 141.721H160.494V143.594C160.494 145.79 160.326 147.668 159.988 149.227C159.569 151.113 158.945 152.745 158.115 154.121C157.906 154.495 157.737 154.682 157.609 154.682C157.527 154.682 157.331 154.54 157.021 154.258C156.447 153.738 155.85 153.337 155.23 153.055C156.224 151.688 156.894 150.202 157.24 148.598C157.596 147.103 157.773 145.12 157.773 142.65L157.719 139.588C157.719 139.46 157.742 139.383 157.787 139.355C157.824 139.328 157.915 139.314 158.061 139.314L161.834 139.369H170.215C170.014 137.592 169.9 136.639 169.873 136.512C170.73 136.539 171.673 136.603 172.703 136.703C172.986 136.74 173.127 136.844 173.127 137.018C173.127 137.118 173.077 137.286 172.977 137.523C172.94 137.66 172.922 137.883 172.922 138.193C172.922 138.285 172.931 138.676 172.949 139.369H175.643C175.223 138.84 174.795 138.357 174.357 137.92C174.266 137.847 174.221 137.76 174.221 137.66C174.221 137.551 174.294 137.46 174.439 137.387L175.725 136.566C175.852 136.493 175.952 136.457 176.025 136.457C176.107 136.457 176.203 136.503 176.312 136.594ZM167.043 150.484V148.434H163.721V150.484H167.043ZM172.389 156.582C172.899 156.91 173.574 157.193 174.412 157.43C174.722 157.521 174.909 157.594 174.973 157.648C175.055 157.712 175.096 157.817 175.096 157.963C175.096 158.027 175.082 158.173 175.055 158.4C174.863 159.758 174.353 160.674 173.523 161.148C172.694 161.595 170.862 161.818 168.027 161.818C165.521 161.818 163.908 161.632 163.188 161.258C162.495 160.866 162.148 160.055 162.148 158.824V156.363C162.148 155.488 162.103 154.777 162.012 154.23C163.042 154.23 163.962 154.285 164.773 154.395C165.111 154.458 165.279 154.545 165.279 154.654C165.279 154.782 165.234 154.941 165.143 155.133C165.033 155.379 164.979 155.712 164.979 156.131V157.922C164.979 158.496 165.124 158.874 165.416 159.057C165.753 159.221 166.697 159.303 168.246 159.303C169.531 159.303 170.32 159.289 170.611 159.262C171.058 159.225 171.409 159.134 171.664 158.988C172.12 158.751 172.361 157.949 172.389 156.582ZM169.477 142.979C169.613 142.979 169.695 142.997 169.723 143.033C169.75 143.079 169.764 143.174 169.764 143.32V144.934C169.764 145.143 169.668 145.248 169.477 145.248L166.961 145.193H164.104L161.615 145.248C161.469 145.248 161.378 145.23 161.342 145.193C161.314 145.157 161.301 145.07 161.301 144.934V143.32C161.301 143.156 161.324 143.056 161.369 143.02C161.396 142.992 161.479 142.979 161.615 142.979L164.104 143.033H166.961L169.477 142.979ZM177.16 154.367C178.445 155.771 179.548 157.329 180.469 159.043C180.523 159.161 180.551 159.243 180.551 159.289C180.551 159.371 180.446 159.476 180.236 159.604L178.5 160.67C178.309 160.788 178.181 160.848 178.117 160.848C178.053 160.848 177.994 160.779 177.939 160.643C177.146 158.783 176.148 157.17 174.945 155.803C174.845 155.702 174.795 155.625 174.795 155.57C174.795 155.497 174.891 155.406 175.082 155.297L176.572 154.34C176.755 154.249 176.864 154.203 176.9 154.203C176.955 154.203 177.042 154.258 177.16 154.367ZM158.539 154.9C158.594 154.736 158.662 154.654 158.744 154.654C158.799 154.654 158.917 154.691 159.1 154.764L160.74 155.488C160.977 155.598 161.096 155.702 161.096 155.803C161.096 155.839 161.082 155.903 161.055 155.994C160.353 157.79 159.4 159.471 158.197 161.039C158.106 161.158 158.024 161.217 157.951 161.217C157.887 161.217 157.783 161.176 157.637 161.094L155.873 160.109C155.691 160 155.6 159.9 155.6 159.809C155.6 159.754 155.636 159.676 155.709 159.576C156.894 158.245 157.837 156.687 158.539 154.9ZM168.506 153.191C169.399 153.921 170.279 154.846 171.145 155.967C171.227 156.067 171.268 156.14 171.268 156.186C171.268 156.24 171.195 156.318 171.049 156.418L169.6 157.539C169.436 157.667 169.312 157.73 169.23 157.73C169.158 157.73 169.085 157.667 169.012 157.539C168.374 156.591 167.558 155.62 166.564 154.627C166.464 154.518 166.414 154.445 166.414 154.408C166.414 154.354 166.505 154.258 166.688 154.121L167.918 153.219C168.055 153.118 168.164 153.068 168.246 153.068C168.31 153.068 168.396 153.109 168.506 153.191Z" fill="black"/>
<circle cx="425" cy="150" r="147" stroke="black" stroke-width="6"/>
<path d="M371.797 141.215L367.955 141.27C367.809 141.27 367.723 141.251 367.695 141.215C367.668 141.178 367.654 141.092 367.654 140.955V138.891C367.654 138.727 367.673 138.626 367.709 138.59C367.745 138.562 367.827 138.549 367.955 138.549L371.797 138.604H381.695L385.537 138.549C385.683 138.549 385.774 138.572 385.811 138.617C385.838 138.654 385.852 138.745 385.852 138.891V140.955C385.852 141.11 385.829 141.201 385.783 141.229C385.756 141.256 385.674 141.27 385.537 141.27L381.695 141.215H379.918V145.521H380.779L384.662 145.467C384.817 145.467 384.908 145.485 384.936 145.521C384.963 145.558 384.977 145.64 384.977 145.768L384.922 150.361V155.242L384.977 161.367C384.977 161.513 384.958 161.604 384.922 161.641C384.885 161.668 384.803 161.682 384.676 161.682H382.488C382.333 161.682 382.242 161.659 382.215 161.613C382.188 161.586 382.174 161.504 382.174 161.367V160.191H370.457V161.477C370.457 161.622 370.439 161.714 370.402 161.75C370.366 161.777 370.279 161.791 370.143 161.791H367.982C367.837 161.791 367.75 161.773 367.723 161.736C367.695 161.7 367.682 161.613 367.682 161.477L367.736 155.324V150.895L367.682 145.768C367.682 145.622 367.7 145.535 367.736 145.508C367.773 145.48 367.859 145.467 367.996 145.467L371.824 145.521H372.549V141.215H371.797ZM382.174 147.982H379.918V157.703H382.174V147.982ZM375.146 157.703H377.32V147.982H375.146V157.703ZM370.457 157.703H372.549V147.982H370.457V157.703ZM375.146 145.521H377.32V141.215H375.146V145.521ZM359.588 147.518C361.566 145.202 363.161 142.195 364.373 138.494C364.61 137.692 364.76 137.022 364.824 136.484C365.954 136.822 366.811 137.136 367.395 137.428C367.695 137.546 367.846 137.715 367.846 137.934C367.846 138.07 367.741 138.239 367.531 138.439C367.385 138.567 367.203 138.941 366.984 139.561C366.419 141.146 365.886 142.482 365.385 143.566V157.73L365.439 161.955C365.439 162.101 365.421 162.192 365.385 162.229C365.348 162.256 365.266 162.27 365.139 162.27H362.855C362.71 162.27 362.623 162.251 362.596 162.215C362.568 162.178 362.555 162.092 362.555 161.955L362.609 157.73V151.797C362.609 150.284 362.618 149.126 362.637 148.324C362.336 148.771 361.871 149.377 361.242 150.143C361.005 150.407 360.837 150.539 360.736 150.539C360.59 150.539 360.486 150.38 360.422 150.061C360.24 149.021 359.962 148.174 359.588 147.518ZM407.645 141.83L403.816 141.885C403.671 141.885 403.584 141.862 403.557 141.816C403.538 141.789 403.529 141.702 403.529 141.557V139.643C403.529 139.506 403.548 139.428 403.584 139.41C403.611 139.383 403.689 139.369 403.816 139.369L407.645 139.424H410.98L411.09 138.617C411.172 137.888 411.213 137.323 411.213 136.922C411.213 136.785 411.208 136.685 411.199 136.621C412.202 136.676 413.145 136.762 414.029 136.881C414.312 136.881 414.453 136.99 414.453 137.209C414.453 137.346 414.385 137.496 414.248 137.66C414.093 137.888 413.993 138.157 413.947 138.467C413.874 138.859 413.829 139.178 413.811 139.424H416.545L420.346 139.369C420.555 139.369 420.66 139.46 420.66 139.643V141.557C420.66 141.712 420.642 141.807 420.605 141.844C420.569 141.871 420.482 141.885 420.346 141.885L416.545 141.83H413.387C413.378 141.857 413.236 142.536 412.963 143.867H415.26L418.391 143.812C418.555 143.812 418.65 143.831 418.678 143.867C418.714 143.904 418.732 143.99 418.732 144.127L418.678 147.176V153.479L418.732 156.486C418.732 156.632 418.714 156.723 418.678 156.76C418.641 156.787 418.546 156.801 418.391 156.801L415.26 156.746H411.117L407.959 156.801C407.813 156.801 407.727 156.783 407.699 156.746C407.672 156.71 407.658 156.623 407.658 156.486L407.713 153.479V147.176L407.658 144.127C407.658 143.972 407.676 143.881 407.713 143.854C407.749 143.826 407.831 143.812 407.959 143.812L410.201 143.867C410.265 143.594 410.342 143.22 410.434 142.746C410.516 142.318 410.575 142.012 410.611 141.83H407.645ZM415.984 154.668V153.027H410.365V154.668H415.984ZM410.365 151.072H415.984V149.445H410.365V151.072ZM410.365 145.918V147.518H415.984V145.918H410.365ZM402.627 144.264C403.611 144.291 404.577 144.359 405.525 144.469C405.844 144.496 406.004 144.615 406.004 144.824C406.004 144.842 405.936 145.048 405.799 145.439C405.689 145.749 405.635 146.561 405.635 147.873V158.291H416.832L420.496 158.236C420.642 158.236 420.733 158.255 420.77 158.291C420.797 158.337 420.811 158.428 420.811 158.564V160.561C420.811 160.697 420.792 160.779 420.756 160.807C420.729 160.843 420.642 160.861 420.496 160.861L416.832 160.807H405.635V161.818C405.635 161.964 405.612 162.051 405.566 162.078C405.539 162.105 405.457 162.119 405.32 162.119H403.078C402.932 162.119 402.846 162.101 402.818 162.064C402.791 162.028 402.777 161.946 402.777 161.818L402.832 158.852V147.9C402.832 146.469 402.764 145.257 402.627 144.264ZM394.547 147.367C396.743 144.924 398.443 141.958 399.646 138.467C399.893 137.729 400.052 137.077 400.125 136.512C401.219 136.785 402.076 137.045 402.695 137.291C402.996 137.4 403.146 137.542 403.146 137.715C403.146 137.861 403.051 138.029 402.859 138.221C402.677 138.376 402.481 138.758 402.271 139.369C401.779 140.709 401.232 142.012 400.631 143.279V157.621L400.686 161.873C400.686 162.019 400.663 162.11 400.617 162.146C400.59 162.174 400.508 162.188 400.371 162.188H398.047C397.865 162.188 397.773 162.083 397.773 161.873L397.828 157.621V151.551C397.828 149.938 397.837 148.702 397.855 147.846C397.29 148.593 396.757 149.254 396.256 149.828C396.019 150.092 395.85 150.225 395.75 150.225C395.632 150.225 395.531 150.056 395.449 149.719C395.167 148.689 394.866 147.905 394.547 147.367ZM442.48 152.768L438.666 152.822C438.52 152.822 438.429 152.804 438.393 152.768C438.365 152.731 438.352 152.649 438.352 152.521V150.84C438.297 150.913 438.16 151.004 437.941 151.113C437.158 151.451 436.561 151.697 436.15 151.852V153.137L436.232 158.742C436.232 160.146 435.932 161.066 435.33 161.504C434.765 161.923 433.794 162.133 432.418 162.133C432.245 162.133 432.131 162.133 432.076 162.133C431.794 162.133 431.616 162.074 431.543 161.955C431.479 161.864 431.415 161.641 431.352 161.285C431.251 160.665 431.028 159.986 430.682 159.248C431.229 159.321 431.93 159.357 432.787 159.357C433.197 159.357 433.402 159.093 433.402 158.564V152.877L432.363 153.219C431.935 153.383 431.607 153.542 431.379 153.697C431.242 153.807 431.083 153.861 430.9 153.861C430.736 153.861 430.627 153.747 430.572 153.52C430.39 152.854 430.221 151.961 430.066 150.84C430.951 150.749 431.816 150.58 432.664 150.334L433.402 150.143V144.688H432.924L430.518 144.742C430.372 144.742 430.281 144.724 430.244 144.688C430.217 144.651 430.203 144.569 430.203 144.441V142.391C430.203 142.245 430.221 142.158 430.258 142.131C430.294 142.104 430.381 142.09 430.518 142.09L432.924 142.145H433.402V140.736C433.402 139.232 433.325 137.906 433.17 136.758C434.218 136.794 435.175 136.863 436.041 136.963C436.342 136.99 436.492 137.09 436.492 137.264C436.492 137.355 436.424 137.551 436.287 137.852C436.196 138.079 436.15 139.023 436.15 140.682V142.145L437.709 142.09C437.864 142.09 437.955 142.108 437.982 142.145C438.01 142.181 438.023 142.263 438.023 142.391V144.441C438.023 144.587 438.005 144.674 437.969 144.701C437.932 144.729 437.846 144.742 437.709 144.742C437.673 144.742 437.499 144.738 437.189 144.729C436.861 144.71 436.515 144.697 436.15 144.688V149.158C437.071 148.803 437.891 148.461 438.611 148.133C438.52 148.652 438.475 149.322 438.475 150.143V150.334C438.511 150.316 438.575 150.307 438.666 150.307L442.48 150.361H445.215V149.883C445.215 148.671 445.151 147.75 445.023 147.121C445.862 147.148 446.728 147.203 447.621 147.285C447.384 146.957 447.266 146.483 447.266 145.863V143.99C447.266 142.66 447.206 141.671 447.088 141.023C447.844 141.023 448.688 141.069 449.617 141.16C449.936 141.188 450.096 141.288 450.096 141.461C450.096 141.579 450.036 141.748 449.918 141.967C449.845 142.104 449.809 142.618 449.809 143.512V144.66C449.809 145.107 449.854 145.367 449.945 145.439C450.064 145.549 450.456 145.604 451.121 145.604C451.85 145.604 452.32 145.503 452.529 145.303C452.785 145.048 452.921 144.478 452.939 143.594C453.404 143.885 453.974 144.1 454.648 144.236C454.949 144.309 455.141 144.373 455.223 144.428C455.305 144.492 455.346 144.596 455.346 144.742C455.346 144.824 455.327 144.975 455.291 145.193C455.145 146.187 454.822 146.902 454.32 147.34C453.801 147.805 452.698 148.037 451.012 148.037C449.562 148.037 448.637 147.946 448.236 147.764C448.218 147.873 448.163 148.005 448.072 148.16C447.981 148.361 447.936 148.835 447.936 149.582V150.361H451.326L455.154 150.307C455.3 150.307 455.391 150.325 455.428 150.361C455.455 150.398 455.469 150.484 455.469 150.621V152.521C455.469 152.658 455.451 152.745 455.414 152.781C455.387 152.809 455.3 152.822 455.154 152.822L451.326 152.768H449.057C450.761 154.928 453.158 156.646 456.248 157.922C455.583 158.688 455.118 159.353 454.854 159.918C454.635 160.346 454.448 160.561 454.293 160.561C454.193 160.561 453.969 160.456 453.623 160.246C451.126 158.733 449.212 156.896 447.881 154.736L447.99 161.9C447.99 162.092 447.885 162.188 447.676 162.188H445.475C445.265 162.188 445.16 162.092 445.16 161.9C445.16 161.745 445.178 160.775 445.215 158.988C445.242 157.348 445.26 155.921 445.27 154.709C443.857 156.887 441.861 158.742 439.281 160.273C438.99 160.465 438.785 160.561 438.666 160.561C438.538 160.561 438.352 160.346 438.105 159.918C437.704 159.243 437.294 158.683 436.875 158.236C439.883 156.896 442.207 155.074 443.848 152.768H442.48ZM451.053 137.742L454.895 137.688C455.04 137.688 455.132 137.706 455.168 137.742C455.195 137.779 455.209 137.865 455.209 138.002L455.141 139.137V140.039L455.209 142.582C455.209 142.746 455.186 142.846 455.141 142.883C455.113 142.91 455.031 142.924 454.895 142.924H452.939C452.785 142.924 452.693 142.901 452.666 142.855C452.639 142.819 452.625 142.728 452.625 142.582V140.094H441.373V142.582C441.373 142.746 441.35 142.846 441.305 142.883C441.268 142.91 441.177 142.924 441.031 142.924H439.076C438.949 142.924 438.867 142.901 438.83 142.855C438.812 142.819 438.803 142.728 438.803 142.582L438.857 140.039V139.342L438.803 138.002C438.803 137.792 438.894 137.688 439.076 137.688L442.904 137.742H451.053ZM443.219 140.982C444.467 141.229 445.311 141.415 445.748 141.543C446.012 141.616 446.145 141.73 446.145 141.885C446.145 142.031 446.085 142.172 445.967 142.309C445.775 142.564 445.63 142.896 445.529 143.307C444.91 145.549 443.533 147.299 441.4 148.557C441.081 148.739 440.849 148.83 440.703 148.83C440.548 148.83 440.361 148.652 440.143 148.297C439.824 147.786 439.372 147.29 438.789 146.807C440.94 145.977 442.312 144.633 442.904 142.773C443.077 142.254 443.182 141.657 443.219 140.982ZM469.564 144.387L465.982 144.441C465.855 144.441 465.777 144.428 465.75 144.4C465.723 144.373 465.709 144.286 465.709 144.141V141.939C465.709 141.775 465.723 141.68 465.75 141.652C465.777 141.625 465.855 141.611 465.982 141.611L469.564 141.666H476.4V139.957C476.4 138.435 476.337 137.305 476.209 136.566C477.376 136.603 478.392 136.671 479.258 136.771C479.522 136.79 479.654 136.89 479.654 137.072C479.654 137.273 479.609 137.514 479.518 137.797C479.417 138.107 479.367 138.809 479.367 139.902V141.666H486.094L489.676 141.611C489.822 141.611 489.908 141.634 489.936 141.68C489.963 141.716 489.977 141.803 489.977 141.939V144.141C489.977 144.286 489.958 144.373 489.922 144.4C489.885 144.428 489.803 144.441 489.676 144.441L486.094 144.387H479.627C480.165 146.201 480.939 147.896 481.951 149.473C483.118 148.452 484.134 147.426 485 146.396C485.355 145.986 485.652 145.54 485.889 145.057C486.809 145.631 487.538 146.16 488.076 146.643C488.304 146.852 488.418 147.039 488.418 147.203C488.418 147.376 488.286 147.527 488.021 147.654C487.657 147.837 487.183 148.219 486.6 148.803C485.706 149.723 484.658 150.658 483.455 151.605C485.314 153.875 487.725 155.766 490.688 157.279C490.122 157.844 489.617 158.519 489.17 159.303C488.924 159.731 488.746 159.945 488.637 159.945C488.564 159.945 488.35 159.831 487.994 159.604C483.719 156.869 480.798 153.173 479.23 148.516C479.358 154.076 479.422 157.503 479.422 158.797C479.422 160.073 479.066 160.925 478.355 161.354C477.736 161.736 476.451 161.941 474.5 161.969C474.382 161.969 474.281 161.969 474.199 161.969C473.926 161.969 473.748 161.91 473.666 161.791C473.62 161.727 473.543 161.504 473.434 161.121C473.133 160.146 472.786 159.426 472.395 158.961C473.397 159.061 474.126 159.111 474.582 159.111C475.375 159.111 475.881 159.034 476.1 158.879C476.3 158.742 476.4 158.464 476.4 158.045V144.387H469.564ZM474.924 151.182C474.951 151.747 475.042 152.408 475.197 153.164C475.27 153.501 475.307 153.72 475.307 153.82C475.307 154.003 475.102 154.253 474.691 154.572C472.723 156.031 470.69 157.343 468.594 158.51C468.366 158.637 468.097 158.824 467.787 159.07C467.623 159.262 467.473 159.357 467.336 159.357C467.172 159.357 467.031 159.234 466.912 158.988C466.475 158.204 466.074 157.357 465.709 156.445C466.32 156.263 467.076 155.953 467.979 155.516C470.403 154.285 472.718 152.84 474.924 151.182ZM469.934 145.357C471.319 146.296 472.609 147.445 473.803 148.803C473.912 148.912 473.967 149.003 473.967 149.076C473.967 149.122 473.912 149.217 473.803 149.363L472.258 150.922C472.085 151.104 471.966 151.195 471.902 151.195C471.848 151.195 471.779 151.145 471.697 151.045C470.64 149.66 469.4 148.434 467.979 147.367C467.851 147.267 467.787 147.194 467.787 147.148C467.787 147.094 467.869 146.98 468.033 146.807L469.373 145.467C469.519 145.321 469.628 145.248 469.701 145.248C469.756 145.248 469.833 145.285 469.934 145.357ZM484.016 136.812C484.918 137.396 485.952 138.294 487.119 139.506C487.201 139.57 487.242 139.633 487.242 139.697C487.242 139.798 487.146 139.921 486.955 140.066L485.615 141.188C485.451 141.315 485.342 141.379 485.287 141.379C485.214 141.379 485.118 141.306 485 141.16C484.253 140.221 483.264 139.287 482.033 138.357C481.924 138.275 481.869 138.212 481.869 138.166C481.869 138.111 481.951 138.016 482.115 137.879L483.373 136.812C483.492 136.721 483.592 136.676 483.674 136.676C483.738 136.676 483.852 136.721 484.016 136.812Z" fill="black"/>
<circle cx="700" cy="150" r="147" stroke="black" stroke-width="6"/>
<path d="M646.797 141.215L642.955 141.27C642.809 141.27 642.723 141.251 642.695 141.215C642.668 141.178 642.654 141.092 642.654 140.955V138.891C642.654 138.727 642.673 138.626 642.709 138.59C642.745 138.562 642.827 138.549 642.955 138.549L646.797 138.604H656.695L660.537 138.549C660.683 138.549 660.774 138.572 660.811 138.617C660.838 138.654 660.852 138.745 660.852 138.891V140.955C660.852 141.11 660.829 141.201 660.783 141.229C660.756 141.256 660.674 141.27 660.537 141.27L656.695 141.215H654.918V145.521H655.779L659.662 145.467C659.817 145.467 659.908 145.485 659.936 145.521C659.963 145.558 659.977 145.64 659.977 145.768L659.922 150.361V155.242L659.977 161.367C659.977 161.513 659.958 161.604 659.922 161.641C659.885 161.668 659.803 161.682 659.676 161.682H657.488C657.333 161.682 657.242 161.659 657.215 161.613C657.188 161.586 657.174 161.504 657.174 161.367V160.191H645.457V161.477C645.457 161.622 645.439 161.714 645.402 161.75C645.366 161.777 645.279 161.791 645.143 161.791H642.982C642.837 161.791 642.75 161.773 642.723 161.736C642.695 161.7 642.682 161.613 642.682 161.477L642.736 155.324V150.895L642.682 145.768C642.682 145.622 642.7 145.535 642.736 145.508C642.773 145.48 642.859 145.467 642.996 145.467L646.824 145.521H647.549V141.215H646.797ZM657.174 147.982H654.918V157.703H657.174V147.982ZM650.146 157.703H652.32V147.982H650.146V157.703ZM645.457 157.703H647.549V147.982H645.457V157.703ZM650.146 145.521H652.32V141.215H650.146V145.521ZM634.588 147.518C636.566 145.202 638.161 142.195 639.373 138.494C639.61 137.692 639.76 137.022 639.824 136.484C640.954 136.822 641.811 137.136 642.395 137.428C642.695 137.546 642.846 137.715 642.846 137.934C642.846 138.07 642.741 138.239 642.531 138.439C642.385 138.567 642.203 138.941 641.984 139.561C641.419 141.146 640.886 142.482 640.385 143.566V157.73L640.439 161.955C640.439 162.101 640.421 162.192 640.385 162.229C640.348 162.256 640.266 162.27 640.139 162.27H637.855C637.71 162.27 637.623 162.251 637.596 162.215C637.568 162.178 637.555 162.092 637.555 161.955L637.609 157.73V151.797C637.609 150.284 637.618 149.126 637.637 148.324C637.336 148.771 636.871 149.377 636.242 150.143C636.005 150.407 635.837 150.539 635.736 150.539C635.59 150.539 635.486 150.38 635.422 150.061C635.24 149.021 634.962 148.174 634.588 147.518ZM682.645 141.83L678.816 141.885C678.671 141.885 678.584 141.862 678.557 141.816C678.538 141.789 678.529 141.702 678.529 141.557V139.643C678.529 139.506 678.548 139.428 678.584 139.41C678.611 139.383 678.689 139.369 678.816 139.369L682.645 139.424H685.98L686.09 138.617C686.172 137.888 686.213 137.323 686.213 136.922C686.213 136.785 686.208 136.685 686.199 136.621C687.202 136.676 688.145 136.762 689.029 136.881C689.312 136.881 689.453 136.99 689.453 137.209C689.453 137.346 689.385 137.496 689.248 137.66C689.093 137.888 688.993 138.157 688.947 138.467C688.874 138.859 688.829 139.178 688.811 139.424H691.545L695.346 139.369C695.555 139.369 695.66 139.46 695.66 139.643V141.557C695.66 141.712 695.642 141.807 695.605 141.844C695.569 141.871 695.482 141.885 695.346 141.885L691.545 141.83H688.387C688.378 141.857 688.236 142.536 687.963 143.867H690.26L693.391 143.812C693.555 143.812 693.65 143.831 693.678 143.867C693.714 143.904 693.732 143.99 693.732 144.127L693.678 147.176V153.479L693.732 156.486C693.732 156.632 693.714 156.723 693.678 156.76C693.641 156.787 693.546 156.801 693.391 156.801L690.26 156.746H686.117L682.959 156.801C682.813 156.801 682.727 156.783 682.699 156.746C682.672 156.71 682.658 156.623 682.658 156.486L682.713 153.479V147.176L682.658 144.127C682.658 143.972 682.676 143.881 682.713 143.854C682.749 143.826 682.831 143.812 682.959 143.812L685.201 143.867C685.265 143.594 685.342 143.22 685.434 142.746C685.516 142.318 685.575 142.012 685.611 141.83H682.645ZM690.984 154.668V153.027H685.365V154.668H690.984ZM685.365 151.072H690.984V149.445H685.365V151.072ZM685.365 145.918V147.518H690.984V145.918H685.365ZM677.627 144.264C678.611 144.291 679.577 144.359 680.525 144.469C680.844 144.496 681.004 144.615 681.004 144.824C681.004 144.842 680.936 145.048 680.799 145.439C680.689 145.749 680.635 146.561 680.635 147.873V158.291H691.832L695.496 158.236C695.642 158.236 695.733 158.255 695.77 158.291C695.797 158.337 695.811 158.428 695.811 158.564V160.561C695.811 160.697 695.792 160.779 695.756 160.807C695.729 160.843 695.642 160.861 695.496 160.861L691.832 160.807H680.635V161.818C680.635 161.964 680.612 162.051 680.566 162.078C680.539 162.105 680.457 162.119 680.32 162.119H678.078C677.932 162.119 677.846 162.101 677.818 162.064C677.791 162.028 677.777 161.946 677.777 161.818L677.832 158.852V147.9C677.832 146.469 677.764 145.257 677.627 144.264ZM669.547 147.367C671.743 144.924 673.443 141.958 674.646 138.467C674.893 137.729 675.052 137.077 675.125 136.512C676.219 136.785 677.076 137.045 677.695 137.291C677.996 137.4 678.146 137.542 678.146 137.715C678.146 137.861 678.051 138.029 677.859 138.221C677.677 138.376 677.481 138.758 677.271 139.369C676.779 140.709 676.232 142.012 675.631 143.279V157.621L675.686 161.873C675.686 162.019 675.663 162.11 675.617 162.146C675.59 162.174 675.508 162.188 675.371 162.188H673.047C672.865 162.188 672.773 162.083 672.773 161.873L672.828 157.621V151.551C672.828 149.938 672.837 148.702 672.855 147.846C672.29 148.593 671.757 149.254 671.256 149.828C671.019 150.092 670.85 150.225 670.75 150.225C670.632 150.225 670.531 150.056 670.449 149.719C670.167 148.689 669.866 147.905 669.547 147.367ZM704.82 159.07C705.905 157.548 706.661 155.935 707.09 154.23C707.5 152.708 707.705 150.799 707.705 148.502L707.678 145.344C707.678 145.143 707.769 145.043 707.951 145.043L711.178 145.098H715.717L718.902 145.043C719.048 145.043 719.139 145.061 719.176 145.098C719.203 145.134 719.217 145.216 719.217 145.344L719.162 147.627V150.648L719.217 152.891C719.217 153.036 719.194 153.123 719.148 153.15C719.121 153.178 719.039 153.191 718.902 153.191L715.717 153.137H710.029C709.838 154.349 709.633 155.365 709.414 156.186C709.049 157.562 708.407 159.038 707.486 160.615C707.286 160.952 707.126 161.121 707.008 161.121C706.917 161.121 706.73 160.952 706.447 160.615C705.919 159.95 705.376 159.435 704.82 159.07ZM716.551 151.154V150.033H710.33L710.248 151.154H716.551ZM716.551 147.053H710.371V148.16H716.551V147.053ZM722.539 158.715C723.478 158.806 724.485 158.852 725.561 158.852C726.053 158.852 726.385 158.765 726.559 158.592C726.723 158.428 726.805 158.141 726.805 157.73V140.928C726.805 139.26 726.727 137.924 726.572 136.922C727.675 136.958 728.669 137.027 729.553 137.127C729.835 137.154 729.977 137.255 729.977 137.428C729.977 137.51 729.926 137.715 729.826 138.043C729.717 138.271 729.662 139.214 729.662 140.873V152.727L729.717 158.291C729.717 159.066 729.639 159.654 729.484 160.055C729.329 160.456 729.07 160.784 728.705 161.039C728.268 161.322 727.748 161.508 727.146 161.6C726.554 161.691 725.665 161.736 724.48 161.736C724.043 161.736 723.779 161.686 723.688 161.586C723.615 161.504 723.533 161.253 723.441 160.834C723.223 159.932 722.922 159.225 722.539 158.715ZM712.203 136.402C713.069 136.53 713.93 136.689 714.787 136.881C715.033 136.936 715.156 137.054 715.156 137.236C715.156 137.373 715.056 137.496 714.855 137.605C715.794 138.654 716.788 139.506 717.836 140.162C718.602 140.654 719.636 141.183 720.939 141.748C720.557 142.268 720.247 142.865 720.01 143.539C719.855 143.986 719.718 144.209 719.6 144.209C719.49 144.209 719.281 144.127 718.971 143.963C718.141 143.516 717.357 143.01 716.619 142.445V143.785C716.619 143.94 716.601 144.031 716.564 144.059C716.528 144.086 716.446 144.1 716.318 144.1L714.418 144.045H712.791L710.891 144.1C710.727 144.1 710.626 144.081 710.59 144.045C710.562 144.008 710.549 143.922 710.549 143.785V142.609C709.318 143.694 708.133 144.555 706.994 145.193C706.648 145.376 706.434 145.467 706.352 145.467C706.233 145.467 706.074 145.253 705.873 144.824C705.6 144.159 705.253 143.571 704.834 143.061C707.623 141.775 709.806 140.039 711.383 137.852C711.766 137.332 712.039 136.849 712.203 136.402ZM711.273 141.939C711.465 141.958 711.971 141.967 712.791 141.967H714.418C715.293 141.967 715.812 141.958 715.977 141.939C715.12 141.238 714.29 140.39 713.488 139.396C712.741 140.39 712.003 141.238 711.273 141.939ZM719.777 161.654C719.777 161.846 719.668 161.941 719.449 161.941H717.357C717.148 161.941 717.043 161.846 717.043 161.654V161.012H712.504V161.846C712.504 162.001 712.486 162.092 712.449 162.119C712.413 162.146 712.331 162.16 712.203 162.16H710.18C710.043 162.16 709.956 162.142 709.92 162.105C709.902 162.069 709.893 161.982 709.893 161.846L709.934 158.537V156.938L709.893 154.873C709.893 154.718 709.911 154.627 709.947 154.6C709.984 154.572 710.066 154.559 710.193 154.559L713.119 154.613H716.51L719.463 154.559C719.609 154.559 719.7 154.577 719.736 154.613C719.764 154.65 719.777 154.736 719.777 154.873L719.709 156.609V158.373L719.777 161.654ZM717.043 156.664H712.504V158.961H717.043V156.664ZM724.576 139.479C724.576 139.497 724.521 139.702 724.412 140.094C724.357 140.358 724.33 141.356 724.33 143.088V150.812L724.357 154.518C724.357 154.663 724.339 154.755 724.303 154.791C724.275 154.827 724.198 154.846 724.07 154.846H721.773C721.637 154.846 721.555 154.827 721.527 154.791C721.509 154.745 721.5 154.654 721.5 154.518L721.555 150.812V143.115C721.555 141.229 721.486 139.848 721.35 138.973C722.352 139 723.305 139.064 724.207 139.164C724.453 139.191 724.576 139.296 724.576 139.479ZM766.385 158.264C766.011 158.838 765.76 159.558 765.633 160.424C765.56 160.889 765.473 161.158 765.373 161.23C765.282 161.303 765.022 161.349 764.594 161.367C761.559 161.54 758.273 161.627 754.736 161.627C751.628 161.627 749.445 161.367 748.188 160.848C747.076 160.383 746.16 159.549 745.439 158.346C744.51 159.248 743.566 160.073 742.609 160.82C742.345 161.03 742.158 161.212 742.049 161.367C741.93 161.54 741.794 161.627 741.639 161.627C741.484 161.627 741.352 161.513 741.242 161.285C740.941 160.729 740.559 159.854 740.094 158.66C740.777 158.341 741.329 158.049 741.748 157.785C742.413 157.375 743.188 156.778 744.072 155.994V149.773H742.732L740.709 149.842C740.545 149.842 740.449 149.819 740.422 149.773C740.385 149.737 740.367 149.646 740.367 149.5V147.367C740.367 147.221 740.39 147.135 740.436 147.107C740.472 147.08 740.563 147.066 740.709 147.066L742.732 147.121H744.455L746.561 147.066C746.706 147.066 746.798 147.085 746.834 147.121C746.861 147.158 746.875 147.24 746.875 147.367L746.82 150.033V155.967C747.413 157.124 748.178 157.899 749.117 158.291C750.047 158.665 751.774 158.852 754.299 158.852C758.464 158.852 762.493 158.656 766.385 158.264ZM752.016 147.818L748.215 147.873C748.051 147.873 747.955 147.855 747.928 147.818C747.891 147.791 747.873 147.718 747.873 147.6V145.631C747.873 145.485 747.896 145.398 747.941 145.371C747.978 145.344 748.069 145.33 748.215 145.33L752.016 145.385H755.133V142.582H751.551C751.259 143.083 750.885 143.662 750.43 144.318C750.138 144.692 749.942 144.879 749.842 144.879C749.714 144.879 749.509 144.747 749.227 144.482C748.698 144.045 748.137 143.703 747.545 143.457C748.666 142.217 749.6 140.741 750.348 139.027C750.585 138.398 750.74 137.811 750.812 137.264C751.505 137.4 752.33 137.642 753.287 137.988C753.57 138.098 753.711 138.221 753.711 138.357C753.711 138.467 753.633 138.594 753.479 138.74C753.314 138.913 753.128 139.242 752.918 139.725L752.754 140.148H755.133V139.643C755.133 138.467 755.064 137.478 754.928 136.676C755.903 136.676 756.86 136.721 757.799 136.812C758.081 136.849 758.223 136.954 758.223 137.127C758.223 137.273 758.173 137.428 758.072 137.592C757.963 137.82 757.908 138.458 757.908 139.506V140.148H760.15L763.596 140.094C763.742 140.094 763.828 140.117 763.855 140.162C763.883 140.199 763.896 140.285 763.896 140.422V142.336C763.896 142.482 763.878 142.568 763.842 142.596C763.805 142.623 763.723 142.637 763.596 142.637L760.15 142.582H757.908V145.385H761.203L765.045 145.33C765.209 145.33 765.305 145.348 765.332 145.385C765.368 145.421 765.387 145.503 765.387 145.631V147.6C765.387 147.727 765.364 147.805 765.318 147.832C765.282 147.859 765.191 147.873 765.045 147.873L761.203 147.818H752.016ZM759.385 149.555L762.885 149.5C763.031 149.5 763.122 149.518 763.158 149.555C763.186 149.591 763.199 149.678 763.199 149.814L763.145 151.961V154.654L763.199 156.814C763.199 156.951 763.181 157.038 763.145 157.074C763.117 157.102 763.031 157.115 762.885 157.115L759.385 157.061H753.848L750.307 157.115C750.161 157.115 750.074 157.097 750.047 157.061C750.02 157.024 750.006 156.942 750.006 156.814L750.061 154.654V151.961L750.006 149.814C750.006 149.66 750.024 149.568 750.061 149.541C750.097 149.514 750.179 149.5 750.307 149.5L753.848 149.555H759.385ZM760.314 154.654V151.934H752.836V154.654H760.314ZM743.361 137.51C744.747 138.831 745.913 140.217 746.861 141.666C746.943 141.757 746.984 141.83 746.984 141.885C746.984 141.958 746.889 142.072 746.697 142.227L745.125 143.457C744.97 143.585 744.861 143.648 744.797 143.648C744.715 143.648 744.628 143.576 744.537 143.43C743.489 141.725 742.345 140.276 741.105 139.082C741.023 138.991 740.982 138.918 740.982 138.863C740.982 138.799 741.069 138.704 741.242 138.576L742.746 137.51C742.892 137.4 743.006 137.346 743.088 137.346C743.161 137.346 743.252 137.4 743.361 137.51Z" fill="black"/>
</svg>
