<svg width="40" height="40" viewBox="0 0 40 40" fill="none" xmlns="http://www.w3.org/2000/svg">
<path d="M20 29C18.625 29 17.3125 29.3438 16.0625 30.0312C15.375 29.2812 15.0312 28.9062 15.0312 28.9062C14.9688 28.8438 14.625 28.4688 14 27.7812C15.75 26.5938 17.75 26 20 26C22.125 26 24.125 26.5938 26 27.7812C25.875 27.8438 25.5 28.2188 24.875 28.9062C24.3125 29.5312 24 29.9062 23.9375 30.0312C22.75 29.3438 21.4375 29 20 29ZM8.65625 31.3438C11.8438 34.4688 15.625 36.0312 20 36.0312C24.375 36.0312 28.125 34.4688 31.25 31.3438C34.4375 28.1562 36.0312 24.375 36.0312 20C36.0312 15.625 34.4375 11.875 31.25 8.75C28.125 5.5625 24.375 3.96875 20 3.96875C15.625 3.96875 11.8438 5.5625 8.65625 8.75C5.53125 11.875 3.96875 15.625 3.96875 20C3.96875 24.375 5.53125 28.1562 8.65625 31.3438ZM5.84375 5.9375C9.78125 2 14.5 0.03125 20 0.03125C25.5 0.03125 30.1875 2 34.0625 5.9375C38 9.8125 39.9688 14.5 39.9688 20C39.9688 25.5 38 30.2188 34.0625 34.1562C30.1875 38.0312 25.5 39.9688 20 39.9688C14.5 39.9688 9.78125 38.0312 5.84375 34.1562C1.96875 30.2188 0.03125 25.5 0.03125 20C0.03125 14.5 1.96875 9.8125 5.84375 5.9375ZM10.8125 17.1875C10.25 16.5625 9.96875 15.8438 9.96875 15.0312C9.96875 14.2188 10.25 13.5312 10.8125 12.9688C11.4375 12.3438 12.1562 12.0312 12.9688 12.0312C13.7812 12.0312 14.4688 12.3438 15.0312 12.9688C15.6562 13.5312 15.9688 14.2188 15.9688 15.0312C15.9688 15.8438 15.6562 16.5625 15.0312 17.1875C14.4688 17.75 13.7812 18.0312 12.9688 18.0312C12.1562 18.0312 11.4375 17.75 10.8125 17.1875ZM24.875 17.1875C24.3125 16.5625 24.0312 15.8438 24.0312 15.0312C24.0312 14.2188 24.3125 13.5312 24.875 12.9688C25.5 12.3438 26.2188 12.0312 27.0312 12.0312C27.8438 12.0312 28.5312 12.3438 29.0938 12.9688C29.7188 13.5312 30.0312 14.2188 30.0312 15.0312C30.0312 15.8438 29.7188 16.5625 29.0938 17.1875C28.5312 17.75 27.8438 18.0312 27.0312 18.0312C26.2188 18.0312 25.5 17.75 24.875 17.1875Z" fill="black"/>
</svg>
