<svg width="498" height="78" viewBox="0 0 498 78" fill="none" xmlns="http://www.w3.org/2000/svg">
<mask id="path-1-inside-1_1351_2348" fill="white">
<path fill-rule="evenodd" clip-rule="evenodd" d="M151.6 0H0V77.4836H151.6L162.875 38.7418L151.6 0Z"/>
</mask>
<path fill-rule="evenodd" clip-rule="evenodd" d="M151.6 0H0V77.4836H151.6L162.875 38.7418L151.6 0Z" fill="white"/>
<path d="M0 0V-4H-4V0H0ZM151.6 0L155.441 -1.11769L154.602 -4H151.6V0ZM0 77.4836H-4V81.4836H0V77.4836ZM151.6 77.4836V81.4836H154.602L155.441 78.6013L151.6 77.4836ZM162.875 38.7418L166.716 39.8595L167.041 38.7418L166.716 37.6241L162.875 38.7418ZM0 4H151.6V-4H0V4ZM4 77.4836V0H-4V77.4836H4ZM151.6 73.4836H0V81.4836H151.6V73.4836ZM159.034 37.6241L147.76 76.3659L155.441 78.6013L166.716 39.8595L159.034 37.6241ZM147.76 1.11769L159.034 39.8595L166.716 37.6241L155.441 -1.11769L147.76 1.11769Z" fill="black" mask="url(#path-1-inside-1_1351_2348)"/>
<path d="M60.1264 43.3197C62.2882 42.255 63.9525 40.6901 65.1194 38.6251C66.1143 36.8559 66.6628 34.8581 66.765 32.6318H64.7161L63.0706 32.6641C62.9738 32.6641 62.9147 32.6534 62.8931 32.6318C62.877 32.6103 62.8689 32.5619 62.8689 32.4867V31.0912C62.8689 31.0051 62.8824 30.9541 62.9093 30.9379C62.9308 30.9218 62.9846 30.9137 63.0706 30.9137L64.7161 30.946H66.8295L68.4831 30.9137C68.6283 30.9137 68.7009 30.9783 68.7009 31.1073C68.6901 31.2579 68.6847 31.4004 68.6847 31.5348C68.6847 31.879 68.7224 32.3495 68.7977 32.9464C69.3193 37.4797 71.4622 40.8837 75.2265 43.1584C74.8125 43.5456 74.4871 43.9623 74.2505 44.4087C74.1214 44.6614 74.022 44.7878 73.952 44.7878C73.8983 44.7878 73.7719 44.7152 73.5729 44.57C70.6207 42.3975 68.7331 39.6684 67.9104 36.3827C67.4318 38.1949 66.609 39.8485 65.4421 41.3435C64.4257 42.6556 63.2212 43.7418 61.8284 44.6022C61.6025 44.7367 61.4762 44.8039 61.4493 44.8039C61.3847 44.8039 61.2691 44.6722 61.1024 44.4087C60.8443 43.9785 60.519 43.6155 60.1264 43.3197ZM88.4875 35.3583H84.3092C84.1801 36.9339 83.9059 38.2621 83.4864 39.343C82.9917 40.6175 82.2926 41.7145 81.3892 42.6341C80.6256 43.4138 79.6603 44.1183 78.4934 44.7474C78.2568 44.8442 78.125 44.8926 78.0981 44.8926C78.0067 44.8926 77.875 44.777 77.7029 44.5458C77.3695 44.1102 77.0226 43.7902 76.6623 43.5859C79.3296 42.4243 81.0423 40.7896 81.8006 38.6816C82.1609 37.6814 82.3921 36.5736 82.4943 35.3583H79.913L77.7029 35.3905C77.6061 35.3905 77.5496 35.3798 77.5335 35.3583C77.512 35.3367 77.5012 35.2857 77.5012 35.205V33.8499C77.5012 33.7638 77.5147 33.7127 77.5416 33.6966C77.5631 33.6805 77.6168 33.6724 77.7029 33.6724L79.913 33.7047H82.5749L82.5911 32.2689C82.5911 31.4353 82.5427 30.7013 82.4459 30.0668C83.3063 30.1152 83.9543 30.177 84.3899 30.2523C84.6103 30.2792 84.7206 30.3571 84.7206 30.4862C84.7206 30.6045 84.6722 30.7416 84.5754 30.8976C84.4893 31.1073 84.4463 31.5752 84.4463 32.3011C84.4463 32.9195 84.4409 33.3874 84.4302 33.7047H87.8987L90.1573 33.6724C90.2917 33.6724 90.3589 33.7396 90.3589 33.8741C90.3374 34.2021 90.3267 34.6968 90.3267 35.3583C90.289 38.5686 90.1169 40.9859 89.8104 42.6099C89.6545 43.4434 89.3345 44.0242 88.8505 44.3522C88.4364 44.6372 87.8369 44.7824 87.0517 44.7878C86.9549 44.7931 86.8501 44.7958 86.7371 44.7958C86.3607 44.7958 85.9386 44.7716 85.4707 44.7232C85.2019 44.7017 85.0432 44.6587 84.9948 44.5942C84.9518 44.5404 84.9061 44.3871 84.8577 44.1344C84.7394 43.5859 84.5781 43.1503 84.3737 42.8277C85.218 42.9675 86.0461 43.0374 86.8581 43.0374C87.5196 43.0374 87.9202 42.669 88.06 41.9323C88.345 40.3137 88.4875 38.1223 88.4875 35.3583Z" fill="black"/>
<mask id="path-4-inside-2_1351_2348" fill="white">
<path fill-rule="evenodd" clip-rule="evenodd" d="M173.199 0.516357H324.8L324.8 0.516466L336.074 39.2583L324.8 77.9999H173.199L184.474 39.2583L173.199 0.516541L173.199 77.9999V0.516357Z"/>
</mask>
<path fill-rule="evenodd" clip-rule="evenodd" d="M173.199 0.516357H324.8L324.8 0.516466L336.074 39.2583L324.8 77.9999H173.199L184.474 39.2583L173.199 0.516541L173.199 77.9999V0.516357Z" fill="white"/>
<path d="M324.8 0.516357L328.761 1.07072L329.398 -3.48364L324.8 -3.48364V0.516357ZM173.199 0.516357V-3.48364H169.199V0.516357H173.199ZM324.8 0.516466L320.838 -0.0378992L320.719 0.811067L320.959 1.63416L324.8 0.516466ZM336.074 39.2583L339.915 40.376L340.24 39.2583L339.915 38.1406L336.074 39.2583ZM324.8 77.9999V81.9999H327.802L328.64 79.1176L324.8 77.9999ZM173.199 77.9999L169.359 76.8822L167.869 81.9999H173.199V77.9999ZM184.474 39.2583L188.314 40.376L188.64 39.2583L188.314 38.1406L184.474 39.2583ZM173.199 0.516541L177.04 -0.601152L169.199 0.516539L173.199 0.516541ZM324.8 -3.48364H173.199V4.51636H324.8V-3.48364ZM328.761 1.07083L328.761 1.07072L320.838 -0.0380082L320.838 -0.0378992L328.761 1.07083ZM320.959 1.63416L332.233 40.376L339.915 38.1406L328.64 -0.601227L320.959 1.63416ZM332.233 38.1406L320.959 76.8822L328.64 79.1176L339.915 40.376L332.233 38.1406ZM173.199 81.9999H324.8V73.9999H173.199V81.9999ZM180.633 38.1406L169.359 76.8822L177.04 79.1176L188.314 40.376L180.633 38.1406ZM169.359 1.63423L180.633 40.376L188.314 38.1406L177.04 -0.601152L169.359 1.63423ZM177.199 77.9999L177.199 0.516543L169.199 0.516539L169.199 77.9999L177.199 77.9999ZM169.199 0.516357V77.9999H177.199V0.516357H169.199Z" fill="black" mask="url(#path-4-inside-2_1351_2348)"/>
<path d="M251.483 31.8333L253.709 31.801C253.801 31.801 253.854 31.8118 253.871 31.8333C253.887 31.8548 253.895 31.9032 253.895 31.9785L253.854 32.5915V33.0594L253.895 34.4468C253.895 34.5328 253.884 34.5839 253.862 34.6C253.841 34.6162 253.79 34.6242 253.709 34.6242H252.556C252.47 34.6242 252.416 34.6135 252.394 34.592C252.378 34.5704 252.37 34.5221 252.37 34.4468V33.2207H248.886C248.563 34.0327 248.189 34.7882 247.764 35.4873H249.378C249.431 35.3851 249.496 35.2507 249.571 35.084C249.652 34.8958 249.703 34.7775 249.724 34.7291C249.854 34.3903 249.942 34.0515 249.991 33.7127C250.41 33.7826 250.856 33.8821 251.33 34.0112C251.518 34.0757 251.612 34.1591 251.612 34.2612C251.612 34.3419 251.556 34.436 251.443 34.5436C251.34 34.6511 251.244 34.8178 251.152 35.0437L250.934 35.4873H251.531L253.314 35.4551C253.4 35.4551 253.451 35.4658 253.467 35.4873C253.483 35.5088 253.491 35.5572 253.491 35.6325V36.6247C253.491 36.7161 253.481 36.7699 253.459 36.786C253.438 36.8021 253.389 36.8102 253.314 36.8102L251.531 36.7779H250.684V38.0282H250.717L253.016 37.9959C253.102 37.9959 253.155 38.0067 253.177 38.0282C253.193 38.0497 253.201 38.0981 253.201 38.1734V39.0688C253.201 39.1602 253.19 39.2166 253.169 39.2382C253.153 39.2597 253.102 39.2704 253.016 39.2704L250.684 39.2382V40.4562H250.717L253.016 40.4239C253.112 40.4239 253.169 40.4347 253.185 40.4562C253.206 40.4777 253.217 40.5288 253.217 40.6094V41.537C253.217 41.6123 253.206 41.658 253.185 41.6742C253.163 41.6903 253.107 41.6984 253.016 41.6984L250.684 41.6661V42.9809H251.862L253.758 42.9487C253.844 42.9487 253.897 42.9594 253.919 42.9809C253.935 43.0024 253.943 43.0508 253.943 43.1261V44.1586C253.943 44.2393 253.932 44.2877 253.911 44.3038C253.895 44.3253 253.844 44.3361 253.758 44.3361L251.862 44.3038H247.296V44.933C247.296 45.019 247.286 45.0701 247.264 45.0862C247.243 45.1024 247.194 45.1104 247.119 45.1104H245.941C245.855 45.1104 245.804 45.0997 245.788 45.0782C245.772 45.0566 245.764 45.0083 245.764 44.933L245.796 43.3278V39.4559C245.796 39.1548 245.807 38.7273 245.828 38.1734L245.167 38.9074C245.102 38.9827 245.035 39.0204 244.965 39.0204C244.885 39.0204 244.831 38.9424 244.804 38.7864C244.696 38.4315 244.53 38.0685 244.304 37.6975V40.3755L244.336 43.1422C244.336 43.2229 244.325 43.2713 244.304 43.2874C244.282 43.3036 244.229 43.3116 244.143 43.3116H243.086C242.962 43.3116 242.9 43.2552 242.9 43.1422V42.5211H241.626V43.844C241.626 43.9247 241.615 43.9731 241.594 43.9892C241.577 44.0107 241.526 44.0215 241.44 44.0215H240.319C240.233 44.0215 240.182 44.0107 240.166 43.9892C240.15 43.9677 240.142 43.9193 240.142 43.844L240.174 40.9079V38.6574L239.529 39.585C239.41 39.7356 239.316 39.8109 239.246 39.8109C239.171 39.8109 239.117 39.7114 239.085 39.5124C238.977 38.894 238.83 38.4046 238.641 38.0443C239.878 36.6677 240.687 34.8339 241.069 32.5431H240.948L239.303 32.5754C239.211 32.5754 239.158 32.5646 239.141 32.5431C239.125 32.5216 239.117 32.4732 239.117 32.3979V31.188C239.117 31.1019 239.128 31.0508 239.15 31.0347C239.171 31.0186 239.222 31.0105 239.303 31.0105L240.948 31.0428H242.836L244.489 31.0105C244.581 31.0105 244.637 31.0213 244.659 31.0428C244.675 31.0643 244.683 31.1127 244.683 31.188V31.801C244.925 31.8225 245.654 31.8333 246.869 31.8333H247.732C247.942 31.1234 248.057 30.497 248.079 29.9538C248.229 29.9753 248.735 30.0587 249.595 30.2039C249.805 30.2469 249.91 30.3276 249.91 30.4459C249.91 30.5158 249.848 30.6206 249.724 30.7605C249.66 30.8357 249.552 31.1503 249.402 31.7042L249.345 31.8333H251.483ZM242.836 32.5431H242.65C242.424 33.7316 242.072 34.885 241.594 36.0036H242.981L244.134 35.9632C244.231 35.9632 244.29 35.974 244.312 35.9955C244.328 36.017 244.336 36.0681 244.336 36.1488L244.304 37.5523C245.621 36.337 246.608 34.8931 247.264 33.2207H245.925V34.5274C245.925 34.6135 245.914 34.6672 245.893 34.6888C245.871 34.7049 245.823 34.713 245.748 34.713H244.618C244.532 34.713 244.479 34.6995 244.457 34.6726C244.441 34.6565 244.433 34.6081 244.433 34.5274L244.473 33.1078V32.5754L242.836 32.5431ZM242.9 37.4394H241.626V41.1015H242.9V37.4394ZM247.296 42.9809H249.232V41.6661H247.296V42.9809ZM247.296 38.0282H249.232V36.7779H247.296V38.0282ZM247.296 40.4562H249.232V39.2382H247.296V40.4562ZM262.695 33.1239C263.281 33.339 263.787 33.5433 264.212 33.7369C264.362 33.253 264.462 32.7179 264.51 32.1317H264.131L262.05 32.1479C261.926 32.1479 261.864 32.0941 261.864 31.9865V30.8411C261.864 30.7551 261.878 30.704 261.905 30.6879C261.921 30.6717 261.969 30.6637 262.05 30.6637L264.131 30.6959H267.801L269.89 30.6637C270.025 30.6637 270.092 30.7309 270.092 30.8653L270.043 32.0995C269.974 34.3957 269.82 35.931 269.584 36.7053C269.347 37.5335 268.723 37.9475 267.712 37.9475C267.46 37.9475 267.201 37.9314 266.938 37.8991C266.766 37.883 266.664 37.8454 266.631 37.7862C266.599 37.7378 266.564 37.5872 266.527 37.3345C266.408 36.872 266.309 36.5521 266.228 36.3746C266.18 36.4499 266.134 36.4875 266.091 36.4875C266.053 36.4875 266.005 36.466 265.946 36.423L264.938 35.7858C264.319 36.7752 263.451 37.5765 262.332 38.1895C262.112 38.3025 261.974 38.3589 261.921 38.3589C261.835 38.3589 261.719 38.2326 261.574 37.9798C261.353 37.6195 261.103 37.3264 260.824 37.1006C262.071 36.5628 262.985 35.8826 263.566 35.0598C263.023 34.7855 262.507 34.5516 262.018 34.358C261.937 34.3365 261.897 34.3043 261.897 34.2612C261.897 34.2236 261.921 34.1644 261.969 34.0838L262.413 33.2368C262.467 33.14 262.518 33.0916 262.566 33.0916C262.598 33.0916 262.641 33.1024 262.695 33.1239ZM268.39 32.1317H266.115C266.029 32.976 265.857 33.7423 265.599 34.4306C265.948 34.6081 266.325 34.8178 266.728 35.0598C266.798 35.0974 266.833 35.1378 266.833 35.1808C266.833 35.2131 266.809 35.2803 266.76 35.3825L266.293 36.2617C266.626 36.3155 266.973 36.3423 267.333 36.3423C267.693 36.3423 267.93 36.2106 268.043 35.9471C268.242 35.4309 268.358 34.1591 268.39 32.1317ZM260.808 44.6184C260.808 44.7421 260.754 44.8039 260.646 44.8039H259.46C259.369 44.8039 259.315 44.7931 259.299 44.7716C259.283 44.7501 259.275 44.699 259.275 44.6184V44.1747H257.718V44.933C257.718 45.019 257.707 45.0728 257.686 45.0943C257.664 45.1104 257.613 45.1185 257.533 45.1185H256.363C256.266 45.1185 256.207 45.1077 256.186 45.0862C256.169 45.0647 256.161 45.0136 256.161 44.933L256.202 42.4889V41.4322L256.161 39.8835C256.161 39.792 256.175 39.7383 256.202 39.7221C256.223 39.706 256.277 39.6979 256.363 39.6979L257.871 39.7302H259.106L260.646 39.6979C260.754 39.6979 260.808 39.7598 260.808 39.8835L260.775 41.1499V42.2953L260.808 44.6184ZM259.275 41.1015H257.718V42.8035H259.275V41.1015ZM267.083 41.6016C267.325 41.7683 267.677 41.9215 268.14 42.0614C268.323 42.1259 268.433 42.1743 268.471 42.2066C268.514 42.2496 268.535 42.3168 268.535 42.4082C268.535 42.4512 268.53 42.5292 268.519 42.6421C268.449 43.2337 268.352 43.6666 268.229 43.9408C268.11 44.1989 267.938 44.4033 267.712 44.5538C267.481 44.7098 267.226 44.812 266.946 44.8604C266.715 44.898 266.365 44.9168 265.897 44.9168C265.037 44.9168 264.464 44.8173 264.179 44.6184C263.824 44.4033 263.647 43.9811 263.647 43.352V40.6094C263.647 40.1362 263.625 39.6952 263.582 39.2865C264.163 39.3027 264.669 39.3349 265.099 39.3833C265.309 39.4102 265.413 39.4667 265.413 39.5527C265.413 39.5689 265.387 39.6442 265.333 39.7786C265.279 39.8915 265.252 40.1228 265.252 40.4723V42.7551C265.252 43.0293 265.325 43.2068 265.47 43.2874C265.583 43.352 265.784 43.3842 266.075 43.3842C266.457 43.3842 266.701 43.317 266.809 43.1826C266.976 42.9836 267.067 42.4566 267.083 41.6016ZM257.46 32.9061H259.356L261.122 32.8738C261.208 32.8738 261.262 32.8846 261.283 32.9061C261.3 32.9276 261.308 32.976 261.308 33.0513V34.229C261.308 34.3204 261.297 34.3769 261.275 34.3984C261.254 34.4145 261.203 34.4226 261.122 34.4226L259.356 34.3903H257.46L255.71 34.4226C255.618 34.4226 255.564 34.4091 255.548 34.3822C255.532 34.3607 255.524 34.3096 255.524 34.229V33.0513C255.524 32.9653 255.535 32.9142 255.556 32.898C255.578 32.8819 255.629 32.8738 255.71 32.8738L257.46 32.9061ZM257.904 30.6475H259.162L260.662 30.6153C260.748 30.6153 260.799 30.626 260.816 30.6475C260.832 30.669 260.84 30.7174 260.84 30.7927V31.8978C260.84 31.9892 260.829 32.043 260.808 32.0591C260.786 32.0753 260.738 32.0833 260.662 32.0833L259.162 32.0511H257.904L256.403 32.0833C256.312 32.0833 256.258 32.0726 256.242 32.0511C256.226 32.0296 256.218 31.9785 256.218 31.8978V30.7927C256.218 30.7067 256.229 30.6556 256.25 30.6395C256.272 30.6233 256.323 30.6153 256.403 30.6153L257.904 30.6475ZM257.968 35.2695H259.057L260.445 35.2373C260.541 35.2373 260.601 35.248 260.622 35.2695C260.638 35.2857 260.646 35.3314 260.646 35.4067V36.4795C260.646 36.5655 260.633 36.6166 260.606 36.6327C260.584 36.6489 260.531 36.6569 260.445 36.6569L259.057 36.6247H257.968L256.565 36.6569C256.479 36.6569 256.425 36.6462 256.403 36.6247C256.387 36.6032 256.379 36.5548 256.379 36.4795V35.4067C256.379 35.2937 256.441 35.2373 256.565 35.2373L257.968 35.2695ZM257.968 37.4878H259.057L260.445 37.4474C260.541 37.4474 260.601 37.4582 260.622 37.4797C260.638 37.5012 260.646 37.5523 260.646 37.633V38.6896C260.646 38.7811 260.633 38.8348 260.606 38.851C260.584 38.8671 260.531 38.8752 260.445 38.8752L259.057 38.8429H257.968L256.565 38.8752C256.479 38.8752 256.425 38.8644 256.403 38.8429C256.387 38.8214 256.379 38.7703 256.379 38.6896V37.633C256.379 37.5469 256.393 37.4931 256.419 37.4716C256.436 37.4555 256.484 37.4474 256.565 37.4474L257.968 37.4878ZM269.35 39.7786C269.898 40.6014 270.374 41.6043 270.778 42.7873C270.794 42.8465 270.802 42.8868 270.802 42.9083C270.802 42.9675 270.732 43.032 270.592 43.1019L269.664 43.5617C269.568 43.6101 269.503 43.6343 269.471 43.6343C269.428 43.6343 269.393 43.5886 269.366 43.4972C269.065 42.3625 268.602 41.3112 267.979 40.3432C267.952 40.3002 267.938 40.2653 267.938 40.2384C267.938 40.1954 268.008 40.1416 268.148 40.077L269.019 39.6979C269.1 39.6549 269.159 39.6334 269.197 39.6334C269.24 39.6334 269.291 39.6818 269.35 39.7786ZM262.114 39.8835L263.026 40.1738C263.166 40.2222 263.236 40.2814 263.236 40.3513C263.236 40.3728 263.233 40.4024 263.227 40.44C263.05 41.7306 262.762 42.8223 262.364 43.715C262.327 43.801 262.284 43.844 262.235 43.844C262.203 43.844 262.141 43.8225 262.05 43.7795L261.09 43.3197C260.982 43.2659 260.929 43.2041 260.929 43.1342C260.929 43.1019 260.945 43.0535 260.977 42.989C261.375 42.1071 261.655 41.1042 261.816 39.9803C261.837 39.8835 261.872 39.8351 261.921 39.8351C261.953 39.8351 262.018 39.8512 262.114 39.8835ZM265.567 37.4878C266.25 37.9825 266.906 38.5418 267.535 39.1656C267.589 39.2247 267.616 39.2758 267.616 39.3188C267.616 39.3511 267.567 39.4156 267.47 39.5124L266.793 40.1738C266.685 40.2653 266.615 40.311 266.583 40.311C266.551 40.311 266.51 40.2841 266.462 40.2303C265.86 39.4882 265.204 38.8805 264.494 38.4073C264.419 38.3643 264.381 38.3213 264.381 38.2783C264.381 38.246 264.429 38.1895 264.526 38.1089L265.204 37.52C265.295 37.4447 265.36 37.4071 265.397 37.4071C265.435 37.4071 265.491 37.434 265.567 37.4878Z" fill="black"/>
<path fill-rule="evenodd" clip-rule="evenodd" d="M346.4 77.9999L357.674 39.2581L346.4 0.516357H498V77.9999H346.4ZM346.4 0.516357L346.4 77.9999H346.399V0.516357H346.4Z" fill="black"/>
<path d="M409.309 38.9316L407.179 38.9639C407.082 38.9639 407.023 38.9505 407.002 38.9236C406.986 38.9074 406.978 38.8563 406.978 38.7703V37.5604C406.978 37.4743 406.991 37.4232 407.018 37.4071C407.039 37.391 407.093 37.3829 407.179 37.3829L409.309 37.4152H418.811L420.94 37.3829C421.026 37.3829 421.077 37.3937 421.094 37.4152C421.11 37.4367 421.118 37.4851 421.118 37.5604V38.7703C421.118 38.8563 421.107 38.9101 421.085 38.9316C421.069 38.9531 421.021 38.9639 420.94 38.9639L418.811 38.9316H416.447V42.255C416.447 42.6314 416.49 42.8787 416.576 42.9971C416.711 43.1261 417.219 43.1906 418.101 43.1906C418.827 43.1906 419.289 43.1073 419.488 42.9406C419.634 42.8115 419.733 42.5991 419.787 42.3033C419.835 42.0506 419.867 41.6527 419.884 41.1095C420.169 41.3031 420.548 41.4645 421.021 41.5935C421.22 41.6312 421.338 41.6661 421.376 41.6984C421.419 41.736 421.44 41.8113 421.44 41.9242C421.44 41.9673 421.438 42.0264 421.432 42.1017C421.368 43.1503 421.137 43.844 420.739 44.1828C420.438 44.4463 420.056 44.6264 419.593 44.7232C419.174 44.8039 418.563 44.8442 417.762 44.8442C416.886 44.8442 416.243 44.8012 415.834 44.7152C415.512 44.6399 415.27 44.5243 415.108 44.3683C414.845 44.0887 414.713 43.5536 414.713 42.7631V38.9316H412.809C412.75 40.518 412.398 41.736 411.753 42.5857C411.091 43.5859 409.876 44.3791 408.107 44.9652C407.924 45.0298 407.795 45.062 407.72 45.062C407.612 45.062 407.491 44.9303 407.357 44.6668C407.19 44.3172 406.921 43.9462 406.55 43.5536C408.308 43.1557 409.497 42.5776 410.115 41.8194C410.696 41.0988 411.011 40.1362 411.059 38.9316H409.309ZM418.528 31.7204L420.723 31.6881C420.809 31.6881 420.862 31.6988 420.884 31.7204C420.9 31.7419 420.908 31.7929 420.908 31.8736L420.876 32.7609V33.4869L420.908 35.3502C420.908 35.4362 420.895 35.49 420.868 35.5115C420.852 35.5277 420.803 35.5357 420.723 35.5357H419.351C419.265 35.5357 419.214 35.5223 419.198 35.4954C419.182 35.4793 419.174 35.4309 419.174 35.3502V33.253H408.897V35.3502C408.897 35.447 408.884 35.5035 408.857 35.5196C408.841 35.5411 408.792 35.5518 408.712 35.5518H407.341C407.254 35.5518 407.203 35.5384 407.187 35.5115C407.171 35.49 407.163 35.4362 407.163 35.3502L407.195 33.4869V32.89L407.163 31.8736C407.163 31.7822 407.174 31.7284 407.195 31.7123C407.217 31.6962 407.265 31.6881 407.341 31.6881L409.543 31.7204H413.043V31.551C413.043 30.8304 413.006 30.3087 412.93 29.9861C413.549 30.0022 414.138 30.0345 414.697 30.0829C414.864 30.1044 414.947 30.1555 414.947 30.2362C414.947 30.3007 414.912 30.4109 414.842 30.5669C414.799 30.6798 414.778 31.0078 414.778 31.551V31.7204H418.528ZM412.229 36.1165L410.148 36.1488C410.062 36.1488 410.008 36.138 409.986 36.1165C409.97 36.095 409.962 36.0466 409.962 35.9713V34.7291C409.962 34.6323 409.976 34.5731 410.002 34.5516C410.019 34.5355 410.067 34.5274 410.148 34.5274L412.229 34.5597H415.842L417.932 34.5274C418.012 34.5274 418.061 34.5409 418.077 34.5678C418.088 34.5839 418.093 34.6377 418.093 34.7291V35.9713C418.093 36.0573 418.085 36.1084 418.069 36.1246C418.053 36.1407 418.007 36.1488 417.932 36.1488L415.842 36.1165H412.229ZM426.772 42.9003C427.665 42.9809 428.445 43.0213 429.111 43.0213C429.633 43.0213 429.894 42.7389 429.894 42.1743V37.1167C429.894 36.1272 429.848 35.3744 429.757 34.8581L430.999 34.9388C432.408 34.073 433.524 33.2637 434.347 32.5109H426.474L424.312 32.5431C424.221 32.5431 424.167 32.5297 424.151 32.5028C424.135 32.4813 424.126 32.4302 424.126 32.3495V30.9783C424.126 30.8868 424.137 30.8331 424.159 30.8169C424.18 30.8008 424.231 30.7927 424.312 30.7927L426.474 30.825H435.274C435.575 30.825 435.79 30.7981 435.919 30.7443C436.005 30.7013 436.083 30.6798 436.153 30.6798C436.299 30.6798 436.557 30.8788 436.928 31.2767C437.315 31.6585 437.508 31.9166 437.508 32.0511C437.508 32.2178 437.431 32.3441 437.275 32.4302C436.968 32.5915 436.715 32.7744 436.516 32.9787C435.016 34.2962 433.424 35.4685 431.741 36.4956V40.7869L431.773 42.7551C431.773 43.1906 431.717 43.5294 431.604 43.7714C431.513 43.965 431.365 44.1425 431.16 44.3038C430.902 44.5081 430.477 44.6453 429.886 44.7152C429.472 44.7636 428.829 44.7905 427.958 44.7958C427.856 44.8012 427.789 44.8039 427.756 44.8039C427.595 44.8039 427.49 44.769 427.442 44.699C427.404 44.6453 427.361 44.5081 427.313 44.2877C427.189 43.7392 427.009 43.2767 426.772 42.9003Z" fill="white"/>
</svg>
