<svg width="546" height="584" viewBox="0 0 546 584" fill="none" xmlns="http://www.w3.org/2000/svg">
<circle cx="112" cy="296" r="32" stroke="black" stroke-width="4"/>
<circle cx="460.5" cy="269.5" r="20.5" stroke="black" stroke-width="4"/>
<path d="M178.851 135.068L185.549 156.399L185.905 157.532L187.07 157.762L209.005 162.092L190.787 175.053L189.82 175.742L189.961 176.921L192.621 199.12L174.665 185.799L173.711 185.092L172.633 185.591L152.343 194.981L159.462 173.787L159.84 172.661L159.033 171.79L143.832 155.394L166.189 155.616L167.377 155.628L167.955 154.591L178.851 135.068Z" stroke="black" stroke-width="4"/>
<path d="M498.814 339.709L509.693 350.363L510.542 351.194L511.678 350.847L526.24 346.395L519.469 360.034L518.941 361.098L519.622 362.07L528.356 374.544L513.292 372.319L512.117 372.146L511.402 373.094L502.238 385.255L499.699 370.241L499.501 369.07L498.378 368.683L483.98 363.726L497.475 356.671L498.528 356.121L498.548 354.934L498.814 339.709Z" stroke="black" stroke-width="4"/>
<rect x="145.388" y="398.944" width="53" height="53" transform="rotate(-12.5934 145.388 398.944)" stroke="black" stroke-width="4"/>
<rect x="34.3879" y="189.946" width="34.6637" height="34.6637" transform="rotate(-12.5934 34.3879 189.946)" stroke="black" stroke-width="4"/>
<rect x="329.282" y="191.615" width="79" height="48" rx="24" transform="rotate(-10.5195 329.282 191.615)" stroke="black" stroke-width="4"/>
<path d="M374.352 392.104L406.394 349.019L427.686 398.31L374.352 392.104Z" stroke="black" stroke-width="4"/>
<path d="M16.92 402.948L26.0345 366.048L53.4332 392.391L16.92 402.948Z" stroke="black" stroke-width="4"/>
<path d="M204.891 275.297L205.673 281.198L219.112 273.936L234.54 247.679L226.221 243.126L204.891 275.297Z" fill="white"/>
<path d="M263.086 94.1952L260.33 88.3479L254.74 84.5523L251.218 78.2074L248.2 83.1171C248.2 83.1171 244.008 88.7869 243.935 87.8739C243.862 86.9609 241.392 76.4153 241.392 76.4153L233.823 63.0794L237.363 56.6166L235.715 52.0362L237.564 46.7018L234.53 34.8923L244.543 14.4781L256.009 8.46872H262.549L258.078 4.89674L265.585 4.04632L273.171 7.06845L280.057 4.04632L287.771 0.866211L300.678 2.26649L308.566 9.28016L311.297 19.6268L309.982 28.0459L317.871 33.7157L319.591 35.4955L319.031 40.5981L318.053 49.0099L323.11 55.5528L321.987 63.1204L314.72 73.3254L301.863 74.9976L300.747 94.2413L284.16 115.061L262.517 117.215C262.517 117.215 258.185 100.206 258.045 99.8783C257.906 99.5511 263.086 94.1952 263.086 94.1952Z" fill="white"/>
<path d="M205.041 277.716C204.802 277.396 204.613 277.04 204.482 276.662C203.8 272.126 201.798 268.021 200.121 263.825C199.291 261.771 198.358 259.762 197.327 257.804C196.894 257.119 196.339 256.523 195.689 256.046C192.959 253.722 190.608 251.051 189.708 247.497C189.274 245.254 189.02 242.978 188.947 240.694C188.858 239.61 188.998 238.494 188.846 237.422C188.287 233.453 189.746 230.148 191.904 227.061C192.373 226.386 192.552 226.074 192.054 225.27C190.436 222.627 191.048 220.551 193.731 218.807C194.061 218.58 194.323 218.264 194.486 217.894C196.509 213.427 198.779 209.049 200.423 204.44C201.653 200.982 203.777 197.79 203.978 193.997C204.03 192.698 203.869 191.399 203.502 190.153C202.764 187.562 203.33 185.113 203.967 182.641C204.151 181.916 204.224 181.162 204.447 180.453C204.75 179.5 205.101 178.563 205.498 177.646C206.616 175.021 207.974 172.464 208.93 169.771C209.333 168.149 209.586 166.492 209.684 164.821C209.79 164.169 210.031 163.545 210.19 162.899C210.548 161.413 210.898 159.924 211.241 158.431C211.274 158.284 211.207 158.057 211.291 157.983C213.046 156.498 211.906 154.729 211.817 153.045C211.722 151.117 211.739 149.178 211.733 147.251C211.733 143.945 211.499 140.618 211.767 137.335C212.006 133.202 213.577 129.264 216.238 126.126C219.284 122.616 222.205 118.97 225.489 115.699C228.091 113.316 230.833 111.096 233.7 109.05C233.895 108.886 234.121 108.762 234.364 108.686C234.607 108.61 234.863 108.584 235.116 108.608C236.698 109.062 237.91 108.126 239.186 107.61C243.714 105.813 247.207 102.468 251.003 99.5419C254.346 97.0666 257.811 94.7638 261.383 92.6421C262.858 91.7291 264.316 92.7447 264.491 94.5758C264.489 95.0365 264.459 95.4966 264.402 95.9535C264.171 98.4525 264.108 100.964 264.212 103.472C264.34 104.806 265.452 106.037 266.118 107.322C266.312 107.615 266.469 107.931 266.587 108.263C266.723 108.865 267.056 109.403 267.532 109.788C268.009 110.173 268.6 110.383 269.209 110.383C274.754 111.188 279.828 109.896 284.81 107.378C289.595 104.98 292.468 101.193 294.441 96.4418C295.638 93.9513 296.639 91.3692 297.437 88.7193C297.883 86.4048 297.998 84.037 297.778 81.6892C297.665 79.0467 298.717 76.8021 299.689 74.5227C300.276 73.1563 302.182 72.8896 303.602 73.9554C307.923 77.1253 311.937 80.6624 314.597 85.4141C315.777 87.517 317.537 87.7612 319.41 87.8125C322.764 87.9151 326.118 87.6483 329.472 87.8125C331.765 87.9654 334.042 88.3203 336.275 88.8732C338.314 89.3328 340.288 90.0693 342.289 90.693C342.675 90.812 343.077 91.1352 343.407 91.0726C345.9 90.6305 347.878 92.1046 349.942 92.995C351.927 93.789 353.755 94.9416 355.335 96.3967C356.481 97.5303 357.012 99.3563 357.627 100.932C358.326 102.769 358.79 104.691 359.366 106.574C360.149 109.131 360.931 111.677 361.747 114.239C362.562 116.802 363.574 119.342 364.301 121.973C365.726 126.94 367.472 131.806 369.528 136.54C371.071 140.157 372.736 143.729 374.056 147.431C375.689 152.001 376.907 156.729 378.528 161.311C379.601 164.361 381.127 167.247 382.323 170.257C383.558 173.37 384.632 176.545 385.801 179.681C386.918 182.634 387.947 185.606 389.154 188.503C390.521 191.703 390.593 195.319 389.357 198.572C388.978 199.558 388.835 200.62 388.939 201.672C389.043 202.724 389.391 203.736 389.954 204.625C391.21 206.792 391.598 209.365 391.039 211.814C390.161 216.14 388.881 220.392 387.623 224.628C386.891 227.083 385.803 229.43 384.979 231.862C383.947 234.463 383.13 237.146 382.537 239.884C382.363 241.451 381.705 242.921 380.656 244.085C379.608 245.249 378.224 246.047 376.701 246.364C374.336 246.98 372.737 248.587 370.936 249.896C368.527 251.648 366.465 253.865 364.122 255.744C361.78 257.622 361.478 260.234 361.954 262.769C362.703 266.794 364.095 270.707 364.933 274.709C365.794 278.825 366.186 283.038 367.019 287.154C367.818 291.078 369.076 294.899 369.864 298.817C370.786 303.352 372.704 307.554 374.207 311.896C375.365 315.206 375.905 318.705 375.8 322.215C375.665 326.501 376.018 330.799 375.928 335.085C375.849 341.219 376.536 347.338 377.974 353.296C379.058 358.455 380.456 363.541 382.162 368.525C384.672 375.362 386.186 382.443 388.165 389.412C389.203 393.18 390.582 396.843 392.285 400.354C395.27 406.288 397.656 412.512 399.406 418.933C400.523 423.203 401.961 427.392 403.118 431.654C404.14 435.396 404.985 439.189 405.912 442.96C407.03 447.576 407.998 452.246 409.316 456.808C410.116 459.578 408.601 460.777 406.158 460.556C401.329 460.165 396.493 459.711 391.624 459.564C389.817 459.681 388.036 460.063 386.337 460.697C385.99 460.788 385.649 461.372 385.543 461.792C384.52 466.039 383.552 470.296 382.563 474.548C381.339 479.815 380.327 485.114 378.46 490.236C376.783 494.892 375.729 499.777 374.414 504.575C373.855 506.587 373.357 508.611 372.821 510.627C372.14 513.207 370.027 514.115 367.88 515.027C365.597 515.934 363.145 516.321 360.699 516.16C358.463 516.093 356.16 516.728 353.432 517.113C355.109 518.843 356.389 520.612 358.401 521.507C360.687 522.528 362.996 523.491 365.338 524.342C367.814 525.265 368.088 525.912 367.479 528.531C367.127 530.039 366.484 531.531 367.714 533.231C368.753 534.654 368.172 536.633 367.429 538.199C366.685 539.764 366.975 540.739 367.658 542.258C369.368 546.053 372.857 547.182 376.043 548.67C380.514 550.768 385.17 552.569 389.101 555.718C391.202 557.419 393.511 558.933 395.177 560.991C396.297 562.502 396.855 564.365 396.754 566.252C396.524 568.973 395.266 571.498 393.243 573.3C390.816 575.653 387.978 576.134 385.2 576.48C380.052 577.171 374.82 577.256 369.615 577.467C368.298 577.386 366.989 577.197 365.702 576.9C361.901 576.298 358.05 575.924 354.316 575.053C350.738 574.214 347.278 572.859 343.762 571.742C342.767 571.434 341.766 571.174 340.614 570.801C340.449 571.044 340.307 571.302 340.19 571.572C340.126 571.872 339.999 572.155 339.819 572.402C339.639 572.649 339.409 572.854 339.145 573.004C338.88 573.153 338.588 573.244 338.286 573.27C337.984 573.296 337.681 573.257 337.395 573.154C335.925 572.808 334.471 572.383 333.007 572.021C330.452 571.414 327.892 570.818 325.326 570.257C323.09 569.764 322.324 569.005 321.922 566.759C321.081 561.781 320.94 556.708 321.502 551.689C321.659 550.141 321.261 548.542 321.351 546.984C321.586 542.128 322.537 537.335 324.174 532.765C325.488 528.875 326.116 524.782 326.03 520.671C326.081 519.967 326.193 519.269 326.366 518.585C325.616 517.853 324.849 517.139 324.13 516.39C321.893 514.122 319.658 511.792 317.394 509.496C314.951 507.007 312.425 504.591 310.087 502.001C308.63 500.55 307.443 498.844 306.583 496.966C305.94 495.305 306.203 493.273 306.141 491.399C306.068 489.131 306.068 486.862 306.046 484.595C306.013 481.353 305.929 478.109 305.968 474.866C306.041 468.941 306.271 463.017 306.271 457.086C306.271 453.393 306.069 449.716 305.74 446.007C305.462 443.78 305.047 441.572 304.499 439.397C303.382 434.248 302.264 429.102 301.146 423.958C300.747 421.897 300.209 419.866 299.536 417.88C299.184 419.257 298.929 420.68 298.451 422.013C297.272 425.262 297.378 428.596 297.585 431.952C297.888 436.823 298.015 441.715 298.512 446.563C299.11 452.437 300.1 458.265 300.748 464.139C301.073 467.053 301 470.013 301.168 472.95C301.302 475.218 301.548 477.485 301.727 479.753C302.141 485.06 302.594 490.367 302.918 495.68C303 497.844 302.97 500.01 302.829 502.171C302.797 502.718 302.602 503.242 302.269 503.674C300.816 505.539 299.201 507.286 297.798 509.207C296.079 511.577 294.489 514.049 292.969 516.549C292.697 517.25 292.602 518.008 292.689 518.755C292.689 520.954 292.342 521.255 289.849 520.938C289.951 523.076 289.973 525.179 290.179 527.265C290.356 529.675 290.694 532.069 291.191 534.432C291.706 535.931 292.355 537.379 293.13 538.758C293.509 539.469 293.781 540.234 293.939 541.026C294.413 543.455 294.457 545.951 294.068 548.396C293.562 550.721 294.298 553.29 294.219 555.767C294.14 558.245 294.163 560.746 293.308 562.911C292.782 564.255 290.832 565.179 289.34 565.945C285.818 567.708 282.218 569.346 278.584 570.838C277.609 571.147 276.575 571.22 275.566 571.053C273.85 571.004 272.165 571.532 270.775 572.556C267.422 574.608 264.314 577.091 260.854 578.9C257.998 580.403 254.772 581.168 251.731 582.302C246.387 584.309 240.836 583.782 235.352 583.509C233.532 583.424 231.742 582.494 229.97 581.853C228.74 581.411 227.572 580.781 226.364 580.278C223.116 578.917 222.334 576.966 221.758 573.582C221.183 570.198 222.837 567.346 223.391 564.255C223.603 563.075 224.908 561.84 226.029 561.143C228.138 559.957 230.306 558.884 232.524 557.928C235.319 556.579 237.36 554.327 239.478 552.161C242.377 548.968 245.793 546.301 249.579 544.275C247.426 542.531 247.438 542.54 248.461 539.841C248.751 539.07 248.93 538.259 249.282 537.057C248.047 538.026 247.114 538.679 246.275 539.444C246.079 539.644 245.845 539.801 245.586 539.905C245.327 540.009 245.05 540.057 244.772 540.048C244.494 540.038 244.221 539.97 243.97 539.849C243.719 539.727 243.495 539.555 243.313 539.341C242.754 538.882 242.335 538.298 241.804 537.822C239.01 535.288 239.238 532.782 242.363 530.707C245.841 528.394 249.502 526.363 253.084 524.198C254.073 523.631 255.051 522.973 256.438 522.118C254.82 521.707 253.542 521.391 252.279 521.063C251.016 520.735 249.686 520.717 249.171 519.09C249.043 518.688 248.053 518.653 247.662 518.24C246.31 516.822 245.052 515.314 243.749 513.835C243.262 513.268 242.798 512.701 242.324 512.134C239.886 509.215 237.59 506.164 234.979 503.414C232.545 500.789 230.381 497.919 228.522 494.848C227.281 492.852 225.893 490.935 224.679 488.917C224.29 488.265 224.118 487.504 224.188 486.746C225.401 478.502 225.367 470.184 225.792 461.889C225.881 461.307 225.786 460.711 225.52 460.187C225.254 459.663 224.83 459.238 224.31 458.975C221.142 456.626 218.148 454.043 215.355 451.247C213.187 449.156 211.504 446.547 209.318 444.483C207.15 442.51 204.468 441.209 201.593 440.736C199.558 440.186 197.47 439.868 195.366 439.789C191.045 439.982 186.736 440.554 182.425 441.03C180.807 441.212 178.803 441.001 179.016 438.683C179.165 435.812 179.508 432.956 180.044 430.133C181.604 423.512 183.532 416.974 185.137 410.357C185.986 406.859 186.254 403.219 187.149 399.733C188.452 394.528 190.19 389.442 191.487 384.242C192.885 378.613 194.053 372.903 195.188 367.233C195.869 363.775 196.305 360.266 196.825 356.769C197.564 351.718 198.241 346.65 198.966 341.597C199.844 335.519 200.787 329.453 201.627 323.375C202.293 318.567 202.952 313.732 203.428 308.935C203.824 304.934 203.881 300.906 204.204 296.903C204.609 291.852 205.155 286.817 205.607 281.771C205.57 281.171 205.695 280.571 205.968 280.037C206.24 279.503 206.651 279.054 207.156 278.738C208.967 277.349 210.54 275.665 211.808 273.754C215.615 268.6 219.276 263.339 222.988 258.129C224.95 255.385 226.932 252.658 228.897 249.922C229.05 249.718 229.182 249.5 229.293 249.27C229.426 249.054 229.51 248.81 229.538 248.557C229.566 248.304 229.539 248.047 229.457 247.807C229.374 247.566 229.24 247.347 229.064 247.165C228.888 246.984 228.674 246.845 228.437 246.758C228.071 246.742 227.706 246.815 227.373 246.972C227.04 247.129 226.75 247.365 226.526 247.66C224.256 250.903 222.132 254.248 219.925 257.542C218.024 260.376 216.14 263.246 214.139 266.012C211.478 269.681 208.717 273.275 205.983 276.886C205.691 277.193 205.373 277.474 205.033 277.725L205.041 277.716ZM312.153 149.014C312.784 148.54 313.469 148.144 314.193 147.834C317.133 147.069 320.09 146.343 323.064 145.714C324.712 145.368 326.446 145.368 328.094 144.949C328.425 144.791 328.713 144.554 328.932 144.257C329.151 143.961 329.296 143.614 329.353 143.248C329.339 142.072 329.137 140.906 328.755 139.795C327.492 135.537 326.173 131.291 324.842 127.061C324.014 124.394 323.114 121.748 322.313 119.073C320.771 113.93 319.245 108.777 317.78 103.606C317.355 102.098 317.221 100.51 316.842 98.9746C316.654 98.4508 316.409 97.9504 316.109 97.4831C315.634 97.9816 314.794 98.4586 314.756 98.9859C314.669 100.414 314.782 101.848 315.092 103.244C315.69 105.852 316.501 108.409 317.193 110.994C318.512 115.893 319.817 120.792 321.107 125.691C321.883 128.61 322.624 131.547 323.471 134.45C324.097 136.588 324.869 138.686 325.59 140.8C325.847 141.565 325.809 142.031 324.83 142.178C323.292 142.411 321.788 142.869 320.251 143.107C316.96 143.513 313.773 144.539 310.854 146.135C310.266 146.374 309.793 146.836 309.535 147.424C309.277 148.011 309.255 148.677 309.474 149.281C309.992 150.987 310.711 152.624 311.615 154.157C313.174 156.721 314.968 159.129 316.645 161.635C317.238 162.537 317.4 163.517 316.293 164.226C313.882 165.826 312.102 168.234 311.263 171.03C309.586 176.177 307.864 181.36 306.584 186.633C304.348 195.789 302.381 205.014 300.435 214.238C299.378 219.255 298.614 224.335 297.712 229.393C296.594 235.694 295.476 241.996 294.358 248.301C294.296 248.509 294.278 248.728 294.307 248.944C294.336 249.159 294.411 249.366 294.527 249.549C294.642 249.732 294.795 249.888 294.976 250.005C295.156 250.123 295.36 250.199 295.572 250.229C296.689 250.529 297.089 249.758 297.299 248.981C297.797 247.11 298.193 245.211 298.558 243.311C299.48 238.464 300.363 233.605 301.252 228.752C302.084 224.215 302.87 219.714 303.734 215.211C304.975 208.748 306.143 202.278 307.577 195.86C308.791 190.412 310.283 185.02 311.769 179.64C312.531 176.893 313.432 174.188 314.469 171.535C315.469 168.955 317.453 167.09 319.499 165.298C319.954 164.923 320.273 164.406 320.406 163.827C320.538 163.248 320.477 162.641 320.232 162.101C319.729 160.934 319.119 159.818 318.411 158.767C316.357 155.608 314.3 152.428 312.153 149.014ZM246.013 152.983C244.566 156.255 243.151 159.169 241.983 162.185C240.306 166.46 238.875 170.819 237.298 175.123C237.09 175.784 237.033 176.485 237.129 177.172C237.226 177.86 237.475 178.516 237.858 179.092C238.601 180.543 239.389 181.984 239.988 183.497C241.553 187.466 243.157 191.462 244.498 195.528C246.941 202.944 249.252 210.402 251.525 217.872C252.995 222.707 254.208 227.629 255.712 232.454C256.829 236.134 258.233 239.737 259.625 243.34C260.321 245.139 261.152 246.881 262.112 248.55C262.358 248.976 263.229 249.015 263.856 249.231C264.049 248.685 264.147 248.109 264.146 247.53C263.919 246.602 263.615 245.695 263.236 244.819C262.325 242.405 261.251 240.034 260.505 237.568C258.934 232.398 257.536 227.175 256.033 221.982C255.06 218.581 254.112 215.145 253.065 211.777C251.548 206.873 250.047 201.969 248.375 197.121C247.06 193.325 245.435 189.643 244.048 185.866C243.009 183.032 242.31 180.072 240.599 177.504C240.305 176.768 240.293 175.946 240.566 175.202C243.099 167.077 246.218 159.153 249.895 151.492C250.015 151.209 250.074 150.904 250.067 150.597C250.06 150.29 249.988 149.988 249.856 149.712C249.647 149.519 249.394 149.381 249.12 149.309C248.847 149.238 248.56 149.235 248.285 149.301C245.407 150.208 242.511 151.105 239.733 152.276C238.27 153.047 236.882 153.954 235.586 154.987C236.916 148.796 238.185 142.513 239.632 136.226C240.621 131.974 241.817 127.767 242.985 123.56C244.293 118.922 245.724 114.318 247.038 109.68C247.067 109.136 246.991 108.591 246.815 108.076L246.309 108.042C245.876 108.566 245.501 109.136 245.191 109.743C243.876 113.19 242.492 116.616 241.379 120.141C239.853 124.962 238.495 129.852 237.176 134.741C236.36 137.774 235.784 140.87 235.035 143.914C233.917 148.449 232.681 152.985 231.681 157.52C231.605 157.954 231.633 158.4 231.762 158.82C231.891 159.24 232.119 159.623 232.424 159.935C233.294 160.134 234.205 160.013 234.995 159.595C235.683 159.273 236.29 158.796 236.767 158.2C239.126 155.43 242.291 154.096 246.007 152.961L246.013 152.983ZM291.257 114.996H291.213C291.278 114.281 291.265 113.56 291.173 112.847C290.951 112.346 290.643 111.89 290.263 111.498C289.984 111.923 289.525 112.326 289.454 112.786C289.303 113.919 289.381 115.054 289.281 116.159C288.929 120.002 288.341 123.841 288.213 127.691C288.011 133.469 288.146 139.257 288.096 145.035C288.04 151.975 287.934 158.915 287.872 165.848C287.822 171.695 287.704 177.556 287.799 183.424C287.928 191.577 288.204 199.725 288.47 207.872C288.593 211.63 288.866 215.379 289.029 219.138C289.281 225.13 289.434 231.129 289.744 237.122C289.861 238.444 290.187 239.738 290.711 240.954C290.873 241.364 291.729 241.646 292.277 241.663C292.511 241.663 292.998 240.83 292.976 240.398C292.763 236.095 292.416 231.791 292.204 227.488C291.925 221.251 291.773 215.06 291.527 208.851C291.253 201.764 290.812 194.677 290.672 187.596C290.548 181.394 290.789 175.183 290.784 168.977C290.784 163.08 290.655 157.18 290.611 151.294C290.583 146.939 290.611 142.59 290.611 138.253C290.611 133.66 290.505 129.068 290.611 124.481C290.662 121.25 291.016 118.102 291.248 114.95L291.257 114.996ZM361.164 266.944C360.206 265.419 359.167 263.948 358.051 262.539C356.374 260.663 354.524 258.956 352.729 257.198C349.789 254.313 346.955 251.308 343.863 248.598C340.129 245.321 336.417 242.055 333.623 237.877C333.181 237.219 332.835 236.323 331.946 237.031C331.781 237.298 331.685 237.603 331.668 237.917C331.65 238.231 331.711 238.545 331.845 238.829C333.305 241.197 334.936 243.452 336.725 245.576C338.793 247.9 341.276 249.834 343.432 252.067C346.171 254.874 348.826 257.771 351.422 260.713C353.451 263.015 355.28 265.492 357.325 267.772C357.937 268.33 358.738 268.626 359.561 268.599C360.058 268.605 360.487 267.72 361.165 266.944H361.164ZM255.41 526.465C255.287 526.346 255.17 526.227 255.052 526.102C251.095 528.974 246.422 530.762 242.916 534.328C244.408 536.358 245.196 536.455 246.907 534.855C249.221 532.701 251.535 530.541 253.815 528.353C254.382 527.754 254.916 527.124 255.414 526.465H255.41ZM251.329 541.047C251.436 541.189 251.548 541.325 251.659 541.458C252.19 541.253 252.928 541.202 253.201 540.811C253.742 539.994 254.154 539.097 254.425 538.152C254.683 537.224 254.87 536.276 254.985 535.318C255.13 534.423 255.236 533.521 255.354 532.625L254.873 532.495L251.329 541.047ZM267.131 541.546C267.965 540.559 268.439 539.443 267.59 538.297C267.355 537.974 266.225 537.837 266.047 538.064C265.48 538.693 265.123 539.486 265.025 540.332C265.042 541.648 266.115 541.71 267.132 541.535L267.131 541.546ZM352.13 534.034C351.878 533.274 351.928 532.117 350.613 532.123C350.381 532.113 350.15 532.154 349.935 532.243C349.72 532.332 349.526 532.466 349.367 532.638C349.208 532.81 349.087 533.014 349.013 533.237C348.938 533.46 348.912 533.697 348.936 533.931C348.964 534.703 349.003 535.88 350.352 535.859C351.494 535.862 352.02 535.227 352.132 534.03L352.13 534.034ZM269.021 530.45C268.674 530.15 268.093 529.243 267.504 529.243C267.264 529.235 267.026 529.285 266.808 529.388C266.591 529.491 266.401 529.645 266.253 529.837C266.105 530.028 266.004 530.253 265.958 530.491C265.912 530.73 265.921 530.976 265.987 531.211C266.148 531.857 266.758 532.792 267.261 532.86C268.407 533.03 268.956 532.113 269.022 530.447L269.021 530.45ZM265.247 545.401C264.87 544.971 264.415 544.619 263.906 544.364C263.174 544.115 262.006 545.497 262.229 546.484C262.341 547.052 263.068 547.958 263.492 547.941C264.55 547.893 265.254 547.11 265.249 545.398L265.247 545.401ZM360.464 551.899C360.749 553.283 361.353 554.019 362.285 553.848C362.844 553.745 363.744 552.816 363.693 552.334C363.614 551.957 363.442 551.607 363.195 551.315C362.948 551.023 362.632 550.798 362.277 550.662C361.752 550.572 361.075 551.441 360.466 551.896L360.464 551.899ZM370.704 557.512C370.33 556.179 370.012 555.181 368.893 555.363C368.362 555.448 367.501 556.497 367.601 556.855C367.737 557.228 367.943 557.571 368.21 557.863C368.477 558.155 368.798 558.39 369.155 558.555C369.458 558.668 370.196 557.88 370.704 557.512ZM254.852 556.214C254.031 555.427 253.527 554.542 253.024 554.542C252.802 554.554 252.584 554.61 252.383 554.708C252.183 554.806 252.003 554.943 251.855 555.112C251.708 555.281 251.594 555.478 251.522 555.692C251.451 555.906 251.421 556.132 251.437 556.357C251.47 556.856 252.32 557.741 252.683 557.678C253.37 557.576 253.929 556.896 254.851 556.215L254.852 556.214ZM360.461 530.276L360.056 530.543L363.807 536.655C365.014 533.105 361.559 532.414 360.464 530.276H360.461ZM260.48 550.47C260.184 550.214 259.748 549.557 259.217 549.466C258.149 549.285 257.73 550.185 257.624 551.088C257.518 551.992 258.094 552.376 258.91 552.398C259.921 552.427 260.357 551.831 260.48 550.471V550.47ZM349.186 524.311H348.448C348.123 524.912 347.548 525.524 347.565 526.119C347.565 526.601 348.303 527.06 348.711 527.531C349.216 527.071 350.08 526.658 350.142 526.142C350.203 525.626 349.516 524.928 349.186 524.311ZM358.845 546.927C358.416 546.14 357.936 545.383 357.409 544.659C356.92 544.722 356.471 544.966 356.15 545.346C356.053 545.606 356.012 545.885 356.03 546.163C356.048 546.441 356.126 546.711 356.257 546.956C356.846 547.938 357.699 547.803 358.845 546.929V546.927ZM351.489 541.111L353.166 542.65C353.546 542.208 354.11 541.822 354.283 541.316C354.58 540.313 353.724 539.916 352.998 539.905C352.562 539.898 352.148 540.545 351.489 541.111ZM364.407 527.243L361.758 526.177L361.629 526.382L363.972 528.576C364.138 528.065 364.262 527.696 364.406 527.244L364.407 527.243Z" fill="black"/>
<path d="M320.157 36.1836C319.213 36.0484 318.287 35.8076 317.396 35.4655C314.875 34.1842 312.41 32.7778 309.945 31.3775C309.276 31.0352 308.74 30.4752 308.421 29.7871C308.103 29.099 308.022 28.3225 308.19 27.5819C308.684 24.4215 309.014 21.237 309.179 18.0416C309.369 11.7142 306.071 7.3944 300.733 4.70567C294.484 1.55326 288.061 1.87127 281.684 4.46152C281.013 4.73337 280.509 5.40837 279.845 5.74279C279.332 5.91505 278.797 6.01044 278.257 6.02593C278.257 5.45864 278.089 4.64207 278.369 4.41536C279.434 3.43518 280.65 2.63819 281.969 2.05592C286.289 0.517158 290.667 -0.603057 295.384 0.355078C300.85 1.48863 305.759 3.4326 309.168 8.19045C311.693 11.6474 312.808 15.9578 312.281 20.2266C312.036 22.4948 311.845 24.7619 311.6 27.03C311.519 27.4804 311.605 27.945 311.84 28.3357C312.075 28.7265 312.443 29.0164 312.874 29.1504C315.031 30.2111 317.122 31.4186 319.19 32.6598C320.409 33.4108 320.577 34.097 320.157 36.1836Z" fill="black"/>
<path d="M234.504 35.3964C234.807 31.6441 235.773 27.9776 237.355 24.5717C238.897 21.0285 240.48 17.5016 243.08 14.5708C246.959 10.1935 251.565 7.27399 257.523 7.09242C259.109 7.04462 260.697 7.14766 262.264 7.40017C262.769 7.47916 263.174 8.22802 263.616 8.67016C263.102 8.98776 262.533 9.20132 261.939 9.299C258.636 9.02114 255.317 9.59456 252.291 10.966C248.127 12.9755 244.698 16.2726 242.498 20.3832C240.809 23.5621 239.29 26.8307 237.947 30.1749C237.361 31.7465 236.961 33.3832 236.756 35.0507C236.622 35.8837 236.756 36.9731 235.734 36.8705C235.192 36.8244 234.739 35.7021 234.504 35.3964Z" fill="black"/>
<path d="M239.061 73.3532C238.798 70.8194 240.346 69.0047 241.791 67.4454C245 63.976 244.665 60.443 242.955 56.4915C242.348 55.1012 242.18 53.5547 242.474 52.064C243.682 47.3184 245.353 42.7288 248.567 38.9219C249.102 38.2418 249.729 37.6407 250.428 37.1359C250.78 36.9092 251.417 37.1359 251.926 37.1359C251.831 37.5893 251.886 38.1905 251.622 38.4695C249.245 41.1225 247.48 44.2797 246.457 47.7113C246.061 48.9074 245.648 50.1036 245.233 51.2946C244.674 52.899 245.189 54.3557 245.647 55.9037C246.329 58.2221 247.178 60.6554 247.072 62.9963C246.994 64.811 245.625 66.597 244.691 68.3204C244.132 69.3812 243.014 70.1916 242.618 71.2862C242.286 72.5893 242.053 73.9161 241.919 75.2551C241.714 75.8538 241.438 76.4249 241.098 76.956C240.538 76.5456 239.783 76.2533 239.499 75.7034C239.226 74.9498 239.078 74.1557 239.061 73.3532Z" fill="black"/>
<path d="M277.097 28.9956C279.255 29.0732 281.349 29.756 283.147 30.9681C284.945 32.1801 286.376 33.874 287.282 35.8616C288.545 39.0078 289.691 42.2064 291.024 45.3188C291.752 46.9991 292.621 48.6123 293.624 50.1402C295.652 53.2475 298.68 53.2301 301.846 52.6289C302.187 52.5612 302.567 52.3212 302.853 52.4073C303.383 52.5776 304.206 52.8721 304.261 53.228C304.276 53.5296 304.219 53.8303 304.093 54.104C303.967 54.3777 303.777 54.6162 303.54 54.7986C301.538 55.9212 299.195 56.2441 296.97 55.704C294.746 55.1638 292.8 53.7995 291.517 51.879C289.125 48.186 287.789 44.0662 286.324 39.9731C285.491 37.6373 284.771 35.165 282.798 33.4816C281.658 32.5127 280.319 31.8161 278.878 31.4432C277.437 31.0703 275.933 31.0307 274.475 31.3273C273.893 31.2916 273.323 31.1414 272.798 30.8852C273.212 30.4656 273.552 29.8481 274.05 29.6716C275.049 29.3746 276.067 29.1487 277.097 28.9956Z" fill="black"/>
<path d="M321.495 57.5761C321.601 56.7071 321.413 55.8273 320.962 55.0806C320.511 54.3339 319.824 53.7645 319.013 53.4655C315.619 51.816 314.407 49.8751 316.363 45.4147C316.535 45.0458 316.686 44.6673 316.816 44.2812C317.119 43.283 317.933 42.013 317.565 41.3442C316.719 40.167 315.692 39.1352 314.524 38.2882C314.012 37.9244 313.521 37.5305 313.053 37.1085C312.942 36.9445 312.873 36.7546 312.853 36.5564C312.834 36.3581 312.864 36.1581 312.941 35.9749C313.069 35.8099 313.234 35.6792 313.423 35.5942C313.612 35.5093 313.819 35.4727 314.025 35.4876C316.721 36.288 318.994 38.1389 320.348 40.6353C321.231 42.3362 320.348 43.9919 319.788 45.625C319.411 46.4987 319.151 47.42 319.016 48.364C319.016 48.8174 319.636 49.396 320.095 49.7704C321.068 50.5583 322.219 51.1307 323.102 51.9986C325.471 54.3118 325.701 57.0252 324.577 59.9365C324.158 61.0249 323.61 62.0682 323.113 63.1228C322.66 64.0922 321.772 64.6708 320.927 64.1712C320.653 63.8836 320.448 63.5351 320.33 63.1533C320.212 62.7715 320.183 62.3669 320.245 61.9718C320.575 60.4809 320.993 59.0116 321.498 57.5719L321.495 57.5761Z" fill="black"/>
<path d="M299.09 66.0356C298.123 71.9722 296.675 77.3353 293.021 81.9105C290.905 84.6159 288.302 86.8899 285.35 88.6123C284.868 88.9597 284.297 89.1569 283.706 89.1796C283.276 89.1283 282.589 88.5221 282.589 88.1764C282.611 87.8627 282.694 87.5567 282.834 87.2762C282.975 86.9957 283.169 86.7465 283.405 86.5432C284.72 85.5112 286.345 84.8424 287.486 83.6514C289.384 81.8532 291.021 79.7916 292.349 77.5281C293.88 74.2463 295.24 70.8851 296.424 67.4585C296.644 66.8437 296.961 66.2693 297.362 65.7576C297.516 65.598 297.704 65.4766 297.911 65.4029C298.119 65.3292 298.341 65.3053 298.559 65.3329C298.866 65.3606 299.034 65.9443 299.09 66.0356Z" fill="black"/>
<path d="M313.064 54.161C312.405 58.13 311.387 61.4691 308.033 63.3936C307.566 63.6672 307.044 63.8297 306.506 63.8689C305.968 63.9081 305.428 63.823 304.927 63.62C304.426 63.4169 303.977 63.1012 303.614 62.6967C303.25 62.2922 302.982 61.8093 302.83 61.2845C302.673 60.7172 303.087 59.9632 303.243 59.3005C303.869 59.4708 304.646 59.4646 305.093 59.8678C306.211 60.8372 307.089 60.8936 308.106 59.7714C309.168 58.635 309.88 57.2087 310.154 55.6676C310.428 54.1266 310.252 52.538 309.649 51.0968C309.056 49.396 307.306 49.1857 306.109 50.4731C305.773 50.8301 305.12 50.8835 304.616 51.0794C304.527 50.5121 304.247 49.911 304.392 49.4381C304.547 48.8008 304.905 48.2331 305.41 47.823C305.915 47.4129 306.54 47.1834 307.187 47.1699C308.864 47.1699 310.636 47.6408 311.441 49.3078C312.103 50.881 312.646 52.5036 313.064 54.161Z" fill="black"/>
<path d="M246.562 69.4088L247.444 67.9521C247.849 68.3779 248.417 68.7349 248.619 69.2396C250.016 72.7151 251.123 76.3271 252.749 79.6775C254.239 82.5264 256.46 84.9142 259.178 86.5886C259.217 86.5886 259.29 86.5886 259.312 86.6512C259.717 87.3313 260.121 88.0176 260.526 88.7028C259.759 88.8872 258.964 88.922 258.183 88.8054C254.007 87.1949 251.638 83.7029 249.932 79.8078C248.72 76.6971 247.669 73.5239 246.785 70.3013C246.749 70.0476 246.749 69.7898 246.785 69.536L246.562 69.4088Z" fill="black"/>
<path d="M261.615 23.9878C262.912 24.4074 264.245 24.7418 265.484 25.2804C265.996 25.5863 266.38 26.0726 266.563 26.6468C266.875 27.5423 266.233 28.1322 265.322 27.8942C259.38 26.3462 256.132 27.6449 252.739 32.9065C252.497 33.3567 252.157 33.7445 251.744 34.04C251.192 34.271 250.615 34.4309 250.024 34.516C249.985 33.8471 249.666 33.008 249.952 32.5484C250.95 30.8025 252.124 29.1664 253.456 27.6665C254.489 26.5119 255.749 25.5885 257.153 24.9552C258.558 24.3218 260.078 23.9923 261.615 23.9878Z" fill="black"/>
<path d="M233.081 63.0916C232.875 62.8427 232.725 62.5516 232.641 62.2383C232.557 61.925 232.541 61.597 232.594 61.2768C232.647 60.9566 232.768 60.6519 232.949 60.3838C233.129 60.1157 233.365 59.8905 233.64 59.7237C235.445 58.2496 235.35 56.3897 234.484 54.6725C233.068 51.8658 234.725 47.7214 236.592 45.839C236.871 45.6346 237.197 45.5042 237.538 45.4596C237.88 45.415 238.227 45.4576 238.548 45.5835C239.342 46.0965 238.548 46.6494 238.19 47.1828C236.631 49.3997 235.954 51.7181 237.144 54.4119C239.151 58.9472 237.507 60.5013 234.501 62.8033C234.131 63.0864 233.494 63.0126 233.081 63.0916Z" fill="black"/>
<path d="M264.606 2.27841C267.123 2.26907 269.586 3.01465 271.686 4.42139C273.035 5.2624 274.268 6.28028 275.353 7.44864C275.859 8.01593 276.298 9.4675 276.013 9.75576C275.174 10.6123 274.219 9.90861 273.383 9.27362C272.03 8.23649 270.627 7.26092 269.258 6.24636C266.289 4.05209 263.108 4.91995 259.872 5.40106C259.244 5.35808 258.63 5.19665 258.061 4.92507C258.508 4.44908 258.877 3.70638 259.413 3.54122C261.286 2.95341 263.215 2.59539 264.606 2.27841Z" fill="black"/>
<path d="M270.139 24.3689C271.145 19.6685 272.598 15.1845 277.117 12.5933C277.631 12.2988 278.453 12.5933 279.14 12.5933C278.983 13.2795 279.056 14.2428 278.634 14.6008C276.106 16.7274 274.934 19.7034 273.497 22.5388C273.241 23.1956 273.112 23.8964 273.117 24.6028C273.033 25.6573 272.827 26.8709 271.664 26.8709C270.397 26.8063 270.044 25.6502 270.139 24.3689Z" fill="black"/>
<path d="M274.287 77.0675C276.121 76.6079 277.948 76.1032 279.798 75.7339C280.34 75.7359 280.876 75.8403 281.38 76.0416C281.09 76.7792 280.966 77.9641 280.47 78.1569C278.824 78.7789 277.117 79.2182 275.377 79.4669C272.431 79.9316 269.464 80.2496 266.5 80.6005C265.671 80.7363 264.828 80.7707 263.99 80.7031C263.638 80.6518 263.23 80.1358 263.09 79.6998C263.028 79.5244 263.554 78.9458 263.889 78.8668C266.081 78.3539 268.3 77.9538 270.501 77.4778" fill="black"/>
<path d="M308.286 68.7679H312.417C313.102 68.7932 313.763 69.0306 314.311 69.4483C314.858 69.8659 315.267 70.4436 315.481 71.1037C315.651 71.7306 315.623 72.3955 315.401 73.0054C315.18 73.6154 314.776 74.1398 314.246 74.5054C313.978 74.7033 313.674 74.8449 313.352 74.9218C313.029 74.9988 312.695 75.0097 312.368 74.9537C312.094 74.9024 311.809 73.8879 311.87 73.3493C311.976 72.3686 311.68 72.0455 310.753 72.0793C309.698 72.2014 308.632 72.163 307.589 71.9654C306.823 71.75 305.744 71.0186 305.655 70.3898C305.657 69.3425 305.937 68.315 306.464 67.4148C306.63 67.2481 306.835 67.1269 307.06 67.0625C307.285 66.9981 307.522 66.9926 307.75 67.0465C308.056 67.3102 308.061 67.9626 308.286 68.7679Z" fill="black"/>
<path d="M284.393 41.8028C284.718 42.0244 285.321 42.2962 285.293 42.4491C285.198 43.0164 285.025 43.7365 284.628 43.9796C282.706 45.1532 280.715 46.1965 278.725 47.2798C278.043 47.713 277.323 48.0809 276.573 48.3784C275.991 48.4664 275.4 48.4664 274.818 48.3784C274.975 47.8111 274.942 46.9217 275.324 46.6776C277.139 45.407 279.02 44.2355 280.959 43.1682C282.071 42.6306 283.221 42.174 284.397 41.8018L284.393 41.8028Z" fill="black"/>
<path d="M259.858 49.8828C258.577 49.5084 257.577 49.1914 256.571 48.9134C255.123 48.5164 253.638 48.2158 252.228 47.7285C251.809 47.5808 251.557 46.9458 251.232 46.5375C251.697 46.237 252.217 45.6143 252.608 45.6922C255.035 46.1518 257.448 46.7129 259.824 47.3931C260.079 47.5227 260.3 47.7122 260.468 47.946C260.637 48.1798 260.747 48.451 260.791 48.7369C260.817 49.0939 260.168 49.5197 259.858 49.8828Z" fill="black"/>
<path d="M270.168 73.4286C268.201 72.8274 266.456 72.374 264.774 71.7277C264.563 71.5585 264.398 71.3383 264.294 71.0873C264.189 70.8362 264.149 70.5626 264.176 70.2915C264.305 70.0589 264.49 69.8636 264.714 69.7245C264.938 69.5855 265.194 69.5073 265.457 69.4976C267.096 69.6803 268.716 70.02 270.292 70.5121C270.609 70.6882 270.886 70.9311 271.103 71.2245C271.32 71.5178 271.472 71.8548 271.55 72.2129C271.61 72.493 270.659 73.0203 270.168 73.4286Z" fill="black"/>
<path d="M247.031 81.1899C247.412 81.6546 247.976 82.0691 248.149 82.6015C248.708 84.4665 246.696 88.379 244.879 89.0253C244.317 89.1156 243.741 88.9944 243.261 88.6847C243.191 88.4801 243.168 88.2621 243.194 88.0472C243.219 87.8322 243.292 87.6259 243.406 87.4435C245.215 85.9149 246.363 83.7294 246.603 81.3541L247.031 81.1899Z" fill="black"/>
<path d="M272.604 92.1546L271.726 93.2881C271.229 92.8624 270.368 92.489 270.301 92.0068C270.069 90.0693 269.963 88.1184 269.983 86.1667C269.983 85.8097 270.542 85.4486 270.877 85.0947C271.257 85.4466 271.911 85.7523 271.994 86.1554C272.258 87.9589 272.376 89.7961 272.604 92.1546Z" fill="black"/>
<path d="M268.879 92.2744C268.813 92.3421 268.616 92.734 268.32 92.8417C268.024 92.9494 267.381 92.813 267.342 92.6601C267.001 91.4014 266.743 90.1211 266.57 88.8276C266.57 88.6573 267.207 88.2121 267.543 88.2213C267.879 88.2306 268.136 88.686 268.365 88.9979C268.495 89.2156 268.571 89.4619 268.588 89.716C268.692 90.4546 268.764 91.2024 268.879 92.2744Z" fill="black"/>
<path d="M277.01 90.9358C276.284 91.5995 275.893 92.257 275.411 92.3309C274.466 92.4725 273.566 90.8342 273.734 89.2072C273.785 88.7364 274.394 88.3281 274.746 87.8921L277.01 90.9358Z" fill="black"/>
<path d="M284.276 55.0017C284.407 55.0933 284.516 55.2142 284.594 55.355C284.672 55.4958 284.717 55.6528 284.727 55.8141C284.736 55.9754 284.708 56.1367 284.647 56.2857C284.585 56.4347 284.491 56.5674 284.371 56.6738C283.985 57.0843 283.513 57.4019 282.99 57.6032C282.66 57.6935 281.675 56.7415 281.632 56.2142C281.57 55.3463 281.984 54.2651 283.198 54.4569C283.592 54.5567 283.96 54.7426 284.277 55.0017H284.276Z" fill="black"/>
<path d="M276.468 88.0093C276.804 87.5446 277.027 86.8757 277.463 86.7393C277.742 86.6367 278.441 87.1763 278.648 87.5897C278.972 88.2701 279.162 89.0076 279.208 89.7614C279.19 89.962 279.123 90.1549 279.012 90.3223C278.902 90.4897 278.752 90.6263 278.576 90.7195C278.378 90.7478 278.177 90.7263 277.99 90.6571C277.803 90.5878 277.635 90.4729 277.502 90.3225C277.103 89.578 276.757 88.8048 276.468 88.0093Z" fill="black"/>
<path d="M265.014 90.4713C264.64 90.9021 264.265 91.7023 263.897 91.7023C262.589 91.7023 262.589 90.4713 262.561 89.5932C262.561 89.0259 263.086 88 263.405 87.9939C264.87 87.959 264.618 89.2239 265.014 90.4713Z" fill="black"/>
<path d="M259.976 58.1345C258.394 58.1345 258.155 57.3067 258.064 56.4337C258.042 56.2413 258.068 56.0465 258.139 55.8667C258.209 55.6868 258.323 55.5275 258.469 55.4028C258.615 55.2782 258.789 55.1922 258.976 55.1524C259.163 55.1127 259.357 55.1204 259.54 55.175C259.878 55.3191 260.18 55.5395 260.422 55.8194C260.664 56.0994 260.841 56.4315 260.937 56.7907C261.021 57.1836 260.227 57.7991 259.976 58.1345Z" fill="black"/>
<path d="M312.154 149.015C314.317 152.417 316.357 155.609 318.359 158.818C319.067 159.869 319.676 160.985 320.179 162.152C320.425 162.692 320.486 163.299 320.353 163.878C320.221 164.457 319.902 164.975 319.447 165.349C317.412 167.124 315.428 168.989 314.416 171.587C313.38 174.239 312.479 176.944 311.717 179.691C310.23 185.071 308.743 190.462 307.525 195.911C306.094 202.329 304.925 208.804 303.681 215.262C302.821 219.769 302.033 224.289 301.199 228.803C300.31 233.656 299.428 238.514 298.505 243.363C298.142 245.268 297.745 247.166 297.247 249.032C297.045 249.809 296.615 250.58 295.519 250.28C295.307 250.25 295.104 250.174 294.923 250.056C294.743 249.939 294.59 249.783 294.474 249.6C294.359 249.417 294.284 249.21 294.255 248.995C294.226 248.779 294.243 248.56 294.306 248.352C295.424 242.047 296.542 235.745 297.66 229.444C298.56 224.387 299.337 219.307 300.382 214.289C302.327 205.065 304.295 195.841 306.532 186.684C307.812 181.411 309.505 176.23 311.21 171.081C312.05 168.285 313.83 165.877 316.241 164.277C317.359 163.569 317.186 162.577 316.593 161.686C314.916 159.18 313.133 156.776 311.562 154.208C310.658 152.676 309.939 151.038 309.421 149.332C309.203 148.728 309.225 148.062 309.482 147.475C309.74 146.888 310.213 146.425 310.802 146.186C313.722 144.596 316.909 143.569 320.199 143.158C321.736 142.92 323.24 142.461 324.777 142.229C325.755 142.081 325.795 141.614 325.538 140.851C324.817 138.736 324.045 136.639 323.419 134.501C322.569 131.598 321.831 128.661 321.054 125.742C319.746 120.843 318.442 115.944 317.141 111.046C316.448 108.46 315.637 105.903 315.039 103.295C314.73 101.899 314.616 100.465 314.704 99.037C314.737 98.5098 315.582 98.0338 316.056 97.5342C316.355 98.0015 316.601 98.5019 316.788 99.0257C317.146 100.565 317.302 102.149 317.727 103.657C319.191 108.828 320.717 113.981 322.26 119.124C323.059 121.8 323.937 124.448 324.788 127.112C326.103 131.353 327.427 135.589 328.701 139.846C329.083 140.957 329.285 142.123 329.299 143.299C329.242 143.665 329.098 144.012 328.879 144.308C328.659 144.605 328.372 144.842 328.041 145C326.415 145.419 324.687 145.419 323.01 145.765C320.037 146.395 317.079 147.12 314.139 147.886C313.43 148.168 312.762 148.548 312.154 149.015Z" fill="white"/>
<path d="M246.015 152.962C242.298 154.096 239.137 155.406 236.741 158.167C236.264 158.764 235.657 159.241 234.969 159.562C234.153 159.879 233.013 160.254 232.398 159.903C232.081 159.599 231.846 159.217 231.715 158.794C231.585 158.371 231.564 157.921 231.655 157.488C232.684 152.953 233.891 148.417 235.009 143.881C235.758 140.837 236.334 137.741 237.15 134.708C238.465 129.821 239.827 124.934 241.353 120.109C242.471 116.588 243.852 113.157 245.165 109.711C245.475 109.104 245.85 108.534 246.283 108.01L246.789 108.044C246.873 108.611 247.147 109.177 247.012 109.648C245.697 114.286 244.267 118.89 242.959 123.528C241.774 127.734 240.579 131.94 239.606 136.194C238.158 142.459 236.889 148.763 235.56 154.954C236.856 153.922 238.244 153.014 239.707 152.244C242.501 151.07 245.381 150.175 248.259 149.269C248.534 149.203 248.821 149.206 249.095 149.277C249.368 149.349 249.621 149.487 249.83 149.679C249.962 149.956 250.034 150.258 250.041 150.565C250.048 150.872 249.989 151.177 249.869 151.459C246.192 159.12 243.074 167.045 240.54 175.169C240.267 175.914 240.278 176.736 240.574 177.472C242.284 180.036 242.983 183 244.022 185.834C245.409 189.61 247.029 193.295 248.349 197.089C250.026 201.936 251.524 206.84 253.039 211.745C254.085 215.147 255.035 218.548 256.007 221.95C257.489 227.144 258.886 232.365 260.479 237.535C261.228 239.998 262.299 242.371 263.21 244.787C263.589 245.663 263.893 246.569 264.12 247.497C264.121 248.077 264.022 248.653 263.83 249.198C263.232 248.983 262.332 248.943 262.086 248.518C261.127 246.849 260.295 245.107 259.599 243.308C258.218 239.707 256.843 236.101 255.686 232.422C254.182 227.6 252.969 222.676 251.499 217.839C249.224 210.367 246.915 202.911 244.473 195.496C243.131 191.43 241.526 187.456 239.962 183.464C239.364 181.95 238.575 180.511 237.832 179.06C237.458 178.48 237.214 177.824 237.118 177.138C237.021 176.452 237.074 175.753 237.272 175.091C238.849 170.787 240.307 166.427 241.957 162.153C243.153 159.148 244.567 156.234 246.015 152.962Z" fill="white"/>
<path d="M291.258 114.951C291.029 118.104 290.672 121.25 290.599 124.403C290.493 128.989 290.599 133.582 290.599 138.174V151.215C290.643 157.105 290.772 163.002 290.772 168.898C290.772 175.134 290.537 181.311 290.659 187.517C290.799 194.605 291.219 201.691 291.515 208.773C291.761 214.981 291.912 221.201 292.192 227.409C292.387 231.713 292.751 236.016 292.963 240.319C292.963 240.75 292.499 241.589 292.264 241.583C291.705 241.583 290.862 241.283 290.699 240.874C290.175 239.658 289.849 238.364 289.732 237.042C289.429 231.049 289.268 225.051 289.017 219.058C288.866 215.299 288.592 211.551 288.458 207.792C288.195 199.645 287.898 191.498 287.787 183.344C287.692 177.497 287.787 171.642 287.86 165.769C287.922 158.835 288.028 151.895 288.083 144.955C288.134 139.178 287.999 133.389 288.201 127.611C288.329 123.761 288.916 119.924 289.269 116.079C289.37 114.945 289.269 113.811 289.442 112.706C289.508 112.246 289.968 111.844 290.251 111.418C290.631 111.81 290.939 112.267 291.161 112.767C291.253 113.48 291.266 114.201 291.2 114.917L291.258 114.951Z" fill="white"/>
<path d="M361.165 266.94C360.483 267.717 360.047 268.601 359.605 268.641C358.783 268.668 357.981 268.372 357.369 267.813C355.323 265.545 353.495 263.057 351.467 260.755C348.873 257.812 346.217 254.914 343.477 252.109C341.302 249.875 338.815 247.942 336.769 245.617C334.988 243.485 333.366 241.222 331.914 238.847C331.781 238.563 331.72 238.249 331.737 237.935C331.755 237.621 331.851 237.316 332.015 237.049C332.882 236.341 333.229 237.236 333.692 237.894C336.487 242.072 340.199 245.338 343.933 248.615C347.024 251.325 349.858 254.33 352.799 257.215C354.593 258.973 356.455 260.68 358.121 262.556C359.197 263.819 360.063 265.362 361.165 266.94Z" fill="white"/>
<path d="M255.41 526.464C254.912 527.122 254.378 527.752 253.811 528.351C251.53 530.539 249.216 532.7 246.902 534.854C245.192 536.453 244.403 536.357 242.911 534.327C246.422 530.761 251.094 528.975 255.048 526.101C255.169 526.224 255.287 526.345 255.41 526.464Z" fill="white"/>
<path d="M251.331 541.044L254.864 532.54L255.344 532.67C255.227 533.566 255.121 534.468 254.975 535.363C254.86 536.321 254.673 537.269 254.416 538.199C254.145 539.143 253.732 540.04 253.192 540.858C252.918 541.248 252.181 541.3 251.65 541.504C251.555 541.343 251.448 541.189 251.331 541.044Z" fill="white"/>
<path d="M267.132 541.533C266.115 541.697 265.042 541.635 265.024 540.342C265.122 539.496 265.48 538.702 266.047 538.074C266.226 537.847 267.355 537.983 267.589 538.307C268.462 539.44 267.965 540.557 267.132 541.533Z" fill="white"/>
<path d="M352.133 534.032C352.02 535.228 351.495 535.84 350.372 535.858C349.025 535.858 348.985 534.724 348.956 533.93C348.932 533.696 348.958 533.459 349.032 533.236C349.107 533.013 349.228 532.809 349.387 532.637C349.546 532.465 349.739 532.331 349.954 532.242C350.169 532.153 350.401 532.112 350.633 532.122C351.931 532.115 351.881 533.272 352.133 534.032Z" fill="white"/>
<path d="M269.022 530.451C268.955 532.118 268.407 533.016 267.261 532.861C266.756 532.793 266.144 531.858 265.987 531.212C265.922 530.977 265.912 530.731 265.958 530.492C266.005 530.253 266.106 530.029 266.254 529.838C266.401 529.646 266.592 529.492 266.809 529.389C267.026 529.286 267.264 529.236 267.504 529.244C268.095 529.24 268.676 530.144 269.022 530.451Z" fill="white"/>
<path d="M265.25 545.399C265.25 547.099 264.551 547.893 263.472 547.939C263.047 547.939 262.32 547.054 262.209 546.482C262.006 545.472 263.176 544.112 263.886 544.361C264.403 544.614 264.866 544.966 265.25 545.399Z" fill="white"/>
<path d="M360.465 551.9C361.072 551.447 361.75 550.574 362.276 550.659C362.631 550.796 362.947 551.02 363.194 551.313C363.441 551.605 363.612 551.955 363.692 552.331C363.743 552.813 362.865 553.738 362.283 553.845C361.354 554.005 360.75 553.279 360.465 551.9Z" fill="white"/>
<path d="M370.708 557.511C370.148 557.879 369.467 558.644 369.159 558.531C368.802 558.366 368.481 558.131 368.214 557.839C367.948 557.547 367.741 557.204 367.606 556.831C367.505 556.451 368.366 555.424 368.897 555.339C370.015 555.18 370.334 556.178 370.708 557.511Z" fill="white"/>
<path d="M254.852 556.217C253.913 556.897 253.343 557.577 252.684 557.68C252.32 557.743 251.47 556.859 251.438 556.359C251.422 556.133 251.452 555.907 251.523 555.693C251.595 555.48 251.708 555.283 251.856 555.114C252.004 554.945 252.184 554.807 252.384 554.709C252.585 554.612 252.803 554.555 253.025 554.544C253.523 554.573 254.029 555.428 254.852 556.217Z" fill="white"/>
<path d="M360.46 530.278C361.578 532.416 365.011 533.113 363.814 536.657L360.063 530.545L360.46 530.278Z" fill="white"/>
<path d="M260.48 550.467C260.357 551.828 259.921 552.424 258.91 552.395C258.094 552.395 257.512 551.97 257.624 551.085C257.736 550.2 258.15 549.282 259.217 549.463C259.749 549.554 260.184 550.211 260.48 550.467Z" fill="white"/>
<path d="M349.186 524.313C349.538 524.929 350.208 525.583 350.141 526.145C350.075 526.706 349.219 527.074 348.71 527.534C348.306 527.063 347.593 526.604 347.564 526.122C347.564 525.527 348.124 524.915 348.447 524.313H349.186Z" fill="white"/>
<path d="M358.844 546.929C357.698 547.802 356.842 547.939 356.255 546.98C356.124 546.736 356.047 546.465 356.029 546.187C356.01 545.909 356.051 545.63 356.149 545.37C356.47 544.991 356.919 544.746 357.407 544.684C357.934 545.4 358.414 546.15 358.844 546.929Z" fill="white"/>
<path d="M351.488 541.113C352.148 540.545 352.561 539.899 352.964 539.905C353.69 539.905 354.546 540.316 354.249 541.317C354.099 541.83 353.534 542.212 353.132 542.65L351.488 541.113Z" fill="white"/>
<path d="M364.407 527.244C364.262 527.697 364.139 528.065 363.971 528.578L361.629 526.383L361.757 526.178L364.407 527.244Z" fill="white"/>
</svg>
