<svg width="137" height="345" viewBox="0 0 137 345" fill="none" xmlns="http://www.w3.org/2000/svg">
<path d="M15.7607 162.786L16.2231 166.272L24.1609 161.981L33.2738 146.472L28.3601 143.783L15.7607 162.786Z" fill="white"/>
<path d="M50.1359 55.8129L48.508 52.359L45.2061 50.117L43.1259 46.3693L41.3432 49.2693C41.3432 49.2693 38.867 52.6184 38.824 52.0791C38.781 51.5398 37.3215 45.3107 37.3215 45.3107L32.8511 37.4335L34.942 33.616L33.9682 30.9105L35.0609 27.7596L33.2687 20.784L39.183 8.72578L45.9558 5.17618H49.8187L47.1775 3.06629L51.6121 2.56396L56.0927 4.34907L60.1604 2.56396L64.7169 0.685547L72.3404 1.51266L77.0002 5.65548L78.6132 11.767L77.8366 16.74L82.4964 20.089L83.512 21.1403L83.1816 24.1543L82.6039 29.123L85.591 32.9877L84.9272 37.4577L80.6348 43.4856L73.0406 44.4733L72.3816 55.8401L62.5841 68.1377L49.7996 69.4102C49.7996 69.4102 47.2409 59.3631 47.1584 59.1698C47.076 58.9765 50.1359 55.8129 50.1359 55.8129Z" fill="white"/>
<path d="M15.85 164.215C15.7089 164.025 15.5975 163.815 15.5196 163.592C15.117 160.913 13.9347 158.488 12.9442 156.01C12.4536 154.796 11.9027 153.609 11.2936 152.453C11.038 152.048 10.7099 151.696 10.3263 151.415C8.71334 150.042 7.32496 148.464 6.79327 146.365C6.53687 145.04 6.38663 143.696 6.34401 142.346C6.29144 141.706 6.37389 141.047 6.28427 140.414C5.95391 138.069 6.81597 136.117 8.09024 134.294C8.36744 133.895 8.47318 133.711 8.17926 133.236C7.2234 131.675 7.58483 130.449 9.16976 129.418C9.36474 129.284 9.51904 129.097 9.61543 128.879C10.8102 126.24 12.1514 123.655 13.1222 120.932C13.8487 118.89 15.1032 117.004 15.2221 114.764C15.2527 113.996 15.1578 113.229 14.9413 112.493C14.5052 110.963 14.8392 109.516 15.2155 108.056C15.3243 107.628 15.3673 107.182 15.4993 106.763C15.6783 106.2 15.8854 105.647 16.12 105.106C16.7802 103.555 17.5825 102.044 18.147 100.454C18.3854 99.4955 18.5347 98.5167 18.5927 97.5301C18.6554 97.1447 18.7976 96.7763 18.8914 96.3946C19.1029 95.5172 19.3096 94.6374 19.5121 93.7557C19.5318 93.6685 19.4924 93.5345 19.542 93.4909C20.5785 92.6135 19.9052 91.5689 19.8526 90.5739C19.7965 89.4354 19.8066 88.2901 19.803 87.1516C19.803 85.1992 19.6644 83.2336 19.8228 81.2945C19.9639 78.8536 20.8919 76.5272 22.4639 74.6734C24.2633 72.6005 25.9886 70.447 27.9284 68.5146C29.4652 67.1073 31.0847 65.7958 32.7782 64.5875C32.8937 64.4902 33.0271 64.4171 33.1707 64.3722C33.3142 64.3274 33.465 64.3118 33.6145 64.3264C34.5489 64.5942 35.2652 64.0416 36.0185 63.7368C38.6931 62.6752 40.7566 60.6992 42.9986 58.9711C44.9736 57.5089 47.0199 56.1487 49.1299 54.8955C50.0015 54.3562 50.8623 54.9561 50.9657 56.0377C50.9645 56.3098 50.9469 56.5815 50.9131 56.8515C50.777 58.3275 50.7395 59.8112 50.8008 61.2924C50.8767 62.0801 51.5338 62.8073 51.9269 63.5665C52.0413 63.7396 52.1344 63.9262 52.2041 64.1222C52.2842 64.4779 52.4811 64.7956 52.7624 65.0231C53.0437 65.2507 53.3928 65.3746 53.7526 65.3746C57.0282 65.8503 60.0254 65.0868 62.9676 63.5998C65.794 62.1831 67.4912 59.946 68.6568 57.1399C69.3636 55.6688 69.9553 54.1436 70.4263 52.5784C70.6901 51.2112 70.7579 49.8126 70.6276 48.4259C70.5613 46.865 71.1826 45.5392 71.7567 44.1928C72.1032 43.3856 73.2293 43.2281 74.0681 43.8577C76.6202 45.73 78.9913 47.8193 80.5625 50.626C81.2591 51.8682 82.2992 52.0124 83.4056 52.0427C85.3866 52.1033 87.3676 51.9458 89.3486 52.0427C90.7034 52.133 92.0479 52.3427 93.3668 52.6693C94.5718 52.9407 95.7373 53.3758 96.9196 53.7442C97.1472 53.8145 97.385 54.0054 97.5797 53.9684C99.0523 53.7072 100.221 54.578 101.44 55.1039C102.613 55.5729 103.692 56.2537 104.626 57.1132C105.302 57.7828 105.616 58.8614 105.979 59.7921C106.392 60.8773 106.666 62.0123 107.006 63.1248C107.469 64.6354 107.931 66.1387 108.413 67.6524C108.894 69.166 109.492 70.6663 109.922 72.2206C110.763 75.1544 111.794 78.0288 113.009 80.8249C113.92 82.9615 114.904 85.0714 115.684 87.2582C116.648 89.9577 117.368 92.7505 118.325 95.4566C118.959 97.2581 119.86 98.9632 120.567 100.741C121.296 102.579 121.931 104.455 122.621 106.307C123.281 108.052 123.888 109.807 124.602 111.518C125.409 113.408 125.452 115.544 124.721 117.466C124.498 118.048 124.413 118.675 124.474 119.297C124.536 119.918 124.741 120.516 125.074 121.041C125.816 122.321 126.045 123.841 125.715 125.288C125.196 127.843 124.44 130.355 123.697 132.857C123.265 134.307 122.622 135.693 122.136 137.13C121.526 138.666 121.043 140.251 120.693 141.868C120.59 142.793 120.201 143.662 119.582 144.35C118.963 145.037 118.145 145.508 117.246 145.696C115.849 146.059 114.905 147.009 113.841 147.782C112.418 148.817 111.199 150.126 109.816 151.236C108.432 152.345 108.254 153.888 108.535 155.385C108.978 157.763 109.8 160.074 110.295 162.439C110.803 164.87 111.035 167.358 111.527 169.789C111.999 172.107 112.742 174.364 113.207 176.678C113.752 179.357 114.885 181.839 115.773 184.404C116.457 186.359 116.776 188.426 116.714 190.499C116.634 193.031 116.843 195.57 116.789 198.101C116.742 201.724 117.149 205.339 117.998 208.858C118.638 211.905 119.464 214.91 120.471 217.853C121.954 221.892 122.848 226.075 124.017 230.191C124.631 232.417 125.445 234.58 126.451 236.654C128.214 240.159 129.624 243.836 130.657 247.628C131.317 250.15 132.166 252.625 132.85 255.142C133.454 257.353 133.952 259.593 134.5 261.82C135.16 264.547 135.732 267.306 136.511 270C136.983 271.636 136.089 272.345 134.645 272.214C131.793 271.983 128.937 271.715 126.061 271.628C124.993 271.697 123.941 271.923 122.937 272.298C122.732 272.351 122.531 272.696 122.468 272.944C121.864 275.453 121.293 277.967 120.708 280.479C119.986 283.59 119.388 286.72 118.285 289.746C117.294 292.495 116.672 295.381 115.895 298.215C115.565 299.404 115.271 300.599 114.954 301.79C114.552 303.314 113.304 303.85 112.035 304.389C110.687 304.925 109.239 305.153 107.794 305.058C106.473 305.018 105.112 305.393 103.501 305.621C104.492 306.643 105.248 307.688 106.436 308.217C107.786 308.819 109.15 309.388 110.534 309.891C111.996 310.436 112.158 310.818 111.799 312.365C111.591 313.256 111.211 314.137 111.937 315.142C112.551 315.982 112.208 317.151 111.769 318.076C111.33 319 111.501 319.576 111.904 320.473C112.915 322.715 114.975 323.382 116.857 324.261C119.498 325.5 122.249 326.564 124.57 328.424C125.812 329.429 127.175 330.323 128.159 331.539C128.821 332.431 129.151 333.532 129.091 334.646C128.955 336.253 128.212 337.745 127.017 338.809C125.583 340.199 123.907 340.484 122.266 340.688C119.225 341.096 116.135 341.146 113.06 341.271C112.282 341.223 111.509 341.111 110.749 340.936C108.504 340.58 106.229 340.359 104.023 339.845C101.91 339.349 99.8666 338.549 97.7894 337.889C97.2016 337.707 96.6107 337.554 95.9303 337.333C95.8327 337.477 95.7486 337.629 95.6794 337.789C95.6416 337.966 95.567 338.133 95.4606 338.279C95.3542 338.425 95.2184 338.546 95.0622 338.634C94.906 338.723 94.7331 338.776 94.5549 338.792C94.3767 338.807 94.1973 338.784 94.0287 338.723C93.1601 338.519 92.3016 338.268 91.4366 338.054C89.9275 337.696 88.4155 337.344 86.8998 337.012C85.579 336.721 85.1267 336.272 84.889 334.946C84.3923 332.005 84.3088 329.009 84.6411 326.045C84.7337 325.13 84.4989 324.185 84.552 323.265C84.6906 320.397 85.2526 317.565 86.2194 314.866C86.9955 312.569 87.3666 310.151 87.3157 307.723C87.3454 307.307 87.4118 306.894 87.514 306.49C87.0713 306.058 86.6179 305.636 86.1931 305.194C84.8722 303.854 83.552 302.478 82.2144 301.122C80.7716 299.652 79.2793 298.225 77.8987 296.695C77.0379 295.838 76.3367 294.83 75.8287 293.721C75.4487 292.74 75.604 291.539 75.5676 290.432C75.5246 289.092 75.5246 287.753 75.5115 286.414C75.4917 284.498 75.4421 282.582 75.4654 280.667C75.5085 277.167 75.6447 273.668 75.6447 270.165C75.6447 267.983 75.5252 265.811 75.331 263.62C75.1665 262.305 74.9217 261.001 74.598 259.716C73.9377 256.675 73.2773 253.635 72.617 250.596C72.3813 249.379 72.0635 248.179 71.6659 247.006C71.458 247.82 71.3075 248.66 71.0255 249.447C70.3289 251.367 70.3916 253.336 70.5135 255.318C70.6927 258.195 70.768 261.085 71.0613 263.949C71.4144 267.418 71.9993 270.861 72.3822 274.33C72.574 276.052 72.531 277.8 72.6301 279.535C72.7096 280.875 72.8548 282.214 72.9605 283.553C73.2048 286.688 73.4725 289.823 73.6637 292.961C73.7121 294.239 73.6946 295.519 73.6111 296.795C73.5922 297.118 73.477 297.428 73.2807 297.683C72.4222 298.784 71.4682 299.816 70.6396 300.951C69.624 302.351 68.6849 303.811 67.7869 305.288C67.6268 305.702 67.5702 306.149 67.6221 306.591C67.6221 307.89 67.4171 308.067 65.9445 307.88C66.0043 309.143 66.0174 310.385 66.1393 311.618C66.2437 313.041 66.4433 314.455 66.7367 315.851C67.0412 316.736 67.4248 317.591 67.8825 318.406C68.1059 318.826 68.267 319.278 68.3605 319.746C68.6404 321.181 68.6661 322.655 68.4363 324.099C68.1376 325.473 68.5719 326.99 68.5253 328.453C68.4787 329.916 68.4925 331.394 67.9877 332.673C67.677 333.467 66.5252 334.013 65.6434 334.465C63.5633 335.506 61.4371 336.474 59.2906 337.355C58.7142 337.537 58.1038 337.581 57.5079 337.482C56.4939 337.453 55.4988 337.765 54.678 338.37C52.697 339.582 50.8612 341.049 48.8174 342.117C47.1303 343.005 45.2252 343.457 43.4288 344.126C40.2721 345.312 36.9935 345.001 33.7543 344.84C32.679 344.789 31.6216 344.24 30.5749 343.862C29.8485 343.6 29.1585 343.228 28.4452 342.931C26.5269 342.127 26.0645 340.975 25.7246 338.976C25.3846 336.977 26.362 335.292 26.6888 333.467C26.8142 332.77 27.5849 332.04 28.2474 331.628C29.4927 330.928 30.7733 330.294 32.084 329.729C33.7346 328.932 34.9402 327.602 36.1912 326.323C37.9037 324.437 39.9215 322.861 42.1575 321.665C40.8862 320.635 40.8928 320.64 41.4974 319.046C41.6688 318.59 41.7746 318.112 41.9825 317.401C41.253 317.974 40.7016 318.359 40.2064 318.811C40.0905 318.93 39.9518 319.022 39.799 319.084C39.6463 319.145 39.4827 319.174 39.3184 319.168C39.1542 319.162 38.9929 319.122 38.8446 319.051C38.6963 318.979 38.5642 318.877 38.4565 318.751C38.1262 318.479 37.8789 318.135 37.5652 317.853C35.9146 316.357 36.0496 314.876 37.8956 313.651C39.9495 312.284 42.1121 311.085 44.2281 309.806C44.8124 309.471 45.3901 309.082 46.2091 308.577C45.2533 308.335 44.4987 308.148 43.7526 307.954C43.0064 307.76 42.2208 307.75 41.9167 306.789C41.8409 306.551 41.2566 306.531 41.0254 306.287C40.2267 305.449 39.4835 304.558 38.714 303.685C38.4267 303.35 38.1525 303.015 37.8723 302.68C36.4325 300.956 35.0758 299.153 33.5339 297.53C32.096 295.979 30.818 294.283 29.72 292.469C28.987 291.291 28.1668 290.158 27.4499 288.966C27.2201 288.581 27.1183 288.132 27.1595 287.684C27.8764 282.814 27.8561 277.901 28.107 273.002C28.1601 272.658 28.1039 272.305 27.9466 271.996C27.7892 271.686 27.5389 271.436 27.2318 271.28C25.3603 269.893 23.5924 268.367 21.9424 266.716C20.6615 265.48 19.6674 263.939 18.3764 262.72C17.0956 261.554 15.5119 260.786 13.8134 260.507C12.6117 260.182 11.3779 259.994 10.1352 259.947C7.58304 260.061 5.03748 260.399 2.49132 260.68C1.53547 260.788 0.352001 260.663 0.477457 259.294C0.565524 257.599 0.768526 255.911 1.08502 254.244C2.00623 250.333 3.14549 246.471 4.09298 242.563C4.5948 240.497 4.75311 238.347 5.28182 236.287C6.05128 233.212 7.07823 230.209 7.84411 227.137C8.66973 223.812 9.35974 220.439 10.03 217.09C10.4327 215.048 10.6902 212.975 10.9972 210.91C11.4333 207.926 11.8336 204.932 12.2619 201.948C12.7805 198.358 13.3373 194.775 13.8337 191.184C14.2268 188.344 14.6163 185.489 14.8971 182.655C15.1313 180.291 15.1648 177.912 15.3559 175.548C15.5949 172.564 15.9175 169.59 16.1845 166.61C16.1627 166.255 16.2363 165.901 16.3974 165.586C16.5585 165.27 16.801 165.005 17.0992 164.818C18.1694 163.998 19.098 163.003 19.8473 161.874C22.0959 158.83 24.2585 155.722 26.451 152.645C27.61 151.024 28.7809 149.413 29.9411 147.797C30.0315 147.677 30.1099 147.548 30.1753 147.412C30.2539 147.284 30.3033 147.14 30.32 146.991C30.3367 146.841 30.3203 146.69 30.2718 146.548C30.2233 146.406 30.1441 146.276 30.04 146.169C29.9358 146.062 29.8094 145.98 29.6699 145.928C29.4533 145.919 29.2377 145.962 29.0411 146.055C28.8446 146.148 28.673 146.287 28.5408 146.461C27.2002 148.376 25.9456 150.352 24.6415 152.298C23.5189 153.972 22.406 155.667 21.2243 157.301C19.6525 159.468 18.0216 161.591 16.4068 163.724C16.2341 163.906 16.0462 164.072 15.8452 164.22L15.85 164.215ZM79.1186 88.1932C79.4914 87.913 79.8959 87.679 80.3236 87.4964C82.0602 87.0443 83.8071 86.6153 85.5634 86.2439C86.5372 86.0397 87.5612 86.0397 88.535 85.7918C88.7303 85.6987 88.9003 85.5585 89.0298 85.3833C89.1594 85.2082 89.2446 85.0035 89.2781 84.7872C89.2699 84.0924 89.1507 83.4036 88.9251 82.7476C88.1789 80.2323 87.3999 77.7243 86.6137 75.226C86.125 73.6506 85.5933 72.0879 85.1202 70.5076C84.2091 67.47 83.3076 64.4257 82.4426 61.3718C82.1917 60.4811 82.1122 59.5431 81.8882 58.636C81.7775 58.3265 81.6324 58.031 81.4557 57.7549C81.1749 58.0494 80.679 58.3312 80.6563 58.6426C80.6048 59.4863 80.6716 60.3332 80.8547 61.1579C81.2077 62.6982 81.6869 64.2088 82.0961 65.7358C82.8751 68.6294 83.6456 71.5229 84.4075 74.4165C84.8663 76.141 85.3036 77.8758 85.8042 79.5906C86.174 80.8534 86.6298 82.0926 87.0558 83.3414C87.2075 83.7934 87.1848 84.0685 86.6065 84.1552C85.6985 84.2927 84.8101 84.5636 83.9021 84.7042C81.9581 84.9436 80.0755 85.5501 78.3515 86.4923C78.004 86.6337 77.7245 86.9069 77.5723 87.2538C77.4201 87.6008 77.4071 87.9942 77.5361 88.3507C77.8422 89.3587 78.2668 90.3257 78.8008 91.2308C79.722 92.7456 80.7818 94.1678 81.7723 95.6481C82.1224 96.1807 82.218 96.76 81.5644 97.1787C80.1404 98.1238 79.0887 99.5461 78.5929 101.197C77.6024 104.238 76.5856 107.299 75.8293 110.414C74.5084 115.822 73.3464 121.271 72.197 126.72C71.5727 129.683 71.1217 132.684 70.5888 135.671C69.9285 139.393 69.2681 143.116 68.6078 146.84C68.5708 146.963 68.5605 147.092 68.5777 147.219C68.5949 147.347 68.6391 147.469 68.7072 147.577C68.7754 147.685 68.8659 147.777 68.9725 147.846C69.0791 147.916 69.1992 147.961 69.3247 147.978C69.9848 148.156 70.2208 147.7 70.345 147.242C70.639 146.136 70.8732 145.015 71.0882 143.893C71.6331 141.029 72.1546 138.159 72.6797 135.292C73.1714 132.613 73.6356 129.954 74.1458 127.294C74.8788 123.477 75.5688 119.655 76.4159 115.864C77.1328 112.646 78.014 109.461 78.8922 106.283C79.3422 104.661 79.8744 103.063 80.4867 101.496C81.0775 99.9721 82.2496 98.8705 83.4582 97.8119C83.7268 97.5905 83.9151 97.2847 83.9934 96.9427C84.0718 96.6007 84.0356 96.242 83.8907 95.9232C83.5936 95.2342 83.2336 94.5749 82.8154 93.9539C81.602 92.0882 80.3869 90.2098 79.1186 88.1932ZM40.0516 90.5376C39.1967 92.4699 38.361 94.1914 37.671 95.9729C36.6805 98.4978 35.8351 101.073 34.9038 103.615C34.7809 104.006 34.7468 104.42 34.8041 104.826C34.8613 105.232 35.0083 105.619 35.2341 105.959C35.6732 106.817 36.1386 107.668 36.4923 108.561C37.4171 110.906 38.3645 113.266 39.1567 115.668C40.5995 120.048 41.9645 124.454 43.3069 128.866C44.1755 131.722 44.8918 134.63 45.7802 137.479C46.4403 139.653 47.2695 141.781 48.0916 143.909C48.5028 144.972 48.9939 146.001 49.5606 146.987C49.7058 147.239 50.2207 147.262 50.5905 147.389C50.7049 147.067 50.7629 146.727 50.762 146.384C50.6281 145.836 50.4482 145.3 50.2243 144.783C49.6866 143.357 49.0522 141.957 48.6113 140.5C47.6835 137.446 46.8579 134.361 45.9702 131.294C45.3955 129.284 44.8351 127.255 44.2168 125.266C43.3207 122.369 42.4341 119.472 41.4466 116.609C40.6699 114.367 39.7099 112.191 38.8909 109.961C38.2767 108.287 37.8639 106.539 36.8537 105.021C36.6799 104.587 36.6729 104.101 36.834 103.662C38.3304 98.8628 40.1722 94.1818 42.3445 89.6565C42.4153 89.4899 42.4499 89.3097 42.4459 89.1283C42.4418 88.9469 42.3993 88.7685 42.3212 88.6052C42.1976 88.4914 42.0485 88.4098 41.8869 88.3676C41.7252 88.3253 41.5558 88.3237 41.3934 88.3628C39.6932 88.8985 37.9828 89.4281 36.3417 90.1201C35.4779 90.5751 34.6579 91.1111 33.8923 91.721C34.6779 88.0641 35.4277 84.3533 36.282 80.6395C36.8662 78.1279 37.573 75.6429 38.263 73.158C39.0354 70.4185 39.8808 67.699 40.6568 64.9596C40.6739 64.638 40.6291 64.3161 40.5248 64.0119L40.2261 63.9919C39.9705 64.3013 39.7491 64.6382 39.5659 64.9965C38.7893 67.0325 37.9715 69.0563 37.3143 71.1384C36.4128 73.9863 35.6105 76.8748 34.8315 79.7621C34.3494 81.5539 34.0094 83.3826 33.5668 85.1804C32.9066 87.8593 32.1766 90.5388 31.5857 93.2176C31.5408 93.4737 31.5572 93.7369 31.6336 93.9852C31.7101 94.2335 31.8442 94.4594 32.0248 94.644C32.5386 94.7614 33.0767 94.6901 33.5435 94.4429C33.9499 94.2529 34.3079 93.971 34.5901 93.6188C35.9833 91.9827 37.8526 91.195 40.048 90.5242L40.0516 90.5376ZM66.7761 68.0996H66.7498C66.7886 67.6769 66.7807 67.2511 66.7265 66.8301C66.5953 66.5343 66.4132 66.2645 66.1889 66.0333C66.024 66.2842 65.7528 66.5223 65.711 66.7938C65.6219 67.4633 65.6679 68.1335 65.6088 68.7861C65.4009 71.0566 65.0538 73.324 64.9779 75.5981C64.8584 79.0107 64.9385 82.4301 64.9086 85.8427C64.8758 89.9419 64.813 94.0411 64.7766 98.1367C64.7467 101.591 64.6774 105.052 64.7336 108.518C64.8095 113.334 64.9725 118.147 65.1297 122.959C65.2026 125.179 65.3638 127.393 65.46 129.614C65.6088 133.153 65.699 136.696 65.8824 140.236C65.9513 141.017 66.1442 141.782 66.4535 142.5C66.5491 142.742 67.0545 142.908 67.3783 142.919C67.5169 142.919 67.8043 142.427 67.7911 142.172C67.6657 139.63 67.4608 137.088 67.3353 134.546C67.1704 130.862 67.0808 127.205 66.9356 123.538C66.7737 119.351 66.5133 115.165 66.4302 110.983C66.3573 107.319 66.4995 103.651 66.4965 99.9848C66.4965 96.5018 66.4207 93.0165 66.3944 89.5396C66.3777 86.9674 66.3944 84.3988 66.3944 81.8369C66.3944 79.1241 66.3317 76.4113 66.3944 73.7021C66.4243 71.7934 66.6333 69.9344 66.7707 68.0723L66.7761 68.0996ZM108.068 157.852C107.503 156.951 106.889 156.082 106.23 155.25C105.239 154.141 104.146 153.133 103.086 152.095C101.349 150.391 99.6754 148.616 97.8492 147.015C95.6435 145.08 93.451 143.15 91.8004 140.682C91.5393 140.294 91.335 139.765 90.8099 140.183C90.7126 140.34 90.6561 140.52 90.6456 140.706C90.6352 140.892 90.6711 141.077 90.7502 141.245C91.6127 142.643 92.5762 143.975 93.6327 145.23C94.8544 146.603 96.321 147.745 97.5947 149.064C99.2125 150.722 100.781 152.433 102.314 154.171C103.513 155.531 104.593 156.994 105.801 158.341C106.162 158.67 106.636 158.845 107.122 158.83C107.415 158.833 107.669 158.31 108.069 157.852H108.068ZM45.6022 311.145C45.5293 311.075 45.46 311.004 45.3907 310.931C43.053 312.627 40.293 313.683 38.2218 315.79C39.1035 316.989 39.5689 317.046 40.5791 316.101C41.946 314.829 43.3129 313.552 44.66 312.26C44.9949 311.906 45.3102 311.534 45.6045 311.145H45.6022ZM43.1916 319.758C43.2543 319.842 43.3206 319.923 43.3864 320.001C43.7 319.88 44.1361 319.85 44.2974 319.619C44.6164 319.136 44.8603 318.607 45.0203 318.049C45.1724 317.5 45.2828 316.94 45.3506 316.374C45.4367 315.845 45.4994 315.313 45.5687 314.784L45.2849 314.707L43.1916 319.758ZM52.5255 320.053C53.0178 319.47 53.298 318.811 52.7962 318.134C52.6576 317.943 51.9903 317.862 51.8851 317.996C51.5504 318.368 51.3391 318.836 51.2811 319.336C51.2913 320.113 51.9251 320.15 52.5261 320.046L52.5255 320.053ZM102.732 315.616C102.584 315.167 102.613 314.484 101.836 314.487C101.699 314.481 101.563 314.505 101.436 314.558C101.309 314.61 101.194 314.69 101.1 314.791C101.006 314.893 100.935 315.013 100.891 315.145C100.847 315.277 100.832 315.417 100.846 315.555C100.863 316.011 100.885 316.706 101.682 316.694C102.357 316.695 102.667 316.32 102.734 315.613L102.732 315.616ZM53.6415 313.499C53.4366 313.322 53.0937 312.786 52.7454 312.786C52.6038 312.781 52.4631 312.811 52.3348 312.872C52.2064 312.933 52.0941 313.023 52.0068 313.137C51.9195 313.25 51.8597 313.382 51.8324 313.523C51.805 313.664 51.8108 313.81 51.8493 313.948C51.9449 314.33 52.3051 314.882 52.602 314.922C53.2789 315.023 53.6033 314.481 53.6421 313.497L53.6415 313.499ZM51.4126 322.33C51.1899 322.076 50.9209 321.868 50.6204 321.717C50.1879 321.57 49.4979 322.387 49.6299 322.97C49.6962 323.305 50.1251 323.841 50.3761 323.83C51.0009 323.802 51.4167 323.34 51.4138 322.328L51.4126 322.33ZM107.655 326.168C107.824 326.986 108.18 327.421 108.73 327.319C109.061 327.259 109.592 326.71 109.563 326.425C109.515 326.203 109.414 325.996 109.268 325.823C109.122 325.651 108.936 325.518 108.726 325.437C108.416 325.385 108.016 325.898 107.656 326.166L107.655 326.168ZM113.704 329.484C113.483 328.696 113.295 328.107 112.634 328.214C112.32 328.265 111.812 328.884 111.871 329.095C111.951 329.316 112.073 329.519 112.23 329.691C112.388 329.864 112.578 330.003 112.789 330.1C112.968 330.167 113.403 329.701 113.704 329.484ZM45.2724 328.717C44.7873 328.252 44.4898 327.73 44.1929 327.73C44.0615 327.736 43.9328 327.77 43.8142 327.827C43.6957 327.885 43.5896 327.966 43.5023 328.066C43.415 328.166 43.3482 328.282 43.3057 328.409C43.2632 328.535 43.246 328.668 43.2549 328.802C43.2747 329.096 43.7765 329.619 43.9909 329.582C44.3972 329.521 44.727 329.12 45.2718 328.718L45.2724 328.717ZM107.653 313.396L107.414 313.554L109.629 317.164C110.343 315.067 108.302 314.659 107.655 313.396H107.653ZM48.597 325.324C48.4219 325.173 48.1644 324.785 47.8508 324.731C47.2199 324.624 46.9726 325.156 46.9099 325.689C46.8472 326.223 47.1871 326.45 47.6692 326.463C48.2666 326.48 48.5241 326.128 48.597 325.325V325.324ZM100.993 309.873H100.557C100.365 310.228 100.026 310.589 100.036 310.941C100.036 311.226 100.472 311.496 100.713 311.775C101.011 311.503 101.521 311.259 101.558 310.954C101.594 310.649 101.188 310.237 100.993 309.873ZM106.699 323.232C106.445 322.767 106.162 322.319 105.85 321.892C105.562 321.929 105.297 322.073 105.107 322.297C105.049 322.451 105.025 322.616 105.036 322.78C105.047 322.944 105.092 323.104 105.17 323.249C105.518 323.829 106.022 323.749 106.699 323.232V323.232ZM102.354 319.796L103.344 320.705C103.569 320.444 103.902 320.216 104.004 319.917C104.179 319.325 103.674 319.09 103.245 319.083C102.987 319.08 102.743 319.462 102.354 319.796ZM109.984 311.604L108.419 310.975L108.343 311.096L109.727 312.392C109.825 312.09 109.898 311.872 109.984 311.605L109.984 311.604Z" fill="black"/>
<path d="M83.8463 21.5467C83.2889 21.4668 82.7419 21.3246 82.2154 21.1225C80.726 20.3657 79.2702 19.5349 77.8143 18.7078C77.4191 18.5056 77.1022 18.1748 76.9143 17.7684C76.7264 17.3619 76.6783 16.9033 76.7778 16.4659C77.0692 14.599 77.2642 12.7181 77.362 10.8306C77.4744 7.09315 75.5262 4.54153 72.3731 2.95336C68.6817 1.0913 64.8881 1.27915 61.1209 2.80915C60.7248 2.96972 60.4273 3.36843 60.0348 3.56597C59.7318 3.66772 59.4159 3.72406 59.0969 3.73321C59.0969 3.39812 58.9977 2.91579 59.1632 2.78188C59.7923 2.20291 60.5105 1.73215 61.2893 1.38821C63.8415 0.479302 66.4271 -0.182384 69.2134 0.383565C72.4424 1.05313 75.3416 2.20139 77.3555 5.01174C78.8468 7.05367 79.5053 9.59977 79.1943 12.1213C79.0491 13.461 78.9368 14.8001 78.7916 16.1399C78.7443 16.4059 78.7947 16.6803 78.9335 16.9111C79.0722 17.1419 79.2896 17.3132 79.5444 17.3923C80.8187 18.0189 82.0535 18.7321 83.2752 19.4653C83.9951 19.9088 84.0942 20.3142 83.8463 21.5467Z" fill="black"/>
<path d="M33.2539 21.0817C33.4332 18.8653 34.0036 16.6996 34.938 14.6878C35.8491 12.5949 36.784 10.5116 38.3193 8.78047C40.611 6.19492 43.3316 4.47041 46.8509 4.36316C47.7878 4.33493 48.7253 4.39579 49.651 4.54494C49.9497 4.5916 50.1887 5.03393 50.4497 5.29509C50.1463 5.48269 49.81 5.60884 49.4592 5.66654C47.5082 5.50241 45.5479 5.84112 43.7605 6.65119C41.3008 7.83814 39.2755 9.78566 37.9758 12.2137C36.9783 14.0914 36.0809 16.0221 35.2875 17.9974C34.9413 18.9258 34.7052 19.8926 34.5843 20.8775C34.5049 21.3695 34.5843 22.013 33.9804 21.9524C33.6601 21.9252 33.3925 21.2623 33.2539 21.0817Z" fill="black"/>
<path d="M35.9446 43.5021C35.7893 42.0054 36.7039 40.9335 37.5576 40.0125C39.4526 37.9632 39.2549 35.8763 38.2446 33.5422C37.8864 32.721 37.7873 31.8075 37.9609 30.927C38.6742 28.1239 39.6611 25.4129 41.5597 23.1643C41.876 22.7626 42.246 22.4075 42.6589 22.1093C42.8668 21.9754 43.2432 22.1093 43.5437 22.1093C43.4875 22.3771 43.5204 22.7322 43.3644 22.897C41.9601 24.4641 40.9179 26.329 40.3135 28.356C40.0793 29.0625 39.8355 29.769 39.5906 30.4725C39.2602 31.4202 39.5643 32.2807 39.8349 33.195C40.2376 34.5644 40.7394 36.0017 40.6767 37.3845C40.6307 38.4564 39.8218 39.5113 39.2704 40.5293C38.94 41.1559 38.2799 41.6346 38.0457 42.2811C37.8499 43.0509 37.7119 43.8346 37.6329 44.6255C37.512 44.9791 37.3491 45.3165 37.1478 45.6301C36.8174 45.3878 36.3712 45.2151 36.2033 44.8903C36.0424 44.4451 35.955 43.9761 35.9446 43.5021Z" fill="black"/>
<path d="M58.4126 17.3008C59.687 17.3466 60.9239 17.7499 61.9859 18.4659C63.0479 19.1818 63.8934 20.1823 64.4286 21.3563C65.1747 23.2148 65.8516 25.1041 66.639 26.9425C67.0686 27.9351 67.5823 28.8879 68.1743 29.7904C69.3727 31.6258 71.1614 31.6155 73.0312 31.2605C73.2326 31.2205 73.4572 31.0787 73.6257 31.1296C73.9393 31.2302 74.425 31.4041 74.4579 31.6143C74.4667 31.7925 74.4325 31.9701 74.3583 32.1318C74.2841 32.2934 74.172 32.4343 74.0319 32.542C72.8494 33.2051 71.4652 33.3959 70.1512 33.0768C68.8371 32.7577 67.6881 31.9519 66.9299 30.8175C65.517 28.6361 64.7279 26.2027 63.8628 23.785C63.3705 22.4052 62.9452 20.9449 61.7796 19.9506C61.1066 19.3783 60.3154 18.9668 59.4645 18.7465C58.6135 18.5263 57.7246 18.5029 56.8636 18.6781C56.5198 18.657 56.1834 18.5683 55.873 18.4169C56.1174 18.1691 56.3187 17.8043 56.6126 17.7001C57.2027 17.5246 57.8042 17.3912 58.4126 17.3008Z" fill="black"/>
<path d="M84.6363 34.1829C84.699 33.6696 84.5882 33.1499 84.3219 32.7089C84.0555 32.2678 83.6496 31.9315 83.1703 31.7548C81.166 30.7805 80.4497 29.6341 81.6051 26.9994C81.7066 26.7815 81.796 26.558 81.8727 26.3299C82.052 25.7403 82.5329 24.9901 82.3154 24.595C81.8157 23.8997 81.2092 23.2903 80.519 22.7899C80.2163 22.5751 79.9262 22.3424 79.6504 22.0931C79.5845 21.9963 79.5438 21.8841 79.5323 21.767C79.5207 21.6499 79.5385 21.5318 79.584 21.4235C79.6594 21.3261 79.7572 21.2489 79.8689 21.1987C79.9806 21.1485 80.1027 21.1269 80.2245 21.1357C81.8167 21.6085 83.1595 22.7018 83.9589 24.1763C84.4804 25.181 83.9589 26.159 83.6285 27.1236C83.4054 27.6397 83.2519 28.1839 83.1721 28.7415C83.1721 29.0093 83.5383 29.3511 83.8095 29.5722C84.3842 30.0376 85.0641 30.3757 85.5856 30.8883C86.9854 32.2547 87.121 33.8575 86.4572 35.5771C86.2093 36.22 85.8861 36.8363 85.5922 37.4592C85.3246 38.0318 84.8 38.3735 84.3012 38.0784C84.1391 37.9086 84.0183 37.7027 83.9484 37.4772C83.8785 37.2517 83.8614 37.0127 83.8985 36.7793C84.0932 35.8987 84.3402 35.0308 84.6381 34.1804L84.6363 34.1829Z" fill="black"/>
<path d="M71.4025 39.1795C70.8314 42.686 69.9759 45.8539 67.818 48.5564C66.5677 50.1544 65.0301 51.4976 63.2867 52.515C63.0022 52.7202 62.6648 52.8367 62.3159 52.8501C62.0614 52.8198 61.6558 52.4617 61.6558 52.2575C61.6687 52.0722 61.718 51.8915 61.8008 51.7258C61.8836 51.5601 61.9982 51.4129 62.1379 51.2928C62.9145 50.6833 63.8745 50.2882 64.5484 49.5847C65.6693 48.5225 66.6363 47.3048 67.4208 45.9678C68.3253 44.0293 69.1287 42.044 69.8277 40.0199C69.9577 39.6568 70.1449 39.3175 70.3821 39.0153C70.4728 38.921 70.5839 38.8493 70.7065 38.8057C70.8291 38.7622 70.96 38.7481 71.0888 38.7644C71.2705 38.7808 71.3696 39.1255 71.4025 39.1795Z" fill="black"/>
<path d="M79.6571 32.1656C79.2676 34.51 78.6666 36.4823 76.6856 37.6191C76.4096 37.7807 76.1011 37.8767 75.7833 37.8999C75.4654 37.923 75.1465 37.8728 74.8506 37.7528C74.5547 37.6329 74.2895 37.4464 74.0749 37.2075C73.8604 36.9685 73.7021 36.6833 73.6119 36.3733C73.5193 36.0382 73.7636 35.5928 73.8562 35.2014C74.226 35.302 74.6849 35.2983 74.9489 35.5365C75.609 36.1091 76.1276 36.1424 76.7286 35.4795C77.356 34.8083 77.7764 33.9658 77.9383 33.0555C78.1001 32.1453 77.9963 31.2069 77.6396 30.3557C77.2896 29.351 76.256 29.2268 75.5487 29.9873C75.3504 30.1981 74.9644 30.2296 74.6669 30.3454C74.6143 30.0103 74.4489 29.6552 74.5349 29.3759C74.6263 28.9994 74.8376 28.6641 75.1361 28.4219C75.4345 28.1797 75.8034 28.0441 76.1855 28.0361C77.176 28.0361 78.2227 28.3143 78.6982 29.2989C79.0897 30.2282 79.4102 31.1866 79.6571 32.1656Z" fill="black"/>
<path d="M40.3755 41.172L40.897 40.3115C41.136 40.563 41.4717 40.7739 41.5906 41.072C42.4162 43.1249 43.0698 45.2584 44.0304 47.2374C44.9106 48.9202 46.2225 50.3306 47.8276 51.3197C47.8509 51.3197 47.8939 51.3197 47.907 51.3566C48.146 51.7584 48.3849 52.1637 48.6239 52.5685C48.1707 52.6774 47.7011 52.6979 47.2403 52.6291C44.7736 51.6778 43.3739 49.6151 42.3666 47.3144C41.6504 45.477 41.0298 43.6026 40.5075 41.6991C40.486 41.5492 40.486 41.397 40.5075 41.2471L40.3755 41.172Z" fill="black"/>
<path d="M49.2673 14.3428C50.0332 14.5906 50.8206 14.7881 51.5524 15.1063C51.8552 15.287 52.082 15.5742 52.1899 15.9134C52.3745 16.4424 51.9951 16.7908 51.4568 16.6502C47.9471 15.7358 46.0288 16.503 44.0245 19.6108C43.8817 19.8768 43.6806 20.1058 43.4366 20.2804C43.111 20.4169 42.7698 20.5113 42.421 20.5615C42.3977 20.1665 42.2095 19.6708 42.378 19.3994C42.9677 18.368 43.6615 17.4016 44.448 16.5157C45.0584 15.8337 45.8022 15.2883 46.632 14.9142C47.4617 14.54 48.3593 14.3454 49.2673 14.3428Z" fill="black"/>
<path d="M32.4119 37.4406C32.2904 37.2936 32.2018 37.1217 32.1522 36.9366C32.1026 36.7515 32.0932 36.5578 32.1246 36.3687C32.156 36.1795 32.2275 35.9996 32.3341 35.8412C32.4408 35.6828 32.58 35.5498 32.7422 35.4513C33.8086 34.5806 33.7524 33.482 33.2411 32.4676C32.4047 30.8098 33.3832 28.3618 34.4861 27.2499C34.651 27.1292 34.8431 27.0521 35.0449 27.0258C35.2467 26.9994 35.4517 27.0246 35.6415 27.099C36.1104 27.402 35.6415 27.7286 35.43 28.0437C34.5088 29.3531 34.1091 30.7225 34.8123 32.3137C35.9975 34.9926 35.0267 35.9106 33.2506 37.2703C33.0326 37.4376 32.6562 37.3939 32.4119 37.4406Z" fill="black"/>
<path d="M51.0339 1.51958C52.5204 1.51407 53.9754 1.95446 55.2158 2.78539C56.0123 3.28216 56.7406 3.8834 57.382 4.57352C57.6807 4.90861 57.94 5.76602 57.7715 5.93629C57.2762 6.44225 56.7117 6.02657 56.2182 5.6515C55.4189 5.03889 54.5903 4.46264 53.7814 3.86336C52.028 2.56725 50.1491 3.07988 48.2374 3.36407C47.8666 3.33867 47.5038 3.24332 47.1675 3.08291C47.4315 2.80175 47.6496 2.36305 47.9662 2.2655C49.0726 1.91829 50.2119 1.70682 51.0339 1.51958Z" fill="black"/>
<path d="M54.3021 14.568C54.8965 11.7916 55.755 9.14306 58.4242 7.61245C58.7277 7.43854 59.2134 7.61245 59.619 7.61245C59.5264 8.01782 59.5694 8.5868 59.3203 8.79827C57.8268 10.0544 57.1344 11.8122 56.2861 13.4871C56.1347 13.875 56.0584 14.289 56.0615 14.7062C56.0119 15.3291 55.89 16.0459 55.203 16.0459C54.4544 16.0078 54.2459 15.3249 54.3021 14.568Z" fill="black"/>
<path d="M56.7521 45.6959C57.8352 45.4245 58.9147 45.1263 60.0074 44.9082C60.3273 44.9094 60.6441 44.9711 60.9417 45.09C60.7703 45.5257 60.6974 46.2255 60.4041 46.3394C59.4319 46.7068 58.4234 46.9663 57.3961 47.1132C55.6559 47.3877 53.9031 47.5756 52.1527 47.7828C51.6626 47.863 51.1648 47.8833 50.6699 47.8434C50.462 47.8131 50.2206 47.5083 50.1382 47.2508C50.1018 47.1472 50.4124 46.8054 50.6102 46.7587C51.9047 46.4558 53.2155 46.2195 54.516 45.9383" fill="black"/>
<path d="M76.8341 40.7934H79.2746C79.679 40.8083 80.0693 40.9486 80.3928 41.1952C80.7163 41.4419 80.9576 41.7832 81.0841 42.1731C81.1843 42.5433 81.1678 42.9361 81.037 43.2964C80.9062 43.6567 80.6676 43.9665 80.3547 44.1824C80.1965 44.2993 80.0168 44.3829 79.8263 44.4284C79.6358 44.4738 79.4383 44.4802 79.2453 44.4472C79.0834 44.4169 78.9149 43.8176 78.9513 43.4995C79.0141 42.9202 78.839 42.7294 78.2912 42.7494C77.6685 42.8214 77.0386 42.7988 76.4225 42.6821C75.9703 42.5548 75.3328 42.1228 75.2803 41.7514C75.2814 41.1328 75.4465 40.5258 75.7582 39.9941C75.8563 39.8957 75.9774 39.8241 76.1102 39.786C76.243 39.748 76.3831 39.7447 76.5175 39.7766C76.6985 39.9323 76.7015 40.3177 76.8341 40.7934Z" fill="black"/>
<path d="M62.7221 24.8658C62.9139 24.9967 63.2699 25.1573 63.2538 25.2476C63.1976 25.5827 63.0955 26.008 62.8607 26.1516C61.7256 26.8448 60.5493 27.4611 59.3742 28.101C58.9713 28.3569 58.5456 28.5742 58.1029 28.7499C57.7593 28.8019 57.41 28.8019 57.0664 28.7499C57.159 28.4148 57.1393 27.8895 57.3651 27.7453C58.4374 26.9948 59.5483 26.3028 60.6933 25.6723C61.3506 25.3548 62.0294 25.0851 62.7245 24.8652L62.7221 24.8658Z" fill="black"/>
<path d="M48.2285 29.6384C47.4722 29.4172 46.8813 29.23 46.2869 29.0658C45.432 28.8313 44.5544 28.6537 43.7216 28.3659C43.4743 28.2787 43.3256 27.9036 43.1338 27.6624C43.408 27.4849 43.7151 27.1171 43.9463 27.1631C45.38 27.4346 46.8055 27.766 48.2088 28.1678C48.3595 28.2443 48.49 28.3563 48.5893 28.4944C48.6887 28.6325 48.754 28.7927 48.7799 28.9616C48.7954 29.1724 48.4119 29.4239 48.2285 29.6384Z" fill="black"/>
<path d="M54.3189 43.5466C53.1569 43.1915 52.1264 42.9237 51.1329 42.5419C51.0085 42.442 50.911 42.3119 50.8493 42.1636C50.7875 42.0153 50.7637 41.8537 50.7798 41.6936C50.8556 41.5562 50.965 41.4408 51.0974 41.3587C51.2299 41.2765 51.381 41.2304 51.5361 41.2246C52.5047 41.3325 53.461 41.5332 54.3923 41.8239C54.5797 41.9279 54.7429 42.0714 54.8711 42.2447C54.9993 42.4179 55.0894 42.617 55.1355 42.8285C55.1708 42.994 54.6092 43.3054 54.3189 43.5466Z" fill="black"/>
<path d="M40.6531 48.1309C40.8778 48.4054 41.2111 48.6502 41.3133 48.9646C41.6436 50.0662 40.4548 52.3773 39.3818 52.759C39.0497 52.8123 38.7098 52.7408 38.426 52.5579C38.3849 52.437 38.3713 52.3082 38.3862 52.1813C38.4011 52.0543 38.4441 51.9324 38.512 51.8247C39.5803 50.9218 40.2581 49.6309 40.4004 48.2278L40.6531 48.1309Z" fill="black"/>
<path d="M55.7589 54.6076L55.2403 55.2772C54.9464 55.0257 54.438 54.8051 54.3986 54.5203C54.2615 53.3759 54.1986 52.2235 54.2104 51.0707C54.2104 50.8598 54.5407 50.6465 54.7385 50.4375C54.9631 50.6453 55.349 50.8259 55.3986 51.064C55.5545 52.1293 55.6238 53.2145 55.7589 54.6076Z" fill="black"/>
<path d="M53.5577 54.6783C53.5183 54.7183 53.4024 54.9498 53.2274 55.0134C53.0523 55.077 52.673 54.9965 52.6497 54.9062C52.4484 54.1627 52.2961 53.4064 52.1938 52.6424C52.1938 52.5418 52.5702 52.2788 52.7685 52.2843C52.9669 52.2897 53.1186 52.5588 53.2537 52.743C53.3306 52.8716 53.3759 53.017 53.3857 53.1671C53.4472 53.6034 53.4896 54.0451 53.5577 54.6783Z" fill="black"/>
<path d="M58.3606 53.8877C57.9316 54.2797 57.7005 54.6681 57.4161 54.7117C56.8581 54.7954 56.3264 53.8277 56.4256 52.8667C56.4554 52.5885 56.8151 52.3474 57.023 52.0898L58.3606 53.8877Z" fill="black"/>
<path d="M62.653 32.6621C62.7305 32.7163 62.7948 32.7876 62.8409 32.8708C62.8871 32.954 62.9139 33.0467 62.9193 33.142C62.9247 33.2373 62.9086 33.3326 62.8722 33.4206C62.8358 33.5086 62.78 33.587 62.7092 33.6498C62.4812 33.8923 62.2026 34.0799 61.8937 34.1988C61.699 34.2521 61.1171 33.6898 61.0914 33.3783C61.0549 32.8657 61.2993 32.227 62.0162 32.3404C62.2492 32.3993 62.4667 32.5091 62.6536 32.6621H62.653Z" fill="black"/>
<path d="M58.04 52.159C58.2384 51.8845 58.3704 51.4895 58.6279 51.4089C58.7928 51.3483 59.2056 51.667 59.328 51.9112C59.519 52.3131 59.6312 52.7487 59.6584 53.194C59.6479 53.3125 59.6082 53.4264 59.543 53.5253C59.4777 53.6242 59.389 53.7049 59.285 53.7599C59.1685 53.7766 59.0498 53.7639 58.9392 53.723C58.8287 53.6821 58.7298 53.6143 58.6512 53.5254C58.415 53.0856 58.2107 52.629 58.04 52.159Z" fill="black"/>
<path d="M51.2745 53.6132C51.0535 53.8677 50.8318 54.3403 50.6144 54.3403C49.8419 54.3403 49.8419 53.6132 49.8252 53.0945C49.8252 52.7594 50.1358 52.1535 50.324 52.1498C51.1891 52.1292 51.0403 52.8764 51.2745 53.6132Z" fill="black"/>
<path d="M48.2995 34.5126C47.3652 34.5126 47.2242 34.0236 47.1704 33.5079C47.1576 33.3943 47.1728 33.2792 47.2145 33.173C47.2563 33.0667 47.3233 32.9726 47.4096 32.899C47.4959 32.8254 47.5988 32.7746 47.7091 32.7511C47.8195 32.7276 47.9338 32.7322 48.042 32.7644C48.242 32.8496 48.4203 32.9797 48.5633 33.1451C48.7063 33.3104 48.8104 33.5066 48.8676 33.7188C48.9172 33.9508 48.4483 34.3144 48.2995 34.5126Z" fill="black"/>
<path d="M79.1192 88.1937C80.3971 90.203 81.602 92.0887 82.7843 93.9841C83.2025 94.6051 83.5625 95.2644 83.8596 95.9534C84.0046 96.2722 84.0407 96.6309 83.9624 96.9729C83.8841 97.3149 83.6958 97.6207 83.4271 97.8421C82.2251 98.8904 81.053 99.992 80.4556 101.526C79.8433 103.093 79.3112 104.691 78.8611 106.313C77.9829 109.491 77.1047 112.676 76.3849 115.894C75.5395 119.685 74.8495 123.51 74.1147 127.324C73.6063 129.987 73.1409 132.656 72.6487 135.323C72.1235 138.189 71.602 141.059 71.0572 143.923C70.8427 145.048 70.6079 146.17 70.314 147.272C70.1945 147.73 69.9406 148.186 69.2936 148.009C69.1682 147.991 69.048 147.946 68.9414 147.877C68.8348 147.807 68.7443 147.715 68.6762 147.607C68.608 147.499 68.5638 147.377 68.5467 147.25C68.5295 147.122 68.5398 146.993 68.5767 146.87C69.2371 143.146 69.8974 139.423 70.5577 135.701C71.0894 132.714 71.5483 129.713 72.166 126.75C73.3148 121.301 74.4773 115.853 75.7982 110.444C76.5545 107.329 77.5546 104.269 78.5618 101.228C79.0576 99.5763 80.1093 98.154 81.5333 97.2089C82.1935 96.7902 82.0913 96.2043 81.7412 95.6783C80.7507 94.198 79.6975 92.7783 78.7697 91.261C78.2358 90.3559 77.8111 89.389 77.505 88.3809C77.376 88.0244 77.389 87.631 77.5413 87.284C77.6935 86.9371 77.973 86.6639 78.3205 86.5225C80.0456 85.5833 81.9277 84.977 83.871 84.7344C84.7791 84.5938 85.6674 84.3224 86.5755 84.1854C87.1532 84.0982 87.1765 83.8218 87.0247 83.3716C86.5988 82.1222 86.1429 80.8836 85.7732 79.6209C85.2713 77.906 84.8352 76.1712 84.3764 74.4467C83.6038 71.5531 82.8333 68.6596 82.065 65.766C81.6558 64.239 81.1767 62.7284 80.8236 61.1881C80.6406 60.3634 80.5738 59.5166 80.6253 58.6729C80.645 58.3614 81.1438 58.0802 81.424 57.7852C81.6008 58.0612 81.7459 58.3568 81.8565 58.6662C82.068 59.5751 82.16 60.5113 82.4109 61.402C83.276 64.456 84.1775 67.5002 85.0885 70.5378C85.5605 72.1187 86.079 73.6826 86.582 75.2563C87.3587 77.7612 88.1407 80.2632 88.8934 82.7778C89.1191 83.4338 89.2383 84.1227 89.2465 84.8174C89.213 85.0337 89.1277 85.2384 88.9982 85.4135C88.8686 85.5887 88.6987 85.729 88.5033 85.8221C87.5427 86.0699 86.5223 86.0699 85.5318 86.2741C83.7754 86.6461 82.0286 87.0745 80.2919 87.5266C79.8728 87.6936 79.4782 87.9181 79.1192 88.1937Z" fill="white"/>
<path d="M40.0524 90.525C37.8569 91.1946 35.99 91.9684 34.5747 93.5996C34.2925 93.9518 33.9345 94.2337 33.5281 94.4236C33.046 94.6109 32.3727 94.832 32.0095 94.6248C31.8218 94.4452 31.6829 94.2197 31.606 93.9699C31.5291 93.7201 31.5168 93.4544 31.5704 93.1984C32.1779 90.5195 32.8912 87.8401 33.5514 85.1612C33.994 83.3628 34.334 81.534 34.8161 79.7429C35.5927 76.8562 36.3974 73.9695 37.2989 71.1191C37.9591 69.0395 38.7745 67.0133 39.5506 64.9773C39.7337 64.619 39.9551 64.2821 40.2107 63.9727L40.5094 63.9927C40.559 64.3277 40.7209 64.6622 40.6414 64.9403C39.8648 67.6798 39.0201 70.3993 38.2476 73.1387C37.5474 75.6231 36.8413 78.1074 36.2666 80.6203C35.4117 84.3208 34.662 88.0449 33.877 91.7017C34.6425 91.0919 35.4625 90.5559 36.3263 90.1008C37.977 89.4076 39.6778 88.8787 41.378 88.3436C41.5405 88.3045 41.7098 88.3061 41.8715 88.3484C42.0332 88.3906 42.1822 88.4721 42.3058 88.586C42.3839 88.7492 42.4265 88.9276 42.4305 89.1091C42.4345 89.2905 42.3999 89.4707 42.3291 89.6373C40.1568 94.1626 38.315 98.8435 36.8186 103.642C36.657 104.082 36.664 104.567 36.8383 105.002C37.8485 106.517 38.2613 108.268 38.8755 109.942C39.6945 112.172 40.6516 114.349 41.4312 116.59C42.4217 119.453 43.3065 122.35 44.2014 125.247C44.8191 127.256 45.3801 129.265 45.9548 131.275C46.83 134.342 47.655 137.427 48.5959 140.481C49.0386 141.935 49.6713 143.337 50.2089 144.764C50.4328 145.281 50.6127 145.817 50.7466 146.365C50.747 146.707 50.689 147.047 50.5751 147.37C50.2221 147.242 49.6904 147.219 49.5452 146.968C48.9785 145.982 48.4874 144.953 48.0762 143.89C47.2607 141.763 46.4482 139.634 45.7648 137.46C44.8765 134.612 44.1602 131.704 43.2915 128.847C41.948 124.433 40.5841 120.029 39.1413 115.649C38.3492 113.247 37.4011 110.9 36.4769 108.542C36.1238 107.648 35.6578 106.798 35.2187 105.94C34.998 105.598 34.8541 105.21 34.797 104.805C34.7399 104.4 34.7711 103.987 34.8884 103.596C35.8197 101.054 36.6806 98.4786 37.6556 95.9536C38.3617 94.1788 39.1969 92.4574 40.0524 90.525Z" fill="white"/>
<path d="M66.7766 68.0732C66.6409 69.9352 66.43 71.7937 66.387 73.6557C66.3243 76.3649 66.387 79.0777 66.387 81.7905V89.4932C66.4133 92.9725 66.4892 96.4555 66.4892 99.9384C66.4892 103.622 66.3506 107.27 66.4229 110.936C66.5053 115.123 66.7533 119.309 66.9283 123.491C67.0735 127.159 67.1625 130.832 67.328 134.499C67.4433 137.041 67.6583 139.583 67.7838 142.125C67.7838 142.38 67.5096 142.875 67.371 142.872C67.0406 142.872 66.5424 142.694 66.4462 142.453C66.1368 141.735 65.944 140.97 65.8751 140.189C65.6958 136.649 65.6008 133.106 65.4527 129.567C65.3637 127.346 65.2018 125.132 65.1223 122.912C64.967 118.1 64.792 113.287 64.7262 108.471C64.6701 105.017 64.7262 101.559 64.7693 98.0897C64.8057 93.9941 64.8684 89.895 64.9013 85.7958C64.9312 82.3831 64.8517 78.9638 64.9706 75.5511C65.0465 73.277 65.393 71.0102 65.6015 68.7391C65.6612 68.0696 65.6014 67.3994 65.7036 66.7468C65.743 66.4753 66.0143 66.2378 66.1815 65.9863C66.4059 66.2175 66.5879 66.4873 66.7192 66.7831C66.7734 67.2041 66.7812 67.6299 66.7425 68.0526L66.7766 68.0732Z" fill="white"/>
<path d="M108.069 157.849C107.666 158.308 107.409 158.831 107.148 158.854C106.662 158.87 106.189 158.695 105.827 158.365C104.618 157.025 103.539 155.555 102.34 154.196C100.809 152.458 99.2399 150.746 97.6209 149.089C96.3365 147.769 94.8675 146.627 93.6589 145.254C92.607 143.995 91.6485 142.658 90.7913 141.255C90.7123 141.087 90.6764 140.902 90.6868 140.717C90.6973 140.531 90.7538 140.351 90.8511 140.194C91.3631 139.775 91.568 140.304 91.8416 140.692C93.4923 143.16 95.6847 145.09 97.8904 147.025C99.7161 148.626 101.39 150.401 103.127 152.105C104.187 153.143 105.287 154.151 106.271 155.26C106.906 156.006 107.418 156.917 108.069 157.849Z" fill="white"/>
<path d="M45.602 311.144C45.3077 311.533 44.9924 311.905 44.6575 312.259C43.3104 313.552 41.9435 314.828 40.5766 316.1C39.5664 317.045 39.1004 316.988 38.2192 315.789C40.2928 313.682 43.0529 312.628 45.3881 310.93C45.4598 311.002 45.5291 311.074 45.602 311.144Z" fill="white"/>
<path d="M43.1924 319.757L45.2791 314.733L45.5629 314.81C45.4936 315.339 45.4309 315.872 45.3448 316.401C45.277 316.967 45.1666 317.527 45.0145 318.076C44.8545 318.634 44.6107 319.164 44.2916 319.646C44.1297 319.877 43.6942 319.908 43.3806 320.028C43.3245 319.933 43.2616 319.842 43.1924 319.757Z" fill="white"/>
<path d="M52.5263 320.045C51.9253 320.142 51.2914 320.106 51.2812 319.342C51.3392 318.842 51.5504 318.373 51.8852 318.002C51.991 317.868 52.6577 317.949 52.7963 318.139C53.3118 318.809 53.0179 319.469 52.5263 320.045Z" fill="white"/>
<path d="M102.734 315.614C102.667 316.321 102.357 316.683 101.693 316.693C100.898 316.693 100.874 316.023 100.857 315.554C100.843 315.416 100.858 315.276 100.902 315.144C100.946 315.013 101.018 314.892 101.112 314.791C101.206 314.689 101.32 314.61 101.447 314.557C101.574 314.505 101.711 314.48 101.848 314.486C102.615 314.483 102.585 315.165 102.734 315.614Z" fill="white"/>
<path d="M53.6421 313.5C53.6027 314.484 53.2789 315.015 52.602 314.923C52.3033 314.883 51.9419 314.331 51.8493 313.949C51.8108 313.81 51.805 313.665 51.8324 313.524C51.8598 313.383 51.9195 313.25 52.0068 313.137C52.0941 313.024 52.2065 312.933 52.3348 312.872C52.4631 312.811 52.6038 312.782 52.7454 312.787C53.0943 312.784 53.4378 313.318 53.6421 313.5Z" fill="white"/>
<path d="M51.4146 322.329C51.4146 323.333 51.0018 323.802 50.3643 323.829C50.1134 323.829 49.6839 323.307 49.6182 322.968C49.4987 322.372 50.1893 321.569 50.6087 321.716C50.9141 321.865 51.1879 322.073 51.4146 322.329Z" fill="white"/>
<path d="M107.656 326.169C108.015 325.901 108.416 325.386 108.726 325.436C108.936 325.517 109.122 325.649 109.268 325.822C109.414 325.995 109.515 326.201 109.563 326.424C109.592 326.708 109.074 327.254 108.73 327.318C108.181 327.413 107.825 326.984 107.656 326.169Z" fill="white"/>
<path d="M113.705 329.483C113.375 329.701 112.972 330.153 112.791 330.086C112.58 329.988 112.39 329.849 112.232 329.677C112.075 329.505 111.953 329.302 111.873 329.081C111.813 328.857 112.322 328.251 112.636 328.2C113.296 328.106 113.484 328.696 113.705 329.483Z" fill="white"/>
<path d="M45.2726 328.719C44.7182 329.12 44.3813 329.522 43.9917 329.583C43.7773 329.62 43.2748 329.098 43.2557 328.802C43.2468 328.669 43.264 328.536 43.3065 328.409C43.349 328.283 43.4158 328.167 43.5031 328.067C43.5904 327.967 43.6964 327.886 43.815 327.828C43.9336 327.77 44.0623 327.737 44.1937 327.73C44.4876 327.747 44.7863 328.253 45.2726 328.719Z" fill="white"/>
<path d="M107.653 313.397C108.313 314.66 110.341 315.072 109.634 317.165L107.418 313.555L107.653 313.397Z" fill="white"/>
<path d="M48.5971 325.323C48.5243 326.126 48.2668 326.478 47.6694 326.461C47.1872 326.461 46.8437 326.21 46.9101 325.687C46.9764 325.165 47.2207 324.622 47.851 324.73C48.1652 324.783 48.4221 325.171 48.5971 325.323Z" fill="white"/>
<path d="M100.993 309.874C101.201 310.238 101.597 310.624 101.558 310.956C101.518 311.287 101.013 311.505 100.713 311.776C100.474 311.498 100.052 311.227 100.036 310.942C100.036 310.591 100.366 310.229 100.557 309.874H100.993Z" fill="white"/>
<path d="M106.698 323.233C106.022 323.748 105.516 323.829 105.17 323.263C105.092 323.118 105.047 322.958 105.036 322.794C105.025 322.63 105.049 322.465 105.107 322.312C105.296 322.088 105.561 321.943 105.85 321.906C106.161 322.329 106.444 322.772 106.698 323.233Z" fill="white"/>
<path d="M102.354 319.797C102.743 319.462 102.987 319.08 103.225 319.084C103.654 319.084 104.159 319.326 103.984 319.918C103.895 320.221 103.562 320.447 103.324 320.706L102.354 319.797Z" fill="white"/>
<path d="M109.984 311.605C109.898 311.873 109.826 312.09 109.726 312.393L108.343 311.097L108.419 310.976L109.984 311.605Z" fill="white"/>
</svg>
