<svg width="1902" height="255" viewBox="0 0 1902 255" fill="none" xmlns="http://www.w3.org/2000/svg">
<path d="M234.45 44.2L234.789 44.5674L235.137 44.2466L234.836 43.8818L234.45 44.2ZM198.05 77.8L197.673 78.1283L198.011 78.5166L198.389 78.1674L198.05 77.8ZM198.05 176.85L198.389 176.483L198.007 176.13L197.67 176.525L198.05 176.85ZM234.45 210.45L234.838 210.766L235.135 210.401L234.789 210.083L234.45 210.45ZM133.3 253.7C57.6008 253.7 1.15 201.049 1.15 127.5H0.150001C0.150001 201.651 57.0992 254.7 133.3 254.7V253.7ZM1.15 127.5C1.15 53.9517 57.5999 1.3 133.65 1.3V0.299995C57.1001 0.299995 0.150001 53.3483 0.150001 127.5H1.15ZM133.65 1.3C175.876 1.3 211.074 16.6513 234.064 44.5182L234.836 43.8818C211.626 15.7487 176.124 0.299995 133.65 0.299995V1.3ZM234.111 43.8326L197.711 77.4326L198.389 78.1674L234.789 44.5674L234.111 43.8326ZM198.427 77.4717C181.887 58.4685 161.102 48.6 136.45 48.6V49.6C160.798 49.6 181.313 59.3315 197.673 78.1283L198.427 77.4717ZM136.45 48.6C113.405 48.6 93.6741 56.6941 79.7033 70.6209C65.7322 84.5479 57.55 104.279 57.55 127.5H58.55C58.55 104.521 66.6429 85.0521 80.4092 71.3291C94.1759 57.6059 113.645 49.6 136.45 49.6V48.6ZM57.55 127.5C57.55 150.721 65.7322 170.452 79.7033 184.379C93.6741 198.306 113.405 206.4 136.45 206.4V205.4C113.645 205.4 94.1759 197.394 80.4092 183.671C66.6429 169.948 58.55 150.479 58.55 127.5H57.55ZM136.45 206.4C161.103 206.4 181.89 196.531 198.43 177.175L197.67 176.525C181.31 195.669 160.797 205.4 136.45 205.4V206.4ZM197.711 177.217L234.111 210.817L234.789 210.083L198.389 176.483L197.711 177.217ZM234.062 210.134C211.073 238.349 175.876 253.7 133.3 253.7V254.7C176.124 254.7 211.627 239.251 234.838 210.766L234.062 210.134ZM386.263 253.7C309.163 253.7 252.712 199.998 252.712 127.5H251.712C251.712 200.602 308.662 254.7 386.263 254.7V253.7ZM252.712 127.5C252.712 55.0015 309.163 1.3 386.263 1.3V0.299995C308.662 0.299995 251.712 54.3984 251.712 127.5H252.712ZM386.263 1.3C463.014 1.3 519.812 54.6533 519.812 127.5H520.812C520.812 54.0467 463.511 0.299995 386.263 0.299995V1.3ZM519.812 127.5C519.812 200.347 463.014 253.7 386.263 253.7V254.7C463.511 254.7 520.812 200.953 520.812 127.5H519.812ZM386.263 206.4C430.292 206.4 463.413 174.323 463.413 127.5H462.413C462.413 173.777 429.733 205.4 386.263 205.4V206.4ZM463.413 127.5C463.413 80.6769 430.292 48.6 386.263 48.6V49.6C429.733 49.6 462.413 81.2231 462.413 127.5H463.413ZM386.263 48.6C342.233 48.6 309.113 80.6769 309.113 127.5H310.113C310.113 81.2231 342.792 49.6 386.263 49.6V48.6ZM309.113 127.5C309.113 174.323 342.233 206.4 386.263 206.4V205.4C342.792 205.4 310.113 173.777 310.113 127.5H309.113ZM839.075 250V250.5H839.576L839.575 249.999L839.075 250ZM785.875 250L785.375 250.001L785.376 250.5H785.875V250ZM785.525 103L786.025 102.999L786.021 101.19L785.095 102.744L785.525 103ZM713.425 224.1V224.6H713.709L713.855 224.356L713.425 224.1ZM687.875 224.1L687.448 224.36L687.594 224.6H687.875V224.1ZM616.125 106.15L616.552 105.89L615.625 104.366V106.15H616.125ZM616.125 250V250.5H616.625V250H616.125ZM562.925 250H562.425V250.5H562.925V250ZM562.925 4.99998V4.49998H562.425V4.99998H562.925ZM609.825 4.99998L610.253 4.74201L610.108 4.49998H609.825V4.99998ZM701.525 157.25L701.097 157.508L701.528 158.225L701.955 157.505L701.525 157.25ZM791.825 4.99998V4.49998H791.54L791.395 4.74492L791.825 4.99998ZM838.375 4.99998L838.875 4.99856L838.874 4.49998H838.375V4.99998ZM839.075 249.5H785.875V250.5H839.075V249.5ZM786.375 249.999L786.025 102.999L785.025 103.001L785.375 250.001L786.375 249.999ZM785.095 102.744L712.995 223.844L713.855 224.356L785.955 103.256L785.095 102.744ZM713.425 223.6H687.875V224.6H713.425V223.6ZM688.302 223.84L616.552 105.89L615.698 106.41L687.448 224.36L688.302 223.84ZM615.625 106.15V250H616.625V106.15H615.625ZM616.125 249.5H562.925V250.5H616.125V249.5ZM563.425 250V4.99998H562.425V250H563.425ZM562.925 5.49998H609.825V4.49998H562.925V5.49998ZM609.397 5.25796L701.097 157.508L701.953 156.992L610.253 4.74201L609.397 5.25796ZM701.955 157.505L792.255 5.25505L791.395 4.74492L701.095 156.995L701.955 157.505ZM791.825 5.49998H838.375V4.49998H791.825V5.49998ZM837.875 5.00141L838.575 250.001L839.575 249.999L838.875 4.99856L837.875 5.00141ZM953.902 182.45V181.95H953.402V182.45H953.902ZM953.902 250V250.5H954.402V250H953.902ZM897.202 250H896.702V250.5H897.202V250ZM897.202 4.99998V4.49998H896.702V4.99998H897.202ZM953.902 51.2V50.7H953.402V51.2H953.902ZM953.902 136.25H953.402V136.75H953.902V136.25ZM1003.25 5.49998C1035.9 5.49998 1062.37 13.9664 1080.68 29.2278C1098.97 44.4804 1109.15 66.5593 1109.15 93.9H1110.15C1110.15 66.2907 1099.86 43.9196 1081.32 28.4597C1062.78 13.0086 1036.06 4.49998 1003.25 4.49998V5.49998ZM1109.15 93.9C1109.15 121.065 1098.97 143.056 1080.68 158.266C1062.37 173.484 1035.9 181.95 1003.25 181.95V182.95C1036.06 182.95 1062.78 174.441 1081.32 159.034C1099.86 143.619 1110.15 121.335 1110.15 93.9H1109.15ZM1003.25 181.95H953.902V182.95H1003.25V181.95ZM953.402 182.45V250H954.402V182.45H953.402ZM953.902 249.5H897.202V250.5H953.902V249.5ZM897.702 250V4.99998H896.702V250H897.702ZM897.202 5.49998H1003.25V4.49998H897.202V5.49998ZM1000.1 136.75C1017.49 136.75 1030.66 132.798 1039.49 125.434C1048.33 118.058 1052.75 107.316 1052.75 93.9H1051.75C1051.75 107.084 1047.42 117.517 1038.85 124.666C1030.27 131.827 1017.36 135.75 1000.1 135.75V136.75ZM1052.75 93.9C1052.75 80.3107 1048.34 69.4816 1039.49 62.0607C1030.66 54.6517 1017.49 50.7 1000.1 50.7V51.7C1017.36 51.7 1030.27 55.6233 1038.85 62.8268C1047.42 70.0184 1051.75 80.5393 1051.75 93.9H1052.75ZM1000.1 50.7H953.902V51.7H1000.1V50.7ZM953.402 51.2V136.25H954.402V51.2H953.402ZM953.902 136.75H1000.1V135.75H953.902V136.75ZM1320.88 250L1320.42 250.191L1320.54 250.5H1320.88V250ZM1299.18 197.5L1299.64 197.309L1299.51 197H1299.18V197.5ZM1185.43 197.5V197H1185.09L1184.97 197.309L1185.43 197.5ZM1163.73 250V250.5H1164.06L1164.19 250.191L1163.73 250ZM1105.63 250L1105.17 249.796L1104.86 250.5H1105.63V250ZM1214.83 4.99998V4.49998H1214.5L1214.37 4.79643L1214.83 4.99998ZM1270.83 4.99998L1271.28 4.79588L1271.15 4.49998H1270.83V4.99998ZM1380.38 250V250.5H1381.15L1380.83 249.796L1380.38 250ZM1203.63 154.45L1203.17 154.259L1202.88 154.95H1203.63V154.45ZM1281.33 154.45V154.95H1282.08L1281.79 154.259L1281.33 154.45ZM1242.48 60.65L1242.94 60.4587L1242.48 59.3433L1242.02 60.4587L1242.48 60.65ZM1321.34 249.809L1299.64 197.309L1298.72 197.691L1320.42 250.191L1321.34 249.809ZM1299.18 197H1185.43V198H1299.18V197ZM1184.97 197.309L1163.27 249.809L1164.19 250.191L1185.89 197.691L1184.97 197.309ZM1163.73 249.5H1105.63V250.5H1163.73V249.5ZM1106.08 250.204L1215.28 5.20354L1214.37 4.79643L1105.17 249.796L1106.08 250.204ZM1214.83 5.49998H1270.83V4.49998H1214.83V5.49998ZM1270.37 5.20408L1379.92 250.204L1380.83 249.796L1271.28 4.79588L1270.37 5.20408ZM1380.38 249.5H1320.88V250.5H1380.38V249.5ZM1203.63 154.95H1281.33V153.95H1203.63V154.95ZM1281.79 154.259L1242.94 60.4587L1242.02 60.8413L1280.87 154.641L1281.79 154.259ZM1242.02 60.4587L1203.17 154.259L1204.09 154.641L1242.94 60.8413L1242.02 60.4587ZM1574.5 4.99998V4.49998H1574V4.99998H1574.5ZM1630.5 4.99998H1631V4.49998H1630.5V4.99998ZM1630.5 250V250.5H1631V250H1630.5ZM1583.95 250L1583.56 250.317L1583.71 250.5H1583.95V250ZM1461.8 101.25L1462.18 100.933L1461.3 99.8532V101.25H1461.8ZM1461.8 250V250.5H1462.3V250H1461.8ZM1405.8 250H1405.3V250.5H1405.8V250ZM1405.8 4.99998V4.49998H1405.3V4.99998H1405.8ZM1452.7 4.99998L1453.08 4.68321L1452.93 4.49998H1452.7V4.99998ZM1574.5 153.75L1574.11 154.067L1575 155.15V153.75H1574.5ZM1574.5 5.49998H1630.5V4.49998H1574.5V5.49998ZM1630 4.99998V250H1631V4.99998H1630ZM1630.5 249.5H1583.95V250.5H1630.5V249.5ZM1584.33 249.683L1462.18 100.933L1461.41 101.567L1583.56 250.317L1584.33 249.683ZM1461.3 101.25V250H1462.3V101.25H1461.3ZM1461.8 249.5H1405.8V250.5H1461.8V249.5ZM1406.3 250V4.99998H1405.3V250H1406.3ZM1405.8 5.49998H1452.7V4.49998H1405.8V5.49998ZM1452.31 5.31675L1574.11 154.067L1574.88 153.433L1453.08 4.68321L1452.31 5.31675ZM1575 153.75V4.99998H1574V153.75H1575ZM1901.26 4.99998L1901.69 5.25779L1902.15 4.49998H1901.26V4.99998ZM1806.06 163.2L1805.63 162.942L1805.56 163.061V163.2H1806.06ZM1806.06 250V250.5H1806.56V250H1806.06ZM1749.36 250H1748.86V250.5H1749.36V250ZM1749.36 162.5H1749.86V162.361L1749.79 162.242L1749.36 162.5ZM1654.51 4.99998V4.49998H1653.63L1654.08 5.25793L1654.51 4.99998ZM1714.71 4.99998L1715.14 4.74233L1714.99 4.49998H1714.71V4.99998ZM1780.16 113.85L1779.73 114.108L1780.16 114.82L1780.59 114.108L1780.16 113.85ZM1845.61 4.99998V4.49998H1845.33L1845.18 4.74233L1845.61 4.99998ZM1900.83 4.74218L1805.63 162.942L1806.49 163.458L1901.69 5.25779L1900.83 4.74218ZM1805.56 163.2V250H1806.56V163.2H1805.56ZM1806.06 249.5H1749.36V250.5H1806.06V249.5ZM1749.86 250V162.5H1748.86V250H1749.86ZM1749.79 162.242L1654.94 4.74203L1654.08 5.25793L1748.93 162.758L1749.79 162.242ZM1654.51 5.49998H1714.71V4.49998H1654.51V5.49998ZM1714.28 5.25764L1779.73 114.108L1780.59 113.592L1715.14 4.74233L1714.28 5.25764ZM1780.59 114.108L1846.04 5.25764L1845.18 4.74233L1779.73 113.592L1780.59 114.108ZM1845.61 5.49998H1901.26V4.49998H1845.61V5.49998Z" fill="#CCCCCC"/>
</svg>
